<svg width="457" height="396" viewBox="0 0 457 396" xmlns="http://www.w3.org/2000/svg" lang="en" xml:lang="en"><rect x="2" y="2" stroke-width="4" rx="0" width="453" height="392" stroke="#ffffff" fill="#ffffff"/><g font-weight="600" font-size="110pt" font-family="Verdana,Geneva,DejaVu Sans,sans-serif" text-rendering="geometricPrecision"><text x="895" y="301" lengthAdjust="spacingAndGlyphs" textLength="1917" transform="scale(0.123)" fill="#0969da">Rinc's GitHub Statistics</text><g transform="translate(0, 60)" fill="#24292f"><g transform="translate(15, 0)"><g transform="scale(0.095)"><text x="0" y="132" textLength="3652" lengthAdjust="spacingAndGlyphs">Language Distribution in Public Repositories</text></g></g><g transform="translate(243, 21)"><circle cx="92" cy="92" r="92" fill="#000000"/></g><g transform="translate(244, 22)"><path fill-rule="evenodd" fill="#555555" d="M 0.0,91.00000000000001 A 91 91 0 0 1 178.71908847525256 66.78509721120457 L 91,91 Z"/><path fill-rule="evenodd" fill="#f34b7d" d="M 178.71908847525256,66.78509721120457 A 91 91 0 0 1 128.9617223932524 173.70373409307248 L 91,91 Z"/><path fill-rule="evenodd" fill="#427819" d="M 128.9617223932524,173.70373409307248 A 91 91 0 0 1 79.48297931472086 181.26825707043895 L 91,91 Z"/><path fill-rule="evenodd" fill="#438eff" d="M 79.48297931472086,181.26825707043895 A 91 91 0 0 1 37.21571856878229 164.40470741667437 L 91,91 Z"/><path fill-rule="evenodd" fill="#b07219" d="M 37.21571856878229,164.40470741667437 A 91 91 0 0 1 23.097734610597655 151.58285528915894 L 91,91 Z"/><path fill-rule="evenodd" fill="#00ADD8" d="M 23.097734610597655,151.58285528915894 A 91 91 0 0 1 14.205395715514015 139.8220109457733 L 91,91 Z"/><path fill-rule="evenodd" fill="#A97BFF" d="M 14.205395715514015,139.8220109457733 A 91 91 0 0 1 7.634339187992467 127.48515584970568 L 91,91 Z"/><path fill-rule="evenodd" fill="#000080" d="M 7.634339187992467,127.48515584970568 A 91 91 0 0 1 3.910059263009032 117.38829707327479 L 91,91 Z"/><path fill-rule="evenodd" fill="#f1e05a" d="M 3.910059263009032,117.38829707327479 A 91 91 0 0 1 2.002018130441371 109.98312996177692 L 91,91 Z"/><path fill-rule="evenodd" fill="#3178c6" d="M 2.002018130441371,109.98312996177692 A 91 91 0 0 1 1.01797945678004 104.57335547900888 L 91,91 Z"/><path fill-rule="evenodd" fill="#6866fb" d="M 1.01797945678004,104.57335547900888 A 91 91 0 0 1 0.4562518378419327 100.10108063625945 L 91,91 Z"/><path fill-rule="evenodd" fill="#DA3434" d="M 0.4562518378419327,100.10108063625945 A 91 91 0 0 1 0.12153011691624727 95.70145846620375 L 91,91 Z"/><path fill-rule="evenodd" fill="#89e051" d="M 0.12153011691624727,95.70145846620375 A 91 91 0 0 1 0.009199341042616993 92.29390704530175 L 91,91 Z"/><path fill-rule="evenodd" fill="#8f14e9" d="M 0.009199341042616993,92.29390704530175 A 91 91 0 0 1 0.003802519857686093 91.83189191301567 L 91,91 Z"/><path fill-rule="evenodd" fill="#5686a5" d="M 0.003802519857686093,91.83189191301567 A 91 91 0 0 1 0.00119531310465959 91.46641779154918 L 91,91 Z"/><path fill-rule="evenodd" fill="#C1F12E" d="M 0.00119531310465959,91.46641779154918 A 91 91 0 0 1 0.00033933696539634184 91.24851400876345 L 91,91 Z"/><path fill-rule="evenodd" fill="#e34c26" d="M 0.00033933696539634184,91.24851400876345 A 91 91 0 0 1 3.435438138410518e-05 91.07907272748812 L 91,91 Z"/><path fill-rule="evenodd" fill="#701516" d="M 3.435438138410518e-05,91.07907272748812 A 91 91 0 0 1 0.0 91.00000000000003 L 91,91 Z"/></g><g transform="translate(15, 21)"><rect x="0.5" y="0.5" rx="2" width="15" height="15" fill="#555555" stroke-width="1" stroke="#000000"/><text transform="scale(0.095)" x="263" y="132" textLength="798" lengthAdjust="spacingAndGlyphs">C 45.71%</text></g><g transform="translate(15, 42)"><rect x="0.5" y="0.5" rx="2" width="15" height="15" fill="#f34b7d" stroke-width="1" stroke="#000000"/><text transform="scale(0.095)" x="263" y="132" textLength="1074" lengthAdjust="spacingAndGlyphs">C++ 22.44%</text></g><g transform="translate(15, 63)"><rect x="0.5" y="0.5" rx="2" width="15" height="15" fill="#427819" stroke-width="1" stroke="#000000"/><text transform="scale(0.095)" x="263" y="132" textLength="1272" lengthAdjust="spacingAndGlyphs">Makefile 8.87%</text></g><g transform="translate(15, 84)"><rect x="0.5" y="0.5" rx="2" width="15" height="15" fill="#438eff" stroke-width="1" stroke="#000000"/><text transform="scale(0.095)" x="263" y="132" textLength="1538" lengthAdjust="spacingAndGlyphs">Objective-C 8.04%</text></g><g transform="translate(15, 105)"><rect x="0.5" y="0.5" rx="2" width="15" height="15" fill="#b07219" stroke-width="1" stroke="#000000"/><text transform="scale(0.095)" x="263" y="132" textLength="933" lengthAdjust="spacingAndGlyphs">Java 3.34%</text></g><g transform="translate(15, 126)"><rect x="0.5" y="0.5" rx="2" width="15" height="15" fill="#00ADD8" stroke-width="1" stroke="#000000"/><text transform="scale(0.095)" x="263" y="132" textLength="806" lengthAdjust="spacingAndGlyphs">Go 2.58%</text></g><g transform="translate(15, 147)"><rect x="0.5" y="0.5" rx="2" width="15" height="15" fill="#A97BFF" stroke-width="1" stroke="#000000"/><text transform="scale(0.095)" x="263" y="132" textLength="1048" lengthAdjust="spacingAndGlyphs">Kotlin 2.45%</text></g><g transform="translate(15, 168)"><rect x="0.5" y="0.5" rx="2" width="15" height="15" fill="#000080" stroke-width="1" stroke="#000000"/><text transform="scale(0.095)" x="263" y="132" textLength="874" lengthAdjust="spacingAndGlyphs">Lua 1.88%</text></g><g transform="translate(15, 189)"><rect x="0.5" y="0.5" rx="2" width="15" height="15" fill="#f1e05a" stroke-width="1" stroke="#000000"/><text transform="scale(0.095)" x="263" y="132" textLength="1412" lengthAdjust="spacingAndGlyphs">JavaScript 1.34%</text></g><g transform="translate(15, 210)"><rect x="0.5" y="0.5" rx="2" width="15" height="15" fill="#3178c6" stroke-width="1" stroke="#000000"/><text transform="scale(0.095)" x="263" y="132" textLength="1462" lengthAdjust="spacingAndGlyphs">TypeScript 0.96%</text><rect x="228.5" y="0.5" rx="2" width="15" height="15" fill="#6866fb" stroke-width="1" stroke="#000000"/><text transform="scale(0.095)" x="2663" y="132" textLength="1814" lengthAdjust="spacingAndGlyphs">Objective-C++ 0.79%</text></g><g transform="translate(15, 231)"><rect x="0.5" y="0.5" rx="2" width="15" height="15" fill="#DA3434" stroke-width="1" stroke="#000000"/><text transform="scale(0.095)" x="263" y="132" textLength="1134" lengthAdjust="spacingAndGlyphs">CMake 0.77%</text><rect x="228.5" y="0.5" rx="2" width="15" height="15" fill="#89e051" stroke-width="1" stroke="#000000"/><text transform="scale(0.095)" x="2663" y="132" textLength="982" lengthAdjust="spacingAndGlyphs">Shell 0.60%</text></g><g transform="translate(15, 252)"><rect x="0.5" y="0.5" rx="2" width="15" height="15" fill="#8f14e9" stroke-width="1" stroke="#000000"/><text transform="scale(0.095)" x="263" y="132" textLength="1034" lengthAdjust="spacingAndGlyphs">Metal 0.08%</text><rect x="228.5" y="0.5" rx="2" width="15" height="15" fill="#5686a5" stroke-width="1" stroke="#000000"/><text transform="scale(0.095)" x="2663" y="132" textLength="993" lengthAdjust="spacingAndGlyphs">GLSL 0.06%</text></g><g transform="translate(15, 273)"><rect x="0.5" y="0.5" rx="2" width="15" height="15" fill="#C1F12E" stroke-width="1" stroke="#000000"/><text transform="scale(0.095)" x="263" y="132" textLength="1304" lengthAdjust="spacingAndGlyphs">Batchfile 0.04%</text><rect x="228.5" y="0.5" rx="2" width="15" height="15" fill="#e34c26" stroke-width="1" stroke="#000000"/><text transform="scale(0.095)" x="2663" y="132" textLength="1036" lengthAdjust="spacingAndGlyphs">HTML 0.03%</text></g><g transform="translate(15, 294)"><rect x="0.5" y="0.5" rx="2" width="15" height="15" fill="#701516" stroke-width="1" stroke="#000000"/><text transform="scale(0.095)" x="263" y="132" textLength="999" lengthAdjust="spacingAndGlyphs">Ruby 0.01%</text></g></g></g></svg>