<svg width="457" height="354" viewBox="0 0 457 354" xmlns="http://www.w3.org/2000/svg" lang="en" xml:lang="en"><rect x="2" y="2" stroke-width="4" rx="0" width="453" height="350" stroke="#ffffff" fill="#ffffff"/><g font-weight="600" font-size="110pt" font-family="Verdana,Geneva,DejaVu Sans,sans-serif" text-rendering="geometricPrecision"><text x="1828" y="301" lengthAdjust="spacingAndGlyphs" textLength="52" transform="scale(0.123)" fill="#0969da">.</text><g transform="translate(0, 60)" fill="#24292f"><g transform="translate(15, 0)"><g transform="scale(0.095)"><text x="0" y="132" textLength="3652" lengthAdjust="spacingAndGlyphs">Language Distribution in Public Repositories</text></g></g><g transform="translate(243, 21)"><circle cx="92" cy="92" r="92" fill="#000000"/></g><g transform="translate(244, 22)"><path fill-rule="evenodd" fill="#f34b7d" d="M 0.0,91.00000000000001 A 91 91 0 0 1 179.59942558525083 70.23604599399238 L 91,91 Z"/><path fill-rule="evenodd" fill="#438eff" d="M 179.59942558525083,70.23604599399238 A 91 91 0 0 1 166.24192688822194 142.18254036434166 L 91,91 Z"/><path fill-rule="evenodd" fill="#555555" d="M 166.24192688822194,142.18254036434166 A 91 91 0 0 1 137.5125909529969 169.21495306422673 L 91,91 Z"/><path fill-rule="evenodd" fill="#dea584" d="M 137.5125909529969,169.21495306422673 A 91 91 0 0 1 102.73179095949871 181.24059552597504 L 91,91 Z"/><path fill-rule="evenodd" fill="#b07219" d="M 102.73179095949871,181.24059552597504 A 91 91 0 0 1 72.84155545322054 180.16989902226837 L 91,91 Z"/><path fill-rule="evenodd" fill="#3178c6" d="M 72.84155545322054,180.16989902226837 A 91 91 0 0 1 48.89004783827673 171.67063858020077 L 91,91 Z"/><path fill-rule="evenodd" fill="#A97BFF" d="M 48.89004783827673,171.67063858020077 A 91 91 0 0 1 28.74030899996461 157.36814655073707 L 91,91 Z"/><path fill-rule="evenodd" fill="#00ADD8" d="M 28.74030899996461,157.36814655073707 A 91 91 0 0 1 13.534955233029777 138.75109254510625 L 91,91 Z"/><path fill-rule="evenodd" fill="#000080" d="M 13.534955233029777,138.75109254510625 A 91 91 0 0 1 7.276963566524358 126.65744200526602 L 91,91 Z"/><path fill-rule="evenodd" fill="#f1e05a" d="M 7.276963566524358,126.65744200526602 A 91 91 0 0 1 2.996476705964838 114.15987668007345 L 91,91 Z"/><path fill-rule="evenodd" fill="#DA3434" d="M 2.996476705964838,114.15987668007345 A 91 91 0 0 1 0.5754885390035156 101.21800993540887 L 91,91 Z"/><path fill-rule="evenodd" fill="#6866fb" d="M 0.5754885390035156,101.21800993540887 A 91 91 0 0 1 0.01453628092373549 92.62646605395145 L 91,91 Z"/><path fill-rule="evenodd" fill="#8f14e9" d="M 0.01453628092373549,92.62646605395145 A 91 91 0 0 1 0.004176933236976765 91.87188554429973 L 91,91 Z"/><path fill-rule="evenodd" fill="#959da5" d="M 0.004176933236976765,91.87188554429973 A 91 91 0 0 1 0.0 91.00000000000003 L 91,91 Z"/></g><g transform="translate(15, 21)"><rect x="0.5" y="0.5" rx="2" width="15" height="15" fill="#f34b7d" stroke-width="1" stroke="#000000"/><text transform="scale(0.095)" x="263" y="132" textLength="1074" lengthAdjust="spacingAndGlyphs">C++ 46.34%</text></g><g transform="translate(15, 42)"><rect x="0.5" y="0.5" rx="2" width="15" height="15" fill="#438eff" stroke-width="1" stroke="#000000"/><text transform="scale(0.095)" x="263" y="132" textLength="1642" lengthAdjust="spacingAndGlyphs">Objective-C 13.17%</text></g><g transform="translate(15, 63)"><rect x="0.5" y="0.5" rx="2" width="15" height="15" fill="#555555" stroke-width="1" stroke="#000000"/><text transform="scale(0.095)" x="263" y="132" textLength="693" lengthAdjust="spacingAndGlyphs">C 6.95%</text></g><g transform="translate(15, 84)"><rect x="0.5" y="0.5" rx="2" width="15" height="15" fill="#dea584" stroke-width="1" stroke="#000000"/><text transform="scale(0.095)" x="263" y="132" textLength="946" lengthAdjust="spacingAndGlyphs">Rust 6.48%</text></g><g transform="translate(15, 105)"><rect x="0.5" y="0.5" rx="2" width="15" height="15" fill="#b07219" stroke-width="1" stroke="#000000"/><text transform="scale(0.095)" x="263" y="132" textLength="933" lengthAdjust="spacingAndGlyphs">Java 5.25%</text></g><g transform="translate(15, 126)"><rect x="0.5" y="0.5" rx="2" width="15" height="15" fill="#3178c6" stroke-width="1" stroke="#000000"/><text transform="scale(0.095)" x="263" y="132" textLength="1462" lengthAdjust="spacingAndGlyphs">TypeScript 4.46%</text></g><g transform="translate(15, 147)"><rect x="0.5" y="0.5" rx="2" width="15" height="15" fill="#A97BFF" stroke-width="1" stroke="#000000"/><text transform="scale(0.095)" x="263" y="132" textLength="1048" lengthAdjust="spacingAndGlyphs">Kotlin 4.34%</text></g><g transform="translate(15, 168)"><rect x="0.5" y="0.5" rx="2" width="15" height="15" fill="#00ADD8" stroke-width="1" stroke="#000000"/><text transform="scale(0.095)" x="263" y="132" textLength="806" lengthAdjust="spacingAndGlyphs">Go 4.22%</text></g><g transform="translate(15, 189)"><rect x="0.5" y="0.5" rx="2" width="15" height="15" fill="#000080" stroke-width="1" stroke="#000000"/><text transform="scale(0.095)" x="263" y="132" textLength="874" lengthAdjust="spacingAndGlyphs">Lua 2.38%</text></g><g transform="translate(15, 210)"><rect x="0.5" y="0.5" rx="2" width="15" height="15" fill="#f1e05a" stroke-width="1" stroke="#000000"/><text transform="scale(0.095)" x="263" y="132" textLength="1412" lengthAdjust="spacingAndGlyphs">JavaScript 2.31%</text><rect x="228.5" y="0.5" rx="2" width="15" height="15" fill="#DA3434" stroke-width="1" stroke="#000000"/><text transform="scale(0.095)" x="2663" y="132" textLength="1134" lengthAdjust="spacingAndGlyphs">CMake 2.30%</text></g><g transform="translate(15, 231)"><rect x="0.5" y="0.5" rx="2" width="15" height="15" fill="#6866fb" stroke-width="1" stroke="#000000"/><text transform="scale(0.095)" x="263" y="132" textLength="1814" lengthAdjust="spacingAndGlyphs">Objective-C++ 1.51%</text><rect x="228.5" y="0.5" rx="2" width="15" height="15" fill="#8f14e9" stroke-width="1" stroke="#000000"/><text transform="scale(0.095)" x="2663" y="132" textLength="1034" lengthAdjust="spacingAndGlyphs">Metal 0.13%</text></g><g transform="translate(15, 252)"><rect x="0.5" y="0.5" rx="2" width="15" height="15" fill="#959da5" stroke-width="1" stroke="#000000"/><text transform="scale(0.095)" x="263" y="132" textLength="1047" lengthAdjust="spacingAndGlyphs">Other 0.15%</text></g></g></g></svg>