<svg width="457" height="396" viewBox="0 0 457 396" xmlns="http://www.w3.org/2000/svg" lang="en" xml:lang="en"><rect x="2" y="2" stroke-width="4" rx="0" width="453" height="392" stroke="#ffffff" fill="#ffffff"/><g font-weight="600" font-size="110pt" font-family="Verdana,Geneva,DejaVu Sans,sans-serif" text-rendering="geometricPrecision"><text x="895" y="301" lengthAdjust="spacingAndGlyphs" textLength="1917" transform="scale(0.123)" fill="#0969da">Rinc's GitHub Statistics</text><g transform="translate(0, 60)" fill="#24292f"><g transform="translate(15, 0)"><g transform="scale(0.095)"><text x="0" y="132" textLength="3652" lengthAdjust="spacingAndGlyphs">Language Distribution in Public Repositories</text></g></g><g transform="translate(243, 21)"><circle cx="92" cy="92" r="92" fill="#000000"/></g><g transform="translate(244, 22)"><path fill-rule="evenodd" fill="#f34b7d" d="M 0.0,91.00000000000001 A 91 91 0 0 1 171.53384635586366 48.62902418954519 L 91,91 Z"/><path fill-rule="evenodd" fill="#438eff" d="M 171.53384635586366,48.62902418954519 A 91 91 0 0 1 170.196628826322 135.82068699323764 L 91,91 Z"/><path fill-rule="evenodd" fill="#555555" d="M 170.196628826322,135.82068699323764 A 91 91 0 0 1 135.6486257037794 170.29375904044284 L 91,91 Z"/><path fill-rule="evenodd" fill="#b07219" d="M 135.6486257037794,170.29375904044284 A 91 91 0 0 1 101.27420033478558 181.41814423820415 L 91,91 Z"/><path fill-rule="evenodd" fill="#00ADD8" d="M 101.27420033478558,181.41814423820415 A 91 91 0 0 1 72.2481308792576 180.04699548260203 L 91,91 Z"/><path fill-rule="evenodd" fill="#A97BFF" d="M 72.2481308792576,180.04699548260203 A 91 91 0 0 1 46.45342428510702 170.35113478758387 L 91,91 Z"/><path fill-rule="evenodd" fill="#000080" d="M 46.45342428510702,170.35113478758387 A 91 91 0 0 1 29.27118021568281 157.86219266547644 L 91,91 Z"/><path fill-rule="evenodd" fill="#dea584" d="M 29.27118021568281,157.86219266547644 A 91 91 0 0 1 15.825454317090632 142.28145553090485 L 91,91 Z"/><path fill-rule="evenodd" fill="#f1e05a" d="M 15.825454317090632,142.28145553090485 A 91 91 0 0 1 8.377725235147238 129.13869049510186 L 91,91 Z"/><path fill-rule="evenodd" fill="#3178c6" d="M 8.377725235147238,129.13869049510186 A 91 91 0 0 1 4.420667466072956 119.01819369587699 L 91,91 Z"/><path fill-rule="evenodd" fill="#6866fb" d="M 4.420667466072956,119.01819369587699 A 91 91 0 0 1 2.0904508631984697 110.39309341726259 L 91,91 Z"/><path fill-rule="evenodd" fill="#DA3434" d="M 2.0904508631984697,110.39309341726259 A 91 91 0 0 1 0.6460611908451028 101.82431252650674 L 91,91 Z"/><path fill-rule="evenodd" fill="#89e051" d="M 0.6460611908451028,101.82431252650674 A 91 91 0 0 1 0.0927408829968357 95.10733975147481 L 91,91 Z"/><path fill-rule="evenodd" fill="#427819" d="M 0.0927408829968357,95.10733975147481 A 91 91 0 0 1 0.035959281406860555 93.55798673689448 L 91,91 Z"/><path fill-rule="evenodd" fill="#8f14e9" d="M 0.035959281406860555,93.55798673689448 A 91 91 0 0 1 0.014864087864680187 92.64470150795361 L 91,91 Z"/><path fill-rule="evenodd" fill="#5686a5" d="M 0.014864087864680187,92.64470150795361 A 91 91 0 0 1 0.0046725556977520455 91.9221622981954 L 91,91 Z"/><path fill-rule="evenodd" fill="#C1F12E" d="M 0.0046725556977520455,91.9221622981954 A 91 91 0 0 1 0.001326496042082681 91.49134562180384 L 91,91 Z"/><path fill-rule="evenodd" fill="#e34c26" d="M 0.001326496042082681,91.49134562180384 A 91 91 0 0 1 0.00013429431402300906 91.15633792603617 L 91,91 Z"/><path fill-rule="evenodd" fill="#701516" d="M 0.00013429431402300906,91.15633792603617 A 91 91 0 0 1 0.0 91.00000000000003 L 91,91 Z"/></g><g transform="translate(15, 21)"><rect x="0.5" y="0.5" rx="2" width="15" height="15" fill="#f34b7d" stroke-width="1" stroke="#000000"/><text transform="scale(0.095)" x="263" y="132" textLength="1074" lengthAdjust="spacingAndGlyphs">C++ 42.29%</text></g><g transform="translate(15, 42)"><rect x="0.5" y="0.5" rx="2" width="15" height="15" fill="#438eff" stroke-width="1" stroke="#000000"/><text transform="scale(0.095)" x="263" y="132" textLength="1642" lengthAdjust="spacingAndGlyphs">Objective-C 15.90%</text></g><g transform="translate(15, 63)"><rect x="0.5" y="0.5" rx="2" width="15" height="15" fill="#555555" stroke-width="1" stroke="#000000"/><text transform="scale(0.095)" x="263" y="132" textLength="693" lengthAdjust="spacingAndGlyphs">C 8.64%</text></g><g transform="translate(15, 84)"><rect x="0.5" y="0.5" rx="2" width="15" height="15" fill="#b07219" stroke-width="1" stroke="#000000"/><text transform="scale(0.095)" x="263" y="132" textLength="933" lengthAdjust="spacingAndGlyphs">Java 6.36%</text></g><g transform="translate(15, 105)"><rect x="0.5" y="0.5" rx="2" width="15" height="15" fill="#00ADD8" stroke-width="1" stroke="#000000"/><text transform="scale(0.095)" x="263" y="132" textLength="806" lengthAdjust="spacingAndGlyphs">Go 5.10%</text></g><g transform="translate(15, 126)"><rect x="0.5" y="0.5" rx="2" width="15" height="15" fill="#A97BFF" stroke-width="1" stroke="#000000"/><text transform="scale(0.095)" x="263" y="132" textLength="1048" lengthAdjust="spacingAndGlyphs">Kotlin 4.84%</text></g><g transform="translate(15, 147)"><rect x="0.5" y="0.5" rx="2" width="15" height="15" fill="#000080" stroke-width="1" stroke="#000000"/><text transform="scale(0.095)" x="263" y="132" textLength="874" lengthAdjust="spacingAndGlyphs">Lua 3.72%</text></g><g transform="translate(15, 168)"><rect x="0.5" y="0.5" rx="2" width="15" height="15" fill="#dea584" stroke-width="1" stroke="#000000"/><text transform="scale(0.095)" x="263" y="132" textLength="946" lengthAdjust="spacingAndGlyphs">Rust 3.61%</text></g><g transform="translate(15, 189)"><rect x="0.5" y="0.5" rx="2" width="15" height="15" fill="#f1e05a" stroke-width="1" stroke="#000000"/><text transform="scale(0.095)" x="263" y="132" textLength="1412" lengthAdjust="spacingAndGlyphs">JavaScript 2.65%</text></g><g transform="translate(15, 210)"><rect x="0.5" y="0.5" rx="2" width="15" height="15" fill="#3178c6" stroke-width="1" stroke="#000000"/><text transform="scale(0.095)" x="263" y="132" textLength="1462" lengthAdjust="spacingAndGlyphs">TypeScript 1.90%</text><rect x="228.5" y="0.5" rx="2" width="15" height="15" fill="#6866fb" stroke-width="1" stroke="#000000"/><text transform="scale(0.095)" x="2663" y="132" textLength="1814" lengthAdjust="spacingAndGlyphs">Objective-C++ 1.56%</text></g><g transform="translate(15, 231)"><rect x="0.5" y="0.5" rx="2" width="15" height="15" fill="#DA3434" stroke-width="1" stroke="#000000"/><text transform="scale(0.095)" x="263" y="132" textLength="1134" lengthAdjust="spacingAndGlyphs">CMake 1.52%</text><rect x="228.5" y="0.5" rx="2" width="15" height="15" fill="#89e051" stroke-width="1" stroke="#000000"/><text transform="scale(0.095)" x="2663" y="132" textLength="982" lengthAdjust="spacingAndGlyphs">Shell 1.18%</text></g><g transform="translate(15, 252)"><rect x="0.5" y="0.5" rx="2" width="15" height="15" fill="#427819" stroke-width="1" stroke="#000000"/><text transform="scale(0.095)" x="263" y="132" textLength="1272" lengthAdjust="spacingAndGlyphs">Makefile 0.27%</text><rect x="228.5" y="0.5" rx="2" width="15" height="15" fill="#8f14e9" stroke-width="1" stroke="#000000"/><text transform="scale(0.095)" x="2663" y="132" textLength="1034" lengthAdjust="spacingAndGlyphs">Metal 0.16%</text></g><g transform="translate(15, 273)"><rect x="0.5" y="0.5" rx="2" width="15" height="15" fill="#5686a5" stroke-width="1" stroke="#000000"/><text transform="scale(0.095)" x="263" y="132" textLength="993" lengthAdjust="spacingAndGlyphs">GLSL 0.13%</text><rect x="228.5" y="0.5" rx="2" width="15" height="15" fill="#C1F12E" stroke-width="1" stroke="#000000"/><text transform="scale(0.095)" x="2663" y="132" textLength="1304" lengthAdjust="spacingAndGlyphs">Batchfile 0.08%</text></g><g transform="translate(15, 294)"><rect x="0.5" y="0.5" rx="2" width="15" height="15" fill="#e34c26" stroke-width="1" stroke="#000000"/><text transform="scale(0.095)" x="263" y="132" textLength="1036" lengthAdjust="spacingAndGlyphs">HTML 0.06%</text><rect x="228.5" y="0.5" rx="2" width="15" height="15" fill="#701516" stroke-width="1" stroke="#000000"/><text transform="scale(0.095)" x="2663" y="132" textLength="999" lengthAdjust="spacingAndGlyphs">Ruby 0.03%</text></g></g></g></svg>