<svg width="457" height="396" viewBox="0 0 457 396" xmlns="http://www.w3.org/2000/svg" lang="en" xml:lang="en"><rect x="2" y="2" stroke-width="4" rx="0" width="453" height="392" stroke="#ffffff" fill="#ffffff"/><g font-weight="600" font-size="110pt" font-family="Verdana,Geneva,DejaVu Sans,sans-serif" text-rendering="geometricPrecision"><text x="895" y="301" lengthAdjust="spacingAndGlyphs" textLength="1917" transform="scale(0.123)" fill="#0969da">Rinc's GitHub Statistics</text><g transform="translate(0, 60)" fill="#24292f"><g transform="translate(15, 0)"><g transform="scale(0.095)"><text x="0" y="132" textLength="3652" lengthAdjust="spacingAndGlyphs">Language Distribution in Public Repositories</text></g></g><g transform="translate(243, 21)"><circle cx="92" cy="92" r="92" fill="#000000"/></g><g transform="translate(244, 22)"><path fill-rule="evenodd" fill="#f34b7d" d="M 0.0,91.00000000000001 A 91 91 0 0 1 168.0030658017227 42.50744534327393 L 91,91 Z"/><path fill-rule="evenodd" fill="#438eff" d="M 168.0030658017227,42.50744534327393 A 91 91 0 0 1 175.69106481187362 124.29299537486862 L 91,91 Z"/><path fill-rule="evenodd" fill="#555555" d="M 175.69106481187362,124.29299537486862 A 91 91 0 0 1 148.64735682401036 161.4115207278271 L 91,91 Z"/><path fill-rule="evenodd" fill="#dea584" d="M 148.64735682401036,161.4115207278271 A 91 91 0 0 1 111.2199697941808 179.7251532628849 L 91,91 Z"/><path fill-rule="evenodd" fill="#b07219" d="M 111.2199697941808,179.7251532628849 A 91 91 0 0 1 77.3550773091357 180.97119586156637 L 91,91 Z"/><path fill-rule="evenodd" fill="#00ADD8" d="M 77.3550773091357,180.97119586156637 A 91 91 0 0 1 51.33094407167749 172.89851037568155 L 91,91 Z"/><path fill-rule="evenodd" fill="#A97BFF" d="M 51.33094407167749,172.89851037568155 A 91 91 0 0 1 29.89920092502797 158.43658022468145 L 91,91 Z"/><path fill-rule="evenodd" fill="#000080" d="M 29.89920092502797,158.43658022468145 A 91 91 0 0 1 16.716612397319167 143.56404023921567 L 91,91 Z"/><path fill-rule="evenodd" fill="#f1e05a" d="M 16.716612397319167,143.56404023921567 A 91 91 0 0 1 9.618857603170454 131.71989270844108 L 91,91 Z"/><path fill-rule="evenodd" fill="#3178c6" d="M 9.618857603170454,131.71989270844108 A 91 91 0 0 1 5.578302208975899 122.37090286394303 L 91,91 Z"/><path fill-rule="evenodd" fill="#DA3434" d="M 5.578302208975899,122.37090286394303 A 91 91 0 0 1 2.614663744990608 112.65715436267935 L 91,91 Z"/><path fill-rule="evenodd" fill="#6866fb" d="M 2.614663744990608,112.65715436267935 A 91 91 0 0 1 0.901637497002227 103.77830482804366 L 91,91 Z"/><path fill-rule="evenodd" fill="#89e051" d="M 0.901637497002227,103.77830482804366 A 91 91 0 0 1 0.10162253255570874 95.29941551679008 L 91,91 Z"/><path fill-rule="evenodd" fill="#427819" d="M 0.10162253255570874,95.29941551679008 A 91 91 0 0 1 0.044562515630900634 93.84752384134438 L 91,91 Z"/><path fill-rule="evenodd" fill="#8f14e9" d="M 0.044562515630900634,93.84752384134438 A 91 91 0 0 1 0.02179810248790659 92.99167755812225 L 91,91 Z"/><path fill-rule="evenodd" fill="#C1F12E" d="M 0.02179810248790659,92.99167755812225 A 91 91 0 0 1 0.007111908342693596 92.13768042047414 L 91,91 Z"/><path fill-rule="evenodd" fill="#5686a5" d="M 0.007111908342693596,92.13768042047414 A 91 91 0 0 1 0.0011650909263494214 91.46048364917473 L 91,91 Z"/><path fill-rule="evenodd" fill="#e34c26" d="M 0.0011650909263494214,91.46048364917473 A 91 91 0 0 1 0.0001179536464519515 91.14651808673293 L 91,91 Z"/><path fill-rule="evenodd" fill="#701516" d="M 0.0001179536464519515,91.14651808673293 A 91 91 0 0 1 0.0 91.00000000000003 L 91,91 Z"/></g><g transform="translate(15, 21)"><rect x="0.5" y="0.5" rx="2" width="15" height="15" fill="#f34b7d" stroke-width="1" stroke="#000000"/><text transform="scale(0.095)" x="263" y="132" textLength="1074" lengthAdjust="spacingAndGlyphs">C++ 41.06%</text></g><g transform="translate(15, 42)"><rect x="0.5" y="0.5" rx="2" width="15" height="15" fill="#438eff" stroke-width="1" stroke="#000000"/><text transform="scale(0.095)" x="263" y="132" textLength="1642" lengthAdjust="spacingAndGlyphs">Objective-C 14.91%</text></g><g transform="translate(15, 63)"><rect x="0.5" y="0.5" rx="2" width="15" height="15" fill="#555555" stroke-width="1" stroke="#000000"/><text transform="scale(0.095)" x="263" y="132" textLength="693" lengthAdjust="spacingAndGlyphs">C 8.12%</text></g><g transform="translate(15, 84)"><rect x="0.5" y="0.5" rx="2" width="15" height="15" fill="#dea584" stroke-width="1" stroke="#000000"/><text transform="scale(0.095)" x="263" y="132" textLength="946" lengthAdjust="spacingAndGlyphs">Rust 7.35%</text></g><g transform="translate(15, 105)"><rect x="0.5" y="0.5" rx="2" width="15" height="15" fill="#b07219" stroke-width="1" stroke="#000000"/><text transform="scale(0.095)" x="263" y="132" textLength="933" lengthAdjust="spacingAndGlyphs">Java 5.96%</text></g><g transform="translate(15, 126)"><rect x="0.5" y="0.5" rx="2" width="15" height="15" fill="#00ADD8" stroke-width="1" stroke="#000000"/><text transform="scale(0.095)" x="263" y="132" textLength="806" lengthAdjust="spacingAndGlyphs">Go 4.78%</text></g><g transform="translate(15, 147)"><rect x="0.5" y="0.5" rx="2" width="15" height="15" fill="#A97BFF" stroke-width="1" stroke="#000000"/><text transform="scale(0.095)" x="263" y="132" textLength="1048" lengthAdjust="spacingAndGlyphs">Kotlin 4.54%</text></g><g transform="translate(15, 168)"><rect x="0.5" y="0.5" rx="2" width="15" height="15" fill="#000080" stroke-width="1" stroke="#000000"/><text transform="scale(0.095)" x="263" y="132" textLength="874" lengthAdjust="spacingAndGlyphs">Lua 3.48%</text></g><g transform="translate(15, 189)"><rect x="0.5" y="0.5" rx="2" width="15" height="15" fill="#f1e05a" stroke-width="1" stroke="#000000"/><text transform="scale(0.095)" x="263" y="132" textLength="1412" lengthAdjust="spacingAndGlyphs">JavaScript 2.42%</text></g><g transform="translate(15, 210)"><rect x="0.5" y="0.5" rx="2" width="15" height="15" fill="#3178c6" stroke-width="1" stroke="#000000"/><text transform="scale(0.095)" x="263" y="132" textLength="1462" lengthAdjust="spacingAndGlyphs">TypeScript 1.78%</text><rect x="228.5" y="0.5" rx="2" width="15" height="15" fill="#DA3434" stroke-width="1" stroke="#000000"/><text transform="scale(0.095)" x="2663" y="132" textLength="1134" lengthAdjust="spacingAndGlyphs">CMake 1.78%</text></g><g transform="translate(15, 231)"><rect x="0.5" y="0.5" rx="2" width="15" height="15" fill="#6866fb" stroke-width="1" stroke="#000000"/><text transform="scale(0.095)" x="263" y="132" textLength="1814" lengthAdjust="spacingAndGlyphs">Objective-C++ 1.58%</text><rect x="228.5" y="0.5" rx="2" width="15" height="15" fill="#89e051" stroke-width="1" stroke="#000000"/><text transform="scale(0.095)" x="2663" y="132" textLength="982" lengthAdjust="spacingAndGlyphs">Shell 1.49%</text></g><g transform="translate(15, 252)"><rect x="0.5" y="0.5" rx="2" width="15" height="15" fill="#427819" stroke-width="1" stroke="#000000"/><text transform="scale(0.095)" x="263" y="132" textLength="1272" lengthAdjust="spacingAndGlyphs">Makefile 0.25%</text><rect x="228.5" y="0.5" rx="2" width="15" height="15" fill="#8f14e9" stroke-width="1" stroke="#000000"/><text transform="scale(0.095)" x="2663" y="132" textLength="1034" lengthAdjust="spacingAndGlyphs">Metal 0.15%</text></g><g transform="translate(15, 273)"><rect x="0.5" y="0.5" rx="2" width="15" height="15" fill="#C1F12E" stroke-width="1" stroke="#000000"/><text transform="scale(0.095)" x="263" y="132" textLength="1304" lengthAdjust="spacingAndGlyphs">Batchfile 0.15%</text><rect x="228.5" y="0.5" rx="2" width="15" height="15" fill="#5686a5" stroke-width="1" stroke="#000000"/><text transform="scale(0.095)" x="2663" y="132" textLength="993" lengthAdjust="spacingAndGlyphs">GLSL 0.12%</text></g><g transform="translate(15, 294)"><rect x="0.5" y="0.5" rx="2" width="15" height="15" fill="#e34c26" stroke-width="1" stroke="#000000"/><text transform="scale(0.095)" x="263" y="132" textLength="1036" lengthAdjust="spacingAndGlyphs">HTML 0.05%</text><rect x="228.5" y="0.5" rx="2" width="15" height="15" fill="#701516" stroke-width="1" stroke="#000000"/><text transform="scale(0.095)" x="2663" y="132" textLength="999" lengthAdjust="spacingAndGlyphs">Ruby 0.03%</text></g></g></g></svg>