<svg width="404" height="312" viewBox="0 0 404 312" xmlns="http://www.w3.org/2000/svg" lang="en" xml:lang="en"><rect x="2" y="2" stroke-width="4" rx="0" width="400" height="308" stroke="#ffffff" fill="#ffffff"/><g font-weight="600" font-size="110pt" font-family="Verdana,Geneva,DejaVu Sans,sans-serif" text-rendering="geometricPrecision"><text x="1616" y="301" lengthAdjust="spacingAndGlyphs" textLength="52" transform="scale(0.123)" fill="#0969da">.</text><g transform="translate(0, 60)" fill="#24292f"><g transform="translate(15, 0)"><g transform="scale(0.095)"><text x="0" y="132" textLength="3652" lengthAdjust="spacingAndGlyphs">Language Distribution in Public Repositories</text></g></g><g transform="translate(217, 21)"><circle cx="81" cy="81" r="81" fill="#000000"/></g><g transform="translate(218, 22)"><path fill-rule="evenodd" fill="#f34b7d" d="M 0.0,80.00000000000001 A 80 80 0 1 1 158.17757635853275 96.97841437548817 L 80,80 Z"/><path fill-rule="evenodd" fill="#dea584" d="M 158.17757635853275,96.97841437548817 A 80 80 0 0 1 83.67801989184352 159.91540633491894 L 80,80 Z"/><path fill-rule="evenodd" fill="#555555" d="M 83.67801989184352,159.91540633491894 A 80 80 0 0 1 55.06994617973201 156.01639570854792 L 80,80 Z"/><path fill-rule="evenodd" fill="#438eff" d="M 55.06994617973201,156.01639570854792 A 80 80 0 0 1 35.535479825918216 146.50493549871823 L 80,80 Z"/><path fill-rule="evenodd" fill="#b07219" d="M 35.535479825918216,146.50493549871823 A 80 80 0 0 1 19.47053112606664 132.30854039102536 L 80,80 Z"/><path fill-rule="evenodd" fill="#00ADD8" d="M 19.47053112606664,132.30854039102536 A 80 80 0 0 1 10.324195732268208 119.31007885574293 L 80,80 Z"/><path fill-rule="evenodd" fill="#DA3434" d="M 10.324195732268208,119.31007885574293 A 80 80 0 0 1 4.409324003116069 106.19255051219939 L 80,80 Z"/><path fill-rule="evenodd" fill="#000080" d="M 4.409324003116069,106.19255051219939 A 80 80 0 0 1 1.6094746252964995 95.96638755254196 L 80,80 Z"/><path fill-rule="evenodd" fill="#f1e05a" d="M 1.6094746252964995,95.96638755254196 A 80 80 0 0 1 0.4413615997657132 88.39184460656692 L 80,80 Z"/><path fill-rule="evenodd" fill="#A97BFF" d="M 0.4413615997657132,88.39184460656692 A 80 80 0 0 1 0.061617332142503756 83.13926367914189 L 80,80 Z"/><path fill-rule="evenodd" fill="#8f14e9" d="M 0.061617332142503756,83.13926367914189 A 80 80 0 0 1 0.042245340900834094 82.59951339202271 L 80,80 Z"/><path fill-rule="evenodd" fill="#5686a5" d="M 0.042245340900834094,82.59951339202271 A 80 80 0 0 1 0.0 80.00000000000003 L 80,80 Z"/></g><g transform="translate(15, 21)"><rect x="0.5" y="0.5" rx="2" width="15" height="15" fill="#f34b7d" stroke-width="1" stroke="#000000"/><text transform="scale(0.095)" x="263" y="132" textLength="1074" lengthAdjust="spacingAndGlyphs">C++ 53.40%</text></g><g transform="translate(15, 42)"><rect x="0.5" y="0.5" rx="2" width="15" height="15" fill="#dea584" stroke-width="1" stroke="#000000"/><text transform="scale(0.095)" x="263" y="132" textLength="1052" lengthAdjust="spacingAndGlyphs">Rust 20.86%</text></g><g transform="translate(15, 63)"><rect x="0.5" y="0.5" rx="2" width="15" height="15" fill="#555555" stroke-width="1" stroke="#000000"/><text transform="scale(0.095)" x="263" y="132" textLength="693" lengthAdjust="spacingAndGlyphs">C 5.78%</text></g><g transform="translate(15, 84)"><rect x="0.5" y="0.5" rx="2" width="15" height="15" fill="#438eff" stroke-width="1" stroke="#000000"/><text transform="scale(0.095)" x="263" y="132" textLength="1538" lengthAdjust="spacingAndGlyphs">Objective-C 4.34%</text></g><g transform="translate(15, 105)"><rect x="0.5" y="0.5" rx="2" width="15" height="15" fill="#b07219" stroke-width="1" stroke="#000000"/><text transform="scale(0.095)" x="263" y="132" textLength="933" lengthAdjust="spacingAndGlyphs">Java 4.28%</text></g><g transform="translate(15, 126)"><rect x="0.5" y="0.5" rx="2" width="15" height="15" fill="#00ADD8" stroke-width="1" stroke="#000000"/><text transform="scale(0.095)" x="263" y="132" textLength="806" lengthAdjust="spacingAndGlyphs">Go 3.17%</text></g><g transform="translate(15, 147)"><rect x="0.5" y="0.5" rx="2" width="15" height="15" fill="#DA3434" stroke-width="1" stroke="#000000"/><text transform="scale(0.095)" x="263" y="132" textLength="1134" lengthAdjust="spacingAndGlyphs">CMake 2.87%</text></g><g transform="translate(15, 168)"><rect x="0.5" y="0.5" rx="2" width="15" height="15" fill="#000080" stroke-width="1" stroke="#000000"/><text transform="scale(0.095)" x="263" y="132" textLength="874" lengthAdjust="spacingAndGlyphs">Lua 2.11%</text></g><g transform="translate(15, 189)"><rect x="0.5" y="0.5" rx="2" width="15" height="15" fill="#f1e05a" stroke-width="1" stroke="#000000"/><text transform="scale(0.095)" x="263" y="132" textLength="1412" lengthAdjust="spacingAndGlyphs">JavaScript 1.53%</text><rect x="202.5" y="0.5" rx="2" width="15" height="15" fill="#A97BFF" stroke-width="1" stroke="#000000"/><text transform="scale(0.095)" x="2389" y="132" textLength="1048" lengthAdjust="spacingAndGlyphs">Kotlin 1.05%</text></g><g transform="translate(15, 210)"><rect x="0.5" y="0.5" rx="2" width="15" height="15" fill="#8f14e9" stroke-width="1" stroke="#000000"/><text transform="scale(0.095)" x="263" y="132" textLength="1034" lengthAdjust="spacingAndGlyphs">Metal 0.11%</text><rect x="202.5" y="0.5" rx="2" width="15" height="15" fill="#5686a5" stroke-width="1" stroke="#000000"/><text transform="scale(0.095)" x="2389" y="132" textLength="993" lengthAdjust="spacingAndGlyphs">GLSL 0.08%</text></g></g></g></svg>