<svg width="457" height="354" viewBox="0 0 457 354" xmlns="http://www.w3.org/2000/svg" lang="en" xml:lang="en"><rect x="2" y="2" stroke-width="4" rx="0" width="453" height="350" stroke="#ffffff" fill="#ffffff"/><g font-weight="600" font-size="110pt" font-family="Verdana,Geneva,DejaVu Sans,sans-serif" text-rendering="geometricPrecision"><text x="1828" y="301" lengthAdjust="spacingAndGlyphs" textLength="52" transform="scale(0.123)" fill="#0969da">.</text><g transform="translate(0, 60)" fill="#24292f"><g transform="translate(15, 0)"><g transform="scale(0.095)"><text x="0" y="132" textLength="3652" lengthAdjust="spacingAndGlyphs">Language Distribution in Public Repositories</text></g></g><g transform="translate(243, 21)"><circle cx="92" cy="92" r="92" fill="#000000"/></g><g transform="translate(244, 22)"><path fill-rule="evenodd" fill="#f34b7d" d="M 0.0,91.00000000000001 A 91 91 0 1 1 181.87026021892234 95.85755162045021 L 91,91 Z"/><path fill-rule="evenodd" fill="#438eff" d="M 181.87026021892234,95.85755162045021 A 91 91 0 0 1 150.73408260393245 159.65012290933333 L 91,91 Z"/><path fill-rule="evenodd" fill="#555555" d="M 150.73408260393245,159.65012290933333 A 91 91 0 0 1 116.25726624102465 178.4246561447627 L 91,91 Z"/><path fill-rule="evenodd" fill="#dea584" d="M 116.25726624102465,178.4246561447627 A 91 91 0 0 1 79.74743480932426 181.3016045075036 L 91,91 Z"/><path fill-rule="evenodd" fill="#b07219" d="M 79.74743480932426,181.3016045075036 A 91 91 0 0 1 51.21141615656721 172.8405070593659 L 91,91 Z"/><path fill-rule="evenodd" fill="#00ADD8" d="M 51.21141615656721,172.8405070593659 A 91 91 0 0 1 31.260109488898955 159.6450688813236 L 91,91 Z"/><path fill-rule="evenodd" fill="#A97BFF" d="M 31.260109488898955,159.6450688813236 A 91 91 0 0 1 18.879360324999652 146.49426396366354 L 91,91 Z"/><path fill-rule="evenodd" fill="#000080" d="M 18.879360324999652,146.49426396366354 A 91 91 0 0 1 9.57902961408692 131.64019662127959 L 91,91 Z"/><path fill-rule="evenodd" fill="#f1e05a" d="M 9.57902961408692,131.64019662127959 A 91 91 0 0 1 3.365744429294054 115.52013969308075 L 91,91 Z"/><path fill-rule="evenodd" fill="#DA3434" d="M 3.365744429294054,115.52013969308075 A 91 91 0 0 1 0.6012500044040934 101.4434668206371 L 91,91 Z"/><path fill-rule="evenodd" fill="#6866fb" d="M 0.6012500044040934,101.4434668206371 A 91 91 0 0 1 0.019745539340803475 92.89559971346863 L 91,91 Z"/><path fill-rule="evenodd" fill="#8f14e9" d="M 0.019745539340803475,92.89559971346863 A 91 91 0 0 1 0.0072006439923058 92.14475558846729 L 91,91 Z"/><path fill-rule="evenodd" fill="#5686a5" d="M 0.0072006439923058,92.14475558846729 A 91 91 0 0 1 0.0016667786553909991 91.55077303595023 L 91,91 Z"/><path fill-rule="evenodd" fill="#959da5" d="M 0.0016667786553909991,91.55077303595023 A 91 91 0 0 1 0.0 91.00000000000003 L 91,91 Z"/></g><g transform="translate(15, 21)"><rect x="0.5" y="0.5" rx="2" width="15" height="15" fill="#f34b7d" stroke-width="1" stroke="#000000"/><text transform="scale(0.095)" x="263" y="132" textLength="1074" lengthAdjust="spacingAndGlyphs">C++ 50.85%</text></g><g transform="translate(15, 42)"><rect x="0.5" y="0.5" rx="2" width="15" height="15" fill="#438eff" stroke-width="1" stroke="#000000"/><text transform="scale(0.095)" x="263" y="132" textLength="1642" lengthAdjust="spacingAndGlyphs">Objective-C 12.75%</text></g><g transform="translate(15, 63)"><rect x="0.5" y="0.5" rx="2" width="15" height="15" fill="#555555" stroke-width="1" stroke="#000000"/><text transform="scale(0.095)" x="263" y="132" textLength="693" lengthAdjust="spacingAndGlyphs">C 6.92%</text></g><g transform="translate(15, 84)"><rect x="0.5" y="0.5" rx="2" width="15" height="15" fill="#dea584" stroke-width="1" stroke="#000000"/><text transform="scale(0.095)" x="263" y="132" textLength="946" lengthAdjust="spacingAndGlyphs">Rust 6.45%</text></g><g transform="translate(15, 105)"><rect x="0.5" y="0.5" rx="2" width="15" height="15" fill="#b07219" stroke-width="1" stroke="#000000"/><text transform="scale(0.095)" x="263" y="132" textLength="933" lengthAdjust="spacingAndGlyphs">Java 5.23%</text></g><g transform="translate(15, 126)"><rect x="0.5" y="0.5" rx="2" width="15" height="15" fill="#00ADD8" stroke-width="1" stroke="#000000"/><text transform="scale(0.095)" x="263" y="132" textLength="806" lengthAdjust="spacingAndGlyphs">Go 4.20%</text></g><g transform="translate(15, 147)"><rect x="0.5" y="0.5" rx="2" width="15" height="15" fill="#A97BFF" stroke-width="1" stroke="#000000"/><text transform="scale(0.095)" x="263" y="132" textLength="1048" lengthAdjust="spacingAndGlyphs">Kotlin 3.16%</text></g><g transform="translate(15, 168)"><rect x="0.5" y="0.5" rx="2" width="15" height="15" fill="#000080" stroke-width="1" stroke="#000000"/><text transform="scale(0.095)" x="263" y="132" textLength="874" lengthAdjust="spacingAndGlyphs">Lua 3.07%</text></g><g transform="translate(15, 189)"><rect x="0.5" y="0.5" rx="2" width="15" height="15" fill="#f1e05a" stroke-width="1" stroke="#000000"/><text transform="scale(0.095)" x="263" y="132" textLength="1412" lengthAdjust="spacingAndGlyphs">JavaScript 3.03%</text></g><g transform="translate(15, 210)"><rect x="0.5" y="0.5" rx="2" width="15" height="15" fill="#DA3434" stroke-width="1" stroke="#000000"/><text transform="scale(0.095)" x="263" y="132" textLength="1134" lengthAdjust="spacingAndGlyphs">CMake 2.51%</text><rect x="228.5" y="0.5" rx="2" width="15" height="15" fill="#6866fb" stroke-width="1" stroke="#000000"/><text transform="scale(0.095)" x="2663" y="132" textLength="1814" lengthAdjust="spacingAndGlyphs">Objective-C++ 1.50%</text></g><g transform="translate(15, 231)"><rect x="0.5" y="0.5" rx="2" width="15" height="15" fill="#8f14e9" stroke-width="1" stroke="#000000"/><text transform="scale(0.095)" x="263" y="132" textLength="1034" lengthAdjust="spacingAndGlyphs">Metal 0.13%</text><rect x="228.5" y="0.5" rx="2" width="15" height="15" fill="#5686a5" stroke-width="1" stroke="#000000"/><text transform="scale(0.095)" x="2663" y="132" textLength="993" lengthAdjust="spacingAndGlyphs">GLSL 0.10%</text></g><g transform="translate(15, 252)"><rect x="0.5" y="0.5" rx="2" width="15" height="15" fill="#959da5" stroke-width="1" stroke="#000000"/><text transform="scale(0.095)" x="263" y="132" textLength="1047" lengthAdjust="spacingAndGlyphs">Other 0.10%</text></g></g></g></svg>