<svg width="457" height="354" viewBox="0 0 457 354" xmlns="http://www.w3.org/2000/svg" lang="en" xml:lang="en"><rect x="2" y="2" stroke-width="4" rx="0" width="453" height="350" stroke="#ffffff" fill="#ffffff"/><g font-weight="600" font-size="110pt" font-family="Verdana,Geneva,DejaVu Sans,sans-serif" text-rendering="geometricPrecision"><text x="1796" y="301" lengthAdjust="spacingAndGlyphs" textLength="116" transform="scale(0.123)" fill="#0969da">📊</text><g transform="translate(0, 60)" fill="#24292f"><g transform="translate(15, 0)"><g transform="scale(0.095)"><text x="0" y="132" textLength="3652" lengthAdjust="spacingAndGlyphs">Language Distribution in Public Repositories</text></g></g><g transform="translate(243, 21)"><circle cx="92" cy="92" r="92" fill="#000000"/></g><g transform="translate(244, 22)"><path fill-rule="evenodd" fill="#f34b7d" d="M 0.0,91.00000000000001 A 91 91 0 0 1 181.7644464520754 84.4566629119128 L 91,91 Z"/><path fill-rule="evenodd" fill="#438eff" d="M 181.7644464520754,84.4566629119128 A 91 91 0 0 1 153.85460973976126 156.8050000718966 L 91,91 Z"/><path fill-rule="evenodd" fill="#555555" d="M 153.85460973976126,156.8050000718966 A 91 91 0 0 1 117.61298756538037 178.02154269400717 L 91,91 Z"/><path fill-rule="evenodd" fill="#dea584" d="M 117.61298756538037,178.02154269400717 A 91 91 0 0 1 78.62752143950283 181.15498751744153 L 91,91 Z"/><path fill-rule="evenodd" fill="#b07219" d="M 78.62752143950283,181.15498751744153 A 91 91 0 0 1 48.36570911439694 171.39475878862868 L 91,91 Z"/><path fill-rule="evenodd" fill="#00ADD8" d="M 48.36570911439694,171.39475878862868 A 91 91 0 0 1 27.690245123707328 156.3672313740129 L 91,91 Z"/><path fill-rule="evenodd" fill="#A97BFF" d="M 27.690245123707328,156.3672313740129 A 91 91 0 0 1 12.6090123958016 137.21529035328473 L 91,91 Z"/><path fill-rule="evenodd" fill="#000080" d="M 12.6090123958016,137.21529035328473 A 91 91 0 0 1 6.269801789862598 124.19327509106068 L 91,91 Z"/><path fill-rule="evenodd" fill="#f1e05a" d="M 6.269801789862598,124.19327509106068 A 91 91 0 0 1 2.170082046690027 110.75463683311386 L 91,91 Z"/><path fill-rule="evenodd" fill="#3178c6" d="M 2.170082046690027,110.75463683311386 A 91 91 0 0 1 0.6211389427159446 101.61421094515008 L 91,91 Z"/><path fill-rule="evenodd" fill="#6866fb" d="M 0.6211389427159446,101.61421094515008 A 91 91 0 0 1 0.016448423249741495 92.73012787990534 L 91,91 Z"/><path fill-rule="evenodd" fill="#8f14e9" d="M 0.016448423249741495,92.73012787990534 A 91 91 0 0 1 0.00472639030648736 91.9274592697346 L 91,91 Z"/><path fill-rule="evenodd" fill="#5686a5" d="M 0.00472639030648736,91.9274592697346 A 91 91 0 0 1 0.00047004741671230477 91.29248659609993 L 91,91 Z"/><path fill-rule="evenodd" fill="#959da5" d="M 0.00047004741671230477,91.29248659609993 A 91 91 0 0 1 0.0 91.00000000000003 L 91,91 Z"/></g><g transform="translate(15, 21)"><rect x="0.5" y="0.5" rx="2" width="15" height="15" fill="#f34b7d" stroke-width="1" stroke="#000000"/><text transform="scale(0.095)" x="263" y="132" textLength="1074" lengthAdjust="spacingAndGlyphs">C++ 48.85%</text></g><g transform="translate(15, 42)"><rect x="0.5" y="0.5" rx="2" width="15" height="15" fill="#438eff" stroke-width="1" stroke="#000000"/><text transform="scale(0.095)" x="263" y="132" textLength="1642" lengthAdjust="spacingAndGlyphs">Objective-C 14.01%</text></g><g transform="translate(15, 63)"><rect x="0.5" y="0.5" rx="2" width="15" height="15" fill="#555555" stroke-width="1" stroke="#000000"/><text transform="scale(0.095)" x="263" y="132" textLength="693" lengthAdjust="spacingAndGlyphs">C 7.41%</text></g><g transform="translate(15, 84)"><rect x="0.5" y="0.5" rx="2" width="15" height="15" fill="#dea584" stroke-width="1" stroke="#000000"/><text transform="scale(0.095)" x="263" y="132" textLength="946" lengthAdjust="spacingAndGlyphs">Rust 6.89%</text></g><g transform="translate(15, 105)"><rect x="0.5" y="0.5" rx="2" width="15" height="15" fill="#b07219" stroke-width="1" stroke="#000000"/><text transform="scale(0.095)" x="263" y="132" textLength="933" lengthAdjust="spacingAndGlyphs">Java 5.59%</text></g><g transform="translate(15, 126)"><rect x="0.5" y="0.5" rx="2" width="15" height="15" fill="#00ADD8" stroke-width="1" stroke="#000000"/><text transform="scale(0.095)" x="263" y="132" textLength="806" lengthAdjust="spacingAndGlyphs">Go 4.49%</text></g><g transform="translate(15, 147)"><rect x="0.5" y="0.5" rx="2" width="15" height="15" fill="#A97BFF" stroke-width="1" stroke="#000000"/><text transform="scale(0.095)" x="263" y="132" textLength="1048" lengthAdjust="spacingAndGlyphs">Kotlin 4.28%</text></g><g transform="translate(15, 168)"><rect x="0.5" y="0.5" rx="2" width="15" height="15" fill="#000080" stroke-width="1" stroke="#000000"/><text transform="scale(0.095)" x="263" y="132" textLength="874" lengthAdjust="spacingAndGlyphs">Lua 2.54%</text></g><g transform="translate(15, 189)"><rect x="0.5" y="0.5" rx="2" width="15" height="15" fill="#f1e05a" stroke-width="1" stroke="#000000"/><text transform="scale(0.095)" x="263" y="132" textLength="1412" lengthAdjust="spacingAndGlyphs">JavaScript 2.46%</text></g><g transform="translate(15, 210)"><rect x="0.5" y="0.5" rx="2" width="15" height="15" fill="#3178c6" stroke-width="1" stroke="#000000"/><text transform="scale(0.095)" x="263" y="132" textLength="1462" lengthAdjust="spacingAndGlyphs">TypeScript 1.62%</text><rect x="228.5" y="0.5" rx="2" width="15" height="15" fill="#6866fb" stroke-width="1" stroke="#000000"/><text transform="scale(0.095)" x="2663" y="132" textLength="1814" lengthAdjust="spacingAndGlyphs">Objective-C++ 1.56%</text></g><g transform="translate(15, 231)"><rect x="0.5" y="0.5" rx="2" width="15" height="15" fill="#8f14e9" stroke-width="1" stroke="#000000"/><text transform="scale(0.095)" x="263" y="132" textLength="1034" lengthAdjust="spacingAndGlyphs">Metal 0.14%</text><rect x="228.5" y="0.5" rx="2" width="15" height="15" fill="#5686a5" stroke-width="1" stroke="#000000"/><text transform="scale(0.095)" x="2663" y="132" textLength="993" lengthAdjust="spacingAndGlyphs">GLSL 0.11%</text></g><g transform="translate(15, 252)"><rect x="0.5" y="0.5" rx="2" width="15" height="15" fill="#959da5" stroke-width="1" stroke="#000000"/><text transform="scale(0.095)" x="263" y="132" textLength="1047" lengthAdjust="spacingAndGlyphs">Other 0.05%</text></g></g></g></svg>