<svg width="457" height="396" viewBox="0 0 457 396" xmlns="http://www.w3.org/2000/svg" lang="en" xml:lang="en"><rect x="2" y="2" stroke-width="4" rx="0" width="453" height="392" stroke="#ffffff" fill="#ffffff"/><g font-weight="600" font-size="110pt" font-family="Verdana,Geneva,DejaVu Sans,sans-serif" text-rendering="geometricPrecision"><text x="895" y="301" lengthAdjust="spacingAndGlyphs" textLength="1917" transform="scale(0.123)" fill="#0969da">Rinc's GitHub Statistics</text><g transform="translate(0, 60)" fill="#24292f"><g transform="translate(15, 0)"><g transform="scale(0.095)"><text x="0" y="132" textLength="3652" lengthAdjust="spacingAndGlyphs">Language Distribution in Public Repositories</text></g></g><g transform="translate(243, 21)"><circle cx="92" cy="92" r="92" fill="#000000"/></g><g transform="translate(244, 22)"><path fill-rule="evenodd" fill="#f34b7d" d="M 0.0,91.00000000000001 A 91 91 0 0 1 173.9008179297857 53.470619688402486 L 91,91 Z"/><path fill-rule="evenodd" fill="#438eff" d="M 173.9008179297857,53.470619688402486 A 91 91 0 0 1 169.6956742834127 136.69453850384113 L 91,91 Z"/><path fill-rule="evenodd" fill="#555555" d="M 169.6956742834127,136.69453850384113 A 91 91 0 0 1 138.78534082631373 168.44392295146878 L 91,91 Z"/><path fill-rule="evenodd" fill="#dea584" d="M 138.78534082631373,168.44392295146878 A 91 91 0 0 1 98.71398690736618 181.67245671091626 L 91,91 Z"/><path fill-rule="evenodd" fill="#b07219" d="M 98.71398690736618,181.67245671091626 A 91 91 0 0 1 64.58029007228961 178.0804164398382 L 91,91 Z"/><path fill-rule="evenodd" fill="#00ADD8" d="M 64.58029007228961,178.0804164398382 A 91 91 0 0 1 39.69119552583997 166.1558818951146 L 91,91 Z"/><path fill-rule="evenodd" fill="#A97BFF" d="M 39.69119552583997,166.1558818951146 A 91 91 0 0 1 20.407457601942795 148.42554272950753 L 91,91 Z"/><path fill-rule="evenodd" fill="#000080" d="M 20.407457601942795,148.42554272950753 A 91 91 0 0 1 11.768259416127933 135.7585889416769 L 91,91 Z"/><path fill-rule="evenodd" fill="#f1e05a" d="M 11.768259416127933,135.7585889416769 A 91 91 0 0 1 5.844557626499906 123.08661144735457 L 91,91 Z"/><path fill-rule="evenodd" fill="#3178c6" d="M 5.844557626499906,123.08661144735457 A 91 91 0 0 1 2.8384078183844252 113.55069098725133 L 91,91 Z"/><path fill-rule="evenodd" fill="#6866fb" d="M 2.8384078183844252,113.55069098725133 A 91 91 0 0 1 1.0172007732629567 104.5681923379915 L 91,91 Z"/><path fill-rule="evenodd" fill="#89e051" d="M 1.0172007732629567,104.5681923379915 A 91 91 0 0 1 0.13671318944524558 95.9862922079304 L 91,91 Z"/><path fill-rule="evenodd" fill="#427819" d="M 0.13671318944524558,95.9862922079304 A 91 91 0 0 1 0.06795129822964441 94.51603738587409 L 91,91 Z"/><path fill-rule="evenodd" fill="#8f14e9" d="M 0.06795129822964441,94.51603738587409 A 91 91 0 0 1 0.038572360759346225 93.64927949284059 L 91,91 Z"/><path fill-rule="evenodd" fill="#C1F12E" d="M 0.038572360759346225,93.64927949284059 A 91 91 0 0 1 0.01749532087880823 92.78433245604327 L 91,91 Z"/><path fill-rule="evenodd" fill="#5686a5" d="M 0.01749532087880823,92.78433245604327 A 91 91 0 0 1 0.006629388631523625 92.09841011564123 L 91,91 Z"/><path fill-rule="evenodd" fill="#DA3434" d="M 0.006629388631523625,92.09841011564123 A 91 91 0 0 1 0.001195516209378411 91.46645741589944 L 91,91 Z"/><path fill-rule="evenodd" fill="#e34c26" d="M 0.001195516209378411,91.46645741589944 A 91 91 0 0 1 0.00012103390400852732 91.14841885284785 L 91,91 Z"/><path fill-rule="evenodd" fill="#701516" d="M 0.00012103390400852732,91.14841885284785 A 91 91 0 0 1 0.0 91.00000000000003 L 91,91 Z"/></g><g transform="translate(15, 21)"><rect x="0.5" y="0.5" rx="2" width="15" height="15" fill="#f34b7d" stroke-width="1" stroke="#000000"/><text transform="scale(0.095)" x="263" y="132" textLength="1074" lengthAdjust="spacingAndGlyphs">C++ 43.23%</text></g><g transform="translate(15, 42)"><rect x="0.5" y="0.5" rx="2" width="15" height="15" fill="#438eff" stroke-width="1" stroke="#000000"/><text transform="scale(0.095)" x="263" y="132" textLength="1642" lengthAdjust="spacingAndGlyphs">Objective-C 15.14%</text></g><g transform="translate(15, 63)"><rect x="0.5" y="0.5" rx="2" width="15" height="15" fill="#555555" stroke-width="1" stroke="#000000"/><text transform="scale(0.095)" x="263" y="132" textLength="693" lengthAdjust="spacingAndGlyphs">C 7.83%</text></g><g transform="translate(15, 84)"><rect x="0.5" y="0.5" rx="2" width="15" height="15" fill="#dea584" stroke-width="1" stroke="#000000"/><text transform="scale(0.095)" x="263" y="132" textLength="946" lengthAdjust="spacingAndGlyphs">Rust 7.45%</text></g><g transform="translate(15, 105)"><rect x="0.5" y="0.5" rx="2" width="15" height="15" fill="#b07219" stroke-width="1" stroke="#000000"/><text transform="scale(0.095)" x="263" y="132" textLength="933" lengthAdjust="spacingAndGlyphs">Java 6.04%</text></g><g transform="translate(15, 126)"><rect x="0.5" y="0.5" rx="2" width="15" height="15" fill="#00ADD8" stroke-width="1" stroke="#000000"/><text transform="scale(0.095)" x="263" y="132" textLength="806" lengthAdjust="spacingAndGlyphs">Go 4.85%</text></g><g transform="translate(15, 147)"><rect x="0.5" y="0.5" rx="2" width="15" height="15" fill="#A97BFF" stroke-width="1" stroke="#000000"/><text transform="scale(0.095)" x="263" y="132" textLength="1048" lengthAdjust="spacingAndGlyphs">Kotlin 4.60%</text></g><g transform="translate(15, 168)"><rect x="0.5" y="0.5" rx="2" width="15" height="15" fill="#000080" stroke-width="1" stroke="#000000"/><text transform="scale(0.095)" x="263" y="132" textLength="874" lengthAdjust="spacingAndGlyphs">Lua 2.68%</text></g><g transform="translate(15, 189)"><rect x="0.5" y="0.5" rx="2" width="15" height="15" fill="#f1e05a" stroke-width="1" stroke="#000000"/><text transform="scale(0.095)" x="263" y="132" textLength="1412" lengthAdjust="spacingAndGlyphs">JavaScript 2.45%</text></g><g transform="translate(15, 210)"><rect x="0.5" y="0.5" rx="2" width="15" height="15" fill="#3178c6" stroke-width="1" stroke="#000000"/><text transform="scale(0.095)" x="263" y="132" textLength="1462" lengthAdjust="spacingAndGlyphs">TypeScript 1.75%</text><rect x="228.5" y="0.5" rx="2" width="15" height="15" fill="#6866fb" stroke-width="1" stroke="#000000"/><text transform="scale(0.095)" x="2663" y="132" textLength="1814" lengthAdjust="spacingAndGlyphs">Objective-C++ 1.60%</text></g><g transform="translate(15, 231)"><rect x="0.5" y="0.5" rx="2" width="15" height="15" fill="#89e051" stroke-width="1" stroke="#000000"/><text transform="scale(0.095)" x="263" y="132" textLength="982" lengthAdjust="spacingAndGlyphs">Shell 1.51%</text><rect x="228.5" y="0.5" rx="2" width="15" height="15" fill="#427819" stroke-width="1" stroke="#000000"/><text transform="scale(0.095)" x="2663" y="132" textLength="1272" lengthAdjust="spacingAndGlyphs">Makefile 0.26%</text></g><g transform="translate(15, 252)"><rect x="0.5" y="0.5" rx="2" width="15" height="15" fill="#8f14e9" stroke-width="1" stroke="#000000"/><text transform="scale(0.095)" x="263" y="132" textLength="1034" lengthAdjust="spacingAndGlyphs">Metal 0.15%</text><rect x="228.5" y="0.5" rx="2" width="15" height="15" fill="#C1F12E" stroke-width="1" stroke="#000000"/><text transform="scale(0.095)" x="2663" y="132" textLength="1304" lengthAdjust="spacingAndGlyphs">Batchfile 0.15%</text></g><g transform="translate(15, 273)"><rect x="0.5" y="0.5" rx="2" width="15" height="15" fill="#5686a5" stroke-width="1" stroke="#000000"/><text transform="scale(0.095)" x="263" y="132" textLength="993" lengthAdjust="spacingAndGlyphs">GLSL 0.12%</text><rect x="228.5" y="0.5" rx="2" width="15" height="15" fill="#DA3434" stroke-width="1" stroke="#000000"/><text transform="scale(0.095)" x="2663" y="132" textLength="1134" lengthAdjust="spacingAndGlyphs">CMake 0.11%</text></g><g transform="translate(15, 294)"><rect x="0.5" y="0.5" rx="2" width="15" height="15" fill="#e34c26" stroke-width="1" stroke="#000000"/><text transform="scale(0.095)" x="263" y="132" textLength="1036" lengthAdjust="spacingAndGlyphs">HTML 0.06%</text><rect x="228.5" y="0.5" rx="2" width="15" height="15" fill="#701516" stroke-width="1" stroke="#000000"/><text transform="scale(0.095)" x="2663" y="132" textLength="999" lengthAdjust="spacingAndGlyphs">Ruby 0.03%</text></g></g></g></svg>