<svg width="457" height="396" viewBox="0 0 457 396" xmlns="http://www.w3.org/2000/svg" lang="en" xml:lang="en"><rect x="2" y="2" stroke-width="4" rx="0" width="453" height="392" stroke="#ffffff" fill="#ffffff"/><g font-weight="600" font-size="110pt" font-family="Verdana,Geneva,DejaVu Sans,sans-serif" text-rendering="geometricPrecision"><text x="895" y="301" lengthAdjust="spacingAndGlyphs" textLength="1917" transform="scale(0.123)" fill="#0969da">Rinc's GitHub Statistics</text><g transform="translate(0, 60)" fill="#24292f"><g transform="translate(15, 0)"><g transform="scale(0.095)"><text x="0" y="132" textLength="3652" lengthAdjust="spacingAndGlyphs">Language Distribution in Public Repositories</text></g></g><g transform="translate(243, 21)"><circle cx="92" cy="92" r="92" fill="#000000"/></g><g transform="translate(244, 22)"><path fill-rule="evenodd" fill="#f34b7d" d="M 0.0,91.00000000000001 A 91 91 0 0 1 177.50518940652688 62.75372226751085 L 91,91 Z"/><path fill-rule="evenodd" fill="#438eff" d="M 177.50518940652688,62.75372226751085 A 91 91 0 0 1 166.0909348158644 142.40380830716344 L 91,91 Z"/><path fill-rule="evenodd" fill="#555555" d="M 166.0909348158644,142.40380830716344 A 91 91 0 0 1 134.22844818178083 171.07684601553115 L 91,91 Z"/><path fill-rule="evenodd" fill="#dea584" d="M 134.22844818178083,171.07684601553115 A 91 91 0 0 1 95.0313724788644 181.91065963866203 L 91,91 Z"/><path fill-rule="evenodd" fill="#b07219" d="M 95.0313724788644,181.91065963866203 A 91 91 0 0 1 62.27873982320847 177.34864917216163 L 91,91 Z"/><path fill-rule="evenodd" fill="#00ADD8" d="M 62.27873982320847,177.34864917216163 A 91 91 0 0 1 38.54777214693291 165.36238157327892 L 91,91 Z"/><path fill-rule="evenodd" fill="#A97BFF" d="M 38.54777214693291,165.36238157327892 A 91 91 0 0 1 20.169532025656224 148.1318195626173 L 91,91 Z"/><path fill-rule="evenodd" fill="#000080" d="M 20.169532025656224,148.1318195626173 A 91 91 0 0 1 11.578786389566417 135.42151312872943 L 91,91 Z"/><path fill-rule="evenodd" fill="#f1e05a" d="M 11.578786389566417,135.42151312872943 A 91 91 0 0 1 5.43915239928387 121.98937491862378 L 91,91 Z"/><path fill-rule="evenodd" fill="#3178c6" d="M 5.43915239928387,121.98937491862378 A 91 91 0 0 1 2.6083234139880176 112.63126233750265 L 91,91 Z"/><path fill-rule="evenodd" fill="#6866fb" d="M 2.6083234139880176,112.63126233750265 A 91 91 0 0 1 0.9345099377104873 104.00797831485083 L 91,91 Z"/><path fill-rule="evenodd" fill="#89e051" d="M 0.9345099377104873,104.00797831485083 A 91 91 0 0 1 0.12666334165041349 95.79965463114354 L 91,91 Z"/><path fill-rule="evenodd" fill="#427819" d="M 0.12666334165041349,95.79965463114354 A 91 91 0 0 1 0.06292667737110946 94.38359210231036 L 91,91 Z"/><path fill-rule="evenodd" fill="#8f14e9" d="M 0.06292667737110946,94.38359210231036 A 91 91 0 0 1 0.03570180637902354 93.5488142619663 L 91,91 Z"/><path fill-rule="evenodd" fill="#C1F12E" d="M 0.03570180637902354,93.5488142619663 A 91 91 0 0 1 0.016189469018939917 92.71645601823596 L 91,91 Z"/><path fill-rule="evenodd" fill="#5686a5" d="M 0.016189469018939917,92.71645601823596 A 91 91 0 0 1 0.006125743842360976 92.05586355869067 L 91,91 Z"/><path fill-rule="evenodd" fill="#DA3434" d="M 0.006125743842360976,92.05586355869067 A 91 91 0 0 1 0.0010990952584535307 91.44725175128538 L 91,91 Z"/><path fill-rule="evenodd" fill="#e34c26" d="M 0.0010990952584535307,91.44725175128538 A 91 91 0 0 1 0.00011225767374867246 91.1429366433859 L 91,91 Z"/><path fill-rule="evenodd" fill="#701516" d="M 0.00011225767374867246,91.1429366433859 A 91 91 0 0 1 0.0 91.00000000000003 L 91,91 Z"/></g><g transform="translate(15, 21)"><rect x="0.5" y="0.5" rx="2" width="15" height="15" fill="#f34b7d" stroke-width="1" stroke="#000000"/><text transform="scale(0.095)" x="263" y="132" textLength="1074" lengthAdjust="spacingAndGlyphs">C++ 44.98%</text></g><g transform="translate(15, 42)"><rect x="0.5" y="0.5" rx="2" width="15" height="15" fill="#438eff" stroke-width="1" stroke="#000000"/><text transform="scale(0.095)" x="263" y="132" textLength="1642" lengthAdjust="spacingAndGlyphs">Objective-C 14.58%</text></g><g transform="translate(15, 63)"><rect x="0.5" y="0.5" rx="2" width="15" height="15" fill="#555555" stroke-width="1" stroke="#000000"/><text transform="scale(0.095)" x="263" y="132" textLength="693" lengthAdjust="spacingAndGlyphs">C 7.57%</text></g><g transform="translate(15, 84)"><rect x="0.5" y="0.5" rx="2" width="15" height="15" fill="#dea584" stroke-width="1" stroke="#000000"/><text transform="scale(0.095)" x="263" y="132" textLength="946" lengthAdjust="spacingAndGlyphs">Rust 7.17%</text></g><g transform="translate(15, 105)"><rect x="0.5" y="0.5" rx="2" width="15" height="15" fill="#b07219" stroke-width="1" stroke="#000000"/><text transform="scale(0.095)" x="263" y="132" textLength="933" lengthAdjust="spacingAndGlyphs">Java 5.82%</text></g><g transform="translate(15, 126)"><rect x="0.5" y="0.5" rx="2" width="15" height="15" fill="#00ADD8" stroke-width="1" stroke="#000000"/><text transform="scale(0.095)" x="263" y="132" textLength="806" lengthAdjust="spacingAndGlyphs">Go 4.67%</text></g><g transform="translate(15, 147)"><rect x="0.5" y="0.5" rx="2" width="15" height="15" fill="#A97BFF" stroke-width="1" stroke="#000000"/><text transform="scale(0.095)" x="263" y="132" textLength="1048" lengthAdjust="spacingAndGlyphs">Kotlin 4.42%</text></g><g transform="translate(15, 168)"><rect x="0.5" y="0.5" rx="2" width="15" height="15" fill="#000080" stroke-width="1" stroke="#000000"/><text transform="scale(0.095)" x="263" y="132" textLength="874" lengthAdjust="spacingAndGlyphs">Lua 2.69%</text></g><g transform="translate(15, 189)"><rect x="0.5" y="0.5" rx="2" width="15" height="15" fill="#f1e05a" stroke-width="1" stroke="#000000"/><text transform="scale(0.095)" x="263" y="132" textLength="1412" lengthAdjust="spacingAndGlyphs">JavaScript 2.59%</text></g><g transform="translate(15, 210)"><rect x="0.5" y="0.5" rx="2" width="15" height="15" fill="#3178c6" stroke-width="1" stroke="#000000"/><text transform="scale(0.095)" x="263" y="132" textLength="1462" lengthAdjust="spacingAndGlyphs">TypeScript 1.71%</text><rect x="228.5" y="0.5" rx="2" width="15" height="15" fill="#6866fb" stroke-width="1" stroke="#000000"/><text transform="scale(0.095)" x="2663" y="132" textLength="1814" lengthAdjust="spacingAndGlyphs">Objective-C++ 1.54%</text></g><g transform="translate(15, 231)"><rect x="0.5" y="0.5" rx="2" width="15" height="15" fill="#89e051" stroke-width="1" stroke="#000000"/><text transform="scale(0.095)" x="263" y="132" textLength="982" lengthAdjust="spacingAndGlyphs">Shell 1.44%</text><rect x="228.5" y="0.5" rx="2" width="15" height="15" fill="#427819" stroke-width="1" stroke="#000000"/><text transform="scale(0.095)" x="2663" y="132" textLength="1272" lengthAdjust="spacingAndGlyphs">Makefile 0.25%</text></g><g transform="translate(15, 252)"><rect x="0.5" y="0.5" rx="2" width="15" height="15" fill="#8f14e9" stroke-width="1" stroke="#000000"/><text transform="scale(0.095)" x="263" y="132" textLength="1034" lengthAdjust="spacingAndGlyphs">Metal 0.15%</text><rect x="228.5" y="0.5" rx="2" width="15" height="15" fill="#C1F12E" stroke-width="1" stroke="#000000"/><text transform="scale(0.095)" x="2663" y="132" textLength="1304" lengthAdjust="spacingAndGlyphs">Batchfile 0.15%</text></g><g transform="translate(15, 273)"><rect x="0.5" y="0.5" rx="2" width="15" height="15" fill="#5686a5" stroke-width="1" stroke="#000000"/><text transform="scale(0.095)" x="263" y="132" textLength="993" lengthAdjust="spacingAndGlyphs">GLSL 0.12%</text><rect x="228.5" y="0.5" rx="2" width="15" height="15" fill="#DA3434" stroke-width="1" stroke="#000000"/><text transform="scale(0.095)" x="2663" y="132" textLength="1134" lengthAdjust="spacingAndGlyphs">CMake 0.11%</text></g><g transform="translate(15, 294)"><rect x="0.5" y="0.5" rx="2" width="15" height="15" fill="#e34c26" stroke-width="1" stroke="#000000"/><text transform="scale(0.095)" x="263" y="132" textLength="1036" lengthAdjust="spacingAndGlyphs">HTML 0.05%</text><rect x="228.5" y="0.5" rx="2" width="15" height="15" fill="#701516" stroke-width="1" stroke="#000000"/><text transform="scale(0.095)" x="2663" y="132" textLength="999" lengthAdjust="spacingAndGlyphs">Ruby 0.02%</text></g></g></g></svg>