<svg width="457" height="375" viewBox="0 0 457 375" xmlns="http://www.w3.org/2000/svg" lang="en" xml:lang="en"><rect x="2" y="2" stroke-width="4" rx="0" width="453" height="371" stroke="#ffffff" fill="#ffffff"/><g font-weight="600" font-size="110pt" font-family="Verdana,Geneva,DejaVu Sans,sans-serif" text-rendering="geometricPrecision"><text x="895" y="301" lengthAdjust="spacingAndGlyphs" textLength="1917" transform="scale(0.123)" fill="#0969da">Rinc's GitHub Statistics</text><g transform="translate(0, 60)" fill="#24292f"><g transform="translate(15, 0)"><g transform="scale(0.095)"><text x="0" y="132" textLength="3652" lengthAdjust="spacingAndGlyphs">Language Distribution in Public Repositories</text></g></g><g transform="translate(243, 21)"><circle cx="92" cy="92" r="92" fill="#000000"/></g><g transform="translate(244, 22)"><path fill-rule="evenodd" fill="#555555" d="M 0.0,91.00000000000001 A 91 91 0 0 1 174.93255528665347 55.838569951538396 L 91,91 Z"/><path fill-rule="evenodd" fill="#f34b7d" d="M 174.93255528665347,55.838569951538396 A 91 91 0 0 1 124.85845685049495 175.4665904349357 L 91,91 Z"/><path fill-rule="evenodd" fill="#438eff" d="M 124.85845685049495,175.4665904349357 A 91 91 0 0 1 81.4800300466986 181.50066393175376 L 91,91 Z"/><path fill-rule="evenodd" fill="#427819" d="M 81.4800300466986,181.50066393175376 A 91 91 0 0 1 44.8527128619627 169.4310390712729 L 91,91 Z"/><path fill-rule="evenodd" fill="#dea584" d="M 44.8527128619627,169.4310390712729 A 91 91 0 0 1 27.586133599899412 156.26623589720947 L 91,91 Z"/><path fill-rule="evenodd" fill="#b07219" d="M 27.586133599899412,156.26623589720947 A 91 91 0 0 1 15.81130574859597 142.260708703342 L 91,91 Z"/><path fill-rule="evenodd" fill="#00ADD8" d="M 15.81130574859597,142.260708703342 A 91 91 0 0 1 8.77574463327592 129.98938098236167 L 91,91 Z"/><path fill-rule="evenodd" fill="#A97BFF" d="M 8.77574463327592,129.98938098236167 A 91 91 0 0 1 3.9415058551968087 117.49185907480386 L 91,91 Z"/><path fill-rule="evenodd" fill="#000080" d="M 3.9415058551968087,117.49185907480386 A 91 91 0 0 1 1.9207852206783116 109.59821212642433 L 91,91 Z"/><path fill-rule="evenodd" fill="#f1e05a" d="M 1.9207852206783116,109.59821212642433 A 91 91 0 0 1 0.6501210932192691 101.8581481630184 L 91,91 Z"/><path fill-rule="evenodd" fill="#3178c6" d="M 0.6501210932192691,101.8581481630184 A 91 91 0 0 1 0.17803240095872752 96.68948164938583 L 91,91 Z"/><path fill-rule="evenodd" fill="#6866fb" d="M 0.17803240095872752,96.68948164938583 A 91 91 0 0 1 0.005842488961789627 92.0311638358518 L 91,91 Z"/><path fill-rule="evenodd" fill="#8f14e9" d="M 0.005842488961789627,92.0311638358518 A 91 91 0 0 1 0.0018993674363088076 91.58794665218078 L 91,91 Z"/><path fill-rule="evenodd" fill="#5686a5" d="M 0.0018993674363088076,91.58794665218078 A 91 91 0 0 1 0.000309526486660161 91.23734726618372 L 91,91 Z"/><path fill-rule="evenodd" fill="#e34c26" d="M 0.000309526486660161,91.23734726618372 A 91 91 0 0 1 3.161389149397564e-05 91.07585332723586 L 91,91 Z"/><path fill-rule="evenodd" fill="#959da5" d="M 3.161389149397564e-05,91.07585332723586 A 91 91 0 0 1 0.0 91.00000000000003 L 91,91 Z"/></g><g transform="translate(15, 21)"><rect x="0.5" y="0.5" rx="2" width="15" height="15" fill="#555555" stroke-width="1" stroke="#000000"/><text transform="scale(0.095)" x="263" y="132" textLength="798" lengthAdjust="spacingAndGlyphs">C 43.69%</text></g><g transform="translate(15, 42)"><rect x="0.5" y="0.5" rx="2" width="15" height="15" fill="#f34b7d" stroke-width="1" stroke="#000000"/><text transform="scale(0.095)" x="263" y="132" textLength="1074" lengthAdjust="spacingAndGlyphs">C++ 25.25%</text></g><g transform="translate(15, 63)"><rect x="0.5" y="0.5" rx="2" width="15" height="15" fill="#438eff" stroke-width="1" stroke="#000000"/><text transform="scale(0.095)" x="263" y="132" textLength="1538" lengthAdjust="spacingAndGlyphs">Objective-C 7.74%</text></g><g transform="translate(15, 84)"><rect x="0.5" y="0.5" rx="2" width="15" height="15" fill="#427819" stroke-width="1" stroke="#000000"/><text transform="scale(0.095)" x="263" y="132" textLength="1272" lengthAdjust="spacingAndGlyphs">Makefile 6.80%</text></g><g transform="translate(15, 105)"><rect x="0.5" y="0.5" rx="2" width="15" height="15" fill="#dea584" stroke-width="1" stroke="#000000"/><text transform="scale(0.095)" x="263" y="132" textLength="946" lengthAdjust="spacingAndGlyphs">Rust 3.81%</text></g><g transform="translate(15, 126)"><rect x="0.5" y="0.5" rx="2" width="15" height="15" fill="#b07219" stroke-width="1" stroke="#000000"/><text transform="scale(0.095)" x="263" y="132" textLength="933" lengthAdjust="spacingAndGlyphs">Java 3.21%</text></g><g transform="translate(15, 147)"><rect x="0.5" y="0.5" rx="2" width="15" height="15" fill="#00ADD8" stroke-width="1" stroke="#000000"/><text transform="scale(0.095)" x="263" y="132" textLength="806" lengthAdjust="spacingAndGlyphs">Go 2.48%</text></g><g transform="translate(15, 168)"><rect x="0.5" y="0.5" rx="2" width="15" height="15" fill="#A97BFF" stroke-width="1" stroke="#000000"/><text transform="scale(0.095)" x="263" y="132" textLength="1048" lengthAdjust="spacingAndGlyphs">Kotlin 2.35%</text></g><g transform="translate(15, 189)"><rect x="0.5" y="0.5" rx="2" width="15" height="15" fill="#000080" stroke-width="1" stroke="#000000"/><text transform="scale(0.095)" x="263" y="132" textLength="874" lengthAdjust="spacingAndGlyphs">Lua 1.43%</text></g><g transform="translate(15, 210)"><rect x="0.5" y="0.5" rx="2" width="15" height="15" fill="#f1e05a" stroke-width="1" stroke="#000000"/><text transform="scale(0.095)" x="263" y="132" textLength="1412" lengthAdjust="spacingAndGlyphs">JavaScript 1.37%</text><rect x="228.5" y="0.5" rx="2" width="15" height="15" fill="#3178c6" stroke-width="1" stroke="#000000"/><text transform="scale(0.095)" x="2663" y="132" textLength="1462" lengthAdjust="spacingAndGlyphs">TypeScript 0.91%</text></g><g transform="translate(15, 231)"><rect x="0.5" y="0.5" rx="2" width="15" height="15" fill="#6866fb" stroke-width="1" stroke="#000000"/><text transform="scale(0.095)" x="263" y="132" textLength="1814" lengthAdjust="spacingAndGlyphs">Objective-C++ 0.82%</text><rect x="228.5" y="0.5" rx="2" width="15" height="15" fill="#8f14e9" stroke-width="1" stroke="#000000"/><text transform="scale(0.095)" x="2663" y="132" textLength="1034" lengthAdjust="spacingAndGlyphs">Metal 0.08%</text></g><g transform="translate(15, 252)"><rect x="0.5" y="0.5" rx="2" width="15" height="15" fill="#5686a5" stroke-width="1" stroke="#000000"/><text transform="scale(0.095)" x="263" y="132" textLength="993" lengthAdjust="spacingAndGlyphs">GLSL 0.06%</text><rect x="228.5" y="0.5" rx="2" width="15" height="15" fill="#e34c26" stroke-width="1" stroke="#000000"/><text transform="scale(0.095)" x="2663" y="132" textLength="1036" lengthAdjust="spacingAndGlyphs">HTML 0.03%</text></g><g transform="translate(15, 273)"><rect x="0.5" y="0.5" rx="2" width="15" height="15" fill="#959da5" stroke-width="1" stroke="#000000"/><text transform="scale(0.095)" x="263" y="132" textLength="1047" lengthAdjust="spacingAndGlyphs">Other 0.01%</text></g></g></g></svg>