<svg width="457" height="396" viewBox="0 0 457 396" xmlns="http://www.w3.org/2000/svg" lang="en" xml:lang="en"><rect x="2" y="2" stroke-width="4" rx="0" width="453" height="392" stroke="#ffffff" fill="#ffffff"/><g font-weight="600" font-size="110pt" font-family="Verdana,Geneva,DejaVu Sans,sans-serif" text-rendering="geometricPrecision"><text x="895" y="301" lengthAdjust="spacingAndGlyphs" textLength="1917" transform="scale(0.123)" fill="#0969da">Rinc's GitHub Statistics</text><g transform="translate(0, 60)" fill="#24292f"><g transform="translate(15, 0)"><g transform="scale(0.095)"><text x="0" y="132" textLength="3652" lengthAdjust="spacingAndGlyphs">Language Distribution in Public Repositories</text></g></g><g transform="translate(243, 21)"><circle cx="92" cy="92" r="92" fill="#000000"/></g><g transform="translate(244, 22)"><path fill-rule="evenodd" fill="#f34b7d" d="M 0.0,91.00000000000001 A 91 91 0 0 1 169.73375291172837 45.371103975277876 L 91,91 Z"/><path fill-rule="evenodd" fill="#438eff" d="M 169.73375291172837,45.371103975277876 A 91 91 0 0 1 172.59278118368928 131.29414422357917 L 91,91 Z"/><path fill-rule="evenodd" fill="#555555" d="M 172.59278118368928,131.29414422357917 A 91 91 0 0 1 140.67793098762357 167.2437090702499 L 91,91 Z"/><path fill-rule="evenodd" fill="#b07219" d="M 140.67793098762357,167.2437090702499 A 91 91 0 0 1 107.64473475167081 180.46481322311314 L 91,91 Z"/><path fill-rule="evenodd" fill="#dea584" d="M 107.64473475167081,180.46481322311314 A 91 91 0 0 1 78.66839603841484 181.16058752988812 L 91,91 Z"/><path fill-rule="evenodd" fill="#00ADD8" d="M 78.66839603841484,181.16058752988812 A 91 91 0 0 1 51.27974850629791 172.87369309660494 L 91,91 Z"/><path fill-rule="evenodd" fill="#A97BFF" d="M 51.27974850629791,172.87369309660494 A 91 91 0 0 1 28.904255550328408 157.52156433248604 L 91,91 Z"/><path fill-rule="evenodd" fill="#000080" d="M 28.904255550328408,157.52156433248604 A 91 91 0 0 1 15.356062282019039 141.58650696102882 L 91,91 Z"/><path fill-rule="evenodd" fill="#f1e05a" d="M 15.356062282019039,141.58650696102882 A 91 91 0 0 1 8.125659201886933 128.58781235025805 L 91,91 Z"/><path fill-rule="evenodd" fill="#3178c6" d="M 8.125659201886933,128.58781235025805 A 91 91 0 0 1 4.286683266216897 118.60073732758984 L 91,91 Z"/><path fill-rule="evenodd" fill="#6866fb" d="M 4.286683266216897,118.60073732758984 A 91 91 0 0 1 2.026824126612496 110.099056913975 L 91,91 Z"/><path fill-rule="evenodd" fill="#DA3434" d="M 2.026824126612496,110.099056913975 A 91 91 0 0 1 0.6263461955194458 101.65845664380625 L 91,91 Z"/><path fill-rule="evenodd" fill="#89e051" d="M 0.6263461955194458,101.65845664380625 A 91 91 0 0 1 0.08990804391818585 95.04415387154724 L 91,91 Z"/><path fill-rule="evenodd" fill="#427819" d="M 0.08990804391818585,95.04415387154724 A 91 91 0 0 1 0.03486076768771795 93.51861955166713 L 91,91 Z"/><path fill-rule="evenodd" fill="#8f14e9" d="M 0.03486076768771795,93.51861955166713 A 91 91 0 0 1 0.014409990466191402 92.6193858765038 L 91,91 Z"/><path fill-rule="evenodd" fill="#5686a5" d="M 0.014409990466191402,92.6193858765038 A 91 91 0 0 1 0.00452980669062697 91.90796712415415 L 91,91 Z"/><path fill-rule="evenodd" fill="#C1F12E" d="M 0.00452980669062697,91.90796712415415 A 91 91 0 0 1 0.0012859706572072582 91.48378198177613 L 91,91 Z"/><path fill-rule="evenodd" fill="#e34c26" d="M 0.0012859706572072582,91.48378198177613 A 91 91 0 0 1 0.00013019151981552568 91.15393128225317 L 91,91 Z"/><path fill-rule="evenodd" fill="#701516" d="M 0.00013019151981552568,91.15393128225317 A 91 91 0 0 1 0.0 91.00000000000003 L 91,91 Z"/></g><g transform="translate(15, 21)"><rect x="0.5" y="0.5" rx="2" width="15" height="15" fill="#f34b7d" stroke-width="1" stroke="#000000"/><text transform="scale(0.095)" x="263" y="132" textLength="1074" lengthAdjust="spacingAndGlyphs">C++ 41.64%</text></g><g transform="translate(15, 42)"><rect x="0.5" y="0.5" rx="2" width="15" height="15" fill="#438eff" stroke-width="1" stroke="#000000"/><text transform="scale(0.095)" x="263" y="132" textLength="1642" lengthAdjust="spacingAndGlyphs">Objective-C 15.66%</text></g><g transform="translate(15, 63)"><rect x="0.5" y="0.5" rx="2" width="15" height="15" fill="#555555" stroke-width="1" stroke="#000000"/><text transform="scale(0.095)" x="263" y="132" textLength="693" lengthAdjust="spacingAndGlyphs">C 8.51%</text></g><g transform="translate(15, 84)"><rect x="0.5" y="0.5" rx="2" width="15" height="15" fill="#b07219" stroke-width="1" stroke="#000000"/><text transform="scale(0.095)" x="263" y="132" textLength="933" lengthAdjust="spacingAndGlyphs">Java 6.26%</text></g><g transform="translate(15, 105)"><rect x="0.5" y="0.5" rx="2" width="15" height="15" fill="#dea584" stroke-width="1" stroke="#000000"/><text transform="scale(0.095)" x="263" y="132" textLength="946" lengthAdjust="spacingAndGlyphs">Rust 5.09%</text></g><g transform="translate(15, 126)"><rect x="0.5" y="0.5" rx="2" width="15" height="15" fill="#00ADD8" stroke-width="1" stroke="#000000"/><text transform="scale(0.095)" x="263" y="132" textLength="806" lengthAdjust="spacingAndGlyphs">Go 5.03%</text></g><g transform="translate(15, 147)"><rect x="0.5" y="0.5" rx="2" width="15" height="15" fill="#A97BFF" stroke-width="1" stroke="#000000"/><text transform="scale(0.095)" x="263" y="132" textLength="1048" lengthAdjust="spacingAndGlyphs">Kotlin 4.76%</text></g><g transform="translate(15, 168)"><rect x="0.5" y="0.5" rx="2" width="15" height="15" fill="#000080" stroke-width="1" stroke="#000000"/><text transform="scale(0.095)" x="263" y="132" textLength="874" lengthAdjust="spacingAndGlyphs">Lua 3.67%</text></g><g transform="translate(15, 189)"><rect x="0.5" y="0.5" rx="2" width="15" height="15" fill="#f1e05a" stroke-width="1" stroke="#000000"/><text transform="scale(0.095)" x="263" y="132" textLength="1412" lengthAdjust="spacingAndGlyphs">JavaScript 2.60%</text></g><g transform="translate(15, 210)"><rect x="0.5" y="0.5" rx="2" width="15" height="15" fill="#3178c6" stroke-width="1" stroke="#000000"/><text transform="scale(0.095)" x="263" y="132" textLength="1462" lengthAdjust="spacingAndGlyphs">TypeScript 1.87%</text><rect x="228.5" y="0.5" rx="2" width="15" height="15" fill="#6866fb" stroke-width="1" stroke="#000000"/><text transform="scale(0.095)" x="2663" y="132" textLength="1814" lengthAdjust="spacingAndGlyphs">Objective-C++ 1.54%</text></g><g transform="translate(15, 231)"><rect x="0.5" y="0.5" rx="2" width="15" height="15" fill="#DA3434" stroke-width="1" stroke="#000000"/><text transform="scale(0.095)" x="263" y="132" textLength="1134" lengthAdjust="spacingAndGlyphs">CMake 1.50%</text><rect x="228.5" y="0.5" rx="2" width="15" height="15" fill="#89e051" stroke-width="1" stroke="#000000"/><text transform="scale(0.095)" x="2663" y="132" textLength="982" lengthAdjust="spacingAndGlyphs">Shell 1.16%</text></g><g transform="translate(15, 252)"><rect x="0.5" y="0.5" rx="2" width="15" height="15" fill="#427819" stroke-width="1" stroke="#000000"/><text transform="scale(0.095)" x="263" y="132" textLength="1272" lengthAdjust="spacingAndGlyphs">Makefile 0.27%</text><rect x="228.5" y="0.5" rx="2" width="15" height="15" fill="#8f14e9" stroke-width="1" stroke="#000000"/><text transform="scale(0.095)" x="2663" y="132" textLength="1034" lengthAdjust="spacingAndGlyphs">Metal 0.16%</text></g><g transform="translate(15, 273)"><rect x="0.5" y="0.5" rx="2" width="15" height="15" fill="#5686a5" stroke-width="1" stroke="#000000"/><text transform="scale(0.095)" x="263" y="132" textLength="993" lengthAdjust="spacingAndGlyphs">GLSL 0.12%</text><rect x="228.5" y="0.5" rx="2" width="15" height="15" fill="#C1F12E" stroke-width="1" stroke="#000000"/><text transform="scale(0.095)" x="2663" y="132" textLength="1304" lengthAdjust="spacingAndGlyphs">Batchfile 0.07%</text></g><g transform="translate(15, 294)"><rect x="0.5" y="0.5" rx="2" width="15" height="15" fill="#e34c26" stroke-width="1" stroke="#000000"/><text transform="scale(0.095)" x="263" y="132" textLength="1036" lengthAdjust="spacingAndGlyphs">HTML 0.06%</text><rect x="228.5" y="0.5" rx="2" width="15" height="15" fill="#701516" stroke-width="1" stroke="#000000"/><text transform="scale(0.095)" x="2663" y="132" textLength="999" lengthAdjust="spacingAndGlyphs">Ruby 0.03%</text></g></g></g></svg>