<svg width="457" height="396" viewBox="0 0 457 396" xmlns="http://www.w3.org/2000/svg" lang="en" xml:lang="en"><rect x="2" y="2" stroke-width="4" rx="0" width="453" height="392" stroke="#ffffff" fill="#ffffff"/><g font-weight="600" font-size="110pt" font-family="Verdana,Geneva,DejaVu Sans,sans-serif" text-rendering="geometricPrecision"><text x="895" y="301" lengthAdjust="spacingAndGlyphs" textLength="1917" transform="scale(0.123)" fill="#0969da">Rinc's GitHub Statistics</text><g transform="translate(0, 60)" fill="#24292f"><g transform="translate(15, 0)"><g transform="scale(0.095)"><text x="0" y="132" textLength="3652" lengthAdjust="spacingAndGlyphs">Language Distribution in Public Repositories</text></g></g><g transform="translate(243, 21)"><circle cx="92" cy="92" r="92" fill="#000000"/></g><g transform="translate(244, 22)"><path fill-rule="evenodd" fill="#f34b7d" d="M 0.0,91.00000000000001 A 91 91 0 0 1 176.06921992552543 58.685485903969 L 91,91 Z"/><path fill-rule="evenodd" fill="#438eff" d="M 176.06921992552543,58.685485903969 A 91 91 0 0 1 167.7643314468217 139.86959604419198 L 91,91 Z"/><path fill-rule="evenodd" fill="#555555" d="M 167.7643314468217,139.86959604419198 A 91 91 0 0 1 136.35031632772362 169.89454232692782 L 91,91 Z"/><path fill-rule="evenodd" fill="#dea584" d="M 136.35031632772362,169.89454232692782 A 91 91 0 0 1 96.83534041535523 181.8127127787565 L 91,91 Z"/><path fill-rule="evenodd" fill="#b07219" d="M 96.83534041535523,181.8127127787565 A 91 91 0 0 1 63.517062685172164 177.7507242422174 L 91,91 Z"/><path fill-rule="evenodd" fill="#00ADD8" d="M 63.517062685172164,177.7507242422174 A 91 91 0 0 1 39.28333556687883 165.87580797501914 L 91,91 Z"/><path fill-rule="evenodd" fill="#A97BFF" d="M 39.28333556687883,165.87580797501914 A 91 91 0 0 1 20.44274135567258 148.4688894324354 L 91,91 Z"/><path fill-rule="evenodd" fill="#000080" d="M 20.44274135567258,148.4688894324354 A 91 91 0 0 1 11.654717254904781 135.55699839644603 L 91,91 Z"/><path fill-rule="evenodd" fill="#f1e05a" d="M 11.654717254904781,135.55699839644603 A 91 91 0 0 1 5.6463617721975226 122.55560871346668 L 91,91 Z"/><path fill-rule="evenodd" fill="#3178c6" d="M 5.6463617721975226,122.55560871346668 A 91 91 0 0 1 2.694157437087341 112.97903931599568 L 91,91 Z"/><path fill-rule="evenodd" fill="#6866fb" d="M 2.694157437087341,112.97903931599568 A 91 91 0 0 1 0.9606161722371667 104.1874698072375 L 91,91 Z"/><path fill-rule="evenodd" fill="#89e051" d="M 0.9606161722371667,104.1874698072375 A 91 91 0 0 1 0.13067952003861194 95.87509953847827 L 91,91 Z"/><path fill-rule="evenodd" fill="#427819" d="M 0.13067952003861194,95.87509953847827 A 91 91 0 0 1 0.06495198953240333 94.4375926655079 L 91,91 Z"/><path fill-rule="evenodd" fill="#8f14e9" d="M 0.06495198953240333,94.4375926655079 A 91 91 0 0 1 0.03686972412903344 93.59016030680104 L 91,91 Z"/><path fill-rule="evenodd" fill="#C1F12E" d="M 0.03686972412903344,93.59016030680104 A 91 91 0 0 1 0.016723025044356632 92.74450878430206 L 91,91 Z"/><path fill-rule="evenodd" fill="#5686a5" d="M 0.016723025044356632,92.74450878430206 A 91 91 0 0 1 0.006336742005558449 92.0738933330232 L 91,91 Z"/><path fill-rule="evenodd" fill="#DA3434" d="M 0.006336742005558449,92.0738933330232 A 91 91 0 0 1 0.001142741039188877 91.45604557149031 L 91,91 Z"/><path fill-rule="evenodd" fill="#e34c26" d="M 0.001142741039188877,91.45604557149031 A 91 91 0 0 1 0.00011569094266405955 91.14510595501277 L 91,91 Z"/><path fill-rule="evenodd" fill="#701516" d="M 0.00011569094266405955,91.14510595501277 A 91 91 0 0 1 0.0 91.00000000000003 L 91,91 Z"/></g><g transform="translate(15, 21)"><rect x="0.5" y="0.5" rx="2" width="15" height="15" fill="#f34b7d" stroke-width="1" stroke="#000000"/><text transform="scale(0.095)" x="263" y="132" textLength="1074" lengthAdjust="spacingAndGlyphs">C++ 44.22%</text></g><g transform="translate(15, 42)"><rect x="0.5" y="0.5" rx="2" width="15" height="15" fill="#438eff" stroke-width="1" stroke="#000000"/><text transform="scale(0.095)" x="263" y="132" textLength="1642" lengthAdjust="spacingAndGlyphs">Objective-C 14.80%</text></g><g transform="translate(15, 63)"><rect x="0.5" y="0.5" rx="2" width="15" height="15" fill="#555555" stroke-width="1" stroke="#000000"/><text transform="scale(0.095)" x="263" y="132" textLength="693" lengthAdjust="spacingAndGlyphs">C 7.67%</text></g><g transform="translate(15, 84)"><rect x="0.5" y="0.5" rx="2" width="15" height="15" fill="#dea584" stroke-width="1" stroke="#000000"/><text transform="scale(0.095)" x="263" y="132" textLength="946" lengthAdjust="spacingAndGlyphs">Rust 7.28%</text></g><g transform="translate(15, 105)"><rect x="0.5" y="0.5" rx="2" width="15" height="15" fill="#b07219" stroke-width="1" stroke="#000000"/><text transform="scale(0.095)" x="263" y="132" textLength="933" lengthAdjust="spacingAndGlyphs">Java 5.90%</text></g><g transform="translate(15, 126)"><rect x="0.5" y="0.5" rx="2" width="15" height="15" fill="#00ADD8" stroke-width="1" stroke="#000000"/><text transform="scale(0.095)" x="263" y="132" textLength="806" lengthAdjust="spacingAndGlyphs">Go 4.74%</text></g><g transform="translate(15, 147)"><rect x="0.5" y="0.5" rx="2" width="15" height="15" fill="#A97BFF" stroke-width="1" stroke="#000000"/><text transform="scale(0.095)" x="263" y="132" textLength="1048" lengthAdjust="spacingAndGlyphs">Kotlin 4.50%</text></g><g transform="translate(15, 168)"><rect x="0.5" y="0.5" rx="2" width="15" height="15" fill="#000080" stroke-width="1" stroke="#000000"/><text transform="scale(0.095)" x="263" y="132" textLength="874" lengthAdjust="spacingAndGlyphs">Lua 2.74%</text></g><g transform="translate(15, 189)"><rect x="0.5" y="0.5" rx="2" width="15" height="15" fill="#f1e05a" stroke-width="1" stroke="#000000"/><text transform="scale(0.095)" x="263" y="132" textLength="1412" lengthAdjust="spacingAndGlyphs">JavaScript 2.51%</text></g><g transform="translate(15, 210)"><rect x="0.5" y="0.5" rx="2" width="15" height="15" fill="#3178c6" stroke-width="1" stroke="#000000"/><text transform="scale(0.095)" x="263" y="132" textLength="1462" lengthAdjust="spacingAndGlyphs">TypeScript 1.75%</text><rect x="228.5" y="0.5" rx="2" width="15" height="15" fill="#6866fb" stroke-width="1" stroke="#000000"/><text transform="scale(0.095)" x="2663" y="132" textLength="1814" lengthAdjust="spacingAndGlyphs">Objective-C++ 1.57%</text></g><g transform="translate(15, 231)"><rect x="0.5" y="0.5" rx="2" width="15" height="15" fill="#89e051" stroke-width="1" stroke="#000000"/><text transform="scale(0.095)" x="263" y="132" textLength="982" lengthAdjust="spacingAndGlyphs">Shell 1.46%</text><rect x="228.5" y="0.5" rx="2" width="15" height="15" fill="#427819" stroke-width="1" stroke="#000000"/><text transform="scale(0.095)" x="2663" y="132" textLength="1272" lengthAdjust="spacingAndGlyphs">Makefile 0.25%</text></g><g transform="translate(15, 252)"><rect x="0.5" y="0.5" rx="2" width="15" height="15" fill="#8f14e9" stroke-width="1" stroke="#000000"/><text transform="scale(0.095)" x="263" y="132" textLength="1034" lengthAdjust="spacingAndGlyphs">Metal 0.15%</text><rect x="228.5" y="0.5" rx="2" width="15" height="15" fill="#C1F12E" stroke-width="1" stroke="#000000"/><text transform="scale(0.095)" x="2663" y="132" textLength="1304" lengthAdjust="spacingAndGlyphs">Batchfile 0.15%</text></g><g transform="translate(15, 273)"><rect x="0.5" y="0.5" rx="2" width="15" height="15" fill="#5686a5" stroke-width="1" stroke="#000000"/><text transform="scale(0.095)" x="263" y="132" textLength="993" lengthAdjust="spacingAndGlyphs">GLSL 0.12%</text><rect x="228.5" y="0.5" rx="2" width="15" height="15" fill="#DA3434" stroke-width="1" stroke="#000000"/><text transform="scale(0.095)" x="2663" y="132" textLength="1134" lengthAdjust="spacingAndGlyphs">CMake 0.11%</text></g><g transform="translate(15, 294)"><rect x="0.5" y="0.5" rx="2" width="15" height="15" fill="#e34c26" stroke-width="1" stroke="#000000"/><text transform="scale(0.095)" x="263" y="132" textLength="1036" lengthAdjust="spacingAndGlyphs">HTML 0.05%</text><rect x="228.5" y="0.5" rx="2" width="15" height="15" fill="#701516" stroke-width="1" stroke="#000000"/><text transform="scale(0.095)" x="2663" y="132" textLength="999" lengthAdjust="spacingAndGlyphs">Ruby 0.03%</text></g></g></g></svg>