<svg width="457" height="396" viewBox="0 0 457 396" xmlns="http://www.w3.org/2000/svg" lang="en" xml:lang="en"><rect x="2" y="2" stroke-width="4" rx="0" width="453" height="392" stroke="#ffffff" fill="#ffffff"/><g font-weight="600" font-size="110pt" font-family="Verdana,Geneva,DejaVu Sans,sans-serif" text-rendering="geometricPrecision"><text x="895" y="301" lengthAdjust="spacingAndGlyphs" textLength="1917" transform="scale(0.123)" fill="#0969da">Rinc's GitHub Statistics</text><g transform="translate(0, 60)" fill="#24292f"><g transform="translate(15, 0)"><g transform="scale(0.095)"><text x="0" y="132" textLength="3652" lengthAdjust="spacingAndGlyphs">Language Distribution in Public Repositories</text></g></g><g transform="translate(243, 21)"><circle cx="92" cy="92" r="92" fill="#000000"/></g><g transform="translate(244, 22)"><path fill-rule="evenodd" fill="#f34b7d" d="M 0.0,91.00000000000001 A 91 91 0 0 1 177.62194565439088 63.11382903574335 L 91,91 Z"/><path fill-rule="evenodd" fill="#438eff" d="M 177.62194565439088,63.11382903574335 A 91 91 0 0 1 165.85469496801866 142.74721868124777 L 91,91 Z"/><path fill-rule="evenodd" fill="#555555" d="M 165.85469496801866,142.74721868124777 A 91 91 0 0 1 133.8918458555534 171.25764486392214 L 91,91 Z"/><path fill-rule="evenodd" fill="#dea584" d="M 133.8918458555534,171.25764486392214 A 91 91 0 0 1 94.63697114517154 181.9272920573861 L 91,91 Z"/><path fill-rule="evenodd" fill="#b07219" d="M 94.63697114517154,181.9272920573861 A 91 91 0 0 1 61.8947056001605 177.21996194558818 L 91,91 Z"/><path fill-rule="evenodd" fill="#00ADD8" d="M 61.8947056001605,177.21996194558818 A 91 91 0 0 1 38.21060885668983 165.12341183943576 L 91,91 Z"/><path fill-rule="evenodd" fill="#A97BFF" d="M 38.21060885668983,165.12341183943576 A 91 91 0 0 1 19.857017918418293 147.74218977568404 L 91,91 Z"/><path fill-rule="evenodd" fill="#000080" d="M 19.857017918418293,147.74218977568404 A 91 91 0 0 1 11.312227538508083 134.94153980148502 L 91,91 Z"/><path fill-rule="evenodd" fill="#f1e05a" d="M 11.312227538508083,134.94153980148502 A 91 91 0 0 1 5.485430274662264 122.11685017302281 L 91,91 Z"/><path fill-rule="evenodd" fill="#3178c6" d="M 5.485430274662264,122.11685017302281 A 91 91 0 0 1 2.6172956987534235 112.66789284629246 L 91,91 Z"/><path fill-rule="evenodd" fill="#6866fb" d="M 2.6172956987534235,112.66789284629246 A 91 91 0 0 1 0.9329205672449064 103.99696897179435 L 91,91 Z"/><path fill-rule="evenodd" fill="#89e051" d="M 0.9329205672449064,103.99696897179435 A 91 91 0 0 1 0.12688066385814523 95.80376749222123 L 91,91 Z"/><path fill-rule="evenodd" fill="#427819" d="M 0.12688066385814523,95.80376749222123 A 91 91 0 0 1 0.06306361310325315 94.3872703708878 L 91,91 Z"/><path fill-rule="evenodd" fill="#8f14e9" d="M 0.06306361310325315,94.3872703708878 A 91 91 0 0 1 0.035797741630759106 93.55223578426693 L 91,91 Z"/><path fill-rule="evenodd" fill="#C1F12E" d="M 0.035797741630759106,93.55223578426693 A 91 91 0 0 1 0.016236787814492004 92.71896240475459 L 91,91 Z"/><path fill-rule="evenodd" fill="#5686a5" d="M 0.016236787814492004,92.71896240475459 A 91 91 0 0 1 0.0061524920398596805 92.05816619587584 L 91,91 Z"/><path fill-rule="evenodd" fill="#DA3434" d="M 0.0061524920398596805,92.05816619587584 A 91 91 0 0 1 0.0011095138789443126 91.44936654854178 L 91,91 Z"/><path fill-rule="evenodd" fill="#e34c26" d="M 0.0011095138789443126,91.44936654854178 A 91 91 0 0 1 0.00011232702347285795 91.14298078771165 L 91,91 Z"/><path fill-rule="evenodd" fill="#701516" d="M 0.00011232702347285795,91.14298078771165 A 91 91 0 0 1 0.0 91.00000000000003 L 91,91 Z"/></g><g transform="translate(15, 21)"><rect x="0.5" y="0.5" rx="2" width="15" height="15" fill="#f34b7d" stroke-width="1" stroke="#000000"/><text transform="scale(0.095)" x="263" y="132" textLength="1074" lengthAdjust="spacingAndGlyphs">C++ 45.04%</text></g><g transform="translate(15, 42)"><rect x="0.5" y="0.5" rx="2" width="15" height="15" fill="#438eff" stroke-width="1" stroke="#000000"/><text transform="scale(0.095)" x="263" y="132" textLength="1642" lengthAdjust="spacingAndGlyphs">Objective-C 14.58%</text></g><g transform="translate(15, 63)"><rect x="0.5" y="0.5" rx="2" width="15" height="15" fill="#555555" stroke-width="1" stroke="#000000"/><text transform="scale(0.095)" x="263" y="132" textLength="693" lengthAdjust="spacingAndGlyphs">C 7.56%</text></g><g transform="translate(15, 84)"><rect x="0.5" y="0.5" rx="2" width="15" height="15" fill="#dea584" stroke-width="1" stroke="#000000"/><text transform="scale(0.095)" x="263" y="132" textLength="946" lengthAdjust="spacingAndGlyphs">Rust 7.18%</text></g><g transform="translate(15, 105)"><rect x="0.5" y="0.5" rx="2" width="15" height="15" fill="#b07219" stroke-width="1" stroke="#000000"/><text transform="scale(0.095)" x="263" y="132" textLength="933" lengthAdjust="spacingAndGlyphs">Java 5.82%</text></g><g transform="translate(15, 126)"><rect x="0.5" y="0.5" rx="2" width="15" height="15" fill="#00ADD8" stroke-width="1" stroke="#000000"/><text transform="scale(0.095)" x="263" y="132" textLength="806" lengthAdjust="spacingAndGlyphs">Go 4.67%</text></g><g transform="translate(15, 147)"><rect x="0.5" y="0.5" rx="2" width="15" height="15" fill="#A97BFF" stroke-width="1" stroke="#000000"/><text transform="scale(0.095)" x="263" y="132" textLength="1048" lengthAdjust="spacingAndGlyphs">Kotlin 4.44%</text></g><g transform="translate(15, 168)"><rect x="0.5" y="0.5" rx="2" width="15" height="15" fill="#000080" stroke-width="1" stroke="#000000"/><text transform="scale(0.095)" x="263" y="132" textLength="874" lengthAdjust="spacingAndGlyphs">Lua 2.69%</text></g><g transform="translate(15, 189)"><rect x="0.5" y="0.5" rx="2" width="15" height="15" fill="#f1e05a" stroke-width="1" stroke="#000000"/><text transform="scale(0.095)" x="263" y="132" textLength="1412" lengthAdjust="spacingAndGlyphs">JavaScript 2.47%</text></g><g transform="translate(15, 210)"><rect x="0.5" y="0.5" rx="2" width="15" height="15" fill="#3178c6" stroke-width="1" stroke="#000000"/><text transform="scale(0.095)" x="263" y="132" textLength="1462" lengthAdjust="spacingAndGlyphs">TypeScript 1.73%</text><rect x="228.5" y="0.5" rx="2" width="15" height="15" fill="#6866fb" stroke-width="1" stroke="#000000"/><text transform="scale(0.095)" x="2663" y="132" textLength="1814" lengthAdjust="spacingAndGlyphs">Objective-C++ 1.55%</text></g><g transform="translate(15, 231)"><rect x="0.5" y="0.5" rx="2" width="15" height="15" fill="#89e051" stroke-width="1" stroke="#000000"/><text transform="scale(0.095)" x="263" y="132" textLength="982" lengthAdjust="spacingAndGlyphs">Shell 1.44%</text><rect x="228.5" y="0.5" rx="2" width="15" height="15" fill="#427819" stroke-width="1" stroke="#000000"/><text transform="scale(0.095)" x="2663" y="132" textLength="1272" lengthAdjust="spacingAndGlyphs">Makefile 0.25%</text></g><g transform="translate(15, 252)"><rect x="0.5" y="0.5" rx="2" width="15" height="15" fill="#8f14e9" stroke-width="1" stroke="#000000"/><text transform="scale(0.095)" x="263" y="132" textLength="1034" lengthAdjust="spacingAndGlyphs">Metal 0.15%</text><rect x="228.5" y="0.5" rx="2" width="15" height="15" fill="#C1F12E" stroke-width="1" stroke="#000000"/><text transform="scale(0.095)" x="2663" y="132" textLength="1304" lengthAdjust="spacingAndGlyphs">Batchfile 0.15%</text></g><g transform="translate(15, 273)"><rect x="0.5" y="0.5" rx="2" width="15" height="15" fill="#5686a5" stroke-width="1" stroke="#000000"/><text transform="scale(0.095)" x="263" y="132" textLength="993" lengthAdjust="spacingAndGlyphs">GLSL 0.12%</text><rect x="228.5" y="0.5" rx="2" width="15" height="15" fill="#DA3434" stroke-width="1" stroke="#000000"/><text transform="scale(0.095)" x="2663" y="132" textLength="1134" lengthAdjust="spacingAndGlyphs">CMake 0.11%</text></g><g transform="translate(15, 294)"><rect x="0.5" y="0.5" rx="2" width="15" height="15" fill="#e34c26" stroke-width="1" stroke="#000000"/><text transform="scale(0.095)" x="263" y="132" textLength="1036" lengthAdjust="spacingAndGlyphs">HTML 0.05%</text><rect x="228.5" y="0.5" rx="2" width="15" height="15" fill="#701516" stroke-width="1" stroke="#000000"/><text transform="scale(0.095)" x="2663" y="132" textLength="999" lengthAdjust="spacingAndGlyphs">Ruby 0.03%</text></g></g></g></svg>