<svg width="457" height="396" viewBox="0 0 457 396" xmlns="http://www.w3.org/2000/svg" lang="en" xml:lang="en"><rect x="2" y="2" stroke-width="4" rx="0" width="453" height="392" stroke="#ffffff" fill="#ffffff"/><g font-weight="600" font-size="110pt" font-family="Verdana,Geneva,DejaVu Sans,sans-serif" text-rendering="geometricPrecision"><text x="895" y="301" lengthAdjust="spacingAndGlyphs" textLength="1917" transform="scale(0.123)" fill="#0969da">Rinc's GitHub Statistics</text><g transform="translate(0, 60)" fill="#24292f"><g transform="translate(15, 0)"><g transform="scale(0.095)"><text x="0" y="132" textLength="3652" lengthAdjust="spacingAndGlyphs">Language Distribution in Public Repositories</text></g></g><g transform="translate(243, 21)"><circle cx="92" cy="92" r="92" fill="#000000"/></g><g transform="translate(244, 22)"><path fill-rule="evenodd" fill="#f34b7d" d="M 0.0,91.00000000000001 A 91 91 0 0 1 168.724568244321 43.67250808215286 L 91,91 Z"/><path fill-rule="evenodd" fill="#438eff" d="M 168.724568244321,43.67250808215286 A 91 91 0 0 1 174.9542044180676 126.10970749706297 L 91,91 Z"/><path fill-rule="evenodd" fill="#555555" d="M 174.9542044180676,126.10970749706297 A 91 91 0 0 1 146.89594056682444 162.80977529661288 L 91,91 Z"/><path fill-rule="evenodd" fill="#dea584" d="M 146.89594056682444,162.80977529661288 A 91 91 0 0 1 108.74350877335175 180.2533915120876 L 91,91 Z"/><path fill-rule="evenodd" fill="#b07219" d="M 108.74350877335175,180.2533915120876 A 91 91 0 0 1 74.62484075751922 180.5145471964384 L 91,91 Z"/><path fill-rule="evenodd" fill="#00ADD8" d="M 74.62484075751922,180.5145471964384 A 91 91 0 0 1 48.69053503847122 171.56617885111075 L 91,91 Z"/><path fill-rule="evenodd" fill="#A97BFF" d="M 48.69053503847122,171.56617885111075 A 91 91 0 0 1 27.62325894561392 156.30228704513567 L 91,91 Z"/><path fill-rule="evenodd" fill="#000080" d="M 27.62325894561392,156.30228704513567 A 91 91 0 0 1 14.88262754121024 140.87129043818572 L 91,91 Z"/><path fill-rule="evenodd" fill="#f1e05a" d="M 14.88262754121024,140.87129043818572 A 91 91 0 0 1 8.043820020640993 128.40684701003542 L 91,91 Z"/><path fill-rule="evenodd" fill="#3178c6" d="M 8.043820020640993,128.40684701003542 A 91 91 0 0 1 4.36173849454201 118.83543862258824 L 91,91 Z"/><path fill-rule="evenodd" fill="#6866fb" d="M 4.36173849454201,118.83543862258824 A 91 91 0 0 1 2.0246134155627544 110.08875538504137 L 91,91 Z"/><path fill-rule="evenodd" fill="#DA3434" d="M 2.0246134155627544,110.08875538504137 A 91 91 0 0 1 0.5908548304259824 101.35308986278454 L 91,91 Z"/><path fill-rule="evenodd" fill="#89e051" d="M 0.5908548304259824,101.35308986278454 A 91 91 0 0 1 0.08258979307798597 94.87614773535174 L 91,91 Z"/><path fill-rule="evenodd" fill="#427819" d="M 0.08258979307798597,94.87614773535174 A 91 91 0 0 1 0.03202294063041222 93.413948989935 L 91,91 Z"/><path fill-rule="evenodd" fill="#8f14e9" d="M 0.03202294063041222,93.413948989935 A 91 91 0 0 1 0.013236910503380273 92.55207683309033 L 91,91 Z"/><path fill-rule="evenodd" fill="#5686a5" d="M 0.013236910503380273,92.55207683309033 A 91 91 0 0 1 0.004161040742360456 91.87022531613931 L 91,91 Z"/><path fill-rule="evenodd" fill="#C1F12E" d="M 0.004161040742360456,91.87022531613931 A 91 91 0 0 1 0.0011812808085380766 91.46367198721723 L 91,91 Z"/><path fill-rule="evenodd" fill="#e34c26" d="M 0.0011812808085380766,91.46367198721723 A 91 91 0 0 1 0.00011959271110129066 91.14753256968284 L 91,91 Z"/><path fill-rule="evenodd" fill="#701516" d="M 0.00011959271110129066,91.14753256968284 A 91 91 0 0 1 0.0 91.00000000000003 L 91,91 Z"/></g><g transform="translate(15, 21)"><rect x="0.5" y="0.5" rx="2" width="15" height="15" fill="#f34b7d" stroke-width="1" stroke="#000000"/><text transform="scale(0.095)" x="263" y="132" textLength="1074" lengthAdjust="spacingAndGlyphs">C++ 41.30%</text></g><g transform="translate(15, 42)"><rect x="0.5" y="0.5" rx="2" width="15" height="15" fill="#438eff" stroke-width="1" stroke="#000000"/><text transform="scale(0.095)" x="263" y="132" textLength="1642" lengthAdjust="spacingAndGlyphs">Objective-C 15.01%</text></g><g transform="translate(15, 63)"><rect x="0.5" y="0.5" rx="2" width="15" height="15" fill="#555555" stroke-width="1" stroke="#000000"/><text transform="scale(0.095)" x="263" y="132" textLength="693" lengthAdjust="spacingAndGlyphs">C 8.17%</text></g><g transform="translate(15, 84)"><rect x="0.5" y="0.5" rx="2" width="15" height="15" fill="#dea584" stroke-width="1" stroke="#000000"/><text transform="scale(0.095)" x="263" y="132" textLength="946" lengthAdjust="spacingAndGlyphs">Rust 7.40%</text></g><g transform="translate(15, 105)"><rect x="0.5" y="0.5" rx="2" width="15" height="15" fill="#b07219" stroke-width="1" stroke="#000000"/><text transform="scale(0.095)" x="263" y="132" textLength="933" lengthAdjust="spacingAndGlyphs">Java 6.00%</text></g><g transform="translate(15, 126)"><rect x="0.5" y="0.5" rx="2" width="15" height="15" fill="#00ADD8" stroke-width="1" stroke="#000000"/><text transform="scale(0.095)" x="263" y="132" textLength="806" lengthAdjust="spacingAndGlyphs">Go 4.82%</text></g><g transform="translate(15, 147)"><rect x="0.5" y="0.5" rx="2" width="15" height="15" fill="#A97BFF" stroke-width="1" stroke="#000000"/><text transform="scale(0.095)" x="263" y="132" textLength="1048" lengthAdjust="spacingAndGlyphs">Kotlin 4.57%</text></g><g transform="translate(15, 168)"><rect x="0.5" y="0.5" rx="2" width="15" height="15" fill="#000080" stroke-width="1" stroke="#000000"/><text transform="scale(0.095)" x="263" y="132" textLength="874" lengthAdjust="spacingAndGlyphs">Lua 3.51%</text></g><g transform="translate(15, 189)"><rect x="0.5" y="0.5" rx="2" width="15" height="15" fill="#f1e05a" stroke-width="1" stroke="#000000"/><text transform="scale(0.095)" x="263" y="132" textLength="1412" lengthAdjust="spacingAndGlyphs">JavaScript 2.49%</text></g><g transform="translate(15, 210)"><rect x="0.5" y="0.5" rx="2" width="15" height="15" fill="#3178c6" stroke-width="1" stroke="#000000"/><text transform="scale(0.095)" x="263" y="132" textLength="1462" lengthAdjust="spacingAndGlyphs">TypeScript 1.79%</text><rect x="228.5" y="0.5" rx="2" width="15" height="15" fill="#6866fb" stroke-width="1" stroke="#000000"/><text transform="scale(0.095)" x="2663" y="132" textLength="1814" lengthAdjust="spacingAndGlyphs">Objective-C++ 1.58%</text></g><g transform="translate(15, 231)"><rect x="0.5" y="0.5" rx="2" width="15" height="15" fill="#DA3434" stroke-width="1" stroke="#000000"/><text transform="scale(0.095)" x="263" y="132" textLength="1134" lengthAdjust="spacingAndGlyphs">CMake 1.55%</text><rect x="228.5" y="0.5" rx="2" width="15" height="15" fill="#89e051" stroke-width="1" stroke="#000000"/><text transform="scale(0.095)" x="2663" y="132" textLength="982" lengthAdjust="spacingAndGlyphs">Shell 1.14%</text></g><g transform="translate(15, 252)"><rect x="0.5" y="0.5" rx="2" width="15" height="15" fill="#427819" stroke-width="1" stroke="#000000"/><text transform="scale(0.095)" x="263" y="132" textLength="1272" lengthAdjust="spacingAndGlyphs">Makefile 0.26%</text><rect x="228.5" y="0.5" rx="2" width="15" height="15" fill="#8f14e9" stroke-width="1" stroke="#000000"/><text transform="scale(0.095)" x="2663" y="132" textLength="1034" lengthAdjust="spacingAndGlyphs">Metal 0.15%</text></g><g transform="translate(15, 273)"><rect x="0.5" y="0.5" rx="2" width="15" height="15" fill="#5686a5" stroke-width="1" stroke="#000000"/><text transform="scale(0.095)" x="263" y="132" textLength="993" lengthAdjust="spacingAndGlyphs">GLSL 0.12%</text><rect x="228.5" y="0.5" rx="2" width="15" height="15" fill="#C1F12E" stroke-width="1" stroke="#000000"/><text transform="scale(0.095)" x="2663" y="132" textLength="1304" lengthAdjust="spacingAndGlyphs">Batchfile 0.07%</text></g><g transform="translate(15, 294)"><rect x="0.5" y="0.5" rx="2" width="15" height="15" fill="#e34c26" stroke-width="1" stroke="#000000"/><text transform="scale(0.095)" x="263" y="132" textLength="1036" lengthAdjust="spacingAndGlyphs">HTML 0.06%</text><rect x="228.5" y="0.5" rx="2" width="15" height="15" fill="#701516" stroke-width="1" stroke="#000000"/><text transform="scale(0.095)" x="2663" y="132" textLength="999" lengthAdjust="spacingAndGlyphs">Ruby 0.03%</text></g></g></g></svg>