<svg width="457" height="396" viewBox="0 0 457 396" xmlns="http://www.w3.org/2000/svg" lang="en" xml:lang="en"><rect x="2" y="2" stroke-width="4" rx="0" width="453" height="392" stroke="#ffffff" fill="#ffffff"/><g font-weight="600" font-size="110pt" font-family="Verdana,Geneva,DejaVu Sans,sans-serif" text-rendering="geometricPrecision"><text x="895" y="301" lengthAdjust="spacingAndGlyphs" textLength="1917" transform="scale(0.123)" fill="#0969da">Rinc's GitHub Statistics</text><g transform="translate(0, 60)" fill="#24292f"><g transform="translate(15, 0)"><g transform="scale(0.095)"><text x="0" y="132" textLength="3652" lengthAdjust="spacingAndGlyphs">Language Distribution in Public Repositories</text></g></g><g transform="translate(243, 21)"><circle cx="92" cy="92" r="92" fill="#000000"/></g><g transform="translate(244, 22)"><path fill-rule="evenodd" fill="#f34b7d" d="M 0.0,91.00000000000001 A 91 91 0 0 1 174.5957281518252 55.045108333272125 L 91,91 Z"/><path fill-rule="evenodd" fill="#438eff" d="M 174.5957281518252,55.045108333272125 A 91 91 0 0 1 169.24733931175388 137.4580874620475 L 91,91 Z"/><path fill-rule="evenodd" fill="#555555" d="M 169.24733931175388,137.4580874620475 A 91 91 0 0 1 138.32260120010667 168.72754605450803 L 91,91 Z"/><path fill-rule="evenodd" fill="#dea584" d="M 138.32260120010667,168.72754605450803 A 91 91 0 0 1 98.58282647951535 181.68351968567146 L 91,91 Z"/><path fill-rule="evenodd" fill="#b07219" d="M 98.58282647951535,181.68351968567146 A 91 91 0 0 1 64.77337702649186 178.13876432108418 L 91,91 Z"/><path fill-rule="evenodd" fill="#00ADD8" d="M 64.77337702649186,178.13876432108418 A 91 91 0 0 1 40.07935847324179 166.4194157130867 L 91,91 Z"/><path fill-rule="evenodd" fill="#A97BFF" d="M 40.07935847324179,166.4194157130867 A 91 91 0 0 1 20.86589371588694 148.98454221366876 L 91,91 Z"/><path fill-rule="evenodd" fill="#000080" d="M 20.86589371588694,148.98454221366876 A 91 91 0 0 1 11.940782072746032 136.0626237666091 L 91,91 Z"/><path fill-rule="evenodd" fill="#f1e05a" d="M 11.940782072746032,136.0626237666091 A 91 91 0 0 1 5.838026055469754 123.06927180138567 L 91,91 Z"/><path fill-rule="evenodd" fill="#3178c6" d="M 5.838026055469754,123.06927180138567 A 91 91 0 0 1 2.8133209708540647 113.45238610505335 L 91,91 Z"/><path fill-rule="evenodd" fill="#6866fb" d="M 2.8133209708540647,113.45238610505335 A 91 91 0 0 1 1.0152726029872667 104.55539875050923 L 91,91 Z"/><path fill-rule="evenodd" fill="#89e051" d="M 1.0152726029872667,104.55539875050923 A 91 91 0 0 1 0.13408696435107004 95.9382029320276 L 91,91 Z"/><path fill-rule="evenodd" fill="#427819" d="M 0.13408696435107004,95.9382029320276 A 91 91 0 0 1 0.06664580997997405 94.48211081850754 L 91,91 Z"/><path fill-rule="evenodd" fill="#8f14e9" d="M 0.06664580997997405,94.48211081850754 A 91 91 0 0 1 0.03783126495314093 93.6237109247901 L 91,91 Z"/><path fill-rule="evenodd" fill="#C1F12E" d="M 0.03783126495314093,93.6237109247901 A 91 91 0 0 1 0.017159168264228697 92.76710899127166 L 91,91 Z"/><path fill-rule="evenodd" fill="#5686a5" d="M 0.017159168264228697,92.76710899127166 A 91 91 0 0 1 0.006502010011971038 92.08780675951388 L 91,91 Z"/><path fill-rule="evenodd" fill="#DA3434" d="M 0.006502010011971038,92.08780675951388 A 91 91 0 0 1 0.0011725450578410346 91.46195435452486 L 91,91 Z"/><path fill-rule="evenodd" fill="#e34c26" d="M 0.0011725450578410346,91.46195435452486 A 91 91 0 0 1 0.00011870830316240699 91.14698604383719 L 91,91 Z"/><path fill-rule="evenodd" fill="#701516" d="M 0.00011870830316240699,91.14698604383719 A 91 91 0 0 1 0.0 91.00000000000003 L 91,91 Z"/></g><g transform="translate(15, 21)"><rect x="0.5" y="0.5" rx="2" width="15" height="15" fill="#f34b7d" stroke-width="1" stroke="#000000"/><text transform="scale(0.095)" x="263" y="132" textLength="1074" lengthAdjust="spacingAndGlyphs">C++ 43.54%</text></g><g transform="translate(15, 42)"><rect x="0.5" y="0.5" rx="2" width="15" height="15" fill="#438eff" stroke-width="1" stroke="#000000"/><text transform="scale(0.095)" x="263" y="132" textLength="1642" lengthAdjust="spacingAndGlyphs">Objective-C 14.99%</text></g><g transform="translate(15, 63)"><rect x="0.5" y="0.5" rx="2" width="15" height="15" fill="#555555" stroke-width="1" stroke="#000000"/><text transform="scale(0.095)" x="263" y="132" textLength="693" lengthAdjust="spacingAndGlyphs">C 7.77%</text></g><g transform="translate(15, 84)"><rect x="0.5" y="0.5" rx="2" width="15" height="15" fill="#dea584" stroke-width="1" stroke="#000000"/><text transform="scale(0.095)" x="263" y="132" textLength="946" lengthAdjust="spacingAndGlyphs">Rust 7.38%</text></g><g transform="translate(15, 105)"><rect x="0.5" y="0.5" rx="2" width="15" height="15" fill="#b07219" stroke-width="1" stroke="#000000"/><text transform="scale(0.095)" x="263" y="132" textLength="933" lengthAdjust="spacingAndGlyphs">Java 5.98%</text></g><g transform="translate(15, 126)"><rect x="0.5" y="0.5" rx="2" width="15" height="15" fill="#00ADD8" stroke-width="1" stroke="#000000"/><text transform="scale(0.095)" x="263" y="132" textLength="806" lengthAdjust="spacingAndGlyphs">Go 4.80%</text></g><g transform="translate(15, 147)"><rect x="0.5" y="0.5" rx="2" width="15" height="15" fill="#A97BFF" stroke-width="1" stroke="#000000"/><text transform="scale(0.095)" x="263" y="132" textLength="1048" lengthAdjust="spacingAndGlyphs">Kotlin 4.55%</text></g><g transform="translate(15, 168)"><rect x="0.5" y="0.5" rx="2" width="15" height="15" fill="#000080" stroke-width="1" stroke="#000000"/><text transform="scale(0.095)" x="263" y="132" textLength="874" lengthAdjust="spacingAndGlyphs">Lua 2.75%</text></g><g transform="translate(15, 189)"><rect x="0.5" y="0.5" rx="2" width="15" height="15" fill="#f1e05a" stroke-width="1" stroke="#000000"/><text transform="scale(0.095)" x="263" y="132" textLength="1412" lengthAdjust="spacingAndGlyphs">JavaScript 2.51%</text></g><g transform="translate(15, 210)"><rect x="0.5" y="0.5" rx="2" width="15" height="15" fill="#3178c6" stroke-width="1" stroke="#000000"/><text transform="scale(0.095)" x="263" y="132" textLength="1462" lengthAdjust="spacingAndGlyphs">TypeScript 1.76%</text><rect x="228.5" y="0.5" rx="2" width="15" height="15" fill="#6866fb" stroke-width="1" stroke="#000000"/><text transform="scale(0.095)" x="2663" y="132" textLength="1814" lengthAdjust="spacingAndGlyphs">Objective-C++ 1.59%</text></g><g transform="translate(15, 231)"><rect x="0.5" y="0.5" rx="2" width="15" height="15" fill="#89e051" stroke-width="1" stroke="#000000"/><text transform="scale(0.095)" x="263" y="132" textLength="982" lengthAdjust="spacingAndGlyphs">Shell 1.52%</text><rect x="228.5" y="0.5" rx="2" width="15" height="15" fill="#427819" stroke-width="1" stroke="#000000"/><text transform="scale(0.095)" x="2663" y="132" textLength="1272" lengthAdjust="spacingAndGlyphs">Makefile 0.25%</text></g><g transform="translate(15, 252)"><rect x="0.5" y="0.5" rx="2" width="15" height="15" fill="#8f14e9" stroke-width="1" stroke="#000000"/><text transform="scale(0.095)" x="263" y="132" textLength="1034" lengthAdjust="spacingAndGlyphs">Metal 0.15%</text><rect x="228.5" y="0.5" rx="2" width="15" height="15" fill="#C1F12E" stroke-width="1" stroke="#000000"/><text transform="scale(0.095)" x="2663" y="132" textLength="1304" lengthAdjust="spacingAndGlyphs">Batchfile 0.15%</text></g><g transform="translate(15, 273)"><rect x="0.5" y="0.5" rx="2" width="15" height="15" fill="#5686a5" stroke-width="1" stroke="#000000"/><text transform="scale(0.095)" x="263" y="132" textLength="993" lengthAdjust="spacingAndGlyphs">GLSL 0.12%</text><rect x="228.5" y="0.5" rx="2" width="15" height="15" fill="#DA3434" stroke-width="1" stroke="#000000"/><text transform="scale(0.095)" x="2663" y="132" textLength="1134" lengthAdjust="spacingAndGlyphs">CMake 0.11%</text></g><g transform="translate(15, 294)"><rect x="0.5" y="0.5" rx="2" width="15" height="15" fill="#e34c26" stroke-width="1" stroke="#000000"/><text transform="scale(0.095)" x="263" y="132" textLength="1036" lengthAdjust="spacingAndGlyphs">HTML 0.06%</text><rect x="228.5" y="0.5" rx="2" width="15" height="15" fill="#701516" stroke-width="1" stroke="#000000"/><text transform="scale(0.095)" x="2663" y="132" textLength="999" lengthAdjust="spacingAndGlyphs">Ruby 0.03%</text></g></g></g></svg>