<svg width="457" height="396" viewBox="0 0 457 396" xmlns="http://www.w3.org/2000/svg" lang="en" xml:lang="en"><rect x="2" y="2" stroke-width="4" rx="0" width="453" height="392" stroke="#ffffff" fill="#ffffff"/><g font-weight="600" font-size="110pt" font-family="Verdana,Geneva,DejaVu Sans,sans-serif" text-rendering="geometricPrecision"><text x="895" y="301" lengthAdjust="spacingAndGlyphs" textLength="1917" transform="scale(0.123)" fill="#0969da">Rinc's GitHub Statistics</text><g transform="translate(0, 60)" fill="#24292f"><g transform="translate(15, 0)"><g transform="scale(0.095)"><text x="0" y="132" textLength="3652" lengthAdjust="spacingAndGlyphs">Language Distribution in Public Repositories</text></g></g><g transform="translate(243, 21)"><circle cx="92" cy="92" r="92" fill="#000000"/></g><g transform="translate(244, 22)"><path fill-rule="evenodd" fill="#f34b7d" d="M 0.0,91.00000000000001 A 91 91 0 0 1 174.29916672790517 54.36328586736169 L 91,91 Z"/><path fill-rule="evenodd" fill="#438eff" d="M 174.29916672790517,54.36328586736169 A 91 91 0 0 1 165.42969059018026 143.35667253225733 L 91,91 Z"/><path fill-rule="evenodd" fill="#555555" d="M 165.42969059018026,143.35667253225733 A 91 91 0 0 1 126.39980470761839 174.83229584511258 L 91,91 Z"/><path fill-rule="evenodd" fill="#b07219" d="M 126.39980470761839,174.83229584511258 A 91 91 0 0 1 89.96714577027917 181.99413833945653 L 91,91 Z"/><path fill-rule="evenodd" fill="#00ADD8" d="M 89.96714577027917,181.99413833945653 A 91 91 0 0 1 60.56261365769303 176.7587634743479 L 91,91 Z"/><path fill-rule="evenodd" fill="#A97BFF" d="M 60.56261365769303,176.7587634743479 A 91 91 0 0 1 35.669354943526216 163.2462436230045 L 91,91 Z"/><path fill-rule="evenodd" fill="#000080" d="M 35.669354943526216,163.2462436230045 A 91 91 0 0 1 20.052181194542626 147.98602466173605 L 91,91 Z"/><path fill-rule="evenodd" fill="#f1e05a" d="M 20.052181194542626,147.98602466173605 A 91 91 0 0 1 11.39589931193808 135.09293768445121 L 91,91 Z"/><path fill-rule="evenodd" fill="#3178c6" d="M 11.39589931193808,135.09293768445121 A 91 91 0 0 1 6.593023137899792 125.0067972176281 L 91,91 Z"/><path fill-rule="evenodd" fill="#6866fb" d="M 6.593023137899792,125.0067972176281 A 91 91 0 0 1 3.5949207564786008 116.32493084756095 L 91,91 Z"/><path fill-rule="evenodd" fill="#DA3434" d="M 3.5949207564786008,116.32493084756095 A 91 91 0 0 1 1.532951619222473 107.63271637561385 L 91,91 Z"/><path fill-rule="evenodd" fill="#89e051" d="M 1.532951619222473,107.63271637561385 A 91 91 0 0 1 0.526775875408191 100.77730619861005 L 91,91 Z"/><path fill-rule="evenodd" fill="#dea584" d="M 0.526775875408191,100.77730619861005 A 91 91 0 0 1 0.09802053096265695 95.22257369511928 L 91,91 Z"/><path fill-rule="evenodd" fill="#427819" d="M 0.09802053096265695,95.22257369511928 A 91 91 0 0 1 0.03800663332270915 93.62978378589486 L 91,91 Z"/><path fill-rule="evenodd" fill="#8f14e9" d="M 0.03800663332270915,93.62978378589486 A 91 91 0 0 1 0.015710413500642062 92.69087209451945 L 91,91 Z"/><path fill-rule="evenodd" fill="#5686a5" d="M 0.015710413500642062,92.69087209451945 A 91 91 0 0 1 0.0049386051002358045 91.94805154839914 L 91,91 Z"/><path fill-rule="evenodd" fill="#C1F12E" d="M 0.0049386051002358045,91.94805154839914 A 91 91 0 0 1 0.0014020255356115285 91.50514025953699 L 91,91 Z"/><path fill-rule="evenodd" fill="#e34c26" d="M 0.0014020255356115285,91.50514025953699 A 91 91 0 0 1 0.00014194092932484637 91.1607271880853 L 91,91 Z"/><path fill-rule="evenodd" fill="#701516" d="M 0.00014194092932484637,91.1607271880853 A 91 91 0 0 1 0.0 91.00000000000003 L 91,91 Z"/></g><g transform="translate(15, 21)"><rect x="0.5" y="0.5" rx="2" width="15" height="15" fill="#f34b7d" stroke-width="1" stroke="#000000"/><text transform="scale(0.095)" x="263" y="132" textLength="1074" lengthAdjust="spacingAndGlyphs">C++ 43.41%</text></g><g transform="translate(15, 42)"><rect x="0.5" y="0.5" rx="2" width="15" height="15" fill="#438eff" stroke-width="1" stroke="#000000"/><text transform="scale(0.095)" x="263" y="132" textLength="1642" lengthAdjust="spacingAndGlyphs">Objective-C 16.35%</text></g><g transform="translate(15, 63)"><rect x="0.5" y="0.5" rx="2" width="15" height="15" fill="#555555" stroke-width="1" stroke="#000000"/><text transform="scale(0.095)" x="263" y="132" textLength="693" lengthAdjust="spacingAndGlyphs">C 8.88%</text></g><g transform="translate(15, 84)"><rect x="0.5" y="0.5" rx="2" width="15" height="15" fill="#b07219" stroke-width="1" stroke="#000000"/><text transform="scale(0.095)" x="263" y="132" textLength="933" lengthAdjust="spacingAndGlyphs">Java 6.54%</text></g><g transform="translate(15, 105)"><rect x="0.5" y="0.5" rx="2" width="15" height="15" fill="#00ADD8" stroke-width="1" stroke="#000000"/><text transform="scale(0.095)" x="263" y="132" textLength="806" lengthAdjust="spacingAndGlyphs">Go 5.25%</text></g><g transform="translate(15, 126)"><rect x="0.5" y="0.5" rx="2" width="15" height="15" fill="#A97BFF" stroke-width="1" stroke="#000000"/><text transform="scale(0.095)" x="263" y="132" textLength="1048" lengthAdjust="spacingAndGlyphs">Kotlin 4.97%</text></g><g transform="translate(15, 147)"><rect x="0.5" y="0.5" rx="2" width="15" height="15" fill="#000080" stroke-width="1" stroke="#000000"/><text transform="scale(0.095)" x="263" y="132" textLength="874" lengthAdjust="spacingAndGlyphs">Lua 3.83%</text></g><g transform="translate(15, 168)"><rect x="0.5" y="0.5" rx="2" width="15" height="15" fill="#f1e05a" stroke-width="1" stroke="#000000"/><text transform="scale(0.095)" x="263" y="132" textLength="1412" lengthAdjust="spacingAndGlyphs">JavaScript 2.72%</text></g><g transform="translate(15, 189)"><rect x="0.5" y="0.5" rx="2" width="15" height="15" fill="#3178c6" stroke-width="1" stroke="#000000"/><text transform="scale(0.095)" x="263" y="132" textLength="1462" lengthAdjust="spacingAndGlyphs">TypeScript 1.96%</text></g><g transform="translate(15, 210)"><rect x="0.5" y="0.5" rx="2" width="15" height="15" fill="#6866fb" stroke-width="1" stroke="#000000"/><text transform="scale(0.095)" x="263" y="132" textLength="1814" lengthAdjust="spacingAndGlyphs">Objective-C++ 1.61%</text><rect x="228.5" y="0.5" rx="2" width="15" height="15" fill="#DA3434" stroke-width="1" stroke="#000000"/><text transform="scale(0.095)" x="2663" y="132" textLength="1134" lengthAdjust="spacingAndGlyphs">CMake 1.56%</text></g><g transform="translate(15, 231)"><rect x="0.5" y="0.5" rx="2" width="15" height="15" fill="#89e051" stroke-width="1" stroke="#000000"/><text transform="scale(0.095)" x="263" y="132" textLength="982" lengthAdjust="spacingAndGlyphs">Shell 1.21%</text><rect x="228.5" y="0.5" rx="2" width="15" height="15" fill="#dea584" stroke-width="1" stroke="#000000"/><text transform="scale(0.095)" x="2663" y="132" textLength="946" lengthAdjust="spacingAndGlyphs">Rust 0.97%</text></g><g transform="translate(15, 252)"><rect x="0.5" y="0.5" rx="2" width="15" height="15" fill="#427819" stroke-width="1" stroke="#000000"/><text transform="scale(0.095)" x="263" y="132" textLength="1272" lengthAdjust="spacingAndGlyphs">Makefile 0.28%</text><rect x="228.5" y="0.5" rx="2" width="15" height="15" fill="#8f14e9" stroke-width="1" stroke="#000000"/><text transform="scale(0.095)" x="2663" y="132" textLength="1034" lengthAdjust="spacingAndGlyphs">Metal 0.16%</text></g><g transform="translate(15, 273)"><rect x="0.5" y="0.5" rx="2" width="15" height="15" fill="#5686a5" stroke-width="1" stroke="#000000"/><text transform="scale(0.095)" x="263" y="132" textLength="993" lengthAdjust="spacingAndGlyphs">GLSL 0.13%</text><rect x="228.5" y="0.5" rx="2" width="15" height="15" fill="#C1F12E" stroke-width="1" stroke="#000000"/><text transform="scale(0.095)" x="2663" y="132" textLength="1304" lengthAdjust="spacingAndGlyphs">Batchfile 0.08%</text></g><g transform="translate(15, 294)"><rect x="0.5" y="0.5" rx="2" width="15" height="15" fill="#e34c26" stroke-width="1" stroke="#000000"/><text transform="scale(0.095)" x="263" y="132" textLength="1036" lengthAdjust="spacingAndGlyphs">HTML 0.06%</text><rect x="228.5" y="0.5" rx="2" width="15" height="15" fill="#701516" stroke-width="1" stroke="#000000"/><text transform="scale(0.095)" x="2663" y="132" textLength="999" lengthAdjust="spacingAndGlyphs">Ruby 0.03%</text></g></g></g></svg>