<svg width="457" height="354" viewBox="0 0 457 354" xmlns="http://www.w3.org/2000/svg" lang="en" xml:lang="en"><rect x="2" y="2" stroke-width="4" rx="0" width="453" height="350" stroke="#ffffff" fill="#ffffff"/><g font-weight="600" font-size="110pt" font-family="Verdana,Geneva,DejaVu Sans,sans-serif" text-rendering="geometricPrecision"><text x="946" y="301" lengthAdjust="spacingAndGlyphs" textLength="1816" transform="scale(0.123)" fill="#0969da">~#./code-lang-stat.sh</text><g transform="translate(0, 60)" fill="#24292f"><g transform="translate(15, 0)"><g transform="scale(0.095)"><text x="0" y="132" textLength="3652" lengthAdjust="spacingAndGlyphs">Language Distribution in Public Repositories</text></g></g><g transform="translate(243, 21)"><circle cx="92" cy="92" r="92" fill="#000000"/></g><g transform="translate(244, 22)"><path fill-rule="evenodd" fill="#f34b7d" d="M 0.0,91.00000000000001 A 91 91 0 0 1 179.44987938606272 69.60797259278696 L 91,91 Z"/><path fill-rule="evenodd" fill="#438eff" d="M 179.44987938606272,69.60797259278696 A 91 91 0 0 1 161.03406048303788 149.10533858655495 L 91,91 Z"/><path fill-rule="evenodd" fill="#555555" d="M 161.03406048303788,149.10533858655495 A 91 91 0 0 1 125.83589235449753 175.0681902021559 L 91,91 Z"/><path fill-rule="evenodd" fill="#dea584" d="M 125.83589235449753,175.0681902021559 A 91 91 0 0 1 85.11363702945148 181.8094198361544 L 91,91 Z"/><path fill-rule="evenodd" fill="#b07219" d="M 85.11363702945148,181.8094198361544 A 91 91 0 0 1 52.59143604397105 173.49716488968352 L 91,91 Z"/><path fill-rule="evenodd" fill="#00ADD8" d="M 52.59143604397105,173.49716488968352 A 91 91 0 0 1 30.084005237595306 158.60356190399057 L 91,91 Z"/><path fill-rule="evenodd" fill="#A97BFF" d="M 30.084005237595306,158.60356190399057 A 91 91 0 0 1 13.72148873385379 139.05238491987794 L 91,91 Z"/><path fill-rule="evenodd" fill="#000080" d="M 13.72148873385379,139.05238491987794 A 91 91 0 0 1 6.764406117380517 125.42912608885678 L 91,91 Z"/><path fill-rule="evenodd" fill="#f1e05a" d="M 6.764406117380517,125.42912608885678 A 91 91 0 0 1 2.288660477096613 111.28048914726068 L 91,91 Z"/><path fill-rule="evenodd" fill="#3178c6" d="M 2.288660477096613,111.28048914726068 A 91 91 0 0 1 0.6267646046416218 101.6620037598541 L 91,91 Z"/><path fill-rule="evenodd" fill="#6866fb" d="M 0.6267646046416218,101.6620037598541 A 91 91 0 0 1 0.018353324496189316 92.82755799190788 L 91,91 Z"/><path fill-rule="evenodd" fill="#8f14e9" d="M 0.018353324496189316,92.82755799190788 A 91 91 0 0 1 0.005273769367903469 91.97969291735511 L 91,91 Z"/><path fill-rule="evenodd" fill="#5686a5" d="M 0.005273769367903469,91.97969291735511 A 91 91 0 0 1 0.0005244856529174058 91.30895972835495 L 91,91 Z"/><path fill-rule="evenodd" fill="#e34c26" d="M 0.0005244856529174058,91.30895972835495 A 91 91 0 0 1 0.0 91.00000000000003 L 91,91 Z"/></g><g transform="translate(15, 21)"><rect x="0.5" y="0.5" rx="2" width="15" height="15" fill="#f34b7d" stroke-width="1" stroke="#000000"/><text transform="scale(0.095)" x="263" y="132" textLength="1074" lengthAdjust="spacingAndGlyphs">C++ 46.22%</text></g><g transform="translate(15, 42)"><rect x="0.5" y="0.5" rx="2" width="15" height="15" fill="#438eff" stroke-width="1" stroke="#000000"/><text transform="scale(0.095)" x="263" y="132" textLength="1642" lengthAdjust="spacingAndGlyphs">Objective-C 14.80%</text></g><g transform="translate(15, 63)"><rect x="0.5" y="0.5" rx="2" width="15" height="15" fill="#555555" stroke-width="1" stroke="#000000"/><text transform="scale(0.095)" x="263" y="132" textLength="693" lengthAdjust="spacingAndGlyphs">C 7.73%</text></g><g transform="translate(15, 84)"><rect x="0.5" y="0.5" rx="2" width="15" height="15" fill="#dea584" stroke-width="1" stroke="#000000"/><text transform="scale(0.095)" x="263" y="132" textLength="946" lengthAdjust="spacingAndGlyphs">Rust 7.28%</text></g><g transform="translate(15, 105)"><rect x="0.5" y="0.5" rx="2" width="15" height="15" fill="#b07219" stroke-width="1" stroke="#000000"/><text transform="scale(0.095)" x="263" y="132" textLength="933" lengthAdjust="spacingAndGlyphs">Java 5.90%</text></g><g transform="translate(15, 126)"><rect x="0.5" y="0.5" rx="2" width="15" height="15" fill="#00ADD8" stroke-width="1" stroke="#000000"/><text transform="scale(0.095)" x="263" y="132" textLength="806" lengthAdjust="spacingAndGlyphs">Go 4.74%</text></g><g transform="translate(15, 147)"><rect x="0.5" y="0.5" rx="2" width="15" height="15" fill="#A97BFF" stroke-width="1" stroke="#000000"/><text transform="scale(0.095)" x="263" y="132" textLength="1048" lengthAdjust="spacingAndGlyphs">Kotlin 4.47%</text></g><g transform="translate(15, 168)"><rect x="0.5" y="0.5" rx="2" width="15" height="15" fill="#000080" stroke-width="1" stroke="#000000"/><text transform="scale(0.095)" x="263" y="132" textLength="874" lengthAdjust="spacingAndGlyphs">Lua 2.68%</text></g><g transform="translate(15, 189)"><rect x="0.5" y="0.5" rx="2" width="15" height="15" fill="#f1e05a" stroke-width="1" stroke="#000000"/><text transform="scale(0.095)" x="263" y="132" textLength="1412" lengthAdjust="spacingAndGlyphs">JavaScript 2.60%</text></g><g transform="translate(15, 210)"><rect x="0.5" y="0.5" rx="2" width="15" height="15" fill="#3178c6" stroke-width="1" stroke="#000000"/><text transform="scale(0.095)" x="263" y="132" textLength="1462" lengthAdjust="spacingAndGlyphs">TypeScript 1.71%</text><rect x="228.5" y="0.5" rx="2" width="15" height="15" fill="#6866fb" stroke-width="1" stroke="#000000"/><text transform="scale(0.095)" x="2663" y="132" textLength="1814" lengthAdjust="spacingAndGlyphs">Objective-C++ 1.55%</text></g><g transform="translate(15, 231)"><rect x="0.5" y="0.5" rx="2" width="15" height="15" fill="#8f14e9" stroke-width="1" stroke="#000000"/><text transform="scale(0.095)" x="263" y="132" textLength="1034" lengthAdjust="spacingAndGlyphs">Metal 0.15%</text><rect x="228.5" y="0.5" rx="2" width="15" height="15" fill="#5686a5" stroke-width="1" stroke="#000000"/><text transform="scale(0.095)" x="2663" y="132" textLength="993" lengthAdjust="spacingAndGlyphs">GLSL 0.12%</text></g><g transform="translate(15, 252)"><rect x="0.5" y="0.5" rx="2" width="15" height="15" fill="#e34c26" stroke-width="1" stroke="#000000"/><text transform="scale(0.095)" x="263" y="132" textLength="1036" lengthAdjust="spacingAndGlyphs">HTML 0.05%</text></g></g></g></svg>