<svg width="457" height="354" viewBox="0 0 457 354" xmlns="http://www.w3.org/2000/svg" lang="en" xml:lang="en"><rect x="2" y="2" stroke-width="4" rx="0" width="453" height="350" stroke="#ffffff" fill="#ffffff"/><g font-weight="600" font-size="110pt" font-family="Verdana,Geneva,DejaVu Sans,sans-serif" text-rendering="geometricPrecision"><text x="1828" y="301" lengthAdjust="spacingAndGlyphs" textLength="52" transform="scale(0.123)" fill="#0969da">.</text><g transform="translate(0, 60)" fill="#24292f"><g transform="translate(15, 0)"><g transform="scale(0.095)"><text x="0" y="132" textLength="3652" lengthAdjust="spacingAndGlyphs">Language Distribution in Public Repositories</text></g></g><g transform="translate(243, 21)"><circle cx="92" cy="92" r="92" fill="#000000"/></g><g transform="translate(244, 22)"><path fill-rule="evenodd" fill="#f34b7d" d="M 0.0,91.00000000000001 A 91 91 0 1 1 181.86651937142415 95.92703331860105 L 91,91 Z"/><path fill-rule="evenodd" fill="#438eff" d="M 181.86651937142415,95.92703331860105 A 91 91 0 0 1 150.6683970259848 159.70722230122135 L 91,91 Z"/><path fill-rule="evenodd" fill="#555555" d="M 150.6683970259848,159.70722230122135 A 91 91 0 0 1 116.16453988125552 178.4513918274872 L 91,91 Z"/><path fill-rule="evenodd" fill="#dea584" d="M 116.16453988125552,178.4513918274872 A 91 91 0 0 1 79.64292194168686 181.28851963554052 L 91,91 Z"/><path fill-rule="evenodd" fill="#b07219" d="M 79.64292194168686,181.28851963554052 A 91 91 0 0 1 51.110284355566336 172.7912622827538 L 91,91 Z"/><path fill-rule="evenodd" fill="#00ADD8" d="M 51.110284355566336,172.7912622827538 A 91 91 0 0 1 31.17097756205915 159.56739804105425 L 91,91 Z"/><path fill-rule="evenodd" fill="#A97BFF" d="M 31.17097756205915,159.56739804105425 A 91 91 0 0 1 18.804688264859166 146.39708443109473 L 91,91 Z"/><path fill-rule="evenodd" fill="#000080" d="M 18.804688264859166,146.39708443109473 A 91 91 0 0 1 9.522499962511574 131.5267441036296 L 91,91 Z"/><path fill-rule="evenodd" fill="#f1e05a" d="M 9.522499962511574,131.5267441036296 A 91 91 0 0 1 3.3305646899157466 115.39405895727383 L 91,91 Z"/><path fill-rule="evenodd" fill="#DA3434" d="M 3.3305646899157466,115.39405895727383 A 91 91 0 0 1 0.6015375089418029 101.44595516229816 L 91,91 Z"/><path fill-rule="evenodd" fill="#6866fb" d="M 0.6015375089418029,101.44595516229816 A 91 91 0 0 1 0.019754991309298475 92.89605331112026 L 91,91 Z"/><path fill-rule="evenodd" fill="#8f14e9" d="M 0.019754991309298475,92.89605331112026 A 91 91 0 0 1 0.00720409093916885 92.14502954197829 L 91,91 Z"/><path fill-rule="evenodd" fill="#5686a5" d="M 0.00720409093916885,92.14502954197829 A 91 91 0 0 1 0.0016675765500906437 91.55090484777817 L 91,91 Z"/><path fill-rule="evenodd" fill="#959da5" d="M 0.0016675765500906437,91.55090484777817 A 91 91 0 0 1 0.0 91.00000000000003 L 91,91 Z"/></g><g transform="translate(15, 21)"><rect x="0.5" y="0.5" rx="2" width="15" height="15" fill="#f34b7d" stroke-width="1" stroke="#000000"/><text transform="scale(0.095)" x="263" y="132" textLength="1074" lengthAdjust="spacingAndGlyphs">C++ 50.86%</text></g><g transform="translate(15, 42)"><rect x="0.5" y="0.5" rx="2" width="15" height="15" fill="#438eff" stroke-width="1" stroke="#000000"/><text transform="scale(0.095)" x="263" y="132" textLength="1642" lengthAdjust="spacingAndGlyphs">Objective-C 12.76%</text></g><g transform="translate(15, 63)"><rect x="0.5" y="0.5" rx="2" width="15" height="15" fill="#555555" stroke-width="1" stroke="#000000"/><text transform="scale(0.095)" x="263" y="132" textLength="693" lengthAdjust="spacingAndGlyphs">C 6.92%</text></g><g transform="translate(15, 84)"><rect x="0.5" y="0.5" rx="2" width="15" height="15" fill="#dea584" stroke-width="1" stroke="#000000"/><text transform="scale(0.095)" x="263" y="132" textLength="946" lengthAdjust="spacingAndGlyphs">Rust 6.45%</text></g><g transform="translate(15, 105)"><rect x="0.5" y="0.5" rx="2" width="15" height="15" fill="#b07219" stroke-width="1" stroke="#000000"/><text transform="scale(0.095)" x="263" y="132" textLength="933" lengthAdjust="spacingAndGlyphs">Java 5.23%</text></g><g transform="translate(15, 126)"><rect x="0.5" y="0.5" rx="2" width="15" height="15" fill="#00ADD8" stroke-width="1" stroke="#000000"/><text transform="scale(0.095)" x="263" y="132" textLength="806" lengthAdjust="spacingAndGlyphs">Go 4.20%</text></g><g transform="translate(15, 147)"><rect x="0.5" y="0.5" rx="2" width="15" height="15" fill="#A97BFF" stroke-width="1" stroke="#000000"/><text transform="scale(0.095)" x="263" y="132" textLength="1048" lengthAdjust="spacingAndGlyphs">Kotlin 3.16%</text></g><g transform="translate(15, 168)"><rect x="0.5" y="0.5" rx="2" width="15" height="15" fill="#000080" stroke-width="1" stroke="#000000"/><text transform="scale(0.095)" x="263" y="132" textLength="874" lengthAdjust="spacingAndGlyphs">Lua 3.07%</text></g><g transform="translate(15, 189)"><rect x="0.5" y="0.5" rx="2" width="15" height="15" fill="#f1e05a" stroke-width="1" stroke="#000000"/><text transform="scale(0.095)" x="263" y="132" textLength="1412" lengthAdjust="spacingAndGlyphs">JavaScript 3.03%</text></g><g transform="translate(15, 210)"><rect x="0.5" y="0.5" rx="2" width="15" height="15" fill="#DA3434" stroke-width="1" stroke="#000000"/><text transform="scale(0.095)" x="263" y="132" textLength="1134" lengthAdjust="spacingAndGlyphs">CMake 2.49%</text><rect x="228.5" y="0.5" rx="2" width="15" height="15" fill="#6866fb" stroke-width="1" stroke="#000000"/><text transform="scale(0.095)" x="2663" y="132" textLength="1814" lengthAdjust="spacingAndGlyphs">Objective-C++ 1.50%</text></g><g transform="translate(15, 231)"><rect x="0.5" y="0.5" rx="2" width="15" height="15" fill="#8f14e9" stroke-width="1" stroke="#000000"/><text transform="scale(0.095)" x="263" y="132" textLength="1034" lengthAdjust="spacingAndGlyphs">Metal 0.13%</text><rect x="228.5" y="0.5" rx="2" width="15" height="15" fill="#5686a5" stroke-width="1" stroke="#000000"/><text transform="scale(0.095)" x="2663" y="132" textLength="993" lengthAdjust="spacingAndGlyphs">GLSL 0.10%</text></g><g transform="translate(15, 252)"><rect x="0.5" y="0.5" rx="2" width="15" height="15" fill="#959da5" stroke-width="1" stroke="#000000"/><text transform="scale(0.095)" x="263" y="132" textLength="1047" lengthAdjust="spacingAndGlyphs">Other 0.10%</text></g></g></g></svg>