<svg width="457" height="354" viewBox="0 0 457 354" xmlns="http://www.w3.org/2000/svg" lang="en" xml:lang="en"><rect x="2" y="2" stroke-width="4" rx="0" width="453" height="350" stroke="#ffffff" fill="#ffffff"/><g font-weight="600" font-size="110pt" font-family="Verdana,Geneva,DejaVu Sans,sans-serif" text-rendering="geometricPrecision"><text x="946" y="301" lengthAdjust="spacingAndGlyphs" textLength="1816" transform="scale(0.123)" fill="#0969da">~#./code-lang-stat.sh</text><g transform="translate(0, 60)" fill="#24292f"><g transform="translate(15, 0)"><g transform="scale(0.095)"><text x="0" y="132" textLength="3652" lengthAdjust="spacingAndGlyphs">Language Distribution in Public Repositories</text></g></g><g transform="translate(243, 21)"><circle cx="92" cy="92" r="92" fill="#000000"/></g><g transform="translate(244, 22)"><path fill-rule="evenodd" fill="#f34b7d" d="M 0.0,91.00000000000001 A 91 91 0 0 1 180.76809362877674 76.07721988853368 L 91,91 Z"/><path fill-rule="evenodd" fill="#438eff" d="M 180.76809362877674,76.07721988853368 A 91 91 0 0 1 157.9318551002379 152.65327868686919 L 91,91 Z"/><path fill-rule="evenodd" fill="#555555" d="M 157.9318551002379,152.65327868686919 A 91 91 0 0 1 122.19283797764727 176.48688120934258 L 91,91 Z"/><path fill-rule="evenodd" fill="#dea584" d="M 122.19283797764727,176.48688120934258 A 91 91 0 0 1 82.14384096599014 181.56803214801747 L 91,91 Z"/><path fill-rule="evenodd" fill="#b07219" d="M 82.14384096599014,181.56803214801747 A 91 91 0 0 1 50.58550038129273 172.53323384098974 L 91,91 Z"/><path fill-rule="evenodd" fill="#00ADD8" d="M 50.58550038129273,172.53323384098974 A 91 91 0 0 1 28.889886929717456 157.5081487819103 L 91,91 Z"/><path fill-rule="evenodd" fill="#A97BFF" d="M 28.889886929717456,157.5081487819103 A 91 91 0 0 1 13.146588278689308 138.11524470224137 L 91,91 Z"/><path fill-rule="evenodd" fill="#000080" d="M 13.146588278689308,138.11524470224137 A 91 91 0 0 1 6.480796042537733 124.72690561550073 L 91,91 Z"/><path fill-rule="evenodd" fill="#f1e05a" d="M 6.480796042537733,124.72690561550073 A 91 91 0 0 1 2.194807690516299 110.86549316970556 L 91,91 Z"/><path fill-rule="evenodd" fill="#3178c6" d="M 2.194807690516299,110.86549316970556 A 91 91 0 0 1 0.5991815047406703 101.42554628723016 L 91,91 Z"/><path fill-rule="evenodd" fill="#6866fb" d="M 0.5991815047406703,101.42554628723016 A 91 91 0 0 1 0.017542560284312003 92.78673955301957 L 91,91 Z"/><path fill-rule="evenodd" fill="#8f14e9" d="M 0.017542560284312003,92.78673955301957 A 91 91 0 0 1 0.0050407935178498064 91.95780948557059 L 91,91 Z"/><path fill-rule="evenodd" fill="#5686a5" d="M 0.0050407935178498064,91.95780948557059 A 91 91 0 0 1 0.0005013156016246967 91.3020582529538 L 91,91 Z"/><path fill-rule="evenodd" fill="#e34c26" d="M 0.0005013156016246967,91.3020582529538 A 91 91 0 0 1 0.0 91.00000000000003 L 91,91 Z"/></g><g transform="translate(15, 21)"><rect x="0.5" y="0.5" rx="2" width="15" height="15" fill="#f34b7d" stroke-width="1" stroke="#000000"/><text transform="scale(0.095)" x="263" y="132" textLength="1074" lengthAdjust="spacingAndGlyphs">C++ 47.38%</text></g><g transform="translate(15, 42)"><rect x="0.5" y="0.5" rx="2" width="15" height="15" fill="#438eff" stroke-width="1" stroke="#000000"/><text transform="scale(0.095)" x="263" y="132" textLength="1642" lengthAdjust="spacingAndGlyphs">Objective-C 14.47%</text></g><g transform="translate(15, 63)"><rect x="0.5" y="0.5" rx="2" width="15" height="15" fill="#555555" stroke-width="1" stroke="#000000"/><text transform="scale(0.095)" x="263" y="132" textLength="693" lengthAdjust="spacingAndGlyphs">C 7.58%</text></g><g transform="translate(15, 84)"><rect x="0.5" y="0.5" rx="2" width="15" height="15" fill="#dea584" stroke-width="1" stroke="#000000"/><text transform="scale(0.095)" x="263" y="132" textLength="946" lengthAdjust="spacingAndGlyphs">Rust 7.12%</text></g><g transform="translate(15, 105)"><rect x="0.5" y="0.5" rx="2" width="15" height="15" fill="#b07219" stroke-width="1" stroke="#000000"/><text transform="scale(0.095)" x="263" y="132" textLength="933" lengthAdjust="spacingAndGlyphs">Java 5.77%</text></g><g transform="translate(15, 126)"><rect x="0.5" y="0.5" rx="2" width="15" height="15" fill="#00ADD8" stroke-width="1" stroke="#000000"/><text transform="scale(0.095)" x="263" y="132" textLength="806" lengthAdjust="spacingAndGlyphs">Go 4.63%</text></g><g transform="translate(15, 147)"><rect x="0.5" y="0.5" rx="2" width="15" height="15" fill="#A97BFF" stroke-width="1" stroke="#000000"/><text transform="scale(0.095)" x="263" y="132" textLength="1048" lengthAdjust="spacingAndGlyphs">Kotlin 4.38%</text></g><g transform="translate(15, 168)"><rect x="0.5" y="0.5" rx="2" width="15" height="15" fill="#000080" stroke-width="1" stroke="#000000"/><text transform="scale(0.095)" x="263" y="132" textLength="874" lengthAdjust="spacingAndGlyphs">Lua 2.62%</text></g><g transform="translate(15, 189)"><rect x="0.5" y="0.5" rx="2" width="15" height="15" fill="#f1e05a" stroke-width="1" stroke="#000000"/><text transform="scale(0.095)" x="263" y="132" textLength="1412" lengthAdjust="spacingAndGlyphs">JavaScript 2.54%</text></g><g transform="translate(15, 210)"><rect x="0.5" y="0.5" rx="2" width="15" height="15" fill="#3178c6" stroke-width="1" stroke="#000000"/><text transform="scale(0.095)" x="263" y="132" textLength="1462" lengthAdjust="spacingAndGlyphs">TypeScript 1.68%</text><rect x="228.5" y="0.5" rx="2" width="15" height="15" fill="#6866fb" stroke-width="1" stroke="#000000"/><text transform="scale(0.095)" x="2663" y="132" textLength="1814" lengthAdjust="spacingAndGlyphs">Objective-C++ 1.51%</text></g><g transform="translate(15, 231)"><rect x="0.5" y="0.5" rx="2" width="15" height="15" fill="#8f14e9" stroke-width="1" stroke="#000000"/><text transform="scale(0.095)" x="263" y="132" textLength="1034" lengthAdjust="spacingAndGlyphs">Metal 0.14%</text><rect x="228.5" y="0.5" rx="2" width="15" height="15" fill="#5686a5" stroke-width="1" stroke="#000000"/><text transform="scale(0.095)" x="2663" y="132" textLength="993" lengthAdjust="spacingAndGlyphs">GLSL 0.11%</text></g><g transform="translate(15, 252)"><rect x="0.5" y="0.5" rx="2" width="15" height="15" fill="#e34c26" stroke-width="1" stroke="#000000"/><text transform="scale(0.095)" x="263" y="132" textLength="1036" lengthAdjust="spacingAndGlyphs">HTML 0.05%</text></g></g></g></svg>