<svg width="457" height="396" viewBox="0 0 457 396" xmlns="http://www.w3.org/2000/svg" lang="en" xml:lang="en"><rect x="2" y="2" stroke-width="4" rx="0" width="453" height="392" stroke="#ffffff" fill="#ffffff"/><g font-weight="600" font-size="110pt" font-family="Verdana,Geneva,DejaVu Sans,sans-serif" text-rendering="geometricPrecision"><text x="895" y="301" lengthAdjust="spacingAndGlyphs" textLength="1917" transform="scale(0.123)" fill="#0969da">Rinc's GitHub Statistics</text><g transform="translate(0, 60)" fill="#24292f"><g transform="translate(15, 0)"><g transform="scale(0.095)"><text x="0" y="132" textLength="3652" lengthAdjust="spacingAndGlyphs">Language Distribution in Public Repositories</text></g></g><g transform="translate(243, 21)"><circle cx="92" cy="92" r="92" fill="#000000"/></g><g transform="translate(244, 22)"><path fill-rule="evenodd" fill="#f34b7d" d="M 0.0,91.00000000000001 A 91 91 0 0 1 169.24640182134226 44.540333599851955 L 91,91 Z"/><path fill-rule="evenodd" fill="#438eff" d="M 169.24640182134226,44.540333599851955 A 91 91 0 0 1 174.67428043987474 126.77170380159708 L 91,91 Z"/><path fill-rule="evenodd" fill="#555555" d="M 174.67428043987474,126.77170380159708 A 91 91 0 0 1 146.4544751190906 163.15123830722632 L 91,91 Z"/><path fill-rule="evenodd" fill="#dea584" d="M 146.4544751190906,163.15123830722632 A 91 91 0 0 1 108.3381150914031 180.33302729157487 L 91,91 Z"/><path fill-rule="evenodd" fill="#b07219" d="M 108.3381150914031,180.33302729157487 A 91 91 0 0 1 74.33415418360654 180.46088297811622 L 91,91 Z"/><path fill-rule="evenodd" fill="#00ADD8" d="M 74.33415418360654,180.46088297811622 A 91 91 0 0 1 48.51243222838389 171.47239641549348 L 91,91 Z"/><path fill-rule="evenodd" fill="#A97BFF" d="M 48.51243222838389,171.47239641549348 A 91 91 0 0 1 27.54301760792586 156.2243159081948 L 91,91 Z"/><path fill-rule="evenodd" fill="#000080" d="M 27.54301760792586,156.2243159081948 A 91 91 0 0 1 14.837438722769136 140.8022515524354 L 91,91 Z"/><path fill-rule="evenodd" fill="#f1e05a" d="M 14.837438722769136,140.8022515524354 A 91 91 0 0 1 8.013531528068754 128.3396043170942 L 91,91 Z"/><path fill-rule="evenodd" fill="#3178c6" d="M 8.013531528068754,128.3396043170942 A 91 91 0 0 1 4.349936015454944 118.79867643385649 L 91,91 Z"/><path fill-rule="evenodd" fill="#6866fb" d="M 4.349936015454944,118.79867643385649 A 91 91 0 0 1 2.010821221457661 110.02435439957506 L 91,91 Z"/><path fill-rule="evenodd" fill="#DA3434" d="M 2.010821221457661,110.02435439957506 A 91 91 0 0 1 0.5868191760237664 101.31778722842132 L 91,91 Z"/><path fill-rule="evenodd" fill="#89e051" d="M 0.5868191760237664,101.31778722842132 A 91 91 0 0 1 0.08202516572369234 94.8628813124273 L 91,91 Z"/><path fill-rule="evenodd" fill="#427819" d="M 0.08202516572369234,94.8628813124273 A 91 91 0 0 1 0.031803994785718714 93.40568401019668 L 91,91 Z"/><path fill-rule="evenodd" fill="#8f14e9" d="M 0.031803994785718714,93.40568401019668 A 91 91 0 0 1 0.01314640458654992 92.5467620394873 L 91,91 Z"/><path fill-rule="evenodd" fill="#5686a5" d="M 0.01314640458654992,92.5467620394873 A 91 91 0 0 1 0.004132589615124971 91.8672451969633 L 91,91 Z"/><path fill-rule="evenodd" fill="#C1F12E" d="M 0.004132589615124971,91.8672451969633 A 91 91 0 0 1 0.001173203754063934 91.46208409065109 L 91,91 Z"/><path fill-rule="evenodd" fill="#e34c26" d="M 0.001173203754063934,91.46208409065109 A 91 91 0 0 1 0.00011877498960188859 91.14702732399202 L 91,91 Z"/><path fill-rule="evenodd" fill="#701516" d="M 0.00011877498960188859,91.14702732399202 A 91 91 0 0 1 0.0 91.00000000000003 L 91,91 Z"/></g><g transform="translate(15, 21)"><rect x="0.5" y="0.5" rx="2" width="15" height="15" fill="#f34b7d" stroke-width="1" stroke="#000000"/><text transform="scale(0.095)" x="263" y="132" textLength="1074" lengthAdjust="spacingAndGlyphs">C++ 41.47%</text></g><g transform="translate(15, 42)"><rect x="0.5" y="0.5" rx="2" width="15" height="15" fill="#438eff" stroke-width="1" stroke="#000000"/><text transform="scale(0.095)" x="263" y="132" textLength="1642" lengthAdjust="spacingAndGlyphs">Objective-C 14.96%</text></g><g transform="translate(15, 63)"><rect x="0.5" y="0.5" rx="2" width="15" height="15" fill="#555555" stroke-width="1" stroke="#000000"/><text transform="scale(0.095)" x="263" y="132" textLength="693" lengthAdjust="spacingAndGlyphs">C 8.14%</text></g><g transform="translate(15, 84)"><rect x="0.5" y="0.5" rx="2" width="15" height="15" fill="#dea584" stroke-width="1" stroke="#000000"/><text transform="scale(0.095)" x="263" y="132" textLength="946" lengthAdjust="spacingAndGlyphs">Rust 7.38%</text></g><g transform="translate(15, 105)"><rect x="0.5" y="0.5" rx="2" width="15" height="15" fill="#b07219" stroke-width="1" stroke="#000000"/><text transform="scale(0.095)" x="263" y="132" textLength="933" lengthAdjust="spacingAndGlyphs">Java 5.98%</text></g><g transform="translate(15, 126)"><rect x="0.5" y="0.5" rx="2" width="15" height="15" fill="#00ADD8" stroke-width="1" stroke="#000000"/><text transform="scale(0.095)" x="263" y="132" textLength="806" lengthAdjust="spacingAndGlyphs">Go 4.80%</text></g><g transform="translate(15, 147)"><rect x="0.5" y="0.5" rx="2" width="15" height="15" fill="#A97BFF" stroke-width="1" stroke="#000000"/><text transform="scale(0.095)" x="263" y="132" textLength="1048" lengthAdjust="spacingAndGlyphs">Kotlin 4.55%</text></g><g transform="translate(15, 168)"><rect x="0.5" y="0.5" rx="2" width="15" height="15" fill="#000080" stroke-width="1" stroke="#000000"/><text transform="scale(0.095)" x="263" y="132" textLength="874" lengthAdjust="spacingAndGlyphs">Lua 3.50%</text></g><g transform="translate(15, 189)"><rect x="0.5" y="0.5" rx="2" width="15" height="15" fill="#f1e05a" stroke-width="1" stroke="#000000"/><text transform="scale(0.095)" x="263" y="132" textLength="1412" lengthAdjust="spacingAndGlyphs">JavaScript 2.49%</text></g><g transform="translate(15, 210)"><rect x="0.5" y="0.5" rx="2" width="15" height="15" fill="#3178c6" stroke-width="1" stroke="#000000"/><text transform="scale(0.095)" x="263" y="132" textLength="1462" lengthAdjust="spacingAndGlyphs">TypeScript 1.79%</text><rect x="228.5" y="0.5" rx="2" width="15" height="15" fill="#6866fb" stroke-width="1" stroke="#000000"/><text transform="scale(0.095)" x="2663" y="132" textLength="1814" lengthAdjust="spacingAndGlyphs">Objective-C++ 1.59%</text></g><g transform="translate(15, 231)"><rect x="0.5" y="0.5" rx="2" width="15" height="15" fill="#DA3434" stroke-width="1" stroke="#000000"/><text transform="scale(0.095)" x="263" y="132" textLength="1134" lengthAdjust="spacingAndGlyphs">CMake 1.54%</text><rect x="228.5" y="0.5" rx="2" width="15" height="15" fill="#89e051" stroke-width="1" stroke="#000000"/><text transform="scale(0.095)" x="2663" y="132" textLength="982" lengthAdjust="spacingAndGlyphs">Shell 1.13%</text></g><g transform="translate(15, 252)"><rect x="0.5" y="0.5" rx="2" width="15" height="15" fill="#427819" stroke-width="1" stroke="#000000"/><text transform="scale(0.095)" x="263" y="132" textLength="1272" lengthAdjust="spacingAndGlyphs">Makefile 0.26%</text><rect x="228.5" y="0.5" rx="2" width="15" height="15" fill="#8f14e9" stroke-width="1" stroke="#000000"/><text transform="scale(0.095)" x="2663" y="132" textLength="1034" lengthAdjust="spacingAndGlyphs">Metal 0.15%</text></g><g transform="translate(15, 273)"><rect x="0.5" y="0.5" rx="2" width="15" height="15" fill="#5686a5" stroke-width="1" stroke="#000000"/><text transform="scale(0.095)" x="263" y="132" textLength="993" lengthAdjust="spacingAndGlyphs">GLSL 0.12%</text><rect x="228.5" y="0.5" rx="2" width="15" height="15" fill="#C1F12E" stroke-width="1" stroke="#000000"/><text transform="scale(0.095)" x="2663" y="132" textLength="1304" lengthAdjust="spacingAndGlyphs">Batchfile 0.07%</text></g><g transform="translate(15, 294)"><rect x="0.5" y="0.5" rx="2" width="15" height="15" fill="#e34c26" stroke-width="1" stroke="#000000"/><text transform="scale(0.095)" x="263" y="132" textLength="1036" lengthAdjust="spacingAndGlyphs">HTML 0.06%</text><rect x="228.5" y="0.5" rx="2" width="15" height="15" fill="#701516" stroke-width="1" stroke="#000000"/><text transform="scale(0.095)" x="2663" y="132" textLength="999" lengthAdjust="spacingAndGlyphs">Ruby 0.03%</text></g></g></g></svg>