<svg width="457" height="333" viewBox="0 0 457 333" xmlns="http://www.w3.org/2000/svg" lang="en" xml:lang="en"><rect x="2" y="2" stroke-width="4" rx="0" width="453" height="329" stroke="#ffffff" fill="#ffffff"/><g font-weight="600" font-size="110pt" font-family="Verdana,Geneva,DejaVu Sans,sans-serif" text-rendering="geometricPrecision"><text x="1828" y="301" lengthAdjust="spacingAndGlyphs" textLength="52" transform="scale(0.123)" fill="#0969da">.</text><g transform="translate(0, 60)" fill="#24292f"><g transform="translate(15, 0)"><g transform="scale(0.095)"><text x="0" y="132" textLength="3652" lengthAdjust="spacingAndGlyphs">Language Distribution in Public Repositories</text></g></g><g transform="translate(243, 21)"><circle cx="92" cy="92" r="92" fill="#000000"/></g><g transform="translate(244, 22)"><path fill-rule="evenodd" fill="#f34b7d" d="M 0.0,91.00000000000001 A 91 91 0 1 1 176.66270901802994 121.70668141776858 L 91,91 Z"/><path fill-rule="evenodd" fill="#438eff" d="M 176.66270901802994,121.70668141776858 A 91 91 0 0 1 131.34980919278544 172.56526771920636 L 91,91 Z"/><path fill-rule="evenodd" fill="#555555" d="M 131.34980919278544,172.56526771920636 A 91 91 0 0 1 94.84276274247567 181.91882739292805 L 91,91 Z"/><path fill-rule="evenodd" fill="#dea584" d="M 94.84276274247567,181.91882739292805 A 91 91 0 0 1 60.051800667777876 176.57574982489518 L 91,91 Z"/><path fill-rule="evenodd" fill="#b07219" d="M 60.051800667777876,176.57574982489518 A 91 91 0 0 1 35.04497789440036 162.76374781992547 L 91,91 Z"/><path fill-rule="evenodd" fill="#00ADD8" d="M 35.04497789440036,162.76374781992547 A 91 91 0 0 1 18.866687028981957 146.47778978857357 L 91,91 Z"/><path fill-rule="evenodd" fill="#DA3434" d="M 18.866687028981957,146.47778978857357 A 91 91 0 0 1 10.054074322456813 132.57832507696352 L 91,91 Z"/><path fill-rule="evenodd" fill="#A97BFF" d="M 10.054074322456813,132.57832507696352 A 91 91 0 0 1 4.12398932365231 118.08429007677921 L 91,91 Z"/><path fill-rule="evenodd" fill="#000080" d="M 4.12398932365231,118.08429007677921 A 91 91 0 0 1 1.0871050770797126 105.02395545414689 L 91,91 Z"/><path fill-rule="evenodd" fill="#f1e05a" d="M 1.0871050770797126,105.02395545414689 A 91 91 0 0 1 0.09639722477800206 95.18748163991836 L 91,91 Z"/><path fill-rule="evenodd" fill="#6866fb" d="M 0.09639722477800206,95.18748163991836 A 91 91 0 0 1 0.009149504159253752 92.29039763001815 L 91,91 Z"/><path fill-rule="evenodd" fill="#8f14e9" d="M 0.009149504159253752,92.29039763001815 A 91 91 0 0 1 0.0017847237978969588 91.56992679001738 L 91,91 Z"/><path fill-rule="evenodd" fill="#5686a5" d="M 0.0017847237978969588,91.56992679001738 A 91 91 0 0 1 0.0 91.00000000000003 L 91,91 Z"/></g><g transform="translate(15, 21)"><rect x="0.5" y="0.5" rx="2" width="15" height="15" fill="#f34b7d" stroke-width="1" stroke="#000000"/><text transform="scale(0.095)" x="263" y="132" textLength="1074" lengthAdjust="spacingAndGlyphs">C++ 55.48%</text></g><g transform="translate(15, 42)"><rect x="0.5" y="0.5" rx="2" width="15" height="15" fill="#438eff" stroke-width="1" stroke="#000000"/><text transform="scale(0.095)" x="263" y="132" textLength="1642" lengthAdjust="spacingAndGlyphs">Objective-C 12.21%</text></g><g transform="translate(15, 63)"><rect x="0.5" y="0.5" rx="2" width="15" height="15" fill="#555555" stroke-width="1" stroke="#000000"/><text transform="scale(0.095)" x="263" y="132" textLength="693" lengthAdjust="spacingAndGlyphs">C 6.64%</text></g><g transform="translate(15, 84)"><rect x="0.5" y="0.5" rx="2" width="15" height="15" fill="#dea584" stroke-width="1" stroke="#000000"/><text transform="scale(0.095)" x="263" y="132" textLength="946" lengthAdjust="spacingAndGlyphs">Rust 6.20%</text></g><g transform="translate(15, 105)"><rect x="0.5" y="0.5" rx="2" width="15" height="15" fill="#b07219" stroke-width="1" stroke="#000000"/><text transform="scale(0.095)" x="263" y="132" textLength="933" lengthAdjust="spacingAndGlyphs">Java 5.02%</text></g><g transform="translate(15, 126)"><rect x="0.5" y="0.5" rx="2" width="15" height="15" fill="#00ADD8" stroke-width="1" stroke="#000000"/><text transform="scale(0.095)" x="263" y="132" textLength="806" lengthAdjust="spacingAndGlyphs">Go 4.03%</text></g><g transform="translate(15, 147)"><rect x="0.5" y="0.5" rx="2" width="15" height="15" fill="#DA3434" stroke-width="1" stroke="#000000"/><text transform="scale(0.095)" x="263" y="132" textLength="1134" lengthAdjust="spacingAndGlyphs">CMake 2.88%</text></g><g transform="translate(15, 168)"><rect x="0.5" y="0.5" rx="2" width="15" height="15" fill="#A97BFF" stroke-width="1" stroke="#000000"/><text transform="scale(0.095)" x="263" y="132" textLength="1048" lengthAdjust="spacingAndGlyphs">Kotlin 2.74%</text></g><g transform="translate(15, 189)"><rect x="0.5" y="0.5" rx="2" width="15" height="15" fill="#000080" stroke-width="1" stroke="#000000"/><text transform="scale(0.095)" x="263" y="132" textLength="874" lengthAdjust="spacingAndGlyphs">Lua 2.35%</text></g><g transform="translate(15, 210)"><rect x="0.5" y="0.5" rx="2" width="15" height="15" fill="#f1e05a" stroke-width="1" stroke="#000000"/><text transform="scale(0.095)" x="263" y="132" textLength="1412" lengthAdjust="spacingAndGlyphs">JavaScript 1.73%</text><rect x="228.5" y="0.5" rx="2" width="15" height="15" fill="#6866fb" stroke-width="1" stroke="#000000"/><text transform="scale(0.095)" x="2663" y="132" textLength="1814" lengthAdjust="spacingAndGlyphs">Objective-C++ 0.51%</text></g><g transform="translate(15, 231)"><rect x="0.5" y="0.5" rx="2" width="15" height="15" fill="#8f14e9" stroke-width="1" stroke="#000000"/><text transform="scale(0.095)" x="263" y="132" textLength="1034" lengthAdjust="spacingAndGlyphs">Metal 0.13%</text><rect x="228.5" y="0.5" rx="2" width="15" height="15" fill="#5686a5" stroke-width="1" stroke="#000000"/><text transform="scale(0.095)" x="2663" y="132" textLength="993" lengthAdjust="spacingAndGlyphs">GLSL 0.10%</text></g></g></g></svg>