<svg width="457" height="354" viewBox="0 0 457 354" xmlns="http://www.w3.org/2000/svg" lang="en" xml:lang="en"><rect x="2" y="2" stroke-width="4" rx="0" width="453" height="350" stroke="#ffffff" fill="#ffffff"/><g font-weight="600" font-size="110pt" font-family="Verdana,Geneva,DejaVu Sans,sans-serif" text-rendering="geometricPrecision"><text x="1828" y="301" lengthAdjust="spacingAndGlyphs" textLength="52" transform="scale(0.123)" fill="#0969da">.</text><g transform="translate(0, 60)" fill="#24292f"><g transform="translate(15, 0)"><g transform="scale(0.095)"><text x="0" y="132" textLength="3652" lengthAdjust="spacingAndGlyphs">Language Distribution in Public Repositories</text></g></g><g transform="translate(243, 21)"><circle cx="92" cy="92" r="92" fill="#000000"/></g><g transform="translate(244, 22)"><path fill-rule="evenodd" fill="#f34b7d" d="M 0.0,91.00000000000001 A 91 91 0 0 1 179.93225850227077 71.71131425717942 L 91,91 Z"/><path fill-rule="evenodd" fill="#438eff" d="M 179.93225850227077,71.71131425717942 A 91 91 0 0 1 165.13246598748282 143.77667559267732 L 91,91 Z"/><path fill-rule="evenodd" fill="#555555" d="M 165.13246598748282,143.77667559267732 A 91 91 0 0 1 135.63508923409674 170.301379616399 L 91,91 Z"/><path fill-rule="evenodd" fill="#dea584" d="M 135.63508923409674,170.301379616399 A 91 91 0 0 1 100.36714930943599 181.51660904947076 L 91,91 Z"/><path fill-rule="evenodd" fill="#b07219" d="M 100.36714930943599,181.51660904947076 A 91 91 0 0 1 70.34807678831007 179.62560616243178 L 91,91 Z"/><path fill-rule="evenodd" fill="#A97BFF" d="M 70.34807678831007,179.62560616243178 A 91 91 0 0 1 47.18094656904302 170.75519140729924 L 91,91 Z"/><path fill-rule="evenodd" fill="#00ADD8" d="M 47.18094656904302,170.75519140729924 A 91 91 0 0 1 27.728097422913628 156.4038710190436 L 91,91 Z"/><path fill-rule="evenodd" fill="#3178c6" d="M 27.728097422913628,156.4038710190436 A 91 91 0 0 1 12.809948960111498 137.55444037231712 L 91,91 Z"/><path fill-rule="evenodd" fill="#000080" d="M 12.809948960111498,137.55444037231712 A 91 91 0 0 1 6.709282728574678 125.29394963938452 L 91,91 Z"/><path fill-rule="evenodd" fill="#f1e05a" d="M 6.709282728574678,125.29394963938452 A 91 91 0 0 1 2.6141993879561625 112.65525918034763 L 91,91 Z"/><path fill-rule="evenodd" fill="#DA3434" d="M 2.6141993879561625,112.65525918034763 A 91 91 0 0 1 0.5820705024302697 101.27608998464447 L 91,91 Z"/><path fill-rule="evenodd" fill="#6866fb" d="M 0.5820705024302697,101.27608998464447 A 91 91 0 0 1 0.014702708090908345 92.63574958441721 L 91,91 Z"/><path fill-rule="evenodd" fill="#8f14e9" d="M 0.014702708090908345,92.63574958441721 A 91 91 0 0 1 0.004224756233170979 91.87686246690862 L 91,91 Z"/><path fill-rule="evenodd" fill="#959da5" d="M 0.004224756233170979,91.87686246690862 A 91 91 0 0 1 0.0 91.00000000000003 L 91,91 Z"/></g><g transform="translate(15, 21)"><rect x="0.5" y="0.5" rx="2" width="15" height="15" fill="#f34b7d" stroke-width="1" stroke="#000000"/><text transform="scale(0.095)" x="263" y="132" textLength="1074" lengthAdjust="spacingAndGlyphs">C++ 46.60%</text></g><g transform="translate(15, 42)"><rect x="0.5" y="0.5" rx="2" width="15" height="15" fill="#438eff" stroke-width="1" stroke="#000000"/><text transform="scale(0.095)" x="263" y="132" textLength="1642" lengthAdjust="spacingAndGlyphs">Objective-C 13.25%</text></g><g transform="translate(15, 63)"><rect x="0.5" y="0.5" rx="2" width="15" height="15" fill="#555555" stroke-width="1" stroke="#000000"/><text transform="scale(0.095)" x="263" y="132" textLength="693" lengthAdjust="spacingAndGlyphs">C 6.99%</text></g><g transform="translate(15, 84)"><rect x="0.5" y="0.5" rx="2" width="15" height="15" fill="#dea584" stroke-width="1" stroke="#000000"/><text transform="scale(0.095)" x="263" y="132" textLength="946" lengthAdjust="spacingAndGlyphs">Rust 6.52%</text></g><g transform="translate(15, 105)"><rect x="0.5" y="0.5" rx="2" width="15" height="15" fill="#b07219" stroke-width="1" stroke="#000000"/><text transform="scale(0.095)" x="263" y="132" textLength="933" lengthAdjust="spacingAndGlyphs">Java 5.28%</text></g><g transform="translate(15, 126)"><rect x="0.5" y="0.5" rx="2" width="15" height="15" fill="#A97BFF" stroke-width="1" stroke="#000000"/><text transform="scale(0.095)" x="263" y="132" textLength="1048" lengthAdjust="spacingAndGlyphs">Kotlin 4.35%</text></g><g transform="translate(15, 147)"><rect x="0.5" y="0.5" rx="2" width="15" height="15" fill="#00ADD8" stroke-width="1" stroke="#000000"/><text transform="scale(0.095)" x="263" y="132" textLength="806" lengthAdjust="spacingAndGlyphs">Go 4.24%</text></g><g transform="translate(15, 168)"><rect x="0.5" y="0.5" rx="2" width="15" height="15" fill="#3178c6" stroke-width="1" stroke="#000000"/><text transform="scale(0.095)" x="263" y="132" textLength="1462" lengthAdjust="spacingAndGlyphs">TypeScript 4.22%</text></g><g transform="translate(15, 189)"><rect x="0.5" y="0.5" rx="2" width="15" height="15" fill="#000080" stroke-width="1" stroke="#000000"/><text transform="scale(0.095)" x="263" y="132" textLength="874" lengthAdjust="spacingAndGlyphs">Lua 2.40%</text></g><g transform="translate(15, 210)"><rect x="0.5" y="0.5" rx="2" width="15" height="15" fill="#f1e05a" stroke-width="1" stroke="#000000"/><text transform="scale(0.095)" x="263" y="132" textLength="1412" lengthAdjust="spacingAndGlyphs">JavaScript 2.33%</text><rect x="228.5" y="0.5" rx="2" width="15" height="15" fill="#DA3434" stroke-width="1" stroke="#000000"/><text transform="scale(0.095)" x="2663" y="132" textLength="1134" lengthAdjust="spacingAndGlyphs">CMake 2.02%</text></g><g transform="translate(15, 231)"><rect x="0.5" y="0.5" rx="2" width="15" height="15" fill="#6866fb" stroke-width="1" stroke="#000000"/><text transform="scale(0.095)" x="263" y="132" textLength="1814" lengthAdjust="spacingAndGlyphs">Objective-C++ 1.51%</text><rect x="228.5" y="0.5" rx="2" width="15" height="15" fill="#8f14e9" stroke-width="1" stroke="#000000"/><text transform="scale(0.095)" x="2663" y="132" textLength="1034" lengthAdjust="spacingAndGlyphs">Metal 0.13%</text></g><g transform="translate(15, 252)"><rect x="0.5" y="0.5" rx="2" width="15" height="15" fill="#959da5" stroke-width="1" stroke="#000000"/><text transform="scale(0.095)" x="263" y="132" textLength="1047" lengthAdjust="spacingAndGlyphs">Other 0.15%</text></g></g></g></svg>