<svg width="457" height="396" viewBox="0 0 457 396" xmlns="http://www.w3.org/2000/svg" lang="en" xml:lang="en"><rect x="2" y="2" stroke-width="4" rx="0" width="453" height="392" stroke="#ffffff" fill="#ffffff"/><g font-weight="600" font-size="110pt" font-family="Verdana,Geneva,DejaVu Sans,sans-serif" text-rendering="geometricPrecision"><text x="895" y="301" lengthAdjust="spacingAndGlyphs" textLength="1917" transform="scale(0.123)" fill="#0969da">Rinc's GitHub Statistics</text><g transform="translate(0, 60)" fill="#24292f"><g transform="translate(15, 0)"><g transform="scale(0.095)"><text x="0" y="132" textLength="3652" lengthAdjust="spacingAndGlyphs">Language Distribution in Public Repositories</text></g></g><g transform="translate(243, 21)"><circle cx="92" cy="92" r="92" fill="#000000"/></g><g transform="translate(244, 22)"><path fill-rule="evenodd" fill="#f34b7d" d="M 0.0,91.00000000000001 A 91 91 0 0 1 168.55419357508146 43.393833814107715 L 91,91 Z"/><path fill-rule="evenodd" fill="#438eff" d="M 168.55419357508146,43.393833814107715 A 91 91 0 0 1 175.00181300191943 125.99564847792593 L 91,91 Z"/><path fill-rule="evenodd" fill="#555555" d="M 175.00181300191943,125.99564847792593 A 91 91 0 0 1 146.9068075843134 162.8013152089191 L 91,91 Z"/><path fill-rule="evenodd" fill="#dea584" d="M 146.9068075843134,162.8013152089191 A 91 91 0 0 1 108.65877870608003 180.27019398774542 L 91,91 Z"/><path fill-rule="evenodd" fill="#b07219" d="M 108.65877870608003,180.27019398774542 A 91 91 0 0 1 74.4600204404262 180.48423926127373 L 91,91 Z"/><path fill-rule="evenodd" fill="#00ADD8" d="M 74.4600204404262,180.48423926127373 A 91 91 0 0 1 48.48461948870683 171.45770578372188 L 91,91 Z"/><path fill-rule="evenodd" fill="#A97BFF" d="M 48.48461948870683,171.45770578372188 A 91 91 0 0 1 27.41225492512777 156.0968407550863 L 91,91 Z"/><path fill-rule="evenodd" fill="#000080" d="M 27.41225492512777,156.0968407550863 A 91 91 0 0 1 14.674239340866762 140.55177352834818 L 91,91 Z"/><path fill-rule="evenodd" fill="#f1e05a" d="M 14.674239340866762,140.55177352834818 A 91 91 0 0 1 7.857683243172573 127.99128497778057 L 91,91 Z"/><path fill-rule="evenodd" fill="#3178c6" d="M 7.857683243172573,127.99128497778057 A 91 91 0 0 1 4.216234277132671 118.37842228760596 L 91,91 Z"/><path fill-rule="evenodd" fill="#6866fb" d="M 4.216234277132671,118.37842228760596 A 91 91 0 0 1 1.9088995951284602 109.54119275152219 L 91,91 Z"/><path fill-rule="evenodd" fill="#DA3434" d="M 1.9088995951284602,109.54119275152219 A 91 91 0 0 1 0.5781325856094242 101.24138141533507 L 91,91 Z"/><path fill-rule="evenodd" fill="#89e051" d="M 0.5781325856094242,101.24138141533507 A 91 91 0 0 1 0.0829809920332849 94.88531269076489 L 91,91 Z"/><path fill-rule="evenodd" fill="#427819" d="M 0.0829809920332849,94.88531269076489 A 91 91 0 0 1 0.03217463621673744 93.41965877433776 L 91,91 Z"/><path fill-rule="evenodd" fill="#8f14e9" d="M 0.03217463621673744,93.41965877433776 A 91 91 0 0 1 0.013299617122029872 92.55574851322228 L 91,91 Z"/><path fill-rule="evenodd" fill="#5686a5" d="M 0.013299617122029872,92.55574851322228 A 91 91 0 0 1 0.004180752982094305 91.87228410741221 L 91,91 Z"/><path fill-rule="evenodd" fill="#C1F12E" d="M 0.004180752982094305,91.87228410741221 A 91 91 0 0 1 0.0011868769609577612 91.46476897294838 L 91,91 Z"/><path fill-rule="evenodd" fill="#e34c26" d="M 0.0011868769609577612,91.46476897294838 A 91 91 0 0 1 0.00012015926593278436 91.14788161467935 L 91,91 Z"/><path fill-rule="evenodd" fill="#701516" d="M 0.00012015926593278436,91.14788161467935 A 91 91 0 0 1 0.0 91.00000000000003 L 91,91 Z"/></g><g transform="translate(15, 21)"><rect x="0.5" y="0.5" rx="2" width="15" height="15" fill="#f34b7d" stroke-width="1" stroke="#000000"/><text transform="scale(0.095)" x="263" y="132" textLength="1074" lengthAdjust="spacingAndGlyphs">C++ 41.24%</text></g><g transform="translate(15, 42)"><rect x="0.5" y="0.5" rx="2" width="15" height="15" fill="#438eff" stroke-width="1" stroke="#000000"/><text transform="scale(0.095)" x="263" y="132" textLength="1642" lengthAdjust="spacingAndGlyphs">Objective-C 15.04%</text></g><g transform="translate(15, 63)"><rect x="0.5" y="0.5" rx="2" width="15" height="15" fill="#555555" stroke-width="1" stroke="#000000"/><text transform="scale(0.095)" x="263" y="132" textLength="693" lengthAdjust="spacingAndGlyphs">C 8.19%</text></g><g transform="translate(15, 84)"><rect x="0.5" y="0.5" rx="2" width="15" height="15" fill="#dea584" stroke-width="1" stroke="#000000"/><text transform="scale(0.095)" x="263" y="132" textLength="946" lengthAdjust="spacingAndGlyphs">Rust 7.42%</text></g><g transform="translate(15, 105)"><rect x="0.5" y="0.5" rx="2" width="15" height="15" fill="#b07219" stroke-width="1" stroke="#000000"/><text transform="scale(0.095)" x="263" y="132" textLength="933" lengthAdjust="spacingAndGlyphs">Java 6.02%</text></g><g transform="translate(15, 126)"><rect x="0.5" y="0.5" rx="2" width="15" height="15" fill="#00ADD8" stroke-width="1" stroke="#000000"/><text transform="scale(0.095)" x="263" y="132" textLength="806" lengthAdjust="spacingAndGlyphs">Go 4.83%</text></g><g transform="translate(15, 147)"><rect x="0.5" y="0.5" rx="2" width="15" height="15" fill="#A97BFF" stroke-width="1" stroke="#000000"/><text transform="scale(0.095)" x="263" y="132" textLength="1048" lengthAdjust="spacingAndGlyphs">Kotlin 4.58%</text></g><g transform="translate(15, 168)"><rect x="0.5" y="0.5" rx="2" width="15" height="15" fill="#000080" stroke-width="1" stroke="#000000"/><text transform="scale(0.095)" x="263" y="132" textLength="874" lengthAdjust="spacingAndGlyphs">Lua 3.52%</text></g><g transform="translate(15, 189)"><rect x="0.5" y="0.5" rx="2" width="15" height="15" fill="#f1e05a" stroke-width="1" stroke="#000000"/><text transform="scale(0.095)" x="263" y="132" textLength="1412" lengthAdjust="spacingAndGlyphs">JavaScript 2.50%</text></g><g transform="translate(15, 210)"><rect x="0.5" y="0.5" rx="2" width="15" height="15" fill="#3178c6" stroke-width="1" stroke="#000000"/><text transform="scale(0.095)" x="263" y="132" textLength="1462" lengthAdjust="spacingAndGlyphs">TypeScript 1.80%</text><rect x="228.5" y="0.5" rx="2" width="15" height="15" fill="#6866fb" stroke-width="1" stroke="#000000"/><text transform="scale(0.095)" x="2663" y="132" textLength="1814" lengthAdjust="spacingAndGlyphs">Objective-C++ 1.60%</text></g><g transform="translate(15, 231)"><rect x="0.5" y="0.5" rx="2" width="15" height="15" fill="#DA3434" stroke-width="1" stroke="#000000"/><text transform="scale(0.095)" x="263" y="132" textLength="1134" lengthAdjust="spacingAndGlyphs">CMake 1.47%</text><rect x="228.5" y="0.5" rx="2" width="15" height="15" fill="#89e051" stroke-width="1" stroke="#000000"/><text transform="scale(0.095)" x="2663" y="132" textLength="982" lengthAdjust="spacingAndGlyphs">Shell 1.12%</text></g><g transform="translate(15, 252)"><rect x="0.5" y="0.5" rx="2" width="15" height="15" fill="#427819" stroke-width="1" stroke="#000000"/><text transform="scale(0.095)" x="263" y="132" textLength="1272" lengthAdjust="spacingAndGlyphs">Makefile 0.26%</text><rect x="228.5" y="0.5" rx="2" width="15" height="15" fill="#8f14e9" stroke-width="1" stroke="#000000"/><text transform="scale(0.095)" x="2663" y="132" textLength="1034" lengthAdjust="spacingAndGlyphs">Metal 0.15%</text></g><g transform="translate(15, 273)"><rect x="0.5" y="0.5" rx="2" width="15" height="15" fill="#5686a5" stroke-width="1" stroke="#000000"/><text transform="scale(0.095)" x="263" y="132" textLength="993" lengthAdjust="spacingAndGlyphs">GLSL 0.12%</text><rect x="228.5" y="0.5" rx="2" width="15" height="15" fill="#C1F12E" stroke-width="1" stroke="#000000"/><text transform="scale(0.095)" x="2663" y="132" textLength="1304" lengthAdjust="spacingAndGlyphs">Batchfile 0.07%</text></g><g transform="translate(15, 294)"><rect x="0.5" y="0.5" rx="2" width="15" height="15" fill="#e34c26" stroke-width="1" stroke="#000000"/><text transform="scale(0.095)" x="263" y="132" textLength="1036" lengthAdjust="spacingAndGlyphs">HTML 0.06%</text><rect x="228.5" y="0.5" rx="2" width="15" height="15" fill="#701516" stroke-width="1" stroke="#000000"/><text transform="scale(0.095)" x="2663" y="132" textLength="999" lengthAdjust="spacingAndGlyphs">Ruby 0.03%</text></g></g></g></svg>