<svg width="457" height="396" viewBox="0 0 457 396" xmlns="http://www.w3.org/2000/svg" lang="en" xml:lang="en"><rect x="2" y="2" stroke-width="4" rx="0" width="453" height="392" stroke="#ffffff" fill="#ffffff"/><g font-weight="600" font-size="110pt" font-family="Verdana,Geneva,DejaVu Sans,sans-serif" text-rendering="geometricPrecision"><text x="895" y="301" lengthAdjust="spacingAndGlyphs" textLength="1917" transform="scale(0.123)" fill="#0969da">Rinc's GitHub Statistics</text><g transform="translate(0, 60)" fill="#24292f"><g transform="translate(15, 0)"><g transform="scale(0.095)"><text x="0" y="132" textLength="3652" lengthAdjust="spacingAndGlyphs">Language Distribution in Public Repositories</text></g></g><g transform="translate(243, 21)"><circle cx="92" cy="92" r="92" fill="#000000"/></g><g transform="translate(244, 22)"><path fill-rule="evenodd" fill="#f34b7d" d="M 0.0,91.00000000000001 A 91 91 0 0 1 166.49513021047778 40.19168065657939 L 91,91 Z"/><path fill-rule="evenodd" fill="#438eff" d="M 166.49513021047778,40.19168065657939 A 91 91 0 0 1 175.96227356655018 123.59466321965436 L 91,91 Z"/><path fill-rule="evenodd" fill="#555555" d="M 175.96227356655018,123.59466321965436 A 91 91 0 0 1 148.4734910410028 161.55351038438675 L 91,91 Z"/><path fill-rule="evenodd" fill="#dea584" d="M 148.4734910410028,161.55351038438675 A 91 91 0 0 1 110.03050664237134 179.98786331255886 L 91,91 Z"/><path fill-rule="evenodd" fill="#b07219" d="M 110.03050664237134,179.98786331255886 A 91 91 0 0 1 75.35769280634658 180.64551425285805 L 91,91 Z"/><path fill-rule="evenodd" fill="#00ADD8" d="M 75.35769280634658,180.64551425285805 A 91 91 0 0 1 48.945186336565236 171.69939682385353 L 91,91 Z"/><path fill-rule="evenodd" fill="#A97BFF" d="M 48.945186336565236,171.69939682385353 A 91 91 0 0 1 27.518662223569144 156.2006116084404 L 91,91 Z"/><path fill-rule="evenodd" fill="#000080" d="M 27.518662223569144,156.2006116084404 A 91 91 0 0 1 14.599571607697314 140.43657089111895 L 91,91 Z"/><path fill-rule="evenodd" fill="#f1e05a" d="M 14.599571607697314,140.43657089111895 A 91 91 0 0 1 7.719898467177785 127.68003119795323 L 91,91 Z"/><path fill-rule="evenodd" fill="#3178c6" d="M 7.719898467177785,127.68003119795323 A 91 91 0 0 1 4.0711334510861406 117.91416282408068 L 91,91 Z"/><path fill-rule="evenodd" fill="#6866fb" d="M 4.0711334510861406,117.91416282408068 A 91 91 0 0 1 1.924498865057771 109.61599037276576 L 91,91 Z"/><path fill-rule="evenodd" fill="#DA3434" d="M 1.924498865057771,109.61599037276576 A 91 91 0 0 1 0.5946470509378656 101.38615223051846 L 91,91 Z"/><path fill-rule="evenodd" fill="#89e051" d="M 0.5946470509378656,101.38615223051846 A 91 91 0 0 1 0.08535357626944062 94.94043977850886 L 91,91 Z"/><path fill-rule="evenodd" fill="#427819" d="M 0.08535357626944062,94.94043977850886 A 91 91 0 0 1 0.03309465828725422 93.45400337242494 L 91,91 Z"/><path fill-rule="evenodd" fill="#8f14e9" d="M 0.03309465828725422,93.45400337242494 A 91 91 0 0 1 0.013679928382018147 92.57783390288283 L 91,91 Z"/><path fill-rule="evenodd" fill="#5686a5" d="M 0.013679928382018147,92.57783390288283 A 91 91 0 0 1 0.004300306404971366 91.88466788857222 L 91,91 Z"/><path fill-rule="evenodd" fill="#C1F12E" d="M 0.004300306404971366,91.88466788857222 A 91 91 0 0 1 0.001220817259294904 91.47136742653458 L 91,91 Z"/><path fill-rule="evenodd" fill="#e34c26" d="M 0.001220817259294904,91.47136742653458 A 91 91 0 0 1 0.0001235953841387527 91.1499811476006 L 91,91 Z"/><path fill-rule="evenodd" fill="#701516" d="M 0.0001235953841387527,91.1499811476006 A 91 91 0 0 1 0.0 91.00000000000003 L 91,91 Z"/></g><g transform="translate(15, 21)"><rect x="0.5" y="0.5" rx="2" width="15" height="15" fill="#f34b7d" stroke-width="1" stroke="#000000"/><text transform="scale(0.095)" x="263" y="132" textLength="1074" lengthAdjust="spacingAndGlyphs">C++ 40.57%</text></g><g transform="translate(15, 42)"><rect x="0.5" y="0.5" rx="2" width="15" height="15" fill="#438eff" stroke-width="1" stroke="#000000"/><text transform="scale(0.095)" x="263" y="132" textLength="1642" lengthAdjust="spacingAndGlyphs">Objective-C 15.26%</text></g><g transform="translate(15, 63)"><rect x="0.5" y="0.5" rx="2" width="15" height="15" fill="#555555" stroke-width="1" stroke="#000000"/><text transform="scale(0.095)" x="263" y="132" textLength="693" lengthAdjust="spacingAndGlyphs">C 8.29%</text></g><g transform="translate(15, 84)"><rect x="0.5" y="0.5" rx="2" width="15" height="15" fill="#dea584" stroke-width="1" stroke="#000000"/><text transform="scale(0.095)" x="263" y="132" textLength="946" lengthAdjust="spacingAndGlyphs">Rust 7.53%</text></g><g transform="translate(15, 105)"><rect x="0.5" y="0.5" rx="2" width="15" height="15" fill="#b07219" stroke-width="1" stroke="#000000"/><text transform="scale(0.095)" x="263" y="132" textLength="933" lengthAdjust="spacingAndGlyphs">Java 6.10%</text></g><g transform="translate(15, 126)"><rect x="0.5" y="0.5" rx="2" width="15" height="15" fill="#00ADD8" stroke-width="1" stroke="#000000"/><text transform="scale(0.095)" x="263" y="132" textLength="806" lengthAdjust="spacingAndGlyphs">Go 4.90%</text></g><g transform="translate(15, 147)"><rect x="0.5" y="0.5" rx="2" width="15" height="15" fill="#A97BFF" stroke-width="1" stroke="#000000"/><text transform="scale(0.095)" x="263" y="132" textLength="1048" lengthAdjust="spacingAndGlyphs">Kotlin 4.64%</text></g><g transform="translate(15, 168)"><rect x="0.5" y="0.5" rx="2" width="15" height="15" fill="#000080" stroke-width="1" stroke="#000000"/><text transform="scale(0.095)" x="263" y="132" textLength="874" lengthAdjust="spacingAndGlyphs">Lua 3.57%</text></g><g transform="translate(15, 189)"><rect x="0.5" y="0.5" rx="2" width="15" height="15" fill="#f1e05a" stroke-width="1" stroke="#000000"/><text transform="scale(0.095)" x="263" y="132" textLength="1412" lengthAdjust="spacingAndGlyphs">JavaScript 2.54%</text></g><g transform="translate(15, 210)"><rect x="0.5" y="0.5" rx="2" width="15" height="15" fill="#3178c6" stroke-width="1" stroke="#000000"/><text transform="scale(0.095)" x="263" y="132" textLength="1462" lengthAdjust="spacingAndGlyphs">TypeScript 1.82%</text><rect x="228.5" y="0.5" rx="2" width="15" height="15" fill="#6866fb" stroke-width="1" stroke="#000000"/><text transform="scale(0.095)" x="2663" y="132" textLength="1814" lengthAdjust="spacingAndGlyphs">Objective-C++ 1.50%</text></g><g transform="translate(15, 231)"><rect x="0.5" y="0.5" rx="2" width="15" height="15" fill="#DA3434" stroke-width="1" stroke="#000000"/><text transform="scale(0.095)" x="263" y="132" textLength="1134" lengthAdjust="spacingAndGlyphs">CMake 1.46%</text><rect x="228.5" y="0.5" rx="2" width="15" height="15" fill="#89e051" stroke-width="1" stroke="#000000"/><text transform="scale(0.095)" x="2663" y="132" textLength="982" lengthAdjust="spacingAndGlyphs">Shell 1.13%</text></g><g transform="translate(15, 252)"><rect x="0.5" y="0.5" rx="2" width="15" height="15" fill="#427819" stroke-width="1" stroke="#000000"/><text transform="scale(0.095)" x="263" y="132" textLength="1272" lengthAdjust="spacingAndGlyphs">Makefile 0.26%</text><rect x="228.5" y="0.5" rx="2" width="15" height="15" fill="#8f14e9" stroke-width="1" stroke="#000000"/><text transform="scale(0.095)" x="2663" y="132" textLength="1034" lengthAdjust="spacingAndGlyphs">Metal 0.15%</text></g><g transform="translate(15, 273)"><rect x="0.5" y="0.5" rx="2" width="15" height="15" fill="#5686a5" stroke-width="1" stroke="#000000"/><text transform="scale(0.095)" x="263" y="132" textLength="993" lengthAdjust="spacingAndGlyphs">GLSL 0.12%</text><rect x="228.5" y="0.5" rx="2" width="15" height="15" fill="#C1F12E" stroke-width="1" stroke="#000000"/><text transform="scale(0.095)" x="2663" y="132" textLength="1304" lengthAdjust="spacingAndGlyphs">Batchfile 0.07%</text></g><g transform="translate(15, 294)"><rect x="0.5" y="0.5" rx="2" width="15" height="15" fill="#e34c26" stroke-width="1" stroke="#000000"/><text transform="scale(0.095)" x="263" y="132" textLength="1036" lengthAdjust="spacingAndGlyphs">HTML 0.06%</text><rect x="228.5" y="0.5" rx="2" width="15" height="15" fill="#701516" stroke-width="1" stroke="#000000"/><text transform="scale(0.095)" x="2663" y="132" textLength="999" lengthAdjust="spacingAndGlyphs">Ruby 0.03%</text></g></g></g></svg>