<svg width="457" height="354" viewBox="0 0 457 354" xmlns="http://www.w3.org/2000/svg" lang="en" xml:lang="en"><rect x="2" y="2" stroke-width="4" rx="0" width="453" height="350" stroke="#ffffff" fill="#ffffff"/><g font-weight="600" font-size="110pt" font-family="Verdana,Geneva,DejaVu Sans,sans-serif" text-rendering="geometricPrecision"><text x="1828" y="301" lengthAdjust="spacingAndGlyphs" textLength="52" transform="scale(0.123)" fill="#0969da">.</text><g transform="translate(0, 60)" fill="#24292f"><g transform="translate(15, 0)"><g transform="scale(0.095)"><text x="0" y="132" textLength="3652" lengthAdjust="spacingAndGlyphs">Language Distribution in Public Repositories</text></g></g><g transform="translate(243, 21)"><circle cx="92" cy="92" r="92" fill="#000000"/></g><g transform="translate(244, 22)"><path fill-rule="evenodd" fill="#f34b7d" d="M 0.0,91.00000000000001 A 91 91 0 0 1 179.05974890571144 68.05483443809885 L 91,91 Z"/><path fill-rule="evenodd" fill="#438eff" d="M 179.05974890571144,68.05483443809885 A 91 91 0 0 1 167.85186674286228 139.73182305370216 L 91,91 Z"/><path fill-rule="evenodd" fill="#555555" d="M 167.85186674286228,139.73182305370216 A 91 91 0 0 1 140.31288503935636 167.4803201424734 L 91,91 Z"/><path fill-rule="evenodd" fill="#dea584" d="M 140.31288503935636,167.4803201424734 A 91 91 0 0 1 106.32261927988286 180.7007097987734 L 91,91 Z"/><path fill-rule="evenodd" fill="#b07219" d="M 106.32261927988286,180.7007097987734 A 91 91 0 0 1 76.68341792489812 180.86676514533542 L 91,91 Z"/><path fill-rule="evenodd" fill="#3178c6" d="M 76.68341792489812,180.86676514533542 A 91 91 0 0 1 51.086706915715695 172.77975932446867 L 91,91 Z"/><path fill-rule="evenodd" fill="#A97BFF" d="M 51.086706915715695,172.77975932446867 A 91 91 0 0 1 30.76972485570891 159.21520326175823 L 91,91 Z"/><path fill-rule="evenodd" fill="#00ADD8" d="M 30.76972485570891,159.21520326175823 A 91 91 0 0 1 15.130869846874319 141.24813518736863 L 91,91 Z"/><path fill-rule="evenodd" fill="#000080" d="M 15.130869846874319,141.24813518736863 A 91 91 0 0 1 6.9339886194593845 125.8411499604536 L 91,91 Z"/><path fill-rule="evenodd" fill="#DA3434" d="M 6.9339886194593845,125.8411499604536 A 91 91 0 0 1 2.81563030261502 113.46145456275994 L 91,91 Z"/><path fill-rule="evenodd" fill="#f1e05a" d="M 2.81563030261502,113.46145456275994 A 91 91 0 0 1 0.565072825057257 101.12541094784814 L 91,91 Z"/><path fill-rule="evenodd" fill="#6866fb" d="M 0.565072825057257,101.12541094784814 A 91 91 0 0 1 0.0142729240961188 92.6116663640875 L 91,91 Z"/><path fill-rule="evenodd" fill="#8f14e9" d="M 0.0142729240961188,92.6116663640875 A 91 91 0 0 1 0.004101257458117402 91.86395140897213 L 91,91 Z"/><path fill-rule="evenodd" fill="#959da5" d="M 0.004101257458117402,91.86395140897213 A 91 91 0 0 1 0.0 91.00000000000003 L 91,91 Z"/></g><g transform="translate(15, 21)"><rect x="0.5" y="0.5" rx="2" width="15" height="15" fill="#f34b7d" stroke-width="1" stroke="#000000"/><text transform="scale(0.095)" x="263" y="132" textLength="1074" lengthAdjust="spacingAndGlyphs">C++ 45.94%</text></g><g transform="translate(15, 42)"><rect x="0.5" y="0.5" rx="2" width="15" height="15" fill="#438eff" stroke-width="1" stroke="#000000"/><text transform="scale(0.095)" x="263" y="132" textLength="1642" lengthAdjust="spacingAndGlyphs">Objective-C 13.05%</text></g><g transform="translate(15, 63)"><rect x="0.5" y="0.5" rx="2" width="15" height="15" fill="#555555" stroke-width="1" stroke="#000000"/><text transform="scale(0.095)" x="263" y="132" textLength="693" lengthAdjust="spacingAndGlyphs">C 6.89%</text></g><g transform="translate(15, 84)"><rect x="0.5" y="0.5" rx="2" width="15" height="15" fill="#dea584" stroke-width="1" stroke="#000000"/><text transform="scale(0.095)" x="263" y="132" textLength="946" lengthAdjust="spacingAndGlyphs">Rust 6.42%</text></g><g transform="translate(15, 105)"><rect x="0.5" y="0.5" rx="2" width="15" height="15" fill="#b07219" stroke-width="1" stroke="#000000"/><text transform="scale(0.095)" x="263" y="132" textLength="933" lengthAdjust="spacingAndGlyphs">Java 5.21%</text></g><g transform="translate(15, 126)"><rect x="0.5" y="0.5" rx="2" width="15" height="15" fill="#3178c6" stroke-width="1" stroke="#000000"/><text transform="scale(0.095)" x="263" y="132" textLength="1462" lengthAdjust="spacingAndGlyphs">TypeScript 4.71%</text></g><g transform="translate(15, 147)"><rect x="0.5" y="0.5" rx="2" width="15" height="15" fill="#A97BFF" stroke-width="1" stroke="#000000"/><text transform="scale(0.095)" x="263" y="132" textLength="1048" lengthAdjust="spacingAndGlyphs">Kotlin 4.29%</text></g><g transform="translate(15, 168)"><rect x="0.5" y="0.5" rx="2" width="15" height="15" fill="#00ADD8" stroke-width="1" stroke="#000000"/><text transform="scale(0.095)" x="263" y="132" textLength="806" lengthAdjust="spacingAndGlyphs">Go 4.18%</text></g><g transform="translate(15, 189)"><rect x="0.5" y="0.5" rx="2" width="15" height="15" fill="#000080" stroke-width="1" stroke="#000000"/><text transform="scale(0.095)" x="263" y="132" textLength="874" lengthAdjust="spacingAndGlyphs">Lua 3.06%</text></g><g transform="translate(15, 210)"><rect x="0.5" y="0.5" rx="2" width="15" height="15" fill="#DA3434" stroke-width="1" stroke="#000000"/><text transform="scale(0.095)" x="263" y="132" textLength="1134" lengthAdjust="spacingAndGlyphs">CMake 2.28%</text><rect x="228.5" y="0.5" rx="2" width="15" height="15" fill="#f1e05a" stroke-width="1" stroke="#000000"/><text transform="scale(0.095)" x="2663" y="132" textLength="1412" lengthAdjust="spacingAndGlyphs">JavaScript 2.19%</text></g><g transform="translate(15, 231)"><rect x="0.5" y="0.5" rx="2" width="15" height="15" fill="#6866fb" stroke-width="1" stroke="#000000"/><text transform="scale(0.095)" x="263" y="132" textLength="1814" lengthAdjust="spacingAndGlyphs">Objective-C++ 1.49%</text><rect x="228.5" y="0.5" rx="2" width="15" height="15" fill="#8f14e9" stroke-width="1" stroke="#000000"/><text transform="scale(0.095)" x="2663" y="132" textLength="1034" lengthAdjust="spacingAndGlyphs">Metal 0.13%</text></g><g transform="translate(15, 252)"><rect x="0.5" y="0.5" rx="2" width="15" height="15" fill="#959da5" stroke-width="1" stroke="#000000"/><text transform="scale(0.095)" x="263" y="132" textLength="1047" lengthAdjust="spacingAndGlyphs">Other 0.15%</text></g></g></g></svg>