<svg width="457" height="354" viewBox="0 0 457 354" xmlns="http://www.w3.org/2000/svg" lang="en" xml:lang="en"><rect x="2" y="2" stroke-width="4" rx="0" width="453" height="350" stroke="#ffffff" fill="#ffffff"/><g font-weight="600" font-size="110pt" font-family="Verdana,Geneva,DejaVu Sans,sans-serif" text-rendering="geometricPrecision"><text x="946" y="301" lengthAdjust="spacingAndGlyphs" textLength="1816" transform="scale(0.123)" fill="#0969da">~#./code-lang-stat.sh</text><g transform="translate(0, 60)" fill="#24292f"><g transform="translate(15, 0)"><g transform="scale(0.095)"><text x="0" y="132" textLength="3652" lengthAdjust="spacingAndGlyphs">Language Distribution in Public Repositories</text></g></g><g transform="translate(243, 21)"><circle cx="92" cy="92" r="92" fill="#000000"/></g><g transform="translate(244, 22)"><path fill-rule="evenodd" fill="#f34b7d" d="M 0.0,91.00000000000001 A 91 91 0 0 1 181.27849075228804 79.56347485076681 L 91,91 Z"/><path fill-rule="evenodd" fill="#438eff" d="M 181.27849075228804,79.56347485076681 A 91 91 0 0 1 156.3240249772482 154.35433498010894 L 91,91 Z"/><path fill-rule="evenodd" fill="#555555" d="M 156.3240249772482,154.35433498010894 A 91 91 0 0 1 120.28433715346651 177.15931521015068 L 91,91 Z"/><path fill-rule="evenodd" fill="#dea584" d="M 120.28433715346651,177.15931521015068 A 91 91 0 0 1 80.71039794196938 181.41639281395476 L 91,91 Z"/><path fill-rule="evenodd" fill="#b07219" d="M 80.71039794196938,181.41639281395476 A 91 91 0 0 1 49.719167482611034 172.09804477711702 L 91,91 Z"/><path fill-rule="evenodd" fill="#00ADD8" d="M 49.719167482611034,172.09804477711702 A 91 91 0 0 1 28.459396212506768 157.10350125292751 L 91,91 Z"/><path fill-rule="evenodd" fill="#A97BFF" d="M 28.459396212506768,157.10350125292751 A 91 91 0 0 1 12.93556331726677 137.76477013102422 L 91,91 Z"/><path fill-rule="evenodd" fill="#000080" d="M 12.93556331726677,137.76477013102422 A 91 91 0 0 1 6.408714942162433 124.54570750876582 L 91,91 Z"/><path fill-rule="evenodd" fill="#f1e05a" d="M 6.408714942162433,124.54570750876582 A 91 91 0 0 1 2.197574631790147 110.87785825292852 L 91,91 Z"/><path fill-rule="evenodd" fill="#3178c6" d="M 2.197574631790147,110.87785825292852 A 91 91 0 0 1 0.6164460788001946 101.57417517225662 L 91,91 Z"/><path fill-rule="evenodd" fill="#6866fb" d="M 0.6164460788001946,101.57417517225662 A 91 91 0 0 1 0.017044488882632436 92.76119461219884 L 91,91 Z"/><path fill-rule="evenodd" fill="#8f14e9" d="M 0.017044488882632436,92.76119461219884 A 91 91 0 0 1 0.00489767125338858 91.94411449566944 L 91,91 Z"/><path fill-rule="evenodd" fill="#5686a5" d="M 0.00489767125338858,91.94411449566944 A 91 91 0 0 1 0.00048708173081024597 91.29773921098612 L 91,91 Z"/><path fill-rule="evenodd" fill="#e34c26" d="M 0.00048708173081024597,91.29773921098612 A 91 91 0 0 1 0.0 91.00000000000003 L 91,91 Z"/></g><g transform="translate(15, 21)"><rect x="0.5" y="0.5" rx="2" width="15" height="15" fill="#f34b7d" stroke-width="1" stroke="#000000"/><text transform="scale(0.095)" x="263" y="132" textLength="1074" lengthAdjust="spacingAndGlyphs">C++ 47.99%</text></g><g transform="translate(15, 42)"><rect x="0.5" y="0.5" rx="2" width="15" height="15" fill="#438eff" stroke-width="1" stroke="#000000"/><text transform="scale(0.095)" x="263" y="132" textLength="1642" lengthAdjust="spacingAndGlyphs">Objective-C 14.26%</text></g><g transform="translate(15, 63)"><rect x="0.5" y="0.5" rx="2" width="15" height="15" fill="#555555" stroke-width="1" stroke="#000000"/><text transform="scale(0.095)" x="263" y="132" textLength="693" lengthAdjust="spacingAndGlyphs">C 7.53%</text></g><g transform="translate(15, 84)"><rect x="0.5" y="0.5" rx="2" width="15" height="15" fill="#dea584" stroke-width="1" stroke="#000000"/><text transform="scale(0.095)" x="263" y="132" textLength="946" lengthAdjust="spacingAndGlyphs">Rust 7.02%</text></g><g transform="translate(15, 105)"><rect x="0.5" y="0.5" rx="2" width="15" height="15" fill="#b07219" stroke-width="1" stroke="#000000"/><text transform="scale(0.095)" x="263" y="132" textLength="933" lengthAdjust="spacingAndGlyphs">Java 5.69%</text></g><g transform="translate(15, 126)"><rect x="0.5" y="0.5" rx="2" width="15" height="15" fill="#00ADD8" stroke-width="1" stroke="#000000"/><text transform="scale(0.095)" x="263" y="132" textLength="806" lengthAdjust="spacingAndGlyphs">Go 4.57%</text></g><g transform="translate(15, 147)"><rect x="0.5" y="0.5" rx="2" width="15" height="15" fill="#A97BFF" stroke-width="1" stroke="#000000"/><text transform="scale(0.095)" x="263" y="132" textLength="1048" lengthAdjust="spacingAndGlyphs">Kotlin 4.35%</text></g><g transform="translate(15, 168)"><rect x="0.5" y="0.5" rx="2" width="15" height="15" fill="#000080" stroke-width="1" stroke="#000000"/><text transform="scale(0.095)" x="263" y="132" textLength="874" lengthAdjust="spacingAndGlyphs">Lua 2.58%</text></g><g transform="translate(15, 189)"><rect x="0.5" y="0.5" rx="2" width="15" height="15" fill="#f1e05a" stroke-width="1" stroke="#000000"/><text transform="scale(0.095)" x="263" y="132" textLength="1412" lengthAdjust="spacingAndGlyphs">JavaScript 2.50%</text></g><g transform="translate(15, 210)"><rect x="0.5" y="0.5" rx="2" width="15" height="15" fill="#3178c6" stroke-width="1" stroke="#000000"/><text transform="scale(0.095)" x="263" y="132" textLength="1462" lengthAdjust="spacingAndGlyphs">TypeScript 1.65%</text><rect x="228.5" y="0.5" rx="2" width="15" height="15" fill="#6866fb" stroke-width="1" stroke="#000000"/><text transform="scale(0.095)" x="2663" y="132" textLength="1814" lengthAdjust="spacingAndGlyphs">Objective-C++ 1.55%</text></g><g transform="translate(15, 231)"><rect x="0.5" y="0.5" rx="2" width="15" height="15" fill="#8f14e9" stroke-width="1" stroke="#000000"/><text transform="scale(0.095)" x="263" y="132" textLength="1034" lengthAdjust="spacingAndGlyphs">Metal 0.14%</text><rect x="228.5" y="0.5" rx="2" width="15" height="15" fill="#5686a5" stroke-width="1" stroke="#000000"/><text transform="scale(0.095)" x="2663" y="132" textLength="993" lengthAdjust="spacingAndGlyphs">GLSL 0.11%</text></g><g transform="translate(15, 252)"><rect x="0.5" y="0.5" rx="2" width="15" height="15" fill="#e34c26" stroke-width="1" stroke="#000000"/><text transform="scale(0.095)" x="263" y="132" textLength="1036" lengthAdjust="spacingAndGlyphs">HTML 0.05%</text></g></g></g></svg>