<svg width="457" height="354" viewBox="0 0 457 354" xmlns="http://www.w3.org/2000/svg" lang="en" xml:lang="en"><rect x="2" y="2" stroke-width="4" rx="0" width="453" height="350" stroke="#ffffff" fill="#ffffff"/><g font-weight="600" font-size="110pt" font-family="Verdana,Geneva,DejaVu Sans,sans-serif" text-rendering="geometricPrecision"><text x="1828" y="301" lengthAdjust="spacingAndGlyphs" textLength="52" transform="scale(0.123)" fill="#0969da">.</text><g transform="translate(0, 60)" fill="#24292f"><g transform="translate(15, 0)"><g transform="scale(0.095)"><text x="0" y="132" textLength="3652" lengthAdjust="spacingAndGlyphs">Language Distribution in Public Repositories</text></g></g><g transform="translate(243, 21)"><circle cx="92" cy="92" r="92" fill="#000000"/></g><g transform="translate(244, 22)"><path fill-rule="evenodd" fill="#f34b7d" d="M 0.0,91.00000000000001 A 91 91 0 1 1 181.73478026903518 97.94259674256696 L 91,91 Z"/><path fill-rule="evenodd" fill="#438eff" d="M 181.73478026903518,97.94259674256696 A 91 91 0 0 1 149.63048551491926 160.59501539826573 L 91,91 Z"/><path fill-rule="evenodd" fill="#555555" d="M 149.63048551491926,160.59501539826573 A 91 91 0 0 1 115.09529838055963 178.75201761755568 L 91,91 Z"/><path fill-rule="evenodd" fill="#dea584" d="M 115.09529838055963,178.75201761755568 A 91 91 0 0 1 78.86949749298049 181.1878645324702 L 91,91 Z"/><path fill-rule="evenodd" fill="#b07219" d="M 78.86949749298049,181.1878645324702 A 91 91 0 0 1 50.65093680685243 172.56563675614495 L 91,91 Z"/><path fill-rule="evenodd" fill="#00ADD8" d="M 50.65093680685243,172.56563675614495 A 91 91 0 0 1 30.94781954269365 159.37203830750633 L 91,91 Z"/><path fill-rule="evenodd" fill="#A97BFF" d="M 30.94781954269365,159.37203830750633 A 91 91 0 0 1 18.723002889430035 146.2904665261441 L 91,91 Z"/><path fill-rule="evenodd" fill="#000080" d="M 18.723002889430035,146.2904665261441 A 91 91 0 0 1 9.532803342848823 131.54745206329315 L 91,91 Z"/><path fill-rule="evenodd" fill="#f1e05a" d="M 9.532803342848823,131.54745206329315 A 91 91 0 0 1 3.378535911246047 115.56581020327235 L 91,91 Z"/><path fill-rule="evenodd" fill="#DA3434" d="M 3.378535911246047,115.56581020327235 A 91 91 0 0 1 0.5908088284259918 101.35268813892246 L 91,91 Z"/><path fill-rule="evenodd" fill="#6866fb" d="M 0.5908088284259918,101.35268813892246 A 91 91 0 0 1 0.01940228289778645 92.87905269718978 L 91,91 Z"/><path fill-rule="evenodd" fill="#8f14e9" d="M 0.01940228289778645,92.87905269718978 A 91 91 0 0 1 0.007075465175532258 92.1347619132402 L 91,91 Z"/><path fill-rule="evenodd" fill="#5686a5" d="M 0.007075465175532258,92.1347619132402 A 91 91 0 0 1 0.001637802433521074 91.5459646147003 L 91,91 Z"/><path fill-rule="evenodd" fill="#959da5" d="M 0.001637802433521074,91.5459646147003 A 91 91 0 0 1 0.0 91.00000000000003 L 91,91 Z"/></g><g transform="translate(15, 21)"><rect x="0.5" y="0.5" rx="2" width="15" height="15" fill="#f34b7d" stroke-width="1" stroke="#000000"/><text transform="scale(0.095)" x="263" y="132" textLength="1074" lengthAdjust="spacingAndGlyphs">C++ 51.22%</text></g><g transform="translate(15, 42)"><rect x="0.5" y="0.5" rx="2" width="15" height="15" fill="#438eff" stroke-width="1" stroke="#000000"/><text transform="scale(0.095)" x="263" y="132" textLength="1642" lengthAdjust="spacingAndGlyphs">Objective-C 12.64%</text></g><g transform="translate(15, 63)"><rect x="0.5" y="0.5" rx="2" width="15" height="15" fill="#555555" stroke-width="1" stroke="#000000"/><text transform="scale(0.095)" x="263" y="132" textLength="693" lengthAdjust="spacingAndGlyphs">C 6.88%</text></g><g transform="translate(15, 84)"><rect x="0.5" y="0.5" rx="2" width="15" height="15" fill="#dea584" stroke-width="1" stroke="#000000"/><text transform="scale(0.095)" x="263" y="132" textLength="946" lengthAdjust="spacingAndGlyphs">Rust 6.39%</text></g><g transform="translate(15, 105)"><rect x="0.5" y="0.5" rx="2" width="15" height="15" fill="#b07219" stroke-width="1" stroke="#000000"/><text transform="scale(0.095)" x="263" y="132" textLength="933" lengthAdjust="spacingAndGlyphs">Java 5.18%</text></g><g transform="translate(15, 126)"><rect x="0.5" y="0.5" rx="2" width="15" height="15" fill="#00ADD8" stroke-width="1" stroke="#000000"/><text transform="scale(0.095)" x="263" y="132" textLength="806" lengthAdjust="spacingAndGlyphs">Go 4.16%</text></g><g transform="translate(15, 147)"><rect x="0.5" y="0.5" rx="2" width="15" height="15" fill="#A97BFF" stroke-width="1" stroke="#000000"/><text transform="scale(0.095)" x="263" y="132" textLength="1048" lengthAdjust="spacingAndGlyphs">Kotlin 3.14%</text></g><g transform="translate(15, 168)"><rect x="0.5" y="0.5" rx="2" width="15" height="15" fill="#000080" stroke-width="1" stroke="#000000"/><text transform="scale(0.095)" x="263" y="132" textLength="874" lengthAdjust="spacingAndGlyphs">Lua 3.04%</text></g><g transform="translate(15, 189)"><rect x="0.5" y="0.5" rx="2" width="15" height="15" fill="#f1e05a" stroke-width="1" stroke="#000000"/><text transform="scale(0.095)" x="263" y="132" textLength="1412" lengthAdjust="spacingAndGlyphs">JavaScript 3.00%</text></g><g transform="translate(15, 210)"><rect x="0.5" y="0.5" rx="2" width="15" height="15" fill="#DA3434" stroke-width="1" stroke="#000000"/><text transform="scale(0.095)" x="263" y="132" textLength="1134" lengthAdjust="spacingAndGlyphs">CMake 2.54%</text><rect x="228.5" y="0.5" rx="2" width="15" height="15" fill="#6866fb" stroke-width="1" stroke="#000000"/><text transform="scale(0.095)" x="2663" y="132" textLength="1814" lengthAdjust="spacingAndGlyphs">Objective-C++ 1.49%</text></g><g transform="translate(15, 231)"><rect x="0.5" y="0.5" rx="2" width="15" height="15" fill="#8f14e9" stroke-width="1" stroke="#000000"/><text transform="scale(0.095)" x="263" y="132" textLength="1034" lengthAdjust="spacingAndGlyphs">Metal 0.13%</text><rect x="228.5" y="0.5" rx="2" width="15" height="15" fill="#5686a5" stroke-width="1" stroke="#000000"/><text transform="scale(0.095)" x="2663" y="132" textLength="993" lengthAdjust="spacingAndGlyphs">GLSL 0.10%</text></g><g transform="translate(15, 252)"><rect x="0.5" y="0.5" rx="2" width="15" height="15" fill="#959da5" stroke-width="1" stroke="#000000"/><text transform="scale(0.095)" x="263" y="132" textLength="1047" lengthAdjust="spacingAndGlyphs">Other 0.10%</text></g></g></g></svg>