<svg width="404" height="312" viewBox="0 0 404 312" xmlns="http://www.w3.org/2000/svg" lang="en" xml:lang="en"><rect x="2" y="2" stroke-width="4" rx="0" width="400" height="308" stroke="#ffffff" fill="#ffffff"/><g font-weight="600" font-size="110pt" font-family="Verdana,Geneva,DejaVu Sans,sans-serif" text-rendering="geometricPrecision"><text x="1616" y="301" lengthAdjust="spacingAndGlyphs" textLength="52" transform="scale(0.123)" fill="#0969da">.</text><g transform="translate(0, 60)" fill="#24292f"><g transform="translate(15, 0)"><g transform="scale(0.095)"><text x="0" y="132" textLength="3652" lengthAdjust="spacingAndGlyphs">Language Distribution in Public Repositories</text></g></g><g transform="translate(217, 21)"><circle cx="81" cy="81" r="81" fill="#000000"/></g><g transform="translate(218, 22)"><path fill-rule="evenodd" fill="#f34b7d" d="M 0.0,80.00000000000001 A 80 80 0 1 1 142.5985965816346 129.81381039440532 L 80,80 Z"/><path fill-rule="evenodd" fill="#555555" d="M 142.5985965816346,129.81381039440532 A 80 80 0 0 1 114.23734416759163 152.30355637414993 L 80,80 Z"/><path fill-rule="evenodd" fill="#dea584" d="M 114.23734416759163,152.30355637414993 A 80 80 0 0 1 81.30917476256637 159.98928716672663 L 80,80 Z"/><path fill-rule="evenodd" fill="#438eff" d="M 81.30917476256637,159.98928716672663 A 80 80 0 0 1 53.8349698581641 155.6002063335598 L 80,80 Z"/><path fill-rule="evenodd" fill="#b07219" d="M 53.8349698581641,155.6002063335598 A 80 80 0 0 1 29.815648638843044 142.30193318397065 L 80,80 Z"/><path fill-rule="evenodd" fill="#00ADD8" d="M 29.815648638843044,142.30193318397065 A 80 80 0 0 1 15.70674380284558 127.60648283130212 L 80,80 Z"/><path fill-rule="evenodd" fill="#DA3434" d="M 15.70674380284558,127.60648283130212 A 80 80 0 0 1 6.533931085122177 111.66601835081927 L 80,80 Z"/><path fill-rule="evenodd" fill="#000080" d="M 6.533931085122177,111.66601835081927 A 80 80 0 0 1 2.4008187510330146 99.45165981323885 L 80,80 Z"/><path fill-rule="evenodd" fill="#f1e05a" d="M 2.4008187510330146,99.45165981323885 A 80 80 0 0 1 0.6411321979421842 90.10792269338813 L 80,80 Z"/><path fill-rule="evenodd" fill="#A97BFF" d="M 0.6411321979421842,90.10792269338813 A 80 80 0 0 1 0.10143796808483785 84.0273794497421 L 80,80 Z"/><path fill-rule="evenodd" fill="#8f14e9" d="M 0.10143796808483785,84.0273794497421 A 80 80 0 0 1 0.06954850553840686 83.3351047796916 L 80,80 Z"/><path fill-rule="evenodd" fill="#5686a5" d="M 0.06954850553840686,83.3351047796916 A 80 80 0 0 1 0.0 80.00000000000003 L 80,80 Z"/></g><g transform="translate(15, 21)"><rect x="0.5" y="0.5" rx="2" width="15" height="15" fill="#f34b7d" stroke-width="1" stroke="#000000"/><text transform="scale(0.095)" x="263" y="132" textLength="1074" lengthAdjust="spacingAndGlyphs">C++ 60.70%</text></g><g transform="translate(15, 42)"><rect x="0.5" y="0.5" rx="2" width="15" height="15" fill="#555555" stroke-width="1" stroke="#000000"/><text transform="scale(0.095)" x="263" y="132" textLength="693" lengthAdjust="spacingAndGlyphs">C 7.26%</text></g><g transform="translate(15, 63)"><rect x="0.5" y="0.5" rx="2" width="15" height="15" fill="#dea584" stroke-width="1" stroke="#000000"/><text transform="scale(0.095)" x="263" y="132" textLength="946" lengthAdjust="spacingAndGlyphs">Rust 6.78%</text></g><g transform="translate(15, 84)"><rect x="0.5" y="0.5" rx="2" width="15" height="15" fill="#438eff" stroke-width="1" stroke="#000000"/><text transform="scale(0.095)" x="263" y="132" textLength="1538" lengthAdjust="spacingAndGlyphs">Objective-C 5.56%</text></g><g transform="translate(15, 105)"><rect x="0.5" y="0.5" rx="2" width="15" height="15" fill="#b07219" stroke-width="1" stroke="#000000"/><text transform="scale(0.095)" x="263" y="132" textLength="933" lengthAdjust="spacingAndGlyphs">Java 5.49%</text></g><g transform="translate(15, 126)"><rect x="0.5" y="0.5" rx="2" width="15" height="15" fill="#00ADD8" stroke-width="1" stroke="#000000"/><text transform="scale(0.095)" x="263" y="132" textLength="806" lengthAdjust="spacingAndGlyphs">Go 4.06%</text></g><g transform="translate(15, 147)"><rect x="0.5" y="0.5" rx="2" width="15" height="15" fill="#DA3434" stroke-width="1" stroke="#000000"/><text transform="scale(0.095)" x="263" y="132" textLength="1134" lengthAdjust="spacingAndGlyphs">CMake 3.67%</text></g><g transform="translate(15, 168)"><rect x="0.5" y="0.5" rx="2" width="15" height="15" fill="#000080" stroke-width="1" stroke="#000000"/><text transform="scale(0.095)" x="263" y="132" textLength="874" lengthAdjust="spacingAndGlyphs">Lua 2.57%</text></g><g transform="translate(15, 189)"><rect x="0.5" y="0.5" rx="2" width="15" height="15" fill="#f1e05a" stroke-width="1" stroke="#000000"/><text transform="scale(0.095)" x="263" y="132" textLength="1412" lengthAdjust="spacingAndGlyphs">JavaScript 1.89%</text><rect x="202.5" y="0.5" rx="2" width="15" height="15" fill="#A97BFF" stroke-width="1" stroke="#000000"/><text transform="scale(0.095)" x="2389" y="132" textLength="1048" lengthAdjust="spacingAndGlyphs">Kotlin 1.21%</text></g><g transform="translate(15, 210)"><rect x="0.5" y="0.5" rx="2" width="15" height="15" fill="#8f14e9" stroke-width="1" stroke="#000000"/><text transform="scale(0.095)" x="263" y="132" textLength="1034" lengthAdjust="spacingAndGlyphs">Metal 0.14%</text><rect x="202.5" y="0.5" rx="2" width="15" height="15" fill="#5686a5" stroke-width="1" stroke="#000000"/><text transform="scale(0.095)" x="2389" y="132" textLength="993" lengthAdjust="spacingAndGlyphs">GLSL 0.11%</text></g></g></g></svg>