<svg width="457" height="354" viewBox="0 0 457 354" xmlns="http://www.w3.org/2000/svg" lang="en" xml:lang="en"><rect x="2" y="2" stroke-width="4" rx="0" width="453" height="350" stroke="#ffffff" fill="#ffffff"/><g font-weight="600" font-size="110pt" font-family="Verdana,Geneva,DejaVu Sans,sans-serif" text-rendering="geometricPrecision"><text x="1796" y="301" lengthAdjust="spacingAndGlyphs" textLength="116" transform="scale(0.123)" fill="#0969da">📊</text><g transform="translate(0, 60)" fill="#24292f"><g transform="translate(15, 0)"><g transform="scale(0.095)"><text x="0" y="132" textLength="3652" lengthAdjust="spacingAndGlyphs">Language Distribution in Public Repositories</text></g></g><g transform="translate(243, 21)"><circle cx="92" cy="92" r="92" fill="#000000"/></g><g transform="translate(244, 22)"><path fill-rule="evenodd" fill="#f34b7d" d="M 0.0,91.00000000000001 A 91 91 0 0 1 181.40560028399696 80.61600090089716 L 91,91 Z"/><path fill-rule="evenodd" fill="#438eff" d="M 181.40560028399696,80.61600090089716 A 91 91 0 0 1 155.85206426622415 154.8373696232037 L 91,91 Z"/><path fill-rule="evenodd" fill="#555555" d="M 155.85206426622415,154.8373696232037 A 91 91 0 0 1 119.75354045576697 177.33790541389436 L 91,91 Z"/><path fill-rule="evenodd" fill="#dea584" d="M 119.75354045576697,177.33790541389436 A 91 91 0 0 1 80.34220057905435 181.37373131337938 L 91,91 Z"/><path fill-rule="evenodd" fill="#b07219" d="M 80.34220057905435,181.37373131337938 A 91 91 0 0 1 49.52579566034123 171.99932329589075 L 91,91 Z"/><path fill-rule="evenodd" fill="#00ADD8" d="M 49.52579566034123,171.99932329589075 A 91 91 0 0 1 28.39121024812942 157.03892371780498 L 91,91 Z"/><path fill-rule="evenodd" fill="#A97BFF" d="M 28.39121024812942,157.03892371780498 A 91 91 0 0 1 12.940712606013378 137.7733647661038 L 91,91 Z"/><path fill-rule="evenodd" fill="#000080" d="M 12.940712606013378,137.7733647661038 A 91 91 0 0 1 6.438117288798821 124.61975598271134 L 91,91 Z"/><path fill-rule="evenodd" fill="#f1e05a" d="M 6.438117288798821,124.61975598271134 A 91 91 0 0 1 2.2298534521370073 111.02151547388283 L 91,91 Z"/><path fill-rule="evenodd" fill="#3178c6" d="M 2.2298534521370073,111.02151547388283 A 91 91 0 0 1 0.6389335540556544 101.76464912347969 L 91,91 Z"/><path fill-rule="evenodd" fill="#6866fb" d="M 0.6389335540556544,101.76464912347969 A 91 91 0 0 1 0.01688399217773906 92.75288376886667 L 91,91 Z"/><path fill-rule="evenodd" fill="#8f14e9" d="M 0.01688399217773906,92.75288376886667 A 91 91 0 0 1 0.004851552098543266 91.93965895109758 L 91,91 Z"/><path fill-rule="evenodd" fill="#5686a5" d="M 0.004851552098543266,91.93965895109758 A 91 91 0 0 1 0.0004824950657678073 91.29633404996426 L 91,91 Z"/><path fill-rule="evenodd" fill="#959da5" d="M 0.0004824950657678073,91.29633404996426 A 91 91 0 0 1 0.0 91.00000000000003 L 91,91 Z"/></g><g transform="translate(15, 21)"><rect x="0.5" y="0.5" rx="2" width="15" height="15" fill="#f34b7d" stroke-width="1" stroke="#000000"/><text transform="scale(0.095)" x="263" y="132" textLength="1074" lengthAdjust="spacingAndGlyphs">C++ 48.18%</text></g><g transform="translate(15, 42)"><rect x="0.5" y="0.5" rx="2" width="15" height="15" fill="#438eff" stroke-width="1" stroke="#000000"/><text transform="scale(0.095)" x="263" y="132" textLength="1642" lengthAdjust="spacingAndGlyphs">Objective-C 14.19%</text></g><g transform="translate(15, 63)"><rect x="0.5" y="0.5" rx="2" width="15" height="15" fill="#555555" stroke-width="1" stroke="#000000"/><text transform="scale(0.095)" x="263" y="132" textLength="693" lengthAdjust="spacingAndGlyphs">C 7.51%</text></g><g transform="translate(15, 84)"><rect x="0.5" y="0.5" rx="2" width="15" height="15" fill="#dea584" stroke-width="1" stroke="#000000"/><text transform="scale(0.095)" x="263" y="132" textLength="946" lengthAdjust="spacingAndGlyphs">Rust 6.98%</text></g><g transform="translate(15, 105)"><rect x="0.5" y="0.5" rx="2" width="15" height="15" fill="#b07219" stroke-width="1" stroke="#000000"/><text transform="scale(0.095)" x="263" y="132" textLength="933" lengthAdjust="spacingAndGlyphs">Java 5.66%</text></g><g transform="translate(15, 126)"><rect x="0.5" y="0.5" rx="2" width="15" height="15" fill="#00ADD8" stroke-width="1" stroke="#000000"/><text transform="scale(0.095)" x="263" y="132" textLength="806" lengthAdjust="spacingAndGlyphs">Go 4.54%</text></g><g transform="translate(15, 147)"><rect x="0.5" y="0.5" rx="2" width="15" height="15" fill="#A97BFF" stroke-width="1" stroke="#000000"/><text transform="scale(0.095)" x="263" y="132" textLength="1048" lengthAdjust="spacingAndGlyphs">Kotlin 4.33%</text></g><g transform="translate(15, 168)"><rect x="0.5" y="0.5" rx="2" width="15" height="15" fill="#000080" stroke-width="1" stroke="#000000"/><text transform="scale(0.095)" x="263" y="132" textLength="874" lengthAdjust="spacingAndGlyphs">Lua 2.57%</text></g><g transform="translate(15, 189)"><rect x="0.5" y="0.5" rx="2" width="15" height="15" fill="#f1e05a" stroke-width="1" stroke="#000000"/><text transform="scale(0.095)" x="263" y="132" textLength="1412" lengthAdjust="spacingAndGlyphs">JavaScript 2.49%</text></g><g transform="translate(15, 210)"><rect x="0.5" y="0.5" rx="2" width="15" height="15" fill="#3178c6" stroke-width="1" stroke="#000000"/><text transform="scale(0.095)" x="263" y="132" textLength="1462" lengthAdjust="spacingAndGlyphs">TypeScript 1.64%</text><rect x="228.5" y="0.5" rx="2" width="15" height="15" fill="#6866fb" stroke-width="1" stroke="#000000"/><text transform="scale(0.095)" x="2663" y="132" textLength="1814" lengthAdjust="spacingAndGlyphs">Objective-C++ 1.58%</text></g><g transform="translate(15, 231)"><rect x="0.5" y="0.5" rx="2" width="15" height="15" fill="#8f14e9" stroke-width="1" stroke="#000000"/><text transform="scale(0.095)" x="263" y="132" textLength="1034" lengthAdjust="spacingAndGlyphs">Metal 0.14%</text><rect x="228.5" y="0.5" rx="2" width="15" height="15" fill="#5686a5" stroke-width="1" stroke="#000000"/><text transform="scale(0.095)" x="2663" y="132" textLength="993" lengthAdjust="spacingAndGlyphs">GLSL 0.11%</text></g><g transform="translate(15, 252)"><rect x="0.5" y="0.5" rx="2" width="15" height="15" fill="#959da5" stroke-width="1" stroke="#000000"/><text transform="scale(0.095)" x="263" y="132" textLength="1047" lengthAdjust="spacingAndGlyphs">Other 0.05%</text></g></g></g></svg>