<svg width="457" height="354" viewBox="0 0 457 354" xmlns="http://www.w3.org/2000/svg" lang="en" xml:lang="en"><rect x="2" y="2" stroke-width="4" rx="0" width="453" height="350" stroke="#ffffff" fill="#ffffff"/><g font-weight="600" font-size="110pt" font-family="Verdana,Geneva,DejaVu Sans,sans-serif" text-rendering="geometricPrecision"><text x="946" y="301" lengthAdjust="spacingAndGlyphs" textLength="1816" transform="scale(0.123)" fill="#0969da">~#./code-lang-stat.sh</text><g transform="translate(0, 60)" fill="#24292f"><g transform="translate(15, 0)"><g transform="scale(0.095)"><text x="0" y="132" textLength="3652" lengthAdjust="spacingAndGlyphs">Language Distribution in Public Repositories</text></g></g><g transform="translate(243, 21)"><circle cx="92" cy="92" r="92" fill="#000000"/></g><g transform="translate(244, 22)"><path fill-rule="evenodd" fill="#f34b7d" d="M 0.0,91.00000000000001 A 91 91 0 0 1 181.4530593016873 81.03786855309362 L 91,91 Z"/><path fill-rule="evenodd" fill="#438eff" d="M 181.4530593016873,81.03786855309362 A 91 91 0 0 1 155.71593831955903 154.97536500418758 L 91,91 Z"/><path fill-rule="evenodd" fill="#555555" d="M 155.71593831955903,154.97536500418758 A 91 91 0 0 1 119.0466898894746 177.57010561529682 L 91,91 Z"/><path fill-rule="evenodd" fill="#dea584" d="M 119.0466898894746,177.57010561529682 A 91 91 0 0 1 79.71630396110142 181.29771981452103 L 91,91 Z"/><path fill-rule="evenodd" fill="#b07219" d="M 79.71630396110142,181.29771981452103 A 91 91 0 0 1 49.04724394720433 171.75250002058522 L 91,91 Z"/><path fill-rule="evenodd" fill="#00ADD8" d="M 49.04724394720433,171.75250002058522 A 91 91 0 0 1 28.0548632834939 156.7184126690561 L 91,91 Z"/><path fill-rule="evenodd" fill="#A97BFF" d="M 28.0548632834939,156.7184126690561 A 91 91 0 0 1 12.745688505558434 137.4463425097274 L 91,91 Z"/><path fill-rule="evenodd" fill="#000080" d="M 12.745688505558434,137.4463425097274 A 91 91 0 0 1 6.313458766689365 124.30450020550941 L 91,91 Z"/><path fill-rule="evenodd" fill="#f1e05a" d="M 6.313458766689365,124.30450020550941 A 91 91 0 0 1 2.1646549366975307 110.73021711700054 L 91,91 Z"/><path fill-rule="evenodd" fill="#3178c6" d="M 2.1646549366975307,110.73021711700054 A 91 91 0 0 1 0.6071850989334706 101.49471363408855 L 91,91 Z"/><path fill-rule="evenodd" fill="#6866fb" d="M 0.6071850989334706,101.49471363408855 A 91 91 0 0 1 0.01678814889686464 92.74790195871697 L 91,91 Z"/><path fill-rule="evenodd" fill="#8f14e9" d="M 0.01678814889686464,92.74790195871697 A 91 91 0 0 1 0.004824011286203245 91.93698814453751 L 91,91 Z"/><path fill-rule="evenodd" fill="#5686a5" d="M 0.004824011286203245,91.93698814453751 A 91 91 0 0 1 0.0004797560635836362 91.29549174845745 L 91,91 Z"/><path fill-rule="evenodd" fill="#e34c26" d="M 0.0004797560635836362,91.29549174845745 A 91 91 0 0 1 0.0 91.00000000000003 L 91,91 Z"/></g><g transform="translate(15, 21)"><rect x="0.5" y="0.5" rx="2" width="15" height="15" fill="#f34b7d" stroke-width="1" stroke="#000000"/><text transform="scale(0.095)" x="263" y="132" textLength="1074" lengthAdjust="spacingAndGlyphs">C++ 48.25%</text></g><g transform="translate(15, 42)"><rect x="0.5" y="0.5" rx="2" width="15" height="15" fill="#438eff" stroke-width="1" stroke="#000000"/><text transform="scale(0.095)" x="263" y="132" textLength="1642" lengthAdjust="spacingAndGlyphs">Objective-C 14.15%</text></g><g transform="translate(15, 63)"><rect x="0.5" y="0.5" rx="2" width="15" height="15" fill="#555555" stroke-width="1" stroke="#000000"/><text transform="scale(0.095)" x="263" y="132" textLength="693" lengthAdjust="spacingAndGlyphs">C 7.61%</text></g><g transform="translate(15, 84)"><rect x="0.5" y="0.5" rx="2" width="15" height="15" fill="#dea584" stroke-width="1" stroke="#000000"/><text transform="scale(0.095)" x="263" y="132" textLength="946" lengthAdjust="spacingAndGlyphs">Rust 6.96%</text></g><g transform="translate(15, 105)"><rect x="0.5" y="0.5" rx="2" width="15" height="15" fill="#b07219" stroke-width="1" stroke="#000000"/><text transform="scale(0.095)" x="263" y="132" textLength="933" lengthAdjust="spacingAndGlyphs">Java 5.65%</text></g><g transform="translate(15, 126)"><rect x="0.5" y="0.5" rx="2" width="15" height="15" fill="#00ADD8" stroke-width="1" stroke="#000000"/><text transform="scale(0.095)" x="263" y="132" textLength="806" lengthAdjust="spacingAndGlyphs">Go 4.53%</text></g><g transform="translate(15, 147)"><rect x="0.5" y="0.5" rx="2" width="15" height="15" fill="#A97BFF" stroke-width="1" stroke="#000000"/><text transform="scale(0.095)" x="263" y="132" textLength="1048" lengthAdjust="spacingAndGlyphs">Kotlin 4.32%</text></g><g transform="translate(15, 168)"><rect x="0.5" y="0.5" rx="2" width="15" height="15" fill="#000080" stroke-width="1" stroke="#000000"/><text transform="scale(0.095)" x="263" y="132" textLength="874" lengthAdjust="spacingAndGlyphs">Lua 2.56%</text></g><g transform="translate(15, 189)"><rect x="0.5" y="0.5" rx="2" width="15" height="15" fill="#f1e05a" stroke-width="1" stroke="#000000"/><text transform="scale(0.095)" x="263" y="132" textLength="1412" lengthAdjust="spacingAndGlyphs">JavaScript 2.49%</text></g><g transform="translate(15, 210)"><rect x="0.5" y="0.5" rx="2" width="15" height="15" fill="#3178c6" stroke-width="1" stroke="#000000"/><text transform="scale(0.095)" x="263" y="132" textLength="1462" lengthAdjust="spacingAndGlyphs">TypeScript 1.64%</text><rect x="228.5" y="0.5" rx="2" width="15" height="15" fill="#6866fb" stroke-width="1" stroke="#000000"/><text transform="scale(0.095)" x="2663" y="132" textLength="1814" lengthAdjust="spacingAndGlyphs">Objective-C++ 1.53%</text></g><g transform="translate(15, 231)"><rect x="0.5" y="0.5" rx="2" width="15" height="15" fill="#8f14e9" stroke-width="1" stroke="#000000"/><text transform="scale(0.095)" x="263" y="132" textLength="1034" lengthAdjust="spacingAndGlyphs">Metal 0.14%</text><rect x="228.5" y="0.5" rx="2" width="15" height="15" fill="#5686a5" stroke-width="1" stroke="#000000"/><text transform="scale(0.095)" x="2663" y="132" textLength="993" lengthAdjust="spacingAndGlyphs">GLSL 0.11%</text></g><g transform="translate(15, 252)"><rect x="0.5" y="0.5" rx="2" width="15" height="15" fill="#e34c26" stroke-width="1" stroke="#000000"/><text transform="scale(0.095)" x="263" y="132" textLength="1036" lengthAdjust="spacingAndGlyphs">HTML 0.05%</text></g></g></g></svg>