<svg width="457" height="396" viewBox="0 0 457 396" xmlns="http://www.w3.org/2000/svg" lang="en" xml:lang="en"><rect x="2" y="2" stroke-width="4" rx="0" width="453" height="392" stroke="#ffffff" fill="#ffffff"/><g font-weight="600" font-size="110pt" font-family="Verdana,Geneva,DejaVu Sans,sans-serif" text-rendering="geometricPrecision"><text x="895" y="301" lengthAdjust="spacingAndGlyphs" textLength="1917" transform="scale(0.123)" fill="#0969da">Rinc's GitHub Statistics</text><g transform="translate(0, 60)" fill="#24292f"><g transform="translate(15, 0)"><g transform="scale(0.095)"><text x="0" y="132" textLength="3652" lengthAdjust="spacingAndGlyphs">Language Distribution in Public Repositories</text></g></g><g transform="translate(243, 21)"><circle cx="92" cy="92" r="92" fill="#000000"/></g><g transform="translate(244, 22)"><path fill-rule="evenodd" fill="#f34b7d" d="M 0.0,91.00000000000001 A 91 91 0 0 1 168.45453805060038 43.23186694701062 L 91,91 Z"/><path fill-rule="evenodd" fill="#438eff" d="M 168.45453805060038,43.23186694701062 A 91 91 0 0 1 175.46460296007535 124.86341457674975 L 91,91 Z"/><path fill-rule="evenodd" fill="#555555" d="M 175.46460296007535,124.86341457674975 A 91 91 0 0 1 148.27852842580666 161.7118814724517 L 91,91 Z"/><path fill-rule="evenodd" fill="#dea584" d="M 148.27852842580666,161.7118814724517 A 91 91 0 0 1 110.87140731430657 179.80386912375454 L 91,91 Z"/><path fill-rule="evenodd" fill="#b07219" d="M 110.87140731430657,179.80386912375454 A 91 91 0 0 1 77.09668231023656 180.93162823621904 L 91,91 Z"/><path fill-rule="evenodd" fill="#00ADD8" d="M 77.09668231023656,180.93162823621904 A 91 91 0 0 1 51.16503930535957 172.81794367042264 L 91,91 Z"/><path fill-rule="evenodd" fill="#A97BFF" d="M 51.16503930535957,172.81794367042264 A 91 91 0 0 1 29.765857901693707 158.3155245206069 L 91,91 Z"/><path fill-rule="evenodd" fill="#000080" d="M 29.765857901693707,158.3155245206069 A 91 91 0 0 1 16.645025656214187 143.46272762957483 L 91,91 Z"/><path fill-rule="evenodd" fill="#f1e05a" d="M 16.645025656214187,143.46272762957483 A 91 91 0 0 1 9.442333629079513 131.36517132540905 L 91,91 Z"/><path fill-rule="evenodd" fill="#3178c6" d="M 9.442333629079513,131.36517132540905 A 91 91 0 0 1 5.452295830654819 122.02563958009893 L 91,91 Z"/><path fill-rule="evenodd" fill="#DA3434" d="M 5.452295830654819,122.02563958009893 A 91 91 0 0 1 2.581852122076029 112.52280478556565 L 91,91 Z"/><path fill-rule="evenodd" fill="#6866fb" d="M 2.581852122076029,112.52280478556565 A 91 91 0 0 1 0.8930928412172534 103.71791186785421 L 91,91 Z"/><path fill-rule="evenodd" fill="#89e051" d="M 0.8930928412172534,103.71791186785421 A 91 91 0 0 1 0.10105143227347924 95.28732425666728 L 91,91 Z"/><path fill-rule="evenodd" fill="#427819" d="M 0.10105143227347924,95.28732425666728 A 91 91 0 0 1 0.04431205630228874 93.839512403333 L 91,91 Z"/><path fill-rule="evenodd" fill="#8f14e9" d="M 0.04431205630228874,93.839512403333 A 91 91 0 0 1 0.02167558327116126 92.98607309141487 L 91,91 Z"/><path fill-rule="evenodd" fill="#C1F12E" d="M 0.02167558327116126,92.98607309141487 A 91 91 0 0 1 0.007071933819773335 92.13447870978264 L 91,91 Z"/><path fill-rule="evenodd" fill="#5686a5" d="M 0.007071933819773335,92.13447870978264 A 91 91 0 0 1 0.0011585421273281327 91.45918767944364 L 91,91 Z"/><path fill-rule="evenodd" fill="#e34c26" d="M 0.0011585421273281327,91.45918767944364 A 91 91 0 0 1 0.0001172906456616829 91.14610572799596 L 91,91 Z"/><path fill-rule="evenodd" fill="#701516" d="M 0.0001172906456616829,91.14610572799596 A 91 91 0 0 1 0.0 91.00000000000003 L 91,91 Z"/></g><g transform="translate(15, 21)"><rect x="0.5" y="0.5" rx="2" width="15" height="15" fill="#f34b7d" stroke-width="1" stroke="#000000"/><text transform="scale(0.095)" x="263" y="132" textLength="1074" lengthAdjust="spacingAndGlyphs">C++ 41.20%</text></g><g transform="translate(15, 42)"><rect x="0.5" y="0.5" rx="2" width="15" height="15" fill="#438eff" stroke-width="1" stroke="#000000"/><text transform="scale(0.095)" x="263" y="132" textLength="1642" lengthAdjust="spacingAndGlyphs">Objective-C 14.86%</text></g><g transform="translate(15, 63)"><rect x="0.5" y="0.5" rx="2" width="15" height="15" fill="#555555" stroke-width="1" stroke="#000000"/><text transform="scale(0.095)" x="263" y="132" textLength="693" lengthAdjust="spacingAndGlyphs">C 8.10%</text></g><g transform="translate(15, 84)"><rect x="0.5" y="0.5" rx="2" width="15" height="15" fill="#dea584" stroke-width="1" stroke="#000000"/><text transform="scale(0.095)" x="263" y="132" textLength="946" lengthAdjust="spacingAndGlyphs">Rust 7.33%</text></g><g transform="translate(15, 105)"><rect x="0.5" y="0.5" rx="2" width="15" height="15" fill="#b07219" stroke-width="1" stroke="#000000"/><text transform="scale(0.095)" x="263" y="132" textLength="933" lengthAdjust="spacingAndGlyphs">Java 5.94%</text></g><g transform="translate(15, 126)"><rect x="0.5" y="0.5" rx="2" width="15" height="15" fill="#00ADD8" stroke-width="1" stroke="#000000"/><text transform="scale(0.095)" x="263" y="132" textLength="806" lengthAdjust="spacingAndGlyphs">Go 4.77%</text></g><g transform="translate(15, 147)"><rect x="0.5" y="0.5" rx="2" width="15" height="15" fill="#A97BFF" stroke-width="1" stroke="#000000"/><text transform="scale(0.095)" x="263" y="132" textLength="1048" lengthAdjust="spacingAndGlyphs">Kotlin 4.54%</text></g><g transform="translate(15, 168)"><rect x="0.5" y="0.5" rx="2" width="15" height="15" fill="#000080" stroke-width="1" stroke="#000000"/><text transform="scale(0.095)" x="263" y="132" textLength="874" lengthAdjust="spacingAndGlyphs">Lua 3.47%</text></g><g transform="translate(15, 189)"><rect x="0.5" y="0.5" rx="2" width="15" height="15" fill="#f1e05a" stroke-width="1" stroke="#000000"/><text transform="scale(0.095)" x="263" y="132" textLength="1412" lengthAdjust="spacingAndGlyphs">JavaScript 2.46%</text></g><g transform="translate(15, 210)"><rect x="0.5" y="0.5" rx="2" width="15" height="15" fill="#3178c6" stroke-width="1" stroke="#000000"/><text transform="scale(0.095)" x="263" y="132" textLength="1462" lengthAdjust="spacingAndGlyphs">TypeScript 1.78%</text><rect x="228.5" y="0.5" rx="2" width="15" height="15" fill="#DA3434" stroke-width="1" stroke="#000000"/><text transform="scale(0.095)" x="2663" y="132" textLength="1134" lengthAdjust="spacingAndGlyphs">CMake 1.74%</text></g><g transform="translate(15, 231)"><rect x="0.5" y="0.5" rx="2" width="15" height="15" fill="#6866fb" stroke-width="1" stroke="#000000"/><text transform="scale(0.095)" x="263" y="132" textLength="1814" lengthAdjust="spacingAndGlyphs">Objective-C++ 1.57%</text><rect x="228.5" y="0.5" rx="2" width="15" height="15" fill="#89e051" stroke-width="1" stroke="#000000"/><text transform="scale(0.095)" x="2663" y="132" textLength="982" lengthAdjust="spacingAndGlyphs">Shell 1.48%</text></g><g transform="translate(15, 252)"><rect x="0.5" y="0.5" rx="2" width="15" height="15" fill="#427819" stroke-width="1" stroke="#000000"/><text transform="scale(0.095)" x="263" y="132" textLength="1272" lengthAdjust="spacingAndGlyphs">Makefile 0.25%</text><rect x="228.5" y="0.5" rx="2" width="15" height="15" fill="#8f14e9" stroke-width="1" stroke="#000000"/><text transform="scale(0.095)" x="2663" y="132" textLength="1034" lengthAdjust="spacingAndGlyphs">Metal 0.15%</text></g><g transform="translate(15, 273)"><rect x="0.5" y="0.5" rx="2" width="15" height="15" fill="#C1F12E" stroke-width="1" stroke="#000000"/><text transform="scale(0.095)" x="263" y="132" textLength="1304" lengthAdjust="spacingAndGlyphs">Batchfile 0.15%</text><rect x="228.5" y="0.5" rx="2" width="15" height="15" fill="#5686a5" stroke-width="1" stroke="#000000"/><text transform="scale(0.095)" x="2663" y="132" textLength="993" lengthAdjust="spacingAndGlyphs">GLSL 0.12%</text></g><g transform="translate(15, 294)"><rect x="0.5" y="0.5" rx="2" width="15" height="15" fill="#e34c26" stroke-width="1" stroke="#000000"/><text transform="scale(0.095)" x="263" y="132" textLength="1036" lengthAdjust="spacingAndGlyphs">HTML 0.05%</text><rect x="228.5" y="0.5" rx="2" width="15" height="15" fill="#701516" stroke-width="1" stroke="#000000"/><text transform="scale(0.095)" x="2663" y="132" textLength="999" lengthAdjust="spacingAndGlyphs">Ruby 0.03%</text></g></g></g></svg>