<svg width="457" height="396" viewBox="0 0 457 396" xmlns="http://www.w3.org/2000/svg" lang="en" xml:lang="en"><rect x="2" y="2" stroke-width="4" rx="0" width="453" height="392" stroke="#ffffff" fill="#ffffff"/><g font-weight="600" font-size="110pt" font-family="Verdana,Geneva,DejaVu Sans,sans-serif" text-rendering="geometricPrecision"><text x="895" y="301" lengthAdjust="spacingAndGlyphs" textLength="1917" transform="scale(0.123)" fill="#0969da">Rinc's GitHub Statistics</text><g transform="translate(0, 60)" fill="#24292f"><g transform="translate(15, 0)"><g transform="scale(0.095)"><text x="0" y="132" textLength="3652" lengthAdjust="spacingAndGlyphs">Language Distribution in Public Repositories</text></g></g><g transform="translate(243, 21)"><circle cx="92" cy="92" r="92" fill="#000000"/></g><g transform="translate(244, 22)"><path fill-rule="evenodd" fill="#f34b7d" d="M 0.0,91.00000000000001 A 91 91 0 0 1 174.59035430230767 55.032616614289644 L 91,91 Z"/><path fill-rule="evenodd" fill="#438eff" d="M 174.59035430230767,55.032616614289644 A 91 91 0 0 1 169.2449995794542 137.46202794553005 L 91,91 Z"/><path fill-rule="evenodd" fill="#555555" d="M 169.2449995794542,137.46202794553005 A 91 91 0 0 1 138.3575085174759 168.70628280272578 L 91,91 Z"/><path fill-rule="evenodd" fill="#dea584" d="M 138.3575085174759,168.70628280272578 A 91 91 0 0 1 98.61464323586488 181.68085359319517 L 91,91 Z"/><path fill-rule="evenodd" fill="#b07219" d="M 98.61464323586488,181.68085359319517 A 91 91 0 0 1 64.79700636518027 178.14587267664257 L 91,91 Z"/><path fill-rule="evenodd" fill="#00ADD8" d="M 64.79700636518027,178.14587267664257 A 91 91 0 0 1 40.09498701714919 166.4299652208311 L 91,91 Z"/><path fill-rule="evenodd" fill="#A97BFF" d="M 40.09498701714919,166.4299652208311 A 91 91 0 0 1 20.87439090177888 148.9948182909774 L 91,91 Z"/><path fill-rule="evenodd" fill="#000080" d="M 20.87439090177888,148.9948182909774 A 91 91 0 0 1 11.94573403044869 136.07131052027933 L 91,91 Z"/><path fill-rule="evenodd" fill="#f1e05a" d="M 11.94573403044869,136.07131052027933 A 91 91 0 0 1 5.840475967596433 123.07577694420635 L 91,91 Z"/><path fill-rule="evenodd" fill="#3178c6" d="M 5.840475967596433,123.07577694420635 A 91 91 0 0 1 2.8145083167119083 113.45704915114021 L 91,91 Z"/><path fill-rule="evenodd" fill="#6866fb" d="M 2.8145083167119083,113.45704915114021 A 91 91 0 0 1 1.0157025240093702 104.55825238562946 L 91,91 Z"/><path fill-rule="evenodd" fill="#89e051" d="M 1.0157025240093702,104.55825238562946 A 91 91 0 0 1 0.13414383606216518 95.9392492946358 L 91,91 Z"/><path fill-rule="evenodd" fill="#427819" d="M 0.13414383606216518,95.9392492946358 A 91 91 0 0 1 0.06667408066203961 94.48284901301494 L 91,91 Z"/><path fill-rule="evenodd" fill="#8f14e9" d="M 0.06667408066203961,94.48284901301494 A 91 91 0 0 1 0.03784731355619897 93.62426725927153 L 91,91 Z"/><path fill-rule="evenodd" fill="#C1F12E" d="M 0.03784731355619897,93.62426725927153 A 91 91 0 0 1 0.017166447722445355 92.76748374774948 L 91,91 Z"/><path fill-rule="evenodd" fill="#5686a5" d="M 0.017166447722445355,92.76748374774948 A 91 91 0 0 1 0.006504768422743723 92.08803747220705 L 91,91 Z"/><path fill-rule="evenodd" fill="#DA3434" d="M 0.006504768422743723,92.08803747220705 A 91 91 0 0 1 0.001173042502855992 91.46205233414766 L 91,91 Z"/><path fill-rule="evenodd" fill="#e34c26" d="M 0.001173042502855992,91.46205233414766 A 91 91 0 0 1 0.00011875866452726314 91.14701721953297 L 91,91 Z"/><path fill-rule="evenodd" fill="#701516" d="M 0.00011875866452726314,91.14701721953297 A 91 91 0 0 1 0.0 91.00000000000003 L 91,91 Z"/></g><g transform="translate(15, 21)"><rect x="0.5" y="0.5" rx="2" width="15" height="15" fill="#f34b7d" stroke-width="1" stroke="#000000"/><text transform="scale(0.095)" x="263" y="132" textLength="1074" lengthAdjust="spacingAndGlyphs">C++ 43.53%</text></g><g transform="translate(15, 42)"><rect x="0.5" y="0.5" rx="2" width="15" height="15" fill="#438eff" stroke-width="1" stroke="#000000"/><text transform="scale(0.095)" x="263" y="132" textLength="1642" lengthAdjust="spacingAndGlyphs">Objective-C 15.00%</text></g><g transform="translate(15, 63)"><rect x="0.5" y="0.5" rx="2" width="15" height="15" fill="#555555" stroke-width="1" stroke="#000000"/><text transform="scale(0.095)" x="263" y="132" textLength="693" lengthAdjust="spacingAndGlyphs">C 7.76%</text></g><g transform="translate(15, 84)"><rect x="0.5" y="0.5" rx="2" width="15" height="15" fill="#dea584" stroke-width="1" stroke="#000000"/><text transform="scale(0.095)" x="263" y="132" textLength="946" lengthAdjust="spacingAndGlyphs">Rust 7.38%</text></g><g transform="translate(15, 105)"><rect x="0.5" y="0.5" rx="2" width="15" height="15" fill="#b07219" stroke-width="1" stroke="#000000"/><text transform="scale(0.095)" x="263" y="132" textLength="933" lengthAdjust="spacingAndGlyphs">Java 5.98%</text></g><g transform="translate(15, 126)"><rect x="0.5" y="0.5" rx="2" width="15" height="15" fill="#00ADD8" stroke-width="1" stroke="#000000"/><text transform="scale(0.095)" x="263" y="132" textLength="806" lengthAdjust="spacingAndGlyphs">Go 4.80%</text></g><g transform="translate(15, 147)"><rect x="0.5" y="0.5" rx="2" width="15" height="15" fill="#A97BFF" stroke-width="1" stroke="#000000"/><text transform="scale(0.095)" x="263" y="132" textLength="1048" lengthAdjust="spacingAndGlyphs">Kotlin 4.55%</text></g><g transform="translate(15, 168)"><rect x="0.5" y="0.5" rx="2" width="15" height="15" fill="#000080" stroke-width="1" stroke="#000000"/><text transform="scale(0.095)" x="263" y="132" textLength="874" lengthAdjust="spacingAndGlyphs">Lua 2.75%</text></g><g transform="translate(15, 189)"><rect x="0.5" y="0.5" rx="2" width="15" height="15" fill="#f1e05a" stroke-width="1" stroke="#000000"/><text transform="scale(0.095)" x="263" y="132" textLength="1412" lengthAdjust="spacingAndGlyphs">JavaScript 2.51%</text></g><g transform="translate(15, 210)"><rect x="0.5" y="0.5" rx="2" width="15" height="15" fill="#3178c6" stroke-width="1" stroke="#000000"/><text transform="scale(0.095)" x="263" y="132" textLength="1462" lengthAdjust="spacingAndGlyphs">TypeScript 1.76%</text><rect x="228.5" y="0.5" rx="2" width="15" height="15" fill="#6866fb" stroke-width="1" stroke="#000000"/><text transform="scale(0.095)" x="2663" y="132" textLength="1814" lengthAdjust="spacingAndGlyphs">Objective-C++ 1.59%</text></g><g transform="translate(15, 231)"><rect x="0.5" y="0.5" rx="2" width="15" height="15" fill="#89e051" stroke-width="1" stroke="#000000"/><text transform="scale(0.095)" x="263" y="132" textLength="982" lengthAdjust="spacingAndGlyphs">Shell 1.52%</text><rect x="228.5" y="0.5" rx="2" width="15" height="15" fill="#427819" stroke-width="1" stroke="#000000"/><text transform="scale(0.095)" x="2663" y="132" textLength="1272" lengthAdjust="spacingAndGlyphs">Makefile 0.25%</text></g><g transform="translate(15, 252)"><rect x="0.5" y="0.5" rx="2" width="15" height="15" fill="#8f14e9" stroke-width="1" stroke="#000000"/><text transform="scale(0.095)" x="263" y="132" textLength="1034" lengthAdjust="spacingAndGlyphs">Metal 0.15%</text><rect x="228.5" y="0.5" rx="2" width="15" height="15" fill="#C1F12E" stroke-width="1" stroke="#000000"/><text transform="scale(0.095)" x="2663" y="132" textLength="1304" lengthAdjust="spacingAndGlyphs">Batchfile 0.15%</text></g><g transform="translate(15, 273)"><rect x="0.5" y="0.5" rx="2" width="15" height="15" fill="#5686a5" stroke-width="1" stroke="#000000"/><text transform="scale(0.095)" x="263" y="132" textLength="993" lengthAdjust="spacingAndGlyphs">GLSL 0.12%</text><rect x="228.5" y="0.5" rx="2" width="15" height="15" fill="#DA3434" stroke-width="1" stroke="#000000"/><text transform="scale(0.095)" x="2663" y="132" textLength="1134" lengthAdjust="spacingAndGlyphs">CMake 0.11%</text></g><g transform="translate(15, 294)"><rect x="0.5" y="0.5" rx="2" width="15" height="15" fill="#e34c26" stroke-width="1" stroke="#000000"/><text transform="scale(0.095)" x="263" y="132" textLength="1036" lengthAdjust="spacingAndGlyphs">HTML 0.06%</text><rect x="228.5" y="0.5" rx="2" width="15" height="15" fill="#701516" stroke-width="1" stroke="#000000"/><text transform="scale(0.095)" x="2663" y="132" textLength="999" lengthAdjust="spacingAndGlyphs">Ruby 0.03%</text></g></g></g></svg>