<svg width="457" height="396" viewBox="0 0 457 396" xmlns="http://www.w3.org/2000/svg" lang="en" xml:lang="en"><rect x="2" y="2" stroke-width="4" rx="0" width="453" height="392" stroke="#ffffff" fill="#ffffff"/><g font-weight="600" font-size="110pt" font-family="Verdana,Geneva,DejaVu Sans,sans-serif" text-rendering="geometricPrecision"><text x="895" y="301" lengthAdjust="spacingAndGlyphs" textLength="1917" transform="scale(0.123)" fill="#0969da">Rinc's GitHub Statistics</text><g transform="translate(0, 60)" fill="#24292f"><g transform="translate(15, 0)"><g transform="scale(0.095)"><text x="0" y="132" textLength="3652" lengthAdjust="spacingAndGlyphs">Language Distribution in Public Repositories</text></g></g><g transform="translate(243, 21)"><circle cx="92" cy="92" r="92" fill="#000000"/></g><g transform="translate(244, 22)"><path fill-rule="evenodd" fill="#f34b7d" d="M 0.0,91.00000000000001 A 91 91 0 0 1 177.62593935811958 63.12623760014823 L 91,91 Z"/><path fill-rule="evenodd" fill="#438eff" d="M 177.62593935811958,63.12623760014823 A 91 91 0 0 1 165.8492489970687 142.75509563873692 L 91,91 Z"/><path fill-rule="evenodd" fill="#555555" d="M 165.8492489970687,142.75509563873692 A 91 91 0 0 1 133.884981763812 171.2613128419758 L 91,91 Z"/><path fill-rule="evenodd" fill="#dea584" d="M 133.884981763812,171.2613128419758 A 91 91 0 0 1 94.63089524375766 181.9275348820634 L 91,91 Z"/><path fill-rule="evenodd" fill="#b07219" d="M 94.63089524375766,181.9275348820634 A 91 91 0 0 1 61.89025173001489 177.21845832336658 L 91,91 Z"/><path fill-rule="evenodd" fill="#00ADD8" d="M 61.89025173001489,177.21845832336658 A 91 91 0 0 1 38.207681735826895 165.12132710829087 L 91,91 Z"/><path fill-rule="evenodd" fill="#A97BFF" d="M 38.207681735826895,165.12132710829087 A 91 91 0 0 1 19.855433153663213 147.74020275119852 L 91,91 Z"/><path fill-rule="evenodd" fill="#000080" d="M 19.855433153663213,147.74020275119852 A 91 91 0 0 1 11.311308948134055 134.939873901051 L 91,91 Z"/><path fill-rule="evenodd" fill="#f1e05a" d="M 11.311308948134055,134.939873901051 A 91 91 0 0 1 5.484979796131313 122.11561215100758 L 91,91 Z"/><path fill-rule="evenodd" fill="#3178c6" d="M 5.484979796131313,122.11561215100758 A 91 91 0 0 1 2.617079597969692 112.66701135847711 L 91,91 Z"/><path fill-rule="evenodd" fill="#6866fb" d="M 2.617079597969692,112.66701135847711 A 91 91 0 0 1 0.9328432986790034 103.9964335007604 L 91,91 Z"/><path fill-rule="evenodd" fill="#89e051" d="M 0.9328432986790034,103.9964335007604 A 91 91 0 0 1 0.12687013947065395 95.80356839769865 L 91,91 Z"/><path fill-rule="evenodd" fill="#427819" d="M 0.12687013947065395,95.80356839769865 A 91 91 0 0 1 0.0630583815455168 94.38712991805747 L 91,91 Z"/><path fill-rule="evenodd" fill="#8f14e9" d="M 0.0630583815455168,94.38712991805747 A 91 91 0 0 1 0.03579477181507684 93.55212993490836 L 91,91 Z"/><path fill-rule="evenodd" fill="#C1F12E" d="M 0.03579477181507684,93.55212993490836 A 91 91 0 0 1 0.0162354407464278 92.71889110368096 L 91,91 Z"/><path fill-rule="evenodd" fill="#5686a5" d="M 0.0162354407464278,92.71889110368096 A 91 91 0 0 1 0.006151981595365896 92.0581223008144 L 91,91 Z"/><path fill-rule="evenodd" fill="#DA3434" d="M 0.006151981595365896,92.0581223008144 A 91 91 0 0 1 0.001109421826754442 91.44934790714004 L 91,91 Z"/><path fill-rule="evenodd" fill="#e34c26" d="M 0.001109421826754442,91.44934790714004 A 91 91 0 0 1 0.00011231770410802255 91.14297485629145 L 91,91 Z"/><path fill-rule="evenodd" fill="#701516" d="M 0.00011231770410802255,91.14297485629145 A 91 91 0 0 1 0.0 91.00000000000003 L 91,91 Z"/></g><g transform="translate(15, 21)"><rect x="0.5" y="0.5" rx="2" width="15" height="15" fill="#f34b7d" stroke-width="1" stroke="#000000"/><text transform="scale(0.095)" x="263" y="132" textLength="1074" lengthAdjust="spacingAndGlyphs">C++ 45.05%</text></g><g transform="translate(15, 42)"><rect x="0.5" y="0.5" rx="2" width="15" height="15" fill="#438eff" stroke-width="1" stroke="#000000"/><text transform="scale(0.095)" x="263" y="132" textLength="1642" lengthAdjust="spacingAndGlyphs">Objective-C 14.58%</text></g><g transform="translate(15, 63)"><rect x="0.5" y="0.5" rx="2" width="15" height="15" fill="#555555" stroke-width="1" stroke="#000000"/><text transform="scale(0.095)" x="263" y="132" textLength="693" lengthAdjust="spacingAndGlyphs">C 7.56%</text></g><g transform="translate(15, 84)"><rect x="0.5" y="0.5" rx="2" width="15" height="15" fill="#dea584" stroke-width="1" stroke="#000000"/><text transform="scale(0.095)" x="263" y="132" textLength="946" lengthAdjust="spacingAndGlyphs">Rust 7.17%</text></g><g transform="translate(15, 105)"><rect x="0.5" y="0.5" rx="2" width="15" height="15" fill="#b07219" stroke-width="1" stroke="#000000"/><text transform="scale(0.095)" x="263" y="132" textLength="933" lengthAdjust="spacingAndGlyphs">Java 5.82%</text></g><g transform="translate(15, 126)"><rect x="0.5" y="0.5" rx="2" width="15" height="15" fill="#00ADD8" stroke-width="1" stroke="#000000"/><text transform="scale(0.095)" x="263" y="132" textLength="806" lengthAdjust="spacingAndGlyphs">Go 4.67%</text></g><g transform="translate(15, 147)"><rect x="0.5" y="0.5" rx="2" width="15" height="15" fill="#A97BFF" stroke-width="1" stroke="#000000"/><text transform="scale(0.095)" x="263" y="132" textLength="1048" lengthAdjust="spacingAndGlyphs">Kotlin 4.44%</text></g><g transform="translate(15, 168)"><rect x="0.5" y="0.5" rx="2" width="15" height="15" fill="#000080" stroke-width="1" stroke="#000000"/><text transform="scale(0.095)" x="263" y="132" textLength="874" lengthAdjust="spacingAndGlyphs">Lua 2.69%</text></g><g transform="translate(15, 189)"><rect x="0.5" y="0.5" rx="2" width="15" height="15" fill="#f1e05a" stroke-width="1" stroke="#000000"/><text transform="scale(0.095)" x="263" y="132" textLength="1412" lengthAdjust="spacingAndGlyphs">JavaScript 2.47%</text></g><g transform="translate(15, 210)"><rect x="0.5" y="0.5" rx="2" width="15" height="15" fill="#3178c6" stroke-width="1" stroke="#000000"/><text transform="scale(0.095)" x="263" y="132" textLength="1462" lengthAdjust="spacingAndGlyphs">TypeScript 1.73%</text><rect x="228.5" y="0.5" rx="2" width="15" height="15" fill="#6866fb" stroke-width="1" stroke="#000000"/><text transform="scale(0.095)" x="2663" y="132" textLength="1814" lengthAdjust="spacingAndGlyphs">Objective-C++ 1.55%</text></g><g transform="translate(15, 231)"><rect x="0.5" y="0.5" rx="2" width="15" height="15" fill="#89e051" stroke-width="1" stroke="#000000"/><text transform="scale(0.095)" x="263" y="132" textLength="982" lengthAdjust="spacingAndGlyphs">Shell 1.44%</text><rect x="228.5" y="0.5" rx="2" width="15" height="15" fill="#427819" stroke-width="1" stroke="#000000"/><text transform="scale(0.095)" x="2663" y="132" textLength="1272" lengthAdjust="spacingAndGlyphs">Makefile 0.25%</text></g><g transform="translate(15, 252)"><rect x="0.5" y="0.5" rx="2" width="15" height="15" fill="#8f14e9" stroke-width="1" stroke="#000000"/><text transform="scale(0.095)" x="263" y="132" textLength="1034" lengthAdjust="spacingAndGlyphs">Metal 0.15%</text><rect x="228.5" y="0.5" rx="2" width="15" height="15" fill="#C1F12E" stroke-width="1" stroke="#000000"/><text transform="scale(0.095)" x="2663" y="132" textLength="1304" lengthAdjust="spacingAndGlyphs">Batchfile 0.15%</text></g><g transform="translate(15, 273)"><rect x="0.5" y="0.5" rx="2" width="15" height="15" fill="#5686a5" stroke-width="1" stroke="#000000"/><text transform="scale(0.095)" x="263" y="132" textLength="993" lengthAdjust="spacingAndGlyphs">GLSL 0.12%</text><rect x="228.5" y="0.5" rx="2" width="15" height="15" fill="#DA3434" stroke-width="1" stroke="#000000"/><text transform="scale(0.095)" x="2663" y="132" textLength="1134" lengthAdjust="spacingAndGlyphs">CMake 0.11%</text></g><g transform="translate(15, 294)"><rect x="0.5" y="0.5" rx="2" width="15" height="15" fill="#e34c26" stroke-width="1" stroke="#000000"/><text transform="scale(0.095)" x="263" y="132" textLength="1036" lengthAdjust="spacingAndGlyphs">HTML 0.05%</text><rect x="228.5" y="0.5" rx="2" width="15" height="15" fill="#701516" stroke-width="1" stroke="#000000"/><text transform="scale(0.095)" x="2663" y="132" textLength="999" lengthAdjust="spacingAndGlyphs">Ruby 0.03%</text></g></g></g></svg>