<svg width="457" height="354" viewBox="0 0 457 354" xmlns="http://www.w3.org/2000/svg" lang="en" xml:lang="en"><rect x="2" y="2" stroke-width="4" rx="0" width="453" height="350" stroke="#ffffff" fill="#ffffff"/><g font-weight="600" font-size="110pt" font-family="Verdana,Geneva,DejaVu Sans,sans-serif" text-rendering="geometricPrecision"><text x="946" y="301" lengthAdjust="spacingAndGlyphs" textLength="1816" transform="scale(0.123)" fill="#0969da">~#./code-lang-stat.sh</text><g transform="translate(0, 60)" fill="#24292f"><g transform="translate(15, 0)"><g transform="scale(0.095)"><text x="0" y="132" textLength="3652" lengthAdjust="spacingAndGlyphs">Language Distribution in Public Repositories</text></g></g><g transform="translate(243, 21)"><circle cx="92" cy="92" r="92" fill="#000000"/></g><g transform="translate(244, 22)"><path fill-rule="evenodd" fill="#f34b7d" d="M 0.0,91.00000000000001 A 91 91 0 0 1 181.12893002425892 78.43910939932036 L 91,91 Z"/><path fill-rule="evenodd" fill="#438eff" d="M 181.12893002425892,78.43910939932036 A 91 91 0 0 1 156.9516442627504 153.70072263570512 L 91,91 Z"/><path fill-rule="evenodd" fill="#555555" d="M 156.9516442627504,153.70072263570512 A 91 91 0 0 1 120.94357671244019 176.93242818439504 L 91,91 Z"/><path fill-rule="evenodd" fill="#dea584" d="M 120.94357671244019,176.93242818439504 A 91 91 0 0 1 81.2917953495297 181.48066513053817 L 91,91 Z"/><path fill-rule="evenodd" fill="#b07219" d="M 81.2917953495297,181.48066513053817 A 91 91 0 0 1 50.159953723996054 172.32091133388667 L 91,91 Z"/><path fill-rule="evenodd" fill="#00ADD8" d="M 50.159953723996054,172.32091133388667 A 91 91 0 0 1 28.76580958486266 157.39205933974654 L 91,91 Z"/><path fill-rule="evenodd" fill="#A97BFF" d="M 28.76580958486266,157.39205933974654 A 91 91 0 0 1 13.109663171604154 138.05417546572292 L 91,91 Z"/><path fill-rule="evenodd" fill="#000080" d="M 13.109663171604154,138.05417546572292 A 91 91 0 0 1 6.518445310579125 124.82110165648643 L 91,91 Z"/><path fill-rule="evenodd" fill="#f1e05a" d="M 6.518445310579125,124.82110165648643 A 91 91 0 0 1 2.253934601437578 111.12798738756764 L 91,91 Z"/><path fill-rule="evenodd" fill="#3178c6" d="M 2.253934601437578,111.12798738756764 A 91 91 0 0 1 0.6434593289680066 101.80257182175343 L 91,91 Z"/><path fill-rule="evenodd" fill="#6866fb" d="M 0.6434593289680066,101.80257182175343 A 91 91 0 0 1 0.017139981406685934 92.76612084440848 L 91,91 Z"/><path fill-rule="evenodd" fill="#8f14e9" d="M 0.017139981406685934,92.76612084440848 A 91 91 0 0 1 0.004925111293204054 91.94675551154658 L 91,91 Z"/><path fill-rule="evenodd" fill="#5686a5" d="M 0.004925111293204054,91.94675551154658 A 91 91 0 0 1 0.0004898107115707262 91.29857211790913 L 91,91 Z"/><path fill-rule="evenodd" fill="#959da5" d="M 0.0004898107115707262,91.29857211790913 A 91 91 0 0 1 0.0 91.00000000000003 L 91,91 Z"/></g><g transform="translate(15, 21)"><rect x="0.5" y="0.5" rx="2" width="15" height="15" fill="#f34b7d" stroke-width="1" stroke="#000000"/><text transform="scale(0.095)" x="263" y="132" textLength="1074" lengthAdjust="spacingAndGlyphs">C++ 47.80%</text></g><g transform="translate(15, 42)"><rect x="0.5" y="0.5" rx="2" width="15" height="15" fill="#438eff" stroke-width="1" stroke="#000000"/><text transform="scale(0.095)" x="263" y="132" textLength="1642" lengthAdjust="spacingAndGlyphs">Objective-C 14.30%</text></g><g transform="translate(15, 63)"><rect x="0.5" y="0.5" rx="2" width="15" height="15" fill="#555555" stroke-width="1" stroke="#000000"/><text transform="scale(0.095)" x="263" y="132" textLength="693" lengthAdjust="spacingAndGlyphs">C 7.57%</text></g><g transform="translate(15, 84)"><rect x="0.5" y="0.5" rx="2" width="15" height="15" fill="#dea584" stroke-width="1" stroke="#000000"/><text transform="scale(0.095)" x="263" y="132" textLength="946" lengthAdjust="spacingAndGlyphs">Rust 7.04%</text></g><g transform="translate(15, 105)"><rect x="0.5" y="0.5" rx="2" width="15" height="15" fill="#b07219" stroke-width="1" stroke="#000000"/><text transform="scale(0.095)" x="263" y="132" textLength="933" lengthAdjust="spacingAndGlyphs">Java 5.71%</text></g><g transform="translate(15, 126)"><rect x="0.5" y="0.5" rx="2" width="15" height="15" fill="#00ADD8" stroke-width="1" stroke="#000000"/><text transform="scale(0.095)" x="263" y="132" textLength="806" lengthAdjust="spacingAndGlyphs">Go 4.58%</text></g><g transform="translate(15, 147)"><rect x="0.5" y="0.5" rx="2" width="15" height="15" fill="#A97BFF" stroke-width="1" stroke="#000000"/><text transform="scale(0.095)" x="263" y="132" textLength="1048" lengthAdjust="spacingAndGlyphs">Kotlin 4.37%</text></g><g transform="translate(15, 168)"><rect x="0.5" y="0.5" rx="2" width="15" height="15" fill="#000080" stroke-width="1" stroke="#000000"/><text transform="scale(0.095)" x="263" y="132" textLength="874" lengthAdjust="spacingAndGlyphs">Lua 2.59%</text></g><g transform="translate(15, 189)"><rect x="0.5" y="0.5" rx="2" width="15" height="15" fill="#f1e05a" stroke-width="1" stroke="#000000"/><text transform="scale(0.095)" x="263" y="132" textLength="1412" lengthAdjust="spacingAndGlyphs">JavaScript 2.51%</text></g><g transform="translate(15, 210)"><rect x="0.5" y="0.5" rx="2" width="15" height="15" fill="#3178c6" stroke-width="1" stroke="#000000"/><text transform="scale(0.095)" x="263" y="132" textLength="1462" lengthAdjust="spacingAndGlyphs">TypeScript 1.66%</text><rect x="228.5" y="0.5" rx="2" width="15" height="15" fill="#6866fb" stroke-width="1" stroke="#000000"/><text transform="scale(0.095)" x="2663" y="132" textLength="1814" lengthAdjust="spacingAndGlyphs">Objective-C++ 1.58%</text></g><g transform="translate(15, 231)"><rect x="0.5" y="0.5" rx="2" width="15" height="15" fill="#8f14e9" stroke-width="1" stroke="#000000"/><text transform="scale(0.095)" x="263" y="132" textLength="1034" lengthAdjust="spacingAndGlyphs">Metal 0.14%</text><rect x="228.5" y="0.5" rx="2" width="15" height="15" fill="#5686a5" stroke-width="1" stroke="#000000"/><text transform="scale(0.095)" x="2663" y="132" textLength="993" lengthAdjust="spacingAndGlyphs">GLSL 0.11%</text></g><g transform="translate(15, 252)"><rect x="0.5" y="0.5" rx="2" width="15" height="15" fill="#959da5" stroke-width="1" stroke="#000000"/><text transform="scale(0.095)" x="263" y="132" textLength="1047" lengthAdjust="spacingAndGlyphs">Other 0.05%</text></g></g></g></svg>