<svg width="457" height="396" viewBox="0 0 457 396" xmlns="http://www.w3.org/2000/svg" lang="en" xml:lang="en"><rect x="2" y="2" stroke-width="4" rx="0" width="453" height="392" stroke="#ffffff" fill="#ffffff"/><g font-weight="600" font-size="110pt" font-family="Verdana,Geneva,DejaVu Sans,sans-serif" text-rendering="geometricPrecision"><text x="895" y="301" lengthAdjust="spacingAndGlyphs" textLength="1917" transform="scale(0.123)" fill="#0969da">Rinc's GitHub Statistics</text><g transform="translate(0, 60)" fill="#24292f"><g transform="translate(15, 0)"><g transform="scale(0.095)"><text x="0" y="132" textLength="3652" lengthAdjust="spacingAndGlyphs">Language Distribution in Public Repositories</text></g></g><g transform="translate(243, 21)"><circle cx="92" cy="92" r="92" fill="#000000"/></g><g transform="translate(244, 22)"><path fill-rule="evenodd" fill="#f34b7d" d="M 0.0,91.00000000000001 A 91 91 0 0 1 175.10077697140707 56.24285234939948 L 91,91 Z"/><path fill-rule="evenodd" fill="#438eff" d="M 175.10077697140707,56.24285234939948 A 91 91 0 0 1 163.60914534442506 145.8535505902048 L 91,91 Z"/><path fill-rule="evenodd" fill="#555555" d="M 163.60914534442506,145.8535505902048 A 91 91 0 0 1 123.03841976806126 176.173585452096 L 91,91 Z"/><path fill-rule="evenodd" fill="#b07219" d="M 123.03841976806126,176.173585452096 A 91 91 0 0 1 85.93170775783739 181.8587497919052 L 91,91 Z"/><path fill-rule="evenodd" fill="#00ADD8" d="M 85.93170775783739,181.8587497919052 A 91 91 0 0 1 56.477292704604956 175.19728428516254 L 91,91 Z"/><path fill-rule="evenodd" fill="#A97BFF" d="M 56.477292704604956,175.19728428516254 A 91 91 0 0 1 32.01915990459123 160.29834414789303 L 91,91 Z"/><path fill-rule="evenodd" fill="#000080" d="M 32.01915990459123,160.29834414789303 A 91 91 0 0 1 17.066136866668458 144.05453686709365 L 91,91 Z"/><path fill-rule="evenodd" fill="#f1e05a" d="M 17.066136866668458,144.05453686709365 A 91 91 0 0 1 9.045985152283109 130.55425957264526 L 91,91 Z"/><path fill-rule="evenodd" fill="#3178c6" d="M 9.045985152283109,130.55425957264526 A 91 91 0 0 1 4.7768390021380185 120.09581597990974 L 91,91 Z"/><path fill-rule="evenodd" fill="#6866fb" d="M 4.7768390021380185,120.09581597990974 A 91 91 0 0 1 2.2658372695509996 111.18039554929967 L 91,91 Z"/><path fill-rule="evenodd" fill="#DA3434" d="M 2.2658372695509996,111.18039554929967 A 91 91 0 0 1 0.6981581845135025 102.25066063530736 L 91,91 Z"/><path fill-rule="evenodd" fill="#89e051" d="M 0.6981581845135025,102.25066063530736 A 91 91 0 0 1 0.10022752368678312 95.26982010797771 L 91,91 Z"/><path fill-rule="evenodd" fill="#427819" d="M 0.10022752368678312,95.26982010797771 A 91 91 0 0 1 0.03886247234237317 93.65922162945358 L 91,91 Z"/><path fill-rule="evenodd" fill="#8f14e9" d="M 0.03886247234237317,93.65922162945358 A 91 91 0 0 1 0.016064197702021943 92.70980289019552 L 91,91 Z"/><path fill-rule="evenodd" fill="#5686a5" d="M 0.016064197702021943,92.70980289019552 A 91 91 0 0 1 0.005049820232159163 91.95866666864312 L 91,91 Z"/><path fill-rule="evenodd" fill="#C1F12E" d="M 0.005049820232159163,91.95866666864312 A 91 91 0 0 1 0.0014335987196290034 91.51079635058143 L 91,91 Z"/><path fill-rule="evenodd" fill="#e34c26" d="M 0.0014335987196290034,91.51079635058143 A 91 91 0 0 1 0.00014513740295285515 91.16252687861807 L 91,91 Z"/><path fill-rule="evenodd" fill="#701516" d="M 0.00014513740295285515,91.16252687861807 A 91 91 0 0 1 0.0 91.00000000000003 L 91,91 Z"/></g><g transform="translate(15, 21)"><rect x="0.5" y="0.5" rx="2" width="15" height="15" fill="#f34b7d" stroke-width="1" stroke="#000000"/><text transform="scale(0.095)" x="263" y="132" textLength="1074" lengthAdjust="spacingAndGlyphs">C++ 43.76%</text></g><g transform="translate(15, 42)"><rect x="0.5" y="0.5" rx="2" width="15" height="15" fill="#438eff" stroke-width="1" stroke="#000000"/><text transform="scale(0.095)" x="263" y="132" textLength="1642" lengthAdjust="spacingAndGlyphs">Objective-C 16.53%</text></g><g transform="translate(15, 63)"><rect x="0.5" y="0.5" rx="2" width="15" height="15" fill="#555555" stroke-width="1" stroke="#000000"/><text transform="scale(0.095)" x="263" y="132" textLength="693" lengthAdjust="spacingAndGlyphs">C 8.98%</text></g><g transform="translate(15, 84)"><rect x="0.5" y="0.5" rx="2" width="15" height="15" fill="#b07219" stroke-width="1" stroke="#000000"/><text transform="scale(0.095)" x="263" y="132" textLength="933" lengthAdjust="spacingAndGlyphs">Java 6.61%</text></g><g transform="translate(15, 105)"><rect x="0.5" y="0.5" rx="2" width="15" height="15" fill="#00ADD8" stroke-width="1" stroke="#000000"/><text transform="scale(0.095)" x="263" y="132" textLength="806" lengthAdjust="spacingAndGlyphs">Go 5.31%</text></g><g transform="translate(15, 126)"><rect x="0.5" y="0.5" rx="2" width="15" height="15" fill="#A97BFF" stroke-width="1" stroke="#000000"/><text transform="scale(0.095)" x="263" y="132" textLength="1048" lengthAdjust="spacingAndGlyphs">Kotlin 5.03%</text></g><g transform="translate(15, 147)"><rect x="0.5" y="0.5" rx="2" width="15" height="15" fill="#000080" stroke-width="1" stroke="#000000"/><text transform="scale(0.095)" x="263" y="132" textLength="874" lengthAdjust="spacingAndGlyphs">Lua 3.87%</text></g><g transform="translate(15, 168)"><rect x="0.5" y="0.5" rx="2" width="15" height="15" fill="#f1e05a" stroke-width="1" stroke="#000000"/><text transform="scale(0.095)" x="263" y="132" textLength="1412" lengthAdjust="spacingAndGlyphs">JavaScript 2.75%</text></g><g transform="translate(15, 189)"><rect x="0.5" y="0.5" rx="2" width="15" height="15" fill="#3178c6" stroke-width="1" stroke="#000000"/><text transform="scale(0.095)" x="263" y="132" textLength="1462" lengthAdjust="spacingAndGlyphs">TypeScript 1.98%</text></g><g transform="translate(15, 210)"><rect x="0.5" y="0.5" rx="2" width="15" height="15" fill="#6866fb" stroke-width="1" stroke="#000000"/><text transform="scale(0.095)" x="263" y="132" textLength="1814" lengthAdjust="spacingAndGlyphs">Objective-C++ 1.62%</text><rect x="228.5" y="0.5" rx="2" width="15" height="15" fill="#DA3434" stroke-width="1" stroke="#000000"/><text transform="scale(0.095)" x="2663" y="132" textLength="1134" lengthAdjust="spacingAndGlyphs">CMake 1.59%</text></g><g transform="translate(15, 231)"><rect x="0.5" y="0.5" rx="2" width="15" height="15" fill="#89e051" stroke-width="1" stroke="#000000"/><text transform="scale(0.095)" x="263" y="132" textLength="982" lengthAdjust="spacingAndGlyphs">Shell 1.23%</text><rect x="228.5" y="0.5" rx="2" width="15" height="15" fill="#427819" stroke-width="1" stroke="#000000"/><text transform="scale(0.095)" x="2663" y="132" textLength="1272" lengthAdjust="spacingAndGlyphs">Makefile 0.28%</text></g><g transform="translate(15, 252)"><rect x="0.5" y="0.5" rx="2" width="15" height="15" fill="#8f14e9" stroke-width="1" stroke="#000000"/><text transform="scale(0.095)" x="263" y="132" textLength="1034" lengthAdjust="spacingAndGlyphs">Metal 0.17%</text><rect x="228.5" y="0.5" rx="2" width="15" height="15" fill="#5686a5" stroke-width="1" stroke="#000000"/><text transform="scale(0.095)" x="2663" y="132" textLength="993" lengthAdjust="spacingAndGlyphs">GLSL 0.13%</text></g><g transform="translate(15, 273)"><rect x="0.5" y="0.5" rx="2" width="15" height="15" fill="#C1F12E" stroke-width="1" stroke="#000000"/><text transform="scale(0.095)" x="263" y="132" textLength="1304" lengthAdjust="spacingAndGlyphs">Batchfile 0.08%</text><rect x="228.5" y="0.5" rx="2" width="15" height="15" fill="#e34c26" stroke-width="1" stroke="#000000"/><text transform="scale(0.095)" x="2663" y="132" textLength="1036" lengthAdjust="spacingAndGlyphs">HTML 0.06%</text></g><g transform="translate(15, 294)"><rect x="0.5" y="0.5" rx="2" width="15" height="15" fill="#701516" stroke-width="1" stroke="#000000"/><text transform="scale(0.095)" x="263" y="132" textLength="999" lengthAdjust="spacingAndGlyphs">Ruby 0.03%</text></g></g></g></svg>