<svg width="457" height="375" viewBox="0 0 457 375" xmlns="http://www.w3.org/2000/svg" lang="en" xml:lang="en"><rect x="2" y="2" stroke-width="4" rx="0" width="453" height="371" stroke="#ffffff" fill="#ffffff"/><g font-weight="600" font-size="110pt" font-family="Verdana,Geneva,DejaVu Sans,sans-serif" text-rendering="geometricPrecision"><text x="895" y="301" lengthAdjust="spacingAndGlyphs" textLength="1917" transform="scale(0.123)" fill="#0969da">Rinc's GitHub Statistics</text><g transform="translate(0, 60)" fill="#24292f"><g transform="translate(15, 0)"><g transform="scale(0.095)"><text x="0" y="132" textLength="3652" lengthAdjust="spacingAndGlyphs">Language Distribution in Public Repositories</text></g></g><g transform="translate(243, 21)"><circle cx="92" cy="92" r="92" fill="#000000"/></g><g transform="translate(244, 22)"><path fill-rule="evenodd" fill="#555555" d="M 0.0,91.00000000000001 A 91 91 0 0 1 172.2931887975382 50.10479911862749 L 91,91 Z"/><path fill-rule="evenodd" fill="#f34b7d" d="M 172.2931887975382,50.10479911862749 A 91 91 0 0 1 133.88395144123442 171.26186335231603 L 91,91 Z"/><path fill-rule="evenodd" fill="#427819" d="M 133.88395144123442,171.26186335231603 A 91 91 0 0 1 88.24187244255276 181.95819222245376 L 91,91 Z"/><path fill-rule="evenodd" fill="#438eff" d="M 88.24187244255276,181.95819222245376 A 91 91 0 0 1 47.047225418906436 170.681576331192 L 91,91 Z"/><path fill-rule="evenodd" fill="#dea584" d="M 47.047225418906436,170.681576331192 A 91 91 0 0 1 29.828080651704816 158.37207346702095 L 91,91 Z"/><path fill-rule="evenodd" fill="#b07219" d="M 29.828080651704816,158.37207346702095 A 91 91 0 0 1 17.861343862693644 145.14551669740405 L 91,91 Z"/><path fill-rule="evenodd" fill="#00ADD8" d="M 17.861343862693644,145.14551669740405 A 91 91 0 0 1 10.520372681582444 133.47386945745134 L 91,91 Z"/><path fill-rule="evenodd" fill="#A97BFF" d="M 10.520372681582444,133.47386945745134 A 91 91 0 0 1 5.2685913128242845 121.51435014075267 L 91,91 Z"/><path fill-rule="evenodd" fill="#000080" d="M 5.2685913128242845,121.51435014075267 A 91 91 0 0 1 2.9344052247793684 113.922718357268 L 91,91 Z"/><path fill-rule="evenodd" fill="#f1e05a" d="M 2.9344052247793684,113.922718357268 A 91 91 0 0 1 1.3210298631342425 106.44934675612988 L 91,91 Z"/><path fill-rule="evenodd" fill="#3178c6" d="M 1.3210298631342425,106.44934675612988 A 91 91 0 0 1 0.6010583156743792 101.44180742754322 L 91,91 Z"/><path fill-rule="evenodd" fill="#6866fb" d="M 0.6010583156743792,101.44180742754322 A 91 91 0 0 1 0.19253908946734555 96.91650597752452 L 91,91 Z"/><path fill-rule="evenodd" fill="#89e051" d="M 0.19253908946734555,96.91650597752452 A 91 91 0 0 1 0.016427880855289345 92.72904726378252 L 91,91 Z"/><path fill-rule="evenodd" fill="#8f14e9" d="M 0.016427880855289345,92.72904726378252 A 91 91 0 0 1 0.009244446618154711 92.29707510372788 L 91,91 Z"/><path fill-rule="evenodd" fill="#C1F12E" d="M 0.009244446618154711,92.29707510372788 A 91 91 0 0 1 0.004331795001050409 91.88790085355485 L 91,91 Z"/><path fill-rule="evenodd" fill="#959da5" d="M 0.004331795001050409,91.88790085355485 A 91 91 0 0 1 0.0 91.00000000000003 L 91,91 Z"/></g><g transform="translate(15, 21)"><rect x="0.5" y="0.5" rx="2" width="15" height="15" fill="#555555" stroke-width="1" stroke="#000000"/><text transform="scale(0.095)" x="263" y="132" textLength="798" lengthAdjust="spacingAndGlyphs">C 42.58%</text></g><g transform="translate(15, 42)"><rect x="0.5" y="0.5" rx="2" width="15" height="15" fill="#f34b7d" stroke-width="1" stroke="#000000"/><text transform="scale(0.095)" x="263" y="132" textLength="1074" lengthAdjust="spacingAndGlyphs">C++ 24.61%</text></g><g transform="translate(15, 63)"><rect x="0.5" y="0.5" rx="2" width="15" height="15" fill="#427819" stroke-width="1" stroke="#000000"/><text transform="scale(0.095)" x="263" y="132" textLength="1272" lengthAdjust="spacingAndGlyphs">Makefile 8.29%</text></g><g transform="translate(15, 84)"><rect x="0.5" y="0.5" rx="2" width="15" height="15" fill="#438eff" stroke-width="1" stroke="#000000"/><text transform="scale(0.095)" x="263" y="132" textLength="1538" lengthAdjust="spacingAndGlyphs">Objective-C 7.54%</text></g><g transform="translate(15, 105)"><rect x="0.5" y="0.5" rx="2" width="15" height="15" fill="#dea584" stroke-width="1" stroke="#000000"/><text transform="scale(0.095)" x="263" y="132" textLength="946" lengthAdjust="spacingAndGlyphs">Rust 3.71%</text></g><g transform="translate(15, 126)"><rect x="0.5" y="0.5" rx="2" width="15" height="15" fill="#b07219" stroke-width="1" stroke="#000000"/><text transform="scale(0.095)" x="263" y="132" textLength="933" lengthAdjust="spacingAndGlyphs">Java 3.12%</text></g><g transform="translate(15, 147)"><rect x="0.5" y="0.5" rx="2" width="15" height="15" fill="#00ADD8" stroke-width="1" stroke="#000000"/><text transform="scale(0.095)" x="263" y="132" textLength="806" lengthAdjust="spacingAndGlyphs">Go 2.41%</text></g><g transform="translate(15, 168)"><rect x="0.5" y="0.5" rx="2" width="15" height="15" fill="#A97BFF" stroke-width="1" stroke="#000000"/><text transform="scale(0.095)" x="263" y="132" textLength="1048" lengthAdjust="spacingAndGlyphs">Kotlin 2.29%</text></g><g transform="translate(15, 189)"><rect x="0.5" y="0.5" rx="2" width="15" height="15" fill="#000080" stroke-width="1" stroke="#000000"/><text transform="scale(0.095)" x="263" y="132" textLength="874" lengthAdjust="spacingAndGlyphs">Lua 1.39%</text></g><g transform="translate(15, 210)"><rect x="0.5" y="0.5" rx="2" width="15" height="15" fill="#f1e05a" stroke-width="1" stroke="#000000"/><text transform="scale(0.095)" x="263" y="132" textLength="1412" lengthAdjust="spacingAndGlyphs">JavaScript 1.34%</text><rect x="228.5" y="0.5" rx="2" width="15" height="15" fill="#3178c6" stroke-width="1" stroke="#000000"/><text transform="scale(0.095)" x="2663" y="132" textLength="1462" lengthAdjust="spacingAndGlyphs">TypeScript 0.88%</text></g><g transform="translate(15, 231)"><rect x="0.5" y="0.5" rx="2" width="15" height="15" fill="#6866fb" stroke-width="1" stroke="#000000"/><text transform="scale(0.095)" x="263" y="132" textLength="1814" lengthAdjust="spacingAndGlyphs">Objective-C++ 0.79%</text><rect x="228.5" y="0.5" rx="2" width="15" height="15" fill="#89e051" stroke-width="1" stroke="#000000"/><text transform="scale(0.095)" x="2663" y="132" textLength="982" lengthAdjust="spacingAndGlyphs">Shell 0.73%</text></g><g transform="translate(15, 252)"><rect x="0.5" y="0.5" rx="2" width="15" height="15" fill="#8f14e9" stroke-width="1" stroke="#000000"/><text transform="scale(0.095)" x="263" y="132" textLength="1034" lengthAdjust="spacingAndGlyphs">Metal 0.08%</text><rect x="228.5" y="0.5" rx="2" width="15" height="15" fill="#C1F12E" stroke-width="1" stroke="#000000"/><text transform="scale(0.095)" x="2663" y="132" textLength="1304" lengthAdjust="spacingAndGlyphs">Batchfile 0.07%</text></g><g transform="translate(15, 273)"><rect x="0.5" y="0.5" rx="2" width="15" height="15" fill="#959da5" stroke-width="1" stroke="#000000"/><text transform="scale(0.095)" x="263" y="132" textLength="1047" lengthAdjust="spacingAndGlyphs">Other 0.16%</text></g></g></g></svg>