<svg width="457" height="396" viewBox="0 0 457 396" xmlns="http://www.w3.org/2000/svg" lang="en" xml:lang="en"><rect x="2" y="2" stroke-width="4" rx="0" width="453" height="392" stroke="#ffffff" fill="#ffffff"/><g font-weight="600" font-size="110pt" font-family="Verdana,Geneva,DejaVu Sans,sans-serif" text-rendering="geometricPrecision"><text x="895" y="301" lengthAdjust="spacingAndGlyphs" textLength="1917" transform="scale(0.123)" fill="#0969da">Rinc's GitHub Statistics</text><g transform="translate(0, 60)" fill="#24292f"><g transform="translate(15, 0)"><g transform="scale(0.095)"><text x="0" y="132" textLength="3652" lengthAdjust="spacingAndGlyphs">Language Distribution in Public Repositories</text></g></g><g transform="translate(243, 21)"><circle cx="92" cy="92" r="92" fill="#000000"/></g><g transform="translate(244, 22)"><path fill-rule="evenodd" fill="#f34b7d" d="M 0.0,91.00000000000001 A 91 91 0 0 1 174.63417773449117 55.13463628128743 L 91,91 Z"/><path fill-rule="evenodd" fill="#438eff" d="M 174.63417773449117,55.13463628128743 A 91 91 0 0 1 169.20829740189274 137.52378120377898 L 91,91 Z"/><path fill-rule="evenodd" fill="#555555" d="M 169.20829740189274,137.52378120377898 A 91 91 0 0 1 138.2822400799073 168.75210462119986 L 91,91 Z"/><path fill-rule="evenodd" fill="#dea584" d="M 138.2822400799073,168.75210462119986 A 91 91 0 0 1 98.54604845844669 181.68658750147551 L 91,91 Z"/><path fill-rule="evenodd" fill="#b07219" d="M 98.54604845844669,181.68658750147551 A 91 91 0 0 1 64.74606637361046 178.13053981894714 L 91,91 Z"/><path fill-rule="evenodd" fill="#00ADD8" d="M 64.74606637361046,178.13053981894714 A 91 91 0 0 1 40.06129622753745 166.4072175456787 L 91,91 Z"/><path fill-rule="evenodd" fill="#A97BFF" d="M 40.06129622753745,166.4072175456787 A 91 91 0 0 1 20.856073729828424 148.9726625868153 L 91,91 Z"/><path fill-rule="evenodd" fill="#000080" d="M 20.856073729828424,148.9726625868153 A 91 91 0 0 1 11.935059314483283 136.0525821057542 L 91,91 Z"/><path fill-rule="evenodd" fill="#f1e05a" d="M 11.935059314483283,136.0525821057542 A 91 91 0 0 1 5.8351948312387805 123.06175230031792 L 91,91 Z"/><path fill-rule="evenodd" fill="#3178c6" d="M 5.8351948312387805,123.06175230031792 A 91 91 0 0 1 2.8119488298714685 113.44699603097914 L 91,91 Z"/><path fill-rule="evenodd" fill="#6866fb" d="M 2.8119488298714685,113.44699603097914 A 91 91 0 0 1 1.0147757717981705 104.55210022838669 L 91,91 Z"/><path fill-rule="evenodd" fill="#89e051" d="M 1.0147757717981705,104.55210022838669 A 91 91 0 0 1 0.13402124158680806 95.93699344496257 L 91,91 Z"/><path fill-rule="evenodd" fill="#427819" d="M 0.13402124158680806,95.93699344496257 A 91 91 0 0 1 0.06661313948127656 94.48125754221654 L 91,91 Z"/><path fill-rule="evenodd" fill="#8f14e9" d="M 0.06661313948127656,94.48125754221654 A 91 91 0 0 1 0.037812718678281954 93.6230678599214 L 91,91 Z"/><path fill-rule="evenodd" fill="#C1F12E" d="M 0.037812718678281954,93.6230678599214 A 91 91 0 0 1 0.017150755891634617 92.76667581175775 L 91,91 Z"/><path fill-rule="evenodd" fill="#5686a5" d="M 0.017150755891634617,92.76667581175775 A 91 91 0 0 1 0.00649882230513299 92.08754007964903 L 91,91 Z"/><path fill-rule="evenodd" fill="#DA3434" d="M 0.00649882230513299,92.08754007964903 A 91 91 0 0 1 0.0011719701946333316 91.46184110027976 L 91,91 Z"/><path fill-rule="evenodd" fill="#e34c26" d="M 0.0011719701946333316,91.46184110027976 A 91 91 0 0 1 0.00011865010397116293 91.14695000797835 L 91,91 Z"/><path fill-rule="evenodd" fill="#701516" d="M 0.00011865010397116293,91.14695000797835 A 91 91 0 0 1 0.0 91.00000000000003 L 91,91 Z"/></g><g transform="translate(15, 21)"><rect x="0.5" y="0.5" rx="2" width="15" height="15" fill="#f34b7d" stroke-width="1" stroke="#000000"/><text transform="scale(0.095)" x="263" y="132" textLength="1074" lengthAdjust="spacingAndGlyphs">C++ 43.55%</text></g><g transform="translate(15, 42)"><rect x="0.5" y="0.5" rx="2" width="15" height="15" fill="#438eff" stroke-width="1" stroke="#000000"/><text transform="scale(0.095)" x="263" y="132" textLength="1642" lengthAdjust="spacingAndGlyphs">Objective-C 14.99%</text></g><g transform="translate(15, 63)"><rect x="0.5" y="0.5" rx="2" width="15" height="15" fill="#555555" stroke-width="1" stroke="#000000"/><text transform="scale(0.095)" x="263" y="132" textLength="693" lengthAdjust="spacingAndGlyphs">C 7.76%</text></g><g transform="translate(15, 84)"><rect x="0.5" y="0.5" rx="2" width="15" height="15" fill="#dea584" stroke-width="1" stroke="#000000"/><text transform="scale(0.095)" x="263" y="132" textLength="946" lengthAdjust="spacingAndGlyphs">Rust 7.37%</text></g><g transform="translate(15, 105)"><rect x="0.5" y="0.5" rx="2" width="15" height="15" fill="#b07219" stroke-width="1" stroke="#000000"/><text transform="scale(0.095)" x="263" y="132" textLength="933" lengthAdjust="spacingAndGlyphs">Java 5.98%</text></g><g transform="translate(15, 126)"><rect x="0.5" y="0.5" rx="2" width="15" height="15" fill="#00ADD8" stroke-width="1" stroke="#000000"/><text transform="scale(0.095)" x="263" y="132" textLength="806" lengthAdjust="spacingAndGlyphs">Go 4.80%</text></g><g transform="translate(15, 147)"><rect x="0.5" y="0.5" rx="2" width="15" height="15" fill="#A97BFF" stroke-width="1" stroke="#000000"/><text transform="scale(0.095)" x="263" y="132" textLength="1048" lengthAdjust="spacingAndGlyphs">Kotlin 4.55%</text></g><g transform="translate(15, 168)"><rect x="0.5" y="0.5" rx="2" width="15" height="15" fill="#000080" stroke-width="1" stroke="#000000"/><text transform="scale(0.095)" x="263" y="132" textLength="874" lengthAdjust="spacingAndGlyphs">Lua 2.75%</text></g><g transform="translate(15, 189)"><rect x="0.5" y="0.5" rx="2" width="15" height="15" fill="#f1e05a" stroke-width="1" stroke="#000000"/><text transform="scale(0.095)" x="263" y="132" textLength="1412" lengthAdjust="spacingAndGlyphs">JavaScript 2.51%</text></g><g transform="translate(15, 210)"><rect x="0.5" y="0.5" rx="2" width="15" height="15" fill="#3178c6" stroke-width="1" stroke="#000000"/><text transform="scale(0.095)" x="263" y="132" textLength="1462" lengthAdjust="spacingAndGlyphs">TypeScript 1.76%</text><rect x="228.5" y="0.5" rx="2" width="15" height="15" fill="#6866fb" stroke-width="1" stroke="#000000"/><text transform="scale(0.095)" x="2663" y="132" textLength="1814" lengthAdjust="spacingAndGlyphs">Objective-C++ 1.59%</text></g><g transform="translate(15, 231)"><rect x="0.5" y="0.5" rx="2" width="15" height="15" fill="#89e051" stroke-width="1" stroke="#000000"/><text transform="scale(0.095)" x="263" y="132" textLength="982" lengthAdjust="spacingAndGlyphs">Shell 1.52%</text><rect x="228.5" y="0.5" rx="2" width="15" height="15" fill="#427819" stroke-width="1" stroke="#000000"/><text transform="scale(0.095)" x="2663" y="132" textLength="1272" lengthAdjust="spacingAndGlyphs">Makefile 0.25%</text></g><g transform="translate(15, 252)"><rect x="0.5" y="0.5" rx="2" width="15" height="15" fill="#8f14e9" stroke-width="1" stroke="#000000"/><text transform="scale(0.095)" x="263" y="132" textLength="1034" lengthAdjust="spacingAndGlyphs">Metal 0.15%</text><rect x="228.5" y="0.5" rx="2" width="15" height="15" fill="#C1F12E" stroke-width="1" stroke="#000000"/><text transform="scale(0.095)" x="2663" y="132" textLength="1304" lengthAdjust="spacingAndGlyphs">Batchfile 0.15%</text></g><g transform="translate(15, 273)"><rect x="0.5" y="0.5" rx="2" width="15" height="15" fill="#5686a5" stroke-width="1" stroke="#000000"/><text transform="scale(0.095)" x="263" y="132" textLength="993" lengthAdjust="spacingAndGlyphs">GLSL 0.12%</text><rect x="228.5" y="0.5" rx="2" width="15" height="15" fill="#DA3434" stroke-width="1" stroke="#000000"/><text transform="scale(0.095)" x="2663" y="132" textLength="1134" lengthAdjust="spacingAndGlyphs">CMake 0.11%</text></g><g transform="translate(15, 294)"><rect x="0.5" y="0.5" rx="2" width="15" height="15" fill="#e34c26" stroke-width="1" stroke="#000000"/><text transform="scale(0.095)" x="263" y="132" textLength="1036" lengthAdjust="spacingAndGlyphs">HTML 0.06%</text><rect x="228.5" y="0.5" rx="2" width="15" height="15" fill="#701516" stroke-width="1" stroke="#000000"/><text transform="scale(0.095)" x="2663" y="132" textLength="999" lengthAdjust="spacingAndGlyphs">Ruby 0.03%</text></g></g></g></svg>