<svg width="457" height="396" viewBox="0 0 457 396" xmlns="http://www.w3.org/2000/svg" lang="en" xml:lang="en"><rect x="2" y="2" stroke-width="4" rx="0" width="453" height="392" stroke="#ffffff" fill="#ffffff"/><g font-weight="600" font-size="110pt" font-family="Verdana,Geneva,DejaVu Sans,sans-serif" text-rendering="geometricPrecision"><text x="895" y="301" lengthAdjust="spacingAndGlyphs" textLength="1917" transform="scale(0.123)" fill="#0969da">Rinc's GitHub Statistics</text><g transform="translate(0, 60)" fill="#24292f"><g transform="translate(15, 0)"><g transform="scale(0.095)"><text x="0" y="132" textLength="3652" lengthAdjust="spacingAndGlyphs">Language Distribution in Public Repositories</text></g></g><g transform="translate(243, 21)"><circle cx="92" cy="92" r="92" fill="#000000"/></g><g transform="translate(244, 22)"><path fill-rule="evenodd" fill="#f34b7d" d="M 0.0,91.00000000000001 A 91 91 0 0 1 166.57873262197546 40.31612509627996 L 91,91 Z"/><path fill-rule="evenodd" fill="#438eff" d="M 166.57873262197546,40.31612509627996 A 91 91 0 0 1 175.93560655870647 123.66408943326941 L 91,91 Z"/><path fill-rule="evenodd" fill="#555555" d="M 175.93560655870647,123.66408943326941 A 91 91 0 0 1 148.4476505546114 161.57455239500462 L 91,91 Z"/><path fill-rule="evenodd" fill="#dea584" d="M 148.4476505546114,161.57455239500462 A 91 91 0 0 1 110.0343613574857 179.98703887484209 L 91,91 Z"/><path fill-rule="evenodd" fill="#b07219" d="M 110.0343613574857,179.98703887484209 A 91 91 0 0 1 75.39134287954377 180.65137936973434 L 91,91 Z"/><path fill-rule="evenodd" fill="#00ADD8" d="M 75.39134287954377,180.65137936973434 A 91 91 0 0 1 48.99698581138935 171.72636991139495 L 91,91 Z"/><path fill-rule="evenodd" fill="#A97BFF" d="M 48.99698581138935,171.72636991139495 A 91 91 0 0 1 27.576997518895993 156.25735787083227 L 91,91 Z"/><path fill-rule="evenodd" fill="#000080" d="M 27.576997518895993,156.25735787083227 A 91 91 0 0 1 14.653437251521694 140.519716845845 L 91,91 Z"/><path fill-rule="evenodd" fill="#f1e05a" d="M 14.653437251521694,140.519716845845 A 91 91 0 0 1 7.764958051651604 127.78216676402687 L 91,91 Z"/><path fill-rule="evenodd" fill="#3178c6" d="M 7.764958051651604,127.78216676402687 A 91 91 0 0 1 4.106898138412674 118.02940711284303 L 91,91 Z"/><path fill-rule="evenodd" fill="#6866fb" d="M 4.106898138412674,118.02940711284303 A 91 91 0 0 1 1.9211789955337792 109.60009807646905 L 91,91 Z"/><path fill-rule="evenodd" fill="#DA3434" d="M 1.9211789955337792,109.60009807646905 A 91 91 0 0 1 0.5936187341603443 101.37719742587744 L 91,91 Z"/><path fill-rule="evenodd" fill="#89e051" d="M 0.5936187341603443,101.37719742587744 A 91 91 0 0 1 0.08520583744831356 94.93702963931669 L 91,91 Z"/><path fill-rule="evenodd" fill="#427819" d="M 0.08520583744831356,94.93702963931669 A 91 91 0 0 1 0.033037369145176854 93.45187881361655 L 91,91 Z"/><path fill-rule="evenodd" fill="#8f14e9" d="M 0.033037369145176854,93.45187881361655 A 91 91 0 0 1 0.013656246639257574 92.57646769560046 L 91,91 Z"/><path fill-rule="evenodd" fill="#5686a5" d="M 0.013656246639257574,92.57646769560046 A 91 91 0 0 1 0.004292861885261345 91.88390182399057 L 91,91 Z"/><path fill-rule="evenodd" fill="#C1F12E" d="M 0.004292861885261345,91.88390182399057 A 91 91 0 0 1 0.0012187038170310416 91.47095924394839 L 91,91 Z"/><path fill-rule="evenodd" fill="#e34c26" d="M 0.0012187038170310416,91.47095924394839 A 91 91 0 0 1 0.00012338141907264344 91.14985126975859 L 91,91 Z"/><path fill-rule="evenodd" fill="#701516" d="M 0.00012338141907264344,91.14985126975859 A 91 91 0 0 1 0.0 91.00000000000003 L 91,91 Z"/></g><g transform="translate(15, 21)"><rect x="0.5" y="0.5" rx="2" width="15" height="15" fill="#f34b7d" stroke-width="1" stroke="#000000"/><text transform="scale(0.095)" x="263" y="132" textLength="1074" lengthAdjust="spacingAndGlyphs">C++ 40.60%</text></g><g transform="translate(15, 42)"><rect x="0.5" y="0.5" rx="2" width="15" height="15" fill="#438eff" stroke-width="1" stroke="#000000"/><text transform="scale(0.095)" x="263" y="132" textLength="1642" lengthAdjust="spacingAndGlyphs">Objective-C 15.24%</text></g><g transform="translate(15, 63)"><rect x="0.5" y="0.5" rx="2" width="15" height="15" fill="#555555" stroke-width="1" stroke="#000000"/><text transform="scale(0.095)" x="263" y="132" textLength="693" lengthAdjust="spacingAndGlyphs">C 8.28%</text></g><g transform="translate(15, 84)"><rect x="0.5" y="0.5" rx="2" width="15" height="15" fill="#dea584" stroke-width="1" stroke="#000000"/><text transform="scale(0.095)" x="263" y="132" textLength="946" lengthAdjust="spacingAndGlyphs">Rust 7.52%</text></g><g transform="translate(15, 105)"><rect x="0.5" y="0.5" rx="2" width="15" height="15" fill="#b07219" stroke-width="1" stroke="#000000"/><text transform="scale(0.095)" x="263" y="132" textLength="933" lengthAdjust="spacingAndGlyphs">Java 6.10%</text></g><g transform="translate(15, 126)"><rect x="0.5" y="0.5" rx="2" width="15" height="15" fill="#00ADD8" stroke-width="1" stroke="#000000"/><text transform="scale(0.095)" x="263" y="132" textLength="806" lengthAdjust="spacingAndGlyphs">Go 4.89%</text></g><g transform="translate(15, 147)"><rect x="0.5" y="0.5" rx="2" width="15" height="15" fill="#A97BFF" stroke-width="1" stroke="#000000"/><text transform="scale(0.095)" x="263" y="132" textLength="1048" lengthAdjust="spacingAndGlyphs">Kotlin 4.64%</text></g><g transform="translate(15, 168)"><rect x="0.5" y="0.5" rx="2" width="15" height="15" fill="#000080" stroke-width="1" stroke="#000000"/><text transform="scale(0.095)" x="263" y="132" textLength="874" lengthAdjust="spacingAndGlyphs">Lua 3.57%</text></g><g transform="translate(15, 189)"><rect x="0.5" y="0.5" rx="2" width="15" height="15" fill="#f1e05a" stroke-width="1" stroke="#000000"/><text transform="scale(0.095)" x="263" y="132" textLength="1412" lengthAdjust="spacingAndGlyphs">JavaScript 2.54%</text></g><g transform="translate(15, 210)"><rect x="0.5" y="0.5" rx="2" width="15" height="15" fill="#3178c6" stroke-width="1" stroke="#000000"/><text transform="scale(0.095)" x="263" y="132" textLength="1462" lengthAdjust="spacingAndGlyphs">TypeScript 1.82%</text><rect x="228.5" y="0.5" rx="2" width="15" height="15" fill="#6866fb" stroke-width="1" stroke="#000000"/><text transform="scale(0.095)" x="2663" y="132" textLength="1814" lengthAdjust="spacingAndGlyphs">Objective-C++ 1.52%</text></g><g transform="translate(15, 231)"><rect x="0.5" y="0.5" rx="2" width="15" height="15" fill="#DA3434" stroke-width="1" stroke="#000000"/><text transform="scale(0.095)" x="263" y="132" textLength="1134" lengthAdjust="spacingAndGlyphs">CMake 1.46%</text><rect x="228.5" y="0.5" rx="2" width="15" height="15" fill="#89e051" stroke-width="1" stroke="#000000"/><text transform="scale(0.095)" x="2663" y="132" textLength="982" lengthAdjust="spacingAndGlyphs">Shell 1.13%</text></g><g transform="translate(15, 252)"><rect x="0.5" y="0.5" rx="2" width="15" height="15" fill="#427819" stroke-width="1" stroke="#000000"/><text transform="scale(0.095)" x="263" y="132" textLength="1272" lengthAdjust="spacingAndGlyphs">Makefile 0.26%</text><rect x="228.5" y="0.5" rx="2" width="15" height="15" fill="#8f14e9" stroke-width="1" stroke="#000000"/><text transform="scale(0.095)" x="2663" y="132" textLength="1034" lengthAdjust="spacingAndGlyphs">Metal 0.15%</text></g><g transform="translate(15, 273)"><rect x="0.5" y="0.5" rx="2" width="15" height="15" fill="#5686a5" stroke-width="1" stroke="#000000"/><text transform="scale(0.095)" x="263" y="132" textLength="993" lengthAdjust="spacingAndGlyphs">GLSL 0.12%</text><rect x="228.5" y="0.5" rx="2" width="15" height="15" fill="#C1F12E" stroke-width="1" stroke="#000000"/><text transform="scale(0.095)" x="2663" y="132" textLength="1304" lengthAdjust="spacingAndGlyphs">Batchfile 0.07%</text></g><g transform="translate(15, 294)"><rect x="0.5" y="0.5" rx="2" width="15" height="15" fill="#e34c26" stroke-width="1" stroke="#000000"/><text transform="scale(0.095)" x="263" y="132" textLength="1036" lengthAdjust="spacingAndGlyphs">HTML 0.06%</text><rect x="228.5" y="0.5" rx="2" width="15" height="15" fill="#701516" stroke-width="1" stroke="#000000"/><text transform="scale(0.095)" x="2663" y="132" textLength="999" lengthAdjust="spacingAndGlyphs">Ruby 0.03%</text></g></g></g></svg>