<svg width="457" height="396" viewBox="0 0 457 396" xmlns="http://www.w3.org/2000/svg" lang="en" xml:lang="en"><rect x="2" y="2" stroke-width="4" rx="0" width="453" height="392" stroke="#ffffff" fill="#ffffff"/><g font-weight="600" font-size="110pt" font-family="Verdana,Geneva,DejaVu Sans,sans-serif" text-rendering="geometricPrecision"><text x="895" y="301" lengthAdjust="spacingAndGlyphs" textLength="1917" transform="scale(0.123)" fill="#0969da">Rinc's GitHub Statistics</text><g transform="translate(0, 60)" fill="#24292f"><g transform="translate(15, 0)"><g transform="scale(0.095)"><text x="0" y="132" textLength="3652" lengthAdjust="spacingAndGlyphs">Language Distribution in Public Repositories</text></g></g><g transform="translate(243, 21)"><circle cx="92" cy="92" r="92" fill="#000000"/></g><g transform="translate(244, 22)"><path fill-rule="evenodd" fill="#f34b7d" d="M 0.0,91.00000000000001 A 91 91 0 0 1 171.83304293170866 49.202641585854444 L 91,91 Z"/><path fill-rule="evenodd" fill="#438eff" d="M 171.83304293170866,49.202641585854444 A 91 91 0 0 1 173.20143575794958 130.037468659375 L 91,91 Z"/><path fill-rule="evenodd" fill="#555555" d="M 173.20143575794958,130.037468659375 A 91 91 0 0 1 144.48554185403393 164.62266507387778 L 91,91 Z"/><path fill-rule="evenodd" fill="#dea584" d="M 144.48554185403393,164.62266507387778 A 91 91 0 0 1 106.91179199971394 180.59807406053903 L 91,91 Z"/><path fill-rule="evenodd" fill="#b07219" d="M 106.91179199971394,180.59807406053903 A 91 91 0 0 1 73.7112763934774 180.34259922375924 L 91,91 Z"/><path fill-rule="evenodd" fill="#00ADD8" d="M 73.7112763934774,180.34259922375924 A 91 91 0 0 1 48.53129013797047 171.48235013128505 L 91,91 Z"/><path fill-rule="evenodd" fill="#A97BFF" d="M 48.53129013797047,171.48235013128505 A 91 91 0 0 1 27.99319243005013 156.65928875523485 L 91,91 Z"/><path fill-rule="evenodd" fill="#000080" d="M 27.99319243005013,156.65928875523485 A 91 91 0 0 1 15.468651203232099 141.7544613698243 L 91,91 Z"/><path fill-rule="evenodd" fill="#f1e05a" d="M 15.468651203232099,141.7544613698243 A 91 91 0 0 1 8.779423342737715 129.99713802508148 L 91,91 Z"/><path fill-rule="evenodd" fill="#3178c6" d="M 8.779423342737715,129.99713802508148 A 91 91 0 0 1 5.004248724689376 120.76122918487931 L 91,91 Z"/><path fill-rule="evenodd" fill="#DA3434" d="M 5.004248724689376,120.76122918487931 A 91 91 0 0 1 2.5103612420306973 112.22696003868899 L 91,91 Z"/><path fill-rule="evenodd" fill="#6866fb" d="M 2.5103612420306973,112.22696003868899 A 91 91 0 0 1 0.8651334768500334 103.51822019513713 L 91,91 Z"/><path fill-rule="evenodd" fill="#89e051" d="M 0.8651334768500334,103.51822019513713 A 91 91 0 0 1 0.09750239998093946 95.21140476308423 L 91,91 Z"/><path fill-rule="evenodd" fill="#427819" d="M 0.09750239998093946,95.21140476308423 A 91 91 0 0 1 0.042755614282938836 93.78921023892828 L 91,91 Z"/><path fill-rule="evenodd" fill="#8f14e9" d="M 0.042755614282938836,93.78921023892828 A 91 91 0 0 1 0.020914207219846048 92.95088398167297 L 91,91 Z"/><path fill-rule="evenodd" fill="#C1F12E" d="M 0.020914207219846048,92.95088398167297 A 91 91 0 0 1 0.006823518819842889 92.11437599794776 L 91,91 Z"/><path fill-rule="evenodd" fill="#5686a5" d="M 0.006823518819842889,92.11437599794776 A 91 91 0 0 1 0.0011178457269522823 91.45105063211139 L 91,91 Z"/><path fill-rule="evenodd" fill="#e34c26" d="M 0.0011178457269522823,91.45105063211139 A 91 91 0 0 1 0.00011317054010362426 91.14351663837782 L 91,91 Z"/><path fill-rule="evenodd" fill="#701516" d="M 0.00011317054010362426,91.14351663837782 A 91 91 0 0 1 0.0 91.00000000000003 L 91,91 Z"/></g><g transform="translate(15, 21)"><rect x="0.5" y="0.5" rx="2" width="15" height="15" fill="#f34b7d" stroke-width="1" stroke="#000000"/><text transform="scale(0.095)" x="263" y="132" textLength="1074" lengthAdjust="spacingAndGlyphs">C++ 42.40%</text></g><g transform="translate(15, 42)"><rect x="0.5" y="0.5" rx="2" width="15" height="15" fill="#438eff" stroke-width="1" stroke="#000000"/><text transform="scale(0.095)" x="263" y="132" textLength="1642" lengthAdjust="spacingAndGlyphs">Objective-C 14.65%</text></g><g transform="translate(15, 63)"><rect x="0.5" y="0.5" rx="2" width="15" height="15" fill="#555555" stroke-width="1" stroke="#000000"/><text transform="scale(0.095)" x="263" y="132" textLength="693" lengthAdjust="spacingAndGlyphs">C 7.94%</text></g><g transform="translate(15, 84)"><rect x="0.5" y="0.5" rx="2" width="15" height="15" fill="#dea584" stroke-width="1" stroke="#000000"/><text transform="scale(0.095)" x="263" y="132" textLength="946" lengthAdjust="spacingAndGlyphs">Rust 7.20%</text></g><g transform="translate(15, 105)"><rect x="0.5" y="0.5" rx="2" width="15" height="15" fill="#b07219" stroke-width="1" stroke="#000000"/><text transform="scale(0.095)" x="263" y="132" textLength="933" lengthAdjust="spacingAndGlyphs">Java 5.84%</text></g><g transform="translate(15, 126)"><rect x="0.5" y="0.5" rx="2" width="15" height="15" fill="#00ADD8" stroke-width="1" stroke="#000000"/><text transform="scale(0.095)" x="263" y="132" textLength="806" lengthAdjust="spacingAndGlyphs">Go 4.69%</text></g><g transform="translate(15, 147)"><rect x="0.5" y="0.5" rx="2" width="15" height="15" fill="#A97BFF" stroke-width="1" stroke="#000000"/><text transform="scale(0.095)" x="263" y="132" textLength="1048" lengthAdjust="spacingAndGlyphs">Kotlin 4.44%</text></g><g transform="translate(15, 168)"><rect x="0.5" y="0.5" rx="2" width="15" height="15" fill="#000080" stroke-width="1" stroke="#000000"/><text transform="scale(0.095)" x="263" y="132" textLength="874" lengthAdjust="spacingAndGlyphs">Lua 3.41%</text></g><g transform="translate(15, 189)"><rect x="0.5" y="0.5" rx="2" width="15" height="15" fill="#f1e05a" stroke-width="1" stroke="#000000"/><text transform="scale(0.095)" x="263" y="132" textLength="1412" lengthAdjust="spacingAndGlyphs">JavaScript 2.37%</text></g><g transform="translate(15, 210)"><rect x="0.5" y="0.5" rx="2" width="15" height="15" fill="#3178c6" stroke-width="1" stroke="#000000"/><text transform="scale(0.095)" x="263" y="132" textLength="1462" lengthAdjust="spacingAndGlyphs">TypeScript 1.75%</text><rect x="228.5" y="0.5" rx="2" width="15" height="15" fill="#DA3434" stroke-width="1" stroke="#000000"/><text transform="scale(0.095)" x="2663" y="132" textLength="1134" lengthAdjust="spacingAndGlyphs">CMake 1.56%</text></g><g transform="translate(15, 231)"><rect x="0.5" y="0.5" rx="2" width="15" height="15" fill="#6866fb" stroke-width="1" stroke="#000000"/><text transform="scale(0.095)" x="263" y="132" textLength="1814" lengthAdjust="spacingAndGlyphs">Objective-C++ 1.55%</text><rect x="228.5" y="0.5" rx="2" width="15" height="15" fill="#89e051" stroke-width="1" stroke="#000000"/><text transform="scale(0.095)" x="2663" y="132" textLength="982" lengthAdjust="spacingAndGlyphs">Shell 1.46%</text></g><g transform="translate(15, 252)"><rect x="0.5" y="0.5" rx="2" width="15" height="15" fill="#427819" stroke-width="1" stroke="#000000"/><text transform="scale(0.095)" x="263" y="132" textLength="1272" lengthAdjust="spacingAndGlyphs">Makefile 0.25%</text><rect x="228.5" y="0.5" rx="2" width="15" height="15" fill="#8f14e9" stroke-width="1" stroke="#000000"/><text transform="scale(0.095)" x="2663" y="132" textLength="1034" lengthAdjust="spacingAndGlyphs">Metal 0.15%</text></g><g transform="translate(15, 273)"><rect x="0.5" y="0.5" rx="2" width="15" height="15" fill="#C1F12E" stroke-width="1" stroke="#000000"/><text transform="scale(0.095)" x="263" y="132" textLength="1304" lengthAdjust="spacingAndGlyphs">Batchfile 0.15%</text><rect x="228.5" y="0.5" rx="2" width="15" height="15" fill="#5686a5" stroke-width="1" stroke="#000000"/><text transform="scale(0.095)" x="2663" y="132" textLength="993" lengthAdjust="spacingAndGlyphs">GLSL 0.12%</text></g><g transform="translate(15, 294)"><rect x="0.5" y="0.5" rx="2" width="15" height="15" fill="#e34c26" stroke-width="1" stroke="#000000"/><text transform="scale(0.095)" x="263" y="132" textLength="1036" lengthAdjust="spacingAndGlyphs">HTML 0.05%</text><rect x="228.5" y="0.5" rx="2" width="15" height="15" fill="#701516" stroke-width="1" stroke="#000000"/><text transform="scale(0.095)" x="2663" y="132" textLength="999" lengthAdjust="spacingAndGlyphs">Ruby 0.03%</text></g></g></g></svg>