<svg width="457" height="396" viewBox="0 0 457 396" xmlns="http://www.w3.org/2000/svg" lang="en" xml:lang="en"><rect x="2" y="2" stroke-width="4" rx="0" width="453" height="392" stroke="#ffffff" fill="#ffffff"/><g font-weight="600" font-size="110pt" font-family="Verdana,Geneva,DejaVu Sans,sans-serif" text-rendering="geometricPrecision"><text x="895" y="301" lengthAdjust="spacingAndGlyphs" textLength="1917" transform="scale(0.123)" fill="#0969da">Rinc's GitHub Statistics</text><g transform="translate(0, 60)" fill="#24292f"><g transform="translate(15, 0)"><g transform="scale(0.095)"><text x="0" y="132" textLength="3652" lengthAdjust="spacingAndGlyphs">Language Distribution in Public Repositories</text></g></g><g transform="translate(243, 21)"><circle cx="92" cy="92" r="92" fill="#000000"/></g><g transform="translate(244, 22)"><path fill-rule="evenodd" fill="#f34b7d" d="M 0.0,91.00000000000001 A 91 91 0 0 1 175.84792136167033 58.10881211321479 L 91,91 Z"/><path fill-rule="evenodd" fill="#438eff" d="M 175.84792136167033,58.10881211321479 A 91 91 0 0 1 167.9922837645185 139.5096716204497 L 91,91 Z"/><path fill-rule="evenodd" fill="#555555" d="M 167.9922837645185,139.5096716204497 A 91 91 0 0 1 136.63323685200785 169.7312370943614 L 91,91 Z"/><path fill-rule="evenodd" fill="#dea584" d="M 136.63323685200785,169.7312370943614 A 91 91 0 0 1 97.06722397920379 181.79751534698607 L 91,91 Z"/><path fill-rule="evenodd" fill="#b07219" d="M 97.06722397920379,181.79751534698607 A 91 91 0 0 1 63.665753498850464 177.79768987832796 L 91,91 Z"/><path fill-rule="evenodd" fill="#00ADD8" d="M 63.665753498850464,177.79768987832796 A 91 91 0 0 1 39.36119400598539 165.92952499190503 L 91,91 Z"/><path fill-rule="evenodd" fill="#A97BFF" d="M 39.36119400598539,165.92952499190503 A 91 91 0 0 1 20.465676158882573 148.49703609992758 L 91,91 Z"/><path fill-rule="evenodd" fill="#000080" d="M 20.465676158882573,148.49703609992758 A 91 91 0 0 1 11.662375400881132 135.57063296576894 L 91,91 Z"/><path fill-rule="evenodd" fill="#f1e05a" d="M 11.662375400881132,135.57063296576894 A 91 91 0 0 1 5.671695054445806 122.62404741835729 L 91,91 Z"/><path fill-rule="evenodd" fill="#3178c6" d="M 5.671695054445806,122.62404741835729 A 91 91 0 0 1 2.706312786692635 113.02781873628533 L 91,91 Z"/><path fill-rule="evenodd" fill="#6866fb" d="M 2.706312786692635,113.02781873628533 A 91 91 0 0 1 0.9649642315092848 104.21712276430071 L 91,91 Z"/><path fill-rule="evenodd" fill="#89e051" d="M 0.9649642315092848,104.21712276430071 A 91 91 0 0 1 0.1312719247299583 95.88612914101022 L 91,91 Z"/><path fill-rule="evenodd" fill="#427819" d="M 0.1312719247299583,95.88612914101022 A 91 91 0 0 1 0.06524646964213332 94.44537376391405 L 91,91 Z"/><path fill-rule="evenodd" fill="#8f14e9" d="M 0.06524646964213332,94.44537376391405 A 91 91 0 0 1 0.03703689316628811 93.59602442685129 L 91,91 Z"/><path fill-rule="evenodd" fill="#C1F12E" d="M 0.03703689316628811,93.59602442685129 A 91 91 0 0 1 0.016798850825608724 92.74845893542603 L 91,91 Z"/><path fill-rule="evenodd" fill="#5686a5" d="M 0.016798850825608724,92.74845893542603 A 91 91 0 0 1 0.006365474701595986 92.07632517225105 L 91,91 Z"/><path fill-rule="evenodd" fill="#DA3434" d="M 0.006365474701595986,92.07632517225105 A 91 91 0 0 1 0.0011479226206176918 91.45707832942139 L 91,91 Z"/><path fill-rule="evenodd" fill="#e34c26" d="M 0.0011479226206176918,91.45707832942139 A 91 91 0 0 1 0.00011621552621932096 91.14543456352601 L 91,91 Z"/><path fill-rule="evenodd" fill="#701516" d="M 0.00011621552621932096,91.14543456352601 A 91 91 0 0 1 0.0 91.00000000000003 L 91,91 Z"/></g><g transform="translate(15, 21)"><rect x="0.5" y="0.5" rx="2" width="15" height="15" fill="#f34b7d" stroke-width="1" stroke="#000000"/><text transform="scale(0.095)" x="263" y="132" textLength="1074" lengthAdjust="spacingAndGlyphs">C++ 44.11%</text></g><g transform="translate(15, 42)"><rect x="0.5" y="0.5" rx="2" width="15" height="15" fill="#438eff" stroke-width="1" stroke="#000000"/><text transform="scale(0.095)" x="263" y="132" textLength="1642" lengthAdjust="spacingAndGlyphs">Objective-C 14.83%</text></g><g transform="translate(15, 63)"><rect x="0.5" y="0.5" rx="2" width="15" height="15" fill="#555555" stroke-width="1" stroke="#000000"/><text transform="scale(0.095)" x="263" y="132" textLength="693" lengthAdjust="spacingAndGlyphs">C 7.69%</text></g><g transform="translate(15, 84)"><rect x="0.5" y="0.5" rx="2" width="15" height="15" fill="#dea584" stroke-width="1" stroke="#000000"/><text transform="scale(0.095)" x="263" y="132" textLength="946" lengthAdjust="spacingAndGlyphs">Rust 7.30%</text></g><g transform="translate(15, 105)"><rect x="0.5" y="0.5" rx="2" width="15" height="15" fill="#b07219" stroke-width="1" stroke="#000000"/><text transform="scale(0.095)" x="263" y="132" textLength="933" lengthAdjust="spacingAndGlyphs">Java 5.92%</text></g><g transform="translate(15, 126)"><rect x="0.5" y="0.5" rx="2" width="15" height="15" fill="#00ADD8" stroke-width="1" stroke="#000000"/><text transform="scale(0.095)" x="263" y="132" textLength="806" lengthAdjust="spacingAndGlyphs">Go 4.75%</text></g><g transform="translate(15, 147)"><rect x="0.5" y="0.5" rx="2" width="15" height="15" fill="#A97BFF" stroke-width="1" stroke="#000000"/><text transform="scale(0.095)" x="263" y="132" textLength="1048" lengthAdjust="spacingAndGlyphs">Kotlin 4.51%</text></g><g transform="translate(15, 168)"><rect x="0.5" y="0.5" rx="2" width="15" height="15" fill="#000080" stroke-width="1" stroke="#000000"/><text transform="scale(0.095)" x="263" y="132" textLength="874" lengthAdjust="spacingAndGlyphs">Lua 2.74%</text></g><g transform="translate(15, 189)"><rect x="0.5" y="0.5" rx="2" width="15" height="15" fill="#f1e05a" stroke-width="1" stroke="#000000"/><text transform="scale(0.095)" x="263" y="132" textLength="1412" lengthAdjust="spacingAndGlyphs">JavaScript 2.50%</text></g><g transform="translate(15, 210)"><rect x="0.5" y="0.5" rx="2" width="15" height="15" fill="#3178c6" stroke-width="1" stroke="#000000"/><text transform="scale(0.095)" x="263" y="132" textLength="1462" lengthAdjust="spacingAndGlyphs">TypeScript 1.76%</text><rect x="228.5" y="0.5" rx="2" width="15" height="15" fill="#6866fb" stroke-width="1" stroke="#000000"/><text transform="scale(0.095)" x="2663" y="132" textLength="1814" lengthAdjust="spacingAndGlyphs">Objective-C++ 1.57%</text></g><g transform="translate(15, 231)"><rect x="0.5" y="0.5" rx="2" width="15" height="15" fill="#89e051" stroke-width="1" stroke="#000000"/><text transform="scale(0.095)" x="263" y="132" textLength="982" lengthAdjust="spacingAndGlyphs">Shell 1.46%</text><rect x="228.5" y="0.5" rx="2" width="15" height="15" fill="#427819" stroke-width="1" stroke="#000000"/><text transform="scale(0.095)" x="2663" y="132" textLength="1272" lengthAdjust="spacingAndGlyphs">Makefile 0.25%</text></g><g transform="translate(15, 252)"><rect x="0.5" y="0.5" rx="2" width="15" height="15" fill="#8f14e9" stroke-width="1" stroke="#000000"/><text transform="scale(0.095)" x="263" y="132" textLength="1034" lengthAdjust="spacingAndGlyphs">Metal 0.15%</text><rect x="228.5" y="0.5" rx="2" width="15" height="15" fill="#C1F12E" stroke-width="1" stroke="#000000"/><text transform="scale(0.095)" x="2663" y="132" textLength="1304" lengthAdjust="spacingAndGlyphs">Batchfile 0.15%</text></g><g transform="translate(15, 273)"><rect x="0.5" y="0.5" rx="2" width="15" height="15" fill="#5686a5" stroke-width="1" stroke="#000000"/><text transform="scale(0.095)" x="263" y="132" textLength="993" lengthAdjust="spacingAndGlyphs">GLSL 0.12%</text><rect x="228.5" y="0.5" rx="2" width="15" height="15" fill="#DA3434" stroke-width="1" stroke="#000000"/><text transform="scale(0.095)" x="2663" y="132" textLength="1134" lengthAdjust="spacingAndGlyphs">CMake 0.11%</text></g><g transform="translate(15, 294)"><rect x="0.5" y="0.5" rx="2" width="15" height="15" fill="#e34c26" stroke-width="1" stroke="#000000"/><text transform="scale(0.095)" x="263" y="132" textLength="1036" lengthAdjust="spacingAndGlyphs">HTML 0.05%</text><rect x="228.5" y="0.5" rx="2" width="15" height="15" fill="#701516" stroke-width="1" stroke="#000000"/><text transform="scale(0.095)" x="2663" y="132" textLength="999" lengthAdjust="spacingAndGlyphs">Ruby 0.03%</text></g></g></g></svg>