<svg width="457" height="396" viewBox="0 0 457 396" xmlns="http://www.w3.org/2000/svg" lang="en" xml:lang="en"><rect x="2" y="2" stroke-width="4" rx="0" width="453" height="392" stroke="#ffffff" fill="#ffffff"/><g font-weight="600" font-size="110pt" font-family="Verdana,Geneva,DejaVu Sans,sans-serif" text-rendering="geometricPrecision"><text x="895" y="301" lengthAdjust="spacingAndGlyphs" textLength="1917" transform="scale(0.123)" fill="#0969da">Rinc's GitHub Statistics</text><g transform="translate(0, 60)" fill="#24292f"><g transform="translate(15, 0)"><g transform="scale(0.095)"><text x="0" y="132" textLength="3652" lengthAdjust="spacingAndGlyphs">Language Distribution in Public Repositories</text></g></g><g transform="translate(243, 21)"><circle cx="92" cy="92" r="92" fill="#000000"/></g><g transform="translate(244, 22)"><path fill-rule="evenodd" fill="#f34b7d" d="M 0.0,91.00000000000001 A 91 91 0 0 1 167.14376306418467 41.169012186940265 L 91,91 Z"/><path fill-rule="evenodd" fill="#438eff" d="M 167.14376306418467,41.169012186940265 A 91 91 0 0 1 175.37078416585143 125.0964921837909 L 91,91 Z"/><path fill-rule="evenodd" fill="#555555" d="M 175.37078416585143,125.0964921837909 A 91 91 0 0 1 147.0243792427067 162.70961532785805 L 91,91 Z"/><path fill-rule="evenodd" fill="#dea584" d="M 147.0243792427067,162.70961532785805 A 91 91 0 0 1 110.83132725630918 179.8128282358645 L 91,91 Z"/><path fill-rule="evenodd" fill="#b07219" d="M 110.83132725630918,179.8128282358645 A 91 91 0 0 1 75.99179937263416 180.7538518055283 L 91,91 Z"/><path fill-rule="evenodd" fill="#00ADD8" d="M 75.99179937263416,180.7538518055283 A 91 91 0 0 1 49.390761807557816 171.93003952207494 L 91,91 Z"/><path fill-rule="evenodd" fill="#A97BFF" d="M 49.390761807557816,171.93003952207494 A 91 91 0 0 1 27.782518366285977 156.45647420913406 L 91,91 Z"/><path fill-rule="evenodd" fill="#000080" d="M 27.782518366285977,156.45647420913406 A 91 91 0 0 1 14.74345777315412 140.65822960603077 L 91,91 Z"/><path fill-rule="evenodd" fill="#f1e05a" d="M 14.74345777315412,140.65822960603077 A 91 91 0 0 1 7.797029665522629 127.8546567955812 L 91,91 Z"/><path fill-rule="evenodd" fill="#3178c6" d="M 7.797029665522629,127.8546567955812 A 91 91 0 0 1 4.112095074433 118.04610836415524 L 91,91 Z"/><path fill-rule="evenodd" fill="#6866fb" d="M 4.112095074433,118.04610836415524 A 91 91 0 0 1 1.943940691465471 109.70877602716916 L 91,91 Z"/><path fill-rule="evenodd" fill="#DA3434" d="M 1.943940691465471,109.70877602716916 A 91 91 0 0 1 0.6006692572238421 101.43843864082004 L 91,91 Z"/><path fill-rule="evenodd" fill="#89e051" d="M 0.6006692572238421,101.43843864082004 A 91 91 0 0 1 0.0862187994667778 94.96035198203035 L 91,91 Z"/><path fill-rule="evenodd" fill="#427819" d="M 0.0862187994667778,94.96035198203035 A 91 91 0 0 1 0.03343016895831852 93.46640896329383 L 91,91 Z"/><path fill-rule="evenodd" fill="#8f14e9" d="M 0.03343016895831852,93.46640896329383 A 91 91 0 0 1 0.013818619248581854 92.58581138506538 L 91,91 Z"/><path fill-rule="evenodd" fill="#5686a5" d="M 0.013818619248581854,92.58581138506538 A 91 91 0 0 1 0.004343904847559088 91.88914105334617 L 91,91 Z"/><path fill-rule="evenodd" fill="#C1F12E" d="M 0.004343904847559088,91.88914105334617 A 91 91 0 0 1 0.0012331945248718057 91.47375086570725 L 91,91 Z"/><path fill-rule="evenodd" fill="#e34c26" d="M 0.0012331945248718057,91.47375086570725 A 91 91 0 0 1 0.0001248484594640331 91.15073952380051 L 91,91 Z"/><path fill-rule="evenodd" fill="#701516" d="M 0.0001248484594640331,91.15073952380051 A 91 91 0 0 1 0.0 91.00000000000003 L 91,91 Z"/></g><g transform="translate(15, 21)"><rect x="0.5" y="0.5" rx="2" width="15" height="15" fill="#f34b7d" stroke-width="1" stroke="#000000"/><text transform="scale(0.095)" x="263" y="132" textLength="1074" lengthAdjust="spacingAndGlyphs">C++ 40.78%</text></g><g transform="translate(15, 42)"><rect x="0.5" y="0.5" rx="2" width="15" height="15" fill="#438eff" stroke-width="1" stroke="#000000"/><text transform="scale(0.095)" x="263" y="132" textLength="1642" lengthAdjust="spacingAndGlyphs">Objective-C 15.34%</text></g><g transform="translate(15, 63)"><rect x="0.5" y="0.5" rx="2" width="15" height="15" fill="#555555" stroke-width="1" stroke="#000000"/><text transform="scale(0.095)" x="263" y="132" textLength="693" lengthAdjust="spacingAndGlyphs">C 8.33%</text></g><g transform="translate(15, 84)"><rect x="0.5" y="0.5" rx="2" width="15" height="15" fill="#dea584" stroke-width="1" stroke="#000000"/><text transform="scale(0.095)" x="263" y="132" textLength="946" lengthAdjust="spacingAndGlyphs">Rust 7.06%</text></g><g transform="translate(15, 105)"><rect x="0.5" y="0.5" rx="2" width="15" height="15" fill="#b07219" stroke-width="1" stroke="#000000"/><text transform="scale(0.095)" x="263" y="132" textLength="933" lengthAdjust="spacingAndGlyphs">Java 6.13%</text></g><g transform="translate(15, 126)"><rect x="0.5" y="0.5" rx="2" width="15" height="15" fill="#00ADD8" stroke-width="1" stroke="#000000"/><text transform="scale(0.095)" x="263" y="132" textLength="806" lengthAdjust="spacingAndGlyphs">Go 4.92%</text></g><g transform="translate(15, 147)"><rect x="0.5" y="0.5" rx="2" width="15" height="15" fill="#A97BFF" stroke-width="1" stroke="#000000"/><text transform="scale(0.095)" x="263" y="132" textLength="1048" lengthAdjust="spacingAndGlyphs">Kotlin 4.66%</text></g><g transform="translate(15, 168)"><rect x="0.5" y="0.5" rx="2" width="15" height="15" fill="#000080" stroke-width="1" stroke="#000000"/><text transform="scale(0.095)" x="263" y="132" textLength="874" lengthAdjust="spacingAndGlyphs">Lua 3.59%</text></g><g transform="translate(15, 189)"><rect x="0.5" y="0.5" rx="2" width="15" height="15" fill="#f1e05a" stroke-width="1" stroke="#000000"/><text transform="scale(0.095)" x="263" y="132" textLength="1412" lengthAdjust="spacingAndGlyphs">JavaScript 2.55%</text></g><g transform="translate(15, 210)"><rect x="0.5" y="0.5" rx="2" width="15" height="15" fill="#3178c6" stroke-width="1" stroke="#000000"/><text transform="scale(0.095)" x="263" y="132" textLength="1462" lengthAdjust="spacingAndGlyphs">TypeScript 1.83%</text><rect x="228.5" y="0.5" rx="2" width="15" height="15" fill="#6866fb" stroke-width="1" stroke="#000000"/><text transform="scale(0.095)" x="2663" y="132" textLength="1814" lengthAdjust="spacingAndGlyphs">Objective-C++ 1.51%</text></g><g transform="translate(15, 231)"><rect x="0.5" y="0.5" rx="2" width="15" height="15" fill="#DA3434" stroke-width="1" stroke="#000000"/><text transform="scale(0.095)" x="263" y="132" textLength="1134" lengthAdjust="spacingAndGlyphs">CMake 1.47%</text><rect x="228.5" y="0.5" rx="2" width="15" height="15" fill="#89e051" stroke-width="1" stroke="#000000"/><text transform="scale(0.095)" x="2663" y="132" textLength="982" lengthAdjust="spacingAndGlyphs">Shell 1.14%</text></g><g transform="translate(15, 252)"><rect x="0.5" y="0.5" rx="2" width="15" height="15" fill="#427819" stroke-width="1" stroke="#000000"/><text transform="scale(0.095)" x="263" y="132" textLength="1272" lengthAdjust="spacingAndGlyphs">Makefile 0.26%</text><rect x="228.5" y="0.5" rx="2" width="15" height="15" fill="#8f14e9" stroke-width="1" stroke="#000000"/><text transform="scale(0.095)" x="2663" y="132" textLength="1034" lengthAdjust="spacingAndGlyphs">Metal 0.15%</text></g><g transform="translate(15, 273)"><rect x="0.5" y="0.5" rx="2" width="15" height="15" fill="#5686a5" stroke-width="1" stroke="#000000"/><text transform="scale(0.095)" x="263" y="132" textLength="993" lengthAdjust="spacingAndGlyphs">GLSL 0.12%</text><rect x="228.5" y="0.5" rx="2" width="15" height="15" fill="#C1F12E" stroke-width="1" stroke="#000000"/><text transform="scale(0.095)" x="2663" y="132" textLength="1304" lengthAdjust="spacingAndGlyphs">Batchfile 0.07%</text></g><g transform="translate(15, 294)"><rect x="0.5" y="0.5" rx="2" width="15" height="15" fill="#e34c26" stroke-width="1" stroke="#000000"/><text transform="scale(0.095)" x="263" y="132" textLength="1036" lengthAdjust="spacingAndGlyphs">HTML 0.06%</text><rect x="228.5" y="0.5" rx="2" width="15" height="15" fill="#701516" stroke-width="1" stroke="#000000"/><text transform="scale(0.095)" x="2663" y="132" textLength="999" lengthAdjust="spacingAndGlyphs">Ruby 0.03%</text></g></g></g></svg>