<svg width="457" height="396" viewBox="0 0 457 396" xmlns="http://www.w3.org/2000/svg" lang="en" xml:lang="en"><rect x="2" y="2" stroke-width="4" rx="0" width="453" height="392" stroke="#ffffff" fill="#ffffff"/><g font-weight="600" font-size="110pt" font-family="Verdana,Geneva,DejaVu Sans,sans-serif" text-rendering="geometricPrecision"><text x="895" y="301" lengthAdjust="spacingAndGlyphs" textLength="1917" transform="scale(0.123)" fill="#0969da">Rinc's GitHub Statistics</text><g transform="translate(0, 60)" fill="#24292f"><g transform="translate(15, 0)"><g transform="scale(0.095)"><text x="0" y="132" textLength="3652" lengthAdjust="spacingAndGlyphs">Language Distribution in Public Repositories</text></g></g><g transform="translate(243, 21)"><circle cx="92" cy="92" r="92" fill="#000000"/></g><g transform="translate(244, 22)"><path fill-rule="evenodd" fill="#f34b7d" d="M 0.0,91.00000000000001 A 91 91 0 0 1 169.41670439463553 44.82835857493968 L 91,91 Z"/><path fill-rule="evenodd" fill="#438eff" d="M 169.41670439463553,44.82835857493968 A 91 91 0 0 1 174.6551805291067 126.81634781273166 L 91,91 Z"/><path fill-rule="evenodd" fill="#555555" d="M 174.6551805291067,126.81634781273166 A 91 91 0 0 1 146.55595672843856 163.07312725272755 L 91,91 Z"/><path fill-rule="evenodd" fill="#dea584" d="M 146.55595672843856,163.07312725272755 A 91 91 0 0 1 108.60227145016997 180.28135325920263 L 91,91 Z"/><path fill-rule="evenodd" fill="#b07219" d="M 108.60227145016997,180.28135325920263 A 91 91 0 0 1 74.71138261451361 180.5303353264648 L 91,91 Z"/><path fill-rule="evenodd" fill="#00ADD8" d="M 74.71138261451361,180.5303353264648 A 91 91 0 0 1 48.93338102238135 171.69324363161923 L 91,91 Z"/><path fill-rule="evenodd" fill="#A97BFF" d="M 48.93338102238135,171.69324363161923 A 91 91 0 0 1 27.885503409394886 156.55578021894405 L 91,91 Z"/><path fill-rule="evenodd" fill="#000080" d="M 27.885503409394886,156.55578021894405 A 91 91 0 0 1 15.15792582939008 141.28896285965442 L 91,91 Z"/><path fill-rule="evenodd" fill="#f1e05a" d="M 15.15792582939008,141.28896285965442 A 91 91 0 0 1 8.29076554126955 128.9497369589139 L 91,91 Z"/><path fill-rule="evenodd" fill="#3178c6" d="M 8.29076554126955,128.9497369589139 A 91 91 0 0 1 4.567699627599481 119.4685344254869 L 91,91 Z"/><path fill-rule="evenodd" fill="#DA3434" d="M 4.567699627599481,119.4685344254869 A 91 91 0 0 1 2.039163981951262 110.15645204545565 L 91,91 Z"/><path fill-rule="evenodd" fill="#6866fb" d="M 2.039163981951262,110.15645204545565 A 91 91 0 0 1 0.5829044769438383 101.28342536193745 L 91,91 Z"/><path fill-rule="evenodd" fill="#89e051" d="M 0.5829044769438383,101.28342536193745 A 91 91 0 0 1 0.08147746807992462 94.84996891062013 L 91,91 Z"/><path fill-rule="evenodd" fill="#427819" d="M 0.08147746807992462,94.84996891062013 A 91 91 0 0 1 0.03159161404877864 93.39763961570556 L 91,91 Z"/><path fill-rule="evenodd" fill="#8f14e9" d="M 0.03159161404877864,93.39763961570556 A 91 91 0 0 1 0.013058612537193426 92.54158910037944 L 91,91 Z"/><path fill-rule="evenodd" fill="#5686a5" d="M 0.013058612537193426,92.54158910037944 A 91 91 0 0 1 0.0041049916160744715 91.86434462060485 L 91,91 Z"/><path fill-rule="evenodd" fill="#C1F12E" d="M 0.0041049916160744715,91.86434462060485 A 91 91 0 0 1 0.0011653688966504205 91.4605385772162 L 91,91 Z"/><path fill-rule="evenodd" fill="#e34c26" d="M 0.0011653688966504205,91.4605385772162 A 91 91 0 0 1 0.00011798178816491145 91.1465355640382 L 91,91 Z"/><path fill-rule="evenodd" fill="#701516" d="M 0.00011798178816491145,91.1465355640382 A 91 91 0 0 1 0.0 91.00000000000003 L 91,91 Z"/></g><g transform="translate(15, 21)"><rect x="0.5" y="0.5" rx="2" width="15" height="15" fill="#f34b7d" stroke-width="1" stroke="#000000"/><text transform="scale(0.095)" x="263" y="132" textLength="1074" lengthAdjust="spacingAndGlyphs">C++ 41.53%</text></g><g transform="translate(15, 42)"><rect x="0.5" y="0.5" rx="2" width="15" height="15" fill="#438eff" stroke-width="1" stroke="#000000"/><text transform="scale(0.095)" x="263" y="132" textLength="1642" lengthAdjust="spacingAndGlyphs">Objective-C 14.91%</text></g><g transform="translate(15, 63)"><rect x="0.5" y="0.5" rx="2" width="15" height="15" fill="#555555" stroke-width="1" stroke="#000000"/><text transform="scale(0.095)" x="263" y="132" textLength="693" lengthAdjust="spacingAndGlyphs">C 8.11%</text></g><g transform="translate(15, 84)"><rect x="0.5" y="0.5" rx="2" width="15" height="15" fill="#dea584" stroke-width="1" stroke="#000000"/><text transform="scale(0.095)" x="263" y="132" textLength="946" lengthAdjust="spacingAndGlyphs">Rust 7.35%</text></g><g transform="translate(15, 105)"><rect x="0.5" y="0.5" rx="2" width="15" height="15" fill="#b07219" stroke-width="1" stroke="#000000"/><text transform="scale(0.095)" x="263" y="132" textLength="933" lengthAdjust="spacingAndGlyphs">Java 5.96%</text></g><g transform="translate(15, 126)"><rect x="0.5" y="0.5" rx="2" width="15" height="15" fill="#00ADD8" stroke-width="1" stroke="#000000"/><text transform="scale(0.095)" x="263" y="132" textLength="806" lengthAdjust="spacingAndGlyphs">Go 4.78%</text></g><g transform="translate(15, 147)"><rect x="0.5" y="0.5" rx="2" width="15" height="15" fill="#A97BFF" stroke-width="1" stroke="#000000"/><text transform="scale(0.095)" x="263" y="132" textLength="1048" lengthAdjust="spacingAndGlyphs">Kotlin 4.55%</text></g><g transform="translate(15, 168)"><rect x="0.5" y="0.5" rx="2" width="15" height="15" fill="#000080" stroke-width="1" stroke="#000000"/><text transform="scale(0.095)" x="263" y="132" textLength="874" lengthAdjust="spacingAndGlyphs">Lua 3.48%</text></g><g transform="translate(15, 189)"><rect x="0.5" y="0.5" rx="2" width="15" height="15" fill="#f1e05a" stroke-width="1" stroke="#000000"/><text transform="scale(0.095)" x="263" y="132" textLength="1412" lengthAdjust="spacingAndGlyphs">JavaScript 2.47%</text></g><g transform="translate(15, 210)"><rect x="0.5" y="0.5" rx="2" width="15" height="15" fill="#3178c6" stroke-width="1" stroke="#000000"/><text transform="scale(0.095)" x="263" y="132" textLength="1462" lengthAdjust="spacingAndGlyphs">TypeScript 1.78%</text><rect x="228.5" y="0.5" rx="2" width="15" height="15" fill="#DA3434" stroke-width="1" stroke="#000000"/><text transform="scale(0.095)" x="2663" y="132" textLength="1134" lengthAdjust="spacingAndGlyphs">CMake 1.69%</text></g><g transform="translate(15, 231)"><rect x="0.5" y="0.5" rx="2" width="15" height="15" fill="#6866fb" stroke-width="1" stroke="#000000"/><text transform="scale(0.095)" x="263" y="132" textLength="1814" lengthAdjust="spacingAndGlyphs">Objective-C++ 1.57%</text><rect x="228.5" y="0.5" rx="2" width="15" height="15" fill="#89e051" stroke-width="1" stroke="#000000"/><text transform="scale(0.095)" x="2663" y="132" textLength="982" lengthAdjust="spacingAndGlyphs">Shell 1.13%</text></g><g transform="translate(15, 252)"><rect x="0.5" y="0.5" rx="2" width="15" height="15" fill="#427819" stroke-width="1" stroke="#000000"/><text transform="scale(0.095)" x="263" y="132" textLength="1272" lengthAdjust="spacingAndGlyphs">Makefile 0.25%</text><rect x="228.5" y="0.5" rx="2" width="15" height="15" fill="#8f14e9" stroke-width="1" stroke="#000000"/><text transform="scale(0.095)" x="2663" y="132" textLength="1034" lengthAdjust="spacingAndGlyphs">Metal 0.15%</text></g><g transform="translate(15, 273)"><rect x="0.5" y="0.5" rx="2" width="15" height="15" fill="#5686a5" stroke-width="1" stroke="#000000"/><text transform="scale(0.095)" x="263" y="132" textLength="993" lengthAdjust="spacingAndGlyphs">GLSL 0.12%</text><rect x="228.5" y="0.5" rx="2" width="15" height="15" fill="#C1F12E" stroke-width="1" stroke="#000000"/><text transform="scale(0.095)" x="2663" y="132" textLength="1304" lengthAdjust="spacingAndGlyphs">Batchfile 0.07%</text></g><g transform="translate(15, 294)"><rect x="0.5" y="0.5" rx="2" width="15" height="15" fill="#e34c26" stroke-width="1" stroke="#000000"/><text transform="scale(0.095)" x="263" y="132" textLength="1036" lengthAdjust="spacingAndGlyphs">HTML 0.05%</text><rect x="228.5" y="0.5" rx="2" width="15" height="15" fill="#701516" stroke-width="1" stroke="#000000"/><text transform="scale(0.095)" x="2663" y="132" textLength="999" lengthAdjust="spacingAndGlyphs">Ruby 0.03%</text></g></g></g></svg>