<svg width="457" height="354" viewBox="0 0 457 354" xmlns="http://www.w3.org/2000/svg" lang="en" xml:lang="en"><rect x="2" y="2" stroke-width="4" rx="0" width="453" height="350" stroke="#ffffff" fill="#ffffff"/><g font-weight="600" font-size="110pt" font-family="Verdana,Geneva,DejaVu Sans,sans-serif" text-rendering="geometricPrecision"><text x="1828" y="301" lengthAdjust="spacingAndGlyphs" textLength="52" transform="scale(0.123)" fill="#0969da">.</text><g transform="translate(0, 60)" fill="#24292f"><g transform="translate(15, 0)"><g transform="scale(0.095)"><text x="0" y="132" textLength="3652" lengthAdjust="spacingAndGlyphs">Language Distribution in Public Repositories</text></g></g><g transform="translate(243, 21)"><circle cx="92" cy="92" r="92" fill="#000000"/></g><g transform="translate(244, 22)"><path fill-rule="evenodd" fill="#f34b7d" d="M 0.0,91.00000000000001 A 91 91 0 0 1 181.99356395503767 89.91772519179771 L 91,91 Z"/><path fill-rule="evenodd" fill="#438eff" d="M 181.99356395503767,89.91772519179771 A 91 91 0 0 1 161.14407363920725 148.97248427743517 L 91,91 Z"/><path fill-rule="evenodd" fill="#3178c6" d="M 161.14407363920725,148.97248427743517 A 91 91 0 0 1 134.04219133342883 171.1771149718952 L 91,91 Z"/><path fill-rule="evenodd" fill="#555555" d="M 134.04219133342883,171.1771149718952 A 91 91 0 0 1 101.87125267145176 181.34830305740917 L 91,91 Z"/><path fill-rule="evenodd" fill="#dea584" d="M 101.87125267145176,181.34830305740917 A 91 91 0 0 1 70.57491478950557 179.6781590592861 L 91,91 Z"/><path fill-rule="evenodd" fill="#b07219" d="M 70.57491478950557,179.6781590592861 A 91 91 0 0 1 46.83887527640697 170.56629351143147 L 91,91 Z"/><path fill-rule="evenodd" fill="#00ADD8" d="M 46.83887527640697,170.56629351143147 A 91 91 0 0 1 30.206054446871093 158.7133383026062 L 91,91 Z"/><path fill-rule="evenodd" fill="#A97BFF" d="M 30.206054446871093,158.7133383026062 A 91 91 0 0 1 17.196640883259718 144.2359294376032 L 91,91 Z"/><path fill-rule="evenodd" fill="#000080" d="M 17.196640883259718,144.2359294376032 A 91 91 0 0 1 8.019937695593228 128.3538386241196 L 91,91 Z"/><path fill-rule="evenodd" fill="#f1e05a" d="M 8.019937695593228,128.3538386241196 A 91 91 0 0 1 2.9819690747197853 114.10467987305638 L 91,91 Z"/><path fill-rule="evenodd" fill="#DA3434" d="M 2.9819690747197853,114.10467987305638 A 91 91 0 0 1 0.4146308108379344 99.67703226127504 L 91,91 Z"/><path fill-rule="evenodd" fill="#6866fb" d="M 0.4146308108379344,99.67703226127504 A 91 91 0 0 1 0.010477464188781482 92.38086520164066 L 91,91 Z"/><path fill-rule="evenodd" fill="#8f14e9" d="M 0.010477464188781482,92.38086520164066 A 91 91 0 0 1 0.0030106350296676965 91.7402205829873 L 91,91 Z"/><path fill-rule="evenodd" fill="#959da5" d="M 0.0030106350296676965,91.7402205829873 A 91 91 0 0 1 0.0 91.00000000000003 L 91,91 Z"/></g><g transform="translate(15, 21)"><rect x="0.5" y="0.5" rx="2" width="15" height="15" fill="#f34b7d" stroke-width="1" stroke="#000000"/><text transform="scale(0.095)" x="263" y="132" textLength="1074" lengthAdjust="spacingAndGlyphs">C++ 49.81%</text></g><g transform="translate(15, 42)"><rect x="0.5" y="0.5" rx="2" width="15" height="15" fill="#438eff" stroke-width="1" stroke="#000000"/><text transform="scale(0.095)" x="263" y="132" textLength="1642" lengthAdjust="spacingAndGlyphs">Objective-C 11.18%</text></g><g transform="translate(15, 63)"><rect x="0.5" y="0.5" rx="2" width="15" height="15" fill="#3178c6" stroke-width="1" stroke="#000000"/><text transform="scale(0.095)" x="263" y="132" textLength="1462" lengthAdjust="spacingAndGlyphs">TypeScript 6.17%</text></g><g transform="translate(15, 84)"><rect x="0.5" y="0.5" rx="2" width="15" height="15" fill="#555555" stroke-width="1" stroke="#000000"/><text transform="scale(0.095)" x="263" y="132" textLength="693" lengthAdjust="spacingAndGlyphs">C 5.94%</text></g><g transform="translate(15, 105)"><rect x="0.5" y="0.5" rx="2" width="15" height="15" fill="#dea584" stroke-width="1" stroke="#000000"/><text transform="scale(0.095)" x="263" y="132" textLength="946" lengthAdjust="spacingAndGlyphs">Rust 5.51%</text></g><g transform="translate(15, 126)"><rect x="0.5" y="0.5" rx="2" width="15" height="15" fill="#b07219" stroke-width="1" stroke="#000000"/><text transform="scale(0.095)" x="263" y="132" textLength="933" lengthAdjust="spacingAndGlyphs">Java 4.46%</text></g><g transform="translate(15, 147)"><rect x="0.5" y="0.5" rx="2" width="15" height="15" fill="#00ADD8" stroke-width="1" stroke="#000000"/><text transform="scale(0.095)" x="263" y="132" textLength="806" lengthAdjust="spacingAndGlyphs">Go 3.58%</text></g><g transform="translate(15, 168)"><rect x="0.5" y="0.5" rx="2" width="15" height="15" fill="#A97BFF" stroke-width="1" stroke="#000000"/><text transform="scale(0.095)" x="263" y="132" textLength="1048" lengthAdjust="spacingAndGlyphs">Kotlin 3.41%</text></g><g transform="translate(15, 189)"><rect x="0.5" y="0.5" rx="2" width="15" height="15" fill="#000080" stroke-width="1" stroke="#000000"/><text transform="scale(0.095)" x="263" y="132" textLength="874" lengthAdjust="spacingAndGlyphs">Lua 3.21%</text></g><g transform="translate(15, 210)"><rect x="0.5" y="0.5" rx="2" width="15" height="15" fill="#f1e05a" stroke-width="1" stroke="#000000"/><text transform="scale(0.095)" x="263" y="132" textLength="1412" lengthAdjust="spacingAndGlyphs">JavaScript 2.65%</text><rect x="228.5" y="0.5" rx="2" width="15" height="15" fill="#DA3434" stroke-width="1" stroke="#000000"/><text transform="scale(0.095)" x="2663" y="132" textLength="1134" lengthAdjust="spacingAndGlyphs">CMake 2.57%</text></g><g transform="translate(15, 231)"><rect x="0.5" y="0.5" rx="2" width="15" height="15" fill="#6866fb" stroke-width="1" stroke="#000000"/><text transform="scale(0.095)" x="263" y="132" textLength="1814" lengthAdjust="spacingAndGlyphs">Objective-C++ 1.28%</text><rect x="228.5" y="0.5" rx="2" width="15" height="15" fill="#8f14e9" stroke-width="1" stroke="#000000"/><text transform="scale(0.095)" x="2663" y="132" textLength="1034" lengthAdjust="spacingAndGlyphs">Metal 0.11%</text></g><g transform="translate(15, 252)"><rect x="0.5" y="0.5" rx="2" width="15" height="15" fill="#959da5" stroke-width="1" stroke="#000000"/><text transform="scale(0.095)" x="263" y="132" textLength="1047" lengthAdjust="spacingAndGlyphs">Other 0.13%</text></g></g></g></svg>