<svg width="457" height="396" viewBox="0 0 457 396" xmlns="http://www.w3.org/2000/svg" lang="en" xml:lang="en"><rect x="2" y="2" stroke-width="4" rx="0" width="453" height="392" stroke="#ffffff" fill="#ffffff"/><g font-weight="600" font-size="110pt" font-family="Verdana,Geneva,DejaVu Sans,sans-serif" text-rendering="geometricPrecision"><text x="895" y="301" lengthAdjust="spacingAndGlyphs" textLength="1917" transform="scale(0.123)" fill="#0969da">Rinc's GitHub Statistics</text><g transform="translate(0, 60)" fill="#24292f"><g transform="translate(15, 0)"><g transform="scale(0.095)"><text x="0" y="132" textLength="3652" lengthAdjust="spacingAndGlyphs">Language Distribution in Public Repositories</text></g></g><g transform="translate(243, 21)"><circle cx="92" cy="92" r="92" fill="#000000"/></g><g transform="translate(244, 22)"><path fill-rule="evenodd" fill="#f34b7d" d="M 0.0,91.00000000000001 A 91 91 0 0 1 169.4508392009592 44.886381310232856 L 91,91 Z"/><path fill-rule="evenodd" fill="#438eff" d="M 169.4508392009592,44.886381310232856 A 91 91 0 0 1 174.60007405263903 126.944785691297 L 91,91 Z"/><path fill-rule="evenodd" fill="#555555" d="M 174.60007405263903,126.944785691297 A 91 91 0 0 1 146.39678735988338 163.19553968358338 L 91,91 Z"/><path fill-rule="evenodd" fill="#dea584" d="M 146.39678735988338,163.19553968358338 A 91 91 0 0 1 108.37014784854524 180.32680428471446 L 91,91 Z"/><path fill-rule="evenodd" fill="#b07219" d="M 108.37014784854524,180.32680428471446 A 91 91 0 0 1 74.45023541211776 180.48243007476765 L 91,91 Z"/><path fill-rule="evenodd" fill="#00ADD8" d="M 74.45023541211776,180.48243007476765 A 91 91 0 0 1 48.67754539983059 171.55935598437094 L 91,91 Z"/><path fill-rule="evenodd" fill="#A97BFF" d="M 48.67754539983059,171.55935598437094 A 91 91 0 0 1 27.723587807666696 156.39950810262974 L 91,91 Z"/><path fill-rule="evenodd" fill="#000080" d="M 27.723587807666696,156.39950810262974 A 91 91 0 0 1 15.024483752542622 141.087133387052 L 91,91 Z"/><path fill-rule="evenodd" fill="#f1e05a" d="M 15.024483752542622,141.087133387052 A 91 91 0 0 1 8.18517544611467 128.71875971064253 L 91,91 Z"/><path fill-rule="evenodd" fill="#3178c6" d="M 8.18517544611467,128.71875971064253 A 91 91 0 0 1 4.485898396741192 119.21896921896709 L 91,91 Z"/><path fill-rule="evenodd" fill="#DA3434" d="M 4.485898396741192,119.21896921896709 A 91 91 0 0 1 2.042760928582254 110.1731483275603 L 91,91 Z"/><path fill-rule="evenodd" fill="#6866fb" d="M 2.042760928582254,110.1731483275603 A 91 91 0 0 1 0.5838946399189382 101.29212764761108 L 91,91 Z"/><path fill-rule="evenodd" fill="#89e051" d="M 0.5838946399189382,101.29212764761108 A 91 91 0 0 1 0.08161599914204487 94.85323898461252 L 91,91 Z"/><path fill-rule="evenodd" fill="#427819" d="M 0.08161599914204487,94.85323898461252 A 91 91 0 0 1 0.031645332219554234 93.39967686093503 L 91,91 Z"/><path fill-rule="evenodd" fill="#8f14e9" d="M 0.031645332219554234,93.39967686093503 A 91 91 0 0 1 0.013080818070349665 92.5428991480336 L 91,91 Z"/><path fill-rule="evenodd" fill="#5686a5" d="M 0.013080818070349665,92.5428991480336 A 91 91 0 0 1 0.004111972068599812 91.8650791918488 L 91,91 Z"/><path fill-rule="evenodd" fill="#C1F12E" d="M 0.004111972068599812,91.8650791918488 A 91 91 0 0 1 0.0011673505928087025 91.4609299786116 L 91,91 Z"/><path fill-rule="evenodd" fill="#e34c26" d="M 0.0011673505928087025,91.4609299786116 A 91 91 0 0 1 0.00011818241520700212 91.14666010228032 L 91,91 Z"/><path fill-rule="evenodd" fill="#701516" d="M 0.00011818241520700212,91.14666010228032 A 91 91 0 0 1 0.0 91.00000000000003 L 91,91 Z"/></g><g transform="translate(15, 21)"><rect x="0.5" y="0.5" rx="2" width="15" height="15" fill="#f34b7d" stroke-width="1" stroke="#000000"/><text transform="scale(0.095)" x="263" y="132" textLength="1074" lengthAdjust="spacingAndGlyphs">C++ 41.54%</text></g><g transform="translate(15, 42)"><rect x="0.5" y="0.5" rx="2" width="15" height="15" fill="#438eff" stroke-width="1" stroke="#000000"/><text transform="scale(0.095)" x="263" y="132" textLength="1642" lengthAdjust="spacingAndGlyphs">Objective-C 14.92%</text></g><g transform="translate(15, 63)"><rect x="0.5" y="0.5" rx="2" width="15" height="15" fill="#555555" stroke-width="1" stroke="#000000"/><text transform="scale(0.095)" x="263" y="132" textLength="693" lengthAdjust="spacingAndGlyphs">C 8.12%</text></g><g transform="translate(15, 84)"><rect x="0.5" y="0.5" rx="2" width="15" height="15" fill="#dea584" stroke-width="1" stroke="#000000"/><text transform="scale(0.095)" x="263" y="132" textLength="946" lengthAdjust="spacingAndGlyphs">Rust 7.36%</text></g><g transform="translate(15, 105)"><rect x="0.5" y="0.5" rx="2" width="15" height="15" fill="#b07219" stroke-width="1" stroke="#000000"/><text transform="scale(0.095)" x="263" y="132" textLength="933" lengthAdjust="spacingAndGlyphs">Java 5.97%</text></g><g transform="translate(15, 126)"><rect x="0.5" y="0.5" rx="2" width="15" height="15" fill="#00ADD8" stroke-width="1" stroke="#000000"/><text transform="scale(0.095)" x="263" y="132" textLength="806" lengthAdjust="spacingAndGlyphs">Go 4.79%</text></g><g transform="translate(15, 147)"><rect x="0.5" y="0.5" rx="2" width="15" height="15" fill="#A97BFF" stroke-width="1" stroke="#000000"/><text transform="scale(0.095)" x="263" y="132" textLength="1048" lengthAdjust="spacingAndGlyphs">Kotlin 4.54%</text></g><g transform="translate(15, 168)"><rect x="0.5" y="0.5" rx="2" width="15" height="15" fill="#000080" stroke-width="1" stroke="#000000"/><text transform="scale(0.095)" x="263" y="132" textLength="874" lengthAdjust="spacingAndGlyphs">Lua 3.49%</text></g><g transform="translate(15, 189)"><rect x="0.5" y="0.5" rx="2" width="15" height="15" fill="#f1e05a" stroke-width="1" stroke="#000000"/><text transform="scale(0.095)" x="263" y="132" textLength="1412" lengthAdjust="spacingAndGlyphs">JavaScript 2.47%</text></g><g transform="translate(15, 210)"><rect x="0.5" y="0.5" rx="2" width="15" height="15" fill="#3178c6" stroke-width="1" stroke="#000000"/><text transform="scale(0.095)" x="263" y="132" textLength="1462" lengthAdjust="spacingAndGlyphs">TypeScript 1.78%</text><rect x="228.5" y="0.5" rx="2" width="15" height="15" fill="#DA3434" stroke-width="1" stroke="#000000"/><text transform="scale(0.095)" x="2663" y="132" textLength="1134" lengthAdjust="spacingAndGlyphs">CMake 1.64%</text></g><g transform="translate(15, 231)"><rect x="0.5" y="0.5" rx="2" width="15" height="15" fill="#6866fb" stroke-width="1" stroke="#000000"/><text transform="scale(0.095)" x="263" y="132" textLength="1814" lengthAdjust="spacingAndGlyphs">Objective-C++ 1.57%</text><rect x="228.5" y="0.5" rx="2" width="15" height="15" fill="#89e051" stroke-width="1" stroke="#000000"/><text transform="scale(0.095)" x="2663" y="132" textLength="982" lengthAdjust="spacingAndGlyphs">Shell 1.13%</text></g><g transform="translate(15, 252)"><rect x="0.5" y="0.5" rx="2" width="15" height="15" fill="#427819" stroke-width="1" stroke="#000000"/><text transform="scale(0.095)" x="263" y="132" textLength="1272" lengthAdjust="spacingAndGlyphs">Makefile 0.25%</text><rect x="228.5" y="0.5" rx="2" width="15" height="15" fill="#8f14e9" stroke-width="1" stroke="#000000"/><text transform="scale(0.095)" x="2663" y="132" textLength="1034" lengthAdjust="spacingAndGlyphs">Metal 0.15%</text></g><g transform="translate(15, 273)"><rect x="0.5" y="0.5" rx="2" width="15" height="15" fill="#5686a5" stroke-width="1" stroke="#000000"/><text transform="scale(0.095)" x="263" y="132" textLength="993" lengthAdjust="spacingAndGlyphs">GLSL 0.12%</text><rect x="228.5" y="0.5" rx="2" width="15" height="15" fill="#C1F12E" stroke-width="1" stroke="#000000"/><text transform="scale(0.095)" x="2663" y="132" textLength="1304" lengthAdjust="spacingAndGlyphs">Batchfile 0.07%</text></g><g transform="translate(15, 294)"><rect x="0.5" y="0.5" rx="2" width="15" height="15" fill="#e34c26" stroke-width="1" stroke="#000000"/><text transform="scale(0.095)" x="263" y="132" textLength="1036" lengthAdjust="spacingAndGlyphs">HTML 0.05%</text><rect x="228.5" y="0.5" rx="2" width="15" height="15" fill="#701516" stroke-width="1" stroke="#000000"/><text transform="scale(0.095)" x="2663" y="132" textLength="999" lengthAdjust="spacingAndGlyphs">Ruby 0.03%</text></g></g></g></svg>