<svg width="457" height="396" viewBox="0 0 457 396" xmlns="http://www.w3.org/2000/svg" lang="en" xml:lang="en"><rect x="2" y="2" stroke-width="4" rx="0" width="453" height="392" stroke="#ffffff" fill="#ffffff"/><g font-weight="600" font-size="110pt" font-family="Verdana,Geneva,DejaVu Sans,sans-serif" text-rendering="geometricPrecision"><text x="895" y="301" lengthAdjust="spacingAndGlyphs" textLength="1917" transform="scale(0.123)" fill="#0969da">Rinc's GitHub Statistics</text><g transform="translate(0, 60)" fill="#24292f"><g transform="translate(15, 0)"><g transform="scale(0.095)"><text x="0" y="132" textLength="3652" lengthAdjust="spacingAndGlyphs">Language Distribution in Public Repositories</text></g></g><g transform="translate(243, 21)"><circle cx="92" cy="92" r="92" fill="#000000"/></g><g transform="translate(244, 22)"><path fill-rule="evenodd" fill="#f34b7d" d="M 0.0,91.00000000000001 A 91 91 0 0 1 175.29177017996273 56.70863840661407 L 91,91 Z"/><path fill-rule="evenodd" fill="#438eff" d="M 175.29177017996273,56.70863840661407 A 91 91 0 0 1 168.52756755976458 138.64951487965158 L 91,91 Z"/><path fill-rule="evenodd" fill="#555555" d="M 168.52756755976458,138.64951487965158 A 91 91 0 0 1 137.35874694307546 169.30623590664982 L 91,91 Z"/><path fill-rule="evenodd" fill="#dea584" d="M 137.35874694307546,169.30623590664982 A 91 91 0 0 1 97.66379411167736 181.75568218044077 L 91,91 Z"/><path fill-rule="evenodd" fill="#b07219" d="M 97.66379411167736,181.75568218044077 A 91 91 0 0 1 64.04866894223436 177.91735013341534 L 91,91 Z"/><path fill-rule="evenodd" fill="#00ADD8" d="M 64.04866894223436,177.91735013341534 A 91 91 0 0 1 39.56164814893642 166.06727621837751 L 91,91 Z"/><path fill-rule="evenodd" fill="#A97BFF" d="M 39.56164814893642,166.06727621837751 A 91 91 0 0 1 20.547597468969954 148.5973868991095 L 91,91 Z"/><path fill-rule="evenodd" fill="#000080" d="M 20.547597468969954,148.5973868991095 A 91 91 0 0 1 11.730819629861927 135.6922481359633 L 91,91 Z"/><path fill-rule="evenodd" fill="#f1e05a" d="M 11.730819629861927,135.6922481359633 A 91 91 0 0 1 5.712942854522268 122.73512066250915 L 91,91 Z"/><path fill-rule="evenodd" fill="#3178c6" d="M 5.712942854522268,122.73512066250915 A 91 91 0 0 1 2.7377371695477564 113.15339612899497 L 91,91 Z"/><path fill-rule="evenodd" fill="#6866fb" d="M 2.7377371695477564,113.15339612899497 A 91 91 0 0 1 0.9762055551171755 104.29347335144148 L 91,91 Z"/><path fill-rule="evenodd" fill="#89e051" d="M 0.9762055551171755,104.29347335144148 A 91 91 0 0 1 0.1328035455271248 95.91453034421741 L 91,91 Z"/><path fill-rule="evenodd" fill="#427819" d="M 0.1328035455271248,95.91453034421741 A 91 91 0 0 1 0.06600782881147893 94.46541019364565 L 91,91 Z"/><path fill-rule="evenodd" fill="#8f14e9" d="M 0.06600782881147893,94.46541019364565 A 91 91 0 0 1 0.03746909820014821 93.61112465024317 L 91,91 Z"/><path fill-rule="evenodd" fill="#C1F12E" d="M 0.03746909820014821,93.61112465024317 A 91 91 0 0 1 0.01699489373257279 92.75863066984347 L 91,91 Z"/><path fill-rule="evenodd" fill="#5686a5" d="M 0.01699489373257279,92.75863066984347 A 91 91 0 0 1 0.006439761347976969 92.08258722272356 L 91,91 Z"/><path fill-rule="evenodd" fill="#DA3434" d="M 0.006439761347976969,92.08258722272356 A 91 91 0 0 1 0.0011613192878314749 91.4597377097027 L 91,91 Z"/><path fill-rule="evenodd" fill="#e34c26" d="M 0.0011613192878314749,91.4597377097027 A 91 91 0 0 1 0.00011757180554639035 91.14628073962876 L 91,91 Z"/><path fill-rule="evenodd" fill="#701516" d="M 0.00011757180554639035,91.14628073962876 A 91 91 0 0 1 0.0 91.00000000000003 L 91,91 Z"/></g><g transform="translate(15, 21)"><rect x="0.5" y="0.5" rx="2" width="15" height="15" fill="#f34b7d" stroke-width="1" stroke="#000000"/><text transform="scale(0.095)" x="263" y="132" textLength="1074" lengthAdjust="spacingAndGlyphs">C++ 43.85%</text></g><g transform="translate(15, 42)"><rect x="0.5" y="0.5" rx="2" width="15" height="15" fill="#438eff" stroke-width="1" stroke="#000000"/><text transform="scale(0.095)" x="263" y="132" textLength="1642" lengthAdjust="spacingAndGlyphs">Objective-C 14.92%</text></g><g transform="translate(15, 63)"><rect x="0.5" y="0.5" rx="2" width="15" height="15" fill="#555555" stroke-width="1" stroke="#000000"/><text transform="scale(0.095)" x="263" y="132" textLength="693" lengthAdjust="spacingAndGlyphs">C 7.72%</text></g><g transform="translate(15, 84)"><rect x="0.5" y="0.5" rx="2" width="15" height="15" fill="#dea584" stroke-width="1" stroke="#000000"/><text transform="scale(0.095)" x="263" y="132" textLength="946" lengthAdjust="spacingAndGlyphs">Rust 7.34%</text></g><g transform="translate(15, 105)"><rect x="0.5" y="0.5" rx="2" width="15" height="15" fill="#b07219" stroke-width="1" stroke="#000000"/><text transform="scale(0.095)" x="263" y="132" textLength="933" lengthAdjust="spacingAndGlyphs">Java 5.95%</text></g><g transform="translate(15, 126)"><rect x="0.5" y="0.5" rx="2" width="15" height="15" fill="#00ADD8" stroke-width="1" stroke="#000000"/><text transform="scale(0.095)" x="263" y="132" textLength="806" lengthAdjust="spacingAndGlyphs">Go 4.78%</text></g><g transform="translate(15, 147)"><rect x="0.5" y="0.5" rx="2" width="15" height="15" fill="#A97BFF" stroke-width="1" stroke="#000000"/><text transform="scale(0.095)" x="263" y="132" textLength="1048" lengthAdjust="spacingAndGlyphs">Kotlin 4.53%</text></g><g transform="translate(15, 168)"><rect x="0.5" y="0.5" rx="2" width="15" height="15" fill="#000080" stroke-width="1" stroke="#000000"/><text transform="scale(0.095)" x="263" y="132" textLength="874" lengthAdjust="spacingAndGlyphs">Lua 2.74%</text></g><g transform="translate(15, 189)"><rect x="0.5" y="0.5" rx="2" width="15" height="15" fill="#f1e05a" stroke-width="1" stroke="#000000"/><text transform="scale(0.095)" x="263" y="132" textLength="1412" lengthAdjust="spacingAndGlyphs">JavaScript 2.50%</text></g><g transform="translate(15, 210)"><rect x="0.5" y="0.5" rx="2" width="15" height="15" fill="#3178c6" stroke-width="1" stroke="#000000"/><text transform="scale(0.095)" x="263" y="132" textLength="1462" lengthAdjust="spacingAndGlyphs">TypeScript 1.76%</text><rect x="228.5" y="0.5" rx="2" width="15" height="15" fill="#6866fb" stroke-width="1" stroke="#000000"/><text transform="scale(0.095)" x="2663" y="132" textLength="1814" lengthAdjust="spacingAndGlyphs">Objective-C++ 1.58%</text></g><g transform="translate(15, 231)"><rect x="0.5" y="0.5" rx="2" width="15" height="15" fill="#89e051" stroke-width="1" stroke="#000000"/><text transform="scale(0.095)" x="263" y="132" textLength="982" lengthAdjust="spacingAndGlyphs">Shell 1.47%</text><rect x="228.5" y="0.5" rx="2" width="15" height="15" fill="#427819" stroke-width="1" stroke="#000000"/><text transform="scale(0.095)" x="2663" y="132" textLength="1272" lengthAdjust="spacingAndGlyphs">Makefile 0.25%</text></g><g transform="translate(15, 252)"><rect x="0.5" y="0.5" rx="2" width="15" height="15" fill="#8f14e9" stroke-width="1" stroke="#000000"/><text transform="scale(0.095)" x="263" y="132" textLength="1034" lengthAdjust="spacingAndGlyphs">Metal 0.15%</text><rect x="228.5" y="0.5" rx="2" width="15" height="15" fill="#C1F12E" stroke-width="1" stroke="#000000"/><text transform="scale(0.095)" x="2663" y="132" textLength="1304" lengthAdjust="spacingAndGlyphs">Batchfile 0.15%</text></g><g transform="translate(15, 273)"><rect x="0.5" y="0.5" rx="2" width="15" height="15" fill="#5686a5" stroke-width="1" stroke="#000000"/><text transform="scale(0.095)" x="263" y="132" textLength="993" lengthAdjust="spacingAndGlyphs">GLSL 0.12%</text><rect x="228.5" y="0.5" rx="2" width="15" height="15" fill="#DA3434" stroke-width="1" stroke="#000000"/><text transform="scale(0.095)" x="2663" y="132" textLength="1134" lengthAdjust="spacingAndGlyphs">CMake 0.11%</text></g><g transform="translate(15, 294)"><rect x="0.5" y="0.5" rx="2" width="15" height="15" fill="#e34c26" stroke-width="1" stroke="#000000"/><text transform="scale(0.095)" x="263" y="132" textLength="1036" lengthAdjust="spacingAndGlyphs">HTML 0.05%</text><rect x="228.5" y="0.5" rx="2" width="15" height="15" fill="#701516" stroke-width="1" stroke="#000000"/><text transform="scale(0.095)" x="2663" y="132" textLength="999" lengthAdjust="spacingAndGlyphs">Ruby 0.03%</text></g></g></g></svg>