<svg width="457" height="375" viewBox="0 0 457 375" xmlns="http://www.w3.org/2000/svg" lang="en" xml:lang="en"><rect x="2" y="2" stroke-width="4" rx="0" width="453" height="371" stroke="#ffffff" fill="#ffffff"/><g font-weight="600" font-size="110pt" font-family="Verdana,Geneva,DejaVu Sans,sans-serif" text-rendering="geometricPrecision"><text x="895" y="301" lengthAdjust="spacingAndGlyphs" textLength="1917" transform="scale(0.123)" fill="#0969da">Rinc's GitHub Statistics</text><g transform="translate(0, 60)" fill="#24292f"><g transform="translate(15, 0)"><g transform="scale(0.095)"><text x="0" y="132" textLength="3652" lengthAdjust="spacingAndGlyphs">Language Distribution in Public Repositories</text></g></g><g transform="translate(243, 21)"><circle cx="92" cy="92" r="92" fill="#000000"/></g><g transform="translate(244, 22)"><path fill-rule="evenodd" fill="#f34b7d" d="M 0.0,91.00000000000001 A 91 91 0 0 1 177.88413718442123 63.941790419196806 L 91,91 Z"/><path fill-rule="evenodd" fill="#438eff" d="M 177.88413718442123,63.941790419196806 A 91 91 0 0 1 165.5343146703388 143.20762335735003 L 91,91 Z"/><path fill-rule="evenodd" fill="#555555" d="M 165.5343146703388,143.20762335735003 A 91 91 0 0 1 133.52412986975736 171.4530818478696 L 91,91 Z"/><path fill-rule="evenodd" fill="#dea584" d="M 133.52412986975736,171.4530818478696 A 91 91 0 0 1 94.36593843129312 181.93772846556453 L 91,91 Z"/><path fill-rule="evenodd" fill="#b07219" d="M 94.36593843129312,181.93772846556453 A 91 91 0 0 1 61.74930008983609 177.17074071148244 L 91,91 Z"/><path fill-rule="evenodd" fill="#00ADD8" d="M 61.74930008983609,177.17074071148244 A 91 91 0 0 1 38.16251897654382 165.0891395488968 L 91,91 Z"/><path fill-rule="evenodd" fill="#A97BFF" d="M 38.16251897654382,165.0891395488968 A 91 91 0 0 1 19.924927674163385 147.8272302147227 L 91,91 Z"/><path fill-rule="evenodd" fill="#000080" d="M 19.924927674163385,147.8272302147227 A 91 91 0 0 1 11.412877499374531 135.12357569452453 L 91,91 Z"/><path fill-rule="evenodd" fill="#f1e05a" d="M 11.412877499374531,135.12357569452453 A 91 91 0 0 1 5.339735543643172 121.71350017935127 L 91,91 Z"/><path fill-rule="evenodd" fill="#3178c6" d="M 5.339735543643172,121.71350017935127 A 91 91 0 0 1 2.546496806925674 112.37703844953249 L 91,91 Z"/><path fill-rule="evenodd" fill="#6866fb" d="M 2.546496806925674,112.37703844953249 A 91 91 0 0 1 0.9018343917865934 103.77969303367465 L 91,91 Z"/><path fill-rule="evenodd" fill="#89e051" d="M 0.9018343917865934,103.77969303367465 A 91 91 0 0 1 0.1236810393193224 95.74285274456527 L 91,91 Z"/><path fill-rule="evenodd" fill="#427819" d="M 0.1236810393193224,95.74285274456527 A 91 91 0 0 1 0.06099707193074266 94.33132803077245 L 91,91 Z"/><path fill-rule="evenodd" fill="#8f14e9" d="M 0.06099707193074266,94.33132803077245 A 91 91 0 0 1 0.03432605285246382 93.49923255045285 L 91,91 Z"/><path fill-rule="evenodd" fill="#C1F12E" d="M 0.03432605285246382,93.49923255045285 A 91 91 0 0 1 0.016085014123234487 92.71091023807472 L 91,91 Z"/><path fill-rule="evenodd" fill="#959da5" d="M 0.016085014123234487,92.71091023807472 A 91 91 0 0 1 0.0 91.00000000000003 L 91,91 Z"/></g><g transform="translate(15, 21)"><rect x="0.5" y="0.5" rx="2" width="15" height="15" fill="#f34b7d" stroke-width="1" stroke="#000000"/><text transform="scale(0.095)" x="263" y="132" textLength="1074" lengthAdjust="spacingAndGlyphs">C++ 45.19%</text></g><g transform="translate(15, 42)"><rect x="0.5" y="0.5" rx="2" width="15" height="15" fill="#438eff" stroke-width="1" stroke="#000000"/><text transform="scale(0.095)" x="263" y="132" textLength="1642" lengthAdjust="spacingAndGlyphs">Objective-C 14.53%</text></g><g transform="translate(15, 63)"><rect x="0.5" y="0.5" rx="2" width="15" height="15" fill="#555555" stroke-width="1" stroke="#000000"/><text transform="scale(0.095)" x="263" y="132" textLength="693" lengthAdjust="spacingAndGlyphs">C 7.54%</text></g><g transform="translate(15, 84)"><rect x="0.5" y="0.5" rx="2" width="15" height="15" fill="#dea584" stroke-width="1" stroke="#000000"/><text transform="scale(0.095)" x="263" y="132" textLength="946" lengthAdjust="spacingAndGlyphs">Rust 7.15%</text></g><g transform="translate(15, 105)"><rect x="0.5" y="0.5" rx="2" width="15" height="15" fill="#b07219" stroke-width="1" stroke="#000000"/><text transform="scale(0.095)" x="263" y="132" textLength="933" lengthAdjust="spacingAndGlyphs">Java 5.80%</text></g><g transform="translate(15, 126)"><rect x="0.5" y="0.5" rx="2" width="15" height="15" fill="#00ADD8" stroke-width="1" stroke="#000000"/><text transform="scale(0.095)" x="263" y="132" textLength="806" lengthAdjust="spacingAndGlyphs">Go 4.65%</text></g><g transform="translate(15, 147)"><rect x="0.5" y="0.5" rx="2" width="15" height="15" fill="#A97BFF" stroke-width="1" stroke="#000000"/><text transform="scale(0.095)" x="263" y="132" textLength="1048" lengthAdjust="spacingAndGlyphs">Kotlin 4.41%</text></g><g transform="translate(15, 168)"><rect x="0.5" y="0.5" rx="2" width="15" height="15" fill="#000080" stroke-width="1" stroke="#000000"/><text transform="scale(0.095)" x="263" y="132" textLength="874" lengthAdjust="spacingAndGlyphs">Lua 2.68%</text></g><g transform="translate(15, 189)"><rect x="0.5" y="0.5" rx="2" width="15" height="15" fill="#f1e05a" stroke-width="1" stroke="#000000"/><text transform="scale(0.095)" x="263" y="132" textLength="1412" lengthAdjust="spacingAndGlyphs">JavaScript 2.58%</text></g><g transform="translate(15, 210)"><rect x="0.5" y="0.5" rx="2" width="15" height="15" fill="#3178c6" stroke-width="1" stroke="#000000"/><text transform="scale(0.095)" x="263" y="132" textLength="1462" lengthAdjust="spacingAndGlyphs">TypeScript 1.71%</text><rect x="228.5" y="0.5" rx="2" width="15" height="15" fill="#6866fb" stroke-width="1" stroke="#000000"/><text transform="scale(0.095)" x="2663" y="132" textLength="1814" lengthAdjust="spacingAndGlyphs">Objective-C++ 1.53%</text></g><g transform="translate(15, 231)"><rect x="0.5" y="0.5" rx="2" width="15" height="15" fill="#89e051" stroke-width="1" stroke="#000000"/><text transform="scale(0.095)" x="263" y="132" textLength="982" lengthAdjust="spacingAndGlyphs">Shell 1.41%</text><rect x="228.5" y="0.5" rx="2" width="15" height="15" fill="#427819" stroke-width="1" stroke="#000000"/><text transform="scale(0.095)" x="2663" y="132" textLength="1272" lengthAdjust="spacingAndGlyphs">Makefile 0.25%</text></g><g transform="translate(15, 252)"><rect x="0.5" y="0.5" rx="2" width="15" height="15" fill="#8f14e9" stroke-width="1" stroke="#000000"/><text transform="scale(0.095)" x="263" y="132" textLength="1034" lengthAdjust="spacingAndGlyphs">Metal 0.15%</text><rect x="228.5" y="0.5" rx="2" width="15" height="15" fill="#C1F12E" stroke-width="1" stroke="#000000"/><text transform="scale(0.095)" x="2663" y="132" textLength="1304" lengthAdjust="spacingAndGlyphs">Batchfile 0.14%</text></g><g transform="translate(15, 273)"><rect x="0.5" y="0.5" rx="2" width="15" height="15" fill="#959da5" stroke-width="1" stroke="#000000"/><text transform="scale(0.095)" x="263" y="132" textLength="1047" lengthAdjust="spacingAndGlyphs">Other 0.30%</text></g></g></g></svg>