<svg width="457" height="396" viewBox="0 0 457 396" xmlns="http://www.w3.org/2000/svg" lang="en" xml:lang="en"><rect x="2" y="2" stroke-width="4" rx="0" width="453" height="392" stroke="#ffffff" fill="#ffffff"/><g font-weight="600" font-size="110pt" font-family="Verdana,Geneva,DejaVu Sans,sans-serif" text-rendering="geometricPrecision"><text x="895" y="301" lengthAdjust="spacingAndGlyphs" textLength="1917" transform="scale(0.123)" fill="#0969da">Rinc's GitHub Statistics</text><g transform="translate(0, 60)" fill="#24292f"><g transform="translate(15, 0)"><g transform="scale(0.095)"><text x="0" y="132" textLength="3652" lengthAdjust="spacingAndGlyphs">Language Distribution in Public Repositories</text></g></g><g transform="translate(243, 21)"><circle cx="92" cy="92" r="92" fill="#000000"/></g><g transform="translate(244, 22)"><path fill-rule="evenodd" fill="#f34b7d" d="M 0.0,91.00000000000001 A 91 91 0 0 1 176.59691105961934 60.110376871000575 L 91,91 Z"/><path fill-rule="evenodd" fill="#438eff" d="M 176.59691105961934,60.110376871000575 A 91 91 0 0 1 167.15976591981516 140.80652622939047 L 91,91 Z"/><path fill-rule="evenodd" fill="#555555" d="M 167.15976591981516,140.80652622939047 A 91 91 0 0 1 135.56316425348058 170.34181994205395 L 91,91 Z"/><path fill-rule="evenodd" fill="#dea584" d="M 135.56316425348058,170.34181994205395 A 91 91 0 0 1 96.13024611122127 181.85527268594984 L 91,91 Z"/><path fill-rule="evenodd" fill="#b07219" d="M 96.13024611122127,181.85527268594984 A 91 91 0 0 1 62.9979631862209 177.58455944497126 L 91,91 Z"/><path fill-rule="evenodd" fill="#00ADD8" d="M 62.9979631862209,177.58455944497126 A 91 91 0 0 1 38.9419176812233 165.63883751299633 L 91,91 Z"/><path fill-rule="evenodd" fill="#A97BFF" d="M 38.9419176812233,165.63883751299633 A 91 91 0 0 1 20.258321257497755 148.24172332042954 L 91,91 Z"/><path fill-rule="evenodd" fill="#000080" d="M 20.258321257497755,148.24172332042954 A 91 91 0 0 1 11.548269511310195 135.36690796475003 L 91,91 Z"/><path fill-rule="evenodd" fill="#f1e05a" d="M 11.548269511310195,135.36690796475003 A 91 91 0 0 1 5.594688643024156 122.41548649978245 L 91,91 Z"/><path fill-rule="evenodd" fill="#3178c6" d="M 5.594688643024156,122.41548649978245 A 91 91 0 0 1 2.669714167030719 112.880598818724 L 91,91 Z"/><path fill-rule="evenodd" fill="#6866fb" d="M 2.669714167030719,112.880598818724 A 91 91 0 0 1 0.9516643927953368 104.1262048731626 L 91,91 Z"/><path fill-rule="evenodd" fill="#89e051" d="M 0.9516643927953368,104.1262048731626 A 91 91 0 0 1 0.12943374850468103 95.85182327920111 L 91,91 Z"/><path fill-rule="evenodd" fill="#427819" d="M 0.12943374850468103,95.85182327920111 A 91 91 0 0 1 0.064332726515687 94.4211719521465 L 91,91 Z"/><path fill-rule="evenodd" fill="#8f14e9" d="M 0.064332726515687,94.4211719521465 A 91 91 0 0 1 0.03651818416437891 93.57778508416453 L 91,91 Z"/><path fill-rule="evenodd" fill="#C1F12E" d="M 0.03651818416437891,93.57778508416453 A 91 91 0 0 1 0.016563571002748745 92.73617267880147 L 91,91 Z"/><path fill-rule="evenodd" fill="#5686a5" d="M 0.016563571002748745,92.73617267880147 A 91 91 0 0 1 0.006276320032867488 92.06876136428546 L 91,91 Z"/><path fill-rule="evenodd" fill="#DA3434" d="M 0.006276320032867488,92.06876136428546 A 91 91 0 0 1 0.0011318446955641548 91.45386611849587 L 91,91 Z"/><path fill-rule="evenodd" fill="#e34c26" d="M 0.0011318446955641548,91.45386611849587 A 91 91 0 0 1 0.00011458779630402205 91.14441248490677 L 91,91 Z"/><path fill-rule="evenodd" fill="#701516" d="M 0.00011458779630402205,91.14441248490677 A 91 91 0 0 1 0.0 91.00000000000003 L 91,91 Z"/></g><g transform="translate(15, 21)"><rect x="0.5" y="0.5" rx="2" width="15" height="15" fill="#f34b7d" stroke-width="1" stroke="#000000"/><text transform="scale(0.095)" x="263" y="132" textLength="1074" lengthAdjust="spacingAndGlyphs">C++ 44.49%</text></g><g transform="translate(15, 42)"><rect x="0.5" y="0.5" rx="2" width="15" height="15" fill="#438eff" stroke-width="1" stroke="#000000"/><text transform="scale(0.095)" x="263" y="132" textLength="1642" lengthAdjust="spacingAndGlyphs">Objective-C 14.73%</text></g><g transform="translate(15, 63)"><rect x="0.5" y="0.5" rx="2" width="15" height="15" fill="#555555" stroke-width="1" stroke="#000000"/><text transform="scale(0.095)" x="263" y="132" textLength="693" lengthAdjust="spacingAndGlyphs">C 7.64%</text></g><g transform="translate(15, 84)"><rect x="0.5" y="0.5" rx="2" width="15" height="15" fill="#dea584" stroke-width="1" stroke="#000000"/><text transform="scale(0.095)" x="263" y="132" textLength="946" lengthAdjust="spacingAndGlyphs">Rust 7.25%</text></g><g transform="translate(15, 105)"><rect x="0.5" y="0.5" rx="2" width="15" height="15" fill="#b07219" stroke-width="1" stroke="#000000"/><text transform="scale(0.095)" x="263" y="132" textLength="933" lengthAdjust="spacingAndGlyphs">Java 5.88%</text></g><g transform="translate(15, 126)"><rect x="0.5" y="0.5" rx="2" width="15" height="15" fill="#00ADD8" stroke-width="1" stroke="#000000"/><text transform="scale(0.095)" x="263" y="132" textLength="806" lengthAdjust="spacingAndGlyphs">Go 4.71%</text></g><g transform="translate(15, 147)"><rect x="0.5" y="0.5" rx="2" width="15" height="15" fill="#A97BFF" stroke-width="1" stroke="#000000"/><text transform="scale(0.095)" x="263" y="132" textLength="1048" lengthAdjust="spacingAndGlyphs">Kotlin 4.48%</text></g><g transform="translate(15, 168)"><rect x="0.5" y="0.5" rx="2" width="15" height="15" fill="#000080" stroke-width="1" stroke="#000000"/><text transform="scale(0.095)" x="263" y="132" textLength="874" lengthAdjust="spacingAndGlyphs">Lua 2.72%</text></g><g transform="translate(15, 189)"><rect x="0.5" y="0.5" rx="2" width="15" height="15" fill="#f1e05a" stroke-width="1" stroke="#000000"/><text transform="scale(0.095)" x="263" y="132" textLength="1412" lengthAdjust="spacingAndGlyphs">JavaScript 2.50%</text></g><g transform="translate(15, 210)"><rect x="0.5" y="0.5" rx="2" width="15" height="15" fill="#3178c6" stroke-width="1" stroke="#000000"/><text transform="scale(0.095)" x="263" y="132" textLength="1462" lengthAdjust="spacingAndGlyphs">TypeScript 1.75%</text><rect x="228.5" y="0.5" rx="2" width="15" height="15" fill="#6866fb" stroke-width="1" stroke="#000000"/><text transform="scale(0.095)" x="2663" y="132" textLength="1814" lengthAdjust="spacingAndGlyphs">Objective-C++ 1.56%</text></g><g transform="translate(15, 231)"><rect x="0.5" y="0.5" rx="2" width="15" height="15" fill="#89e051" stroke-width="1" stroke="#000000"/><text transform="scale(0.095)" x="263" y="132" textLength="982" lengthAdjust="spacingAndGlyphs">Shell 1.45%</text><rect x="228.5" y="0.5" rx="2" width="15" height="15" fill="#427819" stroke-width="1" stroke="#000000"/><text transform="scale(0.095)" x="2663" y="132" textLength="1272" lengthAdjust="spacingAndGlyphs">Makefile 0.25%</text></g><g transform="translate(15, 252)"><rect x="0.5" y="0.5" rx="2" width="15" height="15" fill="#8f14e9" stroke-width="1" stroke="#000000"/><text transform="scale(0.095)" x="263" y="132" textLength="1034" lengthAdjust="spacingAndGlyphs">Metal 0.15%</text><rect x="228.5" y="0.5" rx="2" width="15" height="15" fill="#C1F12E" stroke-width="1" stroke="#000000"/><text transform="scale(0.095)" x="2663" y="132" textLength="1304" lengthAdjust="spacingAndGlyphs">Batchfile 0.15%</text></g><g transform="translate(15, 273)"><rect x="0.5" y="0.5" rx="2" width="15" height="15" fill="#5686a5" stroke-width="1" stroke="#000000"/><text transform="scale(0.095)" x="263" y="132" textLength="993" lengthAdjust="spacingAndGlyphs">GLSL 0.12%</text><rect x="228.5" y="0.5" rx="2" width="15" height="15" fill="#DA3434" stroke-width="1" stroke="#000000"/><text transform="scale(0.095)" x="2663" y="132" textLength="1134" lengthAdjust="spacingAndGlyphs">CMake 0.11%</text></g><g transform="translate(15, 294)"><rect x="0.5" y="0.5" rx="2" width="15" height="15" fill="#e34c26" stroke-width="1" stroke="#000000"/><text transform="scale(0.095)" x="263" y="132" textLength="1036" lengthAdjust="spacingAndGlyphs">HTML 0.05%</text><rect x="228.5" y="0.5" rx="2" width="15" height="15" fill="#701516" stroke-width="1" stroke="#000000"/><text transform="scale(0.095)" x="2663" y="132" textLength="999" lengthAdjust="spacingAndGlyphs">Ruby 0.03%</text></g></g></g></svg>