<svg width="457" height="396" viewBox="0 0 457 396" xmlns="http://www.w3.org/2000/svg" lang="en" xml:lang="en"><rect x="2" y="2" stroke-width="4" rx="0" width="453" height="392" stroke="#ffffff" fill="#ffffff"/><g font-weight="600" font-size="110pt" font-family="Verdana,Geneva,DejaVu Sans,sans-serif" text-rendering="geometricPrecision"><text x="895" y="301" lengthAdjust="spacingAndGlyphs" textLength="1917" transform="scale(0.123)" fill="#0969da">Rinc's GitHub Statistics</text><g transform="translate(0, 60)" fill="#24292f"><g transform="translate(15, 0)"><g transform="scale(0.095)"><text x="0" y="132" textLength="3652" lengthAdjust="spacingAndGlyphs">Language Distribution in Public Repositories</text></g></g><g transform="translate(243, 21)"><circle cx="92" cy="92" r="92" fill="#000000"/></g><g transform="translate(244, 22)"><path fill-rule="evenodd" fill="#f34b7d" d="M 0.0,91.00000000000001 A 91 91 0 0 1 168.08744741136928 42.64169718032512 L 91,91 Z"/><path fill-rule="evenodd" fill="#438eff" d="M 168.08744741136928,42.64169718032512 A 91 91 0 0 1 174.43953549212694 127.31589069344287 L 91,91 Z"/><path fill-rule="evenodd" fill="#555555" d="M 174.43953549212694,127.31589069344287 A 91 91 0 0 1 144.82052613755417 164.37813684113848 L 91,91 Z"/><path fill-rule="evenodd" fill="#dea584" d="M 144.82052613755417,164.37813684113848 A 91 91 0 0 1 112.02246959748268 179.5384423401661 L 91,91 Z"/><path fill-rule="evenodd" fill="#b07219" d="M 112.02246959748268,179.5384423401661 A 91 91 0 0 1 76.93873650121954 180.90706795807472 L 91,91 Z"/><path fill-rule="evenodd" fill="#00ADD8" d="M 76.93873650121954,180.90706795807472 A 91 91 0 0 1 50.05753089956494 172.26939290999977 L 91,91 Z"/><path fill-rule="evenodd" fill="#A97BFF" d="M 50.05753089956494,172.26939290999977 A 91 91 0 0 1 28.17788392606414 156.83602153831083 L 91,91 Z"/><path fill-rule="evenodd" fill="#000080" d="M 28.17788392606414,156.83602153831083 A 91 91 0 0 1 14.959209009750111 140.98797961087377 L 91,91 Z"/><path fill-rule="evenodd" fill="#f1e05a" d="M 14.959209009750111,140.98797961087377 A 91 91 0 0 1 7.912724540691457 128.1147498543232 L 91,91 Z"/><path fill-rule="evenodd" fill="#3178c6" d="M 7.912724540691457,128.1147498543232 A 91 91 0 0 1 4.173547321589808 118.24274426859003 L 91,91 Z"/><path fill-rule="evenodd" fill="#6866fb" d="M 4.173547321589808,118.24274426859003 A 91 91 0 0 1 1.973111054477144 109.8470964522799 L 91,91 Z"/><path fill-rule="evenodd" fill="#DA3434" d="M 1.973111054477144,109.8470964522799 A 91 91 0 0 1 0.6097054906816624 101.51639950357044 L 91,91 Z"/><path fill-rule="evenodd" fill="#89e051" d="M 0.6097054906816624,101.51639950357044 A 91 91 0 0 1 0.08751708513418066 94.99004389126604 L 91,91 Z"/><path fill-rule="evenodd" fill="#427819" d="M 0.08751708513418066,94.99004389126604 A 91 91 0 0 1 0.033933611022973764 93.48490758705924 L 91,91 Z"/><path fill-rule="evenodd" fill="#8f14e9" d="M 0.033933611022973764,93.48490758705924 A 91 91 0 0 1 0.014026728513599096 92.5977070571175 L 91,91 Z"/><path fill-rule="evenodd" fill="#5686a5" d="M 0.014026728513599096,92.5977070571175 A 91 91 0 0 1 0.004409325477027437 91.89581124946463 L 91,91 Z"/><path fill-rule="evenodd" fill="#C1F12E" d="M 0.004409325477027437,91.89581124946463 A 91 91 0 0 1 0.0012517669456570957 91.47730495198361 L 91,91 Z"/><path fill-rule="evenodd" fill="#e34c26" d="M 0.0012517669456570957,91.47730495198361 A 91 91 0 0 1 0.00012672873289432118 91.15187038331102 L 91,91 Z"/><path fill-rule="evenodd" fill="#701516" d="M 0.00012672873289432118,91.15187038331102 A 91 91 0 0 1 0.0 91.00000000000003 L 91,91 Z"/></g><g transform="translate(15, 21)"><rect x="0.5" y="0.5" rx="2" width="15" height="15" fill="#f34b7d" stroke-width="1" stroke="#000000"/><text transform="scale(0.095)" x="263" y="132" textLength="1074" lengthAdjust="spacingAndGlyphs">C++ 41.08%</text></g><g transform="translate(15, 42)"><rect x="0.5" y="0.5" rx="2" width="15" height="15" fill="#438eff" stroke-width="1" stroke="#000000"/><text transform="scale(0.095)" x="263" y="132" textLength="1642" lengthAdjust="spacingAndGlyphs">Objective-C 15.45%</text></g><g transform="translate(15, 63)"><rect x="0.5" y="0.5" rx="2" width="15" height="15" fill="#555555" stroke-width="1" stroke="#000000"/><text transform="scale(0.095)" x="263" y="132" textLength="693" lengthAdjust="spacingAndGlyphs">C 8.39%</text></g><g transform="translate(15, 84)"><rect x="0.5" y="0.5" rx="2" width="15" height="15" fill="#dea584" stroke-width="1" stroke="#000000"/><text transform="scale(0.095)" x="263" y="132" textLength="946" lengthAdjust="spacingAndGlyphs">Rust 6.36%</text></g><g transform="translate(15, 105)"><rect x="0.5" y="0.5" rx="2" width="15" height="15" fill="#b07219" stroke-width="1" stroke="#000000"/><text transform="scale(0.095)" x="263" y="132" textLength="933" lengthAdjust="spacingAndGlyphs">Java 6.18%</text></g><g transform="translate(15, 126)"><rect x="0.5" y="0.5" rx="2" width="15" height="15" fill="#00ADD8" stroke-width="1" stroke="#000000"/><text transform="scale(0.095)" x="263" y="132" textLength="806" lengthAdjust="spacingAndGlyphs">Go 4.96%</text></g><g transform="translate(15, 147)"><rect x="0.5" y="0.5" rx="2" width="15" height="15" fill="#A97BFF" stroke-width="1" stroke="#000000"/><text transform="scale(0.095)" x="263" y="132" textLength="1048" lengthAdjust="spacingAndGlyphs">Kotlin 4.70%</text></g><g transform="translate(15, 168)"><rect x="0.5" y="0.5" rx="2" width="15" height="15" fill="#000080" stroke-width="1" stroke="#000000"/><text transform="scale(0.095)" x="263" y="132" textLength="874" lengthAdjust="spacingAndGlyphs">Lua 3.62%</text></g><g transform="translate(15, 189)"><rect x="0.5" y="0.5" rx="2" width="15" height="15" fill="#f1e05a" stroke-width="1" stroke="#000000"/><text transform="scale(0.095)" x="263" y="132" textLength="1412" lengthAdjust="spacingAndGlyphs">JavaScript 2.57%</text></g><g transform="translate(15, 210)"><rect x="0.5" y="0.5" rx="2" width="15" height="15" fill="#3178c6" stroke-width="1" stroke="#000000"/><text transform="scale(0.095)" x="263" y="132" textLength="1462" lengthAdjust="spacingAndGlyphs">TypeScript 1.85%</text><rect x="228.5" y="0.5" rx="2" width="15" height="15" fill="#6866fb" stroke-width="1" stroke="#000000"/><text transform="scale(0.095)" x="2663" y="132" textLength="1814" lengthAdjust="spacingAndGlyphs">Objective-C++ 1.52%</text></g><g transform="translate(15, 231)"><rect x="0.5" y="0.5" rx="2" width="15" height="15" fill="#DA3434" stroke-width="1" stroke="#000000"/><text transform="scale(0.095)" x="263" y="132" textLength="1134" lengthAdjust="spacingAndGlyphs">CMake 1.48%</text><rect x="228.5" y="0.5" rx="2" width="15" height="15" fill="#89e051" stroke-width="1" stroke="#000000"/><text transform="scale(0.095)" x="2663" y="132" textLength="982" lengthAdjust="spacingAndGlyphs">Shell 1.15%</text></g><g transform="translate(15, 252)"><rect x="0.5" y="0.5" rx="2" width="15" height="15" fill="#427819" stroke-width="1" stroke="#000000"/><text transform="scale(0.095)" x="263" y="132" textLength="1272" lengthAdjust="spacingAndGlyphs">Makefile 0.26%</text><rect x="228.5" y="0.5" rx="2" width="15" height="15" fill="#8f14e9" stroke-width="1" stroke="#000000"/><text transform="scale(0.095)" x="2663" y="132" textLength="1034" lengthAdjust="spacingAndGlyphs">Metal 0.16%</text></g><g transform="translate(15, 273)"><rect x="0.5" y="0.5" rx="2" width="15" height="15" fill="#5686a5" stroke-width="1" stroke="#000000"/><text transform="scale(0.095)" x="263" y="132" textLength="993" lengthAdjust="spacingAndGlyphs">GLSL 0.12%</text><rect x="228.5" y="0.5" rx="2" width="15" height="15" fill="#C1F12E" stroke-width="1" stroke="#000000"/><text transform="scale(0.095)" x="2663" y="132" textLength="1304" lengthAdjust="spacingAndGlyphs">Batchfile 0.07%</text></g><g transform="translate(15, 294)"><rect x="0.5" y="0.5" rx="2" width="15" height="15" fill="#e34c26" stroke-width="1" stroke="#000000"/><text transform="scale(0.095)" x="263" y="132" textLength="1036" lengthAdjust="spacingAndGlyphs">HTML 0.06%</text><rect x="228.5" y="0.5" rx="2" width="15" height="15" fill="#701516" stroke-width="1" stroke="#000000"/><text transform="scale(0.095)" x="2663" y="132" textLength="999" lengthAdjust="spacingAndGlyphs">Ruby 0.03%</text></g></g></g></svg>