<svg width="457" height="354" viewBox="0 0 457 354" xmlns="http://www.w3.org/2000/svg" lang="en" xml:lang="en"><rect x="2" y="2" stroke-width="4" rx="0" width="453" height="350" stroke="#ffffff" fill="#ffffff"/><g font-weight="600" font-size="110pt" font-family="Verdana,Geneva,DejaVu Sans,sans-serif" text-rendering="geometricPrecision"><text x="1796" y="301" lengthAdjust="spacingAndGlyphs" textLength="116" transform="scale(0.123)" fill="#0969da">📊</text><g transform="translate(0, 60)" fill="#24292f"><g transform="translate(15, 0)"><g transform="scale(0.095)"><text x="0" y="132" textLength="3652" lengthAdjust="spacingAndGlyphs">Language Distribution in Public Repositories</text></g></g><g transform="translate(243, 21)"><circle cx="92" cy="92" r="92" fill="#000000"/></g><g transform="translate(244, 22)"><path fill-rule="evenodd" fill="#f34b7d" d="M 0.0,91.00000000000001 A 91 91 0 0 1 181.60743769216043 82.55652708530023 L 91,91 Z"/><path fill-rule="evenodd" fill="#438eff" d="M 181.60743769216043,82.55652708530023 A 91 91 0 0 1 156.12996307397603 154.55381900391603 L 91,91 Z"/><path fill-rule="evenodd" fill="#555555" d="M 156.12996307397603,154.55381900391603 A 91 91 0 0 1 121.30337621088569 176.8062083431119 L 91,91 Z"/><path fill-rule="evenodd" fill="#dea584" d="M 121.30337621088569,176.8062083431119 A 91 91 0 0 1 83.12151005213347 181.65831123587824 L 91,91 Z"/><path fill-rule="evenodd" fill="#b07219" d="M 83.12151005213347,181.65831123587824 A 91 91 0 0 1 52.8804882988502 173.6311250538555 L 91,91 Z"/><path fill-rule="evenodd" fill="#00ADD8" d="M 52.8804882988502,173.6311250538555 A 91 91 0 0 1 31.718766145589832 160.0415477281523 L 91,91 Z"/><path fill-rule="evenodd" fill="#A97BFF" d="M 31.718766145589832,160.0415477281523 A 91 91 0 0 1 15.73895007619845 142.15441686078586 L 91,91 Z"/><path fill-rule="evenodd" fill="#000080" d="M 15.73895007619845,142.15441686078586 A 91 91 0 0 1 8.676060007832419 129.7784592804561 L 91,91 Z"/><path fill-rule="evenodd" fill="#f1e05a" d="M 8.676060007832419,129.7784592804561 A 91 91 0 0 1 3.752207779394624 116.86160769615981 L 91,91 Z"/><path fill-rule="evenodd" fill="#3178c6" d="M 3.752207779394624,116.86160769615981 A 91 91 0 0 1 1.6015766295247431 107.99770275282108 L 91,91 Z"/><path fill-rule="evenodd" fill="#6866fb" d="M 1.6015766295247431,107.99770275282108 A 91 91 0 0 1 0.3588444676771445 99.07347036690281 L 91,91 Z"/><path fill-rule="evenodd" fill="#DA3434" d="M 0.3588444676771445,99.07347036690281 A 91 91 0 0 1 0.015921208315063495 92.70217696743559 L 91,91 Z"/><path fill-rule="evenodd" fill="#8f14e9" d="M 0.015921208315063495,92.70217696743559 A 91 91 0 0 1 0.004574894001663665 91.91247453588987 L 91,91 Z"/><path fill-rule="evenodd" fill="#959da5" d="M 0.004574894001663665,91.91247453588987 A 91 91 0 0 1 0.0 91.00000000000003 L 91,91 Z"/></g><g transform="translate(15, 21)"><rect x="0.5" y="0.5" rx="2" width="15" height="15" fill="#f34b7d" stroke-width="1" stroke="#000000"/><text transform="scale(0.095)" x="263" y="132" textLength="1074" lengthAdjust="spacingAndGlyphs">C++ 48.52%</text></g><g transform="translate(15, 42)"><rect x="0.5" y="0.5" rx="2" width="15" height="15" fill="#438eff" stroke-width="1" stroke="#000000"/><text transform="scale(0.095)" x="263" y="132" textLength="1642" lengthAdjust="spacingAndGlyphs">Objective-C 13.78%</text></g><g transform="translate(15, 63)"><rect x="0.5" y="0.5" rx="2" width="15" height="15" fill="#555555" stroke-width="1" stroke="#000000"/><text transform="scale(0.095)" x="263" y="132" textLength="693" lengthAdjust="spacingAndGlyphs">C 7.29%</text></g><g transform="translate(15, 84)"><rect x="0.5" y="0.5" rx="2" width="15" height="15" fill="#dea584" stroke-width="1" stroke="#000000"/><text transform="scale(0.095)" x="263" y="132" textLength="946" lengthAdjust="spacingAndGlyphs">Rust 6.78%</text></g><g transform="translate(15, 105)"><rect x="0.5" y="0.5" rx="2" width="15" height="15" fill="#b07219" stroke-width="1" stroke="#000000"/><text transform="scale(0.095)" x="263" y="132" textLength="933" lengthAdjust="spacingAndGlyphs">Java 5.50%</text></g><g transform="translate(15, 126)"><rect x="0.5" y="0.5" rx="2" width="15" height="15" fill="#00ADD8" stroke-width="1" stroke="#000000"/><text transform="scale(0.095)" x="263" y="132" textLength="806" lengthAdjust="spacingAndGlyphs">Go 4.41%</text></g><g transform="translate(15, 147)"><rect x="0.5" y="0.5" rx="2" width="15" height="15" fill="#A97BFF" stroke-width="1" stroke="#000000"/><text transform="scale(0.095)" x="263" y="132" textLength="1048" lengthAdjust="spacingAndGlyphs">Kotlin 4.21%</text></g><g transform="translate(15, 168)"><rect x="0.5" y="0.5" rx="2" width="15" height="15" fill="#000080" stroke-width="1" stroke="#000000"/><text transform="scale(0.095)" x="263" y="132" textLength="874" lengthAdjust="spacingAndGlyphs">Lua 2.49%</text></g><g transform="translate(15, 189)"><rect x="0.5" y="0.5" rx="2" width="15" height="15" fill="#f1e05a" stroke-width="1" stroke="#000000"/><text transform="scale(0.095)" x="263" y="132" textLength="1412" lengthAdjust="spacingAndGlyphs">JavaScript 2.42%</text></g><g transform="translate(15, 210)"><rect x="0.5" y="0.5" rx="2" width="15" height="15" fill="#3178c6" stroke-width="1" stroke="#000000"/><text transform="scale(0.095)" x="263" y="132" textLength="1462" lengthAdjust="spacingAndGlyphs">TypeScript 1.60%</text><rect x="228.5" y="0.5" rx="2" width="15" height="15" fill="#6866fb" stroke-width="1" stroke="#000000"/><text transform="scale(0.095)" x="2663" y="132" textLength="1814" lengthAdjust="spacingAndGlyphs">Objective-C++ 1.58%</text></g><g transform="translate(15, 231)"><rect x="0.5" y="0.5" rx="2" width="15" height="15" fill="#DA3434" stroke-width="1" stroke="#000000"/><text transform="scale(0.095)" x="263" y="132" textLength="1134" lengthAdjust="spacingAndGlyphs">CMake 1.12%</text><rect x="228.5" y="0.5" rx="2" width="15" height="15" fill="#8f14e9" stroke-width="1" stroke="#000000"/><text transform="scale(0.095)" x="2663" y="132" textLength="1034" lengthAdjust="spacingAndGlyphs">Metal 0.14%</text></g><g transform="translate(15, 252)"><rect x="0.5" y="0.5" rx="2" width="15" height="15" fill="#959da5" stroke-width="1" stroke="#000000"/><text transform="scale(0.095)" x="263" y="132" textLength="1047" lengthAdjust="spacingAndGlyphs">Other 0.16%</text></g></g></g></svg>