<svg width="457" height="396" viewBox="0 0 457 396" xmlns="http://www.w3.org/2000/svg" lang="en" xml:lang="en"><rect x="2" y="2" stroke-width="4" rx="0" width="453" height="392" stroke="#ffffff" fill="#ffffff"/><g font-weight="600" font-size="110pt" font-family="Verdana,Geneva,DejaVu Sans,sans-serif" text-rendering="geometricPrecision"><text x="895" y="301" lengthAdjust="spacingAndGlyphs" textLength="1917" transform="scale(0.123)" fill="#0969da">Rinc's GitHub Statistics</text><g transform="translate(0, 60)" fill="#24292f"><g transform="translate(15, 0)"><g transform="scale(0.095)"><text x="0" y="132" textLength="3652" lengthAdjust="spacingAndGlyphs">Language Distribution in Public Repositories</text></g></g><g transform="translate(243, 21)"><circle cx="92" cy="92" r="92" fill="#000000"/></g><g transform="translate(244, 22)"><path fill-rule="evenodd" fill="#f34b7d" d="M 0.0,91.00000000000001 A 91 91 0 0 1 168.1518848276937 42.74456851778975 L 91,91 Z"/><path fill-rule="evenodd" fill="#438eff" d="M 168.1518848276937,42.74456851778975 A 91 91 0 0 1 175.61431845866798 124.48756652513163 L 91,91 Z"/><path fill-rule="evenodd" fill="#555555" d="M 175.61431845866798,124.48756652513163 A 91 91 0 0 1 148.51525731238343 161.51946664780104 L 91,91 Z"/><path fill-rule="evenodd" fill="#dea584" d="M 148.51525731238343,161.51946664780104 A 91 91 0 0 1 111.08766544600716 179.75520095706668 L 91,91 Z"/><path fill-rule="evenodd" fill="#b07219" d="M 111.08766544600716,179.75520095706668 A 91 91 0 0 1 77.24894146641897 180.9550353743804 L 91,91 Z"/><path fill-rule="evenodd" fill="#00ADD8" d="M 77.24894146641897,180.9550353743804 A 91 91 0 0 1 51.25478627579154 172.86157820380078 L 91,91 Z"/><path fill-rule="evenodd" fill="#A97BFF" d="M 51.25478627579154,172.86157820380078 A 91 91 0 0 1 29.852461271882177 158.39420232848914 L 91,91 Z"/><path fill-rule="evenodd" fill="#000080" d="M 29.852461271882177,158.39420232848914 A 91 91 0 0 1 16.689733799913256 143.52603485198787 L 91,91 Z"/><path fill-rule="evenodd" fill="#f1e05a" d="M 16.689733799913256,143.52603485198787 A 91 91 0 0 1 9.603171342734996 131.68852767721933 L 91,91 Z"/><path fill-rule="evenodd" fill="#3178c6" d="M 9.603171342734996,131.68852767721933 A 91 91 0 0 1 5.569134400985533 122.34592801311086 L 91,91 Z"/><path fill-rule="evenodd" fill="#DA3434" d="M 5.569134400985533,122.34592801311086 A 91 91 0 0 1 2.6103426454951233 112.63951184184205 L 91,91 Z"/><path fill-rule="evenodd" fill="#6866fb" d="M 2.6103426454951233,112.63951184184205 A 91 91 0 0 1 0.9001426878762544 103.7677606625023 L 91,91 Z"/><path fill-rule="evenodd" fill="#89e051" d="M 0.9001426878762544,103.7677606625023 A 91 91 0 0 1 0.10145380692310368 95.29584682979558 L 91,91 Z"/><path fill-rule="evenodd" fill="#427819" d="M 0.10145380692310368,95.29584682979558 A 91 91 0 0 1 0.044488519999177356 93.84515929456302 L 91,91 Z"/><path fill-rule="evenodd" fill="#8f14e9" d="M 0.044488519999177356,93.84515929456302 A 91 91 0 0 1 0.021761905439916518 92.9900234193436 L 91,91 Z"/><path fill-rule="evenodd" fill="#C1F12E" d="M 0.021761905439916518,92.9900234193436 A 91 91 0 0 1 0.007100098277973643 92.13673544644132 L 91,91 Z"/><path fill-rule="evenodd" fill="#5686a5" d="M 0.007100098277973643,92.13673544644132 A 91 91 0 0 1 0.0011631561504401589 91.46010114806198 L 91,91 Z"/><path fill-rule="evenodd" fill="#e34c26" d="M 0.0011631561504401589,91.46010114806198 A 91 91 0 0 1 0.00011775776962963391 91.14639638043406 L 91,91 Z"/><path fill-rule="evenodd" fill="#701516" d="M 0.00011775776962963391,91.14639638043406 A 91 91 0 0 1 0.0 91.00000000000003 L 91,91 Z"/></g><g transform="translate(15, 21)"><rect x="0.5" y="0.5" rx="2" width="15" height="15" fill="#f34b7d" stroke-width="1" stroke="#000000"/><text transform="scale(0.095)" x="263" y="132" textLength="1074" lengthAdjust="spacingAndGlyphs">C++ 41.10%</text></g><g transform="translate(15, 42)"><rect x="0.5" y="0.5" rx="2" width="15" height="15" fill="#438eff" stroke-width="1" stroke="#000000"/><text transform="scale(0.095)" x="263" y="132" textLength="1642" lengthAdjust="spacingAndGlyphs">Objective-C 14.89%</text></g><g transform="translate(15, 63)"><rect x="0.5" y="0.5" rx="2" width="15" height="15" fill="#555555" stroke-width="1" stroke="#000000"/><text transform="scale(0.095)" x="263" y="132" textLength="693" lengthAdjust="spacingAndGlyphs">C 8.11%</text></g><g transform="translate(15, 84)"><rect x="0.5" y="0.5" rx="2" width="15" height="15" fill="#dea584" stroke-width="1" stroke="#000000"/><text transform="scale(0.095)" x="263" y="132" textLength="946" lengthAdjust="spacingAndGlyphs">Rust 7.35%</text></g><g transform="translate(15, 105)"><rect x="0.5" y="0.5" rx="2" width="15" height="15" fill="#b07219" stroke-width="1" stroke="#000000"/><text transform="scale(0.095)" x="263" y="132" textLength="933" lengthAdjust="spacingAndGlyphs">Java 5.96%</text></g><g transform="translate(15, 126)"><rect x="0.5" y="0.5" rx="2" width="15" height="15" fill="#00ADD8" stroke-width="1" stroke="#000000"/><text transform="scale(0.095)" x="263" y="132" textLength="806" lengthAdjust="spacingAndGlyphs">Go 4.78%</text></g><g transform="translate(15, 147)"><rect x="0.5" y="0.5" rx="2" width="15" height="15" fill="#A97BFF" stroke-width="1" stroke="#000000"/><text transform="scale(0.095)" x="263" y="132" textLength="1048" lengthAdjust="spacingAndGlyphs">Kotlin 4.53%</text></g><g transform="translate(15, 168)"><rect x="0.5" y="0.5" rx="2" width="15" height="15" fill="#000080" stroke-width="1" stroke="#000000"/><text transform="scale(0.095)" x="263" y="132" textLength="874" lengthAdjust="spacingAndGlyphs">Lua 3.48%</text></g><g transform="translate(15, 189)"><rect x="0.5" y="0.5" rx="2" width="15" height="15" fill="#f1e05a" stroke-width="1" stroke="#000000"/><text transform="scale(0.095)" x="263" y="132" textLength="1412" lengthAdjust="spacingAndGlyphs">JavaScript 2.42%</text></g><g transform="translate(15, 210)"><rect x="0.5" y="0.5" rx="2" width="15" height="15" fill="#3178c6" stroke-width="1" stroke="#000000"/><text transform="scale(0.095)" x="263" y="132" textLength="1462" lengthAdjust="spacingAndGlyphs">TypeScript 1.78%</text><rect x="228.5" y="0.5" rx="2" width="15" height="15" fill="#DA3434" stroke-width="1" stroke="#000000"/><text transform="scale(0.095)" x="2663" y="132" textLength="1134" lengthAdjust="spacingAndGlyphs">CMake 1.78%</text></g><g transform="translate(15, 231)"><rect x="0.5" y="0.5" rx="2" width="15" height="15" fill="#6866fb" stroke-width="1" stroke="#000000"/><text transform="scale(0.095)" x="263" y="132" textLength="1814" lengthAdjust="spacingAndGlyphs">Objective-C++ 1.58%</text><rect x="228.5" y="0.5" rx="2" width="15" height="15" fill="#89e051" stroke-width="1" stroke="#000000"/><text transform="scale(0.095)" x="2663" y="132" textLength="982" lengthAdjust="spacingAndGlyphs">Shell 1.49%</text></g><g transform="translate(15, 252)"><rect x="0.5" y="0.5" rx="2" width="15" height="15" fill="#427819" stroke-width="1" stroke="#000000"/><text transform="scale(0.095)" x="263" y="132" textLength="1272" lengthAdjust="spacingAndGlyphs">Makefile 0.25%</text><rect x="228.5" y="0.5" rx="2" width="15" height="15" fill="#8f14e9" stroke-width="1" stroke="#000000"/><text transform="scale(0.095)" x="2663" y="132" textLength="1034" lengthAdjust="spacingAndGlyphs">Metal 0.15%</text></g><g transform="translate(15, 273)"><rect x="0.5" y="0.5" rx="2" width="15" height="15" fill="#C1F12E" stroke-width="1" stroke="#000000"/><text transform="scale(0.095)" x="263" y="132" textLength="1304" lengthAdjust="spacingAndGlyphs">Batchfile 0.15%</text><rect x="228.5" y="0.5" rx="2" width="15" height="15" fill="#5686a5" stroke-width="1" stroke="#000000"/><text transform="scale(0.095)" x="2663" y="132" textLength="993" lengthAdjust="spacingAndGlyphs">GLSL 0.12%</text></g><g transform="translate(15, 294)"><rect x="0.5" y="0.5" rx="2" width="15" height="15" fill="#e34c26" stroke-width="1" stroke="#000000"/><text transform="scale(0.095)" x="263" y="132" textLength="1036" lengthAdjust="spacingAndGlyphs">HTML 0.05%</text><rect x="228.5" y="0.5" rx="2" width="15" height="15" fill="#701516" stroke-width="1" stroke="#000000"/><text transform="scale(0.095)" x="2663" y="132" textLength="999" lengthAdjust="spacingAndGlyphs">Ruby 0.03%</text></g></g></g></svg>