<svg width="457" height="333" viewBox="0 0 457 333" xmlns="http://www.w3.org/2000/svg" lang="en" xml:lang="en"><rect x="2" y="2" stroke-width="4" rx="0" width="453" height="329" stroke="#ffffff" fill="#ffffff"/><g font-weight="600" font-size="110pt" font-family="Verdana,Geneva,DejaVu Sans,sans-serif" text-rendering="geometricPrecision"><text x="1828" y="301" lengthAdjust="spacingAndGlyphs" textLength="52" transform="scale(0.123)" fill="#0969da">.</text><g transform="translate(0, 60)" fill="#24292f"><g transform="translate(15, 0)"><g transform="scale(0.095)"><text x="0" y="132" textLength="3652" lengthAdjust="spacingAndGlyphs">Language Distribution in Public Repositories</text></g></g><g transform="translate(243, 21)"><circle cx="92" cy="92" r="92" fill="#000000"/></g><g transform="translate(244, 22)"><path fill-rule="evenodd" fill="#f34b7d" d="M 0.0,91.00000000000001 A 91 91 0 1 1 161.07889758933794 149.05125418682258 L 91,91 Z"/><path fill-rule="evenodd" fill="#555555" d="M 161.07889758933794,149.05125418682258 A 91 91 0 0 1 128.12633600452457 174.08209900381155 L 91,91 Z"/><path fill-rule="evenodd" fill="#dea584" d="M 128.12633600452457,174.08209900381155 A 91 91 0 0 1 90.28763203797445 181.99721167094452 L 91,91 Z"/><path fill-rule="evenodd" fill="#438eff" d="M 90.28763203797445,181.99721167094452 A 91 91 0 0 1 59.01217082970837 176.19259818183878 L 91,91 Z"/><path fill-rule="evenodd" fill="#b07219" d="M 59.01217082970837,176.19259818183878 A 91 91 0 0 1 31.969441956131718 160.25599769716337 L 91,91 Z"/><path fill-rule="evenodd" fill="#00ADD8" d="M 31.969441956131718,160.25599769716337 A 91 91 0 0 1 16.322447342629275 143.00253002600567 L 91,91 Z"/><path fill-rule="evenodd" fill="#DA3434" d="M 16.322447342629275,143.00253002600567 A 91 91 0 0 1 7.5080526044610565 127.1952306264314 L 91,91 Z"/><path fill-rule="evenodd" fill="#000080" d="M 7.5080526044610565,127.1952306264314 A 91 91 0 0 1 2.7589996756191226 113.2379374437607 L 91,91 Z"/><path fill-rule="evenodd" fill="#f1e05a" d="M 2.7589996756191226,113.2379374437607 A 91 91 0 0 1 0.7368115696727813 102.5566783459281 L 91,91 Z"/><path fill-rule="evenodd" fill="#A97BFF" d="M 0.7368115696727813,102.5566783459281 A 91 91 0 0 1 0.11657742112687686 95.60472587131676 L 91,91 Z"/><path fill-rule="evenodd" fill="#6866fb" d="M 0.11657742112687686,95.60472587131676 A 91 91 0 0 1 0.011065269766348251 92.41906894028482 L 91,91 Z"/><path fill-rule="evenodd" fill="#8f14e9" d="M 0.011065269766348251,92.41906894028482 A 91 91 0 0 1 0.002158423638789486 91.6267602759165 L 91,91 Z"/><path fill-rule="evenodd" fill="#5686a5" d="M 0.002158423638789486,91.6267602759165 A 91 91 0 0 1 0.0 91.00000000000003 L 91,91 Z"/></g><g transform="translate(15, 21)"><rect x="0.5" y="0.5" rx="2" width="15" height="15" fill="#f34b7d" stroke-width="1" stroke="#000000"/><text transform="scale(0.095)" x="263" y="132" textLength="1074" lengthAdjust="spacingAndGlyphs">C++ 61.01%</text></g><g transform="translate(15, 42)"><rect x="0.5" y="0.5" rx="2" width="15" height="15" fill="#555555" stroke-width="1" stroke="#000000"/><text transform="scale(0.095)" x="263" y="132" textLength="693" lengthAdjust="spacingAndGlyphs">C 7.30%</text></g><g transform="translate(15, 63)"><rect x="0.5" y="0.5" rx="2" width="15" height="15" fill="#dea584" stroke-width="1" stroke="#000000"/><text transform="scale(0.095)" x="263" y="132" textLength="946" lengthAdjust="spacingAndGlyphs">Rust 6.81%</text></g><g transform="translate(15, 84)"><rect x="0.5" y="0.5" rx="2" width="15" height="15" fill="#438eff" stroke-width="1" stroke="#000000"/><text transform="scale(0.095)" x="263" y="132" textLength="1538" lengthAdjust="spacingAndGlyphs">Objective-C 5.59%</text></g><g transform="translate(15, 105)"><rect x="0.5" y="0.5" rx="2" width="15" height="15" fill="#b07219" stroke-width="1" stroke="#000000"/><text transform="scale(0.095)" x="263" y="132" textLength="933" lengthAdjust="spacingAndGlyphs">Java 5.52%</text></g><g transform="translate(15, 126)"><rect x="0.5" y="0.5" rx="2" width="15" height="15" fill="#00ADD8" stroke-width="1" stroke="#000000"/><text transform="scale(0.095)" x="263" y="132" textLength="806" lengthAdjust="spacingAndGlyphs">Go 4.08%</text></g><g transform="translate(15, 147)"><rect x="0.5" y="0.5" rx="2" width="15" height="15" fill="#DA3434" stroke-width="1" stroke="#000000"/><text transform="scale(0.095)" x="263" y="132" textLength="1134" lengthAdjust="spacingAndGlyphs">CMake 3.17%</text></g><g transform="translate(15, 168)"><rect x="0.5" y="0.5" rx="2" width="15" height="15" fill="#000080" stroke-width="1" stroke="#000000"/><text transform="scale(0.095)" x="263" y="132" textLength="874" lengthAdjust="spacingAndGlyphs">Lua 2.58%</text></g><g transform="translate(15, 189)"><rect x="0.5" y="0.5" rx="2" width="15" height="15" fill="#f1e05a" stroke-width="1" stroke="#000000"/><text transform="scale(0.095)" x="263" y="132" textLength="1412" lengthAdjust="spacingAndGlyphs">JavaScript 1.90%</text></g><g transform="translate(15, 210)"><rect x="0.5" y="0.5" rx="2" width="15" height="15" fill="#A97BFF" stroke-width="1" stroke="#000000"/><text transform="scale(0.095)" x="263" y="132" textLength="1048" lengthAdjust="spacingAndGlyphs">Kotlin 1.22%</text><rect x="228.5" y="0.5" rx="2" width="15" height="15" fill="#6866fb" stroke-width="1" stroke="#000000"/><text transform="scale(0.095)" x="2663" y="132" textLength="1814" lengthAdjust="spacingAndGlyphs">Objective-C++ 0.56%</text></g><g transform="translate(15, 231)"><rect x="0.5" y="0.5" rx="2" width="15" height="15" fill="#8f14e9" stroke-width="1" stroke="#000000"/><text transform="scale(0.095)" x="263" y="132" textLength="1034" lengthAdjust="spacingAndGlyphs">Metal 0.14%</text><rect x="228.5" y="0.5" rx="2" width="15" height="15" fill="#5686a5" stroke-width="1" stroke="#000000"/><text transform="scale(0.095)" x="2663" y="132" textLength="993" lengthAdjust="spacingAndGlyphs">GLSL 0.11%</text></g></g></g></svg>