<svg width="457" height="354" viewBox="0 0 457 354" xmlns="http://www.w3.org/2000/svg" lang="en" xml:lang="en"><rect x="2" y="2" stroke-width="4" rx="0" width="453" height="350" stroke="#ffffff" fill="#ffffff"/><g font-weight="600" font-size="110pt" font-family="Verdana,Geneva,DejaVu Sans,sans-serif" text-rendering="geometricPrecision"><text x="1796" y="301" lengthAdjust="spacingAndGlyphs" textLength="116" transform="scale(0.123)" fill="#0969da">📊</text><g transform="translate(0, 60)" fill="#24292f"><g transform="translate(15, 0)"><g transform="scale(0.095)"><text x="0" y="132" textLength="3652" lengthAdjust="spacingAndGlyphs">Language Distribution in Public Repositories</text></g></g><g transform="translate(243, 21)"><circle cx="92" cy="92" r="92" fill="#000000"/></g><g transform="translate(244, 22)"><path fill-rule="evenodd" fill="#f34b7d" d="M 0.0,91.00000000000001 A 91 91 0 0 1 180.5692162624287 74.92655923163073 L 91,91 Z"/><path fill-rule="evenodd" fill="#438eff" d="M 180.5692162624287,74.92655923163073 A 91 91 0 0 1 162.63383680167254 147.1212386273801 L 91,91 Z"/><path fill-rule="evenodd" fill="#555555" d="M 162.63383680167254,147.1212386273801 A 91 91 0 0 1 131.52728188209335 172.47723254535188 L 91,91 Z"/><path fill-rule="evenodd" fill="#dea584" d="M 131.52728188209335,172.47723254535188 A 91 91 0 0 1 95.29164926839249 181.89874447184133 L 91,91 Z"/><path fill-rule="evenodd" fill="#b07219" d="M 95.29164926839249,181.89874447184133 A 91 91 0 0 1 65.08188706432142 178.23102327643193 L 91,91 Z"/><path fill-rule="evenodd" fill="#3178c6" d="M 65.08188706432142,178.23102327643193 A 91 91 0 0 1 42.392918611414004 167.9308237241964 L 91,91 Z"/><path fill-rule="evenodd" fill="#00ADD8" d="M 42.392918611414004,167.9308237241964 A 91 91 0 0 1 23.659106863993543 152.20624242383252 L 91,91 Z"/><path fill-rule="evenodd" fill="#A97BFF" d="M 23.659106863993543,152.20624242383252 A 91 91 0 0 1 10.31176511607066 133.07622548798608 L 91,91 Z"/><path fill-rule="evenodd" fill="#000080" d="M 10.31176511607066,133.07622548798608 A 91 91 0 0 1 4.858901697088683 120.33787966380955 L 91,91 Z"/><path fill-rule="evenodd" fill="#f1e05a" d="M 4.858901697088683,120.33787966380955 A 91 91 0 0 1 1.4768781123628685 107.32821629852037 L 91,91 Z"/><path fill-rule="evenodd" fill="#6866fb" d="M 1.4768781123628685,107.32821629852037 A 91 91 0 0 1 0.3215544599472224 98.6432659537454 L 91,91 Z"/><path fill-rule="evenodd" fill="#DA3434" d="M 0.3215544599472224,98.6432659537454 A 91 91 0 0 1 0.015053145815244307 92.65512716767498 L 91,91 Z"/><path fill-rule="evenodd" fill="#8f14e9" d="M 0.015053145815244307,92.65512716767498 A 91 91 0 0 1 0.004325454896445535 91.88725085606683 L 91,91 Z"/><path fill-rule="evenodd" fill="#959da5" d="M 0.004325454896445535,91.88725085606683 A 91 91 0 0 1 0.0 91.00000000000003 L 91,91 Z"/></g><g transform="translate(15, 21)"><rect x="0.5" y="0.5" rx="2" width="15" height="15" fill="#f34b7d" stroke-width="1" stroke="#000000"/><text transform="scale(0.095)" x="263" y="132" textLength="1074" lengthAdjust="spacingAndGlyphs">C++ 47.17%</text></g><g transform="translate(15, 42)"><rect x="0.5" y="0.5" rx="2" width="15" height="15" fill="#438eff" stroke-width="1" stroke="#000000"/><text transform="scale(0.095)" x="263" y="132" textLength="1642" lengthAdjust="spacingAndGlyphs">Objective-C 13.40%</text></g><g transform="translate(15, 63)"><rect x="0.5" y="0.5" rx="2" width="15" height="15" fill="#555555" stroke-width="1" stroke="#000000"/><text transform="scale(0.095)" x="263" y="132" textLength="693" lengthAdjust="spacingAndGlyphs">C 7.08%</text></g><g transform="translate(15, 84)"><rect x="0.5" y="0.5" rx="2" width="15" height="15" fill="#dea584" stroke-width="1" stroke="#000000"/><text transform="scale(0.095)" x="263" y="132" textLength="946" lengthAdjust="spacingAndGlyphs">Rust 6.60%</text></g><g transform="translate(15, 105)"><rect x="0.5" y="0.5" rx="2" width="15" height="15" fill="#b07219" stroke-width="1" stroke="#000000"/><text transform="scale(0.095)" x="263" y="132" textLength="933" lengthAdjust="spacingAndGlyphs">Java 5.35%</text></g><g transform="translate(15, 126)"><rect x="0.5" y="0.5" rx="2" width="15" height="15" fill="#3178c6" stroke-width="1" stroke="#000000"/><text transform="scale(0.095)" x="263" y="132" textLength="1462" lengthAdjust="spacingAndGlyphs">TypeScript 4.37%</text></g><g transform="translate(15, 147)"><rect x="0.5" y="0.5" rx="2" width="15" height="15" fill="#00ADD8" stroke-width="1" stroke="#000000"/><text transform="scale(0.095)" x="263" y="132" textLength="806" lengthAdjust="spacingAndGlyphs">Go 4.29%</text></g><g transform="translate(15, 168)"><rect x="0.5" y="0.5" rx="2" width="15" height="15" fill="#A97BFF" stroke-width="1" stroke="#000000"/><text transform="scale(0.095)" x="263" y="132" textLength="1048" lengthAdjust="spacingAndGlyphs">Kotlin 4.09%</text></g><g transform="translate(15, 189)"><rect x="0.5" y="0.5" rx="2" width="15" height="15" fill="#000080" stroke-width="1" stroke="#000000"/><text transform="scale(0.095)" x="263" y="132" textLength="874" lengthAdjust="spacingAndGlyphs">Lua 2.43%</text></g><g transform="translate(15, 210)"><rect x="0.5" y="0.5" rx="2" width="15" height="15" fill="#f1e05a" stroke-width="1" stroke="#000000"/><text transform="scale(0.095)" x="263" y="132" textLength="1412" lengthAdjust="spacingAndGlyphs">JavaScript 2.35%</text><rect x="228.5" y="0.5" rx="2" width="15" height="15" fill="#6866fb" stroke-width="1" stroke="#000000"/><text transform="scale(0.095)" x="2663" y="132" textLength="1814" lengthAdjust="spacingAndGlyphs">Objective-C++ 1.53%</text></g><g transform="translate(15, 231)"><rect x="0.5" y="0.5" rx="2" width="15" height="15" fill="#DA3434" stroke-width="1" stroke="#000000"/><text transform="scale(0.095)" x="263" y="132" textLength="1134" lengthAdjust="spacingAndGlyphs">CMake 1.05%</text><rect x="228.5" y="0.5" rx="2" width="15" height="15" fill="#8f14e9" stroke-width="1" stroke="#000000"/><text transform="scale(0.095)" x="2663" y="132" textLength="1034" lengthAdjust="spacingAndGlyphs">Metal 0.13%</text></g><g transform="translate(15, 252)"><rect x="0.5" y="0.5" rx="2" width="15" height="15" fill="#959da5" stroke-width="1" stroke="#000000"/><text transform="scale(0.095)" x="263" y="132" textLength="1047" lengthAdjust="spacingAndGlyphs">Other 0.16%</text></g></g></g></svg>