<svg width="457" height="354" viewBox="0 0 457 354" xmlns="http://www.w3.org/2000/svg" lang="en" xml:lang="en"><rect x="2" y="2" stroke-width="4" rx="0" width="453" height="350" stroke="#ffffff" fill="#ffffff"/><g font-weight="600" font-size="110pt" font-family="Verdana,Geneva,DejaVu Sans,sans-serif" text-rendering="geometricPrecision"><text x="1828" y="301" lengthAdjust="spacingAndGlyphs" textLength="52" transform="scale(0.123)" fill="#0969da">.</text><g transform="translate(0, 60)" fill="#24292f"><g transform="translate(15, 0)"><g transform="scale(0.095)"><text x="0" y="132" textLength="3652" lengthAdjust="spacingAndGlyphs">Language Distribution in Public Repositories</text></g></g><g transform="translate(243, 21)"><circle cx="92" cy="92" r="92" fill="#000000"/></g><g transform="translate(244, 22)"><path fill-rule="evenodd" fill="#f34b7d" d="M 0.0,91.00000000000001 A 91 91 0 0 1 181.77217804707152 84.5648082708637 L 91,91 Z"/><path fill-rule="evenodd" fill="#438eff" d="M 181.77217804707152,84.5648082708637 A 91 91 0 0 1 154.99486431412453 155.6966563387691 L 91,91 Z"/><path fill-rule="evenodd" fill="#555555" d="M 154.99486431412453,155.6966563387691 A 91 91 0 0 1 119.10082084681005 177.55254974716507 L 91,91 Z"/><path fill-rule="evenodd" fill="#dea584" d="M 119.10082084681005,177.55254974716507 A 91 91 0 0 1 79.86174435039516 181.31577526149042 L 91,91 Z"/><path fill-rule="evenodd" fill="#b07219" d="M 79.86174435039516,181.31577526149042 A 91 91 0 0 1 49.24192200399216 171.85334205881242 L 91,91 Z"/><path fill-rule="evenodd" fill="#00ADD8" d="M 49.24192200399216,171.85334205881242 A 91 91 0 0 1 28.255610889043147 156.9101026785184 L 91,91 Z"/><path fill-rule="evenodd" fill="#3178c6" d="M 28.255610889043147,156.9101026785184 A 91 91 0 0 1 14.87408938714907 140.85825642122106 L 91,91 Z"/><path fill-rule="evenodd" fill="#A97BFF" d="M 14.87408938714907,140.85825642122106 A 91 91 0 0 1 6.705377101623412 125.28434847595159 L 91,91 Z"/><path fill-rule="evenodd" fill="#f1e05a" d="M 6.705377101623412,125.28434847595159 A 91 91 0 0 1 2.665782891687712 112.86472245105227 L 91,91 Z"/><path fill-rule="evenodd" fill="#000080" d="M 2.665782891687712,112.86472245105227 A 91 91 0 0 1 0.6668590339225773 101.99652868876282 L 91,91 Z"/><path fill-rule="evenodd" fill="#DA3434" d="M 0.6668590339225773,101.99652868876282 A 91 91 0 0 1 0.12157751850999432 95.70237464222208 L 91,91 Z"/><path fill-rule="evenodd" fill="#6866fb" d="M 0.12157751850999432,95.70237464222208 A 91 91 0 0 1 0.011539963595609493 92.4491860486638 L 91,91 Z"/><path fill-rule="evenodd" fill="#8f14e9" d="M 0.011539963595609493,92.4491860486638 A 91 91 0 0 1 0.0022510203703518528 91.64006299714256 L 91,91 Z"/><path fill-rule="evenodd" fill="#959da5" d="M 0.0022510203703518528,91.64006299714256 A 91 91 0 0 1 0.0 91.00000000000003 L 91,91 Z"/></g><g transform="translate(15, 21)"><rect x="0.5" y="0.5" rx="2" width="15" height="15" fill="#f34b7d" stroke-width="1" stroke="#000000"/><text transform="scale(0.095)" x="263" y="132" textLength="1074" lengthAdjust="spacingAndGlyphs">C++ 48.87%</text></g><g transform="translate(15, 42)"><rect x="0.5" y="0.5" rx="2" width="15" height="15" fill="#438eff" stroke-width="1" stroke="#000000"/><text transform="scale(0.095)" x="263" y="132" textLength="1642" lengthAdjust="spacingAndGlyphs">Objective-C 13.71%</text></g><g transform="translate(15, 63)"><rect x="0.5" y="0.5" rx="2" width="15" height="15" fill="#555555" stroke-width="1" stroke="#000000"/><text transform="scale(0.095)" x="263" y="132" textLength="693" lengthAdjust="spacingAndGlyphs">C 7.42%</text></g><g transform="translate(15, 84)"><rect x="0.5" y="0.5" rx="2" width="15" height="15" fill="#dea584" stroke-width="1" stroke="#000000"/><text transform="scale(0.095)" x="263" y="132" textLength="946" lengthAdjust="spacingAndGlyphs">Rust 6.95%</text></g><g transform="translate(15, 105)"><rect x="0.5" y="0.5" rx="2" width="15" height="15" fill="#b07219" stroke-width="1" stroke="#000000"/><text transform="scale(0.095)" x="263" y="132" textLength="933" lengthAdjust="spacingAndGlyphs">Java 5.63%</text></g><g transform="translate(15, 126)"><rect x="0.5" y="0.5" rx="2" width="15" height="15" fill="#00ADD8" stroke-width="1" stroke="#000000"/><text transform="scale(0.095)" x="263" y="132" textLength="806" lengthAdjust="spacingAndGlyphs">Go 4.52%</text></g><g transform="translate(15, 147)"><rect x="0.5" y="0.5" rx="2" width="15" height="15" fill="#3178c6" stroke-width="1" stroke="#000000"/><text transform="scale(0.095)" x="263" y="132" textLength="1462" lengthAdjust="spacingAndGlyphs">TypeScript 3.66%</text></g><g transform="translate(15, 168)"><rect x="0.5" y="0.5" rx="2" width="15" height="15" fill="#A97BFF" stroke-width="1" stroke="#000000"/><text transform="scale(0.095)" x="263" y="132" textLength="1048" lengthAdjust="spacingAndGlyphs">Kotlin 3.08%</text></g><g transform="translate(15, 189)"><rect x="0.5" y="0.5" rx="2" width="15" height="15" fill="#f1e05a" stroke-width="1" stroke="#000000"/><text transform="scale(0.095)" x="263" y="132" textLength="1412" lengthAdjust="spacingAndGlyphs">JavaScript 2.29%</text></g><g transform="translate(15, 210)"><rect x="0.5" y="0.5" rx="2" width="15" height="15" fill="#000080" stroke-width="1" stroke="#000000"/><text transform="scale(0.095)" x="263" y="132" textLength="874" lengthAdjust="spacingAndGlyphs">Lua 1.93%</text><rect x="228.5" y="0.5" rx="2" width="15" height="15" fill="#DA3434" stroke-width="1" stroke="#000000"/><text transform="scale(0.095)" x="2663" y="132" textLength="1134" lengthAdjust="spacingAndGlyphs">CMake 1.11%</text></g><g transform="translate(15, 231)"><rect x="0.5" y="0.5" rx="2" width="15" height="15" fill="#6866fb" stroke-width="1" stroke="#000000"/><text transform="scale(0.095)" x="263" y="132" textLength="1814" lengthAdjust="spacingAndGlyphs">Objective-C++ 0.57%</text><rect x="228.5" y="0.5" rx="2" width="15" height="15" fill="#8f14e9" stroke-width="1" stroke="#000000"/><text transform="scale(0.095)" x="2663" y="132" textLength="1034" lengthAdjust="spacingAndGlyphs">Metal 0.14%</text></g><g transform="translate(15, 252)"><rect x="0.5" y="0.5" rx="2" width="15" height="15" fill="#959da5" stroke-width="1" stroke="#000000"/><text transform="scale(0.095)" x="263" y="132" textLength="1047" lengthAdjust="spacingAndGlyphs">Other 0.11%</text></g></g></g></svg>