<svg width="457" height="354" viewBox="0 0 457 354" xmlns="http://www.w3.org/2000/svg" lang="en" xml:lang="en"><rect x="2" y="2" stroke-width="4" rx="0" width="453" height="350" stroke="#ffffff" fill="#ffffff"/><g font-weight="600" font-size="110pt" font-family="Verdana,Geneva,DejaVu Sans,sans-serif" text-rendering="geometricPrecision"><text x="946" y="301" lengthAdjust="spacingAndGlyphs" textLength="1816" transform="scale(0.123)" fill="#0969da">~#./code-lang-stat.sh</text><g transform="translate(0, 60)" fill="#24292f"><g transform="translate(15, 0)"><g transform="scale(0.095)"><text x="0" y="132" textLength="3652" lengthAdjust="spacingAndGlyphs">Language Distribution in Public Repositories</text></g></g><g transform="translate(243, 21)"><circle cx="92" cy="92" r="92" fill="#000000"/></g><g transform="translate(244, 22)"><path fill-rule="evenodd" fill="#f34b7d" d="M 0.0,91.00000000000001 A 91 91 0 0 1 180.89755775855468 76.87806284367022 L 91,91 Z"/><path fill-rule="evenodd" fill="#438eff" d="M 180.89755775855468,76.87806284367022 A 91 91 0 0 1 157.7306542549181 152.87099306387915 L 91,91 Z"/><path fill-rule="evenodd" fill="#555555" d="M 157.7306542549181,152.87099306387915 A 91 91 0 0 1 121.63372874898938 176.68882460935816 L 91,91 Z"/><path fill-rule="evenodd" fill="#dea584" d="M 121.63372874898938,176.68882460935816 A 91 91 0 0 1 81.80437972160054 181.53419557104093 L 91,91 Z"/><path fill-rule="evenodd" fill="#b07219" d="M 81.80437972160054,181.53419557104093 A 91 91 0 0 1 50.46391627217354 172.4728538594951 L 91,91 Z"/><path fill-rule="evenodd" fill="#00ADD8" d="M 50.46391627217354,172.4728538594951 A 91 91 0 0 1 28.911121400843378 157.52797272049696 L 91,91 Z"/><path fill-rule="evenodd" fill="#A97BFF" d="M 28.911121400843378,157.52797272049696 A 91 91 0 0 1 13.14312207151336 138.1095166524634 L 91,91 Z"/><path fill-rule="evenodd" fill="#000080" d="M 13.14312207151336,138.1095166524634 A 91 91 0 0 1 6.512884655324285 124.80720841381999 L 91,91 Z"/><path fill-rule="evenodd" fill="#f1e05a" d="M 6.512884655324285,124.80720841381999 A 91 91 0 0 1 2.2335837681153237 111.03804754330625 L 91,91 Z"/><path fill-rule="evenodd" fill="#3178c6" d="M 2.2335837681153237,111.03804754330625 A 91 91 0 0 1 0.6265771138928216 101.66041443138305 L 91,91 Z"/><path fill-rule="evenodd" fill="#6866fb" d="M 0.6265771138928216,101.66041443138305 A 91 91 0 0 1 0.01732492134289032 92.77562257574797 L 91,91 Z"/><path fill-rule="evenodd" fill="#8f14e9" d="M 0.01732492134289032,92.77562257574797 A 91 91 0 0 1 0.004978254312760555 91.95184951641934 L 91,91 Z"/><path fill-rule="evenodd" fill="#5686a5" d="M 0.004978254312760555,91.95184951641934 A 91 91 0 0 1 0.0004950959188363413 91.30017863366403 L 91,91 Z"/><path fill-rule="evenodd" fill="#959da5" d="M 0.0004950959188363413,91.30017863366403 A 91 91 0 0 1 0.0 91.00000000000003 L 91,91 Z"/></g><g transform="translate(15, 21)"><rect x="0.5" y="0.5" rx="2" width="15" height="15" fill="#f34b7d" stroke-width="1" stroke="#000000"/><text transform="scale(0.095)" x="263" y="132" textLength="1074" lengthAdjust="spacingAndGlyphs">C++ 47.52%</text></g><g transform="translate(15, 42)"><rect x="0.5" y="0.5" rx="2" width="15" height="15" fill="#438eff" stroke-width="1" stroke="#000000"/><text transform="scale(0.095)" x="263" y="132" textLength="1642" lengthAdjust="spacingAndGlyphs">Objective-C 14.38%</text></g><g transform="translate(15, 63)"><rect x="0.5" y="0.5" rx="2" width="15" height="15" fill="#555555" stroke-width="1" stroke="#000000"/><text transform="scale(0.095)" x="263" y="132" textLength="693" lengthAdjust="spacingAndGlyphs">C 7.64%</text></g><g transform="translate(15, 84)"><rect x="0.5" y="0.5" rx="2" width="15" height="15" fill="#dea584" stroke-width="1" stroke="#000000"/><text transform="scale(0.095)" x="263" y="132" textLength="946" lengthAdjust="spacingAndGlyphs">Rust 7.08%</text></g><g transform="translate(15, 105)"><rect x="0.5" y="0.5" rx="2" width="15" height="15" fill="#b07219" stroke-width="1" stroke="#000000"/><text transform="scale(0.095)" x="263" y="132" textLength="933" lengthAdjust="spacingAndGlyphs">Java 5.74%</text></g><g transform="translate(15, 126)"><rect x="0.5" y="0.5" rx="2" width="15" height="15" fill="#00ADD8" stroke-width="1" stroke="#000000"/><text transform="scale(0.095)" x="263" y="132" textLength="806" lengthAdjust="spacingAndGlyphs">Go 4.60%</text></g><g transform="translate(15, 147)"><rect x="0.5" y="0.5" rx="2" width="15" height="15" fill="#A97BFF" stroke-width="1" stroke="#000000"/><text transform="scale(0.095)" x="263" y="132" textLength="1048" lengthAdjust="spacingAndGlyphs">Kotlin 4.39%</text></g><g transform="translate(15, 168)"><rect x="0.5" y="0.5" rx="2" width="15" height="15" fill="#000080" stroke-width="1" stroke="#000000"/><text transform="scale(0.095)" x="263" y="132" textLength="874" lengthAdjust="spacingAndGlyphs">Lua 2.60%</text></g><g transform="translate(15, 189)"><rect x="0.5" y="0.5" rx="2" width="15" height="15" fill="#f1e05a" stroke-width="1" stroke="#000000"/><text transform="scale(0.095)" x="263" y="132" textLength="1412" lengthAdjust="spacingAndGlyphs">JavaScript 2.52%</text></g><g transform="translate(15, 210)"><rect x="0.5" y="0.5" rx="2" width="15" height="15" fill="#3178c6" stroke-width="1" stroke="#000000"/><text transform="scale(0.095)" x="263" y="132" textLength="1462" lengthAdjust="spacingAndGlyphs">TypeScript 1.66%</text><rect x="228.5" y="0.5" rx="2" width="15" height="15" fill="#6866fb" stroke-width="1" stroke="#000000"/><text transform="scale(0.095)" x="2663" y="132" textLength="1814" lengthAdjust="spacingAndGlyphs">Objective-C++ 1.56%</text></g><g transform="translate(15, 231)"><rect x="0.5" y="0.5" rx="2" width="15" height="15" fill="#8f14e9" stroke-width="1" stroke="#000000"/><text transform="scale(0.095)" x="263" y="132" textLength="1034" lengthAdjust="spacingAndGlyphs">Metal 0.14%</text><rect x="228.5" y="0.5" rx="2" width="15" height="15" fill="#5686a5" stroke-width="1" stroke="#000000"/><text transform="scale(0.095)" x="2663" y="132" textLength="993" lengthAdjust="spacingAndGlyphs">GLSL 0.11%</text></g><g transform="translate(15, 252)"><rect x="0.5" y="0.5" rx="2" width="15" height="15" fill="#959da5" stroke-width="1" stroke="#000000"/><text transform="scale(0.095)" x="263" y="132" textLength="1047" lengthAdjust="spacingAndGlyphs">Other 0.05%</text></g></g></g></svg>