<svg width="457" height="354" viewBox="0 0 457 354" xmlns="http://www.w3.org/2000/svg" lang="en" xml:lang="en"><rect x="2" y="2" stroke-width="4" rx="0" width="453" height="350" stroke="#ffffff" fill="#ffffff"/><g font-weight="600" font-size="110pt" font-family="Verdana,Geneva,DejaVu Sans,sans-serif" text-rendering="geometricPrecision"><text x="946" y="301" lengthAdjust="spacingAndGlyphs" textLength="1816" transform="scale(0.123)" fill="#0969da">~#./code-lang-stat.sh</text><g transform="translate(0, 60)" fill="#24292f"><g transform="translate(15, 0)"><g transform="scale(0.095)"><text x="0" y="132" textLength="3652" lengthAdjust="spacingAndGlyphs">Language Distribution in Public Repositories</text></g></g><g transform="translate(243, 21)"><circle cx="92" cy="92" r="92" fill="#000000"/></g><g transform="translate(244, 22)"><path fill-rule="evenodd" fill="#f34b7d" d="M 0.0,91.00000000000001 A 91 91 0 0 1 181.3352512853113 80.02082083124307 L 91,91 Z"/><path fill-rule="evenodd" fill="#438eff" d="M 181.3352512853113,80.02082083124307 A 91 91 0 0 1 156.23520896669885 154.445784029131 L 91,91 Z"/><path fill-rule="evenodd" fill="#555555" d="M 156.23520896669885,154.445784029131 A 91 91 0 0 1 119.61476115338448 177.3839999313227 L 91,91 Z"/><path fill-rule="evenodd" fill="#dea584" d="M 119.61476115338448,177.3839999313227 A 91 91 0 0 1 80.17183713030376 181.35347745863095 L 91,91 Z"/><path fill-rule="evenodd" fill="#b07219" d="M 80.17183713030376,181.35347745863095 A 91 91 0 0 1 49.35489933755427 171.91159120184673 L 91,91 Z"/><path fill-rule="evenodd" fill="#00ADD8" d="M 49.35489933755427,171.91159120184673 A 91 91 0 0 1 28.24000888519253 156.8952465301503 L 91,91 Z"/><path fill-rule="evenodd" fill="#A97BFF" d="M 28.24000888519253,156.8952465301503 A 91 91 0 0 1 12.83256660244858 137.59240663498036 L 91,91 Z"/><path fill-rule="evenodd" fill="#000080" d="M 12.83256660244858,137.59240663498036 A 91 91 0 0 1 6.357039130870206 124.41510399964308 L 91,91 Z"/><path fill-rule="evenodd" fill="#f1e05a" d="M 6.357039130870206,124.41510399964308 A 91 91 0 0 1 2.1797149512830742 110.79790301685185 L 91,91 Z"/><path fill-rule="evenodd" fill="#3178c6" d="M 2.1797149512830742,110.79790301685185 A 91 91 0 0 1 0.611421686338872 101.53114003492264 L 91,91 Z"/><path fill-rule="evenodd" fill="#6866fb" d="M 0.611421686338872,101.53114003492264 A 91 91 0 0 1 0.01690541478258467 92.75399535272548 L 91,91 Z"/><path fill-rule="evenodd" fill="#8f14e9" d="M 0.01690541478258467,92.75399535272548 A 91 91 0 0 1 0.004857707939891043 91.94025488445065 L 91,91 Z"/><path fill-rule="evenodd" fill="#5686a5" d="M 0.004857707939891043,91.94025488445065 A 91 91 0 0 1 0.0004831072795070668 91.29652199155942 L 91,91 Z"/><path fill-rule="evenodd" fill="#e34c26" d="M 0.0004831072795070668,91.29652199155942 A 91 91 0 0 1 0.0 91.00000000000003 L 91,91 Z"/></g><g transform="translate(15, 21)"><rect x="0.5" y="0.5" rx="2" width="15" height="15" fill="#f34b7d" stroke-width="1" stroke="#000000"/><text transform="scale(0.095)" x="263" y="132" textLength="1074" lengthAdjust="spacingAndGlyphs">C++ 48.08%</text></g><g transform="translate(15, 42)"><rect x="0.5" y="0.5" rx="2" width="15" height="15" fill="#438eff" stroke-width="1" stroke="#000000"/><text transform="scale(0.095)" x="263" y="132" textLength="1642" lengthAdjust="spacingAndGlyphs">Objective-C 14.20%</text></g><g transform="translate(15, 63)"><rect x="0.5" y="0.5" rx="2" width="15" height="15" fill="#555555" stroke-width="1" stroke="#000000"/><text transform="scale(0.095)" x="263" y="132" textLength="693" lengthAdjust="spacingAndGlyphs">C 7.63%</text></g><g transform="translate(15, 84)"><rect x="0.5" y="0.5" rx="2" width="15" height="15" fill="#dea584" stroke-width="1" stroke="#000000"/><text transform="scale(0.095)" x="263" y="132" textLength="946" lengthAdjust="spacingAndGlyphs">Rust 6.99%</text></g><g transform="translate(15, 105)"><rect x="0.5" y="0.5" rx="2" width="15" height="15" fill="#b07219" stroke-width="1" stroke="#000000"/><text transform="scale(0.095)" x="263" y="132" textLength="933" lengthAdjust="spacingAndGlyphs">Java 5.67%</text></g><g transform="translate(15, 126)"><rect x="0.5" y="0.5" rx="2" width="15" height="15" fill="#00ADD8" stroke-width="1" stroke="#000000"/><text transform="scale(0.095)" x="263" y="132" textLength="806" lengthAdjust="spacingAndGlyphs">Go 4.55%</text></g><g transform="translate(15, 147)"><rect x="0.5" y="0.5" rx="2" width="15" height="15" fill="#A97BFF" stroke-width="1" stroke="#000000"/><text transform="scale(0.095)" x="263" y="132" textLength="1048" lengthAdjust="spacingAndGlyphs">Kotlin 4.33%</text></g><g transform="translate(15, 168)"><rect x="0.5" y="0.5" rx="2" width="15" height="15" fill="#000080" stroke-width="1" stroke="#000000"/><text transform="scale(0.095)" x="263" y="132" textLength="874" lengthAdjust="spacingAndGlyphs">Lua 2.57%</text></g><g transform="translate(15, 189)"><rect x="0.5" y="0.5" rx="2" width="15" height="15" fill="#f1e05a" stroke-width="1" stroke="#000000"/><text transform="scale(0.095)" x="263" y="132" textLength="1412" lengthAdjust="spacingAndGlyphs">JavaScript 2.49%</text></g><g transform="translate(15, 210)"><rect x="0.5" y="0.5" rx="2" width="15" height="15" fill="#3178c6" stroke-width="1" stroke="#000000"/><text transform="scale(0.095)" x="263" y="132" textLength="1462" lengthAdjust="spacingAndGlyphs">TypeScript 1.64%</text><rect x="228.5" y="0.5" rx="2" width="15" height="15" fill="#6866fb" stroke-width="1" stroke="#000000"/><text transform="scale(0.095)" x="2663" y="132" textLength="1814" lengthAdjust="spacingAndGlyphs">Objective-C++ 1.54%</text></g><g transform="translate(15, 231)"><rect x="0.5" y="0.5" rx="2" width="15" height="15" fill="#8f14e9" stroke-width="1" stroke="#000000"/><text transform="scale(0.095)" x="263" y="132" textLength="1034" lengthAdjust="spacingAndGlyphs">Metal 0.14%</text><rect x="228.5" y="0.5" rx="2" width="15" height="15" fill="#5686a5" stroke-width="1" stroke="#000000"/><text transform="scale(0.095)" x="2663" y="132" textLength="993" lengthAdjust="spacingAndGlyphs">GLSL 0.11%</text></g><g transform="translate(15, 252)"><rect x="0.5" y="0.5" rx="2" width="15" height="15" fill="#e34c26" stroke-width="1" stroke="#000000"/><text transform="scale(0.095)" x="263" y="132" textLength="1036" lengthAdjust="spacingAndGlyphs">HTML 0.05%</text></g></g></g></svg>