<svg width="457" height="396" viewBox="0 0 457 396" xmlns="http://www.w3.org/2000/svg" lang="en" xml:lang="en"><rect x="2" y="2" stroke-width="4" rx="0" width="453" height="392" stroke="#ffffff" fill="#ffffff"/><g font-weight="600" font-size="110pt" font-family="Verdana,Geneva,DejaVu Sans,sans-serif" text-rendering="geometricPrecision"><text x="895" y="301" lengthAdjust="spacingAndGlyphs" textLength="1917" transform="scale(0.123)" fill="#0969da">Rinc's GitHub Statistics</text><g transform="translate(0, 60)" fill="#24292f"><g transform="translate(15, 0)"><g transform="scale(0.095)"><text x="0" y="132" textLength="3652" lengthAdjust="spacingAndGlyphs">Language Distribution in Public Repositories</text></g></g><g transform="translate(243, 21)"><circle cx="92" cy="92" r="92" fill="#000000"/></g><g transform="translate(244, 22)"><path fill-rule="evenodd" fill="#f34b7d" d="M 0.0,91.00000000000001 A 91 91 0 0 1 173.40934770491629 52.403375654725906 L 91,91 Z"/><path fill-rule="evenodd" fill="#438eff" d="M 173.40934770491629,52.403375654725906 A 91 91 0 0 1 171.05674844901569 134.26565644678263 L 91,91 Z"/><path fill-rule="evenodd" fill="#555555" d="M 171.05674844901569,134.26565644678263 A 91 91 0 0 1 140.00855822100823 167.67568859226532 L 91,91 Z"/><path fill-rule="evenodd" fill="#dea584" d="M 140.00855822100823,167.67568859226532 A 91 91 0 0 1 100.93966832131217 181.45553047582166 L 91,91 Z"/><path fill-rule="evenodd" fill="#b07219" d="M 100.93966832131217,181.45553047582166 A 91 91 0 0 1 67.34736320129959 178.87236637572 L 91,91 Z"/><path fill-rule="evenodd" fill="#00ADD8" d="M 67.34736320129959,178.87236637572 A 91 91 0 0 1 42.52880641164116 168.01651376243825 L 91,91 Z"/><path fill-rule="evenodd" fill="#A97BFF" d="M 42.52880641164116,168.01651376243825 A 91 91 0 0 1 22.926145535467313 151.3899854143187 L 91,91 Z"/><path fill-rule="evenodd" fill="#000080" d="M 22.926145535467313,151.3899854143187 A 91 91 0 0 1 11.496313545703288 135.27373758987235 L 91,91 Z"/><path fill-rule="evenodd" fill="#f1e05a" d="M 11.496313545703288,135.27373758987235 A 91 91 0 0 1 5.740790200473228 122.8098592320098 L 91,91 Z"/><path fill-rule="evenodd" fill="#3178c6" d="M 5.740790200473228,122.8098592320098 A 91 91 0 0 1 2.734365001493302 113.13995660136644 L 91,91 Z"/><path fill-rule="evenodd" fill="#6866fb" d="M 2.734365001493302,113.13995660136644 A 91 91 0 0 1 0.9797934919956219 104.31774831779933 L 91,91 Z"/><path fill-rule="evenodd" fill="#89e051" d="M 0.9797934919956219,104.31774831779933 A 91 91 0 0 1 0.13167775606238763 95.89367066443116 L 91,91 Z"/><path fill-rule="evenodd" fill="#427819" d="M 0.13167775606238763,95.89367066443116 A 91 91 0 0 1 0.06544820566321619 94.45069412771993 L 91,91 Z"/><path fill-rule="evenodd" fill="#8f14e9" d="M 0.06544820566321619,94.45069412771993 A 91 91 0 0 1 0.0371514137351312 93.600034052133 L 91,91 Z"/><path fill-rule="evenodd" fill="#C1F12E" d="M 0.0371514137351312,93.600034052133 A 91 91 0 0 1 0.01685079593573846 92.75115987590522 L 91,91 Z"/><path fill-rule="evenodd" fill="#5686a5" d="M 0.01685079593573846,92.75115987590522 A 91 91 0 0 1 0.0063851582874718815 92.0779879582224 L 91,91 Z"/><path fill-rule="evenodd" fill="#DA3434" d="M 0.0063851582874718815,92.0779879582224 A 91 91 0 0 1 0.0011514723087628909 91.45778448456312 L 91,91 Z"/><path fill-rule="evenodd" fill="#e34c26" d="M 0.0011514723087628909,91.45778448456312 A 91 91 0 0 1 0.00011657489685035216 91.14565925180433 L 91,91 Z"/><path fill-rule="evenodd" fill="#701516" d="M 0.00011657489685035216,91.14565925180433 A 91 91 0 0 1 0.0 91.00000000000003 L 91,91 Z"/></g><g transform="translate(15, 21)"><rect x="0.5" y="0.5" rx="2" width="15" height="15" fill="#f34b7d" stroke-width="1" stroke="#000000"/><text transform="scale(0.095)" x="263" y="132" textLength="1074" lengthAdjust="spacingAndGlyphs">C++ 43.03%</text></g><g transform="translate(15, 42)"><rect x="0.5" y="0.5" rx="2" width="15" height="15" fill="#438eff" stroke-width="1" stroke="#000000"/><text transform="scale(0.095)" x="263" y="132" textLength="1642" lengthAdjust="spacingAndGlyphs">Objective-C 14.86%</text></g><g transform="translate(15, 63)"><rect x="0.5" y="0.5" rx="2" width="15" height="15" fill="#555555" stroke-width="1" stroke="#000000"/><text transform="scale(0.095)" x="263" y="132" textLength="693" lengthAdjust="spacingAndGlyphs">C 8.06%</text></g><g transform="translate(15, 84)"><rect x="0.5" y="0.5" rx="2" width="15" height="15" fill="#dea584" stroke-width="1" stroke="#000000"/><text transform="scale(0.095)" x="263" y="132" textLength="946" lengthAdjust="spacingAndGlyphs">Rust 7.31%</text></g><g transform="translate(15, 105)"><rect x="0.5" y="0.5" rx="2" width="15" height="15" fill="#b07219" stroke-width="1" stroke="#000000"/><text transform="scale(0.095)" x="263" y="132" textLength="933" lengthAdjust="spacingAndGlyphs">Java 5.93%</text></g><g transform="translate(15, 126)"><rect x="0.5" y="0.5" rx="2" width="15" height="15" fill="#00ADD8" stroke-width="1" stroke="#000000"/><text transform="scale(0.095)" x="263" y="132" textLength="806" lengthAdjust="spacingAndGlyphs">Go 4.76%</text></g><g transform="translate(15, 147)"><rect x="0.5" y="0.5" rx="2" width="15" height="15" fill="#A97BFF" stroke-width="1" stroke="#000000"/><text transform="scale(0.095)" x="263" y="132" textLength="1048" lengthAdjust="spacingAndGlyphs">Kotlin 4.51%</text></g><g transform="translate(15, 168)"><rect x="0.5" y="0.5" rx="2" width="15" height="15" fill="#000080" stroke-width="1" stroke="#000000"/><text transform="scale(0.095)" x="263" y="132" textLength="874" lengthAdjust="spacingAndGlyphs">Lua 3.46%</text></g><g transform="translate(15, 189)"><rect x="0.5" y="0.5" rx="2" width="15" height="15" fill="#f1e05a" stroke-width="1" stroke="#000000"/><text transform="scale(0.095)" x="263" y="132" textLength="1412" lengthAdjust="spacingAndGlyphs">JavaScript 2.40%</text></g><g transform="translate(15, 210)"><rect x="0.5" y="0.5" rx="2" width="15" height="15" fill="#3178c6" stroke-width="1" stroke="#000000"/><text transform="scale(0.095)" x="263" y="132" textLength="1462" lengthAdjust="spacingAndGlyphs">TypeScript 1.77%</text><rect x="228.5" y="0.5" rx="2" width="15" height="15" fill="#6866fb" stroke-width="1" stroke="#000000"/><text transform="scale(0.095)" x="2663" y="132" textLength="1814" lengthAdjust="spacingAndGlyphs">Objective-C++ 1.57%</text></g><g transform="translate(15, 231)"><rect x="0.5" y="0.5" rx="2" width="15" height="15" fill="#89e051" stroke-width="1" stroke="#000000"/><text transform="scale(0.095)" x="263" y="132" textLength="982" lengthAdjust="spacingAndGlyphs">Shell 1.48%</text><rect x="228.5" y="0.5" rx="2" width="15" height="15" fill="#427819" stroke-width="1" stroke="#000000"/><text transform="scale(0.095)" x="2663" y="132" textLength="1272" lengthAdjust="spacingAndGlyphs">Makefile 0.25%</text></g><g transform="translate(15, 252)"><rect x="0.5" y="0.5" rx="2" width="15" height="15" fill="#8f14e9" stroke-width="1" stroke="#000000"/><text transform="scale(0.095)" x="263" y="132" textLength="1034" lengthAdjust="spacingAndGlyphs">Metal 0.15%</text><rect x="228.5" y="0.5" rx="2" width="15" height="15" fill="#C1F12E" stroke-width="1" stroke="#000000"/><text transform="scale(0.095)" x="2663" y="132" textLength="1304" lengthAdjust="spacingAndGlyphs">Batchfile 0.15%</text></g><g transform="translate(15, 273)"><rect x="0.5" y="0.5" rx="2" width="15" height="15" fill="#5686a5" stroke-width="1" stroke="#000000"/><text transform="scale(0.095)" x="263" y="132" textLength="993" lengthAdjust="spacingAndGlyphs">GLSL 0.12%</text><rect x="228.5" y="0.5" rx="2" width="15" height="15" fill="#DA3434" stroke-width="1" stroke="#000000"/><text transform="scale(0.095)" x="2663" y="132" textLength="1134" lengthAdjust="spacingAndGlyphs">CMake 0.11%</text></g><g transform="translate(15, 294)"><rect x="0.5" y="0.5" rx="2" width="15" height="15" fill="#e34c26" stroke-width="1" stroke="#000000"/><text transform="scale(0.095)" x="263" y="132" textLength="1036" lengthAdjust="spacingAndGlyphs">HTML 0.05%</text><rect x="228.5" y="0.5" rx="2" width="15" height="15" fill="#701516" stroke-width="1" stroke="#000000"/><text transform="scale(0.095)" x="2663" y="132" textLength="999" lengthAdjust="spacingAndGlyphs">Ruby 0.03%</text></g></g></g></svg>