<svg width="457" height="354" viewBox="0 0 457 354" xmlns="http://www.w3.org/2000/svg" lang="en" xml:lang="en"><rect x="2" y="2" stroke-width="4" rx="0" width="453" height="350" stroke="#ffffff" fill="#ffffff"/><g font-weight="600" font-size="110pt" font-family="Verdana,Geneva,DejaVu Sans,sans-serif" text-rendering="geometricPrecision"><text x="1828" y="301" lengthAdjust="spacingAndGlyphs" textLength="52" transform="scale(0.123)" fill="#0969da">.</text><g transform="translate(0, 60)" fill="#24292f"><g transform="translate(15, 0)"><g transform="scale(0.095)"><text x="0" y="132" textLength="3652" lengthAdjust="spacingAndGlyphs">Language Distribution in Public Repositories</text></g></g><g transform="translate(243, 21)"><circle cx="92" cy="92" r="92" fill="#000000"/></g><g transform="translate(244, 22)"><path fill-rule="evenodd" fill="#f34b7d" d="M 0.0,91.00000000000001 A 91 91 0 0 1 179.60395435684123 70.25537967735262 L 91,91 Z"/><path fill-rule="evenodd" fill="#438eff" d="M 179.60395435684123,70.25537967735262 A 91 91 0 0 1 166.2275808738288 142.20362365957652 L 91,91 Z"/><path fill-rule="evenodd" fill="#555555" d="M 166.2275808738288,142.20362365957652 A 91 91 0 0 1 137.48810867383952 169.22950691349962 L 91,91 Z"/><path fill-rule="evenodd" fill="#dea584" d="M 137.48810867383952,169.22950691349962 A 91 91 0 0 1 102.7007922188179 181.24462012470354 L 91,91 Z"/><path fill-rule="evenodd" fill="#b07219" d="M 102.7007922188179,181.24462012470354 A 91 91 0 0 1 72.8087197854283 180.16320611190991 L 91,91 Z"/><path fill-rule="evenodd" fill="#3178c6" d="M 72.8087197854283,180.16320611190991 A 91 91 0 0 1 48.858649828910906 171.65424108971362 L 91,91 Z"/><path fill-rule="evenodd" fill="#A97BFF" d="M 48.858649828910906,171.65424108971362 A 91 91 0 0 1 28.744374751174817 157.37196038145808 L 91,91 Z"/><path fill-rule="evenodd" fill="#00ADD8" d="M 28.744374751174817,157.37196038145808 A 91 91 0 0 1 13.536932334364778 138.75429978367623 L 91,91 Z"/><path fill-rule="evenodd" fill="#000080" d="M 13.536932334364778,138.75429978367623 A 91 91 0 0 1 7.27803964695299 126.65996851713169 L 91,91 Z"/><path fill-rule="evenodd" fill="#f1e05a" d="M 7.27803964695299,126.65996851713169 A 91 91 0 0 1 2.996923413387833 114.1615740244672 L 91,91 Z"/><path fill-rule="evenodd" fill="#DA3434" d="M 2.996923413387833,114.1615740244672 A 91 91 0 0 1 0.5755747170392596 101.21877254107612 L 91,91 Z"/><path fill-rule="evenodd" fill="#6866fb" d="M 0.5755747170392596,101.21877254107612 A 91 91 0 0 1 0.014538459939103632 92.62658794477925 L 91,91 Z"/><path fill-rule="evenodd" fill="#8f14e9" d="M 0.014538459939103632,92.62658794477925 A 91 91 0 0 1 0.004177559378874207 91.87195089021859 L 91,91 Z"/><path fill-rule="evenodd" fill="#959da5" d="M 0.004177559378874207,91.87195089021859 A 91 91 0 0 1 0.0 91.00000000000003 L 91,91 Z"/></g><g transform="translate(15, 21)"><rect x="0.5" y="0.5" rx="2" width="15" height="15" fill="#f34b7d" stroke-width="1" stroke="#000000"/><text transform="scale(0.095)" x="263" y="132" textLength="1074" lengthAdjust="spacingAndGlyphs">C++ 46.34%</text></g><g transform="translate(15, 42)"><rect x="0.5" y="0.5" rx="2" width="15" height="15" fill="#438eff" stroke-width="1" stroke="#000000"/><text transform="scale(0.095)" x="263" y="132" textLength="1642" lengthAdjust="spacingAndGlyphs">Objective-C 13.17%</text></g><g transform="translate(15, 63)"><rect x="0.5" y="0.5" rx="2" width="15" height="15" fill="#555555" stroke-width="1" stroke="#000000"/><text transform="scale(0.095)" x="263" y="132" textLength="693" lengthAdjust="spacingAndGlyphs">C 6.95%</text></g><g transform="translate(15, 84)"><rect x="0.5" y="0.5" rx="2" width="15" height="15" fill="#dea584" stroke-width="1" stroke="#000000"/><text transform="scale(0.095)" x="263" y="132" textLength="946" lengthAdjust="spacingAndGlyphs">Rust 6.48%</text></g><g transform="translate(15, 105)"><rect x="0.5" y="0.5" rx="2" width="15" height="15" fill="#b07219" stroke-width="1" stroke="#000000"/><text transform="scale(0.095)" x="263" y="132" textLength="933" lengthAdjust="spacingAndGlyphs">Java 5.26%</text></g><g transform="translate(15, 126)"><rect x="0.5" y="0.5" rx="2" width="15" height="15" fill="#3178c6" stroke-width="1" stroke="#000000"/><text transform="scale(0.095)" x="263" y="132" textLength="1462" lengthAdjust="spacingAndGlyphs">TypeScript 4.46%</text></g><g transform="translate(15, 147)"><rect x="0.5" y="0.5" rx="2" width="15" height="15" fill="#A97BFF" stroke-width="1" stroke="#000000"/><text transform="scale(0.095)" x="263" y="132" textLength="1048" lengthAdjust="spacingAndGlyphs">Kotlin 4.33%</text></g><g transform="translate(15, 168)"><rect x="0.5" y="0.5" rx="2" width="15" height="15" fill="#00ADD8" stroke-width="1" stroke="#000000"/><text transform="scale(0.095)" x="263" y="132" textLength="806" lengthAdjust="spacingAndGlyphs">Go 4.22%</text></g><g transform="translate(15, 189)"><rect x="0.5" y="0.5" rx="2" width="15" height="15" fill="#000080" stroke-width="1" stroke="#000000"/><text transform="scale(0.095)" x="263" y="132" textLength="874" lengthAdjust="spacingAndGlyphs">Lua 2.38%</text></g><g transform="translate(15, 210)"><rect x="0.5" y="0.5" rx="2" width="15" height="15" fill="#f1e05a" stroke-width="1" stroke="#000000"/><text transform="scale(0.095)" x="263" y="132" textLength="1412" lengthAdjust="spacingAndGlyphs">JavaScript 2.31%</text><rect x="228.5" y="0.5" rx="2" width="15" height="15" fill="#DA3434" stroke-width="1" stroke="#000000"/><text transform="scale(0.095)" x="2663" y="132" textLength="1134" lengthAdjust="spacingAndGlyphs">CMake 2.30%</text></g><g transform="translate(15, 231)"><rect x="0.5" y="0.5" rx="2" width="15" height="15" fill="#6866fb" stroke-width="1" stroke="#000000"/><text transform="scale(0.095)" x="263" y="132" textLength="1814" lengthAdjust="spacingAndGlyphs">Objective-C++ 1.51%</text><rect x="228.5" y="0.5" rx="2" width="15" height="15" fill="#8f14e9" stroke-width="1" stroke="#000000"/><text transform="scale(0.095)" x="2663" y="132" textLength="1034" lengthAdjust="spacingAndGlyphs">Metal 0.13%</text></g><g transform="translate(15, 252)"><rect x="0.5" y="0.5" rx="2" width="15" height="15" fill="#959da5" stroke-width="1" stroke="#000000"/><text transform="scale(0.095)" x="263" y="132" textLength="1047" lengthAdjust="spacingAndGlyphs">Other 0.15%</text></g></g></g></svg>