<svg width="457" height="396" viewBox="0 0 457 396" xmlns="http://www.w3.org/2000/svg" lang="en" xml:lang="en"><rect x="2" y="2" stroke-width="4" rx="0" width="453" height="392" stroke="#ffffff" fill="#ffffff"/><g font-weight="600" font-size="110pt" font-family="Verdana,Geneva,DejaVu Sans,sans-serif" text-rendering="geometricPrecision"><text x="895" y="301" lengthAdjust="spacingAndGlyphs" textLength="1917" transform="scale(0.123)" fill="#0969da">Rinc's GitHub Statistics</text><g transform="translate(0, 60)" fill="#24292f"><g transform="translate(15, 0)"><g transform="scale(0.095)"><text x="0" y="132" textLength="3652" lengthAdjust="spacingAndGlyphs">Language Distribution in Public Repositories</text></g></g><g transform="translate(243, 21)"><circle cx="92" cy="92" r="92" fill="#000000"/></g><g transform="translate(244, 22)"><path fill-rule="evenodd" fill="#f34b7d" d="M 0.0,91.00000000000001 A 91 91 0 0 1 177.87685793309726 63.91842774740658 L 91,91 Z"/><path fill-rule="evenodd" fill="#438eff" d="M 177.87685793309726,63.91842774740658 A 91 91 0 0 1 165.54463016307764 143.19289332706106 L 91,91 Z"/><path fill-rule="evenodd" fill="#555555" d="M 165.54463016307764,143.19289332706106 A 91 91 0 0 1 133.5370529052013 171.44624994454438 L 91,91 Z"/><path fill-rule="evenodd" fill="#dea584" d="M 133.5370529052013,171.44624994454438 A 91 91 0 0 1 94.37735598913602 181.9373051421838 L 91,91 Z"/><path fill-rule="evenodd" fill="#b07219" d="M 94.37735598913602,181.9373051421838 A 91 91 0 0 1 61.75766825742361 177.17358083691954 L 91,91 Z"/><path fill-rule="evenodd" fill="#00ADD8" d="M 61.75766825742361,177.17358083691954 A 91 91 0 0 1 38.168022994906536 165.09306449144398 L 91,91 Z"/><path fill-rule="evenodd" fill="#A97BFF" d="M 38.168022994906536,165.09306449144398 A 91 91 0 0 1 19.927920810337937 147.83097359414498 L 91,91 Z"/><path fill-rule="evenodd" fill="#000080" d="M 19.927920810337937,147.83097359414498 A 91 91 0 0 1 11.414621815204583 135.1267218268374 L 91,91 Z"/><path fill-rule="evenodd" fill="#f1e05a" d="M 11.414621815204583,135.1267218268374 A 91 91 0 0 1 5.340561289879972 121.71580309656889 L 91,91 Z"/><path fill-rule="evenodd" fill="#3178c6" d="M 5.340561289879972,121.71580309656889 A 91 91 0 0 1 2.5468926727465515 112.37867638918237 L 91,91 Z"/><path fill-rule="evenodd" fill="#6866fb" d="M 2.5468926727465515,112.37867638918237 A 91 91 0 0 1 0.901975014104238 103.78068439642037 L 91,91 Z"/><path fill-rule="evenodd" fill="#89e051" d="M 0.901975014104238,103.78068439642037 A 91 91 0 0 1 0.12370035240276422 95.74322278204579 L 91,91 Z"/><path fill-rule="evenodd" fill="#427819" d="M 0.12370035240276422,95.74322278204579 A 91 91 0 0 1 0.06100659786049789 94.33158806061418 L 91,91 Z"/><path fill-rule="evenodd" fill="#8f14e9" d="M 0.06100659786049789,94.33158806061418 A 91 91 0 0 1 0.034331413823707635 93.49942766847494 L 91,91 Z"/><path fill-rule="evenodd" fill="#C1F12E" d="M 0.034331413823707635,93.49942766847494 A 91 91 0 0 1 0.01608752633110555 92.71104382870688 L 91,91 Z"/><path fill-rule="evenodd" fill="#5686a5" d="M 0.01608752633110555,92.71104382870688 A 91 91 0 0 1 0.006087170234408745 92.05253405124041 L 91,91 Z"/><path fill-rule="evenodd" fill="#DA3434" d="M 0.006087170234408745,92.05253405124041 A 91 91 0 0 1 0.0010921742283613867 91.44584135823982 L 91,91 Z"/><path fill-rule="evenodd" fill="#e34c26" d="M 0.0010921742283613867,91.44584135823982 A 91 91 0 0 1 0.00011155078313151989 91.14248589434422 L 91,91 Z"/><path fill-rule="evenodd" fill="#701516" d="M 0.00011155078313151989,91.14248589434422 A 91 91 0 0 1 0.0 91.00000000000003 L 91,91 Z"/></g><g transform="translate(15, 21)"><rect x="0.5" y="0.5" rx="2" width="15" height="15" fill="#f34b7d" stroke-width="1" stroke="#000000"/><text transform="scale(0.095)" x="263" y="132" textLength="1074" lengthAdjust="spacingAndGlyphs">C++ 45.19%</text></g><g transform="translate(15, 42)"><rect x="0.5" y="0.5" rx="2" width="15" height="15" fill="#438eff" stroke-width="1" stroke="#000000"/><text transform="scale(0.095)" x="263" y="132" textLength="1642" lengthAdjust="spacingAndGlyphs">Objective-C 14.53%</text></g><g transform="translate(15, 63)"><rect x="0.5" y="0.5" rx="2" width="15" height="15" fill="#555555" stroke-width="1" stroke="#000000"/><text transform="scale(0.095)" x="263" y="132" textLength="693" lengthAdjust="spacingAndGlyphs">C 7.54%</text></g><g transform="translate(15, 84)"><rect x="0.5" y="0.5" rx="2" width="15" height="15" fill="#dea584" stroke-width="1" stroke="#000000"/><text transform="scale(0.095)" x="263" y="132" textLength="946" lengthAdjust="spacingAndGlyphs">Rust 7.15%</text></g><g transform="translate(15, 105)"><rect x="0.5" y="0.5" rx="2" width="15" height="15" fill="#b07219" stroke-width="1" stroke="#000000"/><text transform="scale(0.095)" x="263" y="132" textLength="933" lengthAdjust="spacingAndGlyphs">Java 5.80%</text></g><g transform="translate(15, 126)"><rect x="0.5" y="0.5" rx="2" width="15" height="15" fill="#00ADD8" stroke-width="1" stroke="#000000"/><text transform="scale(0.095)" x="263" y="132" textLength="806" lengthAdjust="spacingAndGlyphs">Go 4.65%</text></g><g transform="translate(15, 147)"><rect x="0.5" y="0.5" rx="2" width="15" height="15" fill="#A97BFF" stroke-width="1" stroke="#000000"/><text transform="scale(0.095)" x="263" y="132" textLength="1048" lengthAdjust="spacingAndGlyphs">Kotlin 4.41%</text></g><g transform="translate(15, 168)"><rect x="0.5" y="0.5" rx="2" width="15" height="15" fill="#000080" stroke-width="1" stroke="#000000"/><text transform="scale(0.095)" x="263" y="132" textLength="874" lengthAdjust="spacingAndGlyphs">Lua 2.68%</text></g><g transform="translate(15, 189)"><rect x="0.5" y="0.5" rx="2" width="15" height="15" fill="#f1e05a" stroke-width="1" stroke="#000000"/><text transform="scale(0.095)" x="263" y="132" textLength="1412" lengthAdjust="spacingAndGlyphs">JavaScript 2.58%</text></g><g transform="translate(15, 210)"><rect x="0.5" y="0.5" rx="2" width="15" height="15" fill="#3178c6" stroke-width="1" stroke="#000000"/><text transform="scale(0.095)" x="263" y="132" textLength="1462" lengthAdjust="spacingAndGlyphs">TypeScript 1.71%</text><rect x="228.5" y="0.5" rx="2" width="15" height="15" fill="#6866fb" stroke-width="1" stroke="#000000"/><text transform="scale(0.095)" x="2663" y="132" textLength="1814" lengthAdjust="spacingAndGlyphs">Objective-C++ 1.53%</text></g><g transform="translate(15, 231)"><rect x="0.5" y="0.5" rx="2" width="15" height="15" fill="#89e051" stroke-width="1" stroke="#000000"/><text transform="scale(0.095)" x="263" y="132" textLength="982" lengthAdjust="spacingAndGlyphs">Shell 1.41%</text><rect x="228.5" y="0.5" rx="2" width="15" height="15" fill="#427819" stroke-width="1" stroke="#000000"/><text transform="scale(0.095)" x="2663" y="132" textLength="1272" lengthAdjust="spacingAndGlyphs">Makefile 0.25%</text></g><g transform="translate(15, 252)"><rect x="0.5" y="0.5" rx="2" width="15" height="15" fill="#8f14e9" stroke-width="1" stroke="#000000"/><text transform="scale(0.095)" x="263" y="132" textLength="1034" lengthAdjust="spacingAndGlyphs">Metal 0.15%</text><rect x="228.5" y="0.5" rx="2" width="15" height="15" fill="#C1F12E" stroke-width="1" stroke="#000000"/><text transform="scale(0.095)" x="2663" y="132" textLength="1304" lengthAdjust="spacingAndGlyphs">Batchfile 0.14%</text></g><g transform="translate(15, 273)"><rect x="0.5" y="0.5" rx="2" width="15" height="15" fill="#5686a5" stroke-width="1" stroke="#000000"/><text transform="scale(0.095)" x="263" y="132" textLength="993" lengthAdjust="spacingAndGlyphs">GLSL 0.12%</text><rect x="228.5" y="0.5" rx="2" width="15" height="15" fill="#DA3434" stroke-width="1" stroke="#000000"/><text transform="scale(0.095)" x="2663" y="132" textLength="1134" lengthAdjust="spacingAndGlyphs">CMake 0.11%</text></g><g transform="translate(15, 294)"><rect x="0.5" y="0.5" rx="2" width="15" height="15" fill="#e34c26" stroke-width="1" stroke="#000000"/><text transform="scale(0.095)" x="263" y="132" textLength="1036" lengthAdjust="spacingAndGlyphs">HTML 0.05%</text><rect x="228.5" y="0.5" rx="2" width="15" height="15" fill="#701516" stroke-width="1" stroke="#000000"/><text transform="scale(0.095)" x="2663" y="132" textLength="999" lengthAdjust="spacingAndGlyphs">Ruby 0.02%</text></g></g></g></svg>