<svg width="457" height="354" viewBox="0 0 457 354" xmlns="http://www.w3.org/2000/svg" lang="en" xml:lang="en"><rect x="2" y="2" stroke-width="4" rx="0" width="453" height="350" stroke="#ffffff" fill="#ffffff"/><g font-weight="600" font-size="110pt" font-family="Verdana,Geneva,DejaVu Sans,sans-serif" text-rendering="geometricPrecision"><text x="1828" y="301" lengthAdjust="spacingAndGlyphs" textLength="52" transform="scale(0.123)" fill="#0969da">.</text><g transform="translate(0, 60)" fill="#24292f"><g transform="translate(15, 0)"><g transform="scale(0.095)"><text x="0" y="132" textLength="3652" lengthAdjust="spacingAndGlyphs">Language Distribution in Public Repositories</text></g></g><g transform="translate(243, 21)"><circle cx="92" cy="92" r="92" fill="#000000"/></g><g transform="translate(244, 22)"><path fill-rule="evenodd" fill="#f34b7d" d="M 0.0,91.00000000000001 A 91 91 0 1 1 181.8925833728906 95.42021354711825 L 91,91 Z"/><path fill-rule="evenodd" fill="#438eff" d="M 181.8925833728906,95.42021354711825 A 91 91 0 0 1 150.85666743763244 159.5432663597284 L 91,91 Z"/><path fill-rule="evenodd" fill="#555555" d="M 150.85666743763244,159.5432663597284 A 91 91 0 0 1 116.26998999678003 178.4209792072969 L 91,91 Z"/><path fill-rule="evenodd" fill="#dea584" d="M 116.26998999678003,178.4209792072969 A 91 91 0 0 1 79.62244906699335 181.28594206612036 L 91,91 Z"/><path fill-rule="evenodd" fill="#b07219" d="M 79.62244906699335,181.28594206612036 A 91 91 0 0 1 50.99675929182755 172.73579835570223 L 91,91 Z"/><path fill-rule="evenodd" fill="#00ADD8" d="M 50.99675929182755,172.73579835570223 A 91 91 0 0 1 31.01202300873171 159.4283758136569 L 91,91 Z"/><path fill-rule="evenodd" fill="#A97BFF" d="M 31.01202300873171,159.4283758136569 A 91 91 0 0 1 18.63752407068141 146.17854725687135 L 91,91 Z"/><path fill-rule="evenodd" fill="#000080" d="M 18.63752407068141,146.17854725687135 A 91 91 0 0 1 9.372886469503555 131.2245489307145 L 91,91 Z"/><path fill-rule="evenodd" fill="#f1e05a" d="M 9.372886469503555,131.2245489307145 A 91 91 0 0 1 3.224612594634067 115.01002636062543 L 91,91 Z"/><path fill-rule="evenodd" fill="#DA3434" d="M 3.224612594634067,115.01002636062543 A 91 91 0 0 1 0.6057931338893923 101.48271744571998 L 91,91 Z"/><path fill-rule="evenodd" fill="#6866fb" d="M 0.6057931338893923,101.48271744571998 A 91 91 0 0 1 0.019894899910269714 92.90275483881327 L 91,91 Z"/><path fill-rule="evenodd" fill="#8f14e9" d="M 0.019894899910269714,92.90275483881327 A 91 91 0 0 1 0.007255112860875101 92.14907697915187 L 91,91 Z"/><path fill-rule="evenodd" fill="#5686a5" d="M 0.007255112860875101,92.14907697915187 A 91 91 0 0 1 0.0016793870380240605 91.55285225926932 L 91,91 Z"/><path fill-rule="evenodd" fill="#959da5" d="M 0.0016793870380240605,91.55285225926932 A 91 91 0 0 1 0.0 91.00000000000003 L 91,91 Z"/></g><g transform="translate(15, 21)"><rect x="0.5" y="0.5" rx="2" width="15" height="15" fill="#f34b7d" stroke-width="1" stroke="#000000"/><text transform="scale(0.095)" x="263" y="132" textLength="1074" lengthAdjust="spacingAndGlyphs">C++ 50.77%</text></g><g transform="translate(15, 42)"><rect x="0.5" y="0.5" rx="2" width="15" height="15" fill="#438eff" stroke-width="1" stroke="#000000"/><text transform="scale(0.095)" x="263" y="132" textLength="1642" lengthAdjust="spacingAndGlyphs">Objective-C 12.80%</text></g><g transform="translate(15, 63)"><rect x="0.5" y="0.5" rx="2" width="15" height="15" fill="#555555" stroke-width="1" stroke="#000000"/><text transform="scale(0.095)" x="263" y="132" textLength="693" lengthAdjust="spacingAndGlyphs">C 6.95%</text></g><g transform="translate(15, 84)"><rect x="0.5" y="0.5" rx="2" width="15" height="15" fill="#dea584" stroke-width="1" stroke="#000000"/><text transform="scale(0.095)" x="263" y="132" textLength="946" lengthAdjust="spacingAndGlyphs">Rust 6.47%</text></g><g transform="translate(15, 105)"><rect x="0.5" y="0.5" rx="2" width="15" height="15" fill="#b07219" stroke-width="1" stroke="#000000"/><text transform="scale(0.095)" x="263" y="132" textLength="933" lengthAdjust="spacingAndGlyphs">Java 5.25%</text></g><g transform="translate(15, 126)"><rect x="0.5" y="0.5" rx="2" width="15" height="15" fill="#00ADD8" stroke-width="1" stroke="#000000"/><text transform="scale(0.095)" x="263" y="132" textLength="806" lengthAdjust="spacingAndGlyphs">Go 4.21%</text></g><g transform="translate(15, 147)"><rect x="0.5" y="0.5" rx="2" width="15" height="15" fill="#A97BFF" stroke-width="1" stroke="#000000"/><text transform="scale(0.095)" x="263" y="132" textLength="1048" lengthAdjust="spacingAndGlyphs">Kotlin 3.18%</text></g><g transform="translate(15, 168)"><rect x="0.5" y="0.5" rx="2" width="15" height="15" fill="#000080" stroke-width="1" stroke="#000000"/><text transform="scale(0.095)" x="263" y="132" textLength="874" lengthAdjust="spacingAndGlyphs">Lua 3.08%</text></g><g transform="translate(15, 189)"><rect x="0.5" y="0.5" rx="2" width="15" height="15" fill="#f1e05a" stroke-width="1" stroke="#000000"/><text transform="scale(0.095)" x="263" y="132" textLength="1412" lengthAdjust="spacingAndGlyphs">JavaScript 3.04%</text></g><g transform="translate(15, 210)"><rect x="0.5" y="0.5" rx="2" width="15" height="15" fill="#DA3434" stroke-width="1" stroke="#000000"/><text transform="scale(0.095)" x="263" y="132" textLength="1134" lengthAdjust="spacingAndGlyphs">CMake 2.41%</text><rect x="228.5" y="0.5" rx="2" width="15" height="15" fill="#6866fb" stroke-width="1" stroke="#000000"/><text transform="scale(0.095)" x="2663" y="132" textLength="1814" lengthAdjust="spacingAndGlyphs">Objective-C++ 1.50%</text></g><g transform="translate(15, 231)"><rect x="0.5" y="0.5" rx="2" width="15" height="15" fill="#8f14e9" stroke-width="1" stroke="#000000"/><text transform="scale(0.095)" x="263" y="132" textLength="1034" lengthAdjust="spacingAndGlyphs">Metal 0.13%</text><rect x="228.5" y="0.5" rx="2" width="15" height="15" fill="#5686a5" stroke-width="1" stroke="#000000"/><text transform="scale(0.095)" x="2663" y="132" textLength="993" lengthAdjust="spacingAndGlyphs">GLSL 0.10%</text></g><g transform="translate(15, 252)"><rect x="0.5" y="0.5" rx="2" width="15" height="15" fill="#959da5" stroke-width="1" stroke="#000000"/><text transform="scale(0.095)" x="263" y="132" textLength="1047" lengthAdjust="spacingAndGlyphs">Other 0.10%</text></g></g></g></svg>