<svg width="457" height="354" viewBox="0 0 457 354" xmlns="http://www.w3.org/2000/svg" lang="en" xml:lang="en"><rect x="2" y="2" stroke-width="4" rx="0" width="453" height="350" stroke="#ffffff" fill="#ffffff"/><g font-weight="600" font-size="110pt" font-family="Verdana,Geneva,DejaVu Sans,sans-serif" text-rendering="geometricPrecision"><text x="1796" y="301" lengthAdjust="spacingAndGlyphs" textLength="116" transform="scale(0.123)" fill="#0969da">📊</text><g transform="translate(0, 60)" fill="#24292f"><g transform="translate(15, 0)"><g transform="scale(0.095)"><text x="0" y="132" textLength="3652" lengthAdjust="spacingAndGlyphs">Language Distribution in Public Repositories</text></g></g><g transform="translate(243, 21)"><circle cx="92" cy="92" r="92" fill="#000000"/></g><g transform="translate(244, 22)"><path fill-rule="evenodd" fill="#f34b7d" d="M 0.0,91.00000000000001 A 91 91 0 0 1 180.8185462617326 76.38395582146107 L 91,91 Z"/><path fill-rule="evenodd" fill="#438eff" d="M 180.8185462617326,76.38395582146107 A 91 91 0 0 1 161.4473841855073 148.60352473086638 L 91,91 Z"/><path fill-rule="evenodd" fill="#555555" d="M 161.4473841855073,148.60352473086638 A 91 91 0 0 1 129.6178592986564 173.39939892492646 L 91,91 Z"/><path fill-rule="evenodd" fill="#dea584" d="M 129.6178592986564,173.39939892492646 A 91 91 0 0 1 92.9658795271975 181.97876300370623 L 91,91 Z"/><path fill-rule="evenodd" fill="#b07219" d="M 92.9658795271975,181.97876300370623 A 91 91 0 0 1 62.700438528214164 177.4877726647219 L 91,91 Z"/><path fill-rule="evenodd" fill="#00ADD8" d="M 62.700438528214164,177.4877726647219 A 91 91 0 0 1 40.57575064329869 166.75219519468203 L 91,91 Z"/><path fill-rule="evenodd" fill="#A97BFF" d="M 40.57575064329869,166.75219519468203 A 91 91 0 0 1 22.88971555706327 151.34889521028742 L 91,91 Z"/><path fill-rule="evenodd" fill="#3178c6" d="M 22.88971555706327,151.34889521028742 A 91 91 0 0 1 10.422913907103805 133.2886887569004 L 91,91 Z"/><path fill-rule="evenodd" fill="#000080" d="M 10.422913907103805,133.2886887569004 A 91 91 0 0 1 4.9118329337091495 120.492837963926 L 91,91 Z"/><path fill-rule="evenodd" fill="#f1e05a" d="M 4.9118329337091495,120.492837963926 A 91 91 0 0 1 1.4930698346028066 107.41674304990825 L 91,91 Z"/><path fill-rule="evenodd" fill="#6866fb" d="M 1.4930698346028066,107.41674304990825 A 91 91 0 0 1 0.32508740778472145 98.68506515223652 L 91,91 Z"/><path fill-rule="evenodd" fill="#DA3434" d="M 0.32508740778472145,98.68506515223652 A 91 91 0 0 1 0.015218630074301132 92.6641992269023 L 91,91 Z"/><path fill-rule="evenodd" fill="#8f14e9" d="M 0.015218630074301132,92.6641992269023 A 91 91 0 0 1 0.004373007011238883 91.89211442811806 L 91,91 Z"/><path fill-rule="evenodd" fill="#959da5" d="M 0.004373007011238883,91.89211442811806 A 91 91 0 0 1 0.0 91.00000000000003 L 91,91 Z"/></g><g transform="translate(15, 21)"><rect x="0.5" y="0.5" rx="2" width="15" height="15" fill="#f34b7d" stroke-width="1" stroke="#000000"/><text transform="scale(0.095)" x="263" y="132" textLength="1074" lengthAdjust="spacingAndGlyphs">C++ 47.43%</text></g><g transform="translate(15, 42)"><rect x="0.5" y="0.5" rx="2" width="15" height="15" fill="#438eff" stroke-width="1" stroke="#000000"/><text transform="scale(0.095)" x="263" y="132" textLength="1642" lengthAdjust="spacingAndGlyphs">Objective-C 13.48%</text></g><g transform="translate(15, 63)"><rect x="0.5" y="0.5" rx="2" width="15" height="15" fill="#555555" stroke-width="1" stroke="#000000"/><text transform="scale(0.095)" x="263" y="132" textLength="693" lengthAdjust="spacingAndGlyphs">C 7.12%</text></g><g transform="translate(15, 84)"><rect x="0.5" y="0.5" rx="2" width="15" height="15" fill="#dea584" stroke-width="1" stroke="#000000"/><text transform="scale(0.095)" x="263" y="132" textLength="946" lengthAdjust="spacingAndGlyphs">Rust 6.63%</text></g><g transform="translate(15, 105)"><rect x="0.5" y="0.5" rx="2" width="15" height="15" fill="#b07219" stroke-width="1" stroke="#000000"/><text transform="scale(0.095)" x="263" y="132" textLength="933" lengthAdjust="spacingAndGlyphs">Java 5.38%</text></g><g transform="translate(15, 126)"><rect x="0.5" y="0.5" rx="2" width="15" height="15" fill="#00ADD8" stroke-width="1" stroke="#000000"/><text transform="scale(0.095)" x="263" y="132" textLength="806" lengthAdjust="spacingAndGlyphs">Go 4.31%</text></g><g transform="translate(15, 147)"><rect x="0.5" y="0.5" rx="2" width="15" height="15" fill="#A97BFF" stroke-width="1" stroke="#000000"/><text transform="scale(0.095)" x="263" y="132" textLength="1048" lengthAdjust="spacingAndGlyphs">Kotlin 4.11%</text></g><g transform="translate(15, 168)"><rect x="0.5" y="0.5" rx="2" width="15" height="15" fill="#3178c6" stroke-width="1" stroke="#000000"/><text transform="scale(0.095)" x="263" y="132" textLength="1462" lengthAdjust="spacingAndGlyphs">TypeScript 3.85%</text></g><g transform="translate(15, 189)"><rect x="0.5" y="0.5" rx="2" width="15" height="15" fill="#000080" stroke-width="1" stroke="#000000"/><text transform="scale(0.095)" x="263" y="132" textLength="874" lengthAdjust="spacingAndGlyphs">Lua 2.44%</text></g><g transform="translate(15, 210)"><rect x="0.5" y="0.5" rx="2" width="15" height="15" fill="#f1e05a" stroke-width="1" stroke="#000000"/><text transform="scale(0.095)" x="263" y="132" textLength="1412" lengthAdjust="spacingAndGlyphs">JavaScript 2.37%</text><rect x="228.5" y="0.5" rx="2" width="15" height="15" fill="#6866fb" stroke-width="1" stroke="#000000"/><text transform="scale(0.095)" x="2663" y="132" textLength="1814" lengthAdjust="spacingAndGlyphs">Objective-C++ 1.54%</text></g><g transform="translate(15, 231)"><rect x="0.5" y="0.5" rx="2" width="15" height="15" fill="#DA3434" stroke-width="1" stroke="#000000"/><text transform="scale(0.095)" x="263" y="132" textLength="1134" lengthAdjust="spacingAndGlyphs">CMake 1.05%</text><rect x="228.5" y="0.5" rx="2" width="15" height="15" fill="#8f14e9" stroke-width="1" stroke="#000000"/><text transform="scale(0.095)" x="2663" y="132" textLength="1034" lengthAdjust="spacingAndGlyphs">Metal 0.14%</text></g><g transform="translate(15, 252)"><rect x="0.5" y="0.5" rx="2" width="15" height="15" fill="#959da5" stroke-width="1" stroke="#000000"/><text transform="scale(0.095)" x="263" y="132" textLength="1047" lengthAdjust="spacingAndGlyphs">Other 0.16%</text></g></g></g></svg>