<svg width="457" height="396" viewBox="0 0 457 396" xmlns="http://www.w3.org/2000/svg" lang="en" xml:lang="en"><rect x="2" y="2" stroke-width="4" rx="0" width="453" height="392" stroke="#ffffff" fill="#ffffff"/><g font-weight="600" font-size="110pt" font-family="Verdana,Geneva,DejaVu Sans,sans-serif" text-rendering="geometricPrecision"><text x="895" y="301" lengthAdjust="spacingAndGlyphs" textLength="1917" transform="scale(0.123)" fill="#0969da">Rinc's GitHub Statistics</text><g transform="translate(0, 60)" fill="#24292f"><g transform="translate(15, 0)"><g transform="scale(0.095)"><text x="0" y="132" textLength="3652" lengthAdjust="spacingAndGlyphs">Language Distribution in Public Repositories</text></g></g><g transform="translate(243, 21)"><circle cx="92" cy="92" r="92" fill="#000000"/></g><g transform="translate(244, 22)"><path fill-rule="evenodd" fill="#f34b7d" d="M 0.0,91.00000000000001 A 91 91 0 0 1 175.25236114693286 56.61192588749993 L 91,91 Z"/><path fill-rule="evenodd" fill="#438eff" d="M 175.25236114693286,56.61192588749993 A 91 91 0 0 1 163.4447265211733 146.07051479033413 L 91,91 Z"/><path fill-rule="evenodd" fill="#555555" d="M 163.4447265211733,146.07051479033413 A 91 91 0 0 1 122.81082051122448 176.2588511440464 L 91,91 Z"/><path fill-rule="evenodd" fill="#b07219" d="M 122.81082051122448,176.2588511440464 A 91 91 0 0 1 85.73967074806798 181.84783396515994 L 91,91 Z"/><path fill-rule="evenodd" fill="#00ADD8" d="M 85.73967074806798,181.84783396515994 A 91 91 0 0 1 56.33701160417363 175.13962939941445 L 91,91 Z"/><path fill-rule="evenodd" fill="#A97BFF" d="M 56.33701160417363,175.13962939941445 A 91 91 0 0 1 31.93307299396698 160.2249820084048 L 91,91 Z"/><path fill-rule="evenodd" fill="#000080" d="M 31.93307299396698,160.2249820084048 A 91 91 0 0 1 17.017527581671587 143.9867320644638 L 91,91 Z"/><path fill-rule="evenodd" fill="#f1e05a" d="M 17.017527581671587,143.9867320644638 A 91 91 0 0 1 9.018904477488576 130.49810092813144 L 91,91 Z"/><path fill-rule="evenodd" fill="#3178c6" d="M 9.018904477488576,130.49810092813144 A 91 91 0 0 1 4.7617621475561975 120.05109863852536 L 91,91 Z"/><path fill-rule="evenodd" fill="#6866fb" d="M 4.7617621475561975,120.05109863852536 A 91 91 0 0 1 2.2525073192679486 111.12169334035809 L 91,91 Z"/><path fill-rule="evenodd" fill="#DA3434" d="M 2.2525073192679486,111.12169334035809 A 91 91 0 0 1 0.6962895554500079 102.23565218164359 L 91,91 Z"/><path fill-rule="evenodd" fill="#89e051" d="M 0.6962895554500079,102.23565218164359 A 91 91 0 0 1 0.09995896959466677 95.26409904559286 L 91,91 Z"/><path fill-rule="evenodd" fill="#427819" d="M 0.09995896959466677,95.26409904559286 A 91 91 0 0 1 0.03875833082511804 93.65565698123133 L 91,91 Z"/><path fill-rule="evenodd" fill="#8f14e9" d="M 0.03875833082511804,93.65565698123133 A 91 91 0 0 1 0.016021147955029846 92.70751054188013 L 91,91 Z"/><path fill-rule="evenodd" fill="#5686a5" d="M 0.016021147955029846,92.70751054188013 A 91 91 0 0 1 0.005036287165552267 91.95738127198169 L 91,91 Z"/><path fill-rule="evenodd" fill="#C1F12E" d="M 0.005036287165552267,91.95738127198169 A 91 91 0 0 1 0.0014297567778953635 91.51011144799162 L 91,91 Z"/><path fill-rule="evenodd" fill="#e34c26" d="M 0.0014297567778953635,91.51011144799162 A 91 91 0 0 1 0.00014474844421386024 91.16230895198532 L 91,91 Z"/><path fill-rule="evenodd" fill="#701516" d="M 0.00014474844421386024,91.16230895198532 A 91 91 0 0 1 0.0 91.00000000000003 L 91,91 Z"/></g><g transform="translate(15, 21)"><rect x="0.5" y="0.5" rx="2" width="15" height="15" fill="#f34b7d" stroke-width="1" stroke="#000000"/><text transform="scale(0.095)" x="263" y="132" textLength="1074" lengthAdjust="spacingAndGlyphs">C++ 43.83%</text></g><g transform="translate(15, 42)"><rect x="0.5" y="0.5" rx="2" width="15" height="15" fill="#438eff" stroke-width="1" stroke="#000000"/><text transform="scale(0.095)" x="263" y="132" textLength="1642" lengthAdjust="spacingAndGlyphs">Objective-C 16.51%</text></g><g transform="translate(15, 63)"><rect x="0.5" y="0.5" rx="2" width="15" height="15" fill="#555555" stroke-width="1" stroke="#000000"/><text transform="scale(0.095)" x="263" y="132" textLength="693" lengthAdjust="spacingAndGlyphs">C 8.97%</text></g><g transform="translate(15, 84)"><rect x="0.5" y="0.5" rx="2" width="15" height="15" fill="#b07219" stroke-width="1" stroke="#000000"/><text transform="scale(0.095)" x="263" y="132" textLength="933" lengthAdjust="spacingAndGlyphs">Java 6.60%</text></g><g transform="translate(15, 105)"><rect x="0.5" y="0.5" rx="2" width="15" height="15" fill="#00ADD8" stroke-width="1" stroke="#000000"/><text transform="scale(0.095)" x="263" y="132" textLength="806" lengthAdjust="spacingAndGlyphs">Go 5.30%</text></g><g transform="translate(15, 126)"><rect x="0.5" y="0.5" rx="2" width="15" height="15" fill="#A97BFF" stroke-width="1" stroke="#000000"/><text transform="scale(0.095)" x="263" y="132" textLength="1048" lengthAdjust="spacingAndGlyphs">Kotlin 5.02%</text></g><g transform="translate(15, 147)"><rect x="0.5" y="0.5" rx="2" width="15" height="15" fill="#000080" stroke-width="1" stroke="#000000"/><text transform="scale(0.095)" x="263" y="132" textLength="874" lengthAdjust="spacingAndGlyphs">Lua 3.87%</text></g><g transform="translate(15, 168)"><rect x="0.5" y="0.5" rx="2" width="15" height="15" fill="#f1e05a" stroke-width="1" stroke="#000000"/><text transform="scale(0.095)" x="263" y="132" textLength="1412" lengthAdjust="spacingAndGlyphs">JavaScript 2.75%</text></g><g transform="translate(15, 189)"><rect x="0.5" y="0.5" rx="2" width="15" height="15" fill="#3178c6" stroke-width="1" stroke="#000000"/><text transform="scale(0.095)" x="263" y="132" textLength="1462" lengthAdjust="spacingAndGlyphs">TypeScript 1.97%</text></g><g transform="translate(15, 210)"><rect x="0.5" y="0.5" rx="2" width="15" height="15" fill="#6866fb" stroke-width="1" stroke="#000000"/><text transform="scale(0.095)" x="263" y="132" textLength="1814" lengthAdjust="spacingAndGlyphs">Objective-C++ 1.62%</text><rect x="228.5" y="0.5" rx="2" width="15" height="15" fill="#DA3434" stroke-width="1" stroke="#000000"/><text transform="scale(0.095)" x="2663" y="132" textLength="1134" lengthAdjust="spacingAndGlyphs">CMake 1.58%</text></g><g transform="translate(15, 231)"><rect x="0.5" y="0.5" rx="2" width="15" height="15" fill="#89e051" stroke-width="1" stroke="#000000"/><text transform="scale(0.095)" x="263" y="132" textLength="982" lengthAdjust="spacingAndGlyphs">Shell 1.22%</text><rect x="228.5" y="0.5" rx="2" width="15" height="15" fill="#427819" stroke-width="1" stroke="#000000"/><text transform="scale(0.095)" x="2663" y="132" textLength="1272" lengthAdjust="spacingAndGlyphs">Makefile 0.28%</text></g><g transform="translate(15, 252)"><rect x="0.5" y="0.5" rx="2" width="15" height="15" fill="#8f14e9" stroke-width="1" stroke="#000000"/><text transform="scale(0.095)" x="263" y="132" textLength="1034" lengthAdjust="spacingAndGlyphs">Metal 0.17%</text><rect x="228.5" y="0.5" rx="2" width="15" height="15" fill="#5686a5" stroke-width="1" stroke="#000000"/><text transform="scale(0.095)" x="2663" y="132" textLength="993" lengthAdjust="spacingAndGlyphs">GLSL 0.13%</text></g><g transform="translate(15, 273)"><rect x="0.5" y="0.5" rx="2" width="15" height="15" fill="#C1F12E" stroke-width="1" stroke="#000000"/><text transform="scale(0.095)" x="263" y="132" textLength="1304" lengthAdjust="spacingAndGlyphs">Batchfile 0.08%</text><rect x="228.5" y="0.5" rx="2" width="15" height="15" fill="#e34c26" stroke-width="1" stroke="#000000"/><text transform="scale(0.095)" x="2663" y="132" textLength="1036" lengthAdjust="spacingAndGlyphs">HTML 0.06%</text></g><g transform="translate(15, 294)"><rect x="0.5" y="0.5" rx="2" width="15" height="15" fill="#701516" stroke-width="1" stroke="#000000"/><text transform="scale(0.095)" x="263" y="132" textLength="999" lengthAdjust="spacingAndGlyphs">Ruby 0.03%</text></g></g></g></svg>