<svg width="457" height="354" viewBox="0 0 457 354" xmlns="http://www.w3.org/2000/svg" lang="en" xml:lang="en"><rect x="2" y="2" stroke-width="4" rx="0" width="453" height="350" stroke="#ffffff" fill="#ffffff"/><g font-weight="600" font-size="110pt" font-family="Verdana,Geneva,DejaVu Sans,sans-serif" text-rendering="geometricPrecision"><text x="1828" y="301" lengthAdjust="spacingAndGlyphs" textLength="52" transform="scale(0.123)" fill="#0969da">.</text><g transform="translate(0, 60)" fill="#24292f"><g transform="translate(15, 0)"><g transform="scale(0.095)"><text x="0" y="132" textLength="3652" lengthAdjust="spacingAndGlyphs">Language Distribution in Public Repositories</text></g></g><g transform="translate(243, 21)"><circle cx="92" cy="92" r="92" fill="#000000"/></g><g transform="translate(244, 22)"><path fill-rule="evenodd" fill="#f34b7d" d="M 0.0,91.00000000000001 A 91 91 0 0 1 180.27644989445622 73.37287617781492 L 91,91 Z"/><path fill-rule="evenodd" fill="#438eff" d="M 180.27644989445622,73.37287617781492 A 91 91 0 0 1 163.84748489392007 145.5366293845713 L 91,91 Z"/><path fill-rule="evenodd" fill="#555555" d="M 163.84748489392007,145.5366293845713 A 91 91 0 0 1 133.4984071466832 171.46667254208256 L 91,91 Z"/><path fill-rule="evenodd" fill="#dea584" d="M 133.4984071466832,171.46667254208256 A 91 91 0 0 1 97.70648603651435 181.7525374027748 L 91,91 Z"/><path fill-rule="evenodd" fill="#b07219" d="M 97.70648603651435,181.7525374027748 A 91 91 0 0 1 67.5698451542757 178.9319500745058 L 91,91 Z"/><path fill-rule="evenodd" fill="#A97BFF" d="M 67.5698451542757,178.9319500745058 A 91 91 0 0 1 44.55692375806746 169.25625003273566 L 91,91 Z"/><path fill-rule="evenodd" fill="#00ADD8" d="M 44.55692375806746,169.25625003273566 A 91 91 0 0 1 25.484066042192453 154.1558579835331 L 91,91 Z"/><path fill-rule="evenodd" fill="#3178c6" d="M 25.484066042192453,154.1558579835331 A 91 91 0 0 1 12.965905393719154 137.81538293101968 L 91,91 Z"/><path fill-rule="evenodd" fill="#000080" d="M 12.965905393719154,137.81538293101968 A 91 91 0 0 1 6.791186943295955 125.49457643718895 L 91,91 Z"/><path fill-rule="evenodd" fill="#f1e05a" d="M 6.791186943295955,125.49457643718895 A 91 91 0 0 1 2.6457086250497355 112.78346151626019 L 91,91 Z"/><path fill-rule="evenodd" fill="#DA3434" d="M 2.6457086250497355,112.78346151626019 A 91 91 0 0 1 0.5894998239155029 101.34125030691283 L 91,91 Z"/><path fill-rule="evenodd" fill="#6866fb" d="M 0.5894998239155029,101.34125030691283 A 91 91 0 0 1 0.014890565705883319 92.6461656142451 L 91,91 Z"/><path fill-rule="evenodd" fill="#8f14e9" d="M 0.014890565705883319,92.6461656142451 A 91 91 0 0 1 0.004278737312787939 91.88244653284731 L 91,91 Z"/><path fill-rule="evenodd" fill="#959da5" d="M 0.004278737312787939,91.88244653284731 A 91 91 0 0 1 0.0 91.00000000000003 L 91,91 Z"/></g><g transform="translate(15, 21)"><rect x="0.5" y="0.5" rx="2" width="15" height="15" fill="#f34b7d" stroke-width="1" stroke="#000000"/><text transform="scale(0.095)" x="263" y="132" textLength="1074" lengthAdjust="spacingAndGlyphs">C++ 46.90%</text></g><g transform="translate(15, 42)"><rect x="0.5" y="0.5" rx="2" width="15" height="15" fill="#438eff" stroke-width="1" stroke="#000000"/><text transform="scale(0.095)" x="263" y="132" textLength="1642" lengthAdjust="spacingAndGlyphs">Objective-C 13.33%</text></g><g transform="translate(15, 63)"><rect x="0.5" y="0.5" rx="2" width="15" height="15" fill="#555555" stroke-width="1" stroke="#000000"/><text transform="scale(0.095)" x="263" y="132" textLength="693" lengthAdjust="spacingAndGlyphs">C 7.04%</text></g><g transform="translate(15, 84)"><rect x="0.5" y="0.5" rx="2" width="15" height="15" fill="#dea584" stroke-width="1" stroke="#000000"/><text transform="scale(0.095)" x="263" y="132" textLength="946" lengthAdjust="spacingAndGlyphs">Rust 6.56%</text></g><g transform="translate(15, 105)"><rect x="0.5" y="0.5" rx="2" width="15" height="15" fill="#b07219" stroke-width="1" stroke="#000000"/><text transform="scale(0.095)" x="263" y="132" textLength="933" lengthAdjust="spacingAndGlyphs">Java 5.32%</text></g><g transform="translate(15, 126)"><rect x="0.5" y="0.5" rx="2" width="15" height="15" fill="#A97BFF" stroke-width="1" stroke="#000000"/><text transform="scale(0.095)" x="263" y="132" textLength="1048" lengthAdjust="spacingAndGlyphs">Kotlin 4.38%</text></g><g transform="translate(15, 147)"><rect x="0.5" y="0.5" rx="2" width="15" height="15" fill="#00ADD8" stroke-width="1" stroke="#000000"/><text transform="scale(0.095)" x="263" y="132" textLength="806" lengthAdjust="spacingAndGlyphs">Go 4.27%</text></g><g transform="translate(15, 168)"><rect x="0.5" y="0.5" rx="2" width="15" height="15" fill="#3178c6" stroke-width="1" stroke="#000000"/><text transform="scale(0.095)" x="263" y="132" textLength="1462" lengthAdjust="spacingAndGlyphs">TypeScript 3.61%</text></g><g transform="translate(15, 189)"><rect x="0.5" y="0.5" rx="2" width="15" height="15" fill="#000080" stroke-width="1" stroke="#000000"/><text transform="scale(0.095)" x="263" y="132" textLength="874" lengthAdjust="spacingAndGlyphs">Lua 2.41%</text></g><g transform="translate(15, 210)"><rect x="0.5" y="0.5" rx="2" width="15" height="15" fill="#f1e05a" stroke-width="1" stroke="#000000"/><text transform="scale(0.095)" x="263" y="132" textLength="1412" lengthAdjust="spacingAndGlyphs">JavaScript 2.34%</text><rect x="228.5" y="0.5" rx="2" width="15" height="15" fill="#DA3434" stroke-width="1" stroke="#000000"/><text transform="scale(0.095)" x="2663" y="132" textLength="1134" lengthAdjust="spacingAndGlyphs">CMake 2.03%</text></g><g transform="translate(15, 231)"><rect x="0.5" y="0.5" rx="2" width="15" height="15" fill="#6866fb" stroke-width="1" stroke="#000000"/><text transform="scale(0.095)" x="263" y="132" textLength="1814" lengthAdjust="spacingAndGlyphs">Objective-C++ 1.52%</text><rect x="228.5" y="0.5" rx="2" width="15" height="15" fill="#8f14e9" stroke-width="1" stroke="#000000"/><text transform="scale(0.095)" x="2663" y="132" textLength="1034" lengthAdjust="spacingAndGlyphs">Metal 0.13%</text></g><g transform="translate(15, 252)"><rect x="0.5" y="0.5" rx="2" width="15" height="15" fill="#959da5" stroke-width="1" stroke="#000000"/><text transform="scale(0.095)" x="263" y="132" textLength="1047" lengthAdjust="spacingAndGlyphs">Other 0.15%</text></g></g></g></svg>