<svg width="457" height="396" viewBox="0 0 457 396" xmlns="http://www.w3.org/2000/svg" lang="en" xml:lang="en"><rect x="2" y="2" stroke-width="4" rx="0" width="453" height="392" stroke="#ffffff" fill="#ffffff"/><g font-weight="600" font-size="110pt" font-family="Verdana,Geneva,DejaVu Sans,sans-serif" text-rendering="geometricPrecision"><text x="895" y="301" lengthAdjust="spacingAndGlyphs" textLength="1917" transform="scale(0.123)" fill="#0969da">Rinc's GitHub Statistics</text><g transform="translate(0, 60)" fill="#24292f"><g transform="translate(15, 0)"><g transform="scale(0.095)"><text x="0" y="132" textLength="3652" lengthAdjust="spacingAndGlyphs">Language Distribution in Public Repositories</text></g></g><g transform="translate(243, 21)"><circle cx="92" cy="92" r="92" fill="#000000"/></g><g transform="translate(244, 22)"><path fill-rule="evenodd" fill="#f34b7d" d="M 0.0,91.00000000000001 A 91 91 0 0 1 167.0178496864441 40.97713993533366 L 91,91 Z"/><path fill-rule="evenodd" fill="#438eff" d="M 167.0178496864441,40.97713993533366 A 91 91 0 0 1 175.4886041519289 124.80348751916969 L 91,91 Z"/><path fill-rule="evenodd" fill="#555555" d="M 175.4886041519289,124.80348751916969 A 91 91 0 0 1 147.30974746447276 162.48574921260393 L 91,91 Z"/><path fill-rule="evenodd" fill="#dea584" d="M 147.30974746447276,162.48574921260393 A 91 91 0 0 1 110.67477067532695 179.84764149302612 L 91,91 Z"/><path fill-rule="evenodd" fill="#b07219" d="M 110.67477067532695,179.84764149302612 A 91 91 0 0 1 75.86767592911406 180.7330082423056 L 91,91 Z"/><path fill-rule="evenodd" fill="#00ADD8" d="M 75.86767592911406,180.7330082423056 A 91 91 0 0 1 49.30348467305915 171.88510746478727 L 91,91 Z"/><path fill-rule="evenodd" fill="#A97BFF" d="M 49.30348467305915,171.88510746478727 A 91 91 0 0 1 27.73081343041933 156.40649838375077 L 91,91 Z"/><path fill-rule="evenodd" fill="#000080" d="M 27.73081343041933,156.40649838375077 A 91 91 0 0 1 14.715255694673928 140.6148948025794 L 91,91 Z"/><path fill-rule="evenodd" fill="#f1e05a" d="M 14.715255694673928,140.6148948025794 A 91 91 0 0 1 7.781910065168759 127.82050390201552 L 91,91 Z"/><path fill-rule="evenodd" fill="#3178c6" d="M 7.781910065168759,127.82050390201552 A 91 91 0 0 1 4.104065139820662 118.02029801418685 L 91,91 Z"/><path fill-rule="evenodd" fill="#6866fb" d="M 4.104065139820662,118.02029801418685 A 91 91 0 0 1 1.9401292776038588 109.69062403747094 L 91,91 Z"/><path fill-rule="evenodd" fill="#DA3434" d="M 1.9401292776038588,109.69062403747094 A 91 91 0 0 1 0.5994886284316294 101.42820903889722 L 91,91 Z"/><path fill-rule="evenodd" fill="#89e051" d="M 0.5994886284316294,101.42820903889722 A 91 91 0 0 1 0.0860491747222909 94.95645615911342 L 91,91 Z"/><path fill-rule="evenodd" fill="#427819" d="M 0.0860491747222909,94.95645615911342 A 91 91 0 0 1 0.033364392917576424 93.46398180356222 L 91,91 Z"/><path fill-rule="evenodd" fill="#8f14e9" d="M 0.033364392917576424,93.46398180356222 A 91 91 0 0 1 0.013791429237898 92.58425058553739 L 91,91 Z"/><path fill-rule="evenodd" fill="#5686a5" d="M 0.013791429237898,92.58425058553739 A 91 91 0 0 1 0.004335357476591639 91.88826587540849 L 91,91 Z"/><path fill-rule="evenodd" fill="#C1F12E" d="M 0.004335357476591639,91.88826587540849 A 91 91 0 0 1 0.001230767991287962 91.47328454403714 L 91,91 Z"/><path fill-rule="evenodd" fill="#e34c26" d="M 0.001230767991287962,91.47328454403714 A 91 91 0 0 1 0.0001246027970154273 91.15059114691827 L 91,91 Z"/><path fill-rule="evenodd" fill="#701516" d="M 0.0001246027970154273,91.15059114691827 A 91 91 0 0 1 0.0 91.00000000000003 L 91,91 Z"/></g><g transform="translate(15, 21)"><rect x="0.5" y="0.5" rx="2" width="15" height="15" fill="#f34b7d" stroke-width="1" stroke="#000000"/><text transform="scale(0.095)" x="263" y="132" textLength="1074" lengthAdjust="spacingAndGlyphs">C++ 40.74%</text></g><g transform="translate(15, 42)"><rect x="0.5" y="0.5" rx="2" width="15" height="15" fill="#438eff" stroke-width="1" stroke="#000000"/><text transform="scale(0.095)" x="263" y="132" textLength="1642" lengthAdjust="spacingAndGlyphs">Objective-C 15.32%</text></g><g transform="translate(15, 63)"><rect x="0.5" y="0.5" rx="2" width="15" height="15" fill="#555555" stroke-width="1" stroke="#000000"/><text transform="scale(0.095)" x="263" y="132" textLength="693" lengthAdjust="spacingAndGlyphs">C 8.32%</text></g><g transform="translate(15, 84)"><rect x="0.5" y="0.5" rx="2" width="15" height="15" fill="#dea584" stroke-width="1" stroke="#000000"/><text transform="scale(0.095)" x="263" y="132" textLength="946" lengthAdjust="spacingAndGlyphs">Rust 7.15%</text></g><g transform="translate(15, 105)"><rect x="0.5" y="0.5" rx="2" width="15" height="15" fill="#b07219" stroke-width="1" stroke="#000000"/><text transform="scale(0.095)" x="263" y="132" textLength="933" lengthAdjust="spacingAndGlyphs">Java 6.13%</text></g><g transform="translate(15, 126)"><rect x="0.5" y="0.5" rx="2" width="15" height="15" fill="#00ADD8" stroke-width="1" stroke="#000000"/><text transform="scale(0.095)" x="263" y="132" textLength="806" lengthAdjust="spacingAndGlyphs">Go 4.92%</text></g><g transform="translate(15, 147)"><rect x="0.5" y="0.5" rx="2" width="15" height="15" fill="#A97BFF" stroke-width="1" stroke="#000000"/><text transform="scale(0.095)" x="263" y="132" textLength="1048" lengthAdjust="spacingAndGlyphs">Kotlin 4.66%</text></g><g transform="translate(15, 168)"><rect x="0.5" y="0.5" rx="2" width="15" height="15" fill="#000080" stroke-width="1" stroke="#000000"/><text transform="scale(0.095)" x="263" y="132" textLength="874" lengthAdjust="spacingAndGlyphs">Lua 3.59%</text></g><g transform="translate(15, 189)"><rect x="0.5" y="0.5" rx="2" width="15" height="15" fill="#f1e05a" stroke-width="1" stroke="#000000"/><text transform="scale(0.095)" x="263" y="132" textLength="1412" lengthAdjust="spacingAndGlyphs">JavaScript 2.55%</text></g><g transform="translate(15, 210)"><rect x="0.5" y="0.5" rx="2" width="15" height="15" fill="#3178c6" stroke-width="1" stroke="#000000"/><text transform="scale(0.095)" x="263" y="132" textLength="1462" lengthAdjust="spacingAndGlyphs">TypeScript 1.83%</text><rect x="228.5" y="0.5" rx="2" width="15" height="15" fill="#6866fb" stroke-width="1" stroke="#000000"/><text transform="scale(0.095)" x="2663" y="132" textLength="1814" lengthAdjust="spacingAndGlyphs">Objective-C++ 1.51%</text></g><g transform="translate(15, 231)"><rect x="0.5" y="0.5" rx="2" width="15" height="15" fill="#DA3434" stroke-width="1" stroke="#000000"/><text transform="scale(0.095)" x="263" y="132" textLength="1134" lengthAdjust="spacingAndGlyphs">CMake 1.46%</text><rect x="228.5" y="0.5" rx="2" width="15" height="15" fill="#89e051" stroke-width="1" stroke="#000000"/><text transform="scale(0.095)" x="2663" y="132" textLength="982" lengthAdjust="spacingAndGlyphs">Shell 1.14%</text></g><g transform="translate(15, 252)"><rect x="0.5" y="0.5" rx="2" width="15" height="15" fill="#427819" stroke-width="1" stroke="#000000"/><text transform="scale(0.095)" x="263" y="132" textLength="1272" lengthAdjust="spacingAndGlyphs">Makefile 0.26%</text><rect x="228.5" y="0.5" rx="2" width="15" height="15" fill="#8f14e9" stroke-width="1" stroke="#000000"/><text transform="scale(0.095)" x="2663" y="132" textLength="1034" lengthAdjust="spacingAndGlyphs">Metal 0.15%</text></g><g transform="translate(15, 273)"><rect x="0.5" y="0.5" rx="2" width="15" height="15" fill="#5686a5" stroke-width="1" stroke="#000000"/><text transform="scale(0.095)" x="263" y="132" textLength="993" lengthAdjust="spacingAndGlyphs">GLSL 0.12%</text><rect x="228.5" y="0.5" rx="2" width="15" height="15" fill="#C1F12E" stroke-width="1" stroke="#000000"/><text transform="scale(0.095)" x="2663" y="132" textLength="1304" lengthAdjust="spacingAndGlyphs">Batchfile 0.07%</text></g><g transform="translate(15, 294)"><rect x="0.5" y="0.5" rx="2" width="15" height="15" fill="#e34c26" stroke-width="1" stroke="#000000"/><text transform="scale(0.095)" x="263" y="132" textLength="1036" lengthAdjust="spacingAndGlyphs">HTML 0.06%</text><rect x="228.5" y="0.5" rx="2" width="15" height="15" fill="#701516" stroke-width="1" stroke="#000000"/><text transform="scale(0.095)" x="2663" y="132" textLength="999" lengthAdjust="spacingAndGlyphs">Ruby 0.03%</text></g></g></g></svg>