<svg width="457" height="396" viewBox="0 0 457 396" xmlns="http://www.w3.org/2000/svg" lang="en" xml:lang="en"><rect x="2" y="2" stroke-width="4" rx="0" width="453" height="392" stroke="#ffffff" fill="#ffffff"/><g font-weight="600" font-size="110pt" font-family="Verdana,Geneva,DejaVu Sans,sans-serif" text-rendering="geometricPrecision"><text x="895" y="301" lengthAdjust="spacingAndGlyphs" textLength="1917" transform="scale(0.123)" fill="#0969da">Rinc's GitHub Statistics</text><g transform="translate(0, 60)" fill="#24292f"><g transform="translate(15, 0)"><g transform="scale(0.095)"><text x="0" y="132" textLength="3652" lengthAdjust="spacingAndGlyphs">Language Distribution in Public Repositories</text></g></g><g transform="translate(243, 21)"><circle cx="92" cy="92" r="92" fill="#000000"/></g><g transform="translate(244, 22)"><path fill-rule="evenodd" fill="#f34b7d" d="M 0.0,91.00000000000001 A 91 91 0 0 1 170.6866986709457 47.05651294075647 L 91,91 Z"/><path fill-rule="evenodd" fill="#438eff" d="M 170.6866986709457,47.05651294075647 A 91 91 0 0 1 171.3782256573209 133.66545253692735 L 91,91 Z"/><path fill-rule="evenodd" fill="#555555" d="M 171.3782256573209,133.66545253692735 A 91 91 0 0 1 138.08654998157462 168.87076993861479 L 91,91 Z"/><path fill-rule="evenodd" fill="#b07219" d="M 138.08654998157462,168.87076993861479 A 91 91 0 0 1 104.33952449202994 181.01698221072806 L 91,91 Z"/><path fill-rule="evenodd" fill="#00ADD8" d="M 104.33952449202994,181.01698221072806 A 91 91 0 0 1 75.49600683679972 180.66953884121097 L 91,91 Z"/><path fill-rule="evenodd" fill="#A97BFF" d="M 75.49600683679972,180.66953884121097 A 91 91 0 0 1 49.54784374844441 172.0106088243794 L 91,91 Z"/><path fill-rule="evenodd" fill="#dea584" d="M 49.54784374844441,172.0106088243794 A 91 91 0 0 1 29.34911674544889 157.9340615377082 L 91,91 Z"/><path fill-rule="evenodd" fill="#000080" d="M 29.34911674544889,157.9340615377082 A 91 91 0 0 1 15.599415431087891 141.94852153562783 L 91,91 Z"/><path fill-rule="evenodd" fill="#f1e05a" d="M 15.599415431087891,141.94852153562783 A 91 91 0 0 1 8.256312664739838 128.8745588246874 L 91,91 Z"/><path fill-rule="evenodd" fill="#3178c6" d="M 8.256312664739838,128.8745588246874 A 91 91 0 0 1 4.356123606548536 118.81795613477568 L 91,91 Z"/><path fill-rule="evenodd" fill="#6866fb" d="M 4.356123606548536,118.81795613477568 A 91 91 0 0 1 2.0597980048094797 110.25202506373572 L 91,91 Z"/><path fill-rule="evenodd" fill="#DA3434" d="M 2.0597980048094797,110.25202506373572 A 91 91 0 0 1 0.6365628803477676 101.74473042577876 L 91,91 Z"/><path fill-rule="evenodd" fill="#89e051" d="M 0.6365628803477676,101.74473042577876 A 91 91 0 0 1 0.09137605295417472 95.07701999683692 L 91,91 Z"/><path fill-rule="evenodd" fill="#427819" d="M 0.09137605295417472,95.07701999683692 A 91 91 0 0 1 0.03543002896644509 93.53909629296334 L 91,91 Z"/><path fill-rule="evenodd" fill="#8f14e9" d="M 0.03543002896644509,93.53909629296334 A 91 91 0 0 1 0.014645308345436092 92.63255371544453 L 91,91 Z"/><path fill-rule="evenodd" fill="#5686a5" d="M 0.014645308345436092,92.63255371544453 A 91 91 0 0 1 0.004603780654150569 91.9153506892211 L 91,91 Z"/><path fill-rule="evenodd" fill="#C1F12E" d="M 0.004603780654150569,91.9153506892211 A 91 91 0 0 1 0.0013069713151594442 91.48771617892463 L 91,91 Z"/><path fill-rule="evenodd" fill="#e34c26" d="M 0.0013069713151594442,91.48771617892463 A 91 91 0 0 1 0.0001323176285552563 91.15518308828365 L 91,91 Z"/><path fill-rule="evenodd" fill="#701516" d="M 0.0001323176285552563,91.15518308828365 A 91 91 0 0 1 0.0 91.00000000000003 L 91,91 Z"/></g><g transform="translate(15, 21)"><rect x="0.5" y="0.5" rx="2" width="15" height="15" fill="#f34b7d" stroke-width="1" stroke="#000000"/><text transform="scale(0.095)" x="263" y="132" textLength="1074" lengthAdjust="spacingAndGlyphs">C++ 41.98%</text></g><g transform="translate(15, 42)"><rect x="0.5" y="0.5" rx="2" width="15" height="15" fill="#438eff" stroke-width="1" stroke="#000000"/><text transform="scale(0.095)" x="263" y="132" textLength="1642" lengthAdjust="spacingAndGlyphs">Objective-C 15.79%</text></g><g transform="translate(15, 63)"><rect x="0.5" y="0.5" rx="2" width="15" height="15" fill="#555555" stroke-width="1" stroke="#000000"/><text transform="scale(0.095)" x="263" y="132" textLength="693" lengthAdjust="spacingAndGlyphs">C 8.58%</text></g><g transform="translate(15, 84)"><rect x="0.5" y="0.5" rx="2" width="15" height="15" fill="#b07219" stroke-width="1" stroke="#000000"/><text transform="scale(0.095)" x="263" y="132" textLength="933" lengthAdjust="spacingAndGlyphs">Java 6.31%</text></g><g transform="translate(15, 105)"><rect x="0.5" y="0.5" rx="2" width="15" height="15" fill="#00ADD8" stroke-width="1" stroke="#000000"/><text transform="scale(0.095)" x="263" y="132" textLength="806" lengthAdjust="spacingAndGlyphs">Go 5.07%</text></g><g transform="translate(15, 126)"><rect x="0.5" y="0.5" rx="2" width="15" height="15" fill="#A97BFF" stroke-width="1" stroke="#000000"/><text transform="scale(0.095)" x="263" y="132" textLength="1048" lengthAdjust="spacingAndGlyphs">Kotlin 4.80%</text></g><g transform="translate(15, 147)"><rect x="0.5" y="0.5" rx="2" width="15" height="15" fill="#dea584" stroke-width="1" stroke="#000000"/><text transform="scale(0.095)" x="263" y="132" textLength="946" lengthAdjust="spacingAndGlyphs">Rust 4.32%</text></g><g transform="translate(15, 168)"><rect x="0.5" y="0.5" rx="2" width="15" height="15" fill="#000080" stroke-width="1" stroke="#000000"/><text transform="scale(0.095)" x="263" y="132" textLength="874" lengthAdjust="spacingAndGlyphs">Lua 3.70%</text></g><g transform="translate(15, 189)"><rect x="0.5" y="0.5" rx="2" width="15" height="15" fill="#f1e05a" stroke-width="1" stroke="#000000"/><text transform="scale(0.095)" x="263" y="132" textLength="1412" lengthAdjust="spacingAndGlyphs">JavaScript 2.63%</text></g><g transform="translate(15, 210)"><rect x="0.5" y="0.5" rx="2" width="15" height="15" fill="#3178c6" stroke-width="1" stroke="#000000"/><text transform="scale(0.095)" x="263" y="132" textLength="1462" lengthAdjust="spacingAndGlyphs">TypeScript 1.89%</text><rect x="228.5" y="0.5" rx="2" width="15" height="15" fill="#6866fb" stroke-width="1" stroke="#000000"/><text transform="scale(0.095)" x="2663" y="132" textLength="1814" lengthAdjust="spacingAndGlyphs">Objective-C++ 1.55%</text></g><g transform="translate(15, 231)"><rect x="0.5" y="0.5" rx="2" width="15" height="15" fill="#DA3434" stroke-width="1" stroke="#000000"/><text transform="scale(0.095)" x="263" y="132" textLength="1134" lengthAdjust="spacingAndGlyphs">CMake 1.51%</text><rect x="228.5" y="0.5" rx="2" width="15" height="15" fill="#89e051" stroke-width="1" stroke="#000000"/><text transform="scale(0.095)" x="2663" y="132" textLength="982" lengthAdjust="spacingAndGlyphs">Shell 1.17%</text></g><g transform="translate(15, 252)"><rect x="0.5" y="0.5" rx="2" width="15" height="15" fill="#427819" stroke-width="1" stroke="#000000"/><text transform="scale(0.095)" x="263" y="132" textLength="1272" lengthAdjust="spacingAndGlyphs">Makefile 0.27%</text><rect x="228.5" y="0.5" rx="2" width="15" height="15" fill="#8f14e9" stroke-width="1" stroke="#000000"/><text transform="scale(0.095)" x="2663" y="132" textLength="1034" lengthAdjust="spacingAndGlyphs">Metal 0.16%</text></g><g transform="translate(15, 273)"><rect x="0.5" y="0.5" rx="2" width="15" height="15" fill="#5686a5" stroke-width="1" stroke="#000000"/><text transform="scale(0.095)" x="263" y="132" textLength="993" lengthAdjust="spacingAndGlyphs">GLSL 0.13%</text><rect x="228.5" y="0.5" rx="2" width="15" height="15" fill="#C1F12E" stroke-width="1" stroke="#000000"/><text transform="scale(0.095)" x="2663" y="132" textLength="1304" lengthAdjust="spacingAndGlyphs">Batchfile 0.07%</text></g><g transform="translate(15, 294)"><rect x="0.5" y="0.5" rx="2" width="15" height="15" fill="#e34c26" stroke-width="1" stroke="#000000"/><text transform="scale(0.095)" x="263" y="132" textLength="1036" lengthAdjust="spacingAndGlyphs">HTML 0.06%</text><rect x="228.5" y="0.5" rx="2" width="15" height="15" fill="#701516" stroke-width="1" stroke="#000000"/><text transform="scale(0.095)" x="2663" y="132" textLength="999" lengthAdjust="spacingAndGlyphs">Ruby 0.03%</text></g></g></g></svg>