<svg width="457" height="354" viewBox="0 0 457 354" xmlns="http://www.w3.org/2000/svg" lang="en" xml:lang="en"><rect x="2" y="2" stroke-width="4" rx="0" width="453" height="350" stroke="#ffffff" fill="#ffffff"/><g font-weight="600" font-size="110pt" font-family="Verdana,Geneva,DejaVu Sans,sans-serif" text-rendering="geometricPrecision"><text x="1828" y="301" lengthAdjust="spacingAndGlyphs" textLength="52" transform="scale(0.123)" fill="#0969da">.</text><g transform="translate(0, 60)" fill="#24292f"><g transform="translate(15, 0)"><g transform="scale(0.095)"><text x="0" y="132" textLength="3652" lengthAdjust="spacingAndGlyphs">Language Distribution in Public Repositories</text></g></g><g transform="translate(243, 21)"><circle cx="92" cy="92" r="92" fill="#000000"/></g><g transform="translate(244, 22)"><path fill-rule="evenodd" fill="#f34b7d" d="M 0.0,91.00000000000001 A 91 91 0 0 1 179.83994732062953 71.29051598677003 L 91,91 Z"/><path fill-rule="evenodd" fill="#438eff" d="M 179.83994732062953,71.29051598677003 A 91 91 0 0 1 165.45196360198813 143.32499513433552 L 91,91 Z"/><path fill-rule="evenodd" fill="#555555" d="M 165.45196360198813,143.32499513433552 A 91 91 0 0 1 136.1725354491051 169.99646853562092 L 91,91 Z"/><path fill-rule="evenodd" fill="#dea584" d="M 136.1725354491051,169.99646853562092 A 91 91 0 0 1 101.04145347010885 181.4442878915393 L 91,91 Z"/><path fill-rule="evenodd" fill="#b07219" d="M 101.04145347010885,181.4442878915393 A 91 91 0 0 1 71.05678787229034 179.78777106127382 L 91,91 Z"/><path fill-rule="evenodd" fill="#3178c6" d="M 71.05678787229034,179.78777106127382 A 91 91 0 0 1 47.681422688843874 171.02812542936007 L 91,91 Z"/><path fill-rule="evenodd" fill="#A97BFF" d="M 47.681422688843874,171.02812542936007 A 91 91 0 0 1 27.707289786546433 156.38373523924577 L 91,91 Z"/><path fill-rule="evenodd" fill="#00ADD8" d="M 27.707289786546433,156.38373523924577 A 91 91 0 0 1 12.745449775195468 137.44594028667677 L 91,91 Z"/><path fill-rule="evenodd" fill="#000080" d="M 12.745449775195468,137.44594028667677 A 91 91 0 0 1 6.67012177005806 125.19753847462073 L 91,91 Z"/><path fill-rule="evenodd" fill="#f1e05a" d="M 6.67012177005806,125.19753847462073 A 91 91 0 0 1 2.5945886721611515 112.57506078683495 L 91,91 Z"/><path fill-rule="evenodd" fill="#DA3434" d="M 2.5945886721611515,112.57506078683495 A 91 91 0 0 1 0.5801917960831986 101.25954601173461 L 91,91 Z"/><path fill-rule="evenodd" fill="#6866fb" d="M 0.5801917960831986,101.25954601173461 A 91 91 0 0 1 0.01465520396665454 92.63310512427292 L 91,91 Z"/><path fill-rule="evenodd" fill="#8f14e9" d="M 0.01465520396665454,92.63310512427292 A 91 91 0 0 1 0.0042111058782126065 91.87544476491841 L 91,91 Z"/><path fill-rule="evenodd" fill="#959da5" d="M 0.0042111058782126065,91.87544476491841 A 91 91 0 0 1 0.0 91.00000000000003 L 91,91 Z"/></g><g transform="translate(15, 21)"><rect x="0.5" y="0.5" rx="2" width="15" height="15" fill="#f34b7d" stroke-width="1" stroke="#000000"/><text transform="scale(0.095)" x="263" y="132" textLength="1074" lengthAdjust="spacingAndGlyphs">C++ 46.53%</text></g><g transform="translate(15, 42)"><rect x="0.5" y="0.5" rx="2" width="15" height="15" fill="#438eff" stroke-width="1" stroke="#000000"/><text transform="scale(0.095)" x="263" y="132" textLength="1642" lengthAdjust="spacingAndGlyphs">Objective-C 13.22%</text></g><g transform="translate(15, 63)"><rect x="0.5" y="0.5" rx="2" width="15" height="15" fill="#555555" stroke-width="1" stroke="#000000"/><text transform="scale(0.095)" x="263" y="132" textLength="693" lengthAdjust="spacingAndGlyphs">C 6.98%</text></g><g transform="translate(15, 84)"><rect x="0.5" y="0.5" rx="2" width="15" height="15" fill="#dea584" stroke-width="1" stroke="#000000"/><text transform="scale(0.095)" x="263" y="132" textLength="946" lengthAdjust="spacingAndGlyphs">Rust 6.51%</text></g><g transform="translate(15, 105)"><rect x="0.5" y="0.5" rx="2" width="15" height="15" fill="#b07219" stroke-width="1" stroke="#000000"/><text transform="scale(0.095)" x="263" y="132" textLength="933" lengthAdjust="spacingAndGlyphs">Java 5.28%</text></g><g transform="translate(15, 126)"><rect x="0.5" y="0.5" rx="2" width="15" height="15" fill="#3178c6" stroke-width="1" stroke="#000000"/><text transform="scale(0.095)" x="263" y="132" textLength="1462" lengthAdjust="spacingAndGlyphs">TypeScript 4.38%</text></g><g transform="translate(15, 147)"><rect x="0.5" y="0.5" rx="2" width="15" height="15" fill="#A97BFF" stroke-width="1" stroke="#000000"/><text transform="scale(0.095)" x="263" y="132" textLength="1048" lengthAdjust="spacingAndGlyphs">Kotlin 4.35%</text></g><g transform="translate(15, 168)"><rect x="0.5" y="0.5" rx="2" width="15" height="15" fill="#00ADD8" stroke-width="1" stroke="#000000"/><text transform="scale(0.095)" x="263" y="132" textLength="806" lengthAdjust="spacingAndGlyphs">Go 4.23%</text></g><g transform="translate(15, 189)"><rect x="0.5" y="0.5" rx="2" width="15" height="15" fill="#000080" stroke-width="1" stroke="#000000"/><text transform="scale(0.095)" x="263" y="132" textLength="874" lengthAdjust="spacingAndGlyphs">Lua 2.39%</text></g><g transform="translate(15, 210)"><rect x="0.5" y="0.5" rx="2" width="15" height="15" fill="#f1e05a" stroke-width="1" stroke="#000000"/><text transform="scale(0.095)" x="263" y="132" textLength="1412" lengthAdjust="spacingAndGlyphs">JavaScript 2.32%</text><rect x="228.5" y="0.5" rx="2" width="15" height="15" fill="#DA3434" stroke-width="1" stroke="#000000"/><text transform="scale(0.095)" x="2663" y="132" textLength="1134" lengthAdjust="spacingAndGlyphs">CMake 2.01%</text></g><g transform="translate(15, 231)"><rect x="0.5" y="0.5" rx="2" width="15" height="15" fill="#6866fb" stroke-width="1" stroke="#000000"/><text transform="scale(0.095)" x="263" y="132" textLength="1814" lengthAdjust="spacingAndGlyphs">Objective-C++ 1.51%</text><rect x="228.5" y="0.5" rx="2" width="15" height="15" fill="#8f14e9" stroke-width="1" stroke="#000000"/><text transform="scale(0.095)" x="2663" y="132" textLength="1034" lengthAdjust="spacingAndGlyphs">Metal 0.13%</text></g><g transform="translate(15, 252)"><rect x="0.5" y="0.5" rx="2" width="15" height="15" fill="#959da5" stroke-width="1" stroke="#000000"/><text transform="scale(0.095)" x="263" y="132" textLength="1047" lengthAdjust="spacingAndGlyphs">Other 0.15%</text></g></g></g></svg>