<svg width="457" height="354" viewBox="0 0 457 354" xmlns="http://www.w3.org/2000/svg" lang="en" xml:lang="en"><rect x="2" y="2" stroke-width="4" rx="0" width="453" height="350" stroke="#ffffff" fill="#ffffff"/><g font-weight="600" font-size="110pt" font-family="Verdana,Geneva,DejaVu Sans,sans-serif" text-rendering="geometricPrecision"><text x="1796" y="301" lengthAdjust="spacingAndGlyphs" textLength="116" transform="scale(0.123)" fill="#0969da">📊</text><g transform="translate(0, 60)" fill="#24292f"><g transform="translate(15, 0)"><g transform="scale(0.095)"><text x="0" y="132" textLength="3652" lengthAdjust="spacingAndGlyphs">Language Distribution in Public Repositories</text></g></g><g transform="translate(243, 21)"><circle cx="92" cy="92" r="92" fill="#000000"/></g><g transform="translate(244, 22)"><path fill-rule="evenodd" fill="#f34b7d" d="M 0.0,91.00000000000001 A 91 91 0 0 1 181.82707469919717 85.3926386253017 L 91,91 Z"/><path fill-rule="evenodd" fill="#438eff" d="M 181.82707469919717,85.3926386253017 A 91 91 0 0 1 153.40421502892772 157.23227269710253 L 91,91 Z"/><path fill-rule="evenodd" fill="#555555" d="M 153.40421502892772,157.23227269710253 A 91 91 0 0 1 117.17947187292542 178.15294173150272 L 91,91 Z"/><path fill-rule="evenodd" fill="#dea584" d="M 117.17947187292542,178.15294173150272 A 91 91 0 0 1 78.33346467795981 181.11414363425703 L 91,91 Z"/><path fill-rule="evenodd" fill="#b07219" d="M 78.33346467795981,181.11414363425703 A 91 91 0 0 1 48.21532804001349 171.3148295477015 L 91,91 Z"/><path fill-rule="evenodd" fill="#00ADD8" d="M 48.21532804001349,171.3148295477015 A 91 91 0 0 1 27.640884817112536 156.319388570635 L 91,91 Z"/><path fill-rule="evenodd" fill="#A97BFF" d="M 27.640884817112536,156.319388570635 A 91 91 0 0 1 12.623282804961775 137.2394874726029 L 91,91 Z"/><path fill-rule="evenodd" fill="#000080" d="M 12.623282804961775,137.2394874726029 A 91 91 0 0 1 6.301030149544218 124.27287944064328 L 91,91 Z"/><path fill-rule="evenodd" fill="#f1e05a" d="M 6.301030149544218,124.27287944064328 A 91 91 0 0 1 2.2008432941313174 110.89245506031307 L 91,91 Z"/><path fill-rule="evenodd" fill="#3178c6" d="M 2.2008432941313174,110.89245506031307 A 91 91 0 0 1 0.6420666875979606 101.79091689855433 L 91,91 Z"/><path fill-rule="evenodd" fill="#6866fb" d="M 0.6420666875979606,101.79091689855433 A 91 91 0 0 1 0.016318401514837433 92.72327675823469 L 91,91 Z"/><path fill-rule="evenodd" fill="#8f14e9" d="M 0.016318401514837433,92.72327675823469 A 91 91 0 0 1 0.0046890282719544985 91.92378631647644 L 91,91 Z"/><path fill-rule="evenodd" fill="#5686a5" d="M 0.0046890282719544985,91.92378631647644 A 91 91 0 0 1 0.00046633167119125574 91.29132824561191 L 91,91 Z"/><path fill-rule="evenodd" fill="#959da5" d="M 0.00046633167119125574,91.29132824561191 A 91 91 0 0 1 0.0 91.00000000000003 L 91,91 Z"/></g><g transform="translate(15, 21)"><rect x="0.5" y="0.5" rx="2" width="15" height="15" fill="#f34b7d" stroke-width="1" stroke="#000000"/><text transform="scale(0.095)" x="263" y="132" textLength="1074" lengthAdjust="spacingAndGlyphs">C++ 49.02%</text></g><g transform="translate(15, 42)"><rect x="0.5" y="0.5" rx="2" width="15" height="15" fill="#438eff" stroke-width="1" stroke="#000000"/><text transform="scale(0.095)" x="263" y="132" textLength="1642" lengthAdjust="spacingAndGlyphs">Objective-C 13.95%</text></g><g transform="translate(15, 63)"><rect x="0.5" y="0.5" rx="2" width="15" height="15" fill="#555555" stroke-width="1" stroke="#000000"/><text transform="scale(0.095)" x="263" y="132" textLength="693" lengthAdjust="spacingAndGlyphs">C 7.38%</text></g><g transform="translate(15, 84)"><rect x="0.5" y="0.5" rx="2" width="15" height="15" fill="#dea584" stroke-width="1" stroke="#000000"/><text transform="scale(0.095)" x="263" y="132" textLength="946" lengthAdjust="spacingAndGlyphs">Rust 6.87%</text></g><g transform="translate(15, 105)"><rect x="0.5" y="0.5" rx="2" width="15" height="15" fill="#b07219" stroke-width="1" stroke="#000000"/><text transform="scale(0.095)" x="263" y="132" textLength="933" lengthAdjust="spacingAndGlyphs">Java 5.57%</text></g><g transform="translate(15, 126)"><rect x="0.5" y="0.5" rx="2" width="15" height="15" fill="#00ADD8" stroke-width="1" stroke="#000000"/><text transform="scale(0.095)" x="263" y="132" textLength="806" lengthAdjust="spacingAndGlyphs">Go 4.47%</text></g><g transform="translate(15, 147)"><rect x="0.5" y="0.5" rx="2" width="15" height="15" fill="#A97BFF" stroke-width="1" stroke="#000000"/><text transform="scale(0.095)" x="263" y="132" textLength="1048" lengthAdjust="spacingAndGlyphs">Kotlin 4.26%</text></g><g transform="translate(15, 168)"><rect x="0.5" y="0.5" rx="2" width="15" height="15" fill="#000080" stroke-width="1" stroke="#000000"/><text transform="scale(0.095)" x="263" y="132" textLength="874" lengthAdjust="spacingAndGlyphs">Lua 2.53%</text></g><g transform="translate(15, 189)"><rect x="0.5" y="0.5" rx="2" width="15" height="15" fill="#f1e05a" stroke-width="1" stroke="#000000"/><text transform="scale(0.095)" x="263" y="132" textLength="1412" lengthAdjust="spacingAndGlyphs">JavaScript 2.45%</text></g><g transform="translate(15, 210)"><rect x="0.5" y="0.5" rx="2" width="15" height="15" fill="#3178c6" stroke-width="1" stroke="#000000"/><text transform="scale(0.095)" x="263" y="132" textLength="1462" lengthAdjust="spacingAndGlyphs">TypeScript 1.62%</text><rect x="228.5" y="0.5" rx="2" width="15" height="15" fill="#6866fb" stroke-width="1" stroke="#000000"/><text transform="scale(0.095)" x="2663" y="132" textLength="1814" lengthAdjust="spacingAndGlyphs">Objective-C++ 1.59%</text></g><g transform="translate(15, 231)"><rect x="0.5" y="0.5" rx="2" width="15" height="15" fill="#8f14e9" stroke-width="1" stroke="#000000"/><text transform="scale(0.095)" x="263" y="132" textLength="1034" lengthAdjust="spacingAndGlyphs">Metal 0.14%</text><rect x="228.5" y="0.5" rx="2" width="15" height="15" fill="#5686a5" stroke-width="1" stroke="#000000"/><text transform="scale(0.095)" x="2663" y="132" textLength="993" lengthAdjust="spacingAndGlyphs">GLSL 0.11%</text></g><g transform="translate(15, 252)"><rect x="0.5" y="0.5" rx="2" width="15" height="15" fill="#959da5" stroke-width="1" stroke="#000000"/><text transform="scale(0.095)" x="263" y="132" textLength="1047" lengthAdjust="spacingAndGlyphs">Other 0.05%</text></g></g></g></svg>