<svg width="457" height="396" viewBox="0 0 457 396" xmlns="http://www.w3.org/2000/svg" lang="en" xml:lang="en"><rect x="2" y="2" stroke-width="4" rx="0" width="453" height="392" stroke="#ffffff" fill="#ffffff"/><g font-weight="600" font-size="110pt" font-family="Verdana,Geneva,DejaVu Sans,sans-serif" text-rendering="geometricPrecision"><text x="895" y="301" lengthAdjust="spacingAndGlyphs" textLength="1917" transform="scale(0.123)" fill="#0969da">Rinc's GitHub Statistics</text><g transform="translate(0, 60)" fill="#24292f"><g transform="translate(15, 0)"><g transform="scale(0.095)"><text x="0" y="132" textLength="3652" lengthAdjust="spacingAndGlyphs">Language Distribution in Public Repositories</text></g></g><g transform="translate(243, 21)"><circle cx="92" cy="92" r="92" fill="#000000"/></g><g transform="translate(244, 22)"><path fill-rule="evenodd" fill="#f34b7d" d="M 0.0,91.00000000000001 A 91 91 0 0 1 175.83341154689947 58.071406265763706 L 91,91 Z"/><path fill-rule="evenodd" fill="#438eff" d="M 175.83341154689947,58.071406265763706 A 91 91 0 0 1 168.02276986454638 139.46125176254867 L 91,91 Z"/><path fill-rule="evenodd" fill="#555555" d="M 168.02276986454638,139.46125176254867 A 91 91 0 0 1 136.69039805610825 169.6980782832362 L 91,91 Z"/><path fill-rule="evenodd" fill="#dea584" d="M 136.69039805610825,169.6980782832362 A 91 91 0 0 1 97.14155026988355 181.79251819551263 L 91,91 Z"/><path fill-rule="evenodd" fill="#b07219" d="M 97.14155026988355,181.79251819551263 A 91 91 0 0 1 63.74332354572144 177.82208007567417 L 91,91 Z"/><path fill-rule="evenodd" fill="#00ADD8" d="M 63.74332354572144,177.82208007567417 A 91 91 0 0 1 39.432677536292935 165.97873867920194 L 91,91 Z"/><path fill-rule="evenodd" fill="#A97BFF" d="M 39.432677536292935,165.97873867920194 A 91 91 0 0 1 20.523832156572013 148.56830522175346 L 91,91 Z"/><path fill-rule="evenodd" fill="#000080" d="M 20.523832156572013,148.56830522175346 A 91 91 0 0 1 11.701785592070507 135.64071226710035 L 91,91 Z"/><path fill-rule="evenodd" fill="#f1e05a" d="M 11.701785592070507,135.64071226710035 A 91 91 0 0 1 5.669432829009665 122.6179427900853 L 91,91 Z"/><path fill-rule="evenodd" fill="#3178c6" d="M 5.669432829009665,122.6179427900853 A 91 91 0 0 1 2.705227306644815 113.02346737071024 L 91,91 Z"/><path fill-rule="evenodd" fill="#6866fb" d="M 2.705227306644815,113.02346737071024 A 91 91 0 0 1 0.9645759420419893 104.21447746616096 L 91,91 Z"/><path fill-rule="evenodd" fill="#89e051" d="M 0.9645759420419893,104.21447746616096 A 91 91 0 0 1 0.1312190215985396 95.8851451871265 L 91,91 Z"/><path fill-rule="evenodd" fill="#427819" d="M 0.1312190215985396,95.8851451871265 A 91 91 0 0 1 0.06522017186306073 94.444679608942 L 91,91 Z"/><path fill-rule="evenodd" fill="#8f14e9" d="M 0.06522017186306073,94.444679608942 A 91 91 0 0 1 0.037021964567728105 93.59550128596884 L 91,91 Z"/><path fill-rule="evenodd" fill="#C1F12E" d="M 0.037021964567728105,93.59550128596884 A 91 91 0 0 1 0.016792079399280624 92.7481065404423 L 91,91 Z"/><path fill-rule="evenodd" fill="#5686a5" d="M 0.016792079399280624,92.7481065404423 A 91 91 0 0 1 0.006362908801889944 92.0761082265899 L 91,91 Z"/><path fill-rule="evenodd" fill="#DA3434" d="M 0.006362908801889944,92.0761082265899 A 91 91 0 0 1 0.001147459892763436 91.45698619653051 L 91,91 Z"/><path fill-rule="evenodd" fill="#e34c26" d="M 0.001147459892763436,91.45698619653051 A 91 91 0 0 1 0.00011616867963937239 91.14540524818315 L 91,91 Z"/><path fill-rule="evenodd" fill="#701516" d="M 0.00011616867963937239,91.14540524818315 A 91 91 0 0 1 0.0 91.00000000000003 L 91,91 Z"/></g><g transform="translate(15, 21)"><rect x="0.5" y="0.5" rx="2" width="15" height="15" fill="#f34b7d" stroke-width="1" stroke="#000000"/><text transform="scale(0.095)" x="263" y="132" textLength="1074" lengthAdjust="spacingAndGlyphs">C++ 44.11%</text></g><g transform="translate(15, 42)"><rect x="0.5" y="0.5" rx="2" width="15" height="15" fill="#438eff" stroke-width="1" stroke="#000000"/><text transform="scale(0.095)" x="263" y="132" textLength="1642" lengthAdjust="spacingAndGlyphs">Objective-C 14.83%</text></g><g transform="translate(15, 63)"><rect x="0.5" y="0.5" rx="2" width="15" height="15" fill="#555555" stroke-width="1" stroke="#000000"/><text transform="scale(0.095)" x="263" y="132" textLength="693" lengthAdjust="spacingAndGlyphs">C 7.69%</text></g><g transform="translate(15, 84)"><rect x="0.5" y="0.5" rx="2" width="15" height="15" fill="#dea584" stroke-width="1" stroke="#000000"/><text transform="scale(0.095)" x="263" y="132" textLength="946" lengthAdjust="spacingAndGlyphs">Rust 7.30%</text></g><g transform="translate(15, 105)"><rect x="0.5" y="0.5" rx="2" width="15" height="15" fill="#b07219" stroke-width="1" stroke="#000000"/><text transform="scale(0.095)" x="263" y="132" textLength="933" lengthAdjust="spacingAndGlyphs">Java 5.92%</text></g><g transform="translate(15, 126)"><rect x="0.5" y="0.5" rx="2" width="15" height="15" fill="#00ADD8" stroke-width="1" stroke="#000000"/><text transform="scale(0.095)" x="263" y="132" textLength="806" lengthAdjust="spacingAndGlyphs">Go 4.75%</text></g><g transform="translate(15, 147)"><rect x="0.5" y="0.5" rx="2" width="15" height="15" fill="#A97BFF" stroke-width="1" stroke="#000000"/><text transform="scale(0.095)" x="263" y="132" textLength="1048" lengthAdjust="spacingAndGlyphs">Kotlin 4.51%</text></g><g transform="translate(15, 168)"><rect x="0.5" y="0.5" rx="2" width="15" height="15" fill="#000080" stroke-width="1" stroke="#000000"/><text transform="scale(0.095)" x="263" y="132" textLength="874" lengthAdjust="spacingAndGlyphs">Lua 2.74%</text></g><g transform="translate(15, 189)"><rect x="0.5" y="0.5" rx="2" width="15" height="15" fill="#f1e05a" stroke-width="1" stroke="#000000"/><text transform="scale(0.095)" x="263" y="132" textLength="1412" lengthAdjust="spacingAndGlyphs">JavaScript 2.51%</text></g><g transform="translate(15, 210)"><rect x="0.5" y="0.5" rx="2" width="15" height="15" fill="#3178c6" stroke-width="1" stroke="#000000"/><text transform="scale(0.095)" x="263" y="132" textLength="1462" lengthAdjust="spacingAndGlyphs">TypeScript 1.76%</text><rect x="228.5" y="0.5" rx="2" width="15" height="15" fill="#6866fb" stroke-width="1" stroke="#000000"/><text transform="scale(0.095)" x="2663" y="132" textLength="1814" lengthAdjust="spacingAndGlyphs">Objective-C++ 1.57%</text></g><g transform="translate(15, 231)"><rect x="0.5" y="0.5" rx="2" width="15" height="15" fill="#89e051" stroke-width="1" stroke="#000000"/><text transform="scale(0.095)" x="263" y="132" textLength="982" lengthAdjust="spacingAndGlyphs">Shell 1.46%</text><rect x="228.5" y="0.5" rx="2" width="15" height="15" fill="#427819" stroke-width="1" stroke="#000000"/><text transform="scale(0.095)" x="2663" y="132" textLength="1272" lengthAdjust="spacingAndGlyphs">Makefile 0.25%</text></g><g transform="translate(15, 252)"><rect x="0.5" y="0.5" rx="2" width="15" height="15" fill="#8f14e9" stroke-width="1" stroke="#000000"/><text transform="scale(0.095)" x="263" y="132" textLength="1034" lengthAdjust="spacingAndGlyphs">Metal 0.15%</text><rect x="228.5" y="0.5" rx="2" width="15" height="15" fill="#C1F12E" stroke-width="1" stroke="#000000"/><text transform="scale(0.095)" x="2663" y="132" textLength="1304" lengthAdjust="spacingAndGlyphs">Batchfile 0.15%</text></g><g transform="translate(15, 273)"><rect x="0.5" y="0.5" rx="2" width="15" height="15" fill="#5686a5" stroke-width="1" stroke="#000000"/><text transform="scale(0.095)" x="263" y="132" textLength="993" lengthAdjust="spacingAndGlyphs">GLSL 0.12%</text><rect x="228.5" y="0.5" rx="2" width="15" height="15" fill="#DA3434" stroke-width="1" stroke="#000000"/><text transform="scale(0.095)" x="2663" y="132" textLength="1134" lengthAdjust="spacingAndGlyphs">CMake 0.11%</text></g><g transform="translate(15, 294)"><rect x="0.5" y="0.5" rx="2" width="15" height="15" fill="#e34c26" stroke-width="1" stroke="#000000"/><text transform="scale(0.095)" x="263" y="132" textLength="1036" lengthAdjust="spacingAndGlyphs">HTML 0.05%</text><rect x="228.5" y="0.5" rx="2" width="15" height="15" fill="#701516" stroke-width="1" stroke="#000000"/><text transform="scale(0.095)" x="2663" y="132" textLength="999" lengthAdjust="spacingAndGlyphs">Ruby 0.03%</text></g></g></g></svg>