<svg width="457" height="396" viewBox="0 0 457 396" xmlns="http://www.w3.org/2000/svg" lang="en" xml:lang="en"><rect x="2" y="2" stroke-width="4" rx="0" width="453" height="392" stroke="#ffffff" fill="#ffffff"/><g font-weight="600" font-size="110pt" font-family="Verdana,Geneva,DejaVu Sans,sans-serif" text-rendering="geometricPrecision"><text x="895" y="301" lengthAdjust="spacingAndGlyphs" textLength="1917" transform="scale(0.123)" fill="#0969da">Rinc's GitHub Statistics</text><g transform="translate(0, 60)" fill="#24292f"><g transform="translate(15, 0)"><g transform="scale(0.095)"><text x="0" y="132" textLength="3652" lengthAdjust="spacingAndGlyphs">Language Distribution in Public Repositories</text></g></g><g transform="translate(243, 21)"><circle cx="92" cy="92" r="92" fill="#000000"/></g><g transform="translate(244, 22)"><path fill-rule="evenodd" fill="#f34b7d" d="M 0.0,91.00000000000001 A 91 91 0 0 1 168.47040999964975 43.25761239227592 L 91,91 Z"/><path fill-rule="evenodd" fill="#438eff" d="M 168.47040999964975,43.25761239227592 A 91 91 0 0 1 175.4097168251032 124.99999566920395 L 91,91 Z"/><path fill-rule="evenodd" fill="#555555" d="M 175.4097168251032,124.99999566920395 A 91 91 0 0 1 148.1570030658798 161.8101475815932 L 91,91 Z"/><path fill-rule="evenodd" fill="#dea584" d="M 148.1570030658798,161.8101475815932 A 91 91 0 0 1 110.66254277198794 179.85034840528056 L 91,91 Z"/><path fill-rule="evenodd" fill="#b07219" d="M 110.66254277198794,179.85034840528056 A 91 91 0 0 1 76.83905209348669 180.89142091650913 L 91,91 Z"/><path fill-rule="evenodd" fill="#00ADD8" d="M 76.83905209348669,180.89142091650913 A 91 91 0 0 1 50.89707063985589 172.68693320681888 L 91,91 Z"/><path fill-rule="evenodd" fill="#A97BFF" d="M 50.89707063985589,172.68693320681888 A 91 91 0 0 1 29.51921992421198 158.09033970157392 L 91,91 Z"/><path fill-rule="evenodd" fill="#000080" d="M 29.51921992421198,158.09033970157392 A 91 91 0 0 1 16.43731775358576 143.16710089913244 L 91,91 Z"/><path fill-rule="evenodd" fill="#f1e05a" d="M 16.43731775358576,143.16710089913244 A 91 91 0 0 1 9.274181861641168 131.02362614276592 L 91,91 Z"/><path fill-rule="evenodd" fill="#3178c6" d="M 9.274181861641168,131.02362614276592 A 91 91 0 0 1 5.3185389625127755 121.6543183659588 L 91,91 Z"/><path fill-rule="evenodd" fill="#DA3434" d="M 5.3185389625127755,121.6543183659588 A 91 91 0 0 1 2.553917000236794 112.40771828100785 L 91,91 Z"/><path fill-rule="evenodd" fill="#6866fb" d="M 2.553917000236794,112.40771828100785 A 91 91 0 0 1 0.8749097241924488 103.58841144773797 L 91,91 Z"/><path fill-rule="evenodd" fill="#89e051" d="M 0.8749097241924488,103.58841144773797 A 91 91 0 0 1 0.09917822994738401 95.24742292797995 L 91,91 Z"/><path fill-rule="evenodd" fill="#427819" d="M 0.09917822994738401,95.24742292797995 A 91 91 0 0 1 0.04301306952345385 93.797593345917 L 91,91 Z"/><path fill-rule="evenodd" fill="#8f14e9" d="M 0.04301306952345385,93.797593345917 A 91 91 0 0 1 0.020744831434313937 92.94296911272754 L 91,91 Z"/><path fill-rule="evenodd" fill="#C1F12E" d="M 0.020744831434313937,92.94296911272754 A 91 91 0 0 1 0.0070914105378676595 92.1360398011454 L 91,91 Z"/><path fill-rule="evenodd" fill="#5686a5" d="M 0.0070914105378676595,92.1360398011454 A 91 91 0 0 1 0.001161732887311473 91.45981956881728 L 91,91 Z"/><path fill-rule="evenodd" fill="#e34c26" d="M 0.001161732887311473,91.45981956881728 A 91 91 0 0 1 0.00011761367838403203 91.14630678600943 L 91,91 Z"/><path fill-rule="evenodd" fill="#701516" d="M 0.00011761367838403203,91.14630678600943 A 91 91 0 0 1 0.0 91.00000000000003 L 91,91 Z"/></g><g transform="translate(15, 21)"><rect x="0.5" y="0.5" rx="2" width="15" height="15" fill="#f34b7d" stroke-width="1" stroke="#000000"/><text transform="scale(0.095)" x="263" y="132" textLength="1074" lengthAdjust="spacingAndGlyphs">C++ 41.21%</text></g><g transform="translate(15, 42)"><rect x="0.5" y="0.5" rx="2" width="15" height="15" fill="#438eff" stroke-width="1" stroke="#000000"/><text transform="scale(0.095)" x="263" y="132" textLength="1642" lengthAdjust="spacingAndGlyphs">Objective-C 14.88%</text></g><g transform="translate(15, 63)"><rect x="0.5" y="0.5" rx="2" width="15" height="15" fill="#555555" stroke-width="1" stroke="#000000"/><text transform="scale(0.095)" x="263" y="132" textLength="693" lengthAdjust="spacingAndGlyphs">C 8.10%</text></g><g transform="translate(15, 84)"><rect x="0.5" y="0.5" rx="2" width="15" height="15" fill="#dea584" stroke-width="1" stroke="#000000"/><text transform="scale(0.095)" x="263" y="132" textLength="946" lengthAdjust="spacingAndGlyphs">Rust 7.34%</text></g><g transform="translate(15, 105)"><rect x="0.5" y="0.5" rx="2" width="15" height="15" fill="#b07219" stroke-width="1" stroke="#000000"/><text transform="scale(0.095)" x="263" y="132" textLength="933" lengthAdjust="spacingAndGlyphs">Java 5.95%</text></g><g transform="translate(15, 126)"><rect x="0.5" y="0.5" rx="2" width="15" height="15" fill="#00ADD8" stroke-width="1" stroke="#000000"/><text transform="scale(0.095)" x="263" y="132" textLength="806" lengthAdjust="spacingAndGlyphs">Go 4.78%</text></g><g transform="translate(15, 147)"><rect x="0.5" y="0.5" rx="2" width="15" height="15" fill="#A97BFF" stroke-width="1" stroke="#000000"/><text transform="scale(0.095)" x="263" y="132" textLength="1048" lengthAdjust="spacingAndGlyphs">Kotlin 4.54%</text></g><g transform="translate(15, 168)"><rect x="0.5" y="0.5" rx="2" width="15" height="15" fill="#000080" stroke-width="1" stroke="#000000"/><text transform="scale(0.095)" x="263" y="132" textLength="874" lengthAdjust="spacingAndGlyphs">Lua 3.48%</text></g><g transform="translate(15, 189)"><rect x="0.5" y="0.5" rx="2" width="15" height="15" fill="#f1e05a" stroke-width="1" stroke="#000000"/><text transform="scale(0.095)" x="263" y="132" textLength="1412" lengthAdjust="spacingAndGlyphs">JavaScript 2.47%</text></g><g transform="translate(15, 210)"><rect x="0.5" y="0.5" rx="2" width="15" height="15" fill="#3178c6" stroke-width="1" stroke="#000000"/><text transform="scale(0.095)" x="263" y="132" textLength="1462" lengthAdjust="spacingAndGlyphs">TypeScript 1.78%</text><rect x="228.5" y="0.5" rx="2" width="15" height="15" fill="#DA3434" stroke-width="1" stroke="#000000"/><text transform="scale(0.095)" x="2663" y="132" textLength="1134" lengthAdjust="spacingAndGlyphs">CMake 1.69%</text></g><g transform="translate(15, 231)"><rect x="0.5" y="0.5" rx="2" width="15" height="15" fill="#6866fb" stroke-width="1" stroke="#000000"/><text transform="scale(0.095)" x="263" y="132" textLength="1814" lengthAdjust="spacingAndGlyphs">Objective-C++ 1.57%</text><rect x="228.5" y="0.5" rx="2" width="15" height="15" fill="#89e051" stroke-width="1" stroke="#000000"/><text transform="scale(0.095)" x="2663" y="132" textLength="982" lengthAdjust="spacingAndGlyphs">Shell 1.47%</text></g><g transform="translate(15, 252)"><rect x="0.5" y="0.5" rx="2" width="15" height="15" fill="#427819" stroke-width="1" stroke="#000000"/><text transform="scale(0.095)" x="263" y="132" textLength="1272" lengthAdjust="spacingAndGlyphs">Makefile 0.25%</text><rect x="228.5" y="0.5" rx="2" width="15" height="15" fill="#8f14e9" stroke-width="1" stroke="#000000"/><text transform="scale(0.095)" x="2663" y="132" textLength="1034" lengthAdjust="spacingAndGlyphs">Metal 0.15%</text></g><g transform="translate(15, 273)"><rect x="0.5" y="0.5" rx="2" width="15" height="15" fill="#C1F12E" stroke-width="1" stroke="#000000"/><text transform="scale(0.095)" x="263" y="132" textLength="1304" lengthAdjust="spacingAndGlyphs">Batchfile 0.14%</text><rect x="228.5" y="0.5" rx="2" width="15" height="15" fill="#5686a5" stroke-width="1" stroke="#000000"/><text transform="scale(0.095)" x="2663" y="132" textLength="993" lengthAdjust="spacingAndGlyphs">GLSL 0.12%</text></g><g transform="translate(15, 294)"><rect x="0.5" y="0.5" rx="2" width="15" height="15" fill="#e34c26" stroke-width="1" stroke="#000000"/><text transform="scale(0.095)" x="263" y="132" textLength="1036" lengthAdjust="spacingAndGlyphs">HTML 0.05%</text><rect x="228.5" y="0.5" rx="2" width="15" height="15" fill="#701516" stroke-width="1" stroke="#000000"/><text transform="scale(0.095)" x="2663" y="132" textLength="999" lengthAdjust="spacingAndGlyphs">Ruby 0.03%</text></g></g></g></svg>