<svg width="457" height="396" viewBox="0 0 457 396" xmlns="http://www.w3.org/2000/svg" lang="en" xml:lang="en"><rect x="2" y="2" stroke-width="4" rx="0" width="453" height="392" stroke="#ffffff" fill="#ffffff"/><g font-weight="600" font-size="110pt" font-family="Verdana,Geneva,DejaVu Sans,sans-serif" text-rendering="geometricPrecision"><text x="895" y="301" lengthAdjust="spacingAndGlyphs" textLength="1917" transform="scale(0.123)" fill="#0969da">Rinc's GitHub Statistics</text><g transform="translate(0, 60)" fill="#24292f"><g transform="translate(15, 0)"><g transform="scale(0.095)"><text x="0" y="132" textLength="3652" lengthAdjust="spacingAndGlyphs">Language Distribution in Public Repositories</text></g></g><g transform="translate(243, 21)"><circle cx="92" cy="92" r="92" fill="#000000"/></g><g transform="translate(244, 22)"><path fill-rule="evenodd" fill="#f34b7d" d="M 0.0,91.00000000000001 A 91 91 0 0 1 174.67196926224202 55.22289056144377 L 91,91 Z"/><path fill-rule="evenodd" fill="#438eff" d="M 174.67196926224202,55.22289056144377 A 91 91 0 0 1 169.13997398523753 137.6384440733865 L 91,91 Z"/><path fill-rule="evenodd" fill="#555555" d="M 169.13997398523753,137.6384440733865 A 91 91 0 0 1 138.18283332423619 168.81246840640225 L 91,91 Z"/><path fill-rule="evenodd" fill="#dea584" d="M 138.18283332423619,168.81246840640225 A 91 91 0 0 1 98.41176974775726 181.69766077031 L 91,91 Z"/><path fill-rule="evenodd" fill="#b07219" d="M 98.41176974775726,181.69766077031 A 91 91 0 0 1 64.60278462812398 178.0872379893334 L 91,91 Z"/><path fill-rule="evenodd" fill="#00ADD8" d="M 64.60278462812398,178.0872379893334 A 91 91 0 0 1 39.92740415625804 166.3165981293751 L 91,91 Z"/><path fill-rule="evenodd" fill="#A97BFF" d="M 39.92740415625804,166.3165981293751 A 91 91 0 0 1 20.745953695097214 148.8391647397209 L 91,91 Z"/><path fill-rule="evenodd" fill="#000080" d="M 20.745953695097214,148.8391647397209 A 91 91 0 0 1 11.846134320214361 135.8961640671723 L 91,91 Z"/><path fill-rule="evenodd" fill="#f1e05a" d="M 11.846134320214361,135.8961640671723 A 91 91 0 0 1 5.769766400549756 122.88741570875796 L 91,91 Z"/><path fill-rule="evenodd" fill="#3178c6" d="M 5.769766400549756,122.88741570875796 A 91 91 0 0 1 2.7651223174009516 113.26221822588182 L 91,91 Z"/><path fill-rule="evenodd" fill="#6866fb" d="M 2.7651223174009516,113.26221822588182 A 91 91 0 0 1 0.9860026295673521 104.35965109558427 L 91,91 Z"/><path fill-rule="evenodd" fill="#89e051" d="M 0.9860026295673521,104.35965109558427 A 91 91 0 0 1 0.1341384332835105 95.9391499003689 L 91,91 Z"/><path fill-rule="evenodd" fill="#427819" d="M 0.1341384332835105,95.9391499003689 A 91 91 0 0 1 0.06667139496396146 94.48277889170919 L 91,91 Z"/><path fill-rule="evenodd" fill="#8f14e9" d="M 0.06667139496396146,94.48277889170919 A 91 91 0 0 1 0.03784578894837409 93.62421441289818 L 91,91 Z"/><path fill-rule="evenodd" fill="#C1F12E" d="M 0.03784578894837409,93.62421441289818 A 91 91 0 0 1 0.017165756178201264 92.76744814952157 L 91,91 Z"/><path fill-rule="evenodd" fill="#5686a5" d="M 0.017165756178201264,92.76744814952157 A 91 91 0 0 1 0.00650450637533595 92.08801555674006 L 91,91 Z"/><path fill-rule="evenodd" fill="#DA3434" d="M 0.00650450637533595,92.08801555674006 A 91 91 0 0 1 0.0011729952458665593 91.46204302703434 L 91,91 Z"/><path fill-rule="evenodd" fill="#e34c26" d="M 0.0011729952458665593,91.46204302703434 A 91 91 0 0 1 0.00011875388021564959 91.14701425814442 L 91,91 Z"/><path fill-rule="evenodd" fill="#701516" d="M 0.00011875388021564959,91.14701425814442 A 91 91 0 0 1 0.0 91.00000000000003 L 91,91 Z"/></g><g transform="translate(15, 21)"><rect x="0.5" y="0.5" rx="2" width="15" height="15" fill="#f34b7d" stroke-width="1" stroke="#000000"/><text transform="scale(0.095)" x="263" y="132" textLength="1074" lengthAdjust="spacingAndGlyphs">C++ 43.57%</text></g><g transform="translate(15, 42)"><rect x="0.5" y="0.5" rx="2" width="15" height="15" fill="#438eff" stroke-width="1" stroke="#000000"/><text transform="scale(0.095)" x="263" y="132" textLength="1642" lengthAdjust="spacingAndGlyphs">Objective-C 15.00%</text></g><g transform="translate(15, 63)"><rect x="0.5" y="0.5" rx="2" width="15" height="15" fill="#555555" stroke-width="1" stroke="#000000"/><text transform="scale(0.095)" x="263" y="132" textLength="693" lengthAdjust="spacingAndGlyphs">C 7.76%</text></g><g transform="translate(15, 84)"><rect x="0.5" y="0.5" rx="2" width="15" height="15" fill="#dea584" stroke-width="1" stroke="#000000"/><text transform="scale(0.095)" x="263" y="132" textLength="946" lengthAdjust="spacingAndGlyphs">Rust 7.38%</text></g><g transform="translate(15, 105)"><rect x="0.5" y="0.5" rx="2" width="15" height="15" fill="#b07219" stroke-width="1" stroke="#000000"/><text transform="scale(0.095)" x="263" y="132" textLength="933" lengthAdjust="spacingAndGlyphs">Java 5.98%</text></g><g transform="translate(15, 126)"><rect x="0.5" y="0.5" rx="2" width="15" height="15" fill="#00ADD8" stroke-width="1" stroke="#000000"/><text transform="scale(0.095)" x="263" y="132" textLength="806" lengthAdjust="spacingAndGlyphs">Go 4.80%</text></g><g transform="translate(15, 147)"><rect x="0.5" y="0.5" rx="2" width="15" height="15" fill="#A97BFF" stroke-width="1" stroke="#000000"/><text transform="scale(0.095)" x="263" y="132" textLength="1048" lengthAdjust="spacingAndGlyphs">Kotlin 4.55%</text></g><g transform="translate(15, 168)"><rect x="0.5" y="0.5" rx="2" width="15" height="15" fill="#000080" stroke-width="1" stroke="#000000"/><text transform="scale(0.095)" x="263" y="132" textLength="874" lengthAdjust="spacingAndGlyphs">Lua 2.75%</text></g><g transform="translate(15, 189)"><rect x="0.5" y="0.5" rx="2" width="15" height="15" fill="#f1e05a" stroke-width="1" stroke="#000000"/><text transform="scale(0.095)" x="263" y="132" textLength="1412" lengthAdjust="spacingAndGlyphs">JavaScript 2.51%</text></g><g transform="translate(15, 210)"><rect x="0.5" y="0.5" rx="2" width="15" height="15" fill="#3178c6" stroke-width="1" stroke="#000000"/><text transform="scale(0.095)" x="263" y="132" textLength="1462" lengthAdjust="spacingAndGlyphs">TypeScript 1.76%</text><rect x="228.5" y="0.5" rx="2" width="15" height="15" fill="#6866fb" stroke-width="1" stroke="#000000"/><text transform="scale(0.095)" x="2663" y="132" textLength="1814" lengthAdjust="spacingAndGlyphs">Objective-C++ 1.59%</text></g><g transform="translate(15, 231)"><rect x="0.5" y="0.5" rx="2" width="15" height="15" fill="#89e051" stroke-width="1" stroke="#000000"/><text transform="scale(0.095)" x="263" y="132" textLength="982" lengthAdjust="spacingAndGlyphs">Shell 1.48%</text><rect x="228.5" y="0.5" rx="2" width="15" height="15" fill="#427819" stroke-width="1" stroke="#000000"/><text transform="scale(0.095)" x="2663" y="132" textLength="1272" lengthAdjust="spacingAndGlyphs">Makefile 0.25%</text></g><g transform="translate(15, 252)"><rect x="0.5" y="0.5" rx="2" width="15" height="15" fill="#8f14e9" stroke-width="1" stroke="#000000"/><text transform="scale(0.095)" x="263" y="132" textLength="1034" lengthAdjust="spacingAndGlyphs">Metal 0.15%</text><rect x="228.5" y="0.5" rx="2" width="15" height="15" fill="#C1F12E" stroke-width="1" stroke="#000000"/><text transform="scale(0.095)" x="2663" y="132" textLength="1304" lengthAdjust="spacingAndGlyphs">Batchfile 0.15%</text></g><g transform="translate(15, 273)"><rect x="0.5" y="0.5" rx="2" width="15" height="15" fill="#5686a5" stroke-width="1" stroke="#000000"/><text transform="scale(0.095)" x="263" y="132" textLength="993" lengthAdjust="spacingAndGlyphs">GLSL 0.12%</text><rect x="228.5" y="0.5" rx="2" width="15" height="15" fill="#DA3434" stroke-width="1" stroke="#000000"/><text transform="scale(0.095)" x="2663" y="132" textLength="1134" lengthAdjust="spacingAndGlyphs">CMake 0.11%</text></g><g transform="translate(15, 294)"><rect x="0.5" y="0.5" rx="2" width="15" height="15" fill="#e34c26" stroke-width="1" stroke="#000000"/><text transform="scale(0.095)" x="263" y="132" textLength="1036" lengthAdjust="spacingAndGlyphs">HTML 0.06%</text><rect x="228.5" y="0.5" rx="2" width="15" height="15" fill="#701516" stroke-width="1" stroke="#000000"/><text transform="scale(0.095)" x="2663" y="132" textLength="999" lengthAdjust="spacingAndGlyphs">Ruby 0.03%</text></g></g></g></svg>