<svg width="457" height="396" viewBox="0 0 457 396" xmlns="http://www.w3.org/2000/svg" lang="en" xml:lang="en"><rect x="2" y="2" stroke-width="4" rx="0" width="453" height="392" stroke="#ffffff" fill="#ffffff"/><g font-weight="600" font-size="110pt" font-family="Verdana,Geneva,DejaVu Sans,sans-serif" text-rendering="geometricPrecision"><text x="895" y="301" lengthAdjust="spacingAndGlyphs" textLength="1917" transform="scale(0.123)" fill="#0969da">Rinc's GitHub Statistics</text><g transform="translate(0, 60)" fill="#24292f"><g transform="translate(15, 0)"><g transform="scale(0.095)"><text x="0" y="132" textLength="3652" lengthAdjust="spacingAndGlyphs">Language Distribution in Public Repositories</text></g></g><g transform="translate(243, 21)"><circle cx="92" cy="92" r="92" fill="#000000"/></g><g transform="translate(244, 22)"><path fill-rule="evenodd" fill="#f34b7d" d="M 0.0,91.00000000000001 A 91 91 0 0 1 172.51081295454108 50.54029941423419 L 91,91 Z"/><path fill-rule="evenodd" fill="#438eff" d="M 172.51081295454108,50.54029941423419 A 91 91 0 0 1 168.70031432171345 138.36730047518998 L 91,91 Z"/><path fill-rule="evenodd" fill="#555555" d="M 168.70031432171345,138.36730047518998 A 91 91 0 0 1 132.662273998137 171.90274980063506 L 91,91 Z"/><path fill-rule="evenodd" fill="#b07219" d="M 132.662273998137,171.90274980063506 A 91 91 0 0 1 97.57513850276932 181.76214824291787 L 91,91 Z"/><path fill-rule="evenodd" fill="#00ADD8" d="M 97.57513850276932,181.76214824291787 A 91 91 0 0 1 68.37820357613455 179.14337369625235 L 91,91 Z"/><path fill-rule="evenodd" fill="#A97BFF" d="M 68.37820357613455,179.14337369625235 A 91 91 0 0 1 42.82291425648135 168.20083166172273 L 91,91 Z"/><path fill-rule="evenodd" fill="#000080" d="M 42.82291425648135,168.20083166172273 A 91 91 0 0 1 26.105449251984496 154.79417906998444 L 91,91 Z"/><path fill-rule="evenodd" fill="#dea584" d="M 26.105449251984496,154.79417906998444 A 91 91 0 0 1 16.099036360987228 142.6802249022514 L 91,91 Z"/><path fill-rule="evenodd" fill="#f1e05a" d="M 16.099036360987228,142.6802249022514 A 91 91 0 0 1 8.524745642114382 129.4555902126345 L 91,91 Z"/><path fill-rule="evenodd" fill="#3178c6" d="M 8.524745642114382,129.4555902126345 A 91 91 0 0 1 4.498843901692027 119.25862688907861 L 91,91 Z"/><path fill-rule="evenodd" fill="#6866fb" d="M 4.498843901692027,119.25862688907861 A 91 91 0 0 1 2.1275833102461377 110.56255483628759 L 91,91 Z"/><path fill-rule="evenodd" fill="#DA3434" d="M 2.1275833102461377,110.56255483628759 A 91 91 0 0 1 0.6575683121900369 101.9199375791893 L 91,91 Z"/><path fill-rule="evenodd" fill="#89e051" d="M 0.6575683121900369,101.9199375791893 A 91 91 0 0 1 0.09439441751571565 95.14377529335297 L 91,91 Z"/><path fill-rule="evenodd" fill="#427819" d="M 0.09439441751571565,95.14377529335297 A 91 91 0 0 1 0.03660048955430284 93.58068779650829 L 91,91 Z"/><path fill-rule="evenodd" fill="#8f14e9" d="M 0.03660048955430284,93.58068779650829 A 91 91 0 0 1 0.015129147363694528 92.65929983098032 L 91,91 Z"/><path fill-rule="evenodd" fill="#5686a5" d="M 0.015129147363694528,92.65929983098032 A 91 91 0 0 1 0.004755879263584006 91.93034800348364 L 91,91 Z"/><path fill-rule="evenodd" fill="#C1F12E" d="M 0.004755879263584006,91.93034800348364 A 91 91 0 0 1 0.0013501509917261956 91.49570722970888 L 91,91 Z"/><path fill-rule="evenodd" fill="#e34c26" d="M 0.0013501509917261956,91.49570722970888 A 91 91 0 0 1 0.00013668914385789321 91.15772572871316 L 91,91 Z"/><path fill-rule="evenodd" fill="#701516" d="M 0.00013668914385789321,91.15772572871316 A 91 91 0 0 1 0.0 91.00000000000003 L 91,91 Z"/></g><g transform="translate(15, 21)"><rect x="0.5" y="0.5" rx="2" width="15" height="15" fill="#f34b7d" stroke-width="1" stroke="#000000"/><text transform="scale(0.095)" x="263" y="132" textLength="1074" lengthAdjust="spacingAndGlyphs">C++ 42.67%</text></g><g transform="translate(15, 42)"><rect x="0.5" y="0.5" rx="2" width="15" height="15" fill="#438eff" stroke-width="1" stroke="#000000"/><text transform="scale(0.095)" x="263" y="132" textLength="1642" lengthAdjust="spacingAndGlyphs">Objective-C 16.05%</text></g><g transform="translate(15, 63)"><rect x="0.5" y="0.5" rx="2" width="15" height="15" fill="#555555" stroke-width="1" stroke="#000000"/><text transform="scale(0.095)" x="263" y="132" textLength="693" lengthAdjust="spacingAndGlyphs">C 8.72%</text></g><g transform="translate(15, 84)"><rect x="0.5" y="0.5" rx="2" width="15" height="15" fill="#b07219" stroke-width="1" stroke="#000000"/><text transform="scale(0.095)" x="263" y="132" textLength="933" lengthAdjust="spacingAndGlyphs">Java 6.42%</text></g><g transform="translate(15, 105)"><rect x="0.5" y="0.5" rx="2" width="15" height="15" fill="#00ADD8" stroke-width="1" stroke="#000000"/><text transform="scale(0.095)" x="263" y="132" textLength="806" lengthAdjust="spacingAndGlyphs">Go 5.15%</text></g><g transform="translate(15, 126)"><rect x="0.5" y="0.5" rx="2" width="15" height="15" fill="#A97BFF" stroke-width="1" stroke="#000000"/><text transform="scale(0.095)" x="263" y="132" textLength="1048" lengthAdjust="spacingAndGlyphs">Kotlin 4.88%</text></g><g transform="translate(15, 147)"><rect x="0.5" y="0.5" rx="2" width="15" height="15" fill="#000080" stroke-width="1" stroke="#000000"/><text transform="scale(0.095)" x="263" y="132" textLength="874" lengthAdjust="spacingAndGlyphs">Lua 3.76%</text></g><g transform="translate(15, 168)"><rect x="0.5" y="0.5" rx="2" width="15" height="15" fill="#dea584" stroke-width="1" stroke="#000000"/><text transform="scale(0.095)" x="263" y="132" textLength="946" lengthAdjust="spacingAndGlyphs">Rust 2.75%</text></g><g transform="translate(15, 189)"><rect x="0.5" y="0.5" rx="2" width="15" height="15" fill="#f1e05a" stroke-width="1" stroke="#000000"/><text transform="scale(0.095)" x="263" y="132" textLength="1412" lengthAdjust="spacingAndGlyphs">JavaScript 2.67%</text></g><g transform="translate(15, 210)"><rect x="0.5" y="0.5" rx="2" width="15" height="15" fill="#3178c6" stroke-width="1" stroke="#000000"/><text transform="scale(0.095)" x="263" y="132" textLength="1462" lengthAdjust="spacingAndGlyphs">TypeScript 1.92%</text><rect x="228.5" y="0.5" rx="2" width="15" height="15" fill="#6866fb" stroke-width="1" stroke="#000000"/><text transform="scale(0.095)" x="2663" y="132" textLength="1814" lengthAdjust="spacingAndGlyphs">Objective-C++ 1.58%</text></g><g transform="translate(15, 231)"><rect x="0.5" y="0.5" rx="2" width="15" height="15" fill="#DA3434" stroke-width="1" stroke="#000000"/><text transform="scale(0.095)" x="263" y="132" textLength="1134" lengthAdjust="spacingAndGlyphs">CMake 1.53%</text><rect x="228.5" y="0.5" rx="2" width="15" height="15" fill="#89e051" stroke-width="1" stroke="#000000"/><text transform="scale(0.095)" x="2663" y="132" textLength="982" lengthAdjust="spacingAndGlyphs">Shell 1.19%</text></g><g transform="translate(15, 252)"><rect x="0.5" y="0.5" rx="2" width="15" height="15" fill="#427819" stroke-width="1" stroke="#000000"/><text transform="scale(0.095)" x="263" y="132" textLength="1272" lengthAdjust="spacingAndGlyphs">Makefile 0.27%</text><rect x="228.5" y="0.5" rx="2" width="15" height="15" fill="#8f14e9" stroke-width="1" stroke="#000000"/><text transform="scale(0.095)" x="2663" y="132" textLength="1034" lengthAdjust="spacingAndGlyphs">Metal 0.16%</text></g><g transform="translate(15, 273)"><rect x="0.5" y="0.5" rx="2" width="15" height="15" fill="#5686a5" stroke-width="1" stroke="#000000"/><text transform="scale(0.095)" x="263" y="132" textLength="993" lengthAdjust="spacingAndGlyphs">GLSL 0.13%</text><rect x="228.5" y="0.5" rx="2" width="15" height="15" fill="#C1F12E" stroke-width="1" stroke="#000000"/><text transform="scale(0.095)" x="2663" y="132" textLength="1304" lengthAdjust="spacingAndGlyphs">Batchfile 0.08%</text></g><g transform="translate(15, 294)"><rect x="0.5" y="0.5" rx="2" width="15" height="15" fill="#e34c26" stroke-width="1" stroke="#000000"/><text transform="scale(0.095)" x="263" y="132" textLength="1036" lengthAdjust="spacingAndGlyphs">HTML 0.06%</text><rect x="228.5" y="0.5" rx="2" width="15" height="15" fill="#701516" stroke-width="1" stroke="#000000"/><text transform="scale(0.095)" x="2663" y="132" textLength="999" lengthAdjust="spacingAndGlyphs">Ruby 0.03%</text></g></g></g></svg>