<svg width="457" height="354" viewBox="0 0 457 354" xmlns="http://www.w3.org/2000/svg" lang="en" xml:lang="en"><rect x="2" y="2" stroke-width="4" rx="0" width="453" height="350" stroke="#ffffff" fill="#ffffff"/><g font-weight="600" font-size="110pt" font-family="Verdana,Geneva,DejaVu Sans,sans-serif" text-rendering="geometricPrecision"><text x="1828" y="301" lengthAdjust="spacingAndGlyphs" textLength="52" transform="scale(0.123)" fill="#0969da">.</text><g transform="translate(0, 60)" fill="#24292f"><g transform="translate(15, 0)"><g transform="scale(0.095)"><text x="0" y="132" textLength="3652" lengthAdjust="spacingAndGlyphs">Language Distribution in Public Repositories</text></g></g><g transform="translate(243, 21)"><circle cx="92" cy="92" r="92" fill="#000000"/></g><g transform="translate(244, 22)"><path fill-rule="evenodd" fill="#f34b7d" d="M 0.0,91.00000000000001 A 91 91 0 1 1 180.61018875698193 106.8434235863991 L 91,91 Z"/><path fill-rule="evenodd" fill="#438eff" d="M 180.61018875698193,106.8434235863991 A 91 91 0 0 1 144.38777843854587 164.6935893643181 L 91,91 Z"/><path fill-rule="evenodd" fill="#555555" d="M 144.38777843854587,164.6935893643181 A 91 91 0 0 1 109.85402103910471 180.0254227210239 L 91,91 Z"/><path fill-rule="evenodd" fill="#dea584" d="M 109.85402103910471,180.0254227210239 A 91 91 0 0 1 74.69991239490922 180.5282477437505 L 91,91 Z"/><path fill-rule="evenodd" fill="#b07219" d="M 74.69991239490922,180.5282477437505 A 91 91 0 0 1 47.74578185512715 171.06292907879248 L 91,91 Z"/><path fill-rule="evenodd" fill="#00ADD8" d="M 47.74578185512715,171.06292907879248 A 91 91 0 0 1 29.086480929968303 157.69119999193913 L 91,91 Z"/><path fill-rule="evenodd" fill="#A97BFF" d="M 29.086480929968303,157.69119999193913 A 91 91 0 0 1 17.56512865082253 144.7430895086034 L 91,91 Z"/><path fill-rule="evenodd" fill="#f1e05a" d="M 17.56512865082253,144.7430895086034 A 91 91 0 0 1 8.999544980599197 130.45789371736947 L 91,91 Z"/><path fill-rule="evenodd" fill="#000080" d="M 8.999544980599197,130.45789371736947 A 91 91 0 0 1 3.2052219196004472 114.93902549840728 L 91,91 Z"/><path fill-rule="evenodd" fill="#DA3434" d="M 3.2052219196004472,114.93902549840728 A 91 91 0 0 1 0.5531695777073935 101.01852616710883 L 91,91 Z"/><path fill-rule="evenodd" fill="#6866fb" d="M 0.5531695777073935,101.01852616710883 A 91 91 0 0 1 0.018177328136033566 92.8187752212685 L 91,91 Z"/><path fill-rule="evenodd" fill="#8f14e9" d="M 0.018177328136033566,92.8187752212685 A 91 91 0 0 1 0.00662874928437418 92.0983571502197 L 91,91 Z"/><path fill-rule="evenodd" fill="#5686a5" d="M 0.00662874928437418,92.0983571502197 A 91 91 0 0 1 0.0015343973312411663 91.52844863507241 L 91,91 Z"/><path fill-rule="evenodd" fill="#959da5" d="M 0.0015343973312411663,91.52844863507241 A 91 91 0 0 1 0.0 91.00000000000003 L 91,91 Z"/></g><g transform="translate(15, 21)"><rect x="0.5" y="0.5" rx="2" width="15" height="15" fill="#f34b7d" stroke-width="1" stroke="#000000"/><text transform="scale(0.095)" x="263" y="132" textLength="1074" lengthAdjust="spacingAndGlyphs">C++ 52.79%</text></g><g transform="translate(15, 42)"><rect x="0.5" y="0.5" rx="2" width="15" height="15" fill="#438eff" stroke-width="1" stroke="#000000"/><text transform="scale(0.095)" x="263" y="132" textLength="1642" lengthAdjust="spacingAndGlyphs">Objective-C 12.24%</text></g><g transform="translate(15, 63)"><rect x="0.5" y="0.5" rx="2" width="15" height="15" fill="#555555" stroke-width="1" stroke="#000000"/><text transform="scale(0.095)" x="263" y="132" textLength="693" lengthAdjust="spacingAndGlyphs">C 6.66%</text></g><g transform="translate(15, 84)"><rect x="0.5" y="0.5" rx="2" width="15" height="15" fill="#dea584" stroke-width="1" stroke="#000000"/><text transform="scale(0.095)" x="263" y="132" textLength="946" lengthAdjust="spacingAndGlyphs">Rust 6.19%</text></g><g transform="translate(15, 105)"><rect x="0.5" y="0.5" rx="2" width="15" height="15" fill="#b07219" stroke-width="1" stroke="#000000"/><text transform="scale(0.095)" x="263" y="132" textLength="933" lengthAdjust="spacingAndGlyphs">Java 5.02%</text></g><g transform="translate(15, 126)"><rect x="0.5" y="0.5" rx="2" width="15" height="15" fill="#00ADD8" stroke-width="1" stroke="#000000"/><text transform="scale(0.095)" x="263" y="132" textLength="806" lengthAdjust="spacingAndGlyphs">Go 4.03%</text></g><g transform="translate(15, 147)"><rect x="0.5" y="0.5" rx="2" width="15" height="15" fill="#A97BFF" stroke-width="1" stroke="#000000"/><text transform="scale(0.095)" x="263" y="132" textLength="1048" lengthAdjust="spacingAndGlyphs">Kotlin 3.04%</text></g><g transform="translate(15, 168)"><rect x="0.5" y="0.5" rx="2" width="15" height="15" fill="#f1e05a" stroke-width="1" stroke="#000000"/><text transform="scale(0.095)" x="263" y="132" textLength="1412" lengthAdjust="spacingAndGlyphs">JavaScript 2.92%</text></g><g transform="translate(15, 189)"><rect x="0.5" y="0.5" rx="2" width="15" height="15" fill="#000080" stroke-width="1" stroke="#000000"/><text transform="scale(0.095)" x="263" y="132" textLength="874" lengthAdjust="spacingAndGlyphs">Lua 2.90%</text></g><g transform="translate(15, 210)"><rect x="0.5" y="0.5" rx="2" width="15" height="15" fill="#DA3434" stroke-width="1" stroke="#000000"/><text transform="scale(0.095)" x="263" y="132" textLength="1134" lengthAdjust="spacingAndGlyphs">CMake 2.48%</text><rect x="228.5" y="0.5" rx="2" width="15" height="15" fill="#6866fb" stroke-width="1" stroke="#000000"/><text transform="scale(0.095)" x="2663" y="132" textLength="1814" lengthAdjust="spacingAndGlyphs">Objective-C++ 1.44%</text></g><g transform="translate(15, 231)"><rect x="0.5" y="0.5" rx="2" width="15" height="15" fill="#8f14e9" stroke-width="1" stroke="#000000"/><text transform="scale(0.095)" x="263" y="132" textLength="1034" lengthAdjust="spacingAndGlyphs">Metal 0.13%</text><rect x="228.5" y="0.5" rx="2" width="15" height="15" fill="#5686a5" stroke-width="1" stroke="#000000"/><text transform="scale(0.095)" x="2663" y="132" textLength="993" lengthAdjust="spacingAndGlyphs">GLSL 0.10%</text></g><g transform="translate(15, 252)"><rect x="0.5" y="0.5" rx="2" width="15" height="15" fill="#959da5" stroke-width="1" stroke="#000000"/><text transform="scale(0.095)" x="263" y="132" textLength="1047" lengthAdjust="spacingAndGlyphs">Other 0.09%</text></g></g></g></svg>