<svg width="457" height="396" viewBox="0 0 457 396" xmlns="http://www.w3.org/2000/svg" lang="en" xml:lang="en"><rect x="2" y="2" stroke-width="4" rx="0" width="453" height="392" stroke="#ffffff" fill="#ffffff"/><g font-weight="600" font-size="110pt" font-family="Verdana,Geneva,DejaVu Sans,sans-serif" text-rendering="geometricPrecision"><text x="895" y="301" lengthAdjust="spacingAndGlyphs" textLength="1917" transform="scale(0.123)" fill="#0969da">Rinc's GitHub Statistics</text><g transform="translate(0, 60)" fill="#24292f"><g transform="translate(15, 0)"><g transform="scale(0.095)"><text x="0" y="132" textLength="3652" lengthAdjust="spacingAndGlyphs">Language Distribution in Public Repositories</text></g></g><g transform="translate(243, 21)"><circle cx="92" cy="92" r="92" fill="#000000"/></g><g transform="translate(244, 22)"><path fill-rule="evenodd" fill="#f34b7d" d="M 0.0,91.00000000000001 A 91 91 0 0 1 177.57705333541105 62.97476430505198 L 91,91 Z"/><path fill-rule="evenodd" fill="#438eff" d="M 177.57705333541105,62.97476430505198 A 91 91 0 0 1 165.7982687935879 142.828746709545 L 91,91 Z"/><path fill-rule="evenodd" fill="#555555" d="M 165.7982687935879,142.828746709545 A 91 91 0 0 1 133.89808667974336 171.2543092875219 L 91,91 Z"/><path fill-rule="evenodd" fill="#dea584" d="M 133.89808667974336,171.2543092875219 A 91 91 0 0 1 94.51728238530472 181.9320005532817 L 91,91 Z"/><path fill-rule="evenodd" fill="#b07219" d="M 94.51728238530472,181.9320005532817 A 91 91 0 0 1 61.683849400311985 177.14849571534268 L 91,91 Z"/><path fill-rule="evenodd" fill="#00ADD8" d="M 61.683849400311985,177.14849571534268 A 91 91 0 0 1 37.96233384072311 164.94596654569534 L 91,91 Z"/><path fill-rule="evenodd" fill="#A97BFF" d="M 37.96233384072311,164.94596654569534 A 91 91 0 0 1 19.667279866971214 147.50347810907743 L 91,91 Z"/><path fill-rule="evenodd" fill="#000080" d="M 19.667279866971214,147.50347810907743 A 91 91 0 0 1 11.227974006698247 134.78839879379 L 91,91 Z"/><path fill-rule="evenodd" fill="#f1e05a" d="M 11.227974006698247,134.78839879379 A 91 91 0 0 1 5.450583939931164 122.02091893837505 L 91,91 Z"/><path fill-rule="evenodd" fill="#3178c6" d="M 5.450583939931164,122.02091893837505 A 91 91 0 0 1 2.618925635387356 112.67454022942147 L 91,91 Z"/><path fill-rule="evenodd" fill="#6866fb" d="M 2.618925635387356,112.67454022942147 A 91 91 0 0 1 0.9366070369964916 104.0224900841433 L 91,91 Z"/><path fill-rule="evenodd" fill="#89e051" d="M 0.9366070369964916,104.0224900841433 A 91 91 0 0 1 0.1275264106624121 95.81596758244304 L 91,91 Z"/><path fill-rule="evenodd" fill="#427819" d="M 0.1275264106624121,95.81596758244304 A 91 91 0 0 1 0.06335550272606838 94.39509757980797 L 91,91 Z"/><path fill-rule="evenodd" fill="#8f14e9" d="M 0.06335550272606838,94.39509757980797 A 91 91 0 0 1 0.03594511508808296 93.55748292168923 L 91,91 Z"/><path fill-rule="evenodd" fill="#C1F12E" d="M 0.03594511508808296,93.55748292168923 A 91 91 0 0 1 0.016299804628275183 92.72229462018375 L 91,91 Z"/><path fill-rule="evenodd" fill="#5686a5" d="M 0.016299804628275183,92.72229462018375 A 91 91 0 0 1 0.006167493217972719 92.05945539202867 L 91,91 Z"/><path fill-rule="evenodd" fill="#DA3434" d="M 0.006167493217972719,92.05945539202867 A 91 91 0 0 1 0.0011065860983165976 91.44877326720656 L 91,91 Z"/><path fill-rule="evenodd" fill="#e34c26" d="M 0.0011065860983165976,91.44877326720656 A 91 91 0 0 1 0.00011302276284652635 91.14342290634261 L 91,91 Z"/><path fill-rule="evenodd" fill="#701516" d="M 0.00011302276284652635,91.14342290634261 A 91 91 0 0 1 0.0 91.00000000000003 L 91,91 Z"/></g><g transform="translate(15, 21)"><rect x="0.5" y="0.5" rx="2" width="15" height="15" fill="#f34b7d" stroke-width="1" stroke="#000000"/><text transform="scale(0.095)" x="263" y="132" textLength="1074" lengthAdjust="spacingAndGlyphs">C++ 45.02%</text></g><g transform="translate(15, 42)"><rect x="0.5" y="0.5" rx="2" width="15" height="15" fill="#438eff" stroke-width="1" stroke="#000000"/><text transform="scale(0.095)" x="263" y="132" textLength="1642" lengthAdjust="spacingAndGlyphs">Objective-C 14.63%</text></g><g transform="translate(15, 63)"><rect x="0.5" y="0.5" rx="2" width="15" height="15" fill="#555555" stroke-width="1" stroke="#000000"/><text transform="scale(0.095)" x="263" y="132" textLength="693" lengthAdjust="spacingAndGlyphs">C 7.54%</text></g><g transform="translate(15, 84)"><rect x="0.5" y="0.5" rx="2" width="15" height="15" fill="#dea584" stroke-width="1" stroke="#000000"/><text transform="scale(0.095)" x="263" y="132" textLength="946" lengthAdjust="spacingAndGlyphs">Rust 7.20%</text></g><g transform="translate(15, 105)"><rect x="0.5" y="0.5" rx="2" width="15" height="15" fill="#b07219" stroke-width="1" stroke="#000000"/><text transform="scale(0.095)" x="263" y="132" textLength="933" lengthAdjust="spacingAndGlyphs">Java 5.84%</text></g><g transform="translate(15, 126)"><rect x="0.5" y="0.5" rx="2" width="15" height="15" fill="#00ADD8" stroke-width="1" stroke="#000000"/><text transform="scale(0.095)" x="263" y="132" textLength="806" lengthAdjust="spacingAndGlyphs">Go 4.68%</text></g><g transform="translate(15, 147)"><rect x="0.5" y="0.5" rx="2" width="15" height="15" fill="#A97BFF" stroke-width="1" stroke="#000000"/><text transform="scale(0.095)" x="263" y="132" textLength="1048" lengthAdjust="spacingAndGlyphs">Kotlin 4.44%</text></g><g transform="translate(15, 168)"><rect x="0.5" y="0.5" rx="2" width="15" height="15" fill="#000080" stroke-width="1" stroke="#000000"/><text transform="scale(0.095)" x="263" y="132" textLength="874" lengthAdjust="spacingAndGlyphs">Lua 2.67%</text></g><g transform="translate(15, 189)"><rect x="0.5" y="0.5" rx="2" width="15" height="15" fill="#f1e05a" stroke-width="1" stroke="#000000"/><text transform="scale(0.095)" x="263" y="132" textLength="1412" lengthAdjust="spacingAndGlyphs">JavaScript 2.45%</text></g><g transform="translate(15, 210)"><rect x="0.5" y="0.5" rx="2" width="15" height="15" fill="#3178c6" stroke-width="1" stroke="#000000"/><text transform="scale(0.095)" x="263" y="132" textLength="1462" lengthAdjust="spacingAndGlyphs">TypeScript 1.71%</text><rect x="228.5" y="0.5" rx="2" width="15" height="15" fill="#6866fb" stroke-width="1" stroke="#000000"/><text transform="scale(0.095)" x="2663" y="132" textLength="1814" lengthAdjust="spacingAndGlyphs">Objective-C++ 1.54%</text></g><g transform="translate(15, 231)"><rect x="0.5" y="0.5" rx="2" width="15" height="15" fill="#89e051" stroke-width="1" stroke="#000000"/><text transform="scale(0.095)" x="263" y="132" textLength="982" lengthAdjust="spacingAndGlyphs">Shell 1.44%</text><rect x="228.5" y="0.5" rx="2" width="15" height="15" fill="#427819" stroke-width="1" stroke="#000000"/><text transform="scale(0.095)" x="2663" y="132" textLength="1272" lengthAdjust="spacingAndGlyphs">Makefile 0.25%</text></g><g transform="translate(15, 252)"><rect x="0.5" y="0.5" rx="2" width="15" height="15" fill="#8f14e9" stroke-width="1" stroke="#000000"/><text transform="scale(0.095)" x="263" y="132" textLength="1034" lengthAdjust="spacingAndGlyphs">Metal 0.15%</text><rect x="228.5" y="0.5" rx="2" width="15" height="15" fill="#C1F12E" stroke-width="1" stroke="#000000"/><text transform="scale(0.095)" x="2663" y="132" textLength="1304" lengthAdjust="spacingAndGlyphs">Batchfile 0.15%</text></g><g transform="translate(15, 273)"><rect x="0.5" y="0.5" rx="2" width="15" height="15" fill="#5686a5" stroke-width="1" stroke="#000000"/><text transform="scale(0.095)" x="263" y="132" textLength="993" lengthAdjust="spacingAndGlyphs">GLSL 0.12%</text><rect x="228.5" y="0.5" rx="2" width="15" height="15" fill="#DA3434" stroke-width="1" stroke="#000000"/><text transform="scale(0.095)" x="2663" y="132" textLength="1134" lengthAdjust="spacingAndGlyphs">CMake 0.11%</text></g><g transform="translate(15, 294)"><rect x="0.5" y="0.5" rx="2" width="15" height="15" fill="#e34c26" stroke-width="1" stroke="#000000"/><text transform="scale(0.095)" x="263" y="132" textLength="1036" lengthAdjust="spacingAndGlyphs">HTML 0.05%</text><rect x="228.5" y="0.5" rx="2" width="15" height="15" fill="#701516" stroke-width="1" stroke="#000000"/><text transform="scale(0.095)" x="2663" y="132" textLength="999" lengthAdjust="spacingAndGlyphs">Ruby 0.03%</text></g></g></g></svg>