<svg width="457" height="354" viewBox="0 0 457 354" xmlns="http://www.w3.org/2000/svg" lang="en" xml:lang="en"><rect x="2" y="2" stroke-width="4" rx="0" width="453" height="350" stroke="#ffffff" fill="#ffffff"/><g font-weight="600" font-size="110pt" font-family="Verdana,Geneva,DejaVu Sans,sans-serif" text-rendering="geometricPrecision"><text x="1828" y="301" lengthAdjust="spacingAndGlyphs" textLength="52" transform="scale(0.123)" fill="#0969da">.</text><g transform="translate(0, 60)" fill="#24292f"><g transform="translate(15, 0)"><g transform="scale(0.095)"><text x="0" y="132" textLength="3652" lengthAdjust="spacingAndGlyphs">Language Distribution in Public Repositories</text></g></g><g transform="translate(243, 21)"><circle cx="92" cy="92" r="92" fill="#000000"/></g><g transform="translate(244, 22)"><path fill-rule="evenodd" fill="#f34b7d" d="M 0.0,91.00000000000001 A 91 91 0 0 1 180.1902393268826 72.94172741335967 L 91,91 Z"/><path fill-rule="evenodd" fill="#438eff" d="M 180.1902393268826,72.94172741335967 A 91 91 0 0 1 164.1844837812798 145.08355881104345 L 91,91 Z"/><path fill-rule="evenodd" fill="#555555" d="M 164.1844837812798,145.08355881104345 A 91 91 0 0 1 134.0550353626654 171.17021847244544 L 91,91 Z"/><path fill-rule="evenodd" fill="#dea584" d="M 134.0550353626654,171.17021847244544 A 91 91 0 0 1 98.39655336041865 181.69890296131746 L 91,91 Z"/><path fill-rule="evenodd" fill="#b07219" d="M 98.39655336041865,181.69890296131746 A 91 91 0 0 1 68.28761273898672 179.12007413129976 L 91,91 Z"/><path fill-rule="evenodd" fill="#A97BFF" d="M 68.28761273898672,179.12007413129976 A 91 91 0 0 1 45.23204923123203 169.65300173818946 L 91,91 Z"/><path fill-rule="evenodd" fill="#00ADD8" d="M 45.23204923123203,169.65300173818946 A 91 91 0 0 1 26.057976872881 154.74585188195968 L 91,91 Z"/><path fill-rule="evenodd" fill="#3178c6" d="M 26.057976872881,154.74585188195968 A 91 91 0 0 1 12.903764695170366 137.71164770389373 L 91,91 Z"/><path fill-rule="evenodd" fill="#000080" d="M 12.903764695170366,137.71164770389373 A 91 91 0 0 1 6.75397286279798 125.40358864417811 L 91,91 Z"/><path fill-rule="evenodd" fill="#f1e05a" d="M 6.75397286279798,125.40358864417811 A 91 91 0 0 1 2.62746051460347 112.70931286112095 L 91,91 Z"/><path fill-rule="evenodd" fill="#DA3434" d="M 2.62746051460347,112.70931286112095 A 91 91 0 0 1 0.5875702608277322 101.32436674373972 L 91,91 Z"/><path fill-rule="evenodd" fill="#6866fb" d="M 0.5875702608277322,101.32436674373972 A 91 91 0 0 1 0.014841774347175374 92.6434666570758 L 91,91 Z"/><path fill-rule="evenodd" fill="#8f14e9" d="M 0.014841774347175374,92.6434666570758 A 91 91 0 0 1 0.004264717062937962 91.88099961273802 L 91,91 Z"/><path fill-rule="evenodd" fill="#959da5" d="M 0.004264717062937962,91.88099961273802 A 91 91 0 0 1 0.0 91.00000000000003 L 91,91 Z"/></g><g transform="translate(15, 21)"><rect x="0.5" y="0.5" rx="2" width="15" height="15" fill="#f34b7d" stroke-width="1" stroke="#000000"/><text transform="scale(0.095)" x="263" y="132" textLength="1074" lengthAdjust="spacingAndGlyphs">C++ 46.82%</text></g><g transform="translate(15, 42)"><rect x="0.5" y="0.5" rx="2" width="15" height="15" fill="#438eff" stroke-width="1" stroke="#000000"/><text transform="scale(0.095)" x="263" y="132" textLength="1642" lengthAdjust="spacingAndGlyphs">Objective-C 13.31%</text></g><g transform="translate(15, 63)"><rect x="0.5" y="0.5" rx="2" width="15" height="15" fill="#555555" stroke-width="1" stroke="#000000"/><text transform="scale(0.095)" x="263" y="132" textLength="693" lengthAdjust="spacingAndGlyphs">C 7.03%</text></g><g transform="translate(15, 84)"><rect x="0.5" y="0.5" rx="2" width="15" height="15" fill="#dea584" stroke-width="1" stroke="#000000"/><text transform="scale(0.095)" x="263" y="132" textLength="946" lengthAdjust="spacingAndGlyphs">Rust 6.55%</text></g><g transform="translate(15, 105)"><rect x="0.5" y="0.5" rx="2" width="15" height="15" fill="#b07219" stroke-width="1" stroke="#000000"/><text transform="scale(0.095)" x="263" y="132" textLength="933" lengthAdjust="spacingAndGlyphs">Java 5.31%</text></g><g transform="translate(15, 126)"><rect x="0.5" y="0.5" rx="2" width="15" height="15" fill="#A97BFF" stroke-width="1" stroke="#000000"/><text transform="scale(0.095)" x="263" y="132" textLength="1048" lengthAdjust="spacingAndGlyphs">Kotlin 4.37%</text></g><g transform="translate(15, 147)"><rect x="0.5" y="0.5" rx="2" width="15" height="15" fill="#00ADD8" stroke-width="1" stroke="#000000"/><text transform="scale(0.095)" x="263" y="132" textLength="806" lengthAdjust="spacingAndGlyphs">Go 4.26%</text></g><g transform="translate(15, 168)"><rect x="0.5" y="0.5" rx="2" width="15" height="15" fill="#3178c6" stroke-width="1" stroke="#000000"/><text transform="scale(0.095)" x="263" y="132" textLength="1462" lengthAdjust="spacingAndGlyphs">TypeScript 3.77%</text></g><g transform="translate(15, 189)"><rect x="0.5" y="0.5" rx="2" width="15" height="15" fill="#000080" stroke-width="1" stroke="#000000"/><text transform="scale(0.095)" x="263" y="132" textLength="874" lengthAdjust="spacingAndGlyphs">Lua 2.41%</text></g><g transform="translate(15, 210)"><rect x="0.5" y="0.5" rx="2" width="15" height="15" fill="#f1e05a" stroke-width="1" stroke="#000000"/><text transform="scale(0.095)" x="263" y="132" textLength="1412" lengthAdjust="spacingAndGlyphs">JavaScript 2.34%</text><rect x="228.5" y="0.5" rx="2" width="15" height="15" fill="#DA3434" stroke-width="1" stroke="#000000"/><text transform="scale(0.095)" x="2663" y="132" textLength="1134" lengthAdjust="spacingAndGlyphs">CMake 2.02%</text></g><g transform="translate(15, 231)"><rect x="0.5" y="0.5" rx="2" width="15" height="15" fill="#6866fb" stroke-width="1" stroke="#000000"/><text transform="scale(0.095)" x="263" y="132" textLength="1814" lengthAdjust="spacingAndGlyphs">Objective-C++ 1.52%</text><rect x="228.5" y="0.5" rx="2" width="15" height="15" fill="#8f14e9" stroke-width="1" stroke="#000000"/><text transform="scale(0.095)" x="2663" y="132" textLength="1034" lengthAdjust="spacingAndGlyphs">Metal 0.13%</text></g><g transform="translate(15, 252)"><rect x="0.5" y="0.5" rx="2" width="15" height="15" fill="#959da5" stroke-width="1" stroke="#000000"/><text transform="scale(0.095)" x="263" y="132" textLength="1047" lengthAdjust="spacingAndGlyphs">Other 0.15%</text></g></g></g></svg>