<svg width="457" height="354" viewBox="0 0 457 354" xmlns="http://www.w3.org/2000/svg" lang="en" xml:lang="en"><rect x="2" y="2" stroke-width="4" rx="0" width="453" height="350" stroke="#ffffff" fill="#ffffff"/><g font-weight="600" font-size="110pt" font-family="Verdana,Geneva,DejaVu Sans,sans-serif" text-rendering="geometricPrecision"><text x="895" y="301" lengthAdjust="spacingAndGlyphs" textLength="1917" transform="scale(0.123)" fill="#0969da">Rinc's GitHub Statistics</text><g transform="translate(0, 60)" fill="#24292f"><g transform="translate(15, 0)"><g transform="scale(0.095)"><text x="0" y="132" textLength="3652" lengthAdjust="spacingAndGlyphs">Language Distribution in Public Repositories</text></g></g><g transform="translate(243, 21)"><circle cx="92" cy="92" r="92" fill="#000000"/></g><g transform="translate(244, 22)"><path fill-rule="evenodd" fill="#f34b7d" d="M 0.0,91.00000000000001 A 91 91 0 0 1 179.242663265898 68.76866221431254 L 91,91 Z"/><path fill-rule="evenodd" fill="#438eff" d="M 179.242663265898,68.76866221431254 A 91 91 0 0 1 161.53792817503177 148.492614210645 L 91,91 Z"/><path fill-rule="evenodd" fill="#555555" d="M 161.53792817503177,148.492614210645 A 91 91 0 0 1 126.78998213915801 174.66646388176537 L 91,91 Z"/><path fill-rule="evenodd" fill="#dea584" d="M 126.78998213915801,174.66646388176537 A 91 91 0 0 1 86.11205356631953 181.86863033886596 L 91,91 Z"/><path fill-rule="evenodd" fill="#b07219" d="M 86.11205356631953,181.86863033886596 A 91 91 0 0 1 53.474570810484686 173.90260649788203 L 91,91 Z"/><path fill-rule="evenodd" fill="#00ADD8" d="M 53.474570810484686,173.90260649788203 A 91 91 0 0 1 30.79228441357737 159.23511547483776 L 91,91 Z"/><path fill-rule="evenodd" fill="#A97BFF" d="M 30.79228441357737,159.23511547483776 A 91 91 0 0 1 14.172148533911113 139.76967540495409 L 91,91 Z"/><path fill-rule="evenodd" fill="#000080" d="M 14.172148533911113,139.76967540495409 A 91 91 0 0 1 6.9759990383671635 125.94234197073122 L 91,91 Z"/><path fill-rule="evenodd" fill="#f1e05a" d="M 6.9759990383671635,125.94234197073122 A 91 91 0 0 1 2.3759395982374087 111.6585555619152 L 91,91 Z"/><path fill-rule="evenodd" fill="#3178c6" d="M 2.3759395982374087,111.6585555619152 A 91 91 0 0 1 0.6521441609298222 101.87496874858 L 91,91 Z"/><path fill-rule="evenodd" fill="#6866fb" d="M 0.6521441609298222,101.87496874858 A 91 91 0 0 1 0.02141942543525488 92.97430408940217 L 91,91 Z"/><path fill-rule="evenodd" fill="#8f14e9" d="M 0.02141942543525488,92.97430408940217 A 91 91 0 0 1 0.006963494981917506 92.12574757225883 L 91,91 Z"/><path fill-rule="evenodd" fill="#5686a5" d="M 0.006963494981917506,92.12574757225883 A 91 91 0 0 1 0.001134800370422795 91.45445833653405 L 91,91 Z"/><path fill-rule="evenodd" fill="#e34c26" d="M 0.001134800370422795,91.45445833653405 A 91 91 0 0 1 0.00011590447348908128 91.14523980425896 L 91,91 Z"/><path fill-rule="evenodd" fill="#701516" d="M 0.00011590447348908128,91.14523980425896 A 91 91 0 0 1 0.0 91.00000000000003 L 91,91 Z"/></g><g transform="translate(15, 21)"><rect x="0.5" y="0.5" rx="2" width="15" height="15" fill="#f34b7d" stroke-width="1" stroke="#000000"/><text transform="scale(0.095)" x="263" y="132" textLength="1074" lengthAdjust="spacingAndGlyphs">C++ 46.07%</text></g><g transform="translate(15, 42)"><rect x="0.5" y="0.5" rx="2" width="15" height="15" fill="#438eff" stroke-width="1" stroke="#000000"/><text transform="scale(0.095)" x="263" y="132" textLength="1642" lengthAdjust="spacingAndGlyphs">Objective-C 14.81%</text></g><g transform="translate(15, 63)"><rect x="0.5" y="0.5" rx="2" width="15" height="15" fill="#555555" stroke-width="1" stroke="#000000"/><text transform="scale(0.095)" x="263" y="132" textLength="693" lengthAdjust="spacingAndGlyphs">C 7.68%</text></g><g transform="translate(15, 84)"><rect x="0.5" y="0.5" rx="2" width="15" height="15" fill="#dea584" stroke-width="1" stroke="#000000"/><text transform="scale(0.095)" x="263" y="132" textLength="946" lengthAdjust="spacingAndGlyphs">Rust 7.29%</text></g><g transform="translate(15, 105)"><rect x="0.5" y="0.5" rx="2" width="15" height="15" fill="#b07219" stroke-width="1" stroke="#000000"/><text transform="scale(0.095)" x="263" y="132" textLength="933" lengthAdjust="spacingAndGlyphs">Java 5.91%</text></g><g transform="translate(15, 126)"><rect x="0.5" y="0.5" rx="2" width="15" height="15" fill="#00ADD8" stroke-width="1" stroke="#000000"/><text transform="scale(0.095)" x="263" y="132" textLength="806" lengthAdjust="spacingAndGlyphs">Go 4.74%</text></g><g transform="translate(15, 147)"><rect x="0.5" y="0.5" rx="2" width="15" height="15" fill="#A97BFF" stroke-width="1" stroke="#000000"/><text transform="scale(0.095)" x="263" y="132" textLength="1048" lengthAdjust="spacingAndGlyphs">Kotlin 4.49%</text></g><g transform="translate(15, 168)"><rect x="0.5" y="0.5" rx="2" width="15" height="15" fill="#000080" stroke-width="1" stroke="#000000"/><text transform="scale(0.095)" x="263" y="132" textLength="874" lengthAdjust="spacingAndGlyphs">Lua 2.73%</text></g><g transform="translate(15, 189)"><rect x="0.5" y="0.5" rx="2" width="15" height="15" fill="#f1e05a" stroke-width="1" stroke="#000000"/><text transform="scale(0.095)" x="263" y="132" textLength="1412" lengthAdjust="spacingAndGlyphs">JavaScript 2.63%</text></g><g transform="translate(15, 210)"><rect x="0.5" y="0.5" rx="2" width="15" height="15" fill="#3178c6" stroke-width="1" stroke="#000000"/><text transform="scale(0.095)" x="263" y="132" textLength="1462" lengthAdjust="spacingAndGlyphs">TypeScript 1.74%</text><rect x="228.5" y="0.5" rx="2" width="15" height="15" fill="#6866fb" stroke-width="1" stroke="#000000"/><text transform="scale(0.095)" x="2663" y="132" textLength="1814" lengthAdjust="spacingAndGlyphs">Objective-C++ 1.56%</text></g><g transform="translate(15, 231)"><rect x="0.5" y="0.5" rx="2" width="15" height="15" fill="#8f14e9" stroke-width="1" stroke="#000000"/><text transform="scale(0.095)" x="263" y="132" textLength="1034" lengthAdjust="spacingAndGlyphs">Metal 0.15%</text><rect x="228.5" y="0.5" rx="2" width="15" height="15" fill="#5686a5" stroke-width="1" stroke="#000000"/><text transform="scale(0.095)" x="2663" y="132" textLength="993" lengthAdjust="spacingAndGlyphs">GLSL 0.12%</text></g><g transform="translate(15, 252)"><rect x="0.5" y="0.5" rx="2" width="15" height="15" fill="#e34c26" stroke-width="1" stroke="#000000"/><text transform="scale(0.095)" x="263" y="132" textLength="1036" lengthAdjust="spacingAndGlyphs">HTML 0.05%</text><rect x="228.5" y="0.5" rx="2" width="15" height="15" fill="#701516" stroke-width="1" stroke="#000000"/><text transform="scale(0.095)" x="2663" y="132" textLength="999" lengthAdjust="spacingAndGlyphs">Ruby 0.03%</text></g></g></g></svg>