<svg width="457" height="354" viewBox="0 0 457 354" xmlns="http://www.w3.org/2000/svg" lang="en" xml:lang="en"><rect x="2" y="2" stroke-width="4" rx="0" width="453" height="350" stroke="#ffffff" fill="#ffffff"/><g font-weight="600" font-size="110pt" font-family="Verdana,Geneva,DejaVu Sans,sans-serif" text-rendering="geometricPrecision"><text x="946" y="301" lengthAdjust="spacingAndGlyphs" textLength="1816" transform="scale(0.123)" fill="#0969da">~#./code-lang-stat.sh</text><g transform="translate(0, 60)" fill="#24292f"><g transform="translate(15, 0)"><g transform="scale(0.095)"><text x="0" y="132" textLength="3652" lengthAdjust="spacingAndGlyphs">Language Distribution in Public Repositories</text></g></g><g transform="translate(243, 21)"><circle cx="92" cy="92" r="92" fill="#000000"/></g><g transform="translate(244, 22)"><path fill-rule="evenodd" fill="#f34b7d" d="M 0.0,91.00000000000001 A 91 91 0 0 1 180.82461024171968 76.42126909079028 L 91,91 Z"/><path fill-rule="evenodd" fill="#438eff" d="M 180.82461024171968,76.42126909079028 A 91 91 0 0 1 157.92687776198898 152.65868173284107 L 91,91 Z"/><path fill-rule="evenodd" fill="#555555" d="M 157.92687776198898,152.65868173284107 A 91 91 0 0 1 121.98447859328691 176.5626208475532 L 91,91 Z"/><path fill-rule="evenodd" fill="#dea584" d="M 121.98447859328691,176.5626208475532 A 91 91 0 0 1 82.09035226436501 181.5627858296491 L 91,91 Z"/><path fill-rule="evenodd" fill="#b07219" d="M 82.09035226436501,181.5627858296491 A 91 91 0 0 1 50.659373362865026 172.56980962662152 L 91,91 Z"/><path fill-rule="evenodd" fill="#00ADD8" d="M 50.659373362865026,172.56980962662152 A 91 91 0 0 1 29.030127879234428 157.63883964577985 L 91,91 Z"/><path fill-rule="evenodd" fill="#A97BFF" d="M 29.030127879234428,157.63883964577985 A 91 91 0 0 1 13.199967026370729 138.2033353620504 L 91,91 Z"/><path fill-rule="evenodd" fill="#000080" d="M 13.199967026370729,138.2033353620504 A 91 91 0 0 1 6.542004411882445 124.87989051395408 L 91,91 Z"/><path fill-rule="evenodd" fill="#f1e05a" d="M 6.542004411882445,124.87989051395408 A 91 91 0 0 1 2.2441305508007474 111.08471155672142 L 91,91 Z"/><path fill-rule="evenodd" fill="#3178c6" d="M 2.2441305508007474,111.08471155672142 A 91 91 0 0 1 0.6298327972365882 101.68797828144235 L 91,91 Z"/><path fill-rule="evenodd" fill="#6866fb" d="M 0.6298327972365882,101.68797828144235 A 91 91 0 0 1 0.017398111653690762 92.77936888437524 L 91,91 Z"/><path fill-rule="evenodd" fill="#8f14e9" d="M 0.017398111653690762,92.77936888437524 A 91 91 0 0 1 0.004999285764966999 91.95385796446142 L 91,91 Z"/><path fill-rule="evenodd" fill="#5686a5" d="M 0.004999285764966999,91.95385796446142 A 91 91 0 0 1 0.0004971875500245915 91.30081204581963 L 91,91 Z"/><path fill-rule="evenodd" fill="#959da5" d="M 0.0004971875500245915,91.30081204581963 A 91 91 0 0 1 0.0 91.00000000000003 L 91,91 Z"/></g><g transform="translate(15, 21)"><rect x="0.5" y="0.5" rx="2" width="15" height="15" fill="#f34b7d" stroke-width="1" stroke="#000000"/><text transform="scale(0.095)" x="263" y="132" textLength="1074" lengthAdjust="spacingAndGlyphs">C++ 47.44%</text></g><g transform="translate(15, 42)"><rect x="0.5" y="0.5" rx="2" width="15" height="15" fill="#438eff" stroke-width="1" stroke="#000000"/><text transform="scale(0.095)" x="263" y="132" textLength="1642" lengthAdjust="spacingAndGlyphs">Objective-C 14.41%</text></g><g transform="translate(15, 63)"><rect x="0.5" y="0.5" rx="2" width="15" height="15" fill="#555555" stroke-width="1" stroke="#000000"/><text transform="scale(0.095)" x="263" y="132" textLength="693" lengthAdjust="spacingAndGlyphs">C 7.62%</text></g><g transform="translate(15, 84)"><rect x="0.5" y="0.5" rx="2" width="15" height="15" fill="#dea584" stroke-width="1" stroke="#000000"/><text transform="scale(0.095)" x="263" y="132" textLength="946" lengthAdjust="spacingAndGlyphs">Rust 7.09%</text></g><g transform="translate(15, 105)"><rect x="0.5" y="0.5" rx="2" width="15" height="15" fill="#b07219" stroke-width="1" stroke="#000000"/><text transform="scale(0.095)" x="263" y="132" textLength="933" lengthAdjust="spacingAndGlyphs">Java 5.75%</text></g><g transform="translate(15, 126)"><rect x="0.5" y="0.5" rx="2" width="15" height="15" fill="#00ADD8" stroke-width="1" stroke="#000000"/><text transform="scale(0.095)" x="263" y="132" textLength="806" lengthAdjust="spacingAndGlyphs">Go 4.61%</text></g><g transform="translate(15, 147)"><rect x="0.5" y="0.5" rx="2" width="15" height="15" fill="#A97BFF" stroke-width="1" stroke="#000000"/><text transform="scale(0.095)" x="263" y="132" textLength="1048" lengthAdjust="spacingAndGlyphs">Kotlin 4.40%</text></g><g transform="translate(15, 168)"><rect x="0.5" y="0.5" rx="2" width="15" height="15" fill="#000080" stroke-width="1" stroke="#000000"/><text transform="scale(0.095)" x="263" y="132" textLength="874" lengthAdjust="spacingAndGlyphs">Lua 2.61%</text></g><g transform="translate(15, 189)"><rect x="0.5" y="0.5" rx="2" width="15" height="15" fill="#f1e05a" stroke-width="1" stroke="#000000"/><text transform="scale(0.095)" x="263" y="132" textLength="1412" lengthAdjust="spacingAndGlyphs">JavaScript 2.53%</text></g><g transform="translate(15, 210)"><rect x="0.5" y="0.5" rx="2" width="15" height="15" fill="#3178c6" stroke-width="1" stroke="#000000"/><text transform="scale(0.095)" x="263" y="132" textLength="1462" lengthAdjust="spacingAndGlyphs">TypeScript 1.67%</text><rect x="228.5" y="0.5" rx="2" width="15" height="15" fill="#6866fb" stroke-width="1" stroke="#000000"/><text transform="scale(0.095)" x="2663" y="132" textLength="1814" lengthAdjust="spacingAndGlyphs">Objective-C++ 1.56%</text></g><g transform="translate(15, 231)"><rect x="0.5" y="0.5" rx="2" width="15" height="15" fill="#8f14e9" stroke-width="1" stroke="#000000"/><text transform="scale(0.095)" x="263" y="132" textLength="1034" lengthAdjust="spacingAndGlyphs">Metal 0.14%</text><rect x="228.5" y="0.5" rx="2" width="15" height="15" fill="#5686a5" stroke-width="1" stroke="#000000"/><text transform="scale(0.095)" x="2663" y="132" textLength="993" lengthAdjust="spacingAndGlyphs">GLSL 0.11%</text></g><g transform="translate(15, 252)"><rect x="0.5" y="0.5" rx="2" width="15" height="15" fill="#959da5" stroke-width="1" stroke="#000000"/><text transform="scale(0.095)" x="263" y="132" textLength="1047" lengthAdjust="spacingAndGlyphs">Other 0.05%</text></g></g></g></svg>