<svg width="457" height="396" viewBox="0 0 457 396" xmlns="http://www.w3.org/2000/svg" lang="en" xml:lang="en"><rect x="2" y="2" stroke-width="4" rx="0" width="453" height="392" stroke="#ffffff" fill="#ffffff"/><g font-weight="600" font-size="110pt" font-family="Verdana,Geneva,DejaVu Sans,sans-serif" text-rendering="geometricPrecision"><text x="895" y="301" lengthAdjust="spacingAndGlyphs" textLength="1917" transform="scale(0.123)" fill="#0969da">Rinc's GitHub Statistics</text><g transform="translate(0, 60)" fill="#24292f"><g transform="translate(15, 0)"><g transform="scale(0.095)"><text x="0" y="132" textLength="3652" lengthAdjust="spacingAndGlyphs">Language Distribution in Public Repositories</text></g></g><g transform="translate(243, 21)"><circle cx="92" cy="92" r="92" fill="#000000"/></g><g transform="translate(244, 22)"><path fill-rule="evenodd" fill="#f34b7d" d="M 0.0,91.00000000000001 A 91 91 0 0 1 172.8676860970263 51.26736891270894 L 91,91 Z"/><path fill-rule="evenodd" fill="#438eff" d="M 172.8676860970263,51.26736891270894 A 91 91 0 0 1 168.11436656307006 139.31536473603882 L 91,91 Z"/><path fill-rule="evenodd" fill="#555555" d="M 168.11436656307006,139.31536473603882 A 91 91 0 0 1 131.52019414317357 172.48075764620455 L 91,91 Z"/><path fill-rule="evenodd" fill="#b07219" d="M 131.52019414317357,172.48075764620455 A 91 91 0 0 1 96.1762279522238 181.85266459596338 L 91,91 Z"/><path fill-rule="evenodd" fill="#00ADD8" d="M 96.1762279522238,181.85266459596338 A 91 91 0 0 1 66.92881754882562 178.75863590212802 L 91,91 Z"/><path fill-rule="evenodd" fill="#A97BFF" d="M 66.92881754882562,178.75863590212802 A 91 91 0 0 1 41.47955165414568 167.34608827979056 L 91,91 Z"/><path fill-rule="evenodd" fill="#000080" d="M 41.47955165414568,167.34608827979056 A 91 91 0 0 1 24.950140769563532 153.59725309979285 L 91,91 Z"/><path fill-rule="evenodd" fill="#f1e05a" d="M 24.950140769563532,153.59725309979285 A 91 91 0 0 1 15.401621661443556 141.65456734175586 L 91,91 Z"/><path fill-rule="evenodd" fill="#dea584" d="M 15.401621661443556,141.65456734175586 A 91 91 0 0 1 8.58053532877743 129.57501579143025 L 91,91 Z"/><path fill-rule="evenodd" fill="#3178c6" d="M 8.58053532877743,129.57501579143025 A 91 91 0 0 1 4.528514959979049 119.34929055502859 L 91,91 Z"/><path fill-rule="evenodd" fill="#6866fb" d="M 4.528514959979049,119.34929055502859 A 91 91 0 0 1 2.1416780593405917 110.6264775721505 L 91,91 Z"/><path fill-rule="evenodd" fill="#DA3434" d="M 2.1416780593405917,110.6264775721505 A 91 91 0 0 1 0.6619364768019977 101.95601564797366 L 91,91 Z"/><path fill-rule="evenodd" fill="#89e051" d="M 0.6619364768019977,101.95601564797366 A 91 91 0 0 1 0.09502212372315455 95.15752297812259 L 91,91 Z"/><path fill-rule="evenodd" fill="#427819" d="M 0.09502212372315455,95.15752297812259 A 91 91 0 0 1 0.036843902292318376 93.58925331786287 L 91,91 Z"/><path fill-rule="evenodd" fill="#8f14e9" d="M 0.036843902292318376,93.58925331786287 A 91 91 0 0 1 0.01522976823069655 92.66480805864991 L 91,91 Z"/><path fill-rule="evenodd" fill="#5686a5" d="M 0.01522976823069655,92.66480805864991 A 91 91 0 0 1 0.004787510249542493 91.93343663157222 L 91,91 Z"/><path fill-rule="evenodd" fill="#C1F12E" d="M 0.004787510249542493,91.93343663157222 A 91 91 0 0 1 0.0013591307981641876 91.49735295116005 L 91,91 Z"/><path fill-rule="evenodd" fill="#e34c26" d="M 0.0013591307981641876,91.49735295116005 A 91 91 0 0 1 0.00013759826053671986 91.15824937436263 L 91,91 Z"/><path fill-rule="evenodd" fill="#701516" d="M 0.00013759826053671986,91.15824937436263 A 91 91 0 0 1 0.0 91.00000000000003 L 91,91 Z"/></g><g transform="translate(15, 21)"><rect x="0.5" y="0.5" rx="2" width="15" height="15" fill="#f34b7d" stroke-width="1" stroke="#000000"/><text transform="scale(0.095)" x="263" y="132" textLength="1074" lengthAdjust="spacingAndGlyphs">C++ 42.81%</text></g><g transform="translate(15, 42)"><rect x="0.5" y="0.5" rx="2" width="15" height="15" fill="#438eff" stroke-width="1" stroke="#000000"/><text transform="scale(0.095)" x="263" y="132" textLength="1642" lengthAdjust="spacingAndGlyphs">Objective-C 16.10%</text></g><g transform="translate(15, 63)"><rect x="0.5" y="0.5" rx="2" width="15" height="15" fill="#555555" stroke-width="1" stroke="#000000"/><text transform="scale(0.095)" x="263" y="132" textLength="693" lengthAdjust="spacingAndGlyphs">C 8.75%</text></g><g transform="translate(15, 84)"><rect x="0.5" y="0.5" rx="2" width="15" height="15" fill="#b07219" stroke-width="1" stroke="#000000"/><text transform="scale(0.095)" x="263" y="132" textLength="933" lengthAdjust="spacingAndGlyphs">Java 6.44%</text></g><g transform="translate(15, 105)"><rect x="0.5" y="0.5" rx="2" width="15" height="15" fill="#00ADD8" stroke-width="1" stroke="#000000"/><text transform="scale(0.095)" x="263" y="132" textLength="806" lengthAdjust="spacingAndGlyphs">Go 5.17%</text></g><g transform="translate(15, 126)"><rect x="0.5" y="0.5" rx="2" width="15" height="15" fill="#A97BFF" stroke-width="1" stroke="#000000"/><text transform="scale(0.095)" x="263" y="132" textLength="1048" lengthAdjust="spacingAndGlyphs">Kotlin 4.90%</text></g><g transform="translate(15, 147)"><rect x="0.5" y="0.5" rx="2" width="15" height="15" fill="#000080" stroke-width="1" stroke="#000000"/><text transform="scale(0.095)" x="263" y="132" textLength="874" lengthAdjust="spacingAndGlyphs">Lua 3.77%</text></g><g transform="translate(15, 168)"><rect x="0.5" y="0.5" rx="2" width="15" height="15" fill="#f1e05a" stroke-width="1" stroke="#000000"/><text transform="scale(0.095)" x="263" y="132" textLength="1412" lengthAdjust="spacingAndGlyphs">JavaScript 2.68%</text></g><g transform="translate(15, 189)"><rect x="0.5" y="0.5" rx="2" width="15" height="15" fill="#dea584" stroke-width="1" stroke="#000000"/><text transform="scale(0.095)" x="263" y="132" textLength="946" lengthAdjust="spacingAndGlyphs">Rust 2.43%</text></g><g transform="translate(15, 210)"><rect x="0.5" y="0.5" rx="2" width="15" height="15" fill="#3178c6" stroke-width="1" stroke="#000000"/><text transform="scale(0.095)" x="263" y="132" textLength="1462" lengthAdjust="spacingAndGlyphs">TypeScript 1.92%</text><rect x="228.5" y="0.5" rx="2" width="15" height="15" fill="#6866fb" stroke-width="1" stroke="#000000"/><text transform="scale(0.095)" x="2663" y="132" textLength="1814" lengthAdjust="spacingAndGlyphs">Objective-C++ 1.58%</text></g><g transform="translate(15, 231)"><rect x="0.5" y="0.5" rx="2" width="15" height="15" fill="#DA3434" stroke-width="1" stroke="#000000"/><text transform="scale(0.095)" x="263" y="132" textLength="1134" lengthAdjust="spacingAndGlyphs">CMake 1.54%</text><rect x="228.5" y="0.5" rx="2" width="15" height="15" fill="#89e051" stroke-width="1" stroke="#000000"/><text transform="scale(0.095)" x="2663" y="132" textLength="982" lengthAdjust="spacingAndGlyphs">Shell 1.19%</text></g><g transform="translate(15, 252)"><rect x="0.5" y="0.5" rx="2" width="15" height="15" fill="#427819" stroke-width="1" stroke="#000000"/><text transform="scale(0.095)" x="263" y="132" textLength="1272" lengthAdjust="spacingAndGlyphs">Makefile 0.27%</text><rect x="228.5" y="0.5" rx="2" width="15" height="15" fill="#8f14e9" stroke-width="1" stroke="#000000"/><text transform="scale(0.095)" x="2663" y="132" textLength="1034" lengthAdjust="spacingAndGlyphs">Metal 0.16%</text></g><g transform="translate(15, 273)"><rect x="0.5" y="0.5" rx="2" width="15" height="15" fill="#5686a5" stroke-width="1" stroke="#000000"/><text transform="scale(0.095)" x="263" y="132" textLength="993" lengthAdjust="spacingAndGlyphs">GLSL 0.13%</text><rect x="228.5" y="0.5" rx="2" width="15" height="15" fill="#C1F12E" stroke-width="1" stroke="#000000"/><text transform="scale(0.095)" x="2663" y="132" textLength="1304" lengthAdjust="spacingAndGlyphs">Batchfile 0.08%</text></g><g transform="translate(15, 294)"><rect x="0.5" y="0.5" rx="2" width="15" height="15" fill="#e34c26" stroke-width="1" stroke="#000000"/><text transform="scale(0.095)" x="263" y="132" textLength="1036" lengthAdjust="spacingAndGlyphs">HTML 0.06%</text><rect x="228.5" y="0.5" rx="2" width="15" height="15" fill="#701516" stroke-width="1" stroke="#000000"/><text transform="scale(0.095)" x="2663" y="132" textLength="999" lengthAdjust="spacingAndGlyphs">Ruby 0.03%</text></g></g></g></svg>