<svg width="457" height="354" viewBox="0 0 457 354" xmlns="http://www.w3.org/2000/svg" lang="en" xml:lang="en"><rect x="2" y="2" stroke-width="4" rx="0" width="453" height="350" stroke="#ffffff" fill="#ffffff"/><g font-weight="600" font-size="110pt" font-family="Verdana,Geneva,DejaVu Sans,sans-serif" text-rendering="geometricPrecision"><text x="1828" y="301" lengthAdjust="spacingAndGlyphs" textLength="52" transform="scale(0.123)" fill="#0969da">.</text><g transform="translate(0, 60)" fill="#24292f"><g transform="translate(15, 0)"><g transform="scale(0.095)"><text x="0" y="132" textLength="3652" lengthAdjust="spacingAndGlyphs">Language Distribution in Public Repositories</text></g></g><g transform="translate(243, 21)"><circle cx="92" cy="92" r="92" fill="#000000"/></g><g transform="translate(244, 22)"><path fill-rule="evenodd" fill="#f34b7d" d="M 0.0,91.00000000000001 A 91 91 0 1 1 179.77125707975452 111.01659103044602 L 91,91 Z"/><path fill-rule="evenodd" fill="#438eff" d="M 179.77125707975452,111.01659103044602 A 91 91 0 0 1 142.3167184278799 166.15047844021814 L 91,91 Z"/><path fill-rule="evenodd" fill="#555555" d="M 142.3167184278799,166.15047844021814 A 91 91 0 0 1 108.1922650197296 180.36121095582456 L 91,91 Z"/><path fill-rule="evenodd" fill="#dea584" d="M 108.1922650197296,180.36121095582456 A 91 91 0 0 1 73.85045967690942 180.36942019900707 L 91,91 Z"/><path fill-rule="evenodd" fill="#b07219" d="M 73.85045967690942,180.36942019900707 A 91 91 0 0 1 47.60772435939249 170.98818922021889 L 91,91 Z"/><path fill-rule="evenodd" fill="#00ADD8" d="M 47.60772435939249,170.98818922021889 A 91 91 0 0 1 29.387906995954054 157.96976926689229 L 91,91 Z"/><path fill-rule="evenodd" fill="#A97BFF" d="M 29.387906995954054,157.96976926689229 A 91 91 0 0 1 18.063358216499623 145.41733441969888 L 91,91 Z"/><path fill-rule="evenodd" fill="#f1e05a" d="M 18.063358216499623,145.41733441969888 A 91 91 0 0 1 9.54906848137692 131.58011526287936 L 91,91 Z"/><path fill-rule="evenodd" fill="#000080" d="M 9.54906848137692,131.58011526287936 A 91 91 0 0 1 3.656071457125776 116.5350376286639 L 91,91 Z"/><path fill-rule="evenodd" fill="#DA3434" d="M 3.656071457125776,116.5350376286639 A 91 91 0 0 1 0.5262579112106067 100.77251208498703 L 91,91 Z"/><path fill-rule="evenodd" fill="#6866fb" d="M 0.5262579112106067,100.77251208498703 A 91 91 0 0 1 0.017292176069219067 92.77394391829147 L 91,91 Z"/><path fill-rule="evenodd" fill="#8f14e9" d="M 0.017292176069219067,92.77394391829147 A 91 91 0 0 1 0.006305953263066044 92.07128134905476 L 91,91 Z"/><path fill-rule="evenodd" fill="#5686a5" d="M 0.006305953263066044,92.07128134905476 A 91 91 0 0 1 0.0014596770893433586 91.51542128361461 L 91,91 Z"/><path fill-rule="evenodd" fill="#959da5" d="M 0.0014596770893433586,91.51542128361461 A 91 91 0 0 1 0.0 91.00000000000003 L 91,91 Z"/></g><g transform="translate(15, 21)"><rect x="0.5" y="0.5" rx="2" width="15" height="15" fill="#f34b7d" stroke-width="1" stroke="#000000"/><text transform="scale(0.095)" x="263" y="132" textLength="1074" lengthAdjust="spacingAndGlyphs">C++ 53.53%</text></g><g transform="translate(15, 42)"><rect x="0.5" y="0.5" rx="2" width="15" height="15" fill="#438eff" stroke-width="1" stroke="#000000"/><text transform="scale(0.095)" x="263" y="132" textLength="1642" lengthAdjust="spacingAndGlyphs">Objective-C 11.93%</text></g><g transform="translate(15, 63)"><rect x="0.5" y="0.5" rx="2" width="15" height="15" fill="#555555" stroke-width="1" stroke="#000000"/><text transform="scale(0.095)" x="263" y="132" textLength="693" lengthAdjust="spacingAndGlyphs">C 6.51%</text></g><g transform="translate(15, 84)"><rect x="0.5" y="0.5" rx="2" width="15" height="15" fill="#dea584" stroke-width="1" stroke="#000000"/><text transform="scale(0.095)" x="263" y="132" textLength="946" lengthAdjust="spacingAndGlyphs">Rust 6.04%</text></g><g transform="translate(15, 105)"><rect x="0.5" y="0.5" rx="2" width="15" height="15" fill="#b07219" stroke-width="1" stroke="#000000"/><text transform="scale(0.095)" x="263" y="132" textLength="933" lengthAdjust="spacingAndGlyphs">Java 4.89%</text></g><g transform="translate(15, 126)"><rect x="0.5" y="0.5" rx="2" width="15" height="15" fill="#00ADD8" stroke-width="1" stroke="#000000"/><text transform="scale(0.095)" x="263" y="132" textLength="806" lengthAdjust="spacingAndGlyphs">Go 3.93%</text></g><g transform="translate(15, 147)"><rect x="0.5" y="0.5" rx="2" width="15" height="15" fill="#A97BFF" stroke-width="1" stroke="#000000"/><text transform="scale(0.095)" x="263" y="132" textLength="1048" lengthAdjust="spacingAndGlyphs">Kotlin 2.96%</text></g><g transform="translate(15, 168)"><rect x="0.5" y="0.5" rx="2" width="15" height="15" fill="#f1e05a" stroke-width="1" stroke="#000000"/><text transform="scale(0.095)" x="263" y="132" textLength="1412" lengthAdjust="spacingAndGlyphs">JavaScript 2.85%</text></g><g transform="translate(15, 189)"><rect x="0.5" y="0.5" rx="2" width="15" height="15" fill="#000080" stroke-width="1" stroke="#000000"/><text transform="scale(0.095)" x="263" y="132" textLength="874" lengthAdjust="spacingAndGlyphs">Lua 2.83%</text></g><g transform="translate(15, 210)"><rect x="0.5" y="0.5" rx="2" width="15" height="15" fill="#DA3434" stroke-width="1" stroke="#000000"/><text transform="scale(0.095)" x="263" y="132" textLength="1134" lengthAdjust="spacingAndGlyphs">CMake 2.81%</text><rect x="228.5" y="0.5" rx="2" width="15" height="15" fill="#6866fb" stroke-width="1" stroke="#000000"/><text transform="scale(0.095)" x="2663" y="132" textLength="1814" lengthAdjust="spacingAndGlyphs">Objective-C++ 1.40%</text></g><g transform="translate(15, 231)"><rect x="0.5" y="0.5" rx="2" width="15" height="15" fill="#8f14e9" stroke-width="1" stroke="#000000"/><text transform="scale(0.095)" x="263" y="132" textLength="1034" lengthAdjust="spacingAndGlyphs">Metal 0.12%</text><rect x="228.5" y="0.5" rx="2" width="15" height="15" fill="#5686a5" stroke-width="1" stroke="#000000"/><text transform="scale(0.095)" x="2663" y="132" textLength="993" lengthAdjust="spacingAndGlyphs">GLSL 0.10%</text></g><g transform="translate(15, 252)"><rect x="0.5" y="0.5" rx="2" width="15" height="15" fill="#959da5" stroke-width="1" stroke="#000000"/><text transform="scale(0.095)" x="263" y="132" textLength="1047" lengthAdjust="spacingAndGlyphs">Other 0.09%</text></g></g></g></svg>