<svg width="457" height="354" viewBox="0 0 457 354" xmlns="http://www.w3.org/2000/svg" lang="en" xml:lang="en"><rect x="2" y="2" stroke-width="4" rx="0" width="453" height="350" stroke="#ffffff" fill="#ffffff"/><g font-weight="600" font-size="110pt" font-family="Verdana,Geneva,DejaVu Sans,sans-serif" text-rendering="geometricPrecision"><text x="1796" y="301" lengthAdjust="spacingAndGlyphs" textLength="116" transform="scale(0.123)" fill="#0969da">📊</text><g transform="translate(0, 60)" fill="#24292f"><g transform="translate(15, 0)"><g transform="scale(0.095)"><text x="0" y="132" textLength="3652" lengthAdjust="spacingAndGlyphs">Language Distribution in Public Repositories</text></g></g><g transform="translate(243, 21)"><circle cx="92" cy="92" r="92" fill="#000000"/></g><g transform="translate(244, 22)"><path fill-rule="evenodd" fill="#f34b7d" d="M 0.0,91.00000000000001 A 91 91 0 0 1 180.78296097211813 76.1669315689871 L 91,91 Z"/><path fill-rule="evenodd" fill="#438eff" d="M 180.78296097211813,76.1669315689871 A 91 91 0 0 1 161.62580919605827 148.38462403294082 L 91,91 Z"/><path fill-rule="evenodd" fill="#555555" d="M 161.62580919605827,148.38462403294082 A 91 91 0 0 1 129.90321619633514 173.26505801117025 L 91,91 Z"/><path fill-rule="evenodd" fill="#dea584" d="M 129.90321619633514,173.26505801117025 A 91 91 0 0 1 93.31192875043183 181.97062704770659 L 91,91 Z"/><path fill-rule="evenodd" fill="#b07219" d="M 93.31192875043183,181.97062704770659 A 91 91 0 0 1 63.053347767982366 177.60245163401936 L 91,91 Z"/><path fill-rule="evenodd" fill="#00ADD8" d="M 63.053347767982366,177.60245163401936 A 91 91 0 0 1 40.9017644716842 166.96819595692264 L 91,91 Z"/><path fill-rule="evenodd" fill="#A97BFF" d="M 40.9017644716842,166.96819595692264 A 91 91 0 0 1 23.162406838005978 151.65526320104283 L 91,91 Z"/><path fill-rule="evenodd" fill="#3178c6" d="M 23.162406838005978,151.65526320104283 A 91 91 0 0 1 10.406346393418858 133.25710589170075 L 91,91 Z"/><path fill-rule="evenodd" fill="#000080" d="M 10.406346393418858,133.25710589170075 A 91 91 0 0 1 4.903942382303569 120.46979576940257 L 91,91 Z"/><path fill-rule="evenodd" fill="#f1e05a" d="M 4.903942382303569,120.46979576940257 A 91 91 0 0 1 1.4906559635714984 107.4035767492422 L 91,91 Z"/><path fill-rule="evenodd" fill="#6866fb" d="M 1.4906559635714984,107.4035767492422 A 91 91 0 0 1 0.3245607034518656 98.67884811531094 L 91,91 Z"/><path fill-rule="evenodd" fill="#DA3434" d="M 0.3245607034518656,98.67884811531094 A 91 91 0 0 1 0.015193958967202548 92.66284986563501 L 91,91 Z"/><path fill-rule="evenodd" fill="#8f14e9" d="M 0.015193958967202548,92.66284986563501 A 91 91 0 0 1 0.004365917735569269 91.8913910290303 L 91,91 Z"/><path fill-rule="evenodd" fill="#959da5" d="M 0.004365917735569269,91.8913910290303 A 91 91 0 0 1 0.0 91.00000000000003 L 91,91 Z"/></g><g transform="translate(15, 21)"><rect x="0.5" y="0.5" rx="2" width="15" height="15" fill="#f34b7d" stroke-width="1" stroke="#000000"/><text transform="scale(0.095)" x="263" y="132" textLength="1074" lengthAdjust="spacingAndGlyphs">C++ 47.39%</text></g><g transform="translate(15, 42)"><rect x="0.5" y="0.5" rx="2" width="15" height="15" fill="#438eff" stroke-width="1" stroke="#000000"/><text transform="scale(0.095)" x="263" y="132" textLength="1642" lengthAdjust="spacingAndGlyphs">Objective-C 13.47%</text></g><g transform="translate(15, 63)"><rect x="0.5" y="0.5" rx="2" width="15" height="15" fill="#555555" stroke-width="1" stroke="#000000"/><text transform="scale(0.095)" x="263" y="132" textLength="693" lengthAdjust="spacingAndGlyphs">C 7.11%</text></g><g transform="translate(15, 84)"><rect x="0.5" y="0.5" rx="2" width="15" height="15" fill="#dea584" stroke-width="1" stroke="#000000"/><text transform="scale(0.095)" x="263" y="132" textLength="946" lengthAdjust="spacingAndGlyphs">Rust 6.63%</text></g><g transform="translate(15, 105)"><rect x="0.5" y="0.5" rx="2" width="15" height="15" fill="#b07219" stroke-width="1" stroke="#000000"/><text transform="scale(0.095)" x="263" y="132" textLength="933" lengthAdjust="spacingAndGlyphs">Java 5.37%</text></g><g transform="translate(15, 126)"><rect x="0.5" y="0.5" rx="2" width="15" height="15" fill="#00ADD8" stroke-width="1" stroke="#000000"/><text transform="scale(0.095)" x="263" y="132" textLength="806" lengthAdjust="spacingAndGlyphs">Go 4.31%</text></g><g transform="translate(15, 147)"><rect x="0.5" y="0.5" rx="2" width="15" height="15" fill="#A97BFF" stroke-width="1" stroke="#000000"/><text transform="scale(0.095)" x="263" y="132" textLength="1048" lengthAdjust="spacingAndGlyphs">Kotlin 4.11%</text></g><g transform="translate(15, 168)"><rect x="0.5" y="0.5" rx="2" width="15" height="15" fill="#3178c6" stroke-width="1" stroke="#000000"/><text transform="scale(0.095)" x="263" y="132" textLength="1462" lengthAdjust="spacingAndGlyphs">TypeScript 3.93%</text></g><g transform="translate(15, 189)"><rect x="0.5" y="0.5" rx="2" width="15" height="15" fill="#000080" stroke-width="1" stroke="#000000"/><text transform="scale(0.095)" x="263" y="132" textLength="874" lengthAdjust="spacingAndGlyphs">Lua 2.44%</text></g><g transform="translate(15, 210)"><rect x="0.5" y="0.5" rx="2" width="15" height="15" fill="#f1e05a" stroke-width="1" stroke="#000000"/><text transform="scale(0.095)" x="263" y="132" textLength="1412" lengthAdjust="spacingAndGlyphs">JavaScript 2.36%</text><rect x="228.5" y="0.5" rx="2" width="15" height="15" fill="#6866fb" stroke-width="1" stroke="#000000"/><text transform="scale(0.095)" x="2663" y="132" textLength="1814" lengthAdjust="spacingAndGlyphs">Objective-C++ 1.54%</text></g><g transform="translate(15, 231)"><rect x="0.5" y="0.5" rx="2" width="15" height="15" fill="#DA3434" stroke-width="1" stroke="#000000"/><text transform="scale(0.095)" x="263" y="132" textLength="1134" lengthAdjust="spacingAndGlyphs">CMake 1.05%</text><rect x="228.5" y="0.5" rx="2" width="15" height="15" fill="#8f14e9" stroke-width="1" stroke="#000000"/><text transform="scale(0.095)" x="2663" y="132" textLength="1034" lengthAdjust="spacingAndGlyphs">Metal 0.13%</text></g><g transform="translate(15, 252)"><rect x="0.5" y="0.5" rx="2" width="15" height="15" fill="#959da5" stroke-width="1" stroke="#000000"/><text transform="scale(0.095)" x="263" y="132" textLength="1047" lengthAdjust="spacingAndGlyphs">Other 0.16%</text></g></g></g></svg>