<svg width="457" height="333" viewBox="0 0 457 333" xmlns="http://www.w3.org/2000/svg" lang="en" xml:lang="en"><rect x="2" y="2" stroke-width="4" rx="0" width="453" height="329" stroke="#ffffff" fill="#ffffff"/><g font-weight="600" font-size="110pt" font-family="Verdana,Geneva,DejaVu Sans,sans-serif" text-rendering="geometricPrecision"><text x="1828" y="301" lengthAdjust="spacingAndGlyphs" textLength="52" transform="scale(0.123)" fill="#0969da">.</text><g transform="translate(0, 60)" fill="#24292f"><g transform="translate(15, 0)"><g transform="scale(0.095)"><text x="0" y="132" textLength="3652" lengthAdjust="spacingAndGlyphs">Language Distribution in Public Repositories</text></g></g><g transform="translate(243, 21)"><circle cx="92" cy="92" r="92" fill="#000000"/></g><g transform="translate(244, 22)"><path fill-rule="evenodd" fill="#f34b7d" d="M 0.0,91.00000000000001 A 91 91 0 1 1 166.3912994269798 141.96226025905327 L 91,91 Z"/><path fill-rule="evenodd" fill="#555555" d="M 166.3912994269798,141.96226025905327 A 91 91 0 0 1 136.94722033408485 169.54841146433873 L 91,91 Z"/><path fill-rule="evenodd" fill="#dea584" d="M 136.94722033408485,169.54841146433873 A 91 91 0 0 1 101.17859797384551 181.42895633195613 L 91,91 Z"/><path fill-rule="evenodd" fill="#438eff" d="M 101.17859797384551,181.42895633195613 A 91 91 0 0 1 67.67915271515534 178.96100318844117 L 91,91 Z"/><path fill-rule="evenodd" fill="#b07219" d="M 67.67915271515534,178.96100318844117 A 91 91 0 0 1 39.84101136403338 166.25794231670858 L 91,91 Z"/><path fill-rule="evenodd" fill="#00ADD8" d="M 39.84101136403338,166.25794231670858 A 91 91 0 0 1 21.556524713636136 149.8098949170305 L 91,91 Z"/><path fill-rule="evenodd" fill="#DA3434" d="M 21.556524713636136,149.8098949170305 A 91 91 0 0 1 11.517013765037476 135.3108891715429 L 91,91 Z"/><path fill-rule="evenodd" fill="#A97BFF" d="M 11.517013765037476,135.3108891715429 A 91 91 0 0 1 4.731945909173845 119.96243849164452 L 91,91 Z"/><path fill-rule="evenodd" fill="#000080" d="M 4.731945909173845,119.96243849164452 A 91 91 0 0 1 1.2484099847329588 106.0217205982343 L 91,91 Z"/><path fill-rule="evenodd" fill="#f1e05a" d="M 1.2484099847329588,106.0217205982343 A 91 91 0 0 1 0.11073062351175622 95.48784048381367 L 91,91 Z"/><path fill-rule="evenodd" fill="#6866fb" d="M 0.11073062351175622,95.48784048381367 A 91 91 0 0 1 0.010510202814373315 92.38302076913334 L 91,91 Z"/><path fill-rule="evenodd" fill="#8f14e9" d="M 0.010510202814373315,92.38302076913334 A 91 91 0 0 1 0.0020501489902642334 91.61083787793315 L 91,91 Z"/><path fill-rule="evenodd" fill="#5686a5" d="M 0.0020501489902642334,91.61083787793315 A 91 91 0 0 1 0.0 91.00000000000003 L 91,91 Z"/></g><g transform="translate(15, 21)"><rect x="0.5" y="0.5" rx="2" width="15" height="15" fill="#f34b7d" stroke-width="1" stroke="#000000"/><text transform="scale(0.095)" x="263" y="132" textLength="1074" lengthAdjust="spacingAndGlyphs">C++ 59.46%</text></g><g transform="translate(15, 42)"><rect x="0.5" y="0.5" rx="2" width="15" height="15" fill="#555555" stroke-width="1" stroke="#000000"/><text transform="scale(0.095)" x="263" y="132" textLength="693" lengthAdjust="spacingAndGlyphs">C 7.12%</text></g><g transform="translate(15, 63)"><rect x="0.5" y="0.5" rx="2" width="15" height="15" fill="#dea584" stroke-width="1" stroke="#000000"/><text transform="scale(0.095)" x="263" y="132" textLength="946" lengthAdjust="spacingAndGlyphs">Rust 6.64%</text></g><g transform="translate(15, 84)"><rect x="0.5" y="0.5" rx="2" width="15" height="15" fill="#438eff" stroke-width="1" stroke="#000000"/><text transform="scale(0.095)" x="263" y="132" textLength="1538" lengthAdjust="spacingAndGlyphs">Objective-C 5.91%</text></g><g transform="translate(15, 105)"><rect x="0.5" y="0.5" rx="2" width="15" height="15" fill="#b07219" stroke-width="1" stroke="#000000"/><text transform="scale(0.095)" x="263" y="132" textLength="933" lengthAdjust="spacingAndGlyphs">Java 5.38%</text></g><g transform="translate(15, 126)"><rect x="0.5" y="0.5" rx="2" width="15" height="15" fill="#00ADD8" stroke-width="1" stroke="#000000"/><text transform="scale(0.095)" x="263" y="132" textLength="806" lengthAdjust="spacingAndGlyphs">Go 4.31%</text></g><g transform="translate(15, 147)"><rect x="0.5" y="0.5" rx="2" width="15" height="15" fill="#DA3434" stroke-width="1" stroke="#000000"/><text transform="scale(0.095)" x="263" y="132" textLength="1134" lengthAdjust="spacingAndGlyphs">CMake 3.09%</text></g><g transform="translate(15, 168)"><rect x="0.5" y="0.5" rx="2" width="15" height="15" fill="#A97BFF" stroke-width="1" stroke="#000000"/><text transform="scale(0.095)" x="263" y="132" textLength="1048" lengthAdjust="spacingAndGlyphs">Kotlin 2.94%</text></g><g transform="translate(15, 189)"><rect x="0.5" y="0.5" rx="2" width="15" height="15" fill="#000080" stroke-width="1" stroke="#000000"/><text transform="scale(0.095)" x="263" y="132" textLength="874" lengthAdjust="spacingAndGlyphs">Lua 2.52%</text></g><g transform="translate(15, 210)"><rect x="0.5" y="0.5" rx="2" width="15" height="15" fill="#f1e05a" stroke-width="1" stroke="#000000"/><text transform="scale(0.095)" x="263" y="132" textLength="1412" lengthAdjust="spacingAndGlyphs">JavaScript 1.85%</text><rect x="228.5" y="0.5" rx="2" width="15" height="15" fill="#6866fb" stroke-width="1" stroke="#000000"/><text transform="scale(0.095)" x="2663" y="132" textLength="1814" lengthAdjust="spacingAndGlyphs">Objective-C++ 0.54%</text></g><g transform="translate(15, 231)"><rect x="0.5" y="0.5" rx="2" width="15" height="15" fill="#8f14e9" stroke-width="1" stroke="#000000"/><text transform="scale(0.095)" x="263" y="132" textLength="1034" lengthAdjust="spacingAndGlyphs">Metal 0.14%</text><rect x="228.5" y="0.5" rx="2" width="15" height="15" fill="#5686a5" stroke-width="1" stroke="#000000"/><text transform="scale(0.095)" x="2663" y="132" textLength="993" lengthAdjust="spacingAndGlyphs">GLSL 0.11%</text></g></g></g></svg>