<svg width="457" height="396" viewBox="0 0 457 396" xmlns="http://www.w3.org/2000/svg" lang="en" xml:lang="en"><rect x="2" y="2" stroke-width="4" rx="0" width="453" height="392" stroke="#ffffff" fill="#ffffff"/><g font-weight="600" font-size="110pt" font-family="Verdana,Geneva,DejaVu Sans,sans-serif" text-rendering="geometricPrecision"><text x="895" y="301" lengthAdjust="spacingAndGlyphs" textLength="1917" transform="scale(0.123)" fill="#0969da">Rinc's GitHub Statistics</text><g transform="translate(0, 60)" fill="#24292f"><g transform="translate(15, 0)"><g transform="scale(0.095)"><text x="0" y="132" textLength="3652" lengthAdjust="spacingAndGlyphs">Language Distribution in Public Repositories</text></g></g><g transform="translate(243, 21)"><circle cx="92" cy="92" r="92" fill="#000000"/></g><g transform="translate(244, 22)"><path fill-rule="evenodd" fill="#f34b7d" d="M 0.0,91.00000000000001 A 91 91 0 0 1 168.56790653037564 43.41618051800689 L 91,91 Z"/><path fill-rule="evenodd" fill="#438eff" d="M 168.56790653037564,43.41618051800689 A 91 91 0 0 1 175.39533262411487 125.03568467454437 L 91,91 Z"/><path fill-rule="evenodd" fill="#555555" d="M 175.39533262411487,125.03568467454437 A 91 91 0 0 1 148.1413868388849 161.82274994751978 L 91,91 Z"/><path fill-rule="evenodd" fill="#dea584" d="M 148.1413868388849,161.82274994751978 A 91 91 0 0 1 110.71406561671807 179.83893075031764 L 91,91 Z"/><path fill-rule="evenodd" fill="#b07219" d="M 110.71406561671807,179.83893075031764 A 91 91 0 0 1 76.94953212210744 180.9087557049496 L 91,91 Z"/><path fill-rule="evenodd" fill="#00ADD8" d="M 76.94953212210744,180.9087557049496 A 91 91 0 0 1 51.040056270864795 172.75697460868003 L 91,91 Z"/><path fill-rule="evenodd" fill="#A97BFF" d="M 51.040056270864795,172.75697460868003 A 91 91 0 0 1 29.720721564579776 158.27443819486152 L 91,91 Z"/><path fill-rule="evenodd" fill="#000080" d="M 29.720721564579776,158.27443819486152 A 91 91 0 0 1 16.613987864947006 143.41871038707217 L 91,91 Z"/><path fill-rule="evenodd" fill="#f1e05a" d="M 16.613987864947006,143.41871038707217 A 91 91 0 0 1 9.558970253866462 131.5999836685853 L 91,91 Z"/><path fill-rule="evenodd" fill="#3178c6" d="M 9.558970253866462,131.5999836685853 A 91 91 0 0 1 5.543302426129287 122.27543508519103 L 91,91 Z"/><path fill-rule="evenodd" fill="#DA3434" d="M 5.543302426129287,122.27543508519103 A 91 91 0 0 1 2.5981675883513304 112.58972038408054 L 91,91 Z"/><path fill-rule="evenodd" fill="#6866fb" d="M 2.5981675883513304,112.58972038408054 A 91 91 0 0 1 0.8959310236152334 103.73800431382 L 91,91 Z"/><path fill-rule="evenodd" fill="#89e051" d="M 0.8959310236152334,103.73800431382 A 91 91 0 0 1 0.10097842241962951 95.28577603691298 L 91,91 Z"/><path fill-rule="evenodd" fill="#427819" d="M 0.10097842241962951,95.28577603691298 A 91 91 0 0 1 0.04428003743025499 93.83848658453579 L 91,91 Z"/><path fill-rule="evenodd" fill="#8f14e9" d="M 0.04428003743025499,93.83848658453579 A 91 91 0 0 1 0.02165992034454689 92.98535547208999 L 91,91 Z"/><path fill-rule="evenodd" fill="#C1F12E" d="M 0.02165992034454689,92.98535547208999 A 91 91 0 0 1 0.007066823454806581 92.13406874958326 L 91,91 Z"/><path fill-rule="evenodd" fill="#5686a5" d="M 0.007066823454806581,92.13406874958326 A 91 91 0 0 1 0.0011577049253190808 91.4590217381859 L 91,91 Z"/><path fill-rule="evenodd" fill="#e34c26" d="M 0.0011577049253190808,91.4590217381859 A 91 91 0 0 1 0.00011720588727825998 91.14605292790094 L 91,91 Z"/><path fill-rule="evenodd" fill="#701516" d="M 0.00011720588727825998,91.14605292790094 A 91 91 0 0 1 0.0 91.00000000000003 L 91,91 Z"/></g><g transform="translate(15, 21)"><rect x="0.5" y="0.5" rx="2" width="15" height="15" fill="#f34b7d" stroke-width="1" stroke="#000000"/><text transform="scale(0.095)" x="263" y="132" textLength="1074" lengthAdjust="spacingAndGlyphs">C++ 41.24%</text></g><g transform="translate(15, 42)"><rect x="0.5" y="0.5" rx="2" width="15" height="15" fill="#438eff" stroke-width="1" stroke="#000000"/><text transform="scale(0.095)" x="263" y="132" textLength="1642" lengthAdjust="spacingAndGlyphs">Objective-C 14.86%</text></g><g transform="translate(15, 63)"><rect x="0.5" y="0.5" rx="2" width="15" height="15" fill="#555555" stroke-width="1" stroke="#000000"/><text transform="scale(0.095)" x="263" y="132" textLength="693" lengthAdjust="spacingAndGlyphs">C 8.09%</text></g><g transform="translate(15, 84)"><rect x="0.5" y="0.5" rx="2" width="15" height="15" fill="#dea584" stroke-width="1" stroke="#000000"/><text transform="scale(0.095)" x="263" y="132" textLength="946" lengthAdjust="spacingAndGlyphs">Rust 7.33%</text></g><g transform="translate(15, 105)"><rect x="0.5" y="0.5" rx="2" width="15" height="15" fill="#b07219" stroke-width="1" stroke="#000000"/><text transform="scale(0.095)" x="263" y="132" textLength="933" lengthAdjust="spacingAndGlyphs">Java 5.94%</text></g><g transform="translate(15, 126)"><rect x="0.5" y="0.5" rx="2" width="15" height="15" fill="#00ADD8" stroke-width="1" stroke="#000000"/><text transform="scale(0.095)" x="263" y="132" textLength="806" lengthAdjust="spacingAndGlyphs">Go 4.77%</text></g><g transform="translate(15, 147)"><rect x="0.5" y="0.5" rx="2" width="15" height="15" fill="#A97BFF" stroke-width="1" stroke="#000000"/><text transform="scale(0.095)" x="263" y="132" textLength="1048" lengthAdjust="spacingAndGlyphs">Kotlin 4.52%</text></g><g transform="translate(15, 168)"><rect x="0.5" y="0.5" rx="2" width="15" height="15" fill="#000080" stroke-width="1" stroke="#000000"/><text transform="scale(0.095)" x="263" y="132" textLength="874" lengthAdjust="spacingAndGlyphs">Lua 3.47%</text></g><g transform="translate(15, 189)"><rect x="0.5" y="0.5" rx="2" width="15" height="15" fill="#f1e05a" stroke-width="1" stroke="#000000"/><text transform="scale(0.095)" x="263" y="132" textLength="1412" lengthAdjust="spacingAndGlyphs">JavaScript 2.41%</text></g><g transform="translate(15, 210)"><rect x="0.5" y="0.5" rx="2" width="15" height="15" fill="#3178c6" stroke-width="1" stroke="#000000"/><text transform="scale(0.095)" x="263" y="132" textLength="1462" lengthAdjust="spacingAndGlyphs">TypeScript 1.78%</text><rect x="228.5" y="0.5" rx="2" width="15" height="15" fill="#DA3434" stroke-width="1" stroke="#000000"/><text transform="scale(0.095)" x="2663" y="132" textLength="1134" lengthAdjust="spacingAndGlyphs">CMake 1.77%</text></g><g transform="translate(15, 231)"><rect x="0.5" y="0.5" rx="2" width="15" height="15" fill="#6866fb" stroke-width="1" stroke="#000000"/><text transform="scale(0.095)" x="263" y="132" textLength="1814" lengthAdjust="spacingAndGlyphs">Objective-C++ 1.58%</text><rect x="228.5" y="0.5" rx="2" width="15" height="15" fill="#89e051" stroke-width="1" stroke="#000000"/><text transform="scale(0.095)" x="2663" y="132" textLength="982" lengthAdjust="spacingAndGlyphs">Shell 1.49%</text></g><g transform="translate(15, 252)"><rect x="0.5" y="0.5" rx="2" width="15" height="15" fill="#427819" stroke-width="1" stroke="#000000"/><text transform="scale(0.095)" x="263" y="132" textLength="1272" lengthAdjust="spacingAndGlyphs">Makefile 0.25%</text><rect x="228.5" y="0.5" rx="2" width="15" height="15" fill="#8f14e9" stroke-width="1" stroke="#000000"/><text transform="scale(0.095)" x="2663" y="132" textLength="1034" lengthAdjust="spacingAndGlyphs">Metal 0.15%</text></g><g transform="translate(15, 273)"><rect x="0.5" y="0.5" rx="2" width="15" height="15" fill="#C1F12E" stroke-width="1" stroke="#000000"/><text transform="scale(0.095)" x="263" y="132" textLength="1304" lengthAdjust="spacingAndGlyphs">Batchfile 0.15%</text><rect x="228.5" y="0.5" rx="2" width="15" height="15" fill="#5686a5" stroke-width="1" stroke="#000000"/><text transform="scale(0.095)" x="2663" y="132" textLength="993" lengthAdjust="spacingAndGlyphs">GLSL 0.12%</text></g><g transform="translate(15, 294)"><rect x="0.5" y="0.5" rx="2" width="15" height="15" fill="#e34c26" stroke-width="1" stroke="#000000"/><text transform="scale(0.095)" x="263" y="132" textLength="1036" lengthAdjust="spacingAndGlyphs">HTML 0.05%</text><rect x="228.5" y="0.5" rx="2" width="15" height="15" fill="#701516" stroke-width="1" stroke="#000000"/><text transform="scale(0.095)" x="2663" y="132" textLength="999" lengthAdjust="spacingAndGlyphs">Ruby 0.03%</text></g></g></g></svg>