<svg width="457" height="354" viewBox="0 0 457 354" xmlns="http://www.w3.org/2000/svg" lang="en" xml:lang="en"><rect x="2" y="2" stroke-width="4" rx="0" width="453" height="350" stroke="#ffffff" fill="#ffffff"/><g font-weight="600" font-size="110pt" font-family="Verdana,Geneva,DejaVu Sans,sans-serif" text-rendering="geometricPrecision"><text x="1828" y="301" lengthAdjust="spacingAndGlyphs" textLength="52" transform="scale(0.123)" fill="#0969da">.</text><g transform="translate(0, 60)" fill="#24292f"><g transform="translate(15, 0)"><g transform="scale(0.095)"><text x="0" y="132" textLength="3652" lengthAdjust="spacingAndGlyphs">Language Distribution in Public Repositories</text></g></g><g transform="translate(243, 21)"><circle cx="92" cy="92" r="92" fill="#000000"/></g><g transform="translate(244, 22)"><path fill-rule="evenodd" fill="#f34b7d" d="M 0.0,91.00000000000001 A 91 91 0 1 1 180.57504508041 107.04092574767789 L 91,91 Z"/><path fill-rule="evenodd" fill="#438eff" d="M 180.57504508041,107.04092574767789 A 91 91 0 0 1 144.319910817426 164.74270886278683 L 91,91 Z"/><path fill-rule="evenodd" fill="#555555" d="M 144.319910817426,164.74270886278683 A 91 91 0 0 1 109.83423503451752 180.02961075206696 L 91,91 Z"/><path fill-rule="evenodd" fill="#dea584" d="M 109.83423503451752,180.02961075206696 A 91 91 0 0 1 74.73813815827843 180.5351989412028 L 91,91 Z"/><path fill-rule="evenodd" fill="#b07219" d="M 74.73813815827843,180.5351989412028 A 91 91 0 0 1 47.82212754058526 171.1041280451795 L 91,91 Z"/><path fill-rule="evenodd" fill="#00ADD8" d="M 47.82212754058526,171.1041280451795 A 91 91 0 0 1 29.178284801839624 157.7763096461428 L 91,91 Z"/><path fill-rule="evenodd" fill="#A97BFF" d="M 29.178284801839624,157.7763096461428 A 91 91 0 0 1 17.656284648168025 144.8674244640436 L 91,91 Z"/><path fill-rule="evenodd" fill="#f1e05a" d="M 17.656284648168025,144.8674244640436 A 91 91 0 0 1 9.07863438825244 130.62183559991112 L 91,91 Z"/><path fill-rule="evenodd" fill="#000080" d="M 9.07863438825244,130.62183559991112 A 91 91 0 0 1 3.2606255258564687 115.14129588249169 L 91,91 Z"/><path fill-rule="evenodd" fill="#DA3434" d="M 3.2606255258564687,115.14129588249169 A 91 91 0 0 1 0.5513256427261553 101.00186517664753 L 91,91 Z"/><path fill-rule="evenodd" fill="#6866fb" d="M 0.5513256427261553,101.00186517664753 A 91 91 0 0 1 0.01811667653942095 92.81573866957942 L 91,91 Z"/><path fill-rule="evenodd" fill="#8f14e9" d="M 0.01811667653942095,92.81573866957942 A 91 91 0 0 1 0.006606630923485568 92.09652322387706 L 91,91 Z"/><path fill-rule="evenodd" fill="#5686a5" d="M 0.006606630923485568,92.09652322387706 A 91 91 0 0 1 0.0015292774107109608 91.52756625182022 L 91,91 Z"/><path fill-rule="evenodd" fill="#959da5" d="M 0.0015292774107109608,91.52756625182022 A 91 91 0 0 1 0.0 91.00000000000003 L 91,91 Z"/></g><g transform="translate(15, 21)"><rect x="0.5" y="0.5" rx="2" width="15" height="15" fill="#f34b7d" stroke-width="1" stroke="#000000"/><text transform="scale(0.095)" x="263" y="132" textLength="1074" lengthAdjust="spacingAndGlyphs">C++ 52.82%</text></g><g transform="translate(15, 42)"><rect x="0.5" y="0.5" rx="2" width="15" height="15" fill="#438eff" stroke-width="1" stroke="#000000"/><text transform="scale(0.095)" x="263" y="132" textLength="1642" lengthAdjust="spacingAndGlyphs">Objective-C 12.22%</text></g><g transform="translate(15, 63)"><rect x="0.5" y="0.5" rx="2" width="15" height="15" fill="#555555" stroke-width="1" stroke="#000000"/><text transform="scale(0.095)" x="263" y="132" textLength="693" lengthAdjust="spacingAndGlyphs">C 6.65%</text></g><g transform="translate(15, 84)"><rect x="0.5" y="0.5" rx="2" width="15" height="15" fill="#dea584" stroke-width="1" stroke="#000000"/><text transform="scale(0.095)" x="263" y="132" textLength="946" lengthAdjust="spacingAndGlyphs">Rust 6.18%</text></g><g transform="translate(15, 105)"><rect x="0.5" y="0.5" rx="2" width="15" height="15" fill="#b07219" stroke-width="1" stroke="#000000"/><text transform="scale(0.095)" x="263" y="132" textLength="933" lengthAdjust="spacingAndGlyphs">Java 5.01%</text></g><g transform="translate(15, 126)"><rect x="0.5" y="0.5" rx="2" width="15" height="15" fill="#00ADD8" stroke-width="1" stroke="#000000"/><text transform="scale(0.095)" x="263" y="132" textLength="806" lengthAdjust="spacingAndGlyphs">Go 4.02%</text></g><g transform="translate(15, 147)"><rect x="0.5" y="0.5" rx="2" width="15" height="15" fill="#A97BFF" stroke-width="1" stroke="#000000"/><text transform="scale(0.095)" x="263" y="132" textLength="1048" lengthAdjust="spacingAndGlyphs">Kotlin 3.03%</text></g><g transform="translate(15, 168)"><rect x="0.5" y="0.5" rx="2" width="15" height="15" fill="#f1e05a" stroke-width="1" stroke="#000000"/><text transform="scale(0.095)" x="263" y="132" textLength="1412" lengthAdjust="spacingAndGlyphs">JavaScript 2.91%</text></g><g transform="translate(15, 189)"><rect x="0.5" y="0.5" rx="2" width="15" height="15" fill="#000080" stroke-width="1" stroke="#000000"/><text transform="scale(0.095)" x="263" y="132" textLength="874" lengthAdjust="spacingAndGlyphs">Lua 2.90%</text></g><g transform="translate(15, 210)"><rect x="0.5" y="0.5" rx="2" width="15" height="15" fill="#DA3434" stroke-width="1" stroke="#000000"/><text transform="scale(0.095)" x="263" y="132" textLength="1134" lengthAdjust="spacingAndGlyphs">CMake 2.52%</text><rect x="228.5" y="0.5" rx="2" width="15" height="15" fill="#6866fb" stroke-width="1" stroke="#000000"/><text transform="scale(0.095)" x="2663" y="132" textLength="1814" lengthAdjust="spacingAndGlyphs">Objective-C++ 1.44%</text></g><g transform="translate(15, 231)"><rect x="0.5" y="0.5" rx="2" width="15" height="15" fill="#8f14e9" stroke-width="1" stroke="#000000"/><text transform="scale(0.095)" x="263" y="132" textLength="1034" lengthAdjust="spacingAndGlyphs">Metal 0.13%</text><rect x="228.5" y="0.5" rx="2" width="15" height="15" fill="#5686a5" stroke-width="1" stroke="#000000"/><text transform="scale(0.095)" x="2663" y="132" textLength="993" lengthAdjust="spacingAndGlyphs">GLSL 0.10%</text></g><g transform="translate(15, 252)"><rect x="0.5" y="0.5" rx="2" width="15" height="15" fill="#959da5" stroke-width="1" stroke="#000000"/><text transform="scale(0.095)" x="263" y="132" textLength="1047" lengthAdjust="spacingAndGlyphs">Other 0.09%</text></g></g></g></svg>