<svg width="457" height="396" viewBox="0 0 457 396" xmlns="http://www.w3.org/2000/svg" lang="en" xml:lang="en"><rect x="2" y="2" stroke-width="4" rx="0" width="453" height="392" stroke="#ffffff" fill="#ffffff"/><g font-weight="600" font-size="110pt" font-family="Verdana,Geneva,DejaVu Sans,sans-serif" text-rendering="geometricPrecision"><text x="895" y="301" lengthAdjust="spacingAndGlyphs" textLength="1917" transform="scale(0.123)" fill="#0969da">Rinc's GitHub Statistics</text><g transform="translate(0, 60)" fill="#24292f"><g transform="translate(15, 0)"><g transform="scale(0.095)"><text x="0" y="132" textLength="3652" lengthAdjust="spacingAndGlyphs">Language Distribution in Public Repositories</text></g></g><g transform="translate(243, 21)"><circle cx="92" cy="92" r="92" fill="#000000"/></g><g transform="translate(244, 22)"><path fill-rule="evenodd" fill="#f34b7d" d="M 0.0,91.00000000000001 A 91 91 0 0 1 175.85171125227754 58.11859039578564 L 91,91 Z"/><path fill-rule="evenodd" fill="#438eff" d="M 175.85171125227754,58.11859039578564 A 91 91 0 0 1 167.9881769914707 139.51618908704577 L 91,91 Z"/><path fill-rule="evenodd" fill="#555555" d="M 167.9881769914707,139.51618908704577 A 91 91 0 0 1 136.62782064132415 169.73437612328655 L 91,91 Z"/><path fill-rule="evenodd" fill="#dea584" d="M 136.62782064132415,169.73437612328655 A 91 91 0 0 1 97.06234429643533 181.79784128288225 L 91,91 Z"/><path fill-rule="evenodd" fill="#b07219" d="M 97.06234429643533,181.79784128288225 A 91 91 0 0 1 63.66214796279618 177.7965543440058 L 91,91 Z"/><path fill-rule="evenodd" fill="#00ADD8" d="M 63.66214796279618,177.7965543440058 A 91 91 0 0 1 39.35881510921966 165.92788548381864 L 91,91 Z"/><path fill-rule="evenodd" fill="#A97BFF" d="M 39.35881510921966,165.92788548381864 A 91 91 0 0 1 20.464385608980365 148.495452885262 L 91,91 Z"/><path fill-rule="evenodd" fill="#000080" d="M 20.464385608980365,148.495452885262 A 91 91 0 0 1 11.661626693859972 135.569300209175 L 91,91 Z"/><path fill-rule="evenodd" fill="#f1e05a" d="M 11.661626693859972,135.569300209175 A 91 91 0 0 1 5.671326693264888 122.62305348495731 L 91,91 Z"/><path fill-rule="evenodd" fill="#3178c6" d="M 5.671326693264888,122.62305348495731 A 91 91 0 0 1 2.7061360361975204 113.02711025853237 L 91,91 Z"/><path fill-rule="evenodd" fill="#6866fb" d="M 2.7061360361975204,113.02711025853237 A 91 91 0 0 1 0.9649010056300824 104.21669206246439 L 91,91 Z"/><path fill-rule="evenodd" fill="#89e051" d="M 0.9649010056300824,104.21669206246439 A 91 91 0 0 1 0.13126331041253536 95.88596893547435 L 91,91 Z"/><path fill-rule="evenodd" fill="#427819" d="M 0.13126331041253536,95.88596893547435 A 91 91 0 0 1 0.06524218752461763 94.44526074288261 L 91,91 Z"/><path fill-rule="evenodd" fill="#8f14e9" d="M 0.06524218752461763,94.44526074288261 A 91 91 0 0 1 0.03703446231406815 93.5959392500138 L 91,91 Z"/><path fill-rule="evenodd" fill="#C1F12E" d="M 0.03703446231406815,93.5959392500138 A 91 91 0 0 1 0.01679774822130753 92.74840155911996 L 91,91 Z"/><path fill-rule="evenodd" fill="#5686a5" d="M 0.01679774822130753,92.74840155911996 A 91 91 0 0 1 0.006365056891226573 92.07628984955488 L 91,91 Z"/><path fill-rule="evenodd" fill="#DA3434" d="M 0.006365056891226573,92.07628984955488 A 91 91 0 0 1 0.001147847273756497 91.45706332851243 L 91,91 Z"/><path fill-rule="evenodd" fill="#e34c26" d="M 0.001147847273756497,91.45706332851243 A 91 91 0 0 1 0.00011620789811672694 91.14542979045555 L 91,91 Z"/><path fill-rule="evenodd" fill="#701516" d="M 0.00011620789811672694,91.14542979045555 A 91 91 0 0 1 0.0 91.00000000000003 L 91,91 Z"/></g><g transform="translate(15, 21)"><rect x="0.5" y="0.5" rx="2" width="15" height="15" fill="#f34b7d" stroke-width="1" stroke="#000000"/><text transform="scale(0.095)" x="263" y="132" textLength="1074" lengthAdjust="spacingAndGlyphs">C++ 44.12%</text></g><g transform="translate(15, 42)"><rect x="0.5" y="0.5" rx="2" width="15" height="15" fill="#438eff" stroke-width="1" stroke="#000000"/><text transform="scale(0.095)" x="263" y="132" textLength="1642" lengthAdjust="spacingAndGlyphs">Objective-C 14.83%</text></g><g transform="translate(15, 63)"><rect x="0.5" y="0.5" rx="2" width="15" height="15" fill="#555555" stroke-width="1" stroke="#000000"/><text transform="scale(0.095)" x="263" y="132" textLength="693" lengthAdjust="spacingAndGlyphs">C 7.69%</text></g><g transform="translate(15, 84)"><rect x="0.5" y="0.5" rx="2" width="15" height="15" fill="#dea584" stroke-width="1" stroke="#000000"/><text transform="scale(0.095)" x="263" y="132" textLength="946" lengthAdjust="spacingAndGlyphs">Rust 7.30%</text></g><g transform="translate(15, 105)"><rect x="0.5" y="0.5" rx="2" width="15" height="15" fill="#b07219" stroke-width="1" stroke="#000000"/><text transform="scale(0.095)" x="263" y="132" textLength="933" lengthAdjust="spacingAndGlyphs">Java 5.92%</text></g><g transform="translate(15, 126)"><rect x="0.5" y="0.5" rx="2" width="15" height="15" fill="#00ADD8" stroke-width="1" stroke="#000000"/><text transform="scale(0.095)" x="263" y="132" textLength="806" lengthAdjust="spacingAndGlyphs">Go 4.75%</text></g><g transform="translate(15, 147)"><rect x="0.5" y="0.5" rx="2" width="15" height="15" fill="#A97BFF" stroke-width="1" stroke="#000000"/><text transform="scale(0.095)" x="263" y="132" textLength="1048" lengthAdjust="spacingAndGlyphs">Kotlin 4.51%</text></g><g transform="translate(15, 168)"><rect x="0.5" y="0.5" rx="2" width="15" height="15" fill="#000080" stroke-width="1" stroke="#000000"/><text transform="scale(0.095)" x="263" y="132" textLength="874" lengthAdjust="spacingAndGlyphs">Lua 2.74%</text></g><g transform="translate(15, 189)"><rect x="0.5" y="0.5" rx="2" width="15" height="15" fill="#f1e05a" stroke-width="1" stroke="#000000"/><text transform="scale(0.095)" x="263" y="132" textLength="1412" lengthAdjust="spacingAndGlyphs">JavaScript 2.50%</text></g><g transform="translate(15, 210)"><rect x="0.5" y="0.5" rx="2" width="15" height="15" fill="#3178c6" stroke-width="1" stroke="#000000"/><text transform="scale(0.095)" x="263" y="132" textLength="1462" lengthAdjust="spacingAndGlyphs">TypeScript 1.76%</text><rect x="228.5" y="0.5" rx="2" width="15" height="15" fill="#6866fb" stroke-width="1" stroke="#000000"/><text transform="scale(0.095)" x="2663" y="132" textLength="1814" lengthAdjust="spacingAndGlyphs">Objective-C++ 1.57%</text></g><g transform="translate(15, 231)"><rect x="0.5" y="0.5" rx="2" width="15" height="15" fill="#89e051" stroke-width="1" stroke="#000000"/><text transform="scale(0.095)" x="263" y="132" textLength="982" lengthAdjust="spacingAndGlyphs">Shell 1.46%</text><rect x="228.5" y="0.5" rx="2" width="15" height="15" fill="#427819" stroke-width="1" stroke="#000000"/><text transform="scale(0.095)" x="2663" y="132" textLength="1272" lengthAdjust="spacingAndGlyphs">Makefile 0.25%</text></g><g transform="translate(15, 252)"><rect x="0.5" y="0.5" rx="2" width="15" height="15" fill="#8f14e9" stroke-width="1" stroke="#000000"/><text transform="scale(0.095)" x="263" y="132" textLength="1034" lengthAdjust="spacingAndGlyphs">Metal 0.15%</text><rect x="228.5" y="0.5" rx="2" width="15" height="15" fill="#C1F12E" stroke-width="1" stroke="#000000"/><text transform="scale(0.095)" x="2663" y="132" textLength="1304" lengthAdjust="spacingAndGlyphs">Batchfile 0.15%</text></g><g transform="translate(15, 273)"><rect x="0.5" y="0.5" rx="2" width="15" height="15" fill="#5686a5" stroke-width="1" stroke="#000000"/><text transform="scale(0.095)" x="263" y="132" textLength="993" lengthAdjust="spacingAndGlyphs">GLSL 0.12%</text><rect x="228.5" y="0.5" rx="2" width="15" height="15" fill="#DA3434" stroke-width="1" stroke="#000000"/><text transform="scale(0.095)" x="2663" y="132" textLength="1134" lengthAdjust="spacingAndGlyphs">CMake 0.11%</text></g><g transform="translate(15, 294)"><rect x="0.5" y="0.5" rx="2" width="15" height="15" fill="#e34c26" stroke-width="1" stroke="#000000"/><text transform="scale(0.095)" x="263" y="132" textLength="1036" lengthAdjust="spacingAndGlyphs">HTML 0.05%</text><rect x="228.5" y="0.5" rx="2" width="15" height="15" fill="#701516" stroke-width="1" stroke="#000000"/><text transform="scale(0.095)" x="2663" y="132" textLength="999" lengthAdjust="spacingAndGlyphs">Ruby 0.03%</text></g></g></g></svg>