<svg width="457" height="396" viewBox="0 0 457 396" xmlns="http://www.w3.org/2000/svg" lang="en" xml:lang="en"><rect x="2" y="2" stroke-width="4" rx="0" width="453" height="392" stroke="#ffffff" fill="#ffffff"/><g font-weight="600" font-size="110pt" font-family="Verdana,Geneva,DejaVu Sans,sans-serif" text-rendering="geometricPrecision"><text x="895" y="301" lengthAdjust="spacingAndGlyphs" textLength="1917" transform="scale(0.123)" fill="#0969da">Rinc's GitHub Statistics</text><g transform="translate(0, 60)" fill="#24292f"><g transform="translate(15, 0)"><g transform="scale(0.095)"><text x="0" y="132" textLength="3652" lengthAdjust="spacingAndGlyphs">Language Distribution in Public Repositories</text></g></g><g transform="translate(243, 21)"><circle cx="92" cy="92" r="92" fill="#000000"/></g><g transform="translate(244, 22)"><path fill-rule="evenodd" fill="#f34b7d" d="M 0.0,91.00000000000001 A 91 91 0 0 1 175.027145947235 56.065221569873 L 91,91 Z"/><path fill-rule="evenodd" fill="#438eff" d="M 175.027145947235,56.065221569873 A 91 91 0 0 1 163.6859888377873 145.75168514916282 L 91,91 Z"/><path fill-rule="evenodd" fill="#555555" d="M 163.6859888377873,145.75168514916282 A 91 91 0 0 1 123.12496124019626 176.14098229005754 L 91,91 Z"/><path fill-rule="evenodd" fill="#b07219" d="M 123.12496124019626,176.14098229005754 A 91 91 0 0 1 85.99821278673629 181.8624351680783 L 91,91 Z"/><path fill-rule="evenodd" fill="#00ADD8" d="M 85.99821278673629,181.8624351680783 A 91 91 0 0 1 56.51971771238139 175.21466697295747 L 91,91 Z"/><path fill-rule="evenodd" fill="#A97BFF" d="M 56.51971771238139,175.21466697295747 A 91 91 0 0 1 32.03909153531573 160.31530331044598 L 91,91 Z"/><path fill-rule="evenodd" fill="#000080" d="M 32.03909153531573,160.31530331044598 A 91 91 0 0 1 17.07256572332841 144.06349461982694 L 91,91 Z"/><path fill-rule="evenodd" fill="#f1e05a" d="M 17.07256572332841,144.06349461982694 A 91 91 0 0 1 9.046101619926219 130.55450088559508 L 91,91 Z"/><path fill-rule="evenodd" fill="#3178c6" d="M 9.046101619926219,130.55450088559508 A 91 91 0 0 1 4.774452024517828 120.08874140157704 L 91,91 Z"/><path fill-rule="evenodd" fill="#6866fb" d="M 4.774452024517828,120.08874140157704 A 91 91 0 0 1 2.2616139233320354 111.16181629983323 L 91,91 Z"/><path fill-rule="evenodd" fill="#DA3434" d="M 2.2616139233320354,111.16181629983323 A 91 91 0 0 1 0.6991127090293645 102.25831934452995 L 91,91 Z"/><path fill-rule="evenodd" fill="#89e051" d="M 0.6991127090293645,102.25831934452995 A 91 91 0 0 1 0.10036470586456403 95.27273956533362 L 91,91 Z"/><path fill-rule="evenodd" fill="#427819" d="M 0.10036470586456403,95.27273956533362 A 91 91 0 0 1 0.03891566969461735 93.66104067144262 L 91,91 Z"/><path fill-rule="evenodd" fill="#8f14e9" d="M 0.03891566969461735,93.66104067144262 A 91 91 0 0 1 0.016086188287573577 92.71097267742148 L 91,91 Z"/><path fill-rule="evenodd" fill="#5686a5" d="M 0.016086188287573577,92.71097267742148 A 91 91 0 0 1 0.0050567331666968585 91.95932260777485 L 91,91 Z"/><path fill-rule="evenodd" fill="#C1F12E" d="M 0.0050567331666968585,91.95932260777485 A 91 91 0 0 1 0.001435561252833395 91.51114585704853 L 91,91 Z"/><path fill-rule="evenodd" fill="#e34c26" d="M 0.001435561252833395,91.51114585704853 A 91 91 0 0 1 0.00014533609011380122 91.1626380867969 L 91,91 Z"/><path fill-rule="evenodd" fill="#701516" d="M 0.00014533609011380122,91.1626380867969 A 91 91 0 0 1 0.0 91.00000000000003 L 91,91 Z"/></g><g transform="translate(15, 21)"><rect x="0.5" y="0.5" rx="2" width="15" height="15" fill="#f34b7d" stroke-width="1" stroke="#000000"/><text transform="scale(0.095)" x="263" y="132" textLength="1074" lengthAdjust="spacingAndGlyphs">C++ 43.73%</text></g><g transform="translate(15, 42)"><rect x="0.5" y="0.5" rx="2" width="15" height="15" fill="#438eff" stroke-width="1" stroke="#000000"/><text transform="scale(0.095)" x="263" y="132" textLength="1642" lengthAdjust="spacingAndGlyphs">Objective-C 16.55%</text></g><g transform="translate(15, 63)"><rect x="0.5" y="0.5" rx="2" width="15" height="15" fill="#555555" stroke-width="1" stroke="#000000"/><text transform="scale(0.095)" x="263" y="132" textLength="693" lengthAdjust="spacingAndGlyphs">C 8.98%</text></g><g transform="translate(15, 84)"><rect x="0.5" y="0.5" rx="2" width="15" height="15" fill="#b07219" stroke-width="1" stroke="#000000"/><text transform="scale(0.095)" x="263" y="132" textLength="933" lengthAdjust="spacingAndGlyphs">Java 6.62%</text></g><g transform="translate(15, 105)"><rect x="0.5" y="0.5" rx="2" width="15" height="15" fill="#00ADD8" stroke-width="1" stroke="#000000"/><text transform="scale(0.095)" x="263" y="132" textLength="806" lengthAdjust="spacingAndGlyphs">Go 5.31%</text></g><g transform="translate(15, 126)"><rect x="0.5" y="0.5" rx="2" width="15" height="15" fill="#A97BFF" stroke-width="1" stroke="#000000"/><text transform="scale(0.095)" x="263" y="132" textLength="1048" lengthAdjust="spacingAndGlyphs">Kotlin 5.03%</text></g><g transform="translate(15, 147)"><rect x="0.5" y="0.5" rx="2" width="15" height="15" fill="#000080" stroke-width="1" stroke="#000000"/><text transform="scale(0.095)" x="263" y="132" textLength="874" lengthAdjust="spacingAndGlyphs">Lua 3.87%</text></g><g transform="translate(15, 168)"><rect x="0.5" y="0.5" rx="2" width="15" height="15" fill="#f1e05a" stroke-width="1" stroke="#000000"/><text transform="scale(0.095)" x="263" y="132" textLength="1412" lengthAdjust="spacingAndGlyphs">JavaScript 2.75%</text></g><g transform="translate(15, 189)"><rect x="0.5" y="0.5" rx="2" width="15" height="15" fill="#3178c6" stroke-width="1" stroke="#000000"/><text transform="scale(0.095)" x="263" y="132" textLength="1462" lengthAdjust="spacingAndGlyphs">TypeScript 1.98%</text></g><g transform="translate(15, 210)"><rect x="0.5" y="0.5" rx="2" width="15" height="15" fill="#6866fb" stroke-width="1" stroke="#000000"/><text transform="scale(0.095)" x="263" y="132" textLength="1814" lengthAdjust="spacingAndGlyphs">Objective-C++ 1.62%</text><rect x="228.5" y="0.5" rx="2" width="15" height="15" fill="#DA3434" stroke-width="1" stroke="#000000"/><text transform="scale(0.095)" x="2663" y="132" textLength="1134" lengthAdjust="spacingAndGlyphs">CMake 1.58%</text></g><g transform="translate(15, 231)"><rect x="0.5" y="0.5" rx="2" width="15" height="15" fill="#89e051" stroke-width="1" stroke="#000000"/><text transform="scale(0.095)" x="263" y="132" textLength="982" lengthAdjust="spacingAndGlyphs">Shell 1.23%</text><rect x="228.5" y="0.5" rx="2" width="15" height="15" fill="#427819" stroke-width="1" stroke="#000000"/><text transform="scale(0.095)" x="2663" y="132" textLength="1272" lengthAdjust="spacingAndGlyphs">Makefile 0.28%</text></g><g transform="translate(15, 252)"><rect x="0.5" y="0.5" rx="2" width="15" height="15" fill="#8f14e9" stroke-width="1" stroke="#000000"/><text transform="scale(0.095)" x="263" y="132" textLength="1034" lengthAdjust="spacingAndGlyphs">Metal 0.17%</text><rect x="228.5" y="0.5" rx="2" width="15" height="15" fill="#5686a5" stroke-width="1" stroke="#000000"/><text transform="scale(0.095)" x="2663" y="132" textLength="993" lengthAdjust="spacingAndGlyphs">GLSL 0.13%</text></g><g transform="translate(15, 273)"><rect x="0.5" y="0.5" rx="2" width="15" height="15" fill="#C1F12E" stroke-width="1" stroke="#000000"/><text transform="scale(0.095)" x="263" y="132" textLength="1304" lengthAdjust="spacingAndGlyphs">Batchfile 0.08%</text><rect x="228.5" y="0.5" rx="2" width="15" height="15" fill="#e34c26" stroke-width="1" stroke="#000000"/><text transform="scale(0.095)" x="2663" y="132" textLength="1036" lengthAdjust="spacingAndGlyphs">HTML 0.06%</text></g><g transform="translate(15, 294)"><rect x="0.5" y="0.5" rx="2" width="15" height="15" fill="#701516" stroke-width="1" stroke="#000000"/><text transform="scale(0.095)" x="263" y="132" textLength="999" lengthAdjust="spacingAndGlyphs">Ruby 0.03%</text></g></g></g></svg>