<svg width="457" height="354" viewBox="0 0 457 354" xmlns="http://www.w3.org/2000/svg" lang="en" xml:lang="en"><rect x="2" y="2" stroke-width="4" rx="0" width="453" height="350" stroke="#ffffff" fill="#ffffff"/><g font-weight="600" font-size="110pt" font-family="Verdana,Geneva,DejaVu Sans,sans-serif" text-rendering="geometricPrecision"><text x="946" y="301" lengthAdjust="spacingAndGlyphs" textLength="1816" transform="scale(0.123)" fill="#0969da">~#./code-lang-stat.sh</text><g transform="translate(0, 60)" fill="#24292f"><g transform="translate(15, 0)"><g transform="scale(0.095)"><text x="0" y="132" textLength="3652" lengthAdjust="spacingAndGlyphs">Language Distribution in Public Repositories</text></g></g><g transform="translate(243, 21)"><circle cx="92" cy="92" r="92" fill="#000000"/></g><g transform="translate(244, 22)"><path fill-rule="evenodd" fill="#f34b7d" d="M 0.0,91.00000000000001 A 91 91 0 0 1 180.57618723066423 74.9654535075984 L 91,91 Z"/><path fill-rule="evenodd" fill="#438eff" d="M 180.57618723066423,74.9654535075984 A 91 91 0 0 1 158.4776571184442 152.0554321072718 L 91,91 Z"/><path fill-rule="evenodd" fill="#555555" d="M 158.4776571184442,152.0554321072718 A 91 91 0 0 1 122.79559396893436 176.26453075085013 L 91,91 Z"/><path fill-rule="evenodd" fill="#dea584" d="M 122.79559396893436,176.26453075085013 A 91 91 0 0 1 82.62729871973205 181.6140048407055 L 91,91 Z"/><path fill-rule="evenodd" fill="#b07219" d="M 82.62729871973205,181.6140048407055 A 91 91 0 0 1 50.907006761557604 172.69181044133012 L 91,91 Z"/><path fill-rule="evenodd" fill="#00ADD8" d="M 50.907006761557604,172.69181044133012 A 91 91 0 0 1 29.077572171806743 157.6829283389849 L 91,91 Z"/><path fill-rule="evenodd" fill="#A97BFF" d="M 29.077572171806743,157.6829283389849 A 91 91 0 0 1 13.229514110116526 138.25200021640813 L 91,91 Z"/><path fill-rule="evenodd" fill="#000080" d="M 13.229514110116526,138.25200021640813 A 91 91 0 0 1 6.51874724532928 124.82185584797855 L 91,91 Z"/><path fill-rule="evenodd" fill="#f1e05a" d="M 6.51874724532928,124.82185584797855 A 91 91 0 0 1 2.2049269611263185 110.91067562944782 L 91,91 Z"/><path fill-rule="evenodd" fill="#3178c6" d="M 2.2049269611263185,110.91067562944782 A 91 91 0 0 1 0.603801728095803 101.4655309462341 L 91,91 Z"/><path fill-rule="evenodd" fill="#6866fb" d="M 0.603801728095803,101.4655309462341 A 91 91 0 0 1 0.01767797462532883 92.79362171904337 L 91,91 Z"/><path fill-rule="evenodd" fill="#8f14e9" d="M 0.01767797462532883,92.79362171904337 A 91 91 0 0 1 0.005079705254374289 91.96149911746723 L 91,91 Z"/><path fill-rule="evenodd" fill="#5686a5" d="M 0.005079705254374289,91.96149911746723 A 91 91 0 0 1 0.0005051854732869288 91.30322186749457 L 91,91 Z"/><path fill-rule="evenodd" fill="#e34c26" d="M 0.0005051854732869288,91.30322186749457 A 91 91 0 0 1 0.0 91.00000000000003 L 91,91 Z"/></g><g transform="translate(15, 21)"><rect x="0.5" y="0.5" rx="2" width="15" height="15" fill="#f34b7d" stroke-width="1" stroke="#000000"/><text transform="scale(0.095)" x="263" y="132" textLength="1074" lengthAdjust="spacingAndGlyphs">C++ 47.18%</text></g><g transform="translate(15, 42)"><rect x="0.5" y="0.5" rx="2" width="15" height="15" fill="#438eff" stroke-width="1" stroke="#000000"/><text transform="scale(0.095)" x="263" y="132" textLength="1642" lengthAdjust="spacingAndGlyphs">Objective-C 14.52%</text></g><g transform="translate(15, 63)"><rect x="0.5" y="0.5" rx="2" width="15" height="15" fill="#555555" stroke-width="1" stroke="#000000"/><text transform="scale(0.095)" x="263" y="132" textLength="693" lengthAdjust="spacingAndGlyphs">C 7.61%</text></g><g transform="translate(15, 84)"><rect x="0.5" y="0.5" rx="2" width="15" height="15" fill="#dea584" stroke-width="1" stroke="#000000"/><text transform="scale(0.095)" x="263" y="132" textLength="946" lengthAdjust="spacingAndGlyphs">Rust 7.15%</text></g><g transform="translate(15, 105)"><rect x="0.5" y="0.5" rx="2" width="15" height="15" fill="#b07219" stroke-width="1" stroke="#000000"/><text transform="scale(0.095)" x="263" y="132" textLength="933" lengthAdjust="spacingAndGlyphs">Java 5.79%</text></g><g transform="translate(15, 126)"><rect x="0.5" y="0.5" rx="2" width="15" height="15" fill="#00ADD8" stroke-width="1" stroke="#000000"/><text transform="scale(0.095)" x="263" y="132" textLength="806" lengthAdjust="spacingAndGlyphs">Go 4.65%</text></g><g transform="translate(15, 147)"><rect x="0.5" y="0.5" rx="2" width="15" height="15" fill="#A97BFF" stroke-width="1" stroke="#000000"/><text transform="scale(0.095)" x="263" y="132" textLength="1048" lengthAdjust="spacingAndGlyphs">Kotlin 4.40%</text></g><g transform="translate(15, 168)"><rect x="0.5" y="0.5" rx="2" width="15" height="15" fill="#000080" stroke-width="1" stroke="#000000"/><text transform="scale(0.095)" x="263" y="132" textLength="874" lengthAdjust="spacingAndGlyphs">Lua 2.63%</text></g><g transform="translate(15, 189)"><rect x="0.5" y="0.5" rx="2" width="15" height="15" fill="#f1e05a" stroke-width="1" stroke="#000000"/><text transform="scale(0.095)" x="263" y="132" textLength="1412" lengthAdjust="spacingAndGlyphs">JavaScript 2.55%</text></g><g transform="translate(15, 210)"><rect x="0.5" y="0.5" rx="2" width="15" height="15" fill="#3178c6" stroke-width="1" stroke="#000000"/><text transform="scale(0.095)" x="263" y="132" textLength="1462" lengthAdjust="spacingAndGlyphs">TypeScript 1.68%</text><rect x="228.5" y="0.5" rx="2" width="15" height="15" fill="#6866fb" stroke-width="1" stroke="#000000"/><text transform="scale(0.095)" x="2663" y="132" textLength="1814" lengthAdjust="spacingAndGlyphs">Objective-C++ 1.52%</text></g><g transform="translate(15, 231)"><rect x="0.5" y="0.5" rx="2" width="15" height="15" fill="#8f14e9" stroke-width="1" stroke="#000000"/><text transform="scale(0.095)" x="263" y="132" textLength="1034" lengthAdjust="spacingAndGlyphs">Metal 0.15%</text><rect x="228.5" y="0.5" rx="2" width="15" height="15" fill="#5686a5" stroke-width="1" stroke="#000000"/><text transform="scale(0.095)" x="2663" y="132" textLength="993" lengthAdjust="spacingAndGlyphs">GLSL 0.12%</text></g><g transform="translate(15, 252)"><rect x="0.5" y="0.5" rx="2" width="15" height="15" fill="#e34c26" stroke-width="1" stroke="#000000"/><text transform="scale(0.095)" x="263" y="132" textLength="1036" lengthAdjust="spacingAndGlyphs">HTML 0.05%</text></g></g></g></svg>