<svg width="457" height="396" viewBox="0 0 457 396" xmlns="http://www.w3.org/2000/svg" lang="en" xml:lang="en"><rect x="2" y="2" stroke-width="4" rx="0" width="453" height="392" stroke="#ffffff" fill="#ffffff"/><g font-weight="600" font-size="110pt" font-family="Verdana,Geneva,DejaVu Sans,sans-serif" text-rendering="geometricPrecision"><text x="895" y="301" lengthAdjust="spacingAndGlyphs" textLength="1917" transform="scale(0.123)" fill="#0969da">Rinc's GitHub Statistics</text><g transform="translate(0, 60)" fill="#24292f"><g transform="translate(15, 0)"><g transform="scale(0.095)"><text x="0" y="132" textLength="3652" lengthAdjust="spacingAndGlyphs">Language Distribution in Public Repositories</text></g></g><g transform="translate(243, 21)"><circle cx="92" cy="92" r="92" fill="#000000"/></g><g transform="translate(244, 22)"><path fill-rule="evenodd" fill="#f34b7d" d="M 0.0,91.00000000000001 A 91 91 0 0 1 172.9841792360777 51.50830017602825 L 91,91 Z"/><path fill-rule="evenodd" fill="#438eff" d="M 172.9841792360777,51.50830017602825 A 91 91 0 0 1 170.73696364916074 134.85221349045472 L 91,91 Z"/><path fill-rule="evenodd" fill="#555555" d="M 170.73696364916074,134.85221349045472 A 91 91 0 0 1 138.87959458640157 168.38568615862903 L 91,91 Z"/><path fill-rule="evenodd" fill="#dea584" d="M 138.87959458640157,168.38568615862903 A 91 91 0 0 1 98.8000513066372 181.66509361167522 L 91,91 Z"/><path fill-rule="evenodd" fill="#b07219" d="M 98.8000513066372,181.66509361167522 A 91 91 0 0 1 64.64401212216016 178.09972389728432 L 91,91 Z"/><path fill-rule="evenodd" fill="#00ADD8" d="M 64.64401212216016,178.09972389728432 A 91 91 0 0 1 39.7330753398279 166.1844560789545 L 91,91 Z"/><path fill-rule="evenodd" fill="#A97BFF" d="M 39.7330753398279,166.1844560789545 A 91 91 0 0 1 20.429946240418715 148.45317669519943 L 91,91 Z"/><path fill-rule="evenodd" fill="#000080" d="M 20.429946240418715,148.45317669519943 A 91 91 0 0 1 11.78145802629372 135.7819451069305 L 91,91 Z"/><path fill-rule="evenodd" fill="#f1e05a" d="M 11.78145802629372,135.7819451069305 A 91 91 0 0 1 5.851188305338383 123.10420326043084 L 91,91 Z"/><path fill-rule="evenodd" fill="#3178c6" d="M 5.851188305338383,123.10420326043084 A 91 91 0 0 1 2.8416463002850207 113.56334799970853 L 91,91 Z"/><path fill-rule="evenodd" fill="#6866fb" d="M 2.8416463002850207,113.56334799970853 A 91 91 0 0 1 1.018365277986078 104.5759129620832 L 91,91 Z"/><path fill-rule="evenodd" fill="#89e051" d="M 1.018365277986078,104.5759129620832 A 91 91 0 0 1 0.13686995428767545 95.98914805312175 L 91,91 Z"/><path fill-rule="evenodd" fill="#427819" d="M 0.13686995428767545,95.98914805312175 A 91 91 0 0 1 0.06802922574064496 94.51805217545756 L 91,91 Z"/><path fill-rule="evenodd" fill="#8f14e9" d="M 0.06802922574064496,94.51805217545756 A 91 91 0 0 1 0.038616598472628993 93.6507979327628 L 91,91 Z"/><path fill-rule="evenodd" fill="#C1F12E" d="M 0.038616598472628993,93.6507979327628 A 91 91 0 0 1 0.017515386617333206 92.78535530793916 L 91,91 Z"/><path fill-rule="evenodd" fill="#5686a5" d="M 0.017515386617333206,92.78535530793916 A 91 91 0 0 1 0.0066369921633651074 92.09903981914569 L 91,91 Z"/><path fill-rule="evenodd" fill="#DA3434" d="M 0.0066369921633651074,92.09903981914569 A 91 91 0 0 1 0.0011968874121635054 91.46672484021491 L 91,91 Z"/><path fill-rule="evenodd" fill="#e34c26" d="M 0.0011968874121635054,91.46672484021491 A 91 91 0 0 1 0.00012117272467548901 91.14850394340824 L 91,91 Z"/><path fill-rule="evenodd" fill="#701516" d="M 0.00012117272467548901,91.14850394340824 A 91 91 0 0 1 0.0 91.00000000000003 L 91,91 Z"/></g><g transform="translate(15, 21)"><rect x="0.5" y="0.5" rx="2" width="15" height="15" fill="#f34b7d" stroke-width="1" stroke="#000000"/><text transform="scale(0.095)" x="263" y="132" textLength="1074" lengthAdjust="spacingAndGlyphs">C++ 42.86%</text></g><g transform="translate(15, 42)"><rect x="0.5" y="0.5" rx="2" width="15" height="15" fill="#438eff" stroke-width="1" stroke="#000000"/><text transform="scale(0.095)" x="263" y="132" textLength="1642" lengthAdjust="spacingAndGlyphs">Objective-C 15.15%</text></g><g transform="translate(15, 63)"><rect x="0.5" y="0.5" rx="2" width="15" height="15" fill="#555555" stroke-width="1" stroke="#000000"/><text transform="scale(0.095)" x="263" y="132" textLength="693" lengthAdjust="spacingAndGlyphs">C 8.18%</text></g><g transform="translate(15, 84)"><rect x="0.5" y="0.5" rx="2" width="15" height="15" fill="#dea584" stroke-width="1" stroke="#000000"/><text transform="scale(0.095)" x="263" y="132" textLength="946" lengthAdjust="spacingAndGlyphs">Rust 7.45%</text></g><g transform="translate(15, 105)"><rect x="0.5" y="0.5" rx="2" width="15" height="15" fill="#b07219" stroke-width="1" stroke="#000000"/><text transform="scale(0.095)" x="263" y="132" textLength="933" lengthAdjust="spacingAndGlyphs">Java 6.04%</text></g><g transform="translate(15, 126)"><rect x="0.5" y="0.5" rx="2" width="15" height="15" fill="#00ADD8" stroke-width="1" stroke="#000000"/><text transform="scale(0.095)" x="263" y="132" textLength="806" lengthAdjust="spacingAndGlyphs">Go 4.85%</text></g><g transform="translate(15, 147)"><rect x="0.5" y="0.5" rx="2" width="15" height="15" fill="#A97BFF" stroke-width="1" stroke="#000000"/><text transform="scale(0.095)" x="263" y="132" textLength="1048" lengthAdjust="spacingAndGlyphs">Kotlin 4.60%</text></g><g transform="translate(15, 168)"><rect x="0.5" y="0.5" rx="2" width="15" height="15" fill="#000080" stroke-width="1" stroke="#000000"/><text transform="scale(0.095)" x="263" y="132" textLength="874" lengthAdjust="spacingAndGlyphs">Lua 2.69%</text></g><g transform="translate(15, 189)"><rect x="0.5" y="0.5" rx="2" width="15" height="15" fill="#f1e05a" stroke-width="1" stroke="#000000"/><text transform="scale(0.095)" x="263" y="132" textLength="1412" lengthAdjust="spacingAndGlyphs">JavaScript 2.45%</text></g><g transform="translate(15, 210)"><rect x="0.5" y="0.5" rx="2" width="15" height="15" fill="#3178c6" stroke-width="1" stroke="#000000"/><text transform="scale(0.095)" x="263" y="132" textLength="1462" lengthAdjust="spacingAndGlyphs">TypeScript 1.75%</text><rect x="228.5" y="0.5" rx="2" width="15" height="15" fill="#6866fb" stroke-width="1" stroke="#000000"/><text transform="scale(0.095)" x="2663" y="132" textLength="1814" lengthAdjust="spacingAndGlyphs">Objective-C++ 1.60%</text></g><g transform="translate(15, 231)"><rect x="0.5" y="0.5" rx="2" width="15" height="15" fill="#89e051" stroke-width="1" stroke="#000000"/><text transform="scale(0.095)" x="263" y="132" textLength="982" lengthAdjust="spacingAndGlyphs">Shell 1.51%</text><rect x="228.5" y="0.5" rx="2" width="15" height="15" fill="#427819" stroke-width="1" stroke="#000000"/><text transform="scale(0.095)" x="2663" y="132" textLength="1272" lengthAdjust="spacingAndGlyphs">Makefile 0.26%</text></g><g transform="translate(15, 252)"><rect x="0.5" y="0.5" rx="2" width="15" height="15" fill="#8f14e9" stroke-width="1" stroke="#000000"/><text transform="scale(0.095)" x="263" y="132" textLength="1034" lengthAdjust="spacingAndGlyphs">Metal 0.15%</text><rect x="228.5" y="0.5" rx="2" width="15" height="15" fill="#C1F12E" stroke-width="1" stroke="#000000"/><text transform="scale(0.095)" x="2663" y="132" textLength="1304" lengthAdjust="spacingAndGlyphs">Batchfile 0.15%</text></g><g transform="translate(15, 273)"><rect x="0.5" y="0.5" rx="2" width="15" height="15" fill="#5686a5" stroke-width="1" stroke="#000000"/><text transform="scale(0.095)" x="263" y="132" textLength="993" lengthAdjust="spacingAndGlyphs">GLSL 0.12%</text><rect x="228.5" y="0.5" rx="2" width="15" height="15" fill="#DA3434" stroke-width="1" stroke="#000000"/><text transform="scale(0.095)" x="2663" y="132" textLength="1134" lengthAdjust="spacingAndGlyphs">CMake 0.11%</text></g><g transform="translate(15, 294)"><rect x="0.5" y="0.5" rx="2" width="15" height="15" fill="#e34c26" stroke-width="1" stroke="#000000"/><text transform="scale(0.095)" x="263" y="132" textLength="1036" lengthAdjust="spacingAndGlyphs">HTML 0.06%</text><rect x="228.5" y="0.5" rx="2" width="15" height="15" fill="#701516" stroke-width="1" stroke="#000000"/><text transform="scale(0.095)" x="2663" y="132" textLength="999" lengthAdjust="spacingAndGlyphs">Ruby 0.03%</text></g></g></g></svg>