<svg width="457" height="354" viewBox="0 0 457 354" xmlns="http://www.w3.org/2000/svg" lang="en" xml:lang="en"><rect x="2" y="2" stroke-width="4" rx="0" width="453" height="350" stroke="#ffffff" fill="#ffffff"/><g font-weight="600" font-size="110pt" font-family="Verdana,Geneva,DejaVu Sans,sans-serif" text-rendering="geometricPrecision"><text x="946" y="301" lengthAdjust="spacingAndGlyphs" textLength="1816" transform="scale(0.123)" fill="#0969da">~#./code-lang-stat.sh</text><g transform="translate(0, 60)" fill="#24292f"><g transform="translate(15, 0)"><g transform="scale(0.095)"><text x="0" y="132" textLength="3652" lengthAdjust="spacingAndGlyphs">Language Distribution in Public Repositories</text></g></g><g transform="translate(243, 21)"><circle cx="92" cy="92" r="92" fill="#000000"/></g><g transform="translate(244, 22)"><path fill-rule="evenodd" fill="#f34b7d" d="M 0.0,91.00000000000001 A 91 91 0 0 1 180.5743540706736 74.95521602446449 L 91,91 Z"/><path fill-rule="evenodd" fill="#438eff" d="M 180.5743540706736,74.95521602446449 A 91 91 0 0 1 158.4827160142288 152.04984061685133 L 91,91 Z"/><path fill-rule="evenodd" fill="#555555" d="M 158.4827160142288,152.04984061685133 A 91 91 0 0 1 122.80125432000094 176.2624197620184 L 91,91 Z"/><path fill-rule="evenodd" fill="#dea584" d="M 122.80125432000094,176.2624197620184 A 91 91 0 0 1 82.63191294157868 181.61443107465104 L 91,91 Z"/><path fill-rule="evenodd" fill="#b07219" d="M 82.63191294157868,181.61443107465104 A 91 91 0 0 1 50.910142328645165 172.69334925127328 L 91,91 Z"/><path fill-rule="evenodd" fill="#00ADD8" d="M 50.910142328645165,172.69334925127328 A 91 91 0 0 1 29.07946075671073 157.68468204783068 L 91,91 Z"/><path fill-rule="evenodd" fill="#A97BFF" d="M 29.07946075671073,157.68468204783068 A 91 91 0 0 1 13.230402564320386 138.2534624624729 L 91,91 Z"/><path fill-rule="evenodd" fill="#000080" d="M 13.230402564320386,138.2534624624729 A 91 91 0 0 1 6.519190795238288 124.82296373928 L 91,91 Z"/><path fill-rule="evenodd" fill="#f1e05a" d="M 6.519190795238288,124.82296373928 A 91 91 0 0 1 2.205078212695369 110.91135014976264 L 91,91 Z"/><path fill-rule="evenodd" fill="#3178c6" d="M 2.205078212695369,110.91135014976264 A 91 91 0 0 1 0.6038432698577338 101.46588975766306 L 91,91 Z"/><path fill-rule="evenodd" fill="#6866fb" d="M 0.6038432698577338,101.46588975766306 A 91 91 0 0 1 0.017679192184900216 92.79368347927212 L 91,91 Z"/><path fill-rule="evenodd" fill="#8f14e9" d="M 0.017679192184900216,92.79368347927212 A 91 91 0 0 1 0.00508005512399734 91.96153222806528 L 91,91 Z"/><path fill-rule="evenodd" fill="#5686a5" d="M 0.00508005512399734,91.96153222806528 A 91 91 0 0 1 0.0005052202687210183 91.30323230972327 L 91,91 Z"/><path fill-rule="evenodd" fill="#e34c26" d="M 0.0005052202687210183,91.30323230972327 A 91 91 0 0 1 0.0 91.00000000000003 L 91,91 Z"/></g><g transform="translate(15, 21)"><rect x="0.5" y="0.5" rx="2" width="15" height="15" fill="#f34b7d" stroke-width="1" stroke="#000000"/><text transform="scale(0.095)" x="263" y="132" textLength="1074" lengthAdjust="spacingAndGlyphs">C++ 47.18%</text></g><g transform="translate(15, 42)"><rect x="0.5" y="0.5" rx="2" width="15" height="15" fill="#438eff" stroke-width="1" stroke="#000000"/><text transform="scale(0.095)" x="263" y="132" textLength="1642" lengthAdjust="spacingAndGlyphs">Objective-C 14.53%</text></g><g transform="translate(15, 63)"><rect x="0.5" y="0.5" rx="2" width="15" height="15" fill="#555555" stroke-width="1" stroke="#000000"/><text transform="scale(0.095)" x="263" y="132" textLength="693" lengthAdjust="spacingAndGlyphs">C 7.61%</text></g><g transform="translate(15, 84)"><rect x="0.5" y="0.5" rx="2" width="15" height="15" fill="#dea584" stroke-width="1" stroke="#000000"/><text transform="scale(0.095)" x="263" y="132" textLength="946" lengthAdjust="spacingAndGlyphs">Rust 7.15%</text></g><g transform="translate(15, 105)"><rect x="0.5" y="0.5" rx="2" width="15" height="15" fill="#b07219" stroke-width="1" stroke="#000000"/><text transform="scale(0.095)" x="263" y="132" textLength="933" lengthAdjust="spacingAndGlyphs">Java 5.80%</text></g><g transform="translate(15, 126)"><rect x="0.5" y="0.5" rx="2" width="15" height="15" fill="#00ADD8" stroke-width="1" stroke="#000000"/><text transform="scale(0.095)" x="263" y="132" textLength="806" lengthAdjust="spacingAndGlyphs">Go 4.65%</text></g><g transform="translate(15, 147)"><rect x="0.5" y="0.5" rx="2" width="15" height="15" fill="#A97BFF" stroke-width="1" stroke="#000000"/><text transform="scale(0.095)" x="263" y="132" textLength="1048" lengthAdjust="spacingAndGlyphs">Kotlin 4.40%</text></g><g transform="translate(15, 168)"><rect x="0.5" y="0.5" rx="2" width="15" height="15" fill="#000080" stroke-width="1" stroke="#000000"/><text transform="scale(0.095)" x="263" y="132" textLength="874" lengthAdjust="spacingAndGlyphs">Lua 2.63%</text></g><g transform="translate(15, 189)"><rect x="0.5" y="0.5" rx="2" width="15" height="15" fill="#f1e05a" stroke-width="1" stroke="#000000"/><text transform="scale(0.095)" x="263" y="132" textLength="1412" lengthAdjust="spacingAndGlyphs">JavaScript 2.55%</text></g><g transform="translate(15, 210)"><rect x="0.5" y="0.5" rx="2" width="15" height="15" fill="#3178c6" stroke-width="1" stroke="#000000"/><text transform="scale(0.095)" x="263" y="132" textLength="1462" lengthAdjust="spacingAndGlyphs">TypeScript 1.68%</text><rect x="228.5" y="0.5" rx="2" width="15" height="15" fill="#6866fb" stroke-width="1" stroke="#000000"/><text transform="scale(0.095)" x="2663" y="132" textLength="1814" lengthAdjust="spacingAndGlyphs">Objective-C++ 1.52%</text></g><g transform="translate(15, 231)"><rect x="0.5" y="0.5" rx="2" width="15" height="15" fill="#8f14e9" stroke-width="1" stroke="#000000"/><text transform="scale(0.095)" x="263" y="132" textLength="1034" lengthAdjust="spacingAndGlyphs">Metal 0.15%</text><rect x="228.5" y="0.5" rx="2" width="15" height="15" fill="#5686a5" stroke-width="1" stroke="#000000"/><text transform="scale(0.095)" x="2663" y="132" textLength="993" lengthAdjust="spacingAndGlyphs">GLSL 0.12%</text></g><g transform="translate(15, 252)"><rect x="0.5" y="0.5" rx="2" width="15" height="15" fill="#e34c26" stroke-width="1" stroke="#000000"/><text transform="scale(0.095)" x="263" y="132" textLength="1036" lengthAdjust="spacingAndGlyphs">HTML 0.05%</text></g></g></g></svg>