<svg width="457" height="354" viewBox="0 0 457 354" xmlns="http://www.w3.org/2000/svg" lang="en" xml:lang="en"><rect x="2" y="2" stroke-width="4" rx="0" width="453" height="350" stroke="#ffffff" fill="#ffffff"/><g font-weight="600" font-size="110pt" font-family="Verdana,Geneva,DejaVu Sans,sans-serif" text-rendering="geometricPrecision"><text x="946" y="301" lengthAdjust="spacingAndGlyphs" textLength="1816" transform="scale(0.123)" fill="#0969da">~#./code-lang-stat.sh</text><g transform="translate(0, 60)" fill="#24292f"><g transform="translate(15, 0)"><g transform="scale(0.095)"><text x="0" y="132" textLength="3652" lengthAdjust="spacingAndGlyphs">Language Distribution in Public Repositories</text></g></g><g transform="translate(243, 21)"><circle cx="92" cy="92" r="92" fill="#000000"/></g><g transform="translate(244, 22)"><path fill-rule="evenodd" fill="#f34b7d" d="M 0.0,91.00000000000001 A 91 91 0 0 1 181.1219764312517 78.38931547754396 L 91,91 Z"/><path fill-rule="evenodd" fill="#438eff" d="M 181.1219764312517,78.38931547754396 A 91 91 0 0 1 156.97679032953698 153.67426216408387 L 91,91 Z"/><path fill-rule="evenodd" fill="#555555" d="M 156.97679032953698,153.67426216408387 A 91 91 0 0 1 120.97116490865352 176.9228099751067 L 91,91 Z"/><path fill-rule="evenodd" fill="#dea584" d="M 120.97116490865352,176.9228099751067 A 91 91 0 0 1 81.31410649746749 181.48305624290992 L 91,91 Z"/><path fill-rule="evenodd" fill="#b07219" d="M 81.31410649746749,181.48305624290992 A 91 91 0 0 1 50.17509567164684 172.3285139823716 L 91,91 Z"/><path fill-rule="evenodd" fill="#00ADD8" d="M 50.17509567164684,172.3285139823716 A 91 91 0 0 1 28.77495473435225 157.40063058200644 L 91,91 Z"/><path fill-rule="evenodd" fill="#A97BFF" d="M 28.77495473435225,157.40063058200644 A 91 91 0 0 1 13.113970664524771 138.0613050642828 L 91,91 Z"/><path fill-rule="evenodd" fill="#000080" d="M 13.113970664524771,138.0613050642828 A 91 91 0 0 1 6.520614823373705 124.82652036759342 L 91,91 Z"/><path fill-rule="evenodd" fill="#f1e05a" d="M 6.520614823373705,124.82652036759342 A 91 91 0 0 1 2.2546908211300405 111.13132133633509 L 91,91 Z"/><path fill-rule="evenodd" fill="#3178c6" d="M 2.2546908211300405,111.13132133633509 A 91 91 0 0 1 0.6436758603578454 101.80438281309576 L 91,91 Z"/><path fill-rule="evenodd" fill="#6866fb" d="M 0.6436758603578454,101.80438281309576 A 91 91 0 0 1 0.017145755841525556 92.76641829310437 L 91,91 Z"/><path fill-rule="evenodd" fill="#8f14e9" d="M 0.017145755841525556,92.76641829310437 A 91 91 0 0 1 0.004926770593186802 91.94691497764703 L 91,91 Z"/><path fill-rule="evenodd" fill="#5686a5" d="M 0.004926770593186802,91.94691497764703 A 91 91 0 0 1 0.0004899757331315868 91.29862240932898 L 91,91 Z"/><path fill-rule="evenodd" fill="#959da5" d="M 0.0004899757331315868,91.29862240932898 A 91 91 0 0 1 0.0 91.00000000000003 L 91,91 Z"/></g><g transform="translate(15, 21)"><rect x="0.5" y="0.5" rx="2" width="15" height="15" fill="#f34b7d" stroke-width="1" stroke="#000000"/><text transform="scale(0.095)" x="263" y="132" textLength="1074" lengthAdjust="spacingAndGlyphs">C++ 47.79%</text></g><g transform="translate(15, 42)"><rect x="0.5" y="0.5" rx="2" width="15" height="15" fill="#438eff" stroke-width="1" stroke="#000000"/><text transform="scale(0.095)" x="263" y="132" textLength="1642" lengthAdjust="spacingAndGlyphs">Objective-C 14.30%</text></g><g transform="translate(15, 63)"><rect x="0.5" y="0.5" rx="2" width="15" height="15" fill="#555555" stroke-width="1" stroke="#000000"/><text transform="scale(0.095)" x="263" y="132" textLength="693" lengthAdjust="spacingAndGlyphs">C 7.57%</text></g><g transform="translate(15, 84)"><rect x="0.5" y="0.5" rx="2" width="15" height="15" fill="#dea584" stroke-width="1" stroke="#000000"/><text transform="scale(0.095)" x="263" y="132" textLength="946" lengthAdjust="spacingAndGlyphs">Rust 7.04%</text></g><g transform="translate(15, 105)"><rect x="0.5" y="0.5" rx="2" width="15" height="15" fill="#b07219" stroke-width="1" stroke="#000000"/><text transform="scale(0.095)" x="263" y="132" textLength="933" lengthAdjust="spacingAndGlyphs">Java 5.71%</text></g><g transform="translate(15, 126)"><rect x="0.5" y="0.5" rx="2" width="15" height="15" fill="#00ADD8" stroke-width="1" stroke="#000000"/><text transform="scale(0.095)" x="263" y="132" textLength="806" lengthAdjust="spacingAndGlyphs">Go 4.58%</text></g><g transform="translate(15, 147)"><rect x="0.5" y="0.5" rx="2" width="15" height="15" fill="#A97BFF" stroke-width="1" stroke="#000000"/><text transform="scale(0.095)" x="263" y="132" textLength="1048" lengthAdjust="spacingAndGlyphs">Kotlin 4.37%</text></g><g transform="translate(15, 168)"><rect x="0.5" y="0.5" rx="2" width="15" height="15" fill="#000080" stroke-width="1" stroke="#000000"/><text transform="scale(0.095)" x="263" y="132" textLength="874" lengthAdjust="spacingAndGlyphs">Lua 2.59%</text></g><g transform="translate(15, 189)"><rect x="0.5" y="0.5" rx="2" width="15" height="15" fill="#f1e05a" stroke-width="1" stroke="#000000"/><text transform="scale(0.095)" x="263" y="132" textLength="1412" lengthAdjust="spacingAndGlyphs">JavaScript 2.51%</text></g><g transform="translate(15, 210)"><rect x="0.5" y="0.5" rx="2" width="15" height="15" fill="#3178c6" stroke-width="1" stroke="#000000"/><text transform="scale(0.095)" x="263" y="132" textLength="1462" lengthAdjust="spacingAndGlyphs">TypeScript 1.66%</text><rect x="228.5" y="0.5" rx="2" width="15" height="15" fill="#6866fb" stroke-width="1" stroke="#000000"/><text transform="scale(0.095)" x="2663" y="132" textLength="1814" lengthAdjust="spacingAndGlyphs">Objective-C++ 1.59%</text></g><g transform="translate(15, 231)"><rect x="0.5" y="0.5" rx="2" width="15" height="15" fill="#8f14e9" stroke-width="1" stroke="#000000"/><text transform="scale(0.095)" x="263" y="132" textLength="1034" lengthAdjust="spacingAndGlyphs">Metal 0.14%</text><rect x="228.5" y="0.5" rx="2" width="15" height="15" fill="#5686a5" stroke-width="1" stroke="#000000"/><text transform="scale(0.095)" x="2663" y="132" textLength="993" lengthAdjust="spacingAndGlyphs">GLSL 0.11%</text></g><g transform="translate(15, 252)"><rect x="0.5" y="0.5" rx="2" width="15" height="15" fill="#959da5" stroke-width="1" stroke="#000000"/><text transform="scale(0.095)" x="263" y="132" textLength="1047" lengthAdjust="spacingAndGlyphs">Other 0.05%</text></g></g></g></svg>