<svg width="457" height="396" viewBox="0 0 457 396" xmlns="http://www.w3.org/2000/svg" lang="en" xml:lang="en"><rect x="2" y="2" stroke-width="4" rx="0" width="453" height="392" stroke="#ffffff" fill="#ffffff"/><g font-weight="600" font-size="110pt" font-family="Verdana,Geneva,DejaVu Sans,sans-serif" text-rendering="geometricPrecision"><text x="895" y="301" lengthAdjust="spacingAndGlyphs" textLength="1917" transform="scale(0.123)" fill="#0969da">Rinc's GitHub Statistics</text><g transform="translate(0, 60)" fill="#24292f"><g transform="translate(15, 0)"><g transform="scale(0.095)"><text x="0" y="132" textLength="3652" lengthAdjust="spacingAndGlyphs">Language Distribution in Public Repositories</text></g></g><g transform="translate(243, 21)"><circle cx="92" cy="92" r="92" fill="#000000"/></g><g transform="translate(244, 22)"><path fill-rule="evenodd" fill="#f34b7d" d="M 0.0,91.00000000000001 A 91 91 0 0 1 175.25775763016657 56.625150485622335 L 91,91 Z"/><path fill-rule="evenodd" fill="#438eff" d="M 175.25775763016657,56.625150485622335 A 91 91 0 0 1 163.43862339110456 146.07854247528448 L 91,91 Z"/><path fill-rule="evenodd" fill="#555555" d="M 163.43862339110456,146.07854247528448 A 91 91 0 0 1 122.80350989466251 176.2615784417583 L 91,91 Z"/><path fill-rule="evenodd" fill="#b07219" d="M 122.80350989466251,176.2615784417583 A 91 91 0 0 1 85.7335576411658 181.84747979377897 L 91,91 Z"/><path fill-rule="evenodd" fill="#00ADD8" d="M 85.7335576411658,181.84747979377897 A 91 91 0 0 1 56.332595855593844 175.13781010870446 L 91,91 Z"/><path fill-rule="evenodd" fill="#A97BFF" d="M 56.332595855593844,175.13781010870446 A 91 91 0 0 1 31.930411667815314 160.2227111161231 L 91,91 Z"/><path fill-rule="evenodd" fill="#000080" d="M 31.930411667815314,160.2227111161231 A 91 91 0 0 1 17.01606292665865 143.98468698716516 L 91,91 Z"/><path fill-rule="evenodd" fill="#f1e05a" d="M 17.01606292665865,143.98468698716516 A 91 91 0 0 1 9.018115774288944 130.49646387718917 L 91,91 Z"/><path fill-rule="evenodd" fill="#3178c6" d="M 9.018115774288944,130.49646387718917 A 91 91 0 0 1 4.761342325820195 120.04985236719162 L 91,91 Z"/><path fill-rule="evenodd" fill="#6866fb" d="M 4.761342325820195,120.04985236719162 A 91 91 0 0 1 2.252307791348443 111.12081329465704 L 91,91 Z"/><path fill-rule="evenodd" fill="#DA3434" d="M 2.252307791348443,111.12081329465704 A 91 91 0 0 1 0.6962277002041048 102.23515502459196 L 91,91 Z"/><path fill-rule="evenodd" fill="#89e051" d="M 0.6962277002041048,102.23515502459196 A 91 91 0 0 1 0.09995007996040783 95.26390953636584 L 91,91 Z"/><path fill-rule="evenodd" fill="#427819" d="M 0.09995007996040783,95.26390953636584 A 91 91 0 0 1 0.03875488355048162 93.65553890297019 L 91,91 Z"/><path fill-rule="evenodd" fill="#8f14e9" d="M 0.03875488355048162,93.65553890297019 A 91 91 0 0 1 0.01601972292984044 92.707434608326 L 91,91 Z"/><path fill-rule="evenodd" fill="#5686a5" d="M 0.01601972292984044,92.707434608326 A 91 91 0 0 1 0.005035839196366965 91.95733869349584 L 91,91 Z"/><path fill-rule="evenodd" fill="#C1F12E" d="M 0.005035839196366965,91.95733869349584 A 91 91 0 0 1 0.001429629602625937 91.51008876074297 L 91,91 Z"/><path fill-rule="evenodd" fill="#e34c26" d="M 0.001429629602625937,91.51008876074297 A 91 91 0 0 1 0.00014473556896632545 91.16230173321345 L 91,91 Z"/><path fill-rule="evenodd" fill="#701516" d="M 0.00014473556896632545,91.16230173321345 A 91 91 0 0 1 0.0 91.00000000000003 L 91,91 Z"/></g><g transform="translate(15, 21)"><rect x="0.5" y="0.5" rx="2" width="15" height="15" fill="#f34b7d" stroke-width="1" stroke="#000000"/><text transform="scale(0.095)" x="263" y="132" textLength="1074" lengthAdjust="spacingAndGlyphs">C++ 43.83%</text></g><g transform="translate(15, 42)"><rect x="0.5" y="0.5" rx="2" width="15" height="15" fill="#438eff" stroke-width="1" stroke="#000000"/><text transform="scale(0.095)" x="263" y="132" textLength="1642" lengthAdjust="spacingAndGlyphs">Objective-C 16.51%</text></g><g transform="translate(15, 63)"><rect x="0.5" y="0.5" rx="2" width="15" height="15" fill="#555555" stroke-width="1" stroke="#000000"/><text transform="scale(0.095)" x="263" y="132" textLength="693" lengthAdjust="spacingAndGlyphs">C 8.97%</text></g><g transform="translate(15, 84)"><rect x="0.5" y="0.5" rx="2" width="15" height="15" fill="#b07219" stroke-width="1" stroke="#000000"/><text transform="scale(0.095)" x="263" y="132" textLength="933" lengthAdjust="spacingAndGlyphs">Java 6.60%</text></g><g transform="translate(15, 105)"><rect x="0.5" y="0.5" rx="2" width="15" height="15" fill="#00ADD8" stroke-width="1" stroke="#000000"/><text transform="scale(0.095)" x="263" y="132" textLength="806" lengthAdjust="spacingAndGlyphs">Go 5.30%</text></g><g transform="translate(15, 126)"><rect x="0.5" y="0.5" rx="2" width="15" height="15" fill="#A97BFF" stroke-width="1" stroke="#000000"/><text transform="scale(0.095)" x="263" y="132" textLength="1048" lengthAdjust="spacingAndGlyphs">Kotlin 5.02%</text></g><g transform="translate(15, 147)"><rect x="0.5" y="0.5" rx="2" width="15" height="15" fill="#000080" stroke-width="1" stroke="#000000"/><text transform="scale(0.095)" x="263" y="132" textLength="874" lengthAdjust="spacingAndGlyphs">Lua 3.87%</text></g><g transform="translate(15, 168)"><rect x="0.5" y="0.5" rx="2" width="15" height="15" fill="#f1e05a" stroke-width="1" stroke="#000000"/><text transform="scale(0.095)" x="263" y="132" textLength="1412" lengthAdjust="spacingAndGlyphs">JavaScript 2.75%</text></g><g transform="translate(15, 189)"><rect x="0.5" y="0.5" rx="2" width="15" height="15" fill="#3178c6" stroke-width="1" stroke="#000000"/><text transform="scale(0.095)" x="263" y="132" textLength="1462" lengthAdjust="spacingAndGlyphs">TypeScript 1.97%</text></g><g transform="translate(15, 210)"><rect x="0.5" y="0.5" rx="2" width="15" height="15" fill="#6866fb" stroke-width="1" stroke="#000000"/><text transform="scale(0.095)" x="263" y="132" textLength="1814" lengthAdjust="spacingAndGlyphs">Objective-C++ 1.62%</text><rect x="228.5" y="0.5" rx="2" width="15" height="15" fill="#DA3434" stroke-width="1" stroke="#000000"/><text transform="scale(0.095)" x="2663" y="132" textLength="1134" lengthAdjust="spacingAndGlyphs">CMake 1.58%</text></g><g transform="translate(15, 231)"><rect x="0.5" y="0.5" rx="2" width="15" height="15" fill="#89e051" stroke-width="1" stroke="#000000"/><text transform="scale(0.095)" x="263" y="132" textLength="982" lengthAdjust="spacingAndGlyphs">Shell 1.22%</text><rect x="228.5" y="0.5" rx="2" width="15" height="15" fill="#427819" stroke-width="1" stroke="#000000"/><text transform="scale(0.095)" x="2663" y="132" textLength="1272" lengthAdjust="spacingAndGlyphs">Makefile 0.28%</text></g><g transform="translate(15, 252)"><rect x="0.5" y="0.5" rx="2" width="15" height="15" fill="#8f14e9" stroke-width="1" stroke="#000000"/><text transform="scale(0.095)" x="263" y="132" textLength="1034" lengthAdjust="spacingAndGlyphs">Metal 0.17%</text><rect x="228.5" y="0.5" rx="2" width="15" height="15" fill="#5686a5" stroke-width="1" stroke="#000000"/><text transform="scale(0.095)" x="2663" y="132" textLength="993" lengthAdjust="spacingAndGlyphs">GLSL 0.13%</text></g><g transform="translate(15, 273)"><rect x="0.5" y="0.5" rx="2" width="15" height="15" fill="#C1F12E" stroke-width="1" stroke="#000000"/><text transform="scale(0.095)" x="263" y="132" textLength="1304" lengthAdjust="spacingAndGlyphs">Batchfile 0.08%</text><rect x="228.5" y="0.5" rx="2" width="15" height="15" fill="#e34c26" stroke-width="1" stroke="#000000"/><text transform="scale(0.095)" x="2663" y="132" textLength="1036" lengthAdjust="spacingAndGlyphs">HTML 0.06%</text></g><g transform="translate(15, 294)"><rect x="0.5" y="0.5" rx="2" width="15" height="15" fill="#701516" stroke-width="1" stroke="#000000"/><text transform="scale(0.095)" x="263" y="132" textLength="999" lengthAdjust="spacingAndGlyphs">Ruby 0.03%</text></g></g></g></svg>