<svg width="457" height="396" viewBox="0 0 457 396" xmlns="http://www.w3.org/2000/svg" lang="en" xml:lang="en"><rect x="2" y="2" stroke-width="4" rx="0" width="453" height="392" stroke="#ffffff" fill="#ffffff"/><g font-weight="600" font-size="110pt" font-family="Verdana,Geneva,DejaVu Sans,sans-serif" text-rendering="geometricPrecision"><text x="895" y="301" lengthAdjust="spacingAndGlyphs" textLength="1917" transform="scale(0.123)" fill="#0969da">Rinc's GitHub Statistics</text><g transform="translate(0, 60)" fill="#24292f"><g transform="translate(15, 0)"><g transform="scale(0.095)"><text x="0" y="132" textLength="3652" lengthAdjust="spacingAndGlyphs">Language Distribution in Public Repositories</text></g></g><g transform="translate(243, 21)"><circle cx="92" cy="92" r="92" fill="#000000"/></g><g transform="translate(244, 22)"><path fill-rule="evenodd" fill="#f34b7d" d="M 0.0,91.00000000000001 A 91 91 0 0 1 168.8033056835872 43.80205910522915 L 91,91 Z"/><path fill-rule="evenodd" fill="#438eff" d="M 168.8033056835872,43.80205910522915 A 91 91 0 0 1 174.85906812690232 126.33633672139143 L 91,91 Z"/><path fill-rule="evenodd" fill="#555555" d="M 174.85906812690232,126.33633672139143 A 91 91 0 0 1 146.661773023772 162.99143715644306 L 91,91 Z"/><path fill-rule="evenodd" fill="#dea584" d="M 146.661773023772,162.99143715644306 A 91 91 0 0 1 108.40713308471676 180.31960433057773 L 91,91 Z"/><path fill-rule="evenodd" fill="#b07219" d="M 108.40713308471676,180.31960433057773 A 91 91 0 0 1 74.25069539295906 180.44529498626832 L 91,91 Z"/><path fill-rule="evenodd" fill="#00ADD8" d="M 74.25069539295906,180.44529498626832 A 91 91 0 0 1 48.32733379354577 171.3743961646527 L 91,91 Z"/><path fill-rule="evenodd" fill="#A97BFF" d="M 48.32733379354577,171.3743961646527 A 91 91 0 0 1 27.30869848502975 155.99552377917382 L 91,91 Z"/><path fill-rule="evenodd" fill="#000080" d="M 27.30869848502975,155.99552377917382 A 91 91 0 0 1 14.609292330171854 140.45159028487214 L 91,91 Z"/><path fill-rule="evenodd" fill="#f1e05a" d="M 14.609292330171854,140.45159028487214 A 91 91 0 0 1 7.816559995038361 127.89871690101091 L 91,91 Z"/><path fill-rule="evenodd" fill="#3178c6" d="M 7.816559995038361,127.89871690101091 A 91 91 0 0 1 4.189715850871224 118.29422220814365 L 91,91 Z"/><path fill-rule="evenodd" fill="#6866fb" d="M 4.189715850871224,118.29422220814365 A 91 91 0 0 1 1.9040886390587133 109.51806088021347 L 91,91 Z"/><path fill-rule="evenodd" fill="#DA3434" d="M 1.9040886390587133,109.51806088021347 A 91 91 0 0 1 0.5766719569312073 101.22847718947301 L 91,91 Z"/><path fill-rule="evenodd" fill="#89e051" d="M 0.5766719569312073,101.22847718947301 A 91 91 0 0 1 0.08277115378081135 94.88039932535405 L 91,91 Z"/><path fill-rule="evenodd" fill="#427819" d="M 0.08277115378081135,94.88039932535405 A 91 91 0 0 1 0.032093267023924454 93.41659773660531 L 91,91 Z"/><path fill-rule="evenodd" fill="#8f14e9" d="M 0.032093267023924454,93.41659773660531 A 91 91 0 0 1 0.01326598142139801 92.55378011070798 L 91,91 Z"/><path fill-rule="evenodd" fill="#5686a5" d="M 0.01326598142139801,92.55378011070798 A 91 91 0 0 1 0.0041701793770556606 91.87118038099352 L 91,91 Z"/><path fill-rule="evenodd" fill="#C1F12E" d="M 0.0041701793770556606,91.87118038099352 A 91 91 0 0 1 0.0011838751962187644 91.46418087439183 L 91,91 Z"/><path fill-rule="evenodd" fill="#e34c26" d="M 0.0011838751962187644,91.46418087439183 A 91 91 0 0 1 0.00011985536707470601 91.14769449022062 L 91,91 Z"/><path fill-rule="evenodd" fill="#701516" d="M 0.00011985536707470601,91.14769449022062 A 91 91 0 0 1 0.0 91.00000000000003 L 91,91 Z"/></g><g transform="translate(15, 21)"><rect x="0.5" y="0.5" rx="2" width="15" height="15" fill="#f34b7d" stroke-width="1" stroke="#000000"/><text transform="scale(0.095)" x="263" y="132" textLength="1074" lengthAdjust="spacingAndGlyphs">C++ 41.32%</text></g><g transform="translate(15, 42)"><rect x="0.5" y="0.5" rx="2" width="15" height="15" fill="#438eff" stroke-width="1" stroke="#000000"/><text transform="scale(0.095)" x="263" y="132" textLength="1642" lengthAdjust="spacingAndGlyphs">Objective-C 15.03%</text></g><g transform="translate(15, 63)"><rect x="0.5" y="0.5" rx="2" width="15" height="15" fill="#555555" stroke-width="1" stroke="#000000"/><text transform="scale(0.095)" x="263" y="132" textLength="693" lengthAdjust="spacingAndGlyphs">C 8.18%</text></g><g transform="translate(15, 84)"><rect x="0.5" y="0.5" rx="2" width="15" height="15" fill="#dea584" stroke-width="1" stroke="#000000"/><text transform="scale(0.095)" x="263" y="132" textLength="946" lengthAdjust="spacingAndGlyphs">Rust 7.41%</text></g><g transform="translate(15, 105)"><rect x="0.5" y="0.5" rx="2" width="15" height="15" fill="#b07219" stroke-width="1" stroke="#000000"/><text transform="scale(0.095)" x="263" y="132" textLength="933" lengthAdjust="spacingAndGlyphs">Java 6.01%</text></g><g transform="translate(15, 126)"><rect x="0.5" y="0.5" rx="2" width="15" height="15" fill="#00ADD8" stroke-width="1" stroke="#000000"/><text transform="scale(0.095)" x="263" y="132" textLength="806" lengthAdjust="spacingAndGlyphs">Go 4.82%</text></g><g transform="translate(15, 147)"><rect x="0.5" y="0.5" rx="2" width="15" height="15" fill="#A97BFF" stroke-width="1" stroke="#000000"/><text transform="scale(0.095)" x="263" y="132" textLength="1048" lengthAdjust="spacingAndGlyphs">Kotlin 4.57%</text></g><g transform="translate(15, 168)"><rect x="0.5" y="0.5" rx="2" width="15" height="15" fill="#000080" stroke-width="1" stroke="#000000"/><text transform="scale(0.095)" x="263" y="132" textLength="874" lengthAdjust="spacingAndGlyphs">Lua 3.52%</text></g><g transform="translate(15, 189)"><rect x="0.5" y="0.5" rx="2" width="15" height="15" fill="#f1e05a" stroke-width="1" stroke="#000000"/><text transform="scale(0.095)" x="263" y="132" textLength="1412" lengthAdjust="spacingAndGlyphs">JavaScript 2.50%</text></g><g transform="translate(15, 210)"><rect x="0.5" y="0.5" rx="2" width="15" height="15" fill="#3178c6" stroke-width="1" stroke="#000000"/><text transform="scale(0.095)" x="263" y="132" textLength="1462" lengthAdjust="spacingAndGlyphs">TypeScript 1.80%</text><rect x="228.5" y="0.5" rx="2" width="15" height="15" fill="#6866fb" stroke-width="1" stroke="#000000"/><text transform="scale(0.095)" x="2663" y="132" textLength="1814" lengthAdjust="spacingAndGlyphs">Objective-C++ 1.59%</text></g><g transform="translate(15, 231)"><rect x="0.5" y="0.5" rx="2" width="15" height="15" fill="#DA3434" stroke-width="1" stroke="#000000"/><text transform="scale(0.095)" x="263" y="132" textLength="1134" lengthAdjust="spacingAndGlyphs">CMake 1.47%</text><rect x="228.5" y="0.5" rx="2" width="15" height="15" fill="#89e051" stroke-width="1" stroke="#000000"/><text transform="scale(0.095)" x="2663" y="132" textLength="982" lengthAdjust="spacingAndGlyphs">Shell 1.11%</text></g><g transform="translate(15, 252)"><rect x="0.5" y="0.5" rx="2" width="15" height="15" fill="#427819" stroke-width="1" stroke="#000000"/><text transform="scale(0.095)" x="263" y="132" textLength="1272" lengthAdjust="spacingAndGlyphs">Makefile 0.26%</text><rect x="228.5" y="0.5" rx="2" width="15" height="15" fill="#8f14e9" stroke-width="1" stroke="#000000"/><text transform="scale(0.095)" x="2663" y="132" textLength="1034" lengthAdjust="spacingAndGlyphs">Metal 0.15%</text></g><g transform="translate(15, 273)"><rect x="0.5" y="0.5" rx="2" width="15" height="15" fill="#5686a5" stroke-width="1" stroke="#000000"/><text transform="scale(0.095)" x="263" y="132" textLength="993" lengthAdjust="spacingAndGlyphs">GLSL 0.12%</text><rect x="228.5" y="0.5" rx="2" width="15" height="15" fill="#C1F12E" stroke-width="1" stroke="#000000"/><text transform="scale(0.095)" x="2663" y="132" textLength="1304" lengthAdjust="spacingAndGlyphs">Batchfile 0.07%</text></g><g transform="translate(15, 294)"><rect x="0.5" y="0.5" rx="2" width="15" height="15" fill="#e34c26" stroke-width="1" stroke="#000000"/><text transform="scale(0.095)" x="263" y="132" textLength="1036" lengthAdjust="spacingAndGlyphs">HTML 0.06%</text><rect x="228.5" y="0.5" rx="2" width="15" height="15" fill="#701516" stroke-width="1" stroke="#000000"/><text transform="scale(0.095)" x="2663" y="132" textLength="999" lengthAdjust="spacingAndGlyphs">Ruby 0.03%</text></g></g></g></svg>