<svg width="457" height="354" viewBox="0 0 457 354" xmlns="http://www.w3.org/2000/svg" lang="en" xml:lang="en"><rect x="2" y="2" stroke-width="4" rx="0" width="453" height="350" stroke="#ffffff" fill="#ffffff"/><g font-weight="600" font-size="110pt" font-family="Verdana,Geneva,DejaVu Sans,sans-serif" text-rendering="geometricPrecision"><text x="1796" y="301" lengthAdjust="spacingAndGlyphs" textLength="116" transform="scale(0.123)" fill="#0969da">📊</text><g transform="translate(0, 60)" fill="#24292f"><g transform="translate(15, 0)"><g transform="scale(0.095)"><text x="0" y="132" textLength="3652" lengthAdjust="spacingAndGlyphs">Language Distribution in Public Repositories</text></g></g><g transform="translate(243, 21)"><circle cx="92" cy="92" r="92" fill="#000000"/></g><g transform="translate(244, 22)"><path fill-rule="evenodd" fill="#f34b7d" d="M 0.0,91.00000000000001 A 91 91 0 0 1 181.84653671513814 85.71731442682281 L 91,91 Z"/><path fill-rule="evenodd" fill="#438eff" d="M 181.84653671513814,85.71731442682281 A 91 91 0 0 1 153.23861226595497 157.38791413509028 L 91,91 Z"/><path fill-rule="evenodd" fill="#555555" d="M 153.23861226595497,157.38791413509028 A 91 91 0 0 1 117.01141666124403 178.2032465179775 L 91,91 Z"/><path fill-rule="evenodd" fill="#dea584" d="M 117.01141666124403,178.2032465179775 A 91 91 0 0 1 78.20751400459727 181.0963501039716 L 91,91 Z"/><path fill-rule="evenodd" fill="#b07219" d="M 78.20751400459727,181.0963501039716 A 91 91 0 0 1 48.13758994289135 171.27336920857545 L 91,91 Z"/><path fill-rule="evenodd" fill="#00ADD8" d="M 48.13758994289135,171.27336920857545 A 91 91 0 0 1 27.60017524720523 156.27987608225763 L 91,91 Z"/><path fill-rule="evenodd" fill="#A97BFF" d="M 27.60017524720523,156.27987608225763 A 91 91 0 0 1 12.609657649608337 137.2163848238738 L 91,91 Z"/><path fill-rule="evenodd" fill="#000080" d="M 12.609657649608337,137.2163848238738 A 91 91 0 0 1 6.297708712433945 124.26442319710821 L 91,91 Z"/><path fill-rule="evenodd" fill="#f1e05a" d="M 6.297708712433945,124.26442319710821 A 91 91 0 0 1 2.202618583492253 110.90037822683892 L 91,91 Z"/><path fill-rule="evenodd" fill="#3178c6" d="M 2.202618583492253,110.90037822683892 A 91 91 0 0 1 0.6443770093507766 101.81024486178103 L 91,91 Z"/><path fill-rule="evenodd" fill="#6866fb" d="M 0.6443770093507766,101.81024486178103 A 91 91 0 0 1 0.016278343526821004 92.72116052052506 L 91,91 Z"/><path fill-rule="evenodd" fill="#8f14e9" d="M 0.016278343526821004,92.72116052052506 A 91 91 0 0 1 0.0046775175226088095 91.92265178152192 L 91,91 Z"/><path fill-rule="evenodd" fill="#5686a5" d="M 0.0046775175226088095,91.92265178152192 A 91 91 0 0 1 0.0004651868991629726 91.29097044394463 L 91,91 Z"/><path fill-rule="evenodd" fill="#959da5" d="M 0.0004651868991629726,91.29097044394463 A 91 91 0 0 1 0.0 91.00000000000003 L 91,91 Z"/></g><g transform="translate(15, 21)"><rect x="0.5" y="0.5" rx="2" width="15" height="15" fill="#f34b7d" stroke-width="1" stroke="#000000"/><text transform="scale(0.095)" x="263" y="132" textLength="1074" lengthAdjust="spacingAndGlyphs">C++ 49.08%</text></g><g transform="translate(15, 42)"><rect x="0.5" y="0.5" rx="2" width="15" height="15" fill="#438eff" stroke-width="1" stroke="#000000"/><text transform="scale(0.095)" x="263" y="132" textLength="1642" lengthAdjust="spacingAndGlyphs">Objective-C 13.94%</text></g><g transform="translate(15, 63)"><rect x="0.5" y="0.5" rx="2" width="15" height="15" fill="#555555" stroke-width="1" stroke="#000000"/><text transform="scale(0.095)" x="263" y="132" textLength="693" lengthAdjust="spacingAndGlyphs">C 7.37%</text></g><g transform="translate(15, 84)"><rect x="0.5" y="0.5" rx="2" width="15" height="15" fill="#dea584" stroke-width="1" stroke="#000000"/><text transform="scale(0.095)" x="263" y="132" textLength="946" lengthAdjust="spacingAndGlyphs">Rust 6.86%</text></g><g transform="translate(15, 105)"><rect x="0.5" y="0.5" rx="2" width="15" height="15" fill="#b07219" stroke-width="1" stroke="#000000"/><text transform="scale(0.095)" x="263" y="132" textLength="933" lengthAdjust="spacingAndGlyphs">Java 5.56%</text></g><g transform="translate(15, 126)"><rect x="0.5" y="0.5" rx="2" width="15" height="15" fill="#00ADD8" stroke-width="1" stroke="#000000"/><text transform="scale(0.095)" x="263" y="132" textLength="806" lengthAdjust="spacingAndGlyphs">Go 4.46%</text></g><g transform="translate(15, 147)"><rect x="0.5" y="0.5" rx="2" width="15" height="15" fill="#A97BFF" stroke-width="1" stroke="#000000"/><text transform="scale(0.095)" x="263" y="132" textLength="1048" lengthAdjust="spacingAndGlyphs">Kotlin 4.25%</text></g><g transform="translate(15, 168)"><rect x="0.5" y="0.5" rx="2" width="15" height="15" fill="#000080" stroke-width="1" stroke="#000000"/><text transform="scale(0.095)" x="263" y="132" textLength="874" lengthAdjust="spacingAndGlyphs">Lua 2.52%</text></g><g transform="translate(15, 189)"><rect x="0.5" y="0.5" rx="2" width="15" height="15" fill="#f1e05a" stroke-width="1" stroke="#000000"/><text transform="scale(0.095)" x="263" y="132" textLength="1412" lengthAdjust="spacingAndGlyphs">JavaScript 2.45%</text></g><g transform="translate(15, 210)"><rect x="0.5" y="0.5" rx="2" width="15" height="15" fill="#3178c6" stroke-width="1" stroke="#000000"/><text transform="scale(0.095)" x="263" y="132" textLength="1462" lengthAdjust="spacingAndGlyphs">TypeScript 1.61%</text><rect x="228.5" y="0.5" rx="2" width="15" height="15" fill="#6866fb" stroke-width="1" stroke="#000000"/><text transform="scale(0.095)" x="2663" y="132" textLength="1814" lengthAdjust="spacingAndGlyphs">Objective-C++ 1.59%</text></g><g transform="translate(15, 231)"><rect x="0.5" y="0.5" rx="2" width="15" height="15" fill="#8f14e9" stroke-width="1" stroke="#000000"/><text transform="scale(0.095)" x="263" y="132" textLength="1034" lengthAdjust="spacingAndGlyphs">Metal 0.14%</text><rect x="228.5" y="0.5" rx="2" width="15" height="15" fill="#5686a5" stroke-width="1" stroke="#000000"/><text transform="scale(0.095)" x="2663" y="132" textLength="993" lengthAdjust="spacingAndGlyphs">GLSL 0.11%</text></g><g transform="translate(15, 252)"><rect x="0.5" y="0.5" rx="2" width="15" height="15" fill="#959da5" stroke-width="1" stroke="#000000"/><text transform="scale(0.095)" x="263" y="132" textLength="1047" lengthAdjust="spacingAndGlyphs">Other 0.05%</text></g></g></g></svg>