<svg width="457" height="396" viewBox="0 0 457 396" xmlns="http://www.w3.org/2000/svg" lang="en" xml:lang="en"><rect x="2" y="2" stroke-width="4" rx="0" width="453" height="392" stroke="#ffffff" fill="#ffffff"/><g font-weight="600" font-size="110pt" font-family="Verdana,Geneva,DejaVu Sans,sans-serif" text-rendering="geometricPrecision"><text x="895" y="301" lengthAdjust="spacingAndGlyphs" textLength="1917" transform="scale(0.123)" fill="#0969da">Rinc's GitHub Statistics</text><g transform="translate(0, 60)" fill="#24292f"><g transform="translate(15, 0)"><g transform="scale(0.095)"><text x="0" y="132" textLength="3652" lengthAdjust="spacingAndGlyphs">Language Distribution in Public Repositories</text></g></g><g transform="translate(243, 21)"><circle cx="92" cy="92" r="92" fill="#000000"/></g><g transform="translate(244, 22)"><path fill-rule="evenodd" fill="#f34b7d" d="M 0.0,91.00000000000001 A 91 91 0 0 1 168.3670924803508 43.09036630137061 L 91,91 Z"/><path fill-rule="evenodd" fill="#438eff" d="M 168.3670924803508,43.09036630137061 A 91 91 0 0 1 175.04245255814507 125.89793930896113 L 91,91 Z"/><path fill-rule="evenodd" fill="#555555" d="M 175.04245255814507,125.89793930896113 A 91 91 0 0 1 146.94627628582577 162.77056617966764 L 91,91 Z"/><path fill-rule="evenodd" fill="#dea584" d="M 146.94627628582577,162.77056617966764 A 91 91 0 0 1 108.58654717312672 180.28445194168683 L 91,91 Z"/><path fill-rule="evenodd" fill="#b07219" d="M 108.58654717312672,180.28445194168683 A 91 91 0 0 1 74.28905917240972 180.45247037760765 L 91,91 Z"/><path fill-rule="evenodd" fill="#00ADD8" d="M 74.28905917240972,180.45247037760765 A 91 91 0 0 1 48.25991447110601 171.33856539037043 L 91,91 Z"/><path fill-rule="evenodd" fill="#A97BFF" d="M 48.25991447110601,171.33856539037043 A 91 91 0 0 1 27.176184970797884 155.86540399256137 L 91,91 Z"/><path fill-rule="evenodd" fill="#000080" d="M 27.176184970797884,155.86540399256137 A 91 91 0 0 1 14.462964193527455 140.22481234051318 L 91,91 Z"/><path fill-rule="evenodd" fill="#f1e05a" d="M 14.462964193527455,140.22481234051318 A 91 91 0 0 1 7.683426629613194 127.59711193273252 L 91,91 Z"/><path fill-rule="evenodd" fill="#3178c6" d="M 7.683426629613194,127.59711193273252 A 91 91 0 0 1 4.078666994189561 117.93848303993767 L 91,91 Z"/><path fill-rule="evenodd" fill="#6866fb" d="M 4.078666994189561,117.93848303993767 A 91 91 0 0 1 1.92000258576239 109.59446317266028 L 91,91 Z"/><path fill-rule="evenodd" fill="#DA3434" d="M 1.92000258576239,109.59446317266028 A 91 91 0 0 1 0.5815035746028485 101.27110043619685 L 91,91 Z"/><path fill-rule="evenodd" fill="#89e051" d="M 0.5815035746028485,101.27110043619685 A 91 91 0 0 1 0.08346528200280545 94.89662865451785 L 91,91 Z"/><path fill-rule="evenodd" fill="#427819" d="M 0.08346528200280545,94.89662865451785 A 91 91 0 0 1 0.03236242997753891 93.42670866175509 L 91,91 Z"/><path fill-rule="evenodd" fill="#8f14e9" d="M 0.03236242997753891,93.42670866175509 A 91 91 0 0 1 0.013377245722338671 92.56028195232861 L 91,91 Z"/><path fill-rule="evenodd" fill="#5686a5" d="M 0.013377245722338671,92.56028195232861 A 91 91 0 0 1 0.004205156049593484 91.87482610711452 L 91,91 Z"/><path fill-rule="evenodd" fill="#C1F12E" d="M 0.004205156049593484,91.87482610711452 A 91 91 0 0 1 0.0011938048034920712 91.46612342685646 L 91,91 Z"/><path fill-rule="evenodd" fill="#e34c26" d="M 0.0011938048034920712,91.46612342685646 A 91 91 0 0 1 0.00012086064116090256 91.14831258235299 L 91,91 Z"/><path fill-rule="evenodd" fill="#701516" d="M 0.00012086064116090256,91.14831258235299 A 91 91 0 0 1 0.0 91.00000000000003 L 91,91 Z"/></g><g transform="translate(15, 21)"><rect x="0.5" y="0.5" rx="2" width="15" height="15" fill="#f34b7d" stroke-width="1" stroke="#000000"/><text transform="scale(0.095)" x="263" y="132" textLength="1074" lengthAdjust="spacingAndGlyphs">C++ 41.18%</text></g><g transform="translate(15, 42)"><rect x="0.5" y="0.5" rx="2" width="15" height="15" fill="#438eff" stroke-width="1" stroke="#000000"/><text transform="scale(0.095)" x="263" y="132" textLength="1642" lengthAdjust="spacingAndGlyphs">Objective-C 15.09%</text></g><g transform="translate(15, 63)"><rect x="0.5" y="0.5" rx="2" width="15" height="15" fill="#555555" stroke-width="1" stroke="#000000"/><text transform="scale(0.095)" x="263" y="132" textLength="693" lengthAdjust="spacingAndGlyphs">C 8.20%</text></g><g transform="translate(15, 84)"><rect x="0.5" y="0.5" rx="2" width="15" height="15" fill="#dea584" stroke-width="1" stroke="#000000"/><text transform="scale(0.095)" x="263" y="132" textLength="946" lengthAdjust="spacingAndGlyphs">Rust 7.44%</text></g><g transform="translate(15, 105)"><rect x="0.5" y="0.5" rx="2" width="15" height="15" fill="#b07219" stroke-width="1" stroke="#000000"/><text transform="scale(0.095)" x="263" y="132" textLength="933" lengthAdjust="spacingAndGlyphs">Java 6.03%</text></g><g transform="translate(15, 126)"><rect x="0.5" y="0.5" rx="2" width="15" height="15" fill="#00ADD8" stroke-width="1" stroke="#000000"/><text transform="scale(0.095)" x="263" y="132" textLength="806" lengthAdjust="spacingAndGlyphs">Go 4.84%</text></g><g transform="translate(15, 147)"><rect x="0.5" y="0.5" rx="2" width="15" height="15" fill="#A97BFF" stroke-width="1" stroke="#000000"/><text transform="scale(0.095)" x="263" y="132" textLength="1048" lengthAdjust="spacingAndGlyphs">Kotlin 4.59%</text></g><g transform="translate(15, 168)"><rect x="0.5" y="0.5" rx="2" width="15" height="15" fill="#000080" stroke-width="1" stroke="#000000"/><text transform="scale(0.095)" x="263" y="132" textLength="874" lengthAdjust="spacingAndGlyphs">Lua 3.53%</text></g><g transform="translate(15, 189)"><rect x="0.5" y="0.5" rx="2" width="15" height="15" fill="#f1e05a" stroke-width="1" stroke="#000000"/><text transform="scale(0.095)" x="263" y="132" textLength="1412" lengthAdjust="spacingAndGlyphs">JavaScript 2.51%</text></g><g transform="translate(15, 210)"><rect x="0.5" y="0.5" rx="2" width="15" height="15" fill="#3178c6" stroke-width="1" stroke="#000000"/><text transform="scale(0.095)" x="263" y="132" textLength="1462" lengthAdjust="spacingAndGlyphs">TypeScript 1.80%</text><rect x="228.5" y="0.5" rx="2" width="15" height="15" fill="#6866fb" stroke-width="1" stroke="#000000"/><text transform="scale(0.095)" x="2663" y="132" textLength="1814" lengthAdjust="spacingAndGlyphs">Objective-C++ 1.51%</text></g><g transform="translate(15, 231)"><rect x="0.5" y="0.5" rx="2" width="15" height="15" fill="#DA3434" stroke-width="1" stroke="#000000"/><text transform="scale(0.095)" x="263" y="132" textLength="1134" lengthAdjust="spacingAndGlyphs">CMake 1.47%</text><rect x="228.5" y="0.5" rx="2" width="15" height="15" fill="#89e051" stroke-width="1" stroke="#000000"/><text transform="scale(0.095)" x="2663" y="132" textLength="982" lengthAdjust="spacingAndGlyphs">Shell 1.12%</text></g><g transform="translate(15, 252)"><rect x="0.5" y="0.5" rx="2" width="15" height="15" fill="#427819" stroke-width="1" stroke="#000000"/><text transform="scale(0.095)" x="263" y="132" textLength="1272" lengthAdjust="spacingAndGlyphs">Makefile 0.26%</text><rect x="228.5" y="0.5" rx="2" width="15" height="15" fill="#8f14e9" stroke-width="1" stroke="#000000"/><text transform="scale(0.095)" x="2663" y="132" textLength="1034" lengthAdjust="spacingAndGlyphs">Metal 0.15%</text></g><g transform="translate(15, 273)"><rect x="0.5" y="0.5" rx="2" width="15" height="15" fill="#5686a5" stroke-width="1" stroke="#000000"/><text transform="scale(0.095)" x="263" y="132" textLength="993" lengthAdjust="spacingAndGlyphs">GLSL 0.12%</text><rect x="228.5" y="0.5" rx="2" width="15" height="15" fill="#C1F12E" stroke-width="1" stroke="#000000"/><text transform="scale(0.095)" x="2663" y="132" textLength="1304" lengthAdjust="spacingAndGlyphs">Batchfile 0.07%</text></g><g transform="translate(15, 294)"><rect x="0.5" y="0.5" rx="2" width="15" height="15" fill="#e34c26" stroke-width="1" stroke="#000000"/><text transform="scale(0.095)" x="263" y="132" textLength="1036" lengthAdjust="spacingAndGlyphs">HTML 0.06%</text><rect x="228.5" y="0.5" rx="2" width="15" height="15" fill="#701516" stroke-width="1" stroke="#000000"/><text transform="scale(0.095)" x="2663" y="132" textLength="999" lengthAdjust="spacingAndGlyphs">Ruby 0.03%</text></g></g></g></svg>