<svg width="457" height="354" viewBox="0 0 457 354" xmlns="http://www.w3.org/2000/svg" lang="en" xml:lang="en"><rect x="2" y="2" stroke-width="4" rx="0" width="453" height="350" stroke="#ffffff" fill="#ffffff"/><g font-weight="600" font-size="110pt" font-family="Verdana,Geneva,DejaVu Sans,sans-serif" text-rendering="geometricPrecision"><text x="1828" y="301" lengthAdjust="spacingAndGlyphs" textLength="52" transform="scale(0.123)" fill="#0969da">.</text><g transform="translate(0, 60)" fill="#24292f"><g transform="translate(15, 0)"><g transform="scale(0.095)"><text x="0" y="132" textLength="3652" lengthAdjust="spacingAndGlyphs">Language Distribution in Public Repositories</text></g></g><g transform="translate(243, 21)"><circle cx="92" cy="92" r="92" fill="#000000"/></g><g transform="translate(244, 22)"><path fill-rule="evenodd" fill="#f34b7d" d="M 0.0,91.00000000000001 A 91 91 0 1 1 179.86494475355204 110.59646891529556 L 91,91 Z"/><path fill-rule="evenodd" fill="#438eff" d="M 179.86494475355204,110.59646891529556 A 91 91 0 0 1 142.47874658765144 166.0395805542939 L 91,91 Z"/><path fill-rule="evenodd" fill="#555555" d="M 142.47874658765144,166.0395805542939 A 91 91 0 0 1 108.25967296008449 180.34821592684955 L 91,91 Z"/><path fill-rule="evenodd" fill="#dea584" d="M 108.25967296008449,180.34821592684955 A 91 91 0 0 1 73.8418990451366 180.3677770318962 L 91,91 Z"/><path fill-rule="evenodd" fill="#b07219" d="M 73.8418990451366,180.3677770318962 A 91 91 0 0 1 47.5157239117088 170.9382119707294 L 91,91 Z"/><path fill-rule="evenodd" fill="#00ADD8" d="M 47.5157239117088,170.9382119707294 A 91 91 0 0 1 29.254302454455342 157.8466067546747 L 91,91 Z"/><path fill-rule="evenodd" fill="#A97BFF" d="M 29.254302454455342,157.8466067546747 A 91 91 0 0 1 17.92021855367092 145.22495314665358 L 91,91 Z"/><path fill-rule="evenodd" fill="#f1e05a" d="M 17.92021855367092,145.22495314665358 A 91 91 0 0 1 9.41768023023603 131.31532092125744 L 91,91 Z"/><path fill-rule="evenodd" fill="#000080" d="M 9.41768023023603,131.31532092125744 A 91 91 0 0 1 3.5582008950020025 116.19785247359724 L 91,91 Z"/><path fill-rule="evenodd" fill="#DA3434" d="M 3.5582008950020025,116.19785247359724 A 91 91 0 0 1 0.5298712106599197 100.80590622228355 L 91,91 Z"/><path fill-rule="evenodd" fill="#6866fb" d="M 0.5298712106599197,100.80590622228355 A 91 91 0 0 1 0.017411016242661503 92.78002859883725 L 91,91 Z"/><path fill-rule="evenodd" fill="#8f14e9" d="M 0.017411016242661503,92.78002859883725 A 91 91 0 0 1 0.0063492916931551235 92.07495617336113 L 91,91 Z"/><path fill-rule="evenodd" fill="#5686a5" d="M 0.0063492916931551235,92.07495617336113 A 91 91 0 0 1 0.001469708987173135 91.51718940014301 L 91,91 Z"/><path fill-rule="evenodd" fill="#959da5" d="M 0.001469708987173135,91.51718940014301 A 91 91 0 0 1 0.0 91.00000000000003 L 91,91 Z"/></g><g transform="translate(15, 21)"><rect x="0.5" y="0.5" rx="2" width="15" height="15" fill="#f34b7d" stroke-width="1" stroke="#000000"/><text transform="scale(0.095)" x="263" y="132" textLength="1074" lengthAdjust="spacingAndGlyphs">C++ 53.45%</text></g><g transform="translate(15, 42)"><rect x="0.5" y="0.5" rx="2" width="15" height="15" fill="#438eff" stroke-width="1" stroke="#000000"/><text transform="scale(0.095)" x="263" y="132" textLength="1642" lengthAdjust="spacingAndGlyphs">Objective-C 11.98%</text></g><g transform="translate(15, 63)"><rect x="0.5" y="0.5" rx="2" width="15" height="15" fill="#555555" stroke-width="1" stroke="#000000"/><text transform="scale(0.095)" x="263" y="132" textLength="693" lengthAdjust="spacingAndGlyphs">C 6.53%</text></g><g transform="translate(15, 84)"><rect x="0.5" y="0.5" rx="2" width="15" height="15" fill="#dea584" stroke-width="1" stroke="#000000"/><text transform="scale(0.095)" x="263" y="132" textLength="946" lengthAdjust="spacingAndGlyphs">Rust 6.06%</text></g><g transform="translate(15, 105)"><rect x="0.5" y="0.5" rx="2" width="15" height="15" fill="#b07219" stroke-width="1" stroke="#000000"/><text transform="scale(0.095)" x="263" y="132" textLength="933" lengthAdjust="spacingAndGlyphs">Java 4.91%</text></g><g transform="translate(15, 126)"><rect x="0.5" y="0.5" rx="2" width="15" height="15" fill="#00ADD8" stroke-width="1" stroke="#000000"/><text transform="scale(0.095)" x="263" y="132" textLength="806" lengthAdjust="spacingAndGlyphs">Go 3.94%</text></g><g transform="translate(15, 147)"><rect x="0.5" y="0.5" rx="2" width="15" height="15" fill="#A97BFF" stroke-width="1" stroke="#000000"/><text transform="scale(0.095)" x="263" y="132" textLength="1048" lengthAdjust="spacingAndGlyphs">Kotlin 2.97%</text></g><g transform="translate(15, 168)"><rect x="0.5" y="0.5" rx="2" width="15" height="15" fill="#f1e05a" stroke-width="1" stroke="#000000"/><text transform="scale(0.095)" x="263" y="132" textLength="1412" lengthAdjust="spacingAndGlyphs">JavaScript 2.86%</text></g><g transform="translate(15, 189)"><rect x="0.5" y="0.5" rx="2" width="15" height="15" fill="#000080" stroke-width="1" stroke="#000000"/><text transform="scale(0.095)" x="263" y="132" textLength="874" lengthAdjust="spacingAndGlyphs">Lua 2.84%</text></g><g transform="translate(15, 210)"><rect x="0.5" y="0.5" rx="2" width="15" height="15" fill="#DA3434" stroke-width="1" stroke="#000000"/><text transform="scale(0.095)" x="263" y="132" textLength="1134" lengthAdjust="spacingAndGlyphs">CMake 2.75%</text><rect x="228.5" y="0.5" rx="2" width="15" height="15" fill="#6866fb" stroke-width="1" stroke="#000000"/><text transform="scale(0.095)" x="2663" y="132" textLength="1814" lengthAdjust="spacingAndGlyphs">Objective-C++ 1.41%</text></g><g transform="translate(15, 231)"><rect x="0.5" y="0.5" rx="2" width="15" height="15" fill="#8f14e9" stroke-width="1" stroke="#000000"/><text transform="scale(0.095)" x="263" y="132" textLength="1034" lengthAdjust="spacingAndGlyphs">Metal 0.12%</text><rect x="228.5" y="0.5" rx="2" width="15" height="15" fill="#5686a5" stroke-width="1" stroke="#000000"/><text transform="scale(0.095)" x="2663" y="132" textLength="993" lengthAdjust="spacingAndGlyphs">GLSL 0.10%</text></g><g transform="translate(15, 252)"><rect x="0.5" y="0.5" rx="2" width="15" height="15" fill="#959da5" stroke-width="1" stroke="#000000"/><text transform="scale(0.095)" x="263" y="132" textLength="1047" lengthAdjust="spacingAndGlyphs">Other 0.09%</text></g></g></g></svg>