<svg width="457" height="354" viewBox="0 0 457 354" xmlns="http://www.w3.org/2000/svg" lang="en" xml:lang="en"><rect x="2" y="2" stroke-width="4" rx="0" width="453" height="350" stroke="#ffffff" fill="#ffffff"/><g font-weight="600" font-size="110pt" font-family="Verdana,Geneva,DejaVu Sans,sans-serif" text-rendering="geometricPrecision"><text x="1796" y="301" lengthAdjust="spacingAndGlyphs" textLength="116" transform="scale(0.123)" fill="#0969da">📊</text><g transform="translate(0, 60)" fill="#24292f"><g transform="translate(15, 0)"><g transform="scale(0.095)"><text x="0" y="132" textLength="3652" lengthAdjust="spacingAndGlyphs">Language Distribution in Public Repositories</text></g></g><g transform="translate(243, 21)"><circle cx="92" cy="92" r="92" fill="#000000"/></g><g transform="translate(244, 22)"><path fill-rule="evenodd" fill="#f34b7d" d="M 0.0,91.00000000000001 A 91 91 0 0 1 180.69041401752946 75.61722933395428 L 91,91 Z"/><path fill-rule="evenodd" fill="#438eff" d="M 180.69041401752946,75.61722933395428 A 91 91 0 0 1 162.07501363130558 147.82730362519172 L 91,91 Z"/><path fill-rule="evenodd" fill="#555555" d="M 162.07501363130558,147.82730362519172 A 91 91 0 0 1 130.62441143168522 172.92011974290892 L 91,91 Z"/><path fill-rule="evenodd" fill="#dea584" d="M 130.62441143168522,172.92011974290892 A 91 91 0 0 1 94.18890136057213 181.94410870481136 L 91,91 Z"/><path fill-rule="evenodd" fill="#b07219" d="M 94.18890136057213,181.94410870481136 A 91 91 0 0 1 63.949938088448654 177.88667418299104 L 91,91 Z"/><path fill-rule="evenodd" fill="#00ADD8" d="M 63.949938088448654,177.88667418299104 A 91 91 0 0 1 41.73224559606519 167.509400572698 L 91,91 Z"/><path fill-rule="evenodd" fill="#3178c6" d="M 41.73224559606519,167.509400572698 A 91 91 0 0 1 23.776616458252576 152.33528108029765 L 91,91 Z"/><path fill-rule="evenodd" fill="#A97BFF" d="M 23.776616458252576,152.33528108029765 A 91 91 0 0 1 10.364408035527362 133.17702346703803 L 91,91 Z"/><path fill-rule="evenodd" fill="#000080" d="M 10.364408035527362,133.17702346703803 A 91 91 0 0 1 4.883969763685286 120.41138106818737 L 91,91 Z"/><path fill-rule="evenodd" fill="#f1e05a" d="M 4.883969763685286,120.41138106818737 A 91 91 0 0 1 1.4845461801450597 107.37020242469279 L 91,91 Z"/><path fill-rule="evenodd" fill="#6866fb" d="M 1.4845461801450597,107.37020242469279 A 91 91 0 0 1 0.32322757101937327 98.66308957685203 L 91,91 Z"/><path fill-rule="evenodd" fill="#DA3434" d="M 0.32322757101937327,98.66308957685203 A 91 91 0 0 1 0.015131514548201608 92.6594296264196 L 91,91 Z"/><path fill-rule="evenodd" fill="#8f14e9" d="M 0.015131514548201608,92.6594296264196 A 91 91 0 0 1 0.004347974250151765 91.88955742290564 L 91,91 Z"/><path fill-rule="evenodd" fill="#959da5" d="M 0.004347974250151765,91.88955742290564 A 91 91 0 0 1 0.0 91.00000000000003 L 91,91 Z"/></g><g transform="translate(15, 21)"><rect x="0.5" y="0.5" rx="2" width="15" height="15" fill="#f34b7d" stroke-width="1" stroke="#000000"/><text transform="scale(0.095)" x="263" y="132" textLength="1074" lengthAdjust="spacingAndGlyphs">C++ 47.30%</text></g><g transform="translate(15, 42)"><rect x="0.5" y="0.5" rx="2" width="15" height="15" fill="#438eff" stroke-width="1" stroke="#000000"/><text transform="scale(0.095)" x="263" y="132" textLength="1642" lengthAdjust="spacingAndGlyphs">Objective-C 13.44%</text></g><g transform="translate(15, 63)"><rect x="0.5" y="0.5" rx="2" width="15" height="15" fill="#555555" stroke-width="1" stroke="#000000"/><text transform="scale(0.095)" x="263" y="132" textLength="693" lengthAdjust="spacingAndGlyphs">C 7.10%</text></g><g transform="translate(15, 84)"><rect x="0.5" y="0.5" rx="2" width="15" height="15" fill="#dea584" stroke-width="1" stroke="#000000"/><text transform="scale(0.095)" x="263" y="132" textLength="946" lengthAdjust="spacingAndGlyphs">Rust 6.61%</text></g><g transform="translate(15, 105)"><rect x="0.5" y="0.5" rx="2" width="15" height="15" fill="#b07219" stroke-width="1" stroke="#000000"/><text transform="scale(0.095)" x="263" y="132" textLength="933" lengthAdjust="spacingAndGlyphs">Java 5.36%</text></g><g transform="translate(15, 126)"><rect x="0.5" y="0.5" rx="2" width="15" height="15" fill="#00ADD8" stroke-width="1" stroke="#000000"/><text transform="scale(0.095)" x="263" y="132" textLength="806" lengthAdjust="spacingAndGlyphs">Go 4.30%</text></g><g transform="translate(15, 147)"><rect x="0.5" y="0.5" rx="2" width="15" height="15" fill="#3178c6" stroke-width="1" stroke="#000000"/><text transform="scale(0.095)" x="263" y="132" textLength="1462" lengthAdjust="spacingAndGlyphs">TypeScript 4.12%</text></g><g transform="translate(15, 168)"><rect x="0.5" y="0.5" rx="2" width="15" height="15" fill="#A97BFF" stroke-width="1" stroke="#000000"/><text transform="scale(0.095)" x="263" y="132" textLength="1048" lengthAdjust="spacingAndGlyphs">Kotlin 4.10%</text></g><g transform="translate(15, 189)"><rect x="0.5" y="0.5" rx="2" width="15" height="15" fill="#000080" stroke-width="1" stroke="#000000"/><text transform="scale(0.095)" x="263" y="132" textLength="874" lengthAdjust="spacingAndGlyphs">Lua 2.43%</text></g><g transform="translate(15, 210)"><rect x="0.5" y="0.5" rx="2" width="15" height="15" fill="#f1e05a" stroke-width="1" stroke="#000000"/><text transform="scale(0.095)" x="263" y="132" textLength="1412" lengthAdjust="spacingAndGlyphs">JavaScript 2.36%</text><rect x="228.5" y="0.5" rx="2" width="15" height="15" fill="#6866fb" stroke-width="1" stroke="#000000"/><text transform="scale(0.095)" x="2663" y="132" textLength="1814" lengthAdjust="spacingAndGlyphs">Objective-C++ 1.54%</text></g><g transform="translate(15, 231)"><rect x="0.5" y="0.5" rx="2" width="15" height="15" fill="#DA3434" stroke-width="1" stroke="#000000"/><text transform="scale(0.095)" x="263" y="132" textLength="1134" lengthAdjust="spacingAndGlyphs">CMake 1.05%</text><rect x="228.5" y="0.5" rx="2" width="15" height="15" fill="#8f14e9" stroke-width="1" stroke="#000000"/><text transform="scale(0.095)" x="2663" y="132" textLength="1034" lengthAdjust="spacingAndGlyphs">Metal 0.13%</text></g><g transform="translate(15, 252)"><rect x="0.5" y="0.5" rx="2" width="15" height="15" fill="#959da5" stroke-width="1" stroke="#000000"/><text transform="scale(0.095)" x="263" y="132" textLength="1047" lengthAdjust="spacingAndGlyphs">Other 0.16%</text></g></g></g></svg>