<svg width="457" height="396" viewBox="0 0 457 396" xmlns="http://www.w3.org/2000/svg" lang="en" xml:lang="en"><rect x="2" y="2" stroke-width="4" rx="0" width="453" height="392" stroke="#ffffff" fill="#ffffff"/><g font-weight="600" font-size="110pt" font-family="Verdana,Geneva,DejaVu Sans,sans-serif" text-rendering="geometricPrecision"><text x="895" y="301" lengthAdjust="spacingAndGlyphs" textLength="1917" transform="scale(0.123)" fill="#0969da">Rinc's GitHub Statistics</text><g transform="translate(0, 60)" fill="#24292f"><g transform="translate(15, 0)"><g transform="scale(0.095)"><text x="0" y="132" textLength="3652" lengthAdjust="spacingAndGlyphs">Language Distribution in Public Repositories</text></g></g><g transform="translate(243, 21)"><circle cx="92" cy="92" r="92" fill="#000000"/></g><g transform="translate(244, 22)"><path fill-rule="evenodd" fill="#f34b7d" d="M 0.0,91.00000000000001 A 91 91 0 0 1 177.51661763191612 62.78874562284007 L 91,91 Z"/><path fill-rule="evenodd" fill="#438eff" d="M 177.51661763191612,62.78874562284007 A 91 91 0 0 1 166.04730629280573 142.4674831150096 L 91,91 Z"/><path fill-rule="evenodd" fill="#555555" d="M 166.04730629280573,142.4674831150096 A 91 91 0 0 1 134.14206812406326 171.12341703883257 L 91,91 Z"/><path fill-rule="evenodd" fill="#dea584" d="M 134.14206812406326,171.12341703883257 A 91 91 0 0 1 94.91349669961102 181.9158101959287 L 91,91 Z"/><path fill-rule="evenodd" fill="#b07219" d="M 94.91349669961102,181.9158101959287 A 91 91 0 0 1 62.15153885729963 177.30623552037306 L 91,91 Z"/><path fill-rule="evenodd" fill="#00ADD8" d="M 62.15153885729963,177.30623552037306 A 91 91 0 0 1 38.42771510187993 165.2775528715836 L 91,91 Z"/><path fill-rule="evenodd" fill="#A97BFF" d="M 38.42771510187993,165.2775528715836 A 91 91 0 0 1 20.069668258318742 148.00778928370266 L 91,91 Z"/><path fill-rule="evenodd" fill="#000080" d="M 20.069668258318742,148.00778928370266 A 91 91 0 0 1 11.49755902856272 135.27597406701665 L 91,91 Z"/><path fill-rule="evenodd" fill="#f1e05a" d="M 11.49755902856272,135.27597406701665 A 91 91 0 0 1 5.3801123268167 121.82587930345984 L 91,91 Z"/><path fill-rule="evenodd" fill="#3178c6" d="M 5.3801123268167,121.82587930345984 A 91 91 0 0 1 2.5660477902773238 112.45777473477818 L 91,91 Z"/><path fill-rule="evenodd" fill="#6866fb" d="M 2.5660477902773238,112.45777473477818 A 91 91 0 0 1 0.908558794008627 103.82701139889566 L 91,91 Z"/><path fill-rule="evenodd" fill="#89e051" d="M 0.908558794008627,103.82701139889566 A 91 91 0 0 1 0.12460457906274769 95.76051542254575 L 91,91 Z"/><path fill-rule="evenodd" fill="#427819" d="M 0.12460457906274769,95.76051542254575 A 91 91 0 0 1 0.06145259640143763 94.34373984087529 L 91,91 Z"/><path fill-rule="evenodd" fill="#8f14e9" d="M 0.06145259640143763,94.34373984087529 A 91 91 0 0 1 0.03458241149918706 93.50854598316747 L 91,91 Z"/><path fill-rule="evenodd" fill="#C1F12E" d="M 0.03458241149918706,93.50854598316747 A 91 91 0 0 1 0.016205146527767056 92.71728683139375 L 91,91 Z"/><path fill-rule="evenodd" fill="#5686a5" d="M 0.016205146527767056,92.71728683139375 A 91 91 0 0 1 0.006131675981023932 92.05637466416766 L 91,91 Z"/><path fill-rule="evenodd" fill="#DA3434" d="M 0.006131675981023932,92.05637466416766 A 91 91 0 0 1 0.0011001596264321734 91.44746825771027 L 91,91 Z"/><path fill-rule="evenodd" fill="#e34c26" d="M 0.0011001596264321734,91.44746825771027 A 91 91 0 0 1 0.00011236638471245897 91.14300583691164 L 91,91 Z"/><path fill-rule="evenodd" fill="#701516" d="M 0.00011236638471245897,91.14300583691164 A 91 91 0 0 1 0.0 91.00000000000003 L 91,91 Z"/></g><g transform="translate(15, 21)"><rect x="0.5" y="0.5" rx="2" width="15" height="15" fill="#f34b7d" stroke-width="1" stroke="#000000"/><text transform="scale(0.095)" x="263" y="132" textLength="1074" lengthAdjust="spacingAndGlyphs">C++ 44.98%</text></g><g transform="translate(15, 42)"><rect x="0.5" y="0.5" rx="2" width="15" height="15" fill="#438eff" stroke-width="1" stroke="#000000"/><text transform="scale(0.095)" x="263" y="132" textLength="1642" lengthAdjust="spacingAndGlyphs">Objective-C 14.58%</text></g><g transform="translate(15, 63)"><rect x="0.5" y="0.5" rx="2" width="15" height="15" fill="#555555" stroke-width="1" stroke="#000000"/><text transform="scale(0.095)" x="263" y="132" textLength="693" lengthAdjust="spacingAndGlyphs">C 7.57%</text></g><g transform="translate(15, 84)"><rect x="0.5" y="0.5" rx="2" width="15" height="15" fill="#dea584" stroke-width="1" stroke="#000000"/><text transform="scale(0.095)" x="263" y="132" textLength="946" lengthAdjust="spacingAndGlyphs">Rust 7.18%</text></g><g transform="translate(15, 105)"><rect x="0.5" y="0.5" rx="2" width="15" height="15" fill="#b07219" stroke-width="1" stroke="#000000"/><text transform="scale(0.095)" x="263" y="132" textLength="933" lengthAdjust="spacingAndGlyphs">Java 5.82%</text></g><g transform="translate(15, 126)"><rect x="0.5" y="0.5" rx="2" width="15" height="15" fill="#00ADD8" stroke-width="1" stroke="#000000"/><text transform="scale(0.095)" x="263" y="132" textLength="806" lengthAdjust="spacingAndGlyphs">Go 4.67%</text></g><g transform="translate(15, 147)"><rect x="0.5" y="0.5" rx="2" width="15" height="15" fill="#A97BFF" stroke-width="1" stroke="#000000"/><text transform="scale(0.095)" x="263" y="132" textLength="1048" lengthAdjust="spacingAndGlyphs">Kotlin 4.42%</text></g><g transform="translate(15, 168)"><rect x="0.5" y="0.5" rx="2" width="15" height="15" fill="#000080" stroke-width="1" stroke="#000000"/><text transform="scale(0.095)" x="263" y="132" textLength="874" lengthAdjust="spacingAndGlyphs">Lua 2.69%</text></g><g transform="translate(15, 189)"><rect x="0.5" y="0.5" rx="2" width="15" height="15" fill="#f1e05a" stroke-width="1" stroke="#000000"/><text transform="scale(0.095)" x="263" y="132" textLength="1412" lengthAdjust="spacingAndGlyphs">JavaScript 2.59%</text></g><g transform="translate(15, 210)"><rect x="0.5" y="0.5" rx="2" width="15" height="15" fill="#3178c6" stroke-width="1" stroke="#000000"/><text transform="scale(0.095)" x="263" y="132" textLength="1462" lengthAdjust="spacingAndGlyphs">TypeScript 1.71%</text><rect x="228.5" y="0.5" rx="2" width="15" height="15" fill="#6866fb" stroke-width="1" stroke="#000000"/><text transform="scale(0.095)" x="2663" y="132" textLength="1814" lengthAdjust="spacingAndGlyphs">Objective-C++ 1.54%</text></g><g transform="translate(15, 231)"><rect x="0.5" y="0.5" rx="2" width="15" height="15" fill="#89e051" stroke-width="1" stroke="#000000"/><text transform="scale(0.095)" x="263" y="132" textLength="982" lengthAdjust="spacingAndGlyphs">Shell 1.42%</text><rect x="228.5" y="0.5" rx="2" width="15" height="15" fill="#427819" stroke-width="1" stroke="#000000"/><text transform="scale(0.095)" x="2663" y="132" textLength="1272" lengthAdjust="spacingAndGlyphs">Makefile 0.25%</text></g><g transform="translate(15, 252)"><rect x="0.5" y="0.5" rx="2" width="15" height="15" fill="#8f14e9" stroke-width="1" stroke="#000000"/><text transform="scale(0.095)" x="263" y="132" textLength="1034" lengthAdjust="spacingAndGlyphs">Metal 0.15%</text><rect x="228.5" y="0.5" rx="2" width="15" height="15" fill="#C1F12E" stroke-width="1" stroke="#000000"/><text transform="scale(0.095)" x="2663" y="132" textLength="1304" lengthAdjust="spacingAndGlyphs">Batchfile 0.14%</text></g><g transform="translate(15, 273)"><rect x="0.5" y="0.5" rx="2" width="15" height="15" fill="#5686a5" stroke-width="1" stroke="#000000"/><text transform="scale(0.095)" x="263" y="132" textLength="993" lengthAdjust="spacingAndGlyphs">GLSL 0.12%</text><rect x="228.5" y="0.5" rx="2" width="15" height="15" fill="#DA3434" stroke-width="1" stroke="#000000"/><text transform="scale(0.095)" x="2663" y="132" textLength="1134" lengthAdjust="spacingAndGlyphs">CMake 0.11%</text></g><g transform="translate(15, 294)"><rect x="0.5" y="0.5" rx="2" width="15" height="15" fill="#e34c26" stroke-width="1" stroke="#000000"/><text transform="scale(0.095)" x="263" y="132" textLength="1036" lengthAdjust="spacingAndGlyphs">HTML 0.05%</text><rect x="228.5" y="0.5" rx="2" width="15" height="15" fill="#701516" stroke-width="1" stroke="#000000"/><text transform="scale(0.095)" x="2663" y="132" textLength="999" lengthAdjust="spacingAndGlyphs">Ruby 0.03%</text></g></g></g></svg>