<svg width="457" height="354" viewBox="0 0 457 354" xmlns="http://www.w3.org/2000/svg" lang="en" xml:lang="en"><rect x="2" y="2" stroke-width="4" rx="0" width="453" height="350" stroke="#ffffff" fill="#ffffff"/><g font-weight="600" font-size="110pt" font-family="Verdana,Geneva,DejaVu Sans,sans-serif" text-rendering="geometricPrecision"><text x="1828" y="301" lengthAdjust="spacingAndGlyphs" textLength="52" transform="scale(0.123)" fill="#0969da">.</text><g transform="translate(0, 60)" fill="#24292f"><g transform="translate(15, 0)"><g transform="scale(0.095)"><text x="0" y="132" textLength="3652" lengthAdjust="spacingAndGlyphs">Language Distribution in Public Repositories</text></g></g><g transform="translate(243, 21)"><circle cx="92" cy="92" r="92" fill="#000000"/></g><g transform="translate(244, 22)"><path fill-rule="evenodd" fill="#f34b7d" d="M 0.0,91.00000000000001 A 91 91 0 0 1 179.7629058844998 70.9464083281963 L 91,91 Z"/><path fill-rule="evenodd" fill="#438eff" d="M 179.7629058844998,70.9464083281963 A 91 91 0 0 1 165.71143429781796 142.9538409086646 L 91,91 Z"/><path fill-rule="evenodd" fill="#555555" d="M 165.71143429781796,142.9538409086646 A 91 91 0 0 1 136.61090224055437 169.74417817719984 L 91,91 Z"/><path fill-rule="evenodd" fill="#dea584" d="M 136.61090224055437,169.74417817719984 A 91 91 0 0 1 101.59297824965685 181.38135212422026 L 91,91 Z"/><path fill-rule="evenodd" fill="#b07219" d="M 101.59297824965685,181.38135212422026 A 91 91 0 0 1 71.63783858241881 179.9162904379143 L 91,91 Z"/><path fill-rule="evenodd" fill="#A97BFF" d="M 71.63783858241881,179.9162904379143 A 91 91 0 0 1 48.40892655132401 171.4176626276186 L 91,91 Z"/><path fill-rule="evenodd" fill="#00ADD8" d="M 48.40892655132401,171.4176626276186 A 91 91 0 0 1 28.79033511726228 157.415040428938 L 91,91 Z"/><path fill-rule="evenodd" fill="#3178c6" d="M 28.79033511726228,157.415040428938 A 91 91 0 0 1 13.607619829709591 138.86877365858916 L 91,91 Z"/><path fill-rule="evenodd" fill="#000080" d="M 13.607619829709591,138.86877365858916 A 91 91 0 0 1 7.316515463365505 126.7501666542529 L 91,91 Z"/><path fill-rule="evenodd" fill="#f1e05a" d="M 7.316515463365505,126.7501666542529 A 91 91 0 0 1 3.012896384255285 114.22217899578337 L 91,91 Z"/><path fill-rule="evenodd" fill="#DA3434" d="M 3.012896384255285,114.22217899578337 A 91 91 0 0 1 0.5786562715821617 101.24600401850941 L 91,91 Z"/><path fill-rule="evenodd" fill="#6866fb" d="M 0.5786562715821617,101.24600401850941 A 91 91 0 0 1 0.01461637762164969 92.63094055337623 L 91,91 Z"/><path fill-rule="evenodd" fill="#8f14e9" d="M 0.01461637762164969,92.63094055337623 A 91 91 0 0 1 0.004199949092594579 91.87428433319963 L 91,91 Z"/><path fill-rule="evenodd" fill="#959da5" d="M 0.004199949092594579,91.87428433319963 A 91 91 0 0 1 0.0 91.00000000000003 L 91,91 Z"/></g><g transform="translate(15, 21)"><rect x="0.5" y="0.5" rx="2" width="15" height="15" fill="#f34b7d" stroke-width="1" stroke="#000000"/><text transform="scale(0.095)" x="263" y="132" textLength="1074" lengthAdjust="spacingAndGlyphs">C++ 46.46%</text></g><g transform="translate(15, 42)"><rect x="0.5" y="0.5" rx="2" width="15" height="15" fill="#438eff" stroke-width="1" stroke="#000000"/><text transform="scale(0.095)" x="263" y="132" textLength="1642" lengthAdjust="spacingAndGlyphs">Objective-C 13.21%</text></g><g transform="translate(15, 63)"><rect x="0.5" y="0.5" rx="2" width="15" height="15" fill="#555555" stroke-width="1" stroke="#000000"/><text transform="scale(0.095)" x="263" y="132" textLength="693" lengthAdjust="spacingAndGlyphs">C 6.97%</text></g><g transform="translate(15, 84)"><rect x="0.5" y="0.5" rx="2" width="15" height="15" fill="#dea584" stroke-width="1" stroke="#000000"/><text transform="scale(0.095)" x="263" y="132" textLength="946" lengthAdjust="spacingAndGlyphs">Rust 6.50%</text></g><g transform="translate(15, 105)"><rect x="0.5" y="0.5" rx="2" width="15" height="15" fill="#b07219" stroke-width="1" stroke="#000000"/><text transform="scale(0.095)" x="263" y="132" textLength="933" lengthAdjust="spacingAndGlyphs">Java 5.27%</text></g><g transform="translate(15, 126)"><rect x="0.5" y="0.5" rx="2" width="15" height="15" fill="#A97BFF" stroke-width="1" stroke="#000000"/><text transform="scale(0.095)" x="263" y="132" textLength="1048" lengthAdjust="spacingAndGlyphs">Kotlin 4.34%</text></g><g transform="translate(15, 147)"><rect x="0.5" y="0.5" rx="2" width="15" height="15" fill="#00ADD8" stroke-width="1" stroke="#000000"/><text transform="scale(0.095)" x="263" y="132" textLength="806" lengthAdjust="spacingAndGlyphs">Go 4.23%</text></g><g transform="translate(15, 168)"><rect x="0.5" y="0.5" rx="2" width="15" height="15" fill="#3178c6" stroke-width="1" stroke="#000000"/><text transform="scale(0.095)" x="263" y="132" textLength="1462" lengthAdjust="spacingAndGlyphs">TypeScript 4.20%</text></g><g transform="translate(15, 189)"><rect x="0.5" y="0.5" rx="2" width="15" height="15" fill="#000080" stroke-width="1" stroke="#000000"/><text transform="scale(0.095)" x="263" y="132" textLength="874" lengthAdjust="spacingAndGlyphs">Lua 2.39%</text></g><g transform="translate(15, 210)"><rect x="0.5" y="0.5" rx="2" width="15" height="15" fill="#f1e05a" stroke-width="1" stroke="#000000"/><text transform="scale(0.095)" x="263" y="132" textLength="1412" lengthAdjust="spacingAndGlyphs">JavaScript 2.32%</text><rect x="228.5" y="0.5" rx="2" width="15" height="15" fill="#DA3434" stroke-width="1" stroke="#000000"/><text transform="scale(0.095)" x="2663" y="132" textLength="1134" lengthAdjust="spacingAndGlyphs">CMake 2.31%</text></g><g transform="translate(15, 231)"><rect x="0.5" y="0.5" rx="2" width="15" height="15" fill="#6866fb" stroke-width="1" stroke="#000000"/><text transform="scale(0.095)" x="263" y="132" textLength="1814" lengthAdjust="spacingAndGlyphs">Objective-C++ 1.51%</text><rect x="228.5" y="0.5" rx="2" width="15" height="15" fill="#8f14e9" stroke-width="1" stroke="#000000"/><text transform="scale(0.095)" x="2663" y="132" textLength="1034" lengthAdjust="spacingAndGlyphs">Metal 0.13%</text></g><g transform="translate(15, 252)"><rect x="0.5" y="0.5" rx="2" width="15" height="15" fill="#959da5" stroke-width="1" stroke="#000000"/><text transform="scale(0.095)" x="263" y="132" textLength="1047" lengthAdjust="spacingAndGlyphs">Other 0.15%</text></g></g></g></svg>