<svg width="457" height="396" viewBox="0 0 457 396" xmlns="http://www.w3.org/2000/svg" lang="en" xml:lang="en"><rect x="2" y="2" stroke-width="4" rx="0" width="453" height="392" stroke="#ffffff" fill="#ffffff"/><g font-weight="600" font-size="110pt" font-family="Verdana,Geneva,DejaVu Sans,sans-serif" text-rendering="geometricPrecision"><text x="895" y="301" lengthAdjust="spacingAndGlyphs" textLength="1917" transform="scale(0.123)" fill="#0969da">Rinc's GitHub Statistics</text><g transform="translate(0, 60)" fill="#24292f"><g transform="translate(15, 0)"><g transform="scale(0.095)"><text x="0" y="132" textLength="3652" lengthAdjust="spacingAndGlyphs">Language Distribution in Public Repositories</text></g></g><g transform="translate(243, 21)"><circle cx="92" cy="92" r="92" fill="#000000"/></g><g transform="translate(244, 22)"><path fill-rule="evenodd" fill="#f34b7d" d="M 0.0,91.00000000000001 A 91 91 0 0 1 176.64019816739642 60.230592175846624 L 91,91 Z"/><path fill-rule="evenodd" fill="#438eff" d="M 176.64019816739642,60.230592175846624 A 91 91 0 0 1 167.1083490663948 140.8850599116389 L 91,91 Z"/><path fill-rule="evenodd" fill="#555555" d="M 167.1083490663948,140.8850599116389 A 91 91 0 0 1 135.49663318644838 170.379151135992 L 91,91 Z"/><path fill-rule="evenodd" fill="#dea584" d="M 135.49663318644838,170.379151135992 A 91 91 0 0 1 96.07073131902082 181.85861370222585 L 91,91 Z"/><path fill-rule="evenodd" fill="#b07219" d="M 96.07073131902082,181.85861370222585 A 91 91 0 0 1 62.954118923364064 177.57036764756862 L 91,91 Z"/><path fill-rule="evenodd" fill="#00ADD8" d="M 62.954118923364064,177.57036764756862 A 91 91 0 0 1 38.913023934521455 165.6186767797062 L 91,91 Z"/><path fill-rule="evenodd" fill="#A97BFF" d="M 38.913023934521455,165.6186767797062 A 91 91 0 0 1 20.242647690802784 148.22234785634143 L 91,91 Z"/><path fill-rule="evenodd" fill="#000080" d="M 20.242647690802784,148.22234785634143 A 91 91 0 0 1 11.539175386334549 135.3506183915884 L 91,91 Z"/><path fill-rule="evenodd" fill="#f1e05a" d="M 11.539175386334549,135.3506183915884 A 91 91 0 0 1 5.590231895866637 122.40336785120606 L 91,91 Z"/><path fill-rule="evenodd" fill="#3178c6" d="M 5.590231895866637,122.40336785120606 A 91 91 0 0 1 2.667575747695196 112.87196437704748 L 91,91 Z"/><path fill-rule="evenodd" fill="#6866fb" d="M 2.667575747695196,112.87196437704748 A 91 91 0 0 1 0.950899689513875 104.12095778790587 L 91,91 Z"/><path fill-rule="evenodd" fill="#89e051" d="M 0.950899689513875,104.12095778790587 A 91 91 0 0 1 0.12932958577430043 95.84987200544174 L 91,91 Z"/><path fill-rule="evenodd" fill="#427819" d="M 0.12932958577430043,95.84987200544174 A 91 91 0 0 1 0.06428094812407892 94.41979539129038 L 91,91 Z"/><path fill-rule="evenodd" fill="#8f14e9" d="M 0.06428094812407892,94.41979539129038 A 91 91 0 0 1 0.03648879089561774 93.57674766151844 L 91,91 Z"/><path fill-rule="evenodd" fill="#C1F12E" d="M 0.03648879089561774,93.57674766151844 A 91 91 0 0 1 0.016550238596252598 92.73547385866779 L 91,91 Z"/><path fill-rule="evenodd" fill="#5686a5" d="M 0.016550238596252598,92.73547385866779 A 91 91 0 0 1 0.0062712679806651295 92.06833114888536 L 91,91 Z"/><path fill-rule="evenodd" fill="#DA3434" d="M 0.0062712679806651295,92.06833114888536 A 91 91 0 0 1 0.0011309336214964105 91.45368341395994 L 91,91 Z"/><path fill-rule="evenodd" fill="#e34c26" d="M 0.0011309336214964105,91.45368341395994 A 91 91 0 0 1 0.00011449555911724474 91.14435435099598 L 91,91 Z"/><path fill-rule="evenodd" fill="#701516" d="M 0.00011449555911724474,91.14435435099598 A 91 91 0 0 1 0.0 91.00000000000003 L 91,91 Z"/></g><g transform="translate(15, 21)"><rect x="0.5" y="0.5" rx="2" width="15" height="15" fill="#f34b7d" stroke-width="1" stroke="#000000"/><text transform="scale(0.095)" x="263" y="132" textLength="1074" lengthAdjust="spacingAndGlyphs">C++ 44.51%</text></g><g transform="translate(15, 42)"><rect x="0.5" y="0.5" rx="2" width="15" height="15" fill="#438eff" stroke-width="1" stroke="#000000"/><text transform="scale(0.095)" x="263" y="132" textLength="1642" lengthAdjust="spacingAndGlyphs">Objective-C 14.72%</text></g><g transform="translate(15, 63)"><rect x="0.5" y="0.5" rx="2" width="15" height="15" fill="#555555" stroke-width="1" stroke="#000000"/><text transform="scale(0.095)" x="263" y="132" textLength="693" lengthAdjust="spacingAndGlyphs">C 7.63%</text></g><g transform="translate(15, 84)"><rect x="0.5" y="0.5" rx="2" width="15" height="15" fill="#dea584" stroke-width="1" stroke="#000000"/><text transform="scale(0.095)" x="263" y="132" textLength="946" lengthAdjust="spacingAndGlyphs">Rust 7.24%</text></g><g transform="translate(15, 105)"><rect x="0.5" y="0.5" rx="2" width="15" height="15" fill="#b07219" stroke-width="1" stroke="#000000"/><text transform="scale(0.095)" x="263" y="132" textLength="933" lengthAdjust="spacingAndGlyphs">Java 5.87%</text></g><g transform="translate(15, 126)"><rect x="0.5" y="0.5" rx="2" width="15" height="15" fill="#00ADD8" stroke-width="1" stroke="#000000"/><text transform="scale(0.095)" x="263" y="132" textLength="806" lengthAdjust="spacingAndGlyphs">Go 4.71%</text></g><g transform="translate(15, 147)"><rect x="0.5" y="0.5" rx="2" width="15" height="15" fill="#A97BFF" stroke-width="1" stroke="#000000"/><text transform="scale(0.095)" x="263" y="132" textLength="1048" lengthAdjust="spacingAndGlyphs">Kotlin 4.48%</text></g><g transform="translate(15, 168)"><rect x="0.5" y="0.5" rx="2" width="15" height="15" fill="#000080" stroke-width="1" stroke="#000000"/><text transform="scale(0.095)" x="263" y="132" textLength="874" lengthAdjust="spacingAndGlyphs">Lua 2.72%</text></g><g transform="translate(15, 189)"><rect x="0.5" y="0.5" rx="2" width="15" height="15" fill="#f1e05a" stroke-width="1" stroke="#000000"/><text transform="scale(0.095)" x="263" y="132" textLength="1412" lengthAdjust="spacingAndGlyphs">JavaScript 2.49%</text></g><g transform="translate(15, 210)"><rect x="0.5" y="0.5" rx="2" width="15" height="15" fill="#3178c6" stroke-width="1" stroke="#000000"/><text transform="scale(0.095)" x="263" y="132" textLength="1462" lengthAdjust="spacingAndGlyphs">TypeScript 1.74%</text><rect x="228.5" y="0.5" rx="2" width="15" height="15" fill="#6866fb" stroke-width="1" stroke="#000000"/><text transform="scale(0.095)" x="2663" y="132" textLength="1814" lengthAdjust="spacingAndGlyphs">Objective-C++ 1.56%</text></g><g transform="translate(15, 231)"><rect x="0.5" y="0.5" rx="2" width="15" height="15" fill="#89e051" stroke-width="1" stroke="#000000"/><text transform="scale(0.095)" x="263" y="132" textLength="982" lengthAdjust="spacingAndGlyphs">Shell 1.45%</text><rect x="228.5" y="0.5" rx="2" width="15" height="15" fill="#427819" stroke-width="1" stroke="#000000"/><text transform="scale(0.095)" x="2663" y="132" textLength="1272" lengthAdjust="spacingAndGlyphs">Makefile 0.25%</text></g><g transform="translate(15, 252)"><rect x="0.5" y="0.5" rx="2" width="15" height="15" fill="#8f14e9" stroke-width="1" stroke="#000000"/><text transform="scale(0.095)" x="263" y="132" textLength="1034" lengthAdjust="spacingAndGlyphs">Metal 0.15%</text><rect x="228.5" y="0.5" rx="2" width="15" height="15" fill="#C1F12E" stroke-width="1" stroke="#000000"/><text transform="scale(0.095)" x="2663" y="132" textLength="1304" lengthAdjust="spacingAndGlyphs">Batchfile 0.15%</text></g><g transform="translate(15, 273)"><rect x="0.5" y="0.5" rx="2" width="15" height="15" fill="#5686a5" stroke-width="1" stroke="#000000"/><text transform="scale(0.095)" x="263" y="132" textLength="993" lengthAdjust="spacingAndGlyphs">GLSL 0.12%</text><rect x="228.5" y="0.5" rx="2" width="15" height="15" fill="#DA3434" stroke-width="1" stroke="#000000"/><text transform="scale(0.095)" x="2663" y="132" textLength="1134" lengthAdjust="spacingAndGlyphs">CMake 0.11%</text></g><g transform="translate(15, 294)"><rect x="0.5" y="0.5" rx="2" width="15" height="15" fill="#e34c26" stroke-width="1" stroke="#000000"/><text transform="scale(0.095)" x="263" y="132" textLength="1036" lengthAdjust="spacingAndGlyphs">HTML 0.05%</text><rect x="228.5" y="0.5" rx="2" width="15" height="15" fill="#701516" stroke-width="1" stroke="#000000"/><text transform="scale(0.095)" x="2663" y="132" textLength="999" lengthAdjust="spacingAndGlyphs">Ruby 0.03%</text></g></g></g></svg>