<svg width="457" height="354" viewBox="0 0 457 354" xmlns="http://www.w3.org/2000/svg" lang="en" xml:lang="en"><rect x="2" y="2" stroke-width="4" rx="0" width="453" height="350" stroke="#ffffff" fill="#ffffff"/><g font-weight="600" font-size="110pt" font-family="Verdana,Geneva,DejaVu Sans,sans-serif" text-rendering="geometricPrecision"><text x="1796" y="301" lengthAdjust="spacingAndGlyphs" textLength="116" transform="scale(0.123)" fill="#0969da">📊</text><g transform="translate(0, 60)" fill="#24292f"><g transform="translate(15, 0)"><g transform="scale(0.095)"><text x="0" y="132" textLength="3652" lengthAdjust="spacingAndGlyphs">Language Distribution in Public Repositories</text></g></g><g transform="translate(243, 21)"><circle cx="92" cy="92" r="92" fill="#000000"/></g><g transform="translate(244, 22)"><path fill-rule="evenodd" fill="#f34b7d" d="M 0.0,91.00000000000001 A 91 91 0 0 1 180.97112861057153 77.35463388032417 L 91,91 Z"/><path fill-rule="evenodd" fill="#438eff" d="M 180.97112861057153,77.35463388032417 A 91 91 0 0 1 160.64807337823723 149.5674472271046 L 91,91 Z"/><path fill-rule="evenodd" fill="#555555" d="M 160.64807337823723,149.5674472271046 A 91 91 0 0 1 128.350587308714 173.98152582167992 L 91,91 Z"/><path fill-rule="evenodd" fill="#dea584" d="M 128.350587308714,173.98152582167992 A 91 91 0 0 1 91.43876267132786 181.9989422318647 L 91,91 Z"/><path fill-rule="evenodd" fill="#b07219" d="M 91.43876267132786,181.9989422318647 A 91 91 0 0 1 61.1513101087794 176.9654332378878 L 91,91 Z"/><path fill-rule="evenodd" fill="#00ADD8" d="M 61.1513101087794,176.9654332378878 A 91 91 0 0 1 39.15209222820334 165.78498819741344 L 91,91 Z"/><path fill-rule="evenodd" fill="#A97BFF" d="M 39.15209222820334,165.78498819741344 A 91 91 0 0 1 21.7071647477556 149.98731204848477 L 91,91 Z"/><path fill-rule="evenodd" fill="#000080" d="M 21.7071647477556,149.98731204848477 A 91 91 0 0 1 13.489181821087868 138.6767560267645 L 91,91 Z"/><path fill-rule="evenodd" fill="#f1e05a" d="M 13.489181821087868,138.6767560267645 A 91 91 0 0 1 7.263990272354874 126.62696555829197 L 91,91 Z"/><path fill-rule="evenodd" fill="#3572A5" d="M 7.263990272354874,126.62696555829197 A 91 91 0 0 1 3.612705190931422 116.38623063696019 L 91,91 Z"/><path fill-rule="evenodd" fill="#3178c6" d="M 3.612705190931422,116.38623063696019 A 91 91 0 0 1 1.5418019081292869 107.68025162147205 L 91,91 Z"/><path fill-rule="evenodd" fill="#6866fb" d="M 1.5418019081292869,107.68025162147205 A 91 91 0 0 1 0.34542196773263356 98.92133080937455 L 91,91 Z"/><path fill-rule="evenodd" fill="#DA3434" d="M 0.34542196773263356,98.92133080937455 A 91 91 0 0 1 0.015325318390395637 92.67002188059544 L 91,91 Z"/><path fill-rule="evenodd" fill="#959da5" d="M 0.015325318390395637,92.67002188059544 A 91 91 0 0 1 0.0 91.00000000000003 L 91,91 Z"/></g><g transform="translate(15, 21)"><rect x="0.5" y="0.5" rx="2" width="15" height="15" fill="#f34b7d" stroke-width="1" stroke="#000000"/><text transform="scale(0.095)" x="263" y="132" textLength="1074" lengthAdjust="spacingAndGlyphs">C++ 47.60%</text></g><g transform="translate(15, 42)"><rect x="0.5" y="0.5" rx="2" width="15" height="15" fill="#438eff" stroke-width="1" stroke="#000000"/><text transform="scale(0.095)" x="263" y="132" textLength="1642" lengthAdjust="spacingAndGlyphs">Objective-C 13.52%</text></g><g transform="translate(15, 63)"><rect x="0.5" y="0.5" rx="2" width="15" height="15" fill="#555555" stroke-width="1" stroke="#000000"/><text transform="scale(0.095)" x="263" y="132" textLength="693" lengthAdjust="spacingAndGlyphs">C 7.14%</text></g><g transform="translate(15, 84)"><rect x="0.5" y="0.5" rx="2" width="15" height="15" fill="#dea584" stroke-width="1" stroke="#000000"/><text transform="scale(0.095)" x="263" y="132" textLength="946" lengthAdjust="spacingAndGlyphs">Rust 6.65%</text></g><g transform="translate(15, 105)"><rect x="0.5" y="0.5" rx="2" width="15" height="15" fill="#b07219" stroke-width="1" stroke="#000000"/><text transform="scale(0.095)" x="263" y="132" textLength="933" lengthAdjust="spacingAndGlyphs">Java 5.40%</text></g><g transform="translate(15, 126)"><rect x="0.5" y="0.5" rx="2" width="15" height="15" fill="#00ADD8" stroke-width="1" stroke="#000000"/><text transform="scale(0.095)" x="263" y="132" textLength="806" lengthAdjust="spacingAndGlyphs">Go 4.33%</text></g><g transform="translate(15, 147)"><rect x="0.5" y="0.5" rx="2" width="15" height="15" fill="#A97BFF" stroke-width="1" stroke="#000000"/><text transform="scale(0.095)" x="263" y="132" textLength="1048" lengthAdjust="spacingAndGlyphs">Kotlin 4.13%</text></g><g transform="translate(15, 168)"><rect x="0.5" y="0.5" rx="2" width="15" height="15" fill="#000080" stroke-width="1" stroke="#000000"/><text transform="scale(0.095)" x="263" y="132" textLength="874" lengthAdjust="spacingAndGlyphs">Lua 2.45%</text></g><g transform="translate(15, 189)"><rect x="0.5" y="0.5" rx="2" width="15" height="15" fill="#f1e05a" stroke-width="1" stroke="#000000"/><text transform="scale(0.095)" x="263" y="132" textLength="1412" lengthAdjust="spacingAndGlyphs">JavaScript 2.37%</text></g><g transform="translate(15, 210)"><rect x="0.5" y="0.5" rx="2" width="15" height="15" fill="#3572A5" stroke-width="1" stroke="#000000"/><text transform="scale(0.095)" x="263" y="132" textLength="1149" lengthAdjust="spacingAndGlyphs">Python 1.90%</text><rect x="228.5" y="0.5" rx="2" width="15" height="15" fill="#3178c6" stroke-width="1" stroke="#000000"/><text transform="scale(0.095)" x="2663" y="132" textLength="1462" lengthAdjust="spacingAndGlyphs">TypeScript 1.57%</text></g><g transform="translate(15, 231)"><rect x="0.5" y="0.5" rx="2" width="15" height="15" fill="#6866fb" stroke-width="1" stroke="#000000"/><text transform="scale(0.095)" x="263" y="132" textLength="1814" lengthAdjust="spacingAndGlyphs">Objective-C++ 1.55%</text><rect x="228.5" y="0.5" rx="2" width="15" height="15" fill="#DA3434" stroke-width="1" stroke="#000000"/><text transform="scale(0.095)" x="2663" y="132" textLength="1134" lengthAdjust="spacingAndGlyphs">CMake 1.10%</text></g><g transform="translate(15, 252)"><rect x="0.5" y="0.5" rx="2" width="15" height="15" fill="#959da5" stroke-width="1" stroke="#000000"/><text transform="scale(0.095)" x="263" y="132" textLength="1047" lengthAdjust="spacingAndGlyphs">Other 0.29%</text></g></g></g></svg>