<svg width="457" height="354" viewBox="0 0 457 354" xmlns="http://www.w3.org/2000/svg" lang="en" xml:lang="en"><rect x="2" y="2" stroke-width="4" rx="0" width="453" height="350" stroke="#ffffff" fill="#ffffff"/><g font-weight="600" font-size="110pt" font-family="Verdana,Geneva,DejaVu Sans,sans-serif" text-rendering="geometricPrecision"><text x="1796" y="301" lengthAdjust="spacingAndGlyphs" textLength="116" transform="scale(0.123)" fill="#0969da">📊</text><g transform="translate(0, 60)" fill="#24292f"><g transform="translate(15, 0)"><g transform="scale(0.095)"><text x="0" y="132" textLength="3652" lengthAdjust="spacingAndGlyphs">Language Distribution in Public Repositories</text></g></g><g transform="translate(243, 21)"><circle cx="92" cy="92" r="92" fill="#000000"/></g><g transform="translate(244, 22)"><path fill-rule="evenodd" fill="#f34b7d" d="M 0.0,91.00000000000001 A 91 91 0 0 1 181.4134990788911 80.68500197230465 L 91,91 Z"/><path fill-rule="evenodd" fill="#438eff" d="M 181.4134990788911,80.68500197230465 A 91 91 0 0 1 155.8166789757309 154.87329744546656 L 91,91 Z"/><path fill-rule="evenodd" fill="#555555" d="M 155.8166789757309,154.87329744546656 A 91 91 0 0 1 119.71524192225532 177.35065072914244 L 91,91 Z"/><path fill-rule="evenodd" fill="#dea584" d="M 119.71524192225532,177.35065072914244 A 91 91 0 0 1 80.3114123534686 181.37009513175482 L 91,91 Z"/><path fill-rule="evenodd" fill="#b07219" d="M 80.3114123534686,181.37009513175482 A 91 91 0 0 1 49.50495802004462 171.98865038437015 L 91,91 Z"/><path fill-rule="evenodd" fill="#00ADD8" d="M 49.50495802004462,171.98865038437015 A 91 91 0 0 1 28.37864098781335 157.0270050469263 L 91,91 Z"/><path fill-rule="evenodd" fill="#A97BFF" d="M 28.37864098781335,157.0270050469263 A 91 91 0 0 1 12.934794591858008 137.76348687367738 L 91,91 Z"/><path fill-rule="evenodd" fill="#000080" d="M 12.934794591858008,137.76348687367738 A 91 91 0 0 1 6.435135493940919 124.61225507269438 L 91,91 Z"/><path fill-rule="evenodd" fill="#f1e05a" d="M 6.435135493940919,124.61225507269438 A 91 91 0 0 1 2.228812492853976 111.01689957438766 L 91,91 Z"/><path fill-rule="evenodd" fill="#3178c6" d="M 2.228812492853976,111.01689957438766 A 91 91 0 0 1 0.6386344038119347 101.76213768691136 L 91,91 Z"/><path fill-rule="evenodd" fill="#6866fb" d="M 0.6386344038119347,101.76213768691136 A 91 91 0 0 1 0.01687607802600155 92.75247293808535 L 91,91 Z"/><path fill-rule="evenodd" fill="#8f14e9" d="M 0.01687607802600155,92.75247293808535 A 91 91 0 0 1 0.004849277946505026 91.93943869984541 L 91,91 Z"/><path fill-rule="evenodd" fill="#5686a5" d="M 0.004849277946505026,91.93943869984541 A 91 91 0 0 1 0.00048226889569491505 91.29626458855589 L 91,91 Z"/><path fill-rule="evenodd" fill="#959da5" d="M 0.00048226889569491505,91.29626458855589 A 91 91 0 0 1 0.0 91.00000000000003 L 91,91 Z"/></g><g transform="translate(15, 21)"><rect x="0.5" y="0.5" rx="2" width="15" height="15" fill="#f34b7d" stroke-width="1" stroke="#000000"/><text transform="scale(0.095)" x="263" y="132" textLength="1074" lengthAdjust="spacingAndGlyphs">C++ 48.19%</text></g><g transform="translate(15, 42)"><rect x="0.5" y="0.5" rx="2" width="15" height="15" fill="#438eff" stroke-width="1" stroke="#000000"/><text transform="scale(0.095)" x="263" y="132" textLength="1642" lengthAdjust="spacingAndGlyphs">Objective-C 14.19%</text></g><g transform="translate(15, 63)"><rect x="0.5" y="0.5" rx="2" width="15" height="15" fill="#555555" stroke-width="1" stroke="#000000"/><text transform="scale(0.095)" x="263" y="132" textLength="693" lengthAdjust="spacingAndGlyphs">C 7.51%</text></g><g transform="translate(15, 84)"><rect x="0.5" y="0.5" rx="2" width="15" height="15" fill="#dea584" stroke-width="1" stroke="#000000"/><text transform="scale(0.095)" x="263" y="132" textLength="946" lengthAdjust="spacingAndGlyphs">Rust 6.98%</text></g><g transform="translate(15, 105)"><rect x="0.5" y="0.5" rx="2" width="15" height="15" fill="#b07219" stroke-width="1" stroke="#000000"/><text transform="scale(0.095)" x="263" y="132" textLength="933" lengthAdjust="spacingAndGlyphs">Java 5.66%</text></g><g transform="translate(15, 126)"><rect x="0.5" y="0.5" rx="2" width="15" height="15" fill="#00ADD8" stroke-width="1" stroke="#000000"/><text transform="scale(0.095)" x="263" y="132" textLength="806" lengthAdjust="spacingAndGlyphs">Go 4.54%</text></g><g transform="translate(15, 147)"><rect x="0.5" y="0.5" rx="2" width="15" height="15" fill="#A97BFF" stroke-width="1" stroke="#000000"/><text transform="scale(0.095)" x="263" y="132" textLength="1048" lengthAdjust="spacingAndGlyphs">Kotlin 4.33%</text></g><g transform="translate(15, 168)"><rect x="0.5" y="0.5" rx="2" width="15" height="15" fill="#000080" stroke-width="1" stroke="#000000"/><text transform="scale(0.095)" x="263" y="132" textLength="874" lengthAdjust="spacingAndGlyphs">Lua 2.57%</text></g><g transform="translate(15, 189)"><rect x="0.5" y="0.5" rx="2" width="15" height="15" fill="#f1e05a" stroke-width="1" stroke="#000000"/><text transform="scale(0.095)" x="263" y="132" textLength="1412" lengthAdjust="spacingAndGlyphs">JavaScript 2.49%</text></g><g transform="translate(15, 210)"><rect x="0.5" y="0.5" rx="2" width="15" height="15" fill="#3178c6" stroke-width="1" stroke="#000000"/><text transform="scale(0.095)" x="263" y="132" textLength="1462" lengthAdjust="spacingAndGlyphs">TypeScript 1.64%</text><rect x="228.5" y="0.5" rx="2" width="15" height="15" fill="#6866fb" stroke-width="1" stroke="#000000"/><text transform="scale(0.095)" x="2663" y="132" textLength="1814" lengthAdjust="spacingAndGlyphs">Objective-C++ 1.58%</text></g><g transform="translate(15, 231)"><rect x="0.5" y="0.5" rx="2" width="15" height="15" fill="#8f14e9" stroke-width="1" stroke="#000000"/><text transform="scale(0.095)" x="263" y="132" textLength="1034" lengthAdjust="spacingAndGlyphs">Metal 0.14%</text><rect x="228.5" y="0.5" rx="2" width="15" height="15" fill="#5686a5" stroke-width="1" stroke="#000000"/><text transform="scale(0.095)" x="2663" y="132" textLength="993" lengthAdjust="spacingAndGlyphs">GLSL 0.11%</text></g><g transform="translate(15, 252)"><rect x="0.5" y="0.5" rx="2" width="15" height="15" fill="#959da5" stroke-width="1" stroke="#000000"/><text transform="scale(0.095)" x="263" y="132" textLength="1047" lengthAdjust="spacingAndGlyphs">Other 0.05%</text></g></g></g></svg>