<svg width="457" height="396" viewBox="0 0 457 396" xmlns="http://www.w3.org/2000/svg" lang="en" xml:lang="en"><rect x="2" y="2" stroke-width="4" rx="0" width="453" height="392" stroke="#ffffff" fill="#ffffff"/><g font-weight="600" font-size="110pt" font-family="Verdana,Geneva,DejaVu Sans,sans-serif" text-rendering="geometricPrecision"><text x="895" y="301" lengthAdjust="spacingAndGlyphs" textLength="1917" transform="scale(0.123)" fill="#0969da">Rinc's GitHub Statistics</text><g transform="translate(0, 60)" fill="#24292f"><g transform="translate(15, 0)"><g transform="scale(0.095)"><text x="0" y="132" textLength="3652" lengthAdjust="spacingAndGlyphs">Language Distribution in Public Repositories</text></g></g><g transform="translate(243, 21)"><circle cx="92" cy="92" r="92" fill="#000000"/></g><g transform="translate(244, 22)"><path fill-rule="evenodd" fill="#f34b7d" d="M 0.0,91.00000000000001 A 91 91 0 0 1 168.63220878208307 43.52116092810329 L 91,91 Z"/><path fill-rule="evenodd" fill="#438eff" d="M 168.63220878208307,43.52116092810329 A 91 91 0 0 1 175.00503364168955 125.98791681221684 L 91,91 Z"/><path fill-rule="evenodd" fill="#555555" d="M 175.00503364168955,125.98791681221684 A 91 91 0 0 1 146.98057373121995 162.7438176062819 L 91,91 Z"/><path fill-rule="evenodd" fill="#dea584" d="M 146.98057373121995,162.7438176062819 A 91 91 0 0 1 108.82680962609783 180.2367909472033 L 91,91 Z"/><path fill-rule="evenodd" fill="#b07219" d="M 108.82680962609783,180.2367909472033 A 91 91 0 0 1 74.69056331452222 180.52654508581458 L 91,91 Z"/><path fill-rule="evenodd" fill="#00ADD8" d="M 74.69056331452222,180.52654508581458 A 91 91 0 0 1 48.7368114037305 171.59046401204148 L 91,91 Z"/><path fill-rule="evenodd" fill="#A97BFF" d="M 48.7368114037305,171.59046401204148 A 91 91 0 0 1 27.650872530877706 156.32907506540175 L 91,91 Z"/><path fill-rule="evenodd" fill="#000080" d="M 27.650872530877706,156.32907506540175 A 91 91 0 0 1 14.897910606946525 140.8946088271238 L 91,91 Z"/><path fill-rule="evenodd" fill="#f1e05a" d="M 14.897910606946525,140.8946088271238 A 91 91 0 0 1 8.052192535968857 128.42540897451917 L 91,91 Z"/><path fill-rule="evenodd" fill="#3178c6" d="M 8.052192535968857,128.42540897451917 A 91 91 0 0 1 4.366310457508391 118.84966492177564 L 91,91 Z"/><path fill-rule="evenodd" fill="#6866fb" d="M 4.366310457508391,118.84966492177564 A 91 91 0 0 1 2.0267449083437725 110.09868787103112 L 91,91 Z"/><path fill-rule="evenodd" fill="#DA3434" d="M 2.0267449083437725,110.09868787103112 A 91 91 0 0 1 0.5914785272816232 101.3585348923977 L 91,91 Z"/><path fill-rule="evenodd" fill="#89e051" d="M 0.5914785272816232,101.3585348923977 A 91 91 0 0 1 0.08267705498498401 94.87819397553122 L 91,91 Z"/><path fill-rule="evenodd" fill="#427819" d="M 0.08267705498498401,94.87819397553122 A 91 91 0 0 1 0.03205677825050657 93.41522380009815 L 91,91 Z"/><path fill-rule="evenodd" fill="#8f14e9" d="M 0.03205677825050657,93.41522380009815 A 91 91 0 0 1 0.013250898006390344 92.55289660018485 L 91,91 Z"/><path fill-rule="evenodd" fill="#5686a5" d="M 0.013250898006390344,92.55289660018485 A 91 91 0 0 1 0.004165437806051386 91.87068497737603 L 91,91 Z"/><path fill-rule="evenodd" fill="#C1F12E" d="M 0.004165437806051386,91.87068497737603 A 91 91 0 0 1 0.0011825291008875638 91.46391690849427 L 91,91 Z"/><path fill-rule="evenodd" fill="#e34c26" d="M 0.0011825291008875638,91.46391690849427 A 91 91 0 0 1 0.00011971908830332723 91.14761050008971 L 91,91 Z"/><path fill-rule="evenodd" fill="#701516" d="M 0.00011971908830332723,91.14761050008971 A 91 91 0 0 1 0.0 91.00000000000003 L 91,91 Z"/></g><g transform="translate(15, 21)"><rect x="0.5" y="0.5" rx="2" width="15" height="15" fill="#f34b7d" stroke-width="1" stroke="#000000"/><text transform="scale(0.095)" x="263" y="132" textLength="1074" lengthAdjust="spacingAndGlyphs">C++ 41.26%</text></g><g transform="translate(15, 42)"><rect x="0.5" y="0.5" rx="2" width="15" height="15" fill="#438eff" stroke-width="1" stroke="#000000"/><text transform="scale(0.095)" x="263" y="132" textLength="1642" lengthAdjust="spacingAndGlyphs">Objective-C 15.02%</text></g><g transform="translate(15, 63)"><rect x="0.5" y="0.5" rx="2" width="15" height="15" fill="#555555" stroke-width="1" stroke="#000000"/><text transform="scale(0.095)" x="263" y="132" textLength="693" lengthAdjust="spacingAndGlyphs">C 8.17%</text></g><g transform="translate(15, 84)"><rect x="0.5" y="0.5" rx="2" width="15" height="15" fill="#dea584" stroke-width="1" stroke="#000000"/><text transform="scale(0.095)" x="263" y="132" textLength="946" lengthAdjust="spacingAndGlyphs">Rust 7.41%</text></g><g transform="translate(15, 105)"><rect x="0.5" y="0.5" rx="2" width="15" height="15" fill="#b07219" stroke-width="1" stroke="#000000"/><text transform="scale(0.095)" x="263" y="132" textLength="933" lengthAdjust="spacingAndGlyphs">Java 6.01%</text></g><g transform="translate(15, 126)"><rect x="0.5" y="0.5" rx="2" width="15" height="15" fill="#00ADD8" stroke-width="1" stroke="#000000"/><text transform="scale(0.095)" x="263" y="132" textLength="806" lengthAdjust="spacingAndGlyphs">Go 4.82%</text></g><g transform="translate(15, 147)"><rect x="0.5" y="0.5" rx="2" width="15" height="15" fill="#A97BFF" stroke-width="1" stroke="#000000"/><text transform="scale(0.095)" x="263" y="132" textLength="1048" lengthAdjust="spacingAndGlyphs">Kotlin 4.57%</text></g><g transform="translate(15, 168)"><rect x="0.5" y="0.5" rx="2" width="15" height="15" fill="#000080" stroke-width="1" stroke="#000000"/><text transform="scale(0.095)" x="263" y="132" textLength="874" lengthAdjust="spacingAndGlyphs">Lua 3.51%</text></g><g transform="translate(15, 189)"><rect x="0.5" y="0.5" rx="2" width="15" height="15" fill="#f1e05a" stroke-width="1" stroke="#000000"/><text transform="scale(0.095)" x="263" y="132" textLength="1412" lengthAdjust="spacingAndGlyphs">JavaScript 2.49%</text></g><g transform="translate(15, 210)"><rect x="0.5" y="0.5" rx="2" width="15" height="15" fill="#3178c6" stroke-width="1" stroke="#000000"/><text transform="scale(0.095)" x="263" y="132" textLength="1462" lengthAdjust="spacingAndGlyphs">TypeScript 1.80%</text><rect x="228.5" y="0.5" rx="2" width="15" height="15" fill="#6866fb" stroke-width="1" stroke="#000000"/><text transform="scale(0.095)" x="2663" y="132" textLength="1814" lengthAdjust="spacingAndGlyphs">Objective-C++ 1.58%</text></g><g transform="translate(15, 231)"><rect x="0.5" y="0.5" rx="2" width="15" height="15" fill="#DA3434" stroke-width="1" stroke="#000000"/><text transform="scale(0.095)" x="263" y="132" textLength="1134" lengthAdjust="spacingAndGlyphs">CMake 1.55%</text><rect x="228.5" y="0.5" rx="2" width="15" height="15" fill="#89e051" stroke-width="1" stroke="#000000"/><text transform="scale(0.095)" x="2663" y="132" textLength="982" lengthAdjust="spacingAndGlyphs">Shell 1.14%</text></g><g transform="translate(15, 252)"><rect x="0.5" y="0.5" rx="2" width="15" height="15" fill="#427819" stroke-width="1" stroke="#000000"/><text transform="scale(0.095)" x="263" y="132" textLength="1272" lengthAdjust="spacingAndGlyphs">Makefile 0.26%</text><rect x="228.5" y="0.5" rx="2" width="15" height="15" fill="#8f14e9" stroke-width="1" stroke="#000000"/><text transform="scale(0.095)" x="2663" y="132" textLength="1034" lengthAdjust="spacingAndGlyphs">Metal 0.15%</text></g><g transform="translate(15, 273)"><rect x="0.5" y="0.5" rx="2" width="15" height="15" fill="#5686a5" stroke-width="1" stroke="#000000"/><text transform="scale(0.095)" x="263" y="132" textLength="993" lengthAdjust="spacingAndGlyphs">GLSL 0.12%</text><rect x="228.5" y="0.5" rx="2" width="15" height="15" fill="#C1F12E" stroke-width="1" stroke="#000000"/><text transform="scale(0.095)" x="2663" y="132" textLength="1304" lengthAdjust="spacingAndGlyphs">Batchfile 0.07%</text></g><g transform="translate(15, 294)"><rect x="0.5" y="0.5" rx="2" width="15" height="15" fill="#e34c26" stroke-width="1" stroke="#000000"/><text transform="scale(0.095)" x="263" y="132" textLength="1036" lengthAdjust="spacingAndGlyphs">HTML 0.06%</text><rect x="228.5" y="0.5" rx="2" width="15" height="15" fill="#701516" stroke-width="1" stroke="#000000"/><text transform="scale(0.095)" x="2663" y="132" textLength="999" lengthAdjust="spacingAndGlyphs">Ruby 0.03%</text></g></g></g></svg>