<svg width="457" height="396" viewBox="0 0 457 396" xmlns="http://www.w3.org/2000/svg" lang="en" xml:lang="en"><rect x="2" y="2" stroke-width="4" rx="0" width="453" height="392" stroke="#ffffff" fill="#ffffff"/><g font-weight="600" font-size="110pt" font-family="Verdana,Geneva,DejaVu Sans,sans-serif" text-rendering="geometricPrecision"><text x="895" y="301" lengthAdjust="spacingAndGlyphs" textLength="1917" transform="scale(0.123)" fill="#0969da">Rinc's GitHub Statistics</text><g transform="translate(0, 60)" fill="#24292f"><g transform="translate(15, 0)"><g transform="scale(0.095)"><text x="0" y="132" textLength="3652" lengthAdjust="spacingAndGlyphs">Language Distribution in Public Repositories</text></g></g><g transform="translate(243, 21)"><circle cx="92" cy="92" r="92" fill="#000000"/></g><g transform="translate(244, 22)"><path fill-rule="evenodd" fill="#f34b7d" d="M 0.0,91.00000000000001 A 91 91 0 0 1 168.98133687682264 44.09679010021274 L 91,91 Z"/><path fill-rule="evenodd" fill="#438eff" d="M 168.98133687682264,44.09679010021274 A 91 91 0 0 1 174.8247400910446 126.4176925937987 L 91,91 Z"/><path fill-rule="evenodd" fill="#555555" d="M 174.8247400910446,126.4176925937987 A 91 91 0 0 1 146.70214640411382 162.9602034875852 L 91,91 Z"/><path fill-rule="evenodd" fill="#dea584" d="M 146.70214640411382,162.9602034875852 A 91 91 0 0 1 108.58116183666453 180.28551253407807 L 91,91 Z"/><path fill-rule="evenodd" fill="#b07219" d="M 108.58116183666453,180.28551253407807 A 91 91 0 0 1 74.52572976008963 180.49635981458914 L 91,91 Z"/><path fill-rule="evenodd" fill="#00ADD8" d="M 74.52572976008963,180.49635981458914 A 91 91 0 0 1 48.647310039107396 171.54346437220408 L 91,91 Z"/><path fill-rule="evenodd" fill="#A97BFF" d="M 48.647310039107396,171.54346437220408 A 91 91 0 0 1 27.62354671304297 156.30256632603465 L 91,91 Z"/><path fill-rule="evenodd" fill="#000080" d="M 27.62354671304297,156.30256632603465 A 91 91 0 0 1 14.88200125225812 140.87033453505967 L 91,91 Z"/><path fill-rule="evenodd" fill="#f1e05a" d="M 14.88200125225812,140.87033453505967 A 91 91 0 0 1 8.037926216670172 128.39377372731104 L 91,91 Z"/><path fill-rule="evenodd" fill="#3178c6" d="M 8.037926216670172,128.39377372731104 A 91 91 0 0 1 4.363271049424512 118.84020827408649 L 91,91 Z"/><path fill-rule="evenodd" fill="#6866fb" d="M 4.363271049424512,118.84020827408649 A 91 91 0 0 1 2.01701261943613 110.05329254565758 L 91,91 Z"/><path fill-rule="evenodd" fill="#DA3434" d="M 2.01701261943613,110.05329254565758 A 91 91 0 0 1 0.588630787210036 101.33364974578555 L 91,91 Z"/><path fill-rule="evenodd" fill="#89e051" d="M 0.588630787210036,101.33364974578555 A 91 91 0 0 1 0.08227862688096366 94.86884224541328 L 91,91 Z"/><path fill-rule="evenodd" fill="#427819" d="M 0.08227862688096366,94.86884224541328 A 91 91 0 0 1 0.031902279517026955 93.40939766677482 L 91,91 Z"/><path fill-rule="evenodd" fill="#8f14e9" d="M 0.031902279517026955,93.40939766677482 A 91 91 0 0 1 0.013187032663225295 92.54915010469468 L 91,91 Z"/><path fill-rule="evenodd" fill="#5686a5" d="M 0.013187032663225295,92.54915010469468 A 91 91 0 0 1 0.004145361316105323 91.86858423627753 L 91,91 Z"/><path fill-rule="evenodd" fill="#C1F12E" d="M 0.004145361316105323,91.86858423627753 A 91 91 0 0 1 0.0011768295408955964 91.46279757077492 L 91,91 Z"/><path fill-rule="evenodd" fill="#e34c26" d="M 0.0011768295408955964,91.46279757077492 A 91 91 0 0 1 0.00011914206447727338 91.14725434302972 L 91,91 Z"/><path fill-rule="evenodd" fill="#701516" d="M 0.00011914206447727338,91.14725434302972 A 91 91 0 0 1 0.0 91.00000000000003 L 91,91 Z"/></g><g transform="translate(15, 21)"><rect x="0.5" y="0.5" rx="2" width="15" height="15" fill="#f34b7d" stroke-width="1" stroke="#000000"/><text transform="scale(0.095)" x="263" y="132" textLength="1074" lengthAdjust="spacingAndGlyphs">C++ 41.38%</text></g><g transform="translate(15, 42)"><rect x="0.5" y="0.5" rx="2" width="15" height="15" fill="#438eff" stroke-width="1" stroke="#000000"/><text transform="scale(0.095)" x="263" y="132" textLength="1642" lengthAdjust="spacingAndGlyphs">Objective-C 14.98%</text></g><g transform="translate(15, 63)"><rect x="0.5" y="0.5" rx="2" width="15" height="15" fill="#555555" stroke-width="1" stroke="#000000"/><text transform="scale(0.095)" x="263" y="132" textLength="693" lengthAdjust="spacingAndGlyphs">C 8.15%</text></g><g transform="translate(15, 84)"><rect x="0.5" y="0.5" rx="2" width="15" height="15" fill="#dea584" stroke-width="1" stroke="#000000"/><text transform="scale(0.095)" x="263" y="132" textLength="946" lengthAdjust="spacingAndGlyphs">Rust 7.39%</text></g><g transform="translate(15, 105)"><rect x="0.5" y="0.5" rx="2" width="15" height="15" fill="#b07219" stroke-width="1" stroke="#000000"/><text transform="scale(0.095)" x="263" y="132" textLength="933" lengthAdjust="spacingAndGlyphs">Java 5.99%</text></g><g transform="translate(15, 126)"><rect x="0.5" y="0.5" rx="2" width="15" height="15" fill="#00ADD8" stroke-width="1" stroke="#000000"/><text transform="scale(0.095)" x="263" y="132" textLength="806" lengthAdjust="spacingAndGlyphs">Go 4.81%</text></g><g transform="translate(15, 147)"><rect x="0.5" y="0.5" rx="2" width="15" height="15" fill="#A97BFF" stroke-width="1" stroke="#000000"/><text transform="scale(0.095)" x="263" y="132" textLength="1048" lengthAdjust="spacingAndGlyphs">Kotlin 4.56%</text></g><g transform="translate(15, 168)"><rect x="0.5" y="0.5" rx="2" width="15" height="15" fill="#000080" stroke-width="1" stroke="#000000"/><text transform="scale(0.095)" x="263" y="132" textLength="874" lengthAdjust="spacingAndGlyphs">Lua 3.51%</text></g><g transform="translate(15, 189)"><rect x="0.5" y="0.5" rx="2" width="15" height="15" fill="#f1e05a" stroke-width="1" stroke="#000000"/><text transform="scale(0.095)" x="263" y="132" textLength="1412" lengthAdjust="spacingAndGlyphs">JavaScript 2.49%</text></g><g transform="translate(15, 210)"><rect x="0.5" y="0.5" rx="2" width="15" height="15" fill="#3178c6" stroke-width="1" stroke="#000000"/><text transform="scale(0.095)" x="263" y="132" textLength="1462" lengthAdjust="spacingAndGlyphs">TypeScript 1.79%</text><rect x="228.5" y="0.5" rx="2" width="15" height="15" fill="#6866fb" stroke-width="1" stroke="#000000"/><text transform="scale(0.095)" x="2663" y="132" textLength="1814" lengthAdjust="spacingAndGlyphs">Objective-C++ 1.59%</text></g><g transform="translate(15, 231)"><rect x="0.5" y="0.5" rx="2" width="15" height="15" fill="#DA3434" stroke-width="1" stroke="#000000"/><text transform="scale(0.095)" x="263" y="132" textLength="1134" lengthAdjust="spacingAndGlyphs">CMake 1.55%</text><rect x="228.5" y="0.5" rx="2" width="15" height="15" fill="#89e051" stroke-width="1" stroke="#000000"/><text transform="scale(0.095)" x="2663" y="132" textLength="982" lengthAdjust="spacingAndGlyphs">Shell 1.13%</text></g><g transform="translate(15, 252)"><rect x="0.5" y="0.5" rx="2" width="15" height="15" fill="#427819" stroke-width="1" stroke="#000000"/><text transform="scale(0.095)" x="263" y="132" textLength="1272" lengthAdjust="spacingAndGlyphs">Makefile 0.26%</text><rect x="228.5" y="0.5" rx="2" width="15" height="15" fill="#8f14e9" stroke-width="1" stroke="#000000"/><text transform="scale(0.095)" x="2663" y="132" textLength="1034" lengthAdjust="spacingAndGlyphs">Metal 0.15%</text></g><g transform="translate(15, 273)"><rect x="0.5" y="0.5" rx="2" width="15" height="15" fill="#5686a5" stroke-width="1" stroke="#000000"/><text transform="scale(0.095)" x="263" y="132" textLength="993" lengthAdjust="spacingAndGlyphs">GLSL 0.12%</text><rect x="228.5" y="0.5" rx="2" width="15" height="15" fill="#C1F12E" stroke-width="1" stroke="#000000"/><text transform="scale(0.095)" x="2663" y="132" textLength="1304" lengthAdjust="spacingAndGlyphs">Batchfile 0.07%</text></g><g transform="translate(15, 294)"><rect x="0.5" y="0.5" rx="2" width="15" height="15" fill="#e34c26" stroke-width="1" stroke="#000000"/><text transform="scale(0.095)" x="263" y="132" textLength="1036" lengthAdjust="spacingAndGlyphs">HTML 0.06%</text><rect x="228.5" y="0.5" rx="2" width="15" height="15" fill="#701516" stroke-width="1" stroke="#000000"/><text transform="scale(0.095)" x="2663" y="132" textLength="999" lengthAdjust="spacingAndGlyphs">Ruby 0.03%</text></g></g></g></svg>