<svg width="457" height="396" viewBox="0 0 457 396" xmlns="http://www.w3.org/2000/svg" lang="en" xml:lang="en"><rect x="2" y="2" stroke-width="4" rx="0" width="453" height="392" stroke="#ffffff" fill="#ffffff"/><g font-weight="600" font-size="110pt" font-family="Verdana,Geneva,DejaVu Sans,sans-serif" text-rendering="geometricPrecision"><text x="895" y="301" lengthAdjust="spacingAndGlyphs" textLength="1917" transform="scale(0.123)" fill="#0969da">Rinc's GitHub Statistics</text><g transform="translate(0, 60)" fill="#24292f"><g transform="translate(15, 0)"><g transform="scale(0.095)"><text x="0" y="132" textLength="3652" lengthAdjust="spacingAndGlyphs">Language Distribution in Public Repositories</text></g></g><g transform="translate(243, 21)"><circle cx="92" cy="92" r="92" fill="#000000"/></g><g transform="translate(244, 22)"><path fill-rule="evenodd" fill="#f34b7d" d="M 0.0,91.00000000000001 A 91 91 0 0 1 169.3578595718692 44.728563418505935 L 91,91 Z"/><path fill-rule="evenodd" fill="#438eff" d="M 169.3578595718692,44.728563418505935 A 91 91 0 0 1 174.61013153669717 126.92138505704088 L 91,91 Z"/><path fill-rule="evenodd" fill="#555555" d="M 174.61013153669717,126.92138505704088 A 91 91 0 0 1 146.34942394094867 163.2318577180813 L 91,91 Z"/><path fill-rule="evenodd" fill="#dea584" d="M 146.34942394094867,163.2318577180813 A 91 91 0 0 1 108.23518052363052 180.35294372497117 L 91,91 Z"/><path fill-rule="evenodd" fill="#b07219" d="M 108.23518052363052,180.35294372497117 A 91 91 0 0 1 74.2530721043879 180.44574001068565 L 91,91 Z"/><path fill-rule="evenodd" fill="#00ADD8" d="M 74.2530721043879,180.44574001068565 A 91 91 0 0 1 48.45536654114012 171.44224116626327 L 91,91 Z"/><path fill-rule="evenodd" fill="#A97BFF" d="M 48.45536654114012,171.44224116626327 A 91 91 0 0 1 27.508954072499343 156.19115804334206 L 91,91 Z"/><path fill-rule="evenodd" fill="#000080" d="M 27.508954072499343,156.19115804334206 A 91 91 0 0 1 14.818591166652354 140.77341607893055 L 91,91 Z"/><path fill-rule="evenodd" fill="#f1e05a" d="M 14.818591166652354,140.77341607893055 A 91 91 0 0 1 8.003214498414124 128.31666646960502 L 91,91 Z"/><path fill-rule="evenodd" fill="#3178c6" d="M 8.003214498414124,128.31666646960502 A 91 91 0 0 1 4.344296521078675 118.78109167353333 L 91,91 Z"/><path fill-rule="evenodd" fill="#6866fb" d="M 4.344296521078675,118.78109167353333 A 91 91 0 0 1 2.0082028792559896 110.01210259861693 L 91,91 Z"/><path fill-rule="evenodd" fill="#DA3434" d="M 2.0082028792559896,110.01210259861693 A 91 91 0 0 1 0.5860530545166114 101.31107160964928 L 91,91 Z"/><path fill-rule="evenodd" fill="#89e051" d="M 0.5860530545166114,101.31107160964928 A 91 91 0 0 1 0.08191797867711159 94.86035769897109 L 91,91 Z"/><path fill-rule="evenodd" fill="#427819" d="M 0.08191797867711159,94.86035769897109 A 91 91 0 0 1 0.0317624308398905 93.40411180290096 L 91,91 Z"/><path fill-rule="evenodd" fill="#8f14e9" d="M 0.0317624308398905,93.40411180290096 A 91 91 0 0 1 0.013129223251240774 92.54575103274239 L 91,91 Z"/><path fill-rule="evenodd" fill="#5686a5" d="M 0.013129223251240774,92.54575103274239 A 91 91 0 0 1 0.004127188550668848 91.86667830394916 L 91,91 Z"/><path fill-rule="evenodd" fill="#C1F12E" d="M 0.004127188550668848,91.86667830394916 A 91 91 0 0 1 0.001171670433805616 91.46178203315016 L 91,91 Z"/><path fill-rule="evenodd" fill="#e34c26" d="M 0.001171670433805616,91.46178203315016 A 91 91 0 0 1 0.000118619756165117 91.14693121367422 L 91,91 Z"/><path fill-rule="evenodd" fill="#701516" d="M 0.000118619756165117,91.14693121367422 A 91 91 0 0 1 0.0 91.00000000000003 L 91,91 Z"/></g><g transform="translate(15, 21)"><rect x="0.5" y="0.5" rx="2" width="15" height="15" fill="#f34b7d" stroke-width="1" stroke="#000000"/><text transform="scale(0.095)" x="263" y="132" textLength="1074" lengthAdjust="spacingAndGlyphs">C++ 41.51%</text></g><g transform="translate(15, 42)"><rect x="0.5" y="0.5" rx="2" width="15" height="15" fill="#438eff" stroke-width="1" stroke="#000000"/><text transform="scale(0.095)" x="263" y="132" textLength="1642" lengthAdjust="spacingAndGlyphs">Objective-C 14.95%</text></g><g transform="translate(15, 63)"><rect x="0.5" y="0.5" rx="2" width="15" height="15" fill="#555555" stroke-width="1" stroke="#000000"/><text transform="scale(0.095)" x="263" y="132" textLength="693" lengthAdjust="spacingAndGlyphs">C 8.14%</text></g><g transform="translate(15, 84)"><rect x="0.5" y="0.5" rx="2" width="15" height="15" fill="#dea584" stroke-width="1" stroke="#000000"/><text transform="scale(0.095)" x="263" y="132" textLength="946" lengthAdjust="spacingAndGlyphs">Rust 7.37%</text></g><g transform="translate(15, 105)"><rect x="0.5" y="0.5" rx="2" width="15" height="15" fill="#b07219" stroke-width="1" stroke="#000000"/><text transform="scale(0.095)" x="263" y="132" textLength="933" lengthAdjust="spacingAndGlyphs">Java 5.98%</text></g><g transform="translate(15, 126)"><rect x="0.5" y="0.5" rx="2" width="15" height="15" fill="#00ADD8" stroke-width="1" stroke="#000000"/><text transform="scale(0.095)" x="263" y="132" textLength="806" lengthAdjust="spacingAndGlyphs">Go 4.80%</text></g><g transform="translate(15, 147)"><rect x="0.5" y="0.5" rx="2" width="15" height="15" fill="#A97BFF" stroke-width="1" stroke="#000000"/><text transform="scale(0.095)" x="263" y="132" textLength="1048" lengthAdjust="spacingAndGlyphs">Kotlin 4.55%</text></g><g transform="translate(15, 168)"><rect x="0.5" y="0.5" rx="2" width="15" height="15" fill="#000080" stroke-width="1" stroke="#000000"/><text transform="scale(0.095)" x="263" y="132" textLength="874" lengthAdjust="spacingAndGlyphs">Lua 3.50%</text></g><g transform="translate(15, 189)"><rect x="0.5" y="0.5" rx="2" width="15" height="15" fill="#f1e05a" stroke-width="1" stroke="#000000"/><text transform="scale(0.095)" x="263" y="132" textLength="1412" lengthAdjust="spacingAndGlyphs">JavaScript 2.49%</text></g><g transform="translate(15, 210)"><rect x="0.5" y="0.5" rx="2" width="15" height="15" fill="#3178c6" stroke-width="1" stroke="#000000"/><text transform="scale(0.095)" x="263" y="132" textLength="1462" lengthAdjust="spacingAndGlyphs">TypeScript 1.79%</text><rect x="228.5" y="0.5" rx="2" width="15" height="15" fill="#6866fb" stroke-width="1" stroke="#000000"/><text transform="scale(0.095)" x="2663" y="132" textLength="1814" lengthAdjust="spacingAndGlyphs">Objective-C++ 1.59%</text></g><g transform="translate(15, 231)"><rect x="0.5" y="0.5" rx="2" width="15" height="15" fill="#DA3434" stroke-width="1" stroke="#000000"/><text transform="scale(0.095)" x="263" y="132" textLength="1134" lengthAdjust="spacingAndGlyphs">CMake 1.54%</text><rect x="228.5" y="0.5" rx="2" width="15" height="15" fill="#89e051" stroke-width="1" stroke="#000000"/><text transform="scale(0.095)" x="2663" y="132" textLength="982" lengthAdjust="spacingAndGlyphs">Shell 1.13%</text></g><g transform="translate(15, 252)"><rect x="0.5" y="0.5" rx="2" width="15" height="15" fill="#427819" stroke-width="1" stroke="#000000"/><text transform="scale(0.095)" x="263" y="132" textLength="1272" lengthAdjust="spacingAndGlyphs">Makefile 0.25%</text><rect x="228.5" y="0.5" rx="2" width="15" height="15" fill="#8f14e9" stroke-width="1" stroke="#000000"/><text transform="scale(0.095)" x="2663" y="132" textLength="1034" lengthAdjust="spacingAndGlyphs">Metal 0.15%</text></g><g transform="translate(15, 273)"><rect x="0.5" y="0.5" rx="2" width="15" height="15" fill="#5686a5" stroke-width="1" stroke="#000000"/><text transform="scale(0.095)" x="263" y="132" textLength="993" lengthAdjust="spacingAndGlyphs">GLSL 0.12%</text><rect x="228.5" y="0.5" rx="2" width="15" height="15" fill="#C1F12E" stroke-width="1" stroke="#000000"/><text transform="scale(0.095)" x="2663" y="132" textLength="1304" lengthAdjust="spacingAndGlyphs">Batchfile 0.07%</text></g><g transform="translate(15, 294)"><rect x="0.5" y="0.5" rx="2" width="15" height="15" fill="#e34c26" stroke-width="1" stroke="#000000"/><text transform="scale(0.095)" x="263" y="132" textLength="1036" lengthAdjust="spacingAndGlyphs">HTML 0.06%</text><rect x="228.5" y="0.5" rx="2" width="15" height="15" fill="#701516" stroke-width="1" stroke="#000000"/><text transform="scale(0.095)" x="2663" y="132" textLength="999" lengthAdjust="spacingAndGlyphs">Ruby 0.03%</text></g></g></g></svg>