<svg width="404" height="312" viewBox="0 0 404 312" xmlns="http://www.w3.org/2000/svg" lang="en" xml:lang="en"><rect x="2" y="2" stroke-width="4" rx="0" width="400" height="308" stroke="#ffffff" fill="#ffffff"/><g font-weight="600" font-size="110pt" font-family="Verdana,Geneva,DejaVu Sans,sans-serif" text-rendering="geometricPrecision"><text x="1616" y="301" lengthAdjust="spacingAndGlyphs" textLength="52" transform="scale(0.123)" fill="#0969da">.</text><g transform="translate(0, 60)" fill="#24292f"><g transform="translate(15, 0)"><g transform="scale(0.095)"><text x="0" y="132" textLength="3652" lengthAdjust="spacingAndGlyphs">Language Distribution in Public Repositories</text></g></g><g transform="translate(217, 21)"><circle cx="81" cy="81" r="81" fill="#000000"/></g><g transform="translate(218, 22)"><path fill-rule="evenodd" fill="#f34b7d" d="M 0.0,80.00000000000001 A 80 80 0 1 1 140.27277319086812 132.60411402050383 L 80,80 Z"/><path fill-rule="evenodd" fill="#555555" d="M 140.27277319086812,132.60411402050383 A 80 80 0 0 1 111.2602393759746 153.63964580412352 L 80,80 Z"/><path fill-rule="evenodd" fill="#dea584" d="M 111.2602393759746,153.63964580412352 A 80 80 0 0 1 79.05957548794791 159.99447231988677 L 80,80 Z"/><path fill-rule="evenodd" fill="#438eff" d="M 79.05957548794791,159.99447231988677 A 80 80 0 0 1 52.49949343866718 155.12471057428502 L 80,80 Z"/><path fill-rule="evenodd" fill="#b07219" d="M 52.49949343866718,155.12471057428502 A 80 80 0 0 1 29.352379855168806 141.92591197281547 L 80,80 Z"/><path fill-rule="evenodd" fill="#00ADD8" d="M 29.352379855168806,141.92591197281547 A 80 80 0 0 1 15.713366569606762 127.61542567473535 L 80,80 Z"/><path fill-rule="evenodd" fill="#DA3434" d="M 15.713366569606762,127.61542567473535 A 80 80 0 0 1 6.7572111377925665 112.1790907218663 L 80,80 Z"/><path fill-rule="evenodd" fill="#000080" d="M 6.7572111377925665,112.1790907218663 A 80 80 0 0 1 2.489874878341041 99.80354775349035 L 80,80 Z"/><path fill-rule="evenodd" fill="#f1e05a" d="M 2.489874878341041,99.80354775349035 A 80 80 0 0 1 0.683710466530286 90.43677223296561 L 80,80 Z"/><path fill-rule="evenodd" fill="#A97BFF" d="M 0.683710466530286,90.43677223296561 A 80 80 0 0 1 0.09549260758161893 83.90764614249497 L 80,80 Z"/><path fill-rule="evenodd" fill="#8f14e9" d="M 0.09549260758161893,83.90764614249497 A 80 80 0 0 1 0.06547195685992335 83.23592745908383 L 80,80 Z"/><path fill-rule="evenodd" fill="#5686a5" d="M 0.06547195685992335,83.23592745908383 A 80 80 0 0 1 0.0 80.00000000000003 L 80,80 Z"/></g><g transform="translate(15, 21)"><rect x="0.5" y="0.5" rx="2" width="15" height="15" fill="#f34b7d" stroke-width="1" stroke="#000000"/><text transform="scale(0.095)" x="263" y="132" textLength="1074" lengthAdjust="spacingAndGlyphs">C++ 61.42%</text></g><g transform="translate(15, 42)"><rect x="0.5" y="0.5" rx="2" width="15" height="15" fill="#555555" stroke-width="1" stroke="#000000"/><text transform="scale(0.095)" x="263" y="132" textLength="693" lengthAdjust="spacingAndGlyphs">C 7.19%</text></g><g transform="translate(15, 63)"><rect x="0.5" y="0.5" rx="2" width="15" height="15" fill="#dea584" stroke-width="1" stroke="#000000"/><text transform="scale(0.095)" x="263" y="132" textLength="946" lengthAdjust="spacingAndGlyphs">Rust 6.58%</text></g><g transform="translate(15, 84)"><rect x="0.5" y="0.5" rx="2" width="15" height="15" fill="#438eff" stroke-width="1" stroke="#000000"/><text transform="scale(0.095)" x="263" y="132" textLength="1538" lengthAdjust="spacingAndGlyphs">Objective-C 5.40%</text></g><g transform="translate(15, 105)"><rect x="0.5" y="0.5" rx="2" width="15" height="15" fill="#b07219" stroke-width="1" stroke="#000000"/><text transform="scale(0.095)" x="263" y="132" textLength="933" lengthAdjust="spacingAndGlyphs">Java 5.33%</text></g><g transform="translate(15, 126)"><rect x="0.5" y="0.5" rx="2" width="15" height="15" fill="#00ADD8" stroke-width="1" stroke="#000000"/><text transform="scale(0.095)" x="263" y="132" textLength="806" lengthAdjust="spacingAndGlyphs">Go 3.94%</text></g><g transform="translate(15, 147)"><rect x="0.5" y="0.5" rx="2" width="15" height="15" fill="#DA3434" stroke-width="1" stroke="#000000"/><text transform="scale(0.095)" x="263" y="132" textLength="1134" lengthAdjust="spacingAndGlyphs">CMake 3.56%</text></g><g transform="translate(15, 168)"><rect x="0.5" y="0.5" rx="2" width="15" height="15" fill="#000080" stroke-width="1" stroke="#000000"/><text transform="scale(0.095)" x="263" y="132" textLength="874" lengthAdjust="spacingAndGlyphs">Lua 2.61%</text></g><g transform="translate(15, 189)"><rect x="0.5" y="0.5" rx="2" width="15" height="15" fill="#f1e05a" stroke-width="1" stroke="#000000"/><text transform="scale(0.095)" x="263" y="132" textLength="1412" lengthAdjust="spacingAndGlyphs">JavaScript 1.90%</text><rect x="202.5" y="0.5" rx="2" width="15" height="15" fill="#A97BFF" stroke-width="1" stroke="#000000"/><text transform="scale(0.095)" x="2389" y="132" textLength="1048" lengthAdjust="spacingAndGlyphs">Kotlin 1.30%</text></g><g transform="translate(15, 210)"><rect x="0.5" y="0.5" rx="2" width="15" height="15" fill="#8f14e9" stroke-width="1" stroke="#000000"/><text transform="scale(0.095)" x="263" y="132" textLength="1034" lengthAdjust="spacingAndGlyphs">Metal 0.13%</text><rect x="202.5" y="0.5" rx="2" width="15" height="15" fill="#5686a5" stroke-width="1" stroke="#000000"/><text transform="scale(0.095)" x="2389" y="132" textLength="993" lengthAdjust="spacingAndGlyphs">GLSL 0.11%</text></g></g></g></svg>