<svg width="457" height="396" viewBox="0 0 457 396" xmlns="http://www.w3.org/2000/svg" lang="en" xml:lang="en"><rect x="2" y="2" stroke-width="4" rx="0" width="453" height="392" stroke="#ffffff" fill="#ffffff"/><g font-weight="600" font-size="110pt" font-family="Verdana,Geneva,DejaVu Sans,sans-serif" text-rendering="geometricPrecision"><text x="895" y="301" lengthAdjust="spacingAndGlyphs" textLength="1917" transform="scale(0.123)" fill="#0969da">Rinc's GitHub Statistics</text><g transform="translate(0, 60)" fill="#24292f"><g transform="translate(15, 0)"><g transform="scale(0.095)"><text x="0" y="132" textLength="3652" lengthAdjust="spacingAndGlyphs">Language Distribution in Public Repositories</text></g></g><g transform="translate(243, 21)"><circle cx="92" cy="92" r="92" fill="#000000"/></g><g transform="translate(244, 22)"><path fill-rule="evenodd" fill="#f34b7d" d="M 0.0,91.00000000000001 A 91 91 0 0 1 176.20811636847446 59.05353063425453 L 91,91 Z"/><path fill-rule="evenodd" fill="#438eff" d="M 176.20811636847446,59.05353063425453 A 91 91 0 0 1 167.6087435364472 140.11313891177045 L 91,91 Z"/><path fill-rule="evenodd" fill="#555555" d="M 167.6087435364472,140.11313891177045 A 91 91 0 0 1 136.14653440684384 170.0113310294901 L 91,91 Z"/><path fill-rule="evenodd" fill="#dea584" d="M 136.14653440684384,170.0113310294901 A 91 91 0 0 1 96.65218689703235 181.82429621682195 L 91,91 Z"/><path fill-rule="evenodd" fill="#b07219" d="M 96.65218689703235,181.82429621682195 A 91 91 0 0 1 63.381841870886674 177.7077697876914 L 91,91 Z"/><path fill-rule="evenodd" fill="#00ADD8" d="M 63.381841870886674,177.7077697876914 A 91 91 0 0 1 39.194123256102685 165.8141105326804 L 91,91 Z"/><path fill-rule="evenodd" fill="#A97BFF" d="M 39.194123256102685,165.8141105326804 A 91 91 0 0 1 20.394313913545247 148.40938157009714 L 91,91 Z"/><path fill-rule="evenodd" fill="#000080" d="M 20.394313913545247,148.40938157009714 A 91 91 0 0 1 11.62661137035775 135.5069115694156 L 91,91 Z"/><path fill-rule="evenodd" fill="#f1e05a" d="M 11.62661137035775,135.5069115694156 A 91 91 0 0 1 5.632586427731056 122.51832324190474 L 91,91 Z"/><path fill-rule="evenodd" fill="#3178c6" d="M 5.632586427731056,122.51832324190474 A 91 91 0 0 1 2.687548044357328 112.95246750555175 L 91,91 Z"/><path fill-rule="evenodd" fill="#6866fb" d="M 2.687548044357328,112.95246750555175 A 91 91 0 0 1 0.9582519963137912 104.17131794622966 L 91,91 Z"/><path fill-rule="evenodd" fill="#89e051" d="M 0.9582519963137912,104.17131794622966 A 91 91 0 0 1 0.13035741450482874 95.86909194659174 L 91,91 Z"/><path fill-rule="evenodd" fill="#427819" d="M 0.13035741450482874,95.86909194659174 A 91 91 0 0 1 0.0647918733241113 94.43335447603943 L 91,91 Z"/><path fill-rule="evenodd" fill="#8f14e9" d="M 0.0647918733241113,94.43335447603943 A 91 91 0 0 1 0.03677883017095951 93.58696625582276 L 91,91 Z"/><path fill-rule="evenodd" fill="#C1F12E" d="M 0.03677883017095951,93.58696625582276 A 91 91 0 0 1 0.016681796694214768 92.74235722973364 L 91,91 Z"/><path fill-rule="evenodd" fill="#5686a5" d="M 0.016681796694214768,92.74235722973364 A 91 91 0 0 1 0.006321119331104796 92.07256876782402 L 91,91 Z"/><path fill-rule="evenodd" fill="#DA3434" d="M 0.006321119331104796,92.07256876782402 A 91 91 0 0 1 0.0011399236859404027 91.45548305283113 L 91,91 Z"/><path fill-rule="evenodd" fill="#e34c26" d="M 0.0011399236859404027,91.45548305283113 A 91 91 0 0 1 0.00011540571368584551 91.14492696978536 L 91,91 Z"/><path fill-rule="evenodd" fill="#701516" d="M 0.00011540571368584551,91.14492696978536 A 91 91 0 0 1 0.0 91.00000000000003 L 91,91 Z"/></g><g transform="translate(15, 21)"><rect x="0.5" y="0.5" rx="2" width="15" height="15" fill="#f34b7d" stroke-width="1" stroke="#000000"/><text transform="scale(0.095)" x="263" y="132" textLength="1074" lengthAdjust="spacingAndGlyphs">C++ 44.29%</text></g><g transform="translate(15, 42)"><rect x="0.5" y="0.5" rx="2" width="15" height="15" fill="#438eff" stroke-width="1" stroke="#000000"/><text transform="scale(0.095)" x="263" y="132" textLength="1642" lengthAdjust="spacingAndGlyphs">Objective-C 14.78%</text></g><g transform="translate(15, 63)"><rect x="0.5" y="0.5" rx="2" width="15" height="15" fill="#555555" stroke-width="1" stroke="#000000"/><text transform="scale(0.095)" x="263" y="132" textLength="693" lengthAdjust="spacingAndGlyphs">C 7.66%</text></g><g transform="translate(15, 84)"><rect x="0.5" y="0.5" rx="2" width="15" height="15" fill="#dea584" stroke-width="1" stroke="#000000"/><text transform="scale(0.095)" x="263" y="132" textLength="946" lengthAdjust="spacingAndGlyphs">Rust 7.27%</text></g><g transform="translate(15, 105)"><rect x="0.5" y="0.5" rx="2" width="15" height="15" fill="#b07219" stroke-width="1" stroke="#000000"/><text transform="scale(0.095)" x="263" y="132" textLength="933" lengthAdjust="spacingAndGlyphs">Java 5.90%</text></g><g transform="translate(15, 126)"><rect x="0.5" y="0.5" rx="2" width="15" height="15" fill="#00ADD8" stroke-width="1" stroke="#000000"/><text transform="scale(0.095)" x="263" y="132" textLength="806" lengthAdjust="spacingAndGlyphs">Go 4.73%</text></g><g transform="translate(15, 147)"><rect x="0.5" y="0.5" rx="2" width="15" height="15" fill="#A97BFF" stroke-width="1" stroke="#000000"/><text transform="scale(0.095)" x="263" y="132" textLength="1048" lengthAdjust="spacingAndGlyphs">Kotlin 4.50%</text></g><g transform="translate(15, 168)"><rect x="0.5" y="0.5" rx="2" width="15" height="15" fill="#000080" stroke-width="1" stroke="#000000"/><text transform="scale(0.095)" x="263" y="132" textLength="874" lengthAdjust="spacingAndGlyphs">Lua 2.73%</text></g><g transform="translate(15, 189)"><rect x="0.5" y="0.5" rx="2" width="15" height="15" fill="#f1e05a" stroke-width="1" stroke="#000000"/><text transform="scale(0.095)" x="263" y="132" textLength="1412" lengthAdjust="spacingAndGlyphs">JavaScript 2.50%</text></g><g transform="translate(15, 210)"><rect x="0.5" y="0.5" rx="2" width="15" height="15" fill="#3178c6" stroke-width="1" stroke="#000000"/><text transform="scale(0.095)" x="263" y="132" textLength="1462" lengthAdjust="spacingAndGlyphs">TypeScript 1.75%</text><rect x="228.5" y="0.5" rx="2" width="15" height="15" fill="#6866fb" stroke-width="1" stroke="#000000"/><text transform="scale(0.095)" x="2663" y="132" textLength="1814" lengthAdjust="spacingAndGlyphs">Objective-C++ 1.57%</text></g><g transform="translate(15, 231)"><rect x="0.5" y="0.5" rx="2" width="15" height="15" fill="#89e051" stroke-width="1" stroke="#000000"/><text transform="scale(0.095)" x="263" y="132" textLength="982" lengthAdjust="spacingAndGlyphs">Shell 1.46%</text><rect x="228.5" y="0.5" rx="2" width="15" height="15" fill="#427819" stroke-width="1" stroke="#000000"/><text transform="scale(0.095)" x="2663" y="132" textLength="1272" lengthAdjust="spacingAndGlyphs">Makefile 0.25%</text></g><g transform="translate(15, 252)"><rect x="0.5" y="0.5" rx="2" width="15" height="15" fill="#8f14e9" stroke-width="1" stroke="#000000"/><text transform="scale(0.095)" x="263" y="132" textLength="1034" lengthAdjust="spacingAndGlyphs">Metal 0.15%</text><rect x="228.5" y="0.5" rx="2" width="15" height="15" fill="#C1F12E" stroke-width="1" stroke="#000000"/><text transform="scale(0.095)" x="2663" y="132" textLength="1304" lengthAdjust="spacingAndGlyphs">Batchfile 0.15%</text></g><g transform="translate(15, 273)"><rect x="0.5" y="0.5" rx="2" width="15" height="15" fill="#5686a5" stroke-width="1" stroke="#000000"/><text transform="scale(0.095)" x="263" y="132" textLength="993" lengthAdjust="spacingAndGlyphs">GLSL 0.12%</text><rect x="228.5" y="0.5" rx="2" width="15" height="15" fill="#DA3434" stroke-width="1" stroke="#000000"/><text transform="scale(0.095)" x="2663" y="132" textLength="1134" lengthAdjust="spacingAndGlyphs">CMake 0.11%</text></g><g transform="translate(15, 294)"><rect x="0.5" y="0.5" rx="2" width="15" height="15" fill="#e34c26" stroke-width="1" stroke="#000000"/><text transform="scale(0.095)" x="263" y="132" textLength="1036" lengthAdjust="spacingAndGlyphs">HTML 0.05%</text><rect x="228.5" y="0.5" rx="2" width="15" height="15" fill="#701516" stroke-width="1" stroke="#000000"/><text transform="scale(0.095)" x="2663" y="132" textLength="999" lengthAdjust="spacingAndGlyphs">Ruby 0.03%</text></g></g></g></svg>