<svg width="457" height="396" viewBox="0 0 457 396" xmlns="http://www.w3.org/2000/svg" lang="en" xml:lang="en"><rect x="2" y="2" stroke-width="4" rx="0" width="453" height="392" stroke="#ffffff" fill="#ffffff"/><g font-weight="600" font-size="110pt" font-family="Verdana,Geneva,DejaVu Sans,sans-serif" text-rendering="geometricPrecision"><text x="895" y="301" lengthAdjust="spacingAndGlyphs" textLength="1917" transform="scale(0.123)" fill="#0969da">Rinc's GitHub Statistics</text><g transform="translate(0, 60)" fill="#24292f"><g transform="translate(15, 0)"><g transform="scale(0.095)"><text x="0" y="132" textLength="3652" lengthAdjust="spacingAndGlyphs">Language Distribution in Public Repositories</text></g></g><g transform="translate(243, 21)"><circle cx="92" cy="92" r="92" fill="#000000"/></g><g transform="translate(244, 22)"><path fill-rule="evenodd" fill="#f34b7d" d="M 0.0,91.00000000000001 A 91 91 0 0 1 174.4030361489442 54.60036317299434 L 91,91 Z"/><path fill-rule="evenodd" fill="#438eff" d="M 174.4030361489442,54.60036317299434 A 91 91 0 0 1 169.53317510558628 136.97325752908228 L 91,91 Z"/><path fill-rule="evenodd" fill="#555555" d="M 169.53317510558628,136.97325752908228 A 91 91 0 0 1 137.03733908657006 169.49562669237164 L 91,91 Z"/><path fill-rule="evenodd" fill="#dea584" d="M 137.03733908657006,169.49562669237164 A 91 91 0 0 1 97.12812785330695 181.79342514198657 L 91,91 Z"/><path fill-rule="evenodd" fill="#b07219" d="M 97.12812785330695,181.79342514198657 A 91 91 0 0 1 63.40954396636043 177.71658858520556 L 91,91 Z"/><path fill-rule="evenodd" fill="#00ADD8" d="M 63.40954396636043,177.71658858520556 A 91 91 0 0 1 38.922925502086265 165.62558751352475 L 91,91 Z"/><path fill-rule="evenodd" fill="#A97BFF" d="M 38.922925502086265,165.62558751352475 A 91 91 0 0 1 19.995313527412563 147.9151517517924 L 91,91 Z"/><path fill-rule="evenodd" fill="#000080" d="M 19.995313527412563,147.9151517517924 A 91 91 0 0 1 11.526466307018353 135.32784048823618 L 91,91 Z"/><path fill-rule="evenodd" fill="#f1e05a" d="M 11.526466307018353,135.32784048823618 A 91 91 0 0 1 5.723117298275682 122.76245073473316 L 91,91 Z"/><path fill-rule="evenodd" fill="#3178c6" d="M 5.723117298275682,122.76245073473316 A 91 91 0 0 1 2.779102738439647 113.31755556429091 L 91,91 Z"/><path fill-rule="evenodd" fill="#6866fb" d="M 2.779102738439647,113.31755556429091 A 91 91 0 0 1 0.9958772394640789 104.42601527283433 L 91,91 Z"/><path fill-rule="evenodd" fill="#89e051" d="M 0.9958772394640789,104.42601527283433 A 91 91 0 0 1 0.13384273258677126 95.93370686742986 L 91,91 Z"/><path fill-rule="evenodd" fill="#427819" d="M 0.13384273258677126,95.93370686742986 A 91 91 0 0 1 0.06652440345797572 94.47893890907794 L 91,91 Z"/><path fill-rule="evenodd" fill="#8f14e9" d="M 0.06652440345797572,94.47893890907794 A 91 91 0 0 1 0.0377623453266267 93.62132044106033 L 91,91 Z"/><path fill-rule="evenodd" fill="#C1F12E" d="M 0.0377623453266267,93.62132044106033 A 91 91 0 0 1 0.01712790713217771 92.76549872071668 L 91,91 Z"/><path fill-rule="evenodd" fill="#5686a5" d="M 0.01712790713217771,92.76549872071668 A 91 91 0 0 1 0.006490164207377802 92.08681542292729 L 91,91 Z"/><path fill-rule="evenodd" fill="#DA3434" d="M 0.006490164207377802,92.08681542292729 A 91 91 0 0 1 0.0011704088145876312 91.4615333513402 L 91,91 Z"/><path fill-rule="evenodd" fill="#e34c26" d="M 0.0011704088145876312,91.4615333513402 A 91 91 0 0 1 0.00011849202977032292 91.14685208672852 L 91,91 Z"/><path fill-rule="evenodd" fill="#701516" d="M 0.00011849202977032292,91.14685208672852 A 91 91 0 0 1 0.0 91.00000000000003 L 91,91 Z"/></g><g transform="translate(15, 21)"><rect x="0.5" y="0.5" rx="2" width="15" height="15" fill="#f34b7d" stroke-width="1" stroke="#000000"/><text transform="scale(0.095)" x="263" y="132" textLength="1074" lengthAdjust="spacingAndGlyphs">C++ 43.45%</text></g><g transform="translate(15, 42)"><rect x="0.5" y="0.5" rx="2" width="15" height="15" fill="#438eff" stroke-width="1" stroke="#000000"/><text transform="scale(0.095)" x="263" y="132" textLength="1642" lengthAdjust="spacingAndGlyphs">Objective-C 14.98%</text></g><g transform="translate(15, 63)"><rect x="0.5" y="0.5" rx="2" width="15" height="15" fill="#555555" stroke-width="1" stroke="#000000"/><text transform="scale(0.095)" x="263" y="132" textLength="693" lengthAdjust="spacingAndGlyphs">C 8.13%</text></g><g transform="translate(15, 84)"><rect x="0.5" y="0.5" rx="2" width="15" height="15" fill="#dea584" stroke-width="1" stroke="#000000"/><text transform="scale(0.095)" x="263" y="132" textLength="946" lengthAdjust="spacingAndGlyphs">Rust 7.37%</text></g><g transform="translate(15, 105)"><rect x="0.5" y="0.5" rx="2" width="15" height="15" fill="#b07219" stroke-width="1" stroke="#000000"/><text transform="scale(0.095)" x="263" y="132" textLength="933" lengthAdjust="spacingAndGlyphs">Java 5.98%</text></g><g transform="translate(15, 126)"><rect x="0.5" y="0.5" rx="2" width="15" height="15" fill="#00ADD8" stroke-width="1" stroke="#000000"/><text transform="scale(0.095)" x="263" y="132" textLength="806" lengthAdjust="spacingAndGlyphs">Go 4.79%</text></g><g transform="translate(15, 147)"><rect x="0.5" y="0.5" rx="2" width="15" height="15" fill="#A97BFF" stroke-width="1" stroke="#000000"/><text transform="scale(0.095)" x="263" y="132" textLength="1048" lengthAdjust="spacingAndGlyphs">Kotlin 4.55%</text></g><g transform="translate(15, 168)"><rect x="0.5" y="0.5" rx="2" width="15" height="15" fill="#000080" stroke-width="1" stroke="#000000"/><text transform="scale(0.095)" x="263" y="132" textLength="874" lengthAdjust="spacingAndGlyphs">Lua 2.66%</text></g><g transform="translate(15, 189)"><rect x="0.5" y="0.5" rx="2" width="15" height="15" fill="#f1e05a" stroke-width="1" stroke="#000000"/><text transform="scale(0.095)" x="263" y="132" textLength="1412" lengthAdjust="spacingAndGlyphs">JavaScript 2.42%</text></g><g transform="translate(15, 210)"><rect x="0.5" y="0.5" rx="2" width="15" height="15" fill="#3178c6" stroke-width="1" stroke="#000000"/><text transform="scale(0.095)" x="263" y="132" textLength="1462" lengthAdjust="spacingAndGlyphs">TypeScript 1.73%</text><rect x="228.5" y="0.5" rx="2" width="15" height="15" fill="#6866fb" stroke-width="1" stroke="#000000"/><text transform="scale(0.095)" x="2663" y="132" textLength="1814" lengthAdjust="spacingAndGlyphs">Objective-C++ 1.59%</text></g><g transform="translate(15, 231)"><rect x="0.5" y="0.5" rx="2" width="15" height="15" fill="#89e051" stroke-width="1" stroke="#000000"/><text transform="scale(0.095)" x="263" y="132" textLength="982" lengthAdjust="spacingAndGlyphs">Shell 1.49%</text><rect x="228.5" y="0.5" rx="2" width="15" height="15" fill="#427819" stroke-width="1" stroke="#000000"/><text transform="scale(0.095)" x="2663" y="132" textLength="1272" lengthAdjust="spacingAndGlyphs">Makefile 0.25%</text></g><g transform="translate(15, 252)"><rect x="0.5" y="0.5" rx="2" width="15" height="15" fill="#8f14e9" stroke-width="1" stroke="#000000"/><text transform="scale(0.095)" x="263" y="132" textLength="1034" lengthAdjust="spacingAndGlyphs">Metal 0.15%</text><rect x="228.5" y="0.5" rx="2" width="15" height="15" fill="#C1F12E" stroke-width="1" stroke="#000000"/><text transform="scale(0.095)" x="2663" y="132" textLength="1304" lengthAdjust="spacingAndGlyphs">Batchfile 0.15%</text></g><g transform="translate(15, 273)"><rect x="0.5" y="0.5" rx="2" width="15" height="15" fill="#5686a5" stroke-width="1" stroke="#000000"/><text transform="scale(0.095)" x="263" y="132" textLength="993" lengthAdjust="spacingAndGlyphs">GLSL 0.12%</text><rect x="228.5" y="0.5" rx="2" width="15" height="15" fill="#DA3434" stroke-width="1" stroke="#000000"/><text transform="scale(0.095)" x="2663" y="132" textLength="1134" lengthAdjust="spacingAndGlyphs">CMake 0.11%</text></g><g transform="translate(15, 294)"><rect x="0.5" y="0.5" rx="2" width="15" height="15" fill="#e34c26" stroke-width="1" stroke="#000000"/><text transform="scale(0.095)" x="263" y="132" textLength="1036" lengthAdjust="spacingAndGlyphs">HTML 0.06%</text><rect x="228.5" y="0.5" rx="2" width="15" height="15" fill="#701516" stroke-width="1" stroke="#000000"/><text transform="scale(0.095)" x="2663" y="132" textLength="999" lengthAdjust="spacingAndGlyphs">Ruby 0.03%</text></g></g></g></svg>