<svg width="457" height="396" viewBox="0 0 457 396" xmlns="http://www.w3.org/2000/svg" lang="en" xml:lang="en"><rect x="2" y="2" stroke-width="4" rx="0" width="453" height="392" stroke="#ffffff" fill="#ffffff"/><g font-weight="600" font-size="110pt" font-family="Verdana,Geneva,DejaVu Sans,sans-serif" text-rendering="geometricPrecision"><text x="895" y="301" lengthAdjust="spacingAndGlyphs" textLength="1917" transform="scale(0.123)" fill="#0969da">Rinc's GitHub Statistics</text><g transform="translate(0, 60)" fill="#24292f"><g transform="translate(15, 0)"><g transform="scale(0.095)"><text x="0" y="132" textLength="3652" lengthAdjust="spacingAndGlyphs">Language Distribution in Public Repositories</text></g></g><g transform="translate(243, 21)"><circle cx="92" cy="92" r="92" fill="#000000"/></g><g transform="translate(244, 22)"><path fill-rule="evenodd" fill="#f34b7d" d="M 0.0,91.00000000000001 A 91 91 0 0 1 168.3639183866382 43.085240980825326 L 91,91 Z"/><path fill-rule="evenodd" fill="#438eff" d="M 168.3639183866382,43.085240980825326 A 91 91 0 0 1 175.51534980947218 124.73656245948229 L 91,91 Z"/><path fill-rule="evenodd" fill="#555555" d="M 175.51534980947218,124.73656245948229 A 91 91 0 0 1 148.36951922818184 161.63807941561885 L 91,91 Z"/><path fill-rule="evenodd" fill="#dea584" d="M 148.36951922818184,161.63807941561885 A 91 91 0 0 1 110.9685206059502 179.78208256630245 L 91,91 Z"/><path fill-rule="evenodd" fill="#b07219" d="M 110.9685206059502,179.78208256630245 A 91 91 0 0 1 77.18091938223202 180.9446107939749 L 91,91 Z"/><path fill-rule="evenodd" fill="#00ADD8" d="M 77.18091938223202,180.9446107939749 A 91 91 0 0 1 51.23137106769467 172.8502055760681 L 91,91 Z"/><path fill-rule="evenodd" fill="#A97BFF" d="M 51.23137106769467,172.8502055760681 A 91 91 0 0 1 29.81236648188078 158.35780210526715 L 91,91 Z"/><path fill-rule="evenodd" fill="#000080" d="M 29.81236648188078,158.35780210526715 A 91 91 0 0 1 16.676459583564252 143.50725035617884 L 91,91 Z"/><path fill-rule="evenodd" fill="#f1e05a" d="M 16.676459583564252,143.50725035617884 A 91 91 0 0 1 9.602554314044724 131.68729329658044 L 91,91 Z"/><path fill-rule="evenodd" fill="#DA3434" d="M 9.602554314044724,131.68729329658044 A 91 91 0 0 1 5.56185515567212 122.3260818737302 L 91,91 Z"/><path fill-rule="evenodd" fill="#3178c6" d="M 5.56185515567212,122.3260818737302 A 91 91 0 0 1 2.602214440595219 112.6062839977977 L 91,91 Z"/><path fill-rule="evenodd" fill="#6866fb" d="M 2.602214440595219,112.6062839977977 A 91 91 0 0 1 0.8973309196302068 103.74790275274225 L 91,91 Z"/><path fill-rule="evenodd" fill="#89e051" d="M 0.8973309196302068,103.74790275274225 A 91 91 0 0 1 0.10113643259678895 95.28912603622437 L 91,91 Z"/><path fill-rule="evenodd" fill="#427819" d="M 0.10113643259678895,95.28912603622437 A 91 91 0 0 1 0.04434933366655969 93.84070622626079 L 91,91 Z"/><path fill-rule="evenodd" fill="#8f14e9" d="M 0.04434933366655969,93.84070622626079 A 91 91 0 0 1 0.021693818537499965 92.98690823946696 L 91,91 Z"/><path fill-rule="evenodd" fill="#C1F12E" d="M 0.021693818537499965,92.98690823946696 A 91 91 0 0 1 0.007077883465854029 92.13495581162938 L 91,91 Z"/><path fill-rule="evenodd" fill="#5686a5" d="M 0.007077883465854029,92.13495581162938 A 91 91 0 0 1 0.0011595168240035036 91.45938079790908 L 91,91 Z"/><path fill-rule="evenodd" fill="#e34c26" d="M 0.0011595168240035036,91.45938079790908 A 91 91 0 0 1 0.000117389324003625 91.1461671754839 L 91,91 Z"/><path fill-rule="evenodd" fill="#701516" d="M 0.000117389324003625,91.1461671754839 A 91 91 0 0 1 0.0 91.00000000000003 L 91,91 Z"/></g><g transform="translate(15, 21)"><rect x="0.5" y="0.5" rx="2" width="15" height="15" fill="#f34b7d" stroke-width="1" stroke="#000000"/><text transform="scale(0.095)" x="263" y="132" textLength="1074" lengthAdjust="spacingAndGlyphs">C++ 41.17%</text></g><g transform="translate(15, 42)"><rect x="0.5" y="0.5" rx="2" width="15" height="15" fill="#438eff" stroke-width="1" stroke="#000000"/><text transform="scale(0.095)" x="263" y="132" textLength="1642" lengthAdjust="spacingAndGlyphs">Objective-C 14.87%</text></g><g transform="translate(15, 63)"><rect x="0.5" y="0.5" rx="2" width="15" height="15" fill="#555555" stroke-width="1" stroke="#000000"/><text transform="scale(0.095)" x="263" y="132" textLength="693" lengthAdjust="spacingAndGlyphs">C 8.10%</text></g><g transform="translate(15, 84)"><rect x="0.5" y="0.5" rx="2" width="15" height="15" fill="#dea584" stroke-width="1" stroke="#000000"/><text transform="scale(0.095)" x="263" y="132" textLength="946" lengthAdjust="spacingAndGlyphs">Rust 7.34%</text></g><g transform="translate(15, 105)"><rect x="0.5" y="0.5" rx="2" width="15" height="15" fill="#b07219" stroke-width="1" stroke="#000000"/><text transform="scale(0.095)" x="263" y="132" textLength="933" lengthAdjust="spacingAndGlyphs">Java 5.95%</text></g><g transform="translate(15, 126)"><rect x="0.5" y="0.5" rx="2" width="15" height="15" fill="#00ADD8" stroke-width="1" stroke="#000000"/><text transform="scale(0.095)" x="263" y="132" textLength="806" lengthAdjust="spacingAndGlyphs">Go 4.77%</text></g><g transform="translate(15, 147)"><rect x="0.5" y="0.5" rx="2" width="15" height="15" fill="#A97BFF" stroke-width="1" stroke="#000000"/><text transform="scale(0.095)" x="263" y="132" textLength="1048" lengthAdjust="spacingAndGlyphs">Kotlin 4.54%</text></g><g transform="translate(15, 168)"><rect x="0.5" y="0.5" rx="2" width="15" height="15" fill="#000080" stroke-width="1" stroke="#000000"/><text transform="scale(0.095)" x="263" y="132" textLength="874" lengthAdjust="spacingAndGlyphs">Lua 3.47%</text></g><g transform="translate(15, 189)"><rect x="0.5" y="0.5" rx="2" width="15" height="15" fill="#f1e05a" stroke-width="1" stroke="#000000"/><text transform="scale(0.095)" x="263" y="132" textLength="1412" lengthAdjust="spacingAndGlyphs">JavaScript 2.41%</text></g><g transform="translate(15, 210)"><rect x="0.5" y="0.5" rx="2" width="15" height="15" fill="#DA3434" stroke-width="1" stroke="#000000"/><text transform="scale(0.095)" x="263" y="132" textLength="1134" lengthAdjust="spacingAndGlyphs">CMake 1.78%</text><rect x="228.5" y="0.5" rx="2" width="15" height="15" fill="#3178c6" stroke-width="1" stroke="#000000"/><text transform="scale(0.095)" x="2663" y="132" textLength="1462" lengthAdjust="spacingAndGlyphs">TypeScript 1.78%</text></g><g transform="translate(15, 231)"><rect x="0.5" y="0.5" rx="2" width="15" height="15" fill="#6866fb" stroke-width="1" stroke="#000000"/><text transform="scale(0.095)" x="263" y="132" textLength="1814" lengthAdjust="spacingAndGlyphs">Objective-C++ 1.58%</text><rect x="228.5" y="0.5" rx="2" width="15" height="15" fill="#89e051" stroke-width="1" stroke="#000000"/><text transform="scale(0.095)" x="2663" y="132" textLength="982" lengthAdjust="spacingAndGlyphs">Shell 1.49%</text></g><g transform="translate(15, 252)"><rect x="0.5" y="0.5" rx="2" width="15" height="15" fill="#427819" stroke-width="1" stroke="#000000"/><text transform="scale(0.095)" x="263" y="132" textLength="1272" lengthAdjust="spacingAndGlyphs">Makefile 0.25%</text><rect x="228.5" y="0.5" rx="2" width="15" height="15" fill="#8f14e9" stroke-width="1" stroke="#000000"/><text transform="scale(0.095)" x="2663" y="132" textLength="1034" lengthAdjust="spacingAndGlyphs">Metal 0.15%</text></g><g transform="translate(15, 273)"><rect x="0.5" y="0.5" rx="2" width="15" height="15" fill="#C1F12E" stroke-width="1" stroke="#000000"/><text transform="scale(0.095)" x="263" y="132" textLength="1304" lengthAdjust="spacingAndGlyphs">Batchfile 0.15%</text><rect x="228.5" y="0.5" rx="2" width="15" height="15" fill="#5686a5" stroke-width="1" stroke="#000000"/><text transform="scale(0.095)" x="2663" y="132" textLength="993" lengthAdjust="spacingAndGlyphs">GLSL 0.12%</text></g><g transform="translate(15, 294)"><rect x="0.5" y="0.5" rx="2" width="15" height="15" fill="#e34c26" stroke-width="1" stroke="#000000"/><text transform="scale(0.095)" x="263" y="132" textLength="1036" lengthAdjust="spacingAndGlyphs">HTML 0.05%</text><rect x="228.5" y="0.5" rx="2" width="15" height="15" fill="#701516" stroke-width="1" stroke="#000000"/><text transform="scale(0.095)" x="2663" y="132" textLength="999" lengthAdjust="spacingAndGlyphs">Ruby 0.03%</text></g></g></g></svg>