<svg width="457" height="396" viewBox="0 0 457 396" xmlns="http://www.w3.org/2000/svg" lang="en" xml:lang="en"><rect x="2" y="2" stroke-width="4" rx="0" width="453" height="392" stroke="#ffffff" fill="#ffffff"/><g font-weight="600" font-size="110pt" font-family="Verdana,Geneva,DejaVu Sans,sans-serif" text-rendering="geometricPrecision"><text x="895" y="301" lengthAdjust="spacingAndGlyphs" textLength="1917" transform="scale(0.123)" fill="#0969da">Rinc's GitHub Statistics</text><g transform="translate(0, 60)" fill="#24292f"><g transform="translate(15, 0)"><g transform="scale(0.095)"><text x="0" y="132" textLength="3652" lengthAdjust="spacingAndGlyphs">Language Distribution in Public Repositories</text></g></g><g transform="translate(243, 21)"><circle cx="92" cy="92" r="92" fill="#000000"/></g><g transform="translate(244, 22)"><path fill-rule="evenodd" fill="#f34b7d" d="M 0.0,91.00000000000001 A 91 91 0 0 1 173.90825759052734 53.48705792259473 L 91,91 Z"/><path fill-rule="evenodd" fill="#438eff" d="M 173.90825759052734,53.48705792259473 A 91 91 0 0 1 166.27065362562826 142.14028453939903 L 91,91 Z"/><path fill-rule="evenodd" fill="#555555" d="M 166.27065362562826,142.14028453939903 A 91 91 0 0 1 128.0153447441661 174.13160802889917 L 91,91 Z"/><path fill-rule="evenodd" fill="#b07219" d="M 128.0153447441661,174.13160802889917 A 91 91 0 0 1 91.93578851493486 181.99518833353397 L 91,91 Z"/><path fill-rule="evenodd" fill="#00ADD8" d="M 91.93578851493486,181.99518833353397 A 91 91 0 0 1 62.58316140570681 177.44931049063314 L 91,91 Z"/><path fill-rule="evenodd" fill="#A97BFF" d="M 62.58316140570681,177.44931049063314 A 91 91 0 0 1 37.50743046256912 164.61755907582864 L 91,91 Z"/><path fill-rule="evenodd" fill="#000080" d="M 37.50743046256912,164.61755907582864 A 91 91 0 0 1 21.589242855614003 149.8485071403096 L 91,91 Z"/><path fill-rule="evenodd" fill="#f1e05a" d="M 21.589242855614003,149.8485071403096 A 91 91 0 0 1 12.63777419535026 137.26404183532915 L 91,91 Z"/><path fill-rule="evenodd" fill="#3178c6" d="M 12.63777419535026,137.26404183532915 A 91 91 0 0 1 7.584312696698802 127.37063529439477 L 91,91 Z"/><path fill-rule="evenodd" fill="#6866fb" d="M 7.584312696698802,127.37063529439477 A 91 91 0 0 1 4.358467927843861 118.82525687553556 L 91,91 Z"/><path fill-rule="evenodd" fill="#DA3434" d="M 4.358467927843861,118.82525687553556 A 91 91 0 0 1 2.0581444683206627 110.24438449475278 L 91,91 Z"/><path fill-rule="evenodd" fill="#dea584" d="M 2.0581444683206627,110.24438449475278 A 91 91 0 0 1 0.6752461507519314 102.06520863213827 L 91,91 Z"/><path fill-rule="evenodd" fill="#89e051" d="M 0.6752461507519314,102.06520863213827 A 91 91 0 0 1 0.09693478000664868 95.1991348644258 L 91,91 Z"/><path fill-rule="evenodd" fill="#427819" d="M 0.09693478000664868,95.1991348644258 A 91 91 0 0 1 0.03758559677353901 93.61517990503486 L 91,91 Z"/><path fill-rule="evenodd" fill="#8f14e9" d="M 0.03758559677353901,93.61517990503486 A 91 91 0 0 1 0.015536366896697018 92.68148071547148 L 91,91 Z"/><path fill-rule="evenodd" fill="#5686a5" d="M 0.015536366896697018,92.68148071547148 A 91 91 0 0 1 0.00488389207711748 91.94278550351292 L 91,91 Z"/><path fill-rule="evenodd" fill="#C1F12E" d="M 0.00488389207711748,91.94278550351292 A 91 91 0 0 1 0.0013864929013323035 91.50233433655087 L 91,91 Z"/><path fill-rule="evenodd" fill="#e34c26" d="M 0.0013864929013323035,91.50233433655087 A 91 91 0 0 1 0.00014036840335052148 91.15983438211369 L 91,91 Z"/><path fill-rule="evenodd" fill="#701516" d="M 0.00014036840335052148,91.15983438211369 A 91 91 0 0 1 0.0 91.00000000000003 L 91,91 Z"/></g><g transform="translate(15, 21)"><rect x="0.5" y="0.5" rx="2" width="15" height="15" fill="#f34b7d" stroke-width="1" stroke="#000000"/><text transform="scale(0.095)" x="263" y="132" textLength="1074" lengthAdjust="spacingAndGlyphs">C++ 43.24%</text></g><g transform="translate(15, 42)"><rect x="0.5" y="0.5" rx="2" width="15" height="15" fill="#438eff" stroke-width="1" stroke="#000000"/><text transform="scale(0.095)" x="263" y="132" textLength="1642" lengthAdjust="spacingAndGlyphs">Objective-C 16.26%</text></g><g transform="translate(15, 63)"><rect x="0.5" y="0.5" rx="2" width="15" height="15" fill="#555555" stroke-width="1" stroke="#000000"/><text transform="scale(0.095)" x="263" y="132" textLength="693" lengthAdjust="spacingAndGlyphs">C 8.83%</text></g><g transform="translate(15, 84)"><rect x="0.5" y="0.5" rx="2" width="15" height="15" fill="#b07219" stroke-width="1" stroke="#000000"/><text transform="scale(0.095)" x="263" y="132" textLength="933" lengthAdjust="spacingAndGlyphs">Java 6.50%</text></g><g transform="translate(15, 105)"><rect x="0.5" y="0.5" rx="2" width="15" height="15" fill="#00ADD8" stroke-width="1" stroke="#000000"/><text transform="scale(0.095)" x="263" y="132" textLength="806" lengthAdjust="spacingAndGlyphs">Go 5.22%</text></g><g transform="translate(15, 126)"><rect x="0.5" y="0.5" rx="2" width="15" height="15" fill="#A97BFF" stroke-width="1" stroke="#000000"/><text transform="scale(0.095)" x="263" y="132" textLength="1048" lengthAdjust="spacingAndGlyphs">Kotlin 4.95%</text></g><g transform="translate(15, 147)"><rect x="0.5" y="0.5" rx="2" width="15" height="15" fill="#000080" stroke-width="1" stroke="#000000"/><text transform="scale(0.095)" x="263" y="132" textLength="874" lengthAdjust="spacingAndGlyphs">Lua 3.81%</text></g><g transform="translate(15, 168)"><rect x="0.5" y="0.5" rx="2" width="15" height="15" fill="#f1e05a" stroke-width="1" stroke="#000000"/><text transform="scale(0.095)" x="263" y="132" textLength="1412" lengthAdjust="spacingAndGlyphs">JavaScript 2.70%</text></g><g transform="translate(15, 189)"><rect x="0.5" y="0.5" rx="2" width="15" height="15" fill="#3178c6" stroke-width="1" stroke="#000000"/><text transform="scale(0.095)" x="263" y="132" textLength="1462" lengthAdjust="spacingAndGlyphs">TypeScript 1.94%</text></g><g transform="translate(15, 210)"><rect x="0.5" y="0.5" rx="2" width="15" height="15" fill="#6866fb" stroke-width="1" stroke="#000000"/><text transform="scale(0.095)" x="263" y="132" textLength="1814" lengthAdjust="spacingAndGlyphs">Objective-C++ 1.60%</text><rect x="228.5" y="0.5" rx="2" width="15" height="15" fill="#DA3434" stroke-width="1" stroke="#000000"/><text transform="scale(0.095)" x="2663" y="132" textLength="1134" lengthAdjust="spacingAndGlyphs">CMake 1.55%</text></g><g transform="translate(15, 231)"><rect x="0.5" y="0.5" rx="2" width="15" height="15" fill="#dea584" stroke-width="1" stroke="#000000"/><text transform="scale(0.095)" x="263" y="132" textLength="946" lengthAdjust="spacingAndGlyphs">Rust 1.45%</text><rect x="228.5" y="0.5" rx="2" width="15" height="15" fill="#89e051" stroke-width="1" stroke="#000000"/><text transform="scale(0.095)" x="2663" y="132" textLength="982" lengthAdjust="spacingAndGlyphs">Shell 1.21%</text></g><g transform="translate(15, 252)"><rect x="0.5" y="0.5" rx="2" width="15" height="15" fill="#427819" stroke-width="1" stroke="#000000"/><text transform="scale(0.095)" x="263" y="132" textLength="1272" lengthAdjust="spacingAndGlyphs">Makefile 0.28%</text><rect x="228.5" y="0.5" rx="2" width="15" height="15" fill="#8f14e9" stroke-width="1" stroke="#000000"/><text transform="scale(0.095)" x="2663" y="132" textLength="1034" lengthAdjust="spacingAndGlyphs">Metal 0.16%</text></g><g transform="translate(15, 273)"><rect x="0.5" y="0.5" rx="2" width="15" height="15" fill="#5686a5" stroke-width="1" stroke="#000000"/><text transform="scale(0.095)" x="263" y="132" textLength="993" lengthAdjust="spacingAndGlyphs">GLSL 0.13%</text><rect x="228.5" y="0.5" rx="2" width="15" height="15" fill="#C1F12E" stroke-width="1" stroke="#000000"/><text transform="scale(0.095)" x="2663" y="132" textLength="1304" lengthAdjust="spacingAndGlyphs">Batchfile 0.08%</text></g><g transform="translate(15, 294)"><rect x="0.5" y="0.5" rx="2" width="15" height="15" fill="#e34c26" stroke-width="1" stroke="#000000"/><text transform="scale(0.095)" x="263" y="132" textLength="1036" lengthAdjust="spacingAndGlyphs">HTML 0.06%</text><rect x="228.5" y="0.5" rx="2" width="15" height="15" fill="#701516" stroke-width="1" stroke="#000000"/><text transform="scale(0.095)" x="2663" y="132" textLength="999" lengthAdjust="spacingAndGlyphs">Ruby 0.03%</text></g></g></g></svg>