<svg width="457" height="396" viewBox="0 0 457 396" xmlns="http://www.w3.org/2000/svg" lang="en" xml:lang="en"><rect x="2" y="2" stroke-width="4" rx="0" width="453" height="392" stroke="#ffffff" fill="#ffffff"/><g font-weight="600" font-size="110pt" font-family="Verdana,Geneva,DejaVu Sans,sans-serif" text-rendering="geometricPrecision"><text x="895" y="301" lengthAdjust="spacingAndGlyphs" textLength="1917" transform="scale(0.123)" fill="#0969da">Rinc's GitHub Statistics</text><g transform="translate(0, 60)" fill="#24292f"><g transform="translate(15, 0)"><g transform="scale(0.095)"><text x="0" y="132" textLength="3652" lengthAdjust="spacingAndGlyphs">Language Distribution in Public Repositories</text></g></g><g transform="translate(243, 21)"><circle cx="92" cy="92" r="92" fill="#000000"/></g><g transform="translate(244, 22)"><path fill-rule="evenodd" fill="#f34b7d" d="M 0.0,91.00000000000001 A 91 91 0 0 1 169.23973832865437 44.529112917185515 L 91,91 Z"/><path fill-rule="evenodd" fill="#438eff" d="M 169.23973832865437,44.529112917185515 A 91 91 0 0 1 175.02726346585308 125.93449576622102 L 91,91 Z"/><path fill-rule="evenodd" fill="#555555" d="M 175.02726346585308,125.93449576622102 A 91 91 0 0 1 147.52270006474492 162.31748998240812 L 91,91 Z"/><path fill-rule="evenodd" fill="#dea584" d="M 147.52270006474492,162.31748998240812 A 91 91 0 0 1 110.09854367874777 179.9732860433454 L 91,91 Z"/><path fill-rule="evenodd" fill="#b07219" d="M 110.09854367874777,179.9732860433454 A 91 91 0 0 1 76.45718902115165 180.8304327543483 L 91,91 Z"/><path fill-rule="evenodd" fill="#00ADD8" d="M 76.45718902115165,180.8304327543483 A 91 91 0 0 1 50.6873139745641 172.5836217963791 L 91,91 Z"/><path fill-rule="evenodd" fill="#A97BFF" d="M 50.6873139745641,172.5836217963791 A 91 91 0 0 1 29.50445223781238 158.07680378065504 L 91,91 Z"/><path fill-rule="evenodd" fill="#000080" d="M 29.50445223781238,158.07680378065504 A 91 91 0 0 1 16.489683985855166 143.24186833826172 L 91,91 Z"/><path fill-rule="evenodd" fill="#f1e05a" d="M 16.489683985855166,143.24186833826172 A 91 91 0 0 1 9.486446215453967 131.4541783925211 L 91,91 Z"/><path fill-rule="evenodd" fill="#3178c6" d="M 9.486446215453967,131.4541783925211 A 91 91 0 0 1 5.500922047611354 122.1593913498221 L 91,91 Z"/><path fill-rule="evenodd" fill="#DA3434" d="M 5.500922047611354,122.1593913498221 A 91 91 0 0 1 2.5781943583881315 112.50777271306853 L 91,91 Z"/><path fill-rule="evenodd" fill="#6866fb" d="M 2.5781943583881315,112.50777271306853 A 91 91 0 0 1 0.8890220424676016 103.68903666702519 L 91,91 Z"/><path fill-rule="evenodd" fill="#89e051" d="M 0.8890220424676016,103.68903666702519 A 91 91 0 0 1 0.1001985969824375 95.26920424575435 L 91,91 Z"/><path fill-rule="evenodd" fill="#427819" d="M 0.1001985969824375,95.26920424575435 A 91 91 0 0 1 0.043938041005716855 93.82750648303288 L 91,91 Z"/><path fill-rule="evenodd" fill="#8f14e9" d="M 0.043938041005716855,93.82750648303288 A 91 91 0 0 1 0.021492623288580148 92.977674266826 L 91,91 Z"/><path fill-rule="evenodd" fill="#C1F12E" d="M 0.021492623288580148,92.977674266826 A 91 91 0 0 1 0.00701223922283134 92.12968064826126 L 91,91 Z"/><path fill-rule="evenodd" fill="#5686a5" d="M 0.00701223922283134,92.12968064826126 A 91 91 0 0 1 0.0011487627020869695 91.45724554904852 L 91,91 Z"/><path fill-rule="evenodd" fill="#e34c26" d="M 0.0011487627020869695,91.45724554904852 A 91 91 0 0 1 0.00011630057612421751 91.14548777037473 L 91,91 Z"/><path fill-rule="evenodd" fill="#701516" d="M 0.00011630057612421751,91.14548777037473 A 91 91 0 0 1 0.0 91.00000000000003 L 91,91 Z"/></g><g transform="translate(15, 21)"><rect x="0.5" y="0.5" rx="2" width="15" height="15" fill="#f34b7d" stroke-width="1" stroke="#000000"/><text transform="scale(0.095)" x="263" y="132" textLength="1074" lengthAdjust="spacingAndGlyphs">C++ 41.47%</text></g><g transform="translate(15, 42)"><rect x="0.5" y="0.5" rx="2" width="15" height="15" fill="#438eff" stroke-width="1" stroke="#000000"/><text transform="scale(0.095)" x="263" y="132" textLength="1642" lengthAdjust="spacingAndGlyphs">Objective-C 14.80%</text></g><g transform="translate(15, 63)"><rect x="0.5" y="0.5" rx="2" width="15" height="15" fill="#555555" stroke-width="1" stroke="#000000"/><text transform="scale(0.095)" x="263" y="132" textLength="693" lengthAdjust="spacingAndGlyphs">C 8.06%</text></g><g transform="translate(15, 84)"><rect x="0.5" y="0.5" rx="2" width="15" height="15" fill="#dea584" stroke-width="1" stroke="#000000"/><text transform="scale(0.095)" x="263" y="132" textLength="946" lengthAdjust="spacingAndGlyphs">Rust 7.30%</text></g><g transform="translate(15, 105)"><rect x="0.5" y="0.5" rx="2" width="15" height="15" fill="#b07219" stroke-width="1" stroke="#000000"/><text transform="scale(0.095)" x="263" y="132" textLength="933" lengthAdjust="spacingAndGlyphs">Java 5.92%</text></g><g transform="translate(15, 126)"><rect x="0.5" y="0.5" rx="2" width="15" height="15" fill="#00ADD8" stroke-width="1" stroke="#000000"/><text transform="scale(0.095)" x="263" y="132" textLength="806" lengthAdjust="spacingAndGlyphs">Go 4.75%</text></g><g transform="translate(15, 147)"><rect x="0.5" y="0.5" rx="2" width="15" height="15" fill="#A97BFF" stroke-width="1" stroke="#000000"/><text transform="scale(0.095)" x="263" y="132" textLength="1048" lengthAdjust="spacingAndGlyphs">Kotlin 4.51%</text></g><g transform="translate(15, 168)"><rect x="0.5" y="0.5" rx="2" width="15" height="15" fill="#000080" stroke-width="1" stroke="#000000"/><text transform="scale(0.095)" x="263" y="132" textLength="874" lengthAdjust="spacingAndGlyphs">Lua 3.46%</text></g><g transform="translate(15, 189)"><rect x="0.5" y="0.5" rx="2" width="15" height="15" fill="#f1e05a" stroke-width="1" stroke="#000000"/><text transform="scale(0.095)" x="263" y="132" textLength="1412" lengthAdjust="spacingAndGlyphs">JavaScript 2.40%</text></g><g transform="translate(15, 210)"><rect x="0.5" y="0.5" rx="2" width="15" height="15" fill="#3178c6" stroke-width="1" stroke="#000000"/><text transform="scale(0.095)" x="263" y="132" textLength="1462" lengthAdjust="spacingAndGlyphs">TypeScript 1.77%</text><rect x="228.5" y="0.5" rx="2" width="15" height="15" fill="#DA3434" stroke-width="1" stroke="#000000"/><text transform="scale(0.095)" x="2663" y="132" textLength="1134" lengthAdjust="spacingAndGlyphs">CMake 1.76%</text></g><g transform="translate(15, 231)"><rect x="0.5" y="0.5" rx="2" width="15" height="15" fill="#6866fb" stroke-width="1" stroke="#000000"/><text transform="scale(0.095)" x="263" y="132" textLength="1814" lengthAdjust="spacingAndGlyphs">Objective-C++ 1.57%</text><rect x="228.5" y="0.5" rx="2" width="15" height="15" fill="#89e051" stroke-width="1" stroke="#000000"/><text transform="scale(0.095)" x="2663" y="132" textLength="982" lengthAdjust="spacingAndGlyphs">Shell 1.48%</text></g><g transform="translate(15, 252)"><rect x="0.5" y="0.5" rx="2" width="15" height="15" fill="#427819" stroke-width="1" stroke="#000000"/><text transform="scale(0.095)" x="263" y="132" textLength="1272" lengthAdjust="spacingAndGlyphs">Makefile 0.25%</text><rect x="228.5" y="0.5" rx="2" width="15" height="15" fill="#8f14e9" stroke-width="1" stroke="#000000"/><text transform="scale(0.095)" x="2663" y="132" textLength="1034" lengthAdjust="spacingAndGlyphs">Metal 0.15%</text></g><g transform="translate(15, 273)"><rect x="0.5" y="0.5" rx="2" width="15" height="15" fill="#C1F12E" stroke-width="1" stroke="#000000"/><text transform="scale(0.095)" x="263" y="132" textLength="1304" lengthAdjust="spacingAndGlyphs">Batchfile 0.15%</text><rect x="228.5" y="0.5" rx="2" width="15" height="15" fill="#5686a5" stroke-width="1" stroke="#000000"/><text transform="scale(0.095)" x="2663" y="132" textLength="993" lengthAdjust="spacingAndGlyphs">GLSL 0.12%</text></g><g transform="translate(15, 294)"><rect x="0.5" y="0.5" rx="2" width="15" height="15" fill="#e34c26" stroke-width="1" stroke="#000000"/><text transform="scale(0.095)" x="263" y="132" textLength="1036" lengthAdjust="spacingAndGlyphs">HTML 0.05%</text><rect x="228.5" y="0.5" rx="2" width="15" height="15" fill="#701516" stroke-width="1" stroke="#000000"/><text transform="scale(0.095)" x="2663" y="132" textLength="999" lengthAdjust="spacingAndGlyphs">Ruby 0.03%</text></g></g></g></svg>