<svg width="457" height="354" viewBox="0 0 457 354" xmlns="http://www.w3.org/2000/svg" lang="en" xml:lang="en"><rect x="2" y="2" stroke-width="4" rx="0" width="453" height="350" stroke="#ffffff" fill="#ffffff"/><g font-weight="600" font-size="110pt" font-family="Verdana,Geneva,DejaVu Sans,sans-serif" text-rendering="geometricPrecision"><text x="1828" y="301" lengthAdjust="spacingAndGlyphs" textLength="52" transform="scale(0.123)" fill="#0969da">.</text><g transform="translate(0, 60)" fill="#24292f"><g transform="translate(15, 0)"><g transform="scale(0.095)"><text x="0" y="132" textLength="3652" lengthAdjust="spacingAndGlyphs">Language Distribution in Public Repositories</text></g></g><g transform="translate(243, 21)"><circle cx="92" cy="92" r="92" fill="#000000"/></g><g transform="translate(244, 22)"><path fill-rule="evenodd" fill="#f34b7d" d="M 0.0,91.00000000000001 A 91 91 0 0 1 181.99626561487423 90.17559467052854 L 91,91 Z"/><path fill-rule="evenodd" fill="#438eff" d="M 181.99626561487423,90.17559467052854 A 91 91 0 0 1 161.051520392927 149.084287812104 L 91,91 Z"/><path fill-rule="evenodd" fill="#3178c6" d="M 161.051520392927,149.084287812104 A 91 91 0 0 1 133.95840026700574 171.22204090210946 L 91,91 Z"/><path fill-rule="evenodd" fill="#555555" d="M 133.95840026700574,171.22204090210946 A 91 91 0 0 1 101.8362735788518 181.35250508383416 L 91,91 Z"/><path fill-rule="evenodd" fill="#dea584" d="M 101.8362735788518,181.35250508383416 A 91 91 0 0 1 70.59471009673972 179.6827161512541 L 91,91 Z"/><path fill-rule="evenodd" fill="#b07219" d="M 70.59471009673972,179.6827161512541 A 91 91 0 0 1 46.89597740959372 170.59795971848104 L 91,91 Z"/><path fill-rule="evenodd" fill="#00ADD8" d="M 46.89597740959372,170.59795971848104 A 91 91 0 0 1 30.281534347643543 158.78102926943208 L 91,91 Z"/><path fill-rule="evenodd" fill="#A97BFF" d="M 30.281534347643543,158.78102926943208 A 91 91 0 0 1 17.276152916879667 144.3459873960984 L 91,91 Z"/><path fill-rule="evenodd" fill="#000080" d="M 17.276152916879667,144.3459873960984 A 91 91 0 0 1 8.089112490245697 128.5071290869465 L 91,91 Z"/><path fill-rule="evenodd" fill="#f1e05a" d="M 8.089112490245697,128.5071290869465 A 91 91 0 0 1 3.0316448017590716 114.29309948710386 L 91,91 Z"/><path fill-rule="evenodd" fill="#DA3434" d="M 3.0316448017590716,114.29309948710386 A 91 91 0 0 1 0.413170878416139 99.66177751370734 L 91,91 Z"/><path fill-rule="evenodd" fill="#6866fb" d="M 0.413170878416139,99.66177751370734 A 91 91 0 0 1 0.010440545341936058 92.37843035632783 L 91,91 Z"/><path fill-rule="evenodd" fill="#8f14e9" d="M 0.010440545341936058,92.37843035632783 A 91 91 0 0 1 0.0030000264810610133 91.73891529920091 L 91,91 Z"/><path fill-rule="evenodd" fill="#959da5" d="M 0.0030000264810610133,91.73891529920091 A 91 91 0 0 1 0.0 91.00000000000003 L 91,91 Z"/></g><g transform="translate(15, 21)"><rect x="0.5" y="0.5" rx="2" width="15" height="15" fill="#f34b7d" stroke-width="1" stroke="#000000"/><text transform="scale(0.095)" x="263" y="132" textLength="1074" lengthAdjust="spacingAndGlyphs">C++ 49.86%</text></g><g transform="translate(15, 42)"><rect x="0.5" y="0.5" rx="2" width="15" height="15" fill="#438eff" stroke-width="1" stroke="#000000"/><text transform="scale(0.095)" x="263" y="132" textLength="1642" lengthAdjust="spacingAndGlyphs">Objective-C 11.16%</text></g><g transform="translate(15, 63)"><rect x="0.5" y="0.5" rx="2" width="15" height="15" fill="#3178c6" stroke-width="1" stroke="#000000"/><text transform="scale(0.095)" x="263" y="132" textLength="1462" lengthAdjust="spacingAndGlyphs">TypeScript 6.16%</text></g><g transform="translate(15, 84)"><rect x="0.5" y="0.5" rx="2" width="15" height="15" fill="#555555" stroke-width="1" stroke="#000000"/><text transform="scale(0.095)" x="263" y="132" textLength="693" lengthAdjust="spacingAndGlyphs">C 5.92%</text></g><g transform="translate(15, 105)"><rect x="0.5" y="0.5" rx="2" width="15" height="15" fill="#dea584" stroke-width="1" stroke="#000000"/><text transform="scale(0.095)" x="263" y="132" textLength="946" lengthAdjust="spacingAndGlyphs">Rust 5.50%</text></g><g transform="translate(15, 126)"><rect x="0.5" y="0.5" rx="2" width="15" height="15" fill="#b07219" stroke-width="1" stroke="#000000"/><text transform="scale(0.095)" x="263" y="132" textLength="933" lengthAdjust="spacingAndGlyphs">Java 4.45%</text></g><g transform="translate(15, 147)"><rect x="0.5" y="0.5" rx="2" width="15" height="15" fill="#00ADD8" stroke-width="1" stroke="#000000"/><text transform="scale(0.095)" x="263" y="132" textLength="806" lengthAdjust="spacingAndGlyphs">Go 3.57%</text></g><g transform="translate(15, 168)"><rect x="0.5" y="0.5" rx="2" width="15" height="15" fill="#A97BFF" stroke-width="1" stroke="#000000"/><text transform="scale(0.095)" x="263" y="132" textLength="1048" lengthAdjust="spacingAndGlyphs">Kotlin 3.40%</text></g><g transform="translate(15, 189)"><rect x="0.5" y="0.5" rx="2" width="15" height="15" fill="#000080" stroke-width="1" stroke="#000000"/><text transform="scale(0.095)" x="263" y="132" textLength="874" lengthAdjust="spacingAndGlyphs">Lua 3.21%</text></g><g transform="translate(15, 210)"><rect x="0.5" y="0.5" rx="2" width="15" height="15" fill="#f1e05a" stroke-width="1" stroke="#000000"/><text transform="scale(0.095)" x="263" y="132" textLength="1412" lengthAdjust="spacingAndGlyphs">JavaScript 2.64%</text><rect x="228.5" y="0.5" rx="2" width="15" height="15" fill="#DA3434" stroke-width="1" stroke="#000000"/><text transform="scale(0.095)" x="2663" y="132" textLength="1134" lengthAdjust="spacingAndGlyphs">CMake 2.60%</text></g><g transform="translate(15, 231)"><rect x="0.5" y="0.5" rx="2" width="15" height="15" fill="#6866fb" stroke-width="1" stroke="#000000"/><text transform="scale(0.095)" x="263" y="132" textLength="1814" lengthAdjust="spacingAndGlyphs">Objective-C++ 1.28%</text><rect x="228.5" y="0.5" rx="2" width="15" height="15" fill="#8f14e9" stroke-width="1" stroke="#000000"/><text transform="scale(0.095)" x="2663" y="132" textLength="1034" lengthAdjust="spacingAndGlyphs">Metal 0.11%</text></g><g transform="translate(15, 252)"><rect x="0.5" y="0.5" rx="2" width="15" height="15" fill="#959da5" stroke-width="1" stroke="#000000"/><text transform="scale(0.095)" x="263" y="132" textLength="1047" lengthAdjust="spacingAndGlyphs">Other 0.13%</text></g></g></g></svg>