<svg width="457" height="354" viewBox="0 0 457 354" xmlns="http://www.w3.org/2000/svg" lang="en" xml:lang="en"><rect x="2" y="2" stroke-width="4" rx="0" width="453" height="350" stroke="#ffffff" fill="#ffffff"/><g font-weight="600" font-size="110pt" font-family="Verdana,Geneva,DejaVu Sans,sans-serif" text-rendering="geometricPrecision"><text x="1796" y="301" lengthAdjust="spacingAndGlyphs" textLength="116" transform="scale(0.123)" fill="#0969da">📊</text><g transform="translate(0, 60)" fill="#24292f"><g transform="translate(15, 0)"><g transform="scale(0.095)"><text x="0" y="132" textLength="3652" lengthAdjust="spacingAndGlyphs">Language Distribution in Public Repositories</text></g></g><g transform="translate(243, 21)"><circle cx="92" cy="92" r="92" fill="#000000"/></g><g transform="translate(244, 22)"><path fill-rule="evenodd" fill="#f34b7d" d="M 0.0,91.00000000000001 A 91 91 0 0 1 180.529771562449 74.70828419178332 L 91,91 Z"/><path fill-rule="evenodd" fill="#438eff" d="M 180.529771562449,74.70828419178332 A 91 91 0 0 1 162.80914534204337 146.8967498629866 L 91,91 Z"/><path fill-rule="evenodd" fill="#555555" d="M 162.80914534204337,146.8967498629866 A 91 91 0 0 1 131.8118513946352 172.3350649212393 L 91,91 Z"/><path fill-rule="evenodd" fill="#dea584" d="M 131.8118513946352,172.3350649212393 A 91 91 0 0 1 95.64034520045617 181.88161088152322 L 91,91 Z"/><path fill-rule="evenodd" fill="#b07219" d="M 95.64034520045617,181.88161088152322 A 91 91 0 0 1 65.44086482452126 178.3368800054227 L 91,91 Z"/><path fill-rule="evenodd" fill="#3178c6" d="M 65.44086482452126,178.3368800054227 A 91 91 0 0 1 42.329209080874 167.89053330096442 L 91,91 Z"/><path fill-rule="evenodd" fill="#00ADD8" d="M 42.329209080874,167.89053330096442 A 91 91 0 0 1 23.6219879414393 152.1653782056193 L 91,91 Z"/><path fill-rule="evenodd" fill="#A97BFF" d="M 23.6219879414393,152.1653782056193 A 91 91 0 0 1 10.295139410092503 133.04432752659503 L 91,91 Z"/><path fill-rule="evenodd" fill="#000080" d="M 10.295139410092503,133.04432752659503 A 91 91 0 0 1 4.850985261296273 120.31462535238354 L 91,91 Z"/><path fill-rule="evenodd" fill="#f1e05a" d="M 4.850985261296273,120.31462535238354 A 91 91 0 0 1 1.4744566597440638 107.3149345580041 L 91,91 Z"/><path fill-rule="evenodd" fill="#6866fb" d="M 1.4744566597440638,107.3149345580041 A 91 91 0 0 1 0.3210261260530558 98.63699529710776 L 91,91 Z"/><path fill-rule="evenodd" fill="#DA3434" d="M 0.3210261260530558,98.63699529710776 A 91 91 0 0 1 0.015028398684492572 92.65376621921341 L 91,91 Z"/><path fill-rule="evenodd" fill="#8f14e9" d="M 0.015028398684492572,92.65376621921341 A 91 91 0 0 1 0.004318343778336953 91.88652124597431 L 91,91 Z"/><path fill-rule="evenodd" fill="#959da5" d="M 0.004318343778336953,91.88652124597431 A 91 91 0 0 1 0.0 91.00000000000003 L 91,91 Z"/></g><g transform="translate(15, 21)"><rect x="0.5" y="0.5" rx="2" width="15" height="15" fill="#f34b7d" stroke-width="1" stroke="#000000"/><text transform="scale(0.095)" x="263" y="132" textLength="1074" lengthAdjust="spacingAndGlyphs">C++ 47.14%</text></g><g transform="translate(15, 42)"><rect x="0.5" y="0.5" rx="2" width="15" height="15" fill="#438eff" stroke-width="1" stroke="#000000"/><text transform="scale(0.095)" x="263" y="132" textLength="1642" lengthAdjust="spacingAndGlyphs">Objective-C 13.39%</text></g><g transform="translate(15, 63)"><rect x="0.5" y="0.5" rx="2" width="15" height="15" fill="#555555" stroke-width="1" stroke="#000000"/><text transform="scale(0.095)" x="263" y="132" textLength="693" lengthAdjust="spacingAndGlyphs">C 7.07%</text></g><g transform="translate(15, 84)"><rect x="0.5" y="0.5" rx="2" width="15" height="15" fill="#dea584" stroke-width="1" stroke="#000000"/><text transform="scale(0.095)" x="263" y="132" textLength="946" lengthAdjust="spacingAndGlyphs">Rust 6.59%</text></g><g transform="translate(15, 105)"><rect x="0.5" y="0.5" rx="2" width="15" height="15" fill="#b07219" stroke-width="1" stroke="#000000"/><text transform="scale(0.095)" x="263" y="132" textLength="933" lengthAdjust="spacingAndGlyphs">Java 5.34%</text></g><g transform="translate(15, 126)"><rect x="0.5" y="0.5" rx="2" width="15" height="15" fill="#3178c6" stroke-width="1" stroke="#000000"/><text transform="scale(0.095)" x="263" y="132" textLength="1462" lengthAdjust="spacingAndGlyphs">TypeScript 4.45%</text></g><g transform="translate(15, 147)"><rect x="0.5" y="0.5" rx="2" width="15" height="15" fill="#00ADD8" stroke-width="1" stroke="#000000"/><text transform="scale(0.095)" x="263" y="132" textLength="806" lengthAdjust="spacingAndGlyphs">Go 4.29%</text></g><g transform="translate(15, 168)"><rect x="0.5" y="0.5" rx="2" width="15" height="15" fill="#A97BFF" stroke-width="1" stroke="#000000"/><text transform="scale(0.095)" x="263" y="132" textLength="1048" lengthAdjust="spacingAndGlyphs">Kotlin 4.09%</text></g><g transform="translate(15, 189)"><rect x="0.5" y="0.5" rx="2" width="15" height="15" fill="#000080" stroke-width="1" stroke="#000000"/><text transform="scale(0.095)" x="263" y="132" textLength="874" lengthAdjust="spacingAndGlyphs">Lua 2.42%</text></g><g transform="translate(15, 210)"><rect x="0.5" y="0.5" rx="2" width="15" height="15" fill="#f1e05a" stroke-width="1" stroke="#000000"/><text transform="scale(0.095)" x="263" y="132" textLength="1412" lengthAdjust="spacingAndGlyphs">JavaScript 2.35%</text><rect x="228.5" y="0.5" rx="2" width="15" height="15" fill="#6866fb" stroke-width="1" stroke="#000000"/><text transform="scale(0.095)" x="2663" y="132" textLength="1814" lengthAdjust="spacingAndGlyphs">Objective-C++ 1.53%</text></g><g transform="translate(15, 231)"><rect x="0.5" y="0.5" rx="2" width="15" height="15" fill="#DA3434" stroke-width="1" stroke="#000000"/><text transform="scale(0.095)" x="263" y="132" textLength="1134" lengthAdjust="spacingAndGlyphs">CMake 1.05%</text><rect x="228.5" y="0.5" rx="2" width="15" height="15" fill="#8f14e9" stroke-width="1" stroke="#000000"/><text transform="scale(0.095)" x="2663" y="132" textLength="1034" lengthAdjust="spacingAndGlyphs">Metal 0.13%</text></g><g transform="translate(15, 252)"><rect x="0.5" y="0.5" rx="2" width="15" height="15" fill="#959da5" stroke-width="1" stroke="#000000"/><text transform="scale(0.095)" x="263" y="132" textLength="1047" lengthAdjust="spacingAndGlyphs">Other 0.16%</text></g></g></g></svg>