<svg width="457" height="375" viewBox="0 0 457 375" xmlns="http://www.w3.org/2000/svg" lang="en" xml:lang="en"><rect x="2" y="2" stroke-width="4" rx="0" width="453" height="371" stroke="#ffffff" fill="#ffffff"/><g font-weight="600" font-size="110pt" font-family="Verdana,Geneva,DejaVu Sans,sans-serif" text-rendering="geometricPrecision"><text x="895" y="301" lengthAdjust="spacingAndGlyphs" textLength="1917" transform="scale(0.123)" fill="#0969da">Rinc's GitHub Statistics</text><g transform="translate(0, 60)" fill="#24292f"><g transform="translate(15, 0)"><g transform="scale(0.095)"><text x="0" y="132" textLength="3652" lengthAdjust="spacingAndGlyphs">Language Distribution in Public Repositories</text></g></g><g transform="translate(243, 21)"><circle cx="92" cy="92" r="92" fill="#000000"/></g><g transform="translate(244, 22)"><path fill-rule="evenodd" fill="#f34b7d" d="M 0.0,91.00000000000001 A 91 91 0 0 1 178.9432771653364 67.61239641560468 L 91,91 Z"/><path fill-rule="evenodd" fill="#438eff" d="M 178.9432771653364,67.61239641560468 A 91 91 0 0 1 162.52447849224455 147.26054546849366 L 91,91 Z"/><path fill-rule="evenodd" fill="#555555" d="M 162.52447849224455,147.26054546849366 A 91 91 0 0 1 128.41737057263143 173.95143386000254 L 91,91 Z"/><path fill-rule="evenodd" fill="#dea584" d="M 128.41737057263143,173.95143386000254 A 91 91 0 0 1 88.07672868021753 181.95303450018002 L 91,91 Z"/><path fill-rule="evenodd" fill="#b07219" d="M 88.07672868021753,181.95303450018002 A 91 91 0 0 1 55.41568811854126 174.7541446611633 L 91,91 Z"/><path fill-rule="evenodd" fill="#00ADD8" d="M 55.41568811854126,174.7541446611633 A 91 91 0 0 1 32.492023511217795 160.6980393353221 L 91,91 Z"/><path fill-rule="evenodd" fill="#A97BFF" d="M 32.492023511217795,160.6980393353221 A 91 91 0 0 1 15.462133963334338 141.7447612530274 L 91,91 Z"/><path fill-rule="evenodd" fill="#000080" d="M 15.462133963334338,141.7447612530274 A 91 91 0 0 1 7.938862439814201 128.17320845996335 L 91,91 Z"/><path fill-rule="evenodd" fill="#f1e05a" d="M 7.938862439814201,128.17320845996335 A 91 91 0 0 1 2.976339918258745 114.08322477068731 L 91,91 Z"/><path fill-rule="evenodd" fill="#3178c6" d="M 2.976339918258745,114.08322477068731 A 91 91 0 0 1 0.9912877985375559 104.39521287006318 L 91,91 Z"/><path fill-rule="evenodd" fill="#6866fb" d="M 0.9912877985375559,104.39521287006318 A 91 91 0 0 1 0.11412530978890345 95.55607087250043 L 91,91 Z"/><path fill-rule="evenodd" fill="#427819" d="M 0.11412530978890345,95.55607087250043 A 91 91 0 0 1 0.05362303544553981 94.12354238344169 L 91,91 Z"/><path fill-rule="evenodd" fill="#8f14e9" d="M 0.05362303544553981,94.12354238344169 A 91 91 0 0 1 0.02854414433444674 93.27908303944665 L 91,91 Z"/><path fill-rule="evenodd" fill="#5686a5" d="M 0.02854414433444674,93.27908303944665 A 91 91 0 0 1 0.014260502718414614 92.61096496945613 L 91,91 Z"/><path fill-rule="evenodd" fill="#DA3434" d="M 0.014260502718414614,92.61096496945613 A 91 91 0 0 1 0.005444154612646912 91.99539263644178 L 91,91 Z"/><path fill-rule="evenodd" fill="#959da5" d="M 0.005444154612646912,91.99539263644178 A 91 91 0 0 1 0.0 91.00000000000003 L 91,91 Z"/></g><g transform="translate(15, 21)"><rect x="0.5" y="0.5" rx="2" width="15" height="15" fill="#f34b7d" stroke-width="1" stroke="#000000"/><text transform="scale(0.095)" x="263" y="132" textLength="1074" lengthAdjust="spacingAndGlyphs">C++ 45.86%</text></g><g transform="translate(15, 42)"><rect x="0.5" y="0.5" rx="2" width="15" height="15" fill="#438eff" stroke-width="1" stroke="#000000"/><text transform="scale(0.095)" x="263" y="132" textLength="1642" lengthAdjust="spacingAndGlyphs">Objective-C 14.74%</text></g><g transform="translate(15, 63)"><rect x="0.5" y="0.5" rx="2" width="15" height="15" fill="#555555" stroke-width="1" stroke="#000000"/><text transform="scale(0.095)" x="263" y="132" textLength="693" lengthAdjust="spacingAndGlyphs">C 7.65%</text></g><g transform="translate(15, 84)"><rect x="0.5" y="0.5" rx="2" width="15" height="15" fill="#dea584" stroke-width="1" stroke="#000000"/><text transform="scale(0.095)" x="263" y="132" textLength="946" lengthAdjust="spacingAndGlyphs">Rust 7.26%</text></g><g transform="translate(15, 105)"><rect x="0.5" y="0.5" rx="2" width="15" height="15" fill="#b07219" stroke-width="1" stroke="#000000"/><text transform="scale(0.095)" x="263" y="132" textLength="933" lengthAdjust="spacingAndGlyphs">Java 5.88%</text></g><g transform="translate(15, 126)"><rect x="0.5" y="0.5" rx="2" width="15" height="15" fill="#00ADD8" stroke-width="1" stroke="#000000"/><text transform="scale(0.095)" x="263" y="132" textLength="806" lengthAdjust="spacingAndGlyphs">Go 4.72%</text></g><g transform="translate(15, 147)"><rect x="0.5" y="0.5" rx="2" width="15" height="15" fill="#A97BFF" stroke-width="1" stroke="#000000"/><text transform="scale(0.095)" x="263" y="132" textLength="1048" lengthAdjust="spacingAndGlyphs">Kotlin 4.47%</text></g><g transform="translate(15, 168)"><rect x="0.5" y="0.5" rx="2" width="15" height="15" fill="#000080" stroke-width="1" stroke="#000000"/><text transform="scale(0.095)" x="263" y="132" textLength="874" lengthAdjust="spacingAndGlyphs">Lua 2.72%</text></g><g transform="translate(15, 189)"><rect x="0.5" y="0.5" rx="2" width="15" height="15" fill="#f1e05a" stroke-width="1" stroke="#000000"/><text transform="scale(0.095)" x="263" y="132" textLength="1412" lengthAdjust="spacingAndGlyphs">JavaScript 2.62%</text></g><g transform="translate(15, 210)"><rect x="0.5" y="0.5" rx="2" width="15" height="15" fill="#3178c6" stroke-width="1" stroke="#000000"/><text transform="scale(0.095)" x="263" y="132" textLength="1462" lengthAdjust="spacingAndGlyphs">TypeScript 1.73%</text><rect x="228.5" y="0.5" rx="2" width="15" height="15" fill="#6866fb" stroke-width="1" stroke="#000000"/><text transform="scale(0.095)" x="2663" y="132" textLength="1814" lengthAdjust="spacingAndGlyphs">Objective-C++ 1.55%</text></g><g transform="translate(15, 231)"><rect x="0.5" y="0.5" rx="2" width="15" height="15" fill="#427819" stroke-width="1" stroke="#000000"/><text transform="scale(0.095)" x="263" y="132" textLength="1272" lengthAdjust="spacingAndGlyphs">Makefile 0.25%</text><rect x="228.5" y="0.5" rx="2" width="15" height="15" fill="#8f14e9" stroke-width="1" stroke="#000000"/><text transform="scale(0.095)" x="2663" y="132" textLength="1034" lengthAdjust="spacingAndGlyphs">Metal 0.15%</text></g><g transform="translate(15, 252)"><rect x="0.5" y="0.5" rx="2" width="15" height="15" fill="#5686a5" stroke-width="1" stroke="#000000"/><text transform="scale(0.095)" x="263" y="132" textLength="993" lengthAdjust="spacingAndGlyphs">GLSL 0.12%</text><rect x="228.5" y="0.5" rx="2" width="15" height="15" fill="#DA3434" stroke-width="1" stroke="#000000"/><text transform="scale(0.095)" x="2663" y="132" textLength="1134" lengthAdjust="spacingAndGlyphs">CMake 0.11%</text></g><g transform="translate(15, 273)"><rect x="0.5" y="0.5" rx="2" width="15" height="15" fill="#959da5" stroke-width="1" stroke="#000000"/><text transform="scale(0.095)" x="263" y="132" textLength="1047" lengthAdjust="spacingAndGlyphs">Other 0.17%</text></g></g></g></svg>