<svg width="457" height="396" viewBox="0 0 457 396" xmlns="http://www.w3.org/2000/svg" lang="en" xml:lang="en"><rect x="2" y="2" stroke-width="4" rx="0" width="453" height="392" stroke="#ffffff" fill="#ffffff"/><g font-weight="600" font-size="110pt" font-family="Verdana,Geneva,DejaVu Sans,sans-serif" text-rendering="geometricPrecision"><text x="895" y="301" lengthAdjust="spacingAndGlyphs" textLength="1917" transform="scale(0.123)" fill="#0969da">Rinc's GitHub Statistics</text><g transform="translate(0, 60)" fill="#24292f"><g transform="translate(15, 0)"><g transform="scale(0.095)"><text x="0" y="132" textLength="3652" lengthAdjust="spacingAndGlyphs">Language Distribution in Public Repositories</text></g></g><g transform="translate(243, 21)"><circle cx="92" cy="92" r="92" fill="#000000"/></g><g transform="translate(244, 22)"><path fill-rule="evenodd" fill="#555555" d="M 0.0,91.00000000000001 A 91 91 0 0 1 178.74987935558997 66.89691569364194 L 91,91 Z"/><path fill-rule="evenodd" fill="#f34b7d" d="M 178.74987935558997,66.89691569364194 A 91 91 0 0 1 128.993156716701 173.68929823562536 L 91,91 Z"/><path fill-rule="evenodd" fill="#427819" d="M 128.993156716701,173.68929823562536 A 91 91 0 0 1 79.50773773291728 181.27141246255422 L 91,91 Z"/><path fill-rule="evenodd" fill="#438eff" d="M 79.50773773291728,181.27141246255422 A 91 91 0 0 1 37.22880465102696 164.41429391298794 L 91,91 Z"/><path fill-rule="evenodd" fill="#b07219" d="M 37.22880465102696,164.41429391298794 A 91 91 0 0 1 23.106118646669145 151.5922509466337 L 91,91 Z"/><path fill-rule="evenodd" fill="#00ADD8" d="M 23.106118646669145,151.5922509466337 A 91 91 0 0 1 14.210647857826018 139.83027132409978 L 91,91 Z"/><path fill-rule="evenodd" fill="#A97BFF" d="M 14.210647857826018,139.83027132409978 A 91 91 0 0 1 7.637198513975363 127.49168848384039 L 91,91 Z"/><path fill-rule="evenodd" fill="#000080" d="M 7.637198513975363,127.49168848384039 A 91 91 0 0 1 3.9115341181452266 117.39316408362241 L 91,91 Z"/><path fill-rule="evenodd" fill="#f1e05a" d="M 3.9115341181452266,117.39316408362241 A 91 91 0 0 1 2.0027759760494774 109.98668259677726 L 91,91 Z"/><path fill-rule="evenodd" fill="#3178c6" d="M 2.0027759760494774,109.98668259677726 A 91 91 0 0 1 1.0183655055639491 104.57591447047729 L 91,91 Z"/><path fill-rule="evenodd" fill="#6866fb" d="M 1.0183655055639491,104.57591447047729 A 91 91 0 0 1 0.4564250414109807 100.10280361857659 L 91,91 Z"/><path fill-rule="evenodd" fill="#DA3434" d="M 0.4564250414109807,100.10280361857659 A 91 91 0 0 1 0.12157628086478667 95.70235072334282 L 91,91 Z"/><path fill-rule="evenodd" fill="#89e051" d="M 0.12157628086478667,95.70235072334282 A 91 91 0 0 1 0.0092028361874128 92.29415280933704 L 91,91 Z"/><path fill-rule="evenodd" fill="#8f14e9" d="M 0.0092028361874128,92.29415280933704 A 91 91 0 0 1 0.0038039645795180377 91.83204992838542 L 91,91 Z"/><path fill-rule="evenodd" fill="#5686a5" d="M 0.0038039645795180377,91.83204992838542 A 91 91 0 0 1 0.0011957672517013407 91.4665063879004 L 91,91 Z"/><path fill-rule="evenodd" fill="#C1F12E" d="M 0.0011957672517013407,91.4665063879004 A 91 91 0 0 1 0.0003394658932194261 91.248561214451 L 91,91 Z"/><path fill-rule="evenodd" fill="#e34c26" d="M 0.0003394658932194261,91.248561214451 A 91 91 0 0 1 3.4367434025739385e-05 91.0790877475302 L 91,91 Z"/><path fill-rule="evenodd" fill="#701516" d="M 3.4367434025739385e-05,91.0790877475302 A 91 91 0 0 1 0.0 91.00000000000003 L 91,91 Z"/></g><g transform="translate(15, 21)"><rect x="0.5" y="0.5" rx="2" width="15" height="15" fill="#555555" stroke-width="1" stroke="#000000"/><text transform="scale(0.095)" x="263" y="132" textLength="798" lengthAdjust="spacingAndGlyphs">C 45.73%</text></g><g transform="translate(15, 42)"><rect x="0.5" y="0.5" rx="2" width="15" height="15" fill="#f34b7d" stroke-width="1" stroke="#000000"/><text transform="scale(0.095)" x="263" y="132" textLength="1074" lengthAdjust="spacingAndGlyphs">C++ 22.41%</text></g><g transform="translate(15, 63)"><rect x="0.5" y="0.5" rx="2" width="15" height="15" fill="#427819" stroke-width="1" stroke="#000000"/><text transform="scale(0.095)" x="263" y="132" textLength="1272" lengthAdjust="spacingAndGlyphs">Makefile 8.87%</text></g><g transform="translate(15, 84)"><rect x="0.5" y="0.5" rx="2" width="15" height="15" fill="#438eff" stroke-width="1" stroke="#000000"/><text transform="scale(0.095)" x="263" y="132" textLength="1538" lengthAdjust="spacingAndGlyphs">Objective-C 8.05%</text></g><g transform="translate(15, 105)"><rect x="0.5" y="0.5" rx="2" width="15" height="15" fill="#b07219" stroke-width="1" stroke="#000000"/><text transform="scale(0.095)" x="263" y="132" textLength="933" lengthAdjust="spacingAndGlyphs">Java 3.34%</text></g><g transform="translate(15, 126)"><rect x="0.5" y="0.5" rx="2" width="15" height="15" fill="#00ADD8" stroke-width="1" stroke="#000000"/><text transform="scale(0.095)" x="263" y="132" textLength="806" lengthAdjust="spacingAndGlyphs">Go 2.58%</text></g><g transform="translate(15, 147)"><rect x="0.5" y="0.5" rx="2" width="15" height="15" fill="#A97BFF" stroke-width="1" stroke="#000000"/><text transform="scale(0.095)" x="263" y="132" textLength="1048" lengthAdjust="spacingAndGlyphs">Kotlin 2.45%</text></g><g transform="translate(15, 168)"><rect x="0.5" y="0.5" rx="2" width="15" height="15" fill="#000080" stroke-width="1" stroke="#000000"/><text transform="scale(0.095)" x="263" y="132" textLength="874" lengthAdjust="spacingAndGlyphs">Lua 1.88%</text></g><g transform="translate(15, 189)"><rect x="0.5" y="0.5" rx="2" width="15" height="15" fill="#f1e05a" stroke-width="1" stroke="#000000"/><text transform="scale(0.095)" x="263" y="132" textLength="1412" lengthAdjust="spacingAndGlyphs">JavaScript 1.34%</text></g><g transform="translate(15, 210)"><rect x="0.5" y="0.5" rx="2" width="15" height="15" fill="#3178c6" stroke-width="1" stroke="#000000"/><text transform="scale(0.095)" x="263" y="132" textLength="1462" lengthAdjust="spacingAndGlyphs">TypeScript 0.96%</text><rect x="228.5" y="0.5" rx="2" width="15" height="15" fill="#6866fb" stroke-width="1" stroke="#000000"/><text transform="scale(0.095)" x="2663" y="132" textLength="1814" lengthAdjust="spacingAndGlyphs">Objective-C++ 0.79%</text></g><g transform="translate(15, 231)"><rect x="0.5" y="0.5" rx="2" width="15" height="15" fill="#DA3434" stroke-width="1" stroke="#000000"/><text transform="scale(0.095)" x="263" y="132" textLength="1134" lengthAdjust="spacingAndGlyphs">CMake 0.77%</text><rect x="228.5" y="0.5" rx="2" width="15" height="15" fill="#89e051" stroke-width="1" stroke="#000000"/><text transform="scale(0.095)" x="2663" y="132" textLength="982" lengthAdjust="spacingAndGlyphs">Shell 0.60%</text></g><g transform="translate(15, 252)"><rect x="0.5" y="0.5" rx="2" width="15" height="15" fill="#8f14e9" stroke-width="1" stroke="#000000"/><text transform="scale(0.095)" x="263" y="132" textLength="1034" lengthAdjust="spacingAndGlyphs">Metal 0.08%</text><rect x="228.5" y="0.5" rx="2" width="15" height="15" fill="#5686a5" stroke-width="1" stroke="#000000"/><text transform="scale(0.095)" x="2663" y="132" textLength="993" lengthAdjust="spacingAndGlyphs">GLSL 0.06%</text></g><g transform="translate(15, 273)"><rect x="0.5" y="0.5" rx="2" width="15" height="15" fill="#C1F12E" stroke-width="1" stroke="#000000"/><text transform="scale(0.095)" x="263" y="132" textLength="1304" lengthAdjust="spacingAndGlyphs">Batchfile 0.04%</text><rect x="228.5" y="0.5" rx="2" width="15" height="15" fill="#e34c26" stroke-width="1" stroke="#000000"/><text transform="scale(0.095)" x="2663" y="132" textLength="1036" lengthAdjust="spacingAndGlyphs">HTML 0.03%</text></g><g transform="translate(15, 294)"><rect x="0.5" y="0.5" rx="2" width="15" height="15" fill="#701516" stroke-width="1" stroke="#000000"/><text transform="scale(0.095)" x="263" y="132" textLength="999" lengthAdjust="spacingAndGlyphs">Ruby 0.01%</text></g></g></g></svg>