<svg width="457" height="396" viewBox="0 0 457 396" xmlns="http://www.w3.org/2000/svg" lang="en" xml:lang="en"><rect x="2" y="2" stroke-width="4" rx="0" width="453" height="392" stroke="#ffffff" fill="#ffffff"/><g font-weight="600" font-size="110pt" font-family="Verdana,Geneva,DejaVu Sans,sans-serif" text-rendering="geometricPrecision"><text x="895" y="301" lengthAdjust="spacingAndGlyphs" textLength="1917" transform="scale(0.123)" fill="#0969da">Rinc's GitHub Statistics</text><g transform="translate(0, 60)" fill="#24292f"><g transform="translate(15, 0)"><g transform="scale(0.095)"><text x="0" y="132" textLength="3652" lengthAdjust="spacingAndGlyphs">Language Distribution in Public Repositories</text></g></g><g transform="translate(243, 21)"><circle cx="92" cy="92" r="92" fill="#000000"/></g><g transform="translate(244, 22)"><path fill-rule="evenodd" fill="#f34b7d" d="M 0.0,91.00000000000001 A 91 91 0 0 1 176.59711205520347 60.110933846926606 L 91,91 Z"/><path fill-rule="evenodd" fill="#438eff" d="M 176.59711205520347,60.110933846926606 A 91 91 0 0 1 167.15933452459245 140.80718587484358 L 91,91 Z"/><path fill-rule="evenodd" fill="#555555" d="M 167.15933452459245,140.80718587484358 A 91 91 0 0 1 135.5623884111167 170.34225569705444 L 91,91 Z"/><path fill-rule="evenodd" fill="#dea584" d="M 135.5623884111167,170.34225569705444 A 91 91 0 0 1 96.12926138258769 181.85532828441652 L 91,91 Z"/><path fill-rule="evenodd" fill="#b07219" d="M 96.12926138258769,181.85532828441652 A 91 91 0 0 1 62.9969503339151 177.58423187508672 L 91,91 Z"/><path fill-rule="evenodd" fill="#00ADD8" d="M 62.9969503339151,177.58423187508672 A 91 91 0 0 1 38.94099310045955 165.63819264045452 L 91,91 Z"/><path fill-rule="evenodd" fill="#A97BFF" d="M 38.94099310045955,165.63819264045452 A 91 91 0 0 1 20.25757467895653 148.2408006556214 L 91,91 Z"/><path fill-rule="evenodd" fill="#000080" d="M 20.25757467895653,148.2408006556214 A 91 91 0 0 1 11.547673192436918 135.36584006715293 L 91,91 Z"/><path fill-rule="evenodd" fill="#f1e05a" d="M 11.547673192436918,135.36584006715293 A 91 91 0 0 1 5.594254935438059 122.41430740868009 L 91,91 Z"/><path fill-rule="evenodd" fill="#3178c6" d="M 5.594254935438059,122.41430740868009 A 91 91 0 0 1 2.6694065115719496 112.87935680000834 L 91,91 Z"/><path fill-rule="evenodd" fill="#6866fb" d="M 2.6694065115719496,112.87935680000834 A 91 91 0 0 1 0.9514768369584914 104.1249181389895 L 91,91 Z"/><path fill-rule="evenodd" fill="#89e051" d="M 0.9514768369584914,104.1249181389895 A 91 91 0 0 1 0.12943435096710232 95.85183456280222 L 91,91 Z"/><path fill-rule="evenodd" fill="#427819" d="M 0.12943435096710232,95.85183456280222 A 91 91 0 0 1 0.06433302599457136 94.42117991236631 L 91,91 Z"/><path fill-rule="evenodd" fill="#8f14e9" d="M 0.06433302599457136,94.42117991236631 A 91 91 0 0 1 0.03651835417088023 93.5777910832552 L 91,91 Z"/><path fill-rule="evenodd" fill="#C1F12E" d="M 0.03651835417088023,93.5777910832552 A 91 91 0 0 1 0.01656364811550759 92.73617671986018 L 91,91 Z"/><path fill-rule="evenodd" fill="#5686a5" d="M 0.01656364811550759,92.73617671986018 A 91 91 0 0 1 0.006276349253226954 92.0687638520872 L 91,91 Z"/><path fill-rule="evenodd" fill="#DA3434" d="M 0.006276349253226954,92.0687638520872 A 91 91 0 0 1 0.0011318499650769809 91.4538671750194 L 91,91 Z"/><path fill-rule="evenodd" fill="#e34c26" d="M 0.0011318499650769809,91.4538671750194 A 91 91 0 0 1 0.00011458832979371891 91.1444128210773 L 91,91 Z"/><path fill-rule="evenodd" fill="#701516" d="M 0.00011458832979371891,91.1444128210773 A 91 91 0 0 1 0.0 91.00000000000003 L 91,91 Z"/></g><g transform="translate(15, 21)"><rect x="0.5" y="0.5" rx="2" width="15" height="15" fill="#f34b7d" stroke-width="1" stroke="#000000"/><text transform="scale(0.095)" x="263" y="132" textLength="1074" lengthAdjust="spacingAndGlyphs">C++ 44.49%</text></g><g transform="translate(15, 42)"><rect x="0.5" y="0.5" rx="2" width="15" height="15" fill="#438eff" stroke-width="1" stroke="#000000"/><text transform="scale(0.095)" x="263" y="132" textLength="1642" lengthAdjust="spacingAndGlyphs">Objective-C 14.73%</text></g><g transform="translate(15, 63)"><rect x="0.5" y="0.5" rx="2" width="15" height="15" fill="#555555" stroke-width="1" stroke="#000000"/><text transform="scale(0.095)" x="263" y="132" textLength="693" lengthAdjust="spacingAndGlyphs">C 7.64%</text></g><g transform="translate(15, 84)"><rect x="0.5" y="0.5" rx="2" width="15" height="15" fill="#dea584" stroke-width="1" stroke="#000000"/><text transform="scale(0.095)" x="263" y="132" textLength="946" lengthAdjust="spacingAndGlyphs">Rust 7.25%</text></g><g transform="translate(15, 105)"><rect x="0.5" y="0.5" rx="2" width="15" height="15" fill="#b07219" stroke-width="1" stroke="#000000"/><text transform="scale(0.095)" x="263" y="132" textLength="933" lengthAdjust="spacingAndGlyphs">Java 5.88%</text></g><g transform="translate(15, 126)"><rect x="0.5" y="0.5" rx="2" width="15" height="15" fill="#00ADD8" stroke-width="1" stroke="#000000"/><text transform="scale(0.095)" x="263" y="132" textLength="806" lengthAdjust="spacingAndGlyphs">Go 4.71%</text></g><g transform="translate(15, 147)"><rect x="0.5" y="0.5" rx="2" width="15" height="15" fill="#A97BFF" stroke-width="1" stroke="#000000"/><text transform="scale(0.095)" x="263" y="132" textLength="1048" lengthAdjust="spacingAndGlyphs">Kotlin 4.48%</text></g><g transform="translate(15, 168)"><rect x="0.5" y="0.5" rx="2" width="15" height="15" fill="#000080" stroke-width="1" stroke="#000000"/><text transform="scale(0.095)" x="263" y="132" textLength="874" lengthAdjust="spacingAndGlyphs">Lua 2.72%</text></g><g transform="translate(15, 189)"><rect x="0.5" y="0.5" rx="2" width="15" height="15" fill="#f1e05a" stroke-width="1" stroke="#000000"/><text transform="scale(0.095)" x="263" y="132" textLength="1412" lengthAdjust="spacingAndGlyphs">JavaScript 2.50%</text></g><g transform="translate(15, 210)"><rect x="0.5" y="0.5" rx="2" width="15" height="15" fill="#3178c6" stroke-width="1" stroke="#000000"/><text transform="scale(0.095)" x="263" y="132" textLength="1462" lengthAdjust="spacingAndGlyphs">TypeScript 1.75%</text><rect x="228.5" y="0.5" rx="2" width="15" height="15" fill="#6866fb" stroke-width="1" stroke="#000000"/><text transform="scale(0.095)" x="2663" y="132" textLength="1814" lengthAdjust="spacingAndGlyphs">Objective-C++ 1.56%</text></g><g transform="translate(15, 231)"><rect x="0.5" y="0.5" rx="2" width="15" height="15" fill="#89e051" stroke-width="1" stroke="#000000"/><text transform="scale(0.095)" x="263" y="132" textLength="982" lengthAdjust="spacingAndGlyphs">Shell 1.45%</text><rect x="228.5" y="0.5" rx="2" width="15" height="15" fill="#427819" stroke-width="1" stroke="#000000"/><text transform="scale(0.095)" x="2663" y="132" textLength="1272" lengthAdjust="spacingAndGlyphs">Makefile 0.25%</text></g><g transform="translate(15, 252)"><rect x="0.5" y="0.5" rx="2" width="15" height="15" fill="#8f14e9" stroke-width="1" stroke="#000000"/><text transform="scale(0.095)" x="263" y="132" textLength="1034" lengthAdjust="spacingAndGlyphs">Metal 0.15%</text><rect x="228.5" y="0.5" rx="2" width="15" height="15" fill="#C1F12E" stroke-width="1" stroke="#000000"/><text transform="scale(0.095)" x="2663" y="132" textLength="1304" lengthAdjust="spacingAndGlyphs">Batchfile 0.15%</text></g><g transform="translate(15, 273)"><rect x="0.5" y="0.5" rx="2" width="15" height="15" fill="#5686a5" stroke-width="1" stroke="#000000"/><text transform="scale(0.095)" x="263" y="132" textLength="993" lengthAdjust="spacingAndGlyphs">GLSL 0.12%</text><rect x="228.5" y="0.5" rx="2" width="15" height="15" fill="#DA3434" stroke-width="1" stroke="#000000"/><text transform="scale(0.095)" x="2663" y="132" textLength="1134" lengthAdjust="spacingAndGlyphs">CMake 0.11%</text></g><g transform="translate(15, 294)"><rect x="0.5" y="0.5" rx="2" width="15" height="15" fill="#e34c26" stroke-width="1" stroke="#000000"/><text transform="scale(0.095)" x="263" y="132" textLength="1036" lengthAdjust="spacingAndGlyphs">HTML 0.05%</text><rect x="228.5" y="0.5" rx="2" width="15" height="15" fill="#701516" stroke-width="1" stroke="#000000"/><text transform="scale(0.095)" x="2663" y="132" textLength="999" lengthAdjust="spacingAndGlyphs">Ruby 0.03%</text></g></g></g></svg>