<svg width="457" height="354" viewBox="0 0 457 354" xmlns="http://www.w3.org/2000/svg" lang="en" xml:lang="en"><rect x="2" y="2" stroke-width="4" rx="0" width="453" height="350" stroke="#ffffff" fill="#ffffff"/><g font-weight="600" font-size="110pt" font-family="Verdana,Geneva,DejaVu Sans,sans-serif" text-rendering="geometricPrecision"><text x="946" y="301" lengthAdjust="spacingAndGlyphs" textLength="1816" transform="scale(0.123)" fill="#0969da">~#./code-lang-stat.sh</text><g transform="translate(0, 60)" fill="#24292f"><g transform="translate(15, 0)"><g transform="scale(0.095)"><text x="0" y="132" textLength="3652" lengthAdjust="spacingAndGlyphs">Language Distribution in Public Repositories</text></g></g><g transform="translate(243, 21)"><circle cx="92" cy="92" r="92" fill="#000000"/></g><g transform="translate(244, 22)"><path fill-rule="evenodd" fill="#f34b7d" d="M 0.0,91.00000000000001 A 91 91 0 0 1 181.45022933131855 81.01220675464904 L 91,91 Z"/><path fill-rule="evenodd" fill="#438eff" d="M 181.45022933131855,81.01220675464904 A 91 91 0 0 1 155.7291225081378 154.96202544734248 L 91,91 Z"/><path fill-rule="evenodd" fill="#555555" d="M 155.7291225081378,154.96202544734248 A 91 91 0 0 1 119.06092222745711 177.56549337781541 L 91,91 Z"/><path fill-rule="evenodd" fill="#dea584" d="M 119.06092222745711,177.56549337781541 A 91 91 0 0 1 79.72770141735579 181.29914332187053 L 91,91 Z"/><path fill-rule="evenodd" fill="#b07219" d="M 79.72770141735579,181.29914332187053 A 91 91 0 0 1 49.05493643201082 171.75649597572536 L 91,91 Z"/><path fill-rule="evenodd" fill="#00ADD8" d="M 49.05493643201082,171.75649597572536 A 91 91 0 0 1 28.059490963755152 156.72284475171764 L 91,91 Z"/><path fill-rule="evenodd" fill="#A97BFF" d="M 28.059490963755152,156.72284475171764 A 91 91 0 0 1 12.747859528517111 137.45000012520248 L 91,91 Z"/><path fill-rule="evenodd" fill="#000080" d="M 12.747859528517111,137.45000012520248 A 91 91 0 0 1 6.314547716318572 124.3072690490877 L 91,91 Z"/><path fill-rule="evenodd" fill="#f1e05a" d="M 6.314547716318572,124.3072690490877 A 91 91 0 0 1 2.165031223690306 110.7319112736725 L 91,91 Z"/><path fill-rule="evenodd" fill="#3178c6" d="M 2.165031223690306,110.7319112736725 A 91 91 0 0 1 0.6072909515187206 101.49562532089499 L 91,91 Z"/><path fill-rule="evenodd" fill="#6866fb" d="M 0.6072909515187206,101.49562532089499 A 91 91 0 0 1 0.016791078803507276 92.74805446194073 L 91,91 Z"/><path fill-rule="evenodd" fill="#8f14e9" d="M 0.016791078803507276,92.74805446194073 A 91 91 0 0 1 0.004824853202279655 91.93706990326582 L 91,91 Z"/><path fill-rule="evenodd" fill="#5686a5" d="M 0.004824853202279655,91.93706990326582 A 91 91 0 0 1 0.00047983979422383527 91.29551753298685 L 91,91 Z"/><path fill-rule="evenodd" fill="#e34c26" d="M 0.00047983979422383527,91.29551753298685 A 91 91 0 0 1 0.0 91.00000000000003 L 91,91 Z"/></g><g transform="translate(15, 21)"><rect x="0.5" y="0.5" rx="2" width="15" height="15" fill="#f34b7d" stroke-width="1" stroke="#000000"/><text transform="scale(0.095)" x="263" y="132" textLength="1074" lengthAdjust="spacingAndGlyphs">C++ 48.25%</text></g><g transform="translate(15, 42)"><rect x="0.5" y="0.5" rx="2" width="15" height="15" fill="#438eff" stroke-width="1" stroke="#000000"/><text transform="scale(0.095)" x="263" y="132" textLength="1642" lengthAdjust="spacingAndGlyphs">Objective-C 14.16%</text></g><g transform="translate(15, 63)"><rect x="0.5" y="0.5" rx="2" width="15" height="15" fill="#555555" stroke-width="1" stroke="#000000"/><text transform="scale(0.095)" x="263" y="132" textLength="693" lengthAdjust="spacingAndGlyphs">C 7.61%</text></g><g transform="translate(15, 84)"><rect x="0.5" y="0.5" rx="2" width="15" height="15" fill="#dea584" stroke-width="1" stroke="#000000"/><text transform="scale(0.095)" x="263" y="132" textLength="946" lengthAdjust="spacingAndGlyphs">Rust 6.97%</text></g><g transform="translate(15, 105)"><rect x="0.5" y="0.5" rx="2" width="15" height="15" fill="#b07219" stroke-width="1" stroke="#000000"/><text transform="scale(0.095)" x="263" y="132" textLength="933" lengthAdjust="spacingAndGlyphs">Java 5.65%</text></g><g transform="translate(15, 126)"><rect x="0.5" y="0.5" rx="2" width="15" height="15" fill="#00ADD8" stroke-width="1" stroke="#000000"/><text transform="scale(0.095)" x="263" y="132" textLength="806" lengthAdjust="spacingAndGlyphs">Go 4.53%</text></g><g transform="translate(15, 147)"><rect x="0.5" y="0.5" rx="2" width="15" height="15" fill="#A97BFF" stroke-width="1" stroke="#000000"/><text transform="scale(0.095)" x="263" y="132" textLength="1048" lengthAdjust="spacingAndGlyphs">Kotlin 4.32%</text></g><g transform="translate(15, 168)"><rect x="0.5" y="0.5" rx="2" width="15" height="15" fill="#000080" stroke-width="1" stroke="#000000"/><text transform="scale(0.095)" x="263" y="132" textLength="874" lengthAdjust="spacingAndGlyphs">Lua 2.56%</text></g><g transform="translate(15, 189)"><rect x="0.5" y="0.5" rx="2" width="15" height="15" fill="#f1e05a" stroke-width="1" stroke="#000000"/><text transform="scale(0.095)" x="263" y="132" textLength="1412" lengthAdjust="spacingAndGlyphs">JavaScript 2.49%</text></g><g transform="translate(15, 210)"><rect x="0.5" y="0.5" rx="2" width="15" height="15" fill="#3178c6" stroke-width="1" stroke="#000000"/><text transform="scale(0.095)" x="263" y="132" textLength="1462" lengthAdjust="spacingAndGlyphs">TypeScript 1.64%</text><rect x="228.5" y="0.5" rx="2" width="15" height="15" fill="#6866fb" stroke-width="1" stroke="#000000"/><text transform="scale(0.095)" x="2663" y="132" textLength="1814" lengthAdjust="spacingAndGlyphs">Objective-C++ 1.53%</text></g><g transform="translate(15, 231)"><rect x="0.5" y="0.5" rx="2" width="15" height="15" fill="#8f14e9" stroke-width="1" stroke="#000000"/><text transform="scale(0.095)" x="263" y="132" textLength="1034" lengthAdjust="spacingAndGlyphs">Metal 0.14%</text><rect x="228.5" y="0.5" rx="2" width="15" height="15" fill="#5686a5" stroke-width="1" stroke="#000000"/><text transform="scale(0.095)" x="2663" y="132" textLength="993" lengthAdjust="spacingAndGlyphs">GLSL 0.11%</text></g><g transform="translate(15, 252)"><rect x="0.5" y="0.5" rx="2" width="15" height="15" fill="#e34c26" stroke-width="1" stroke="#000000"/><text transform="scale(0.095)" x="263" y="132" textLength="1036" lengthAdjust="spacingAndGlyphs">HTML 0.05%</text></g></g></g></svg>