<svg width="457" height="396" viewBox="0 0 457 396" xmlns="http://www.w3.org/2000/svg" lang="en" xml:lang="en"><rect x="2" y="2" stroke-width="4" rx="0" width="453" height="392" stroke="#ffffff" fill="#ffffff"/><g font-weight="600" font-size="110pt" font-family="Verdana,Geneva,DejaVu Sans,sans-serif" text-rendering="geometricPrecision"><text x="895" y="301" lengthAdjust="spacingAndGlyphs" textLength="1917" transform="scale(0.123)" fill="#0969da">Rinc's GitHub Statistics</text><g transform="translate(0, 60)" fill="#24292f"><g transform="translate(15, 0)"><g transform="scale(0.095)"><text x="0" y="132" textLength="3652" lengthAdjust="spacingAndGlyphs">Language Distribution in Public Repositories</text></g></g><g transform="translate(243, 21)"><circle cx="92" cy="92" r="92" fill="#000000"/></g><g transform="translate(244, 22)"><path fill-rule="evenodd" fill="#f34b7d" d="M 0.0,91.00000000000001 A 91 91 0 0 1 176.07623718555112 58.703965160598315 L 91,91 Z"/><path fill-rule="evenodd" fill="#438eff" d="M 176.07623718555112,58.703965160598315 A 91 91 0 0 1 167.75653188591036 139.881845432095 L 91,91 Z"/><path fill-rule="evenodd" fill="#555555" d="M 167.75653188591036,139.881845432095 A 91 91 0 0 1 136.34008383775304 169.90042330422267 L 91,91 Z"/><path fill-rule="evenodd" fill="#dea584" d="M 136.34008383775304,169.90042330422267 A 91 91 0 0 1 96.8261378291962 181.81330363991395 L 91,91 Z"/><path fill-rule="evenodd" fill="#b07219" d="M 96.8261378291962,181.81330363991395 A 91 91 0 0 1 63.510266477209896 177.74857088647622 L 91,91 Z"/><path fill-rule="evenodd" fill="#00ADD8" d="M 63.510266477209896,177.74857088647622 A 91 91 0 0 1 39.278851048826255 165.87271032339152 L 91,91 Z"/><path fill-rule="evenodd" fill="#A97BFF" d="M 39.278851048826255,165.87271032339152 A 91 91 0 0 1 20.44030676374669 148.46590024010612 L 91,91 Z"/><path fill-rule="evenodd" fill="#000080" d="M 20.44030676374669,148.46590024010612 A 91 91 0 0 1 11.653304228743153 135.55448204371373 L 91,91 Z"/><path fill-rule="evenodd" fill="#f1e05a" d="M 11.653304228743153,135.55448204371373 A 91 91 0 0 1 5.645669196450726 122.55373532687184 L 91,91 Z"/><path fill-rule="evenodd" fill="#3178c6" d="M 5.645669196450726,122.55373532687184 A 91 91 0 0 1 2.6938251358002105 112.97770417612746 L 91,91 Z"/><path fill-rule="evenodd" fill="#6866fb" d="M 2.6938251358002105,112.97770417612746 A 91 91 0 0 1 0.9604973073661967 104.18665821439193 L 91,91 Z"/><path fill-rule="evenodd" fill="#89e051" d="M 0.9604973073661967,104.18665821439193 A 91 91 0 0 1 0.13066332531761304 95.87479766792671 L 91,91 Z"/><path fill-rule="evenodd" fill="#427819" d="M 0.13066332531761304,95.87479766792671 A 91 91 0 0 1 0.06494393925764541 94.43737970402512 L 91,91 Z"/><path fill-rule="evenodd" fill="#8f14e9" d="M 0.06494393925764541,94.43737970402512 A 91 91 0 0 1 0.03686515418928593 93.58999981136218 L 91,91 Z"/><path fill-rule="evenodd" fill="#C1F12E" d="M 0.03686515418928593,93.58999981136218 A 91 91 0 0 1 0.016720952177294635 92.74440067244451 L 91,91 Z"/><path fill-rule="evenodd" fill="#5686a5" d="M 0.016720952177294635,92.74440067244451 A 91 91 0 0 1 0.006335956533206399 92.07382677592749 L 91,91 Z"/><path fill-rule="evenodd" fill="#DA3434" d="M 0.006335956533206399,92.07382677592749 A 91 91 0 0 1 0.0011425993891123198 91.45601730590494 L 91,91 Z"/><path fill-rule="evenodd" fill="#e34c26" d="M 0.0011425993891123198,91.45601730590494 A 91 91 0 0 1 0.00011567660199318652 91.14509696131589 L 91,91 Z"/><path fill-rule="evenodd" fill="#701516" d="M 0.00011567660199318652,91.14509696131589 A 91 91 0 0 1 0.0 91.00000000000003 L 91,91 Z"/></g><g transform="translate(15, 21)"><rect x="0.5" y="0.5" rx="2" width="15" height="15" fill="#f34b7d" stroke-width="1" stroke="#000000"/><text transform="scale(0.095)" x="263" y="132" textLength="1074" lengthAdjust="spacingAndGlyphs">C++ 44.23%</text></g><g transform="translate(15, 42)"><rect x="0.5" y="0.5" rx="2" width="15" height="15" fill="#438eff" stroke-width="1" stroke="#000000"/><text transform="scale(0.095)" x="263" y="132" textLength="1642" lengthAdjust="spacingAndGlyphs">Objective-C 14.80%</text></g><g transform="translate(15, 63)"><rect x="0.5" y="0.5" rx="2" width="15" height="15" fill="#555555" stroke-width="1" stroke="#000000"/><text transform="scale(0.095)" x="263" y="132" textLength="693" lengthAdjust="spacingAndGlyphs">C 7.67%</text></g><g transform="translate(15, 84)"><rect x="0.5" y="0.5" rx="2" width="15" height="15" fill="#dea584" stroke-width="1" stroke="#000000"/><text transform="scale(0.095)" x="263" y="132" textLength="946" lengthAdjust="spacingAndGlyphs">Rust 7.28%</text></g><g transform="translate(15, 105)"><rect x="0.5" y="0.5" rx="2" width="15" height="15" fill="#b07219" stroke-width="1" stroke="#000000"/><text transform="scale(0.095)" x="263" y="132" textLength="933" lengthAdjust="spacingAndGlyphs">Java 5.90%</text></g><g transform="translate(15, 126)"><rect x="0.5" y="0.5" rx="2" width="15" height="15" fill="#00ADD8" stroke-width="1" stroke="#000000"/><text transform="scale(0.095)" x="263" y="132" textLength="806" lengthAdjust="spacingAndGlyphs">Go 4.74%</text></g><g transform="translate(15, 147)"><rect x="0.5" y="0.5" rx="2" width="15" height="15" fill="#A97BFF" stroke-width="1" stroke="#000000"/><text transform="scale(0.095)" x="263" y="132" textLength="1048" lengthAdjust="spacingAndGlyphs">Kotlin 4.50%</text></g><g transform="translate(15, 168)"><rect x="0.5" y="0.5" rx="2" width="15" height="15" fill="#000080" stroke-width="1" stroke="#000000"/><text transform="scale(0.095)" x="263" y="132" textLength="874" lengthAdjust="spacingAndGlyphs">Lua 2.73%</text></g><g transform="translate(15, 189)"><rect x="0.5" y="0.5" rx="2" width="15" height="15" fill="#f1e05a" stroke-width="1" stroke="#000000"/><text transform="scale(0.095)" x="263" y="132" textLength="1412" lengthAdjust="spacingAndGlyphs">JavaScript 2.51%</text></g><g transform="translate(15, 210)"><rect x="0.5" y="0.5" rx="2" width="15" height="15" fill="#3178c6" stroke-width="1" stroke="#000000"/><text transform="scale(0.095)" x="263" y="132" textLength="1462" lengthAdjust="spacingAndGlyphs">TypeScript 1.75%</text><rect x="228.5" y="0.5" rx="2" width="15" height="15" fill="#6866fb" stroke-width="1" stroke="#000000"/><text transform="scale(0.095)" x="2663" y="132" textLength="1814" lengthAdjust="spacingAndGlyphs">Objective-C++ 1.57%</text></g><g transform="translate(15, 231)"><rect x="0.5" y="0.5" rx="2" width="15" height="15" fill="#89e051" stroke-width="1" stroke="#000000"/><text transform="scale(0.095)" x="263" y="132" textLength="982" lengthAdjust="spacingAndGlyphs">Shell 1.46%</text><rect x="228.5" y="0.5" rx="2" width="15" height="15" fill="#427819" stroke-width="1" stroke="#000000"/><text transform="scale(0.095)" x="2663" y="132" textLength="1272" lengthAdjust="spacingAndGlyphs">Makefile 0.25%</text></g><g transform="translate(15, 252)"><rect x="0.5" y="0.5" rx="2" width="15" height="15" fill="#8f14e9" stroke-width="1" stroke="#000000"/><text transform="scale(0.095)" x="263" y="132" textLength="1034" lengthAdjust="spacingAndGlyphs">Metal 0.15%</text><rect x="228.5" y="0.5" rx="2" width="15" height="15" fill="#C1F12E" stroke-width="1" stroke="#000000"/><text transform="scale(0.095)" x="2663" y="132" textLength="1304" lengthAdjust="spacingAndGlyphs">Batchfile 0.15%</text></g><g transform="translate(15, 273)"><rect x="0.5" y="0.5" rx="2" width="15" height="15" fill="#5686a5" stroke-width="1" stroke="#000000"/><text transform="scale(0.095)" x="263" y="132" textLength="993" lengthAdjust="spacingAndGlyphs">GLSL 0.12%</text><rect x="228.5" y="0.5" rx="2" width="15" height="15" fill="#DA3434" stroke-width="1" stroke="#000000"/><text transform="scale(0.095)" x="2663" y="132" textLength="1134" lengthAdjust="spacingAndGlyphs">CMake 0.11%</text></g><g transform="translate(15, 294)"><rect x="0.5" y="0.5" rx="2" width="15" height="15" fill="#e34c26" stroke-width="1" stroke="#000000"/><text transform="scale(0.095)" x="263" y="132" textLength="1036" lengthAdjust="spacingAndGlyphs">HTML 0.05%</text><rect x="228.5" y="0.5" rx="2" width="15" height="15" fill="#701516" stroke-width="1" stroke="#000000"/><text transform="scale(0.095)" x="2663" y="132" textLength="999" lengthAdjust="spacingAndGlyphs">Ruby 0.03%</text></g></g></g></svg>