<svg width="457" height="396" viewBox="0 0 457 396" xmlns="http://www.w3.org/2000/svg" lang="en" xml:lang="en"><rect x="2" y="2" stroke-width="4" rx="0" width="453" height="392" stroke="#ffffff" fill="#ffffff"/><g font-weight="600" font-size="110pt" font-family="Verdana,Geneva,DejaVu Sans,sans-serif" text-rendering="geometricPrecision"><text x="895" y="301" lengthAdjust="spacingAndGlyphs" textLength="1917" transform="scale(0.123)" fill="#0969da">Rinc's GitHub Statistics</text><g transform="translate(0, 60)" fill="#24292f"><g transform="translate(15, 0)"><g transform="scale(0.095)"><text x="0" y="132" textLength="3652" lengthAdjust="spacingAndGlyphs">Language Distribution in Public Repositories</text></g></g><g transform="translate(243, 21)"><circle cx="92" cy="92" r="92" fill="#000000"/></g><g transform="translate(244, 22)"><path fill-rule="evenodd" fill="#f34b7d" d="M 0.0,91.00000000000001 A 91 91 0 0 1 166.97307913016476 40.909170026024505 L 91,91 Z"/><path fill-rule="evenodd" fill="#438eff" d="M 166.97307913016476,40.909170026024505 A 91 91 0 0 1 175.53014390810444 124.69947730863419 L 91,91 Z"/><path fill-rule="evenodd" fill="#555555" d="M 175.53014390810444,124.69947730863419 A 91 91 0 0 1 147.41073684471488 162.40608355480873 L 91,91 Z"/><path fill-rule="evenodd" fill="#dea584" d="M 147.41073684471488,162.40608355480873 A 91 91 0 0 1 110.61923417760418 179.85992150730456 L 91,91 Z"/><path fill-rule="evenodd" fill="#b07219" d="M 110.61923417760418,179.85992150730456 A 91 91 0 0 1 75.82366328266637 180.72557497080814 L 91,91 Z"/><path fill-rule="evenodd" fill="#00ADD8" d="M 75.82366328266637,180.72557497080814 A 91 91 0 0 1 49.27254404366999 171.8691499857179 L 91,91 Z"/><path fill-rule="evenodd" fill="#A97BFF" d="M 49.27254404366999,171.8691499857179 A 91 91 0 0 1 27.71248609311717 156.38876496376201 L 91,91 Z"/><path fill-rule="evenodd" fill="#000080" d="M 27.71248609311717,156.38876496376201 A 91 91 0 0 1 14.705259922347622 140.59952254289817 L 91,91 Z"/><path fill-rule="evenodd" fill="#f1e05a" d="M 14.705259922347622,140.59952254289817 A 91 91 0 0 1 7.776551362676784 127.80839030589118 L 91,91 Z"/><path fill-rule="evenodd" fill="#3178c6" d="M 7.776551362676784,127.80839030589118 A 91 91 0 0 1 4.101219216377842 118.01114396540768 L 91,91 Z"/><path fill-rule="evenodd" fill="#6866fb" d="M 4.101219216377842,118.01114396540768 A 91 91 0 0 1 1.9387784727150148 109.68418636355 L 91,91 Z"/><path fill-rule="evenodd" fill="#DA3434" d="M 1.9387784727150148,109.68418636355 A 91 91 0 0 1 0.5990702040207481 101.42458114374058 L 91,91 Z"/><path fill-rule="evenodd" fill="#89e051" d="M 0.5990702040207481,101.42458114374058 A 91 91 0 0 1 0.08598905848963057 94.95507452861938 L 91,91 Z"/><path fill-rule="evenodd" fill="#427819" d="M 0.08598905848963057,94.95507452861938 A 91 91 0 0 1 0.03334108142043135 93.46312102642317 L 91,91 Z"/><path fill-rule="evenodd" fill="#8f14e9" d="M 0.03334108142043135,93.46312102642317 A 91 91 0 0 1 0.013781792905433576 92.58369705782796 L 91,91 Z"/><path fill-rule="evenodd" fill="#5686a5" d="M 0.013781792905433576,92.58369705782796 A 91 91 0 0 1 0.004332328227903304 91.8879554991155 L 91,91 Z"/><path fill-rule="evenodd" fill="#C1F12E" d="M 0.004332328227903304,91.8879554991155 A 91 91 0 0 1 0.0012299080106430438 91.47311916602838 L 91,91 Z"/><path fill-rule="evenodd" fill="#e34c26" d="M 0.0012299080106430438,91.47311916602838 A 91 91 0 0 1 0.0001245157324945012 91.15053852600342 L 91,91 Z"/><path fill-rule="evenodd" fill="#701516" d="M 0.0001245157324945012,91.15053852600342 A 91 91 0 0 1 0.0 91.00000000000003 L 91,91 Z"/></g><g transform="translate(15, 21)"><rect x="0.5" y="0.5" rx="2" width="15" height="15" fill="#f34b7d" stroke-width="1" stroke="#000000"/><text transform="scale(0.095)" x="263" y="132" textLength="1074" lengthAdjust="spacingAndGlyphs">C++ 40.72%</text></g><g transform="translate(15, 42)"><rect x="0.5" y="0.5" rx="2" width="15" height="15" fill="#438eff" stroke-width="1" stroke="#000000"/><text transform="scale(0.095)" x="263" y="132" textLength="1642" lengthAdjust="spacingAndGlyphs">Objective-C 15.31%</text></g><g transform="translate(15, 63)"><rect x="0.5" y="0.5" rx="2" width="15" height="15" fill="#555555" stroke-width="1" stroke="#000000"/><text transform="scale(0.095)" x="263" y="132" textLength="693" lengthAdjust="spacingAndGlyphs">C 8.32%</text></g><g transform="translate(15, 84)"><rect x="0.5" y="0.5" rx="2" width="15" height="15" fill="#dea584" stroke-width="1" stroke="#000000"/><text transform="scale(0.095)" x="263" y="132" textLength="946" lengthAdjust="spacingAndGlyphs">Rust 7.18%</text></g><g transform="translate(15, 105)"><rect x="0.5" y="0.5" rx="2" width="15" height="15" fill="#b07219" stroke-width="1" stroke="#000000"/><text transform="scale(0.095)" x="263" y="132" textLength="933" lengthAdjust="spacingAndGlyphs">Java 6.13%</text></g><g transform="translate(15, 126)"><rect x="0.5" y="0.5" rx="2" width="15" height="15" fill="#00ADD8" stroke-width="1" stroke="#000000"/><text transform="scale(0.095)" x="263" y="132" textLength="806" lengthAdjust="spacingAndGlyphs">Go 4.91%</text></g><g transform="translate(15, 147)"><rect x="0.5" y="0.5" rx="2" width="15" height="15" fill="#A97BFF" stroke-width="1" stroke="#000000"/><text transform="scale(0.095)" x="263" y="132" textLength="1048" lengthAdjust="spacingAndGlyphs">Kotlin 4.66%</text></g><g transform="translate(15, 168)"><rect x="0.5" y="0.5" rx="2" width="15" height="15" fill="#000080" stroke-width="1" stroke="#000000"/><text transform="scale(0.095)" x="263" y="132" textLength="874" lengthAdjust="spacingAndGlyphs">Lua 3.59%</text></g><g transform="translate(15, 189)"><rect x="0.5" y="0.5" rx="2" width="15" height="15" fill="#f1e05a" stroke-width="1" stroke="#000000"/><text transform="scale(0.095)" x="263" y="132" textLength="1412" lengthAdjust="spacingAndGlyphs">JavaScript 2.55%</text></g><g transform="translate(15, 210)"><rect x="0.5" y="0.5" rx="2" width="15" height="15" fill="#3178c6" stroke-width="1" stroke="#000000"/><text transform="scale(0.095)" x="263" y="132" textLength="1462" lengthAdjust="spacingAndGlyphs">TypeScript 1.83%</text><rect x="228.5" y="0.5" rx="2" width="15" height="15" fill="#6866fb" stroke-width="1" stroke="#000000"/><text transform="scale(0.095)" x="2663" y="132" textLength="1814" lengthAdjust="spacingAndGlyphs">Objective-C++ 1.51%</text></g><g transform="translate(15, 231)"><rect x="0.5" y="0.5" rx="2" width="15" height="15" fill="#DA3434" stroke-width="1" stroke="#000000"/><text transform="scale(0.095)" x="263" y="132" textLength="1134" lengthAdjust="spacingAndGlyphs">CMake 1.46%</text><rect x="228.5" y="0.5" rx="2" width="15" height="15" fill="#89e051" stroke-width="1" stroke="#000000"/><text transform="scale(0.095)" x="2663" y="132" textLength="982" lengthAdjust="spacingAndGlyphs">Shell 1.14%</text></g><g transform="translate(15, 252)"><rect x="0.5" y="0.5" rx="2" width="15" height="15" fill="#427819" stroke-width="1" stroke="#000000"/><text transform="scale(0.095)" x="263" y="132" textLength="1272" lengthAdjust="spacingAndGlyphs">Makefile 0.26%</text><rect x="228.5" y="0.5" rx="2" width="15" height="15" fill="#8f14e9" stroke-width="1" stroke="#000000"/><text transform="scale(0.095)" x="2663" y="132" textLength="1034" lengthAdjust="spacingAndGlyphs">Metal 0.15%</text></g><g transform="translate(15, 273)"><rect x="0.5" y="0.5" rx="2" width="15" height="15" fill="#5686a5" stroke-width="1" stroke="#000000"/><text transform="scale(0.095)" x="263" y="132" textLength="993" lengthAdjust="spacingAndGlyphs">GLSL 0.12%</text><rect x="228.5" y="0.5" rx="2" width="15" height="15" fill="#C1F12E" stroke-width="1" stroke="#000000"/><text transform="scale(0.095)" x="2663" y="132" textLength="1304" lengthAdjust="spacingAndGlyphs">Batchfile 0.07%</text></g><g transform="translate(15, 294)"><rect x="0.5" y="0.5" rx="2" width="15" height="15" fill="#e34c26" stroke-width="1" stroke="#000000"/><text transform="scale(0.095)" x="263" y="132" textLength="1036" lengthAdjust="spacingAndGlyphs">HTML 0.06%</text><rect x="228.5" y="0.5" rx="2" width="15" height="15" fill="#701516" stroke-width="1" stroke="#000000"/><text transform="scale(0.095)" x="2663" y="132" textLength="999" lengthAdjust="spacingAndGlyphs">Ruby 0.03%</text></g></g></g></svg>